<svg width="152" height="152" viewBox="0 0 152 152" fill="none" xmlns="http://www.w3.org/2000/svg">
<g style="mix-blend-mode:multiply">
<path d="M26.8986 136.03C-2.64533 107.3 -2.87344 59.621 26.3835 29.5362C55.6404 -0.548552 103.315 -1.62655 132.848 27.0711C162.381 55.7688 157.032 97.6307 127.789 127.715C98.5472 157.8 56.4388 164.761 26.8986 136.03Z" fill="#F6D2E1" fill-opacity="0.45"/>
</g>
<g opacity="0.53">
<path opacity="0.53" d="M142.704 44.2065L141.516 43.9122C141.361 43.8654 141.223 43.7762 141.116 43.6545C141.009 43.5329 140.939 43.3838 140.913 43.2241L140.659 41.9585C140.647 41.9079 140.619 41.8627 140.579 41.8303C140.538 41.7979 140.488 41.7803 140.436 41.7803C140.384 41.7803 140.334 41.7979 140.294 41.8303C140.253 41.8627 140.225 41.9079 140.214 41.9585L140 43.1285C139.973 43.3164 139.894 43.4929 139.771 43.6375C139.648 43.782 139.486 43.8888 139.305 43.9453L138.201 44.2359C138.149 44.2491 138.102 44.2795 138.069 44.3221C138.036 44.3648 138.018 44.4173 138.018 44.4714C138.018 44.5255 138.036 44.578 138.069 44.6207C138.102 44.6633 138.149 44.6937 138.201 44.7069L139.305 44.9791C139.486 45.0334 139.649 45.1378 139.774 45.2804C139.899 45.4229 139.981 45.5977 140.011 45.7849L140.247 46.9548C140.258 47.0054 140.286 47.0506 140.327 47.083C140.367 47.1154 140.417 47.1331 140.469 47.1331C140.521 47.1331 140.571 47.1154 140.612 47.083C140.652 47.0506 140.681 47.0054 140.692 46.9548L140.927 45.6782C140.95 45.52 141.017 45.3714 141.12 45.2496C141.224 45.1278 141.36 45.0379 141.512 44.9902L142.701 44.6738C142.754 44.6625 142.802 44.6334 142.837 44.5912C142.871 44.5489 142.89 44.4962 142.891 44.4416C142.891 44.3871 142.873 44.334 142.839 44.2912C142.805 44.2485 142.758 44.2186 142.704 44.2065Z" fill="#F2BC36"/>
<path opacity="0.53" d="M143.161 89.4858L141.502 89.0737C141.286 89.0094 141.093 88.8855 140.945 88.7162C140.796 88.547 140.699 88.3394 140.663 88.1171L140.295 86.3474C140.282 86.275 140.243 86.2096 140.186 86.1626C140.129 86.1156 140.058 86.0898 139.984 86.0898C139.911 86.0898 139.839 86.1156 139.783 86.1626C139.726 86.2096 139.687 86.275 139.673 86.3474L139.372 87.981C139.334 88.2438 139.223 88.4907 139.051 88.6932C138.879 88.8956 138.654 89.0454 138.4 89.1252L136.87 89.5299C136.798 89.5489 136.733 89.5913 136.688 89.6505C136.642 89.7098 136.617 89.7825 136.617 89.8574C136.617 89.9322 136.642 90.005 136.688 90.0642C136.733 90.1234 136.798 90.1659 136.87 90.1848L138.408 90.5527C138.662 90.6279 138.89 90.7735 139.065 90.9727C139.24 91.1719 139.356 91.4166 139.398 91.6786L139.721 93.3084C139.735 93.3809 139.774 93.4462 139.83 93.4933C139.887 93.5403 139.958 93.566 140.032 93.566C140.106 93.566 140.177 93.5403 140.234 93.4933C140.291 93.4462 140.329 93.3809 140.343 93.3084L140.671 91.5314C140.703 91.3099 140.797 91.102 140.942 90.9315C141.087 90.761 141.278 90.6349 141.491 90.5674L143.15 90.1296C143.219 90.1087 143.279 90.0667 143.322 90.0096C143.365 89.9525 143.389 89.8832 143.39 89.8117C143.391 89.7402 143.37 89.6702 143.329 89.6116C143.288 89.553 143.229 89.509 143.161 89.4858Z" fill="#F2BC36"/>
<path opacity="0.53" d="M140.474 31.9072L138.8 31.4878C138.584 31.4244 138.39 31.3009 138.241 31.1315C138.091 30.9622 137.993 30.754 137.958 30.5312L137.59 28.7615C137.576 28.6891 137.538 28.6237 137.481 28.5767C137.424 28.5296 137.353 28.5039 137.279 28.5039C137.205 28.5039 137.134 28.5296 137.077 28.5767C137.02 28.6237 136.982 28.6891 136.968 28.7615L136.666 30.395C136.627 30.6579 136.515 30.9045 136.343 31.1067C136.17 31.309 135.945 31.4589 135.692 31.5393L134.161 31.944C134.089 31.9629 134.024 32.0054 133.979 32.0646C133.933 32.1239 133.908 32.1966 133.908 32.2714C133.908 32.3463 133.933 32.419 133.979 32.4783C134.024 32.5375 134.089 32.5799 134.161 32.5989L135.703 32.9668C135.957 33.0427 136.184 33.1885 136.359 33.3876C136.534 33.5867 136.65 33.831 136.692 34.0926L137.016 35.7262C137.03 35.7986 137.068 35.864 137.125 35.911C137.182 35.958 137.253 35.9838 137.327 35.9838C137.401 35.9838 137.472 35.958 137.529 35.911C137.586 35.864 137.624 35.7986 137.638 35.7262L137.965 33.9491C137.997 33.7264 138.091 33.5172 138.237 33.3459C138.383 33.1746 138.575 33.0482 138.789 32.9815L140.445 32.5437C140.512 32.5232 140.57 32.4826 140.613 32.4275C140.656 32.3724 140.68 32.3054 140.684 32.2358C140.687 32.1661 140.669 32.0972 140.631 32.0384C140.594 31.9796 140.539 31.9337 140.474 31.9072Z" fill="#F2BC36"/>
<path opacity="0.53" d="M23.9478 136.149L22.8441 135.873C22.6998 135.831 22.5705 135.749 22.4709 135.636C22.3713 135.524 22.3055 135.385 22.2811 135.237L22.0457 134.056C22.0348 134.009 22.0083 133.967 21.9706 133.937C21.9328 133.907 21.886 133.891 21.8378 133.891C21.7896 133.891 21.7428 133.907 21.7051 133.937C21.6673 133.967 21.6408 134.009 21.6299 134.056L21.4313 135.16C21.4061 135.335 21.3319 135.499 21.2174 135.634C21.1028 135.769 20.9525 135.868 20.7837 135.921L19.7609 136.193C19.7112 136.205 19.6668 136.232 19.6351 136.272C19.6033 136.312 19.5859 136.361 19.5859 136.412C19.5859 136.463 19.6033 136.513 19.6351 136.552C19.6668 136.592 19.7112 136.62 19.7609 136.631L20.7874 136.885C20.9549 136.934 21.1054 137.029 21.2218 137.159C21.3382 137.289 21.4159 137.449 21.446 137.621L21.663 138.725C21.6739 138.772 21.7004 138.814 21.7382 138.844C21.7759 138.874 21.8227 138.89 21.8709 138.89C21.9191 138.89 21.9659 138.874 22.0037 138.844C22.0414 138.814 22.0679 138.772 22.0788 138.725L22.2959 137.536C22.3174 137.388 22.3802 137.249 22.4772 137.135C22.5742 137.022 22.7014 136.937 22.8441 136.892L23.9478 136.602C24.0029 136.595 24.0535 136.568 24.0901 136.526C24.1268 136.485 24.147 136.431 24.147 136.376C24.147 136.32 24.1268 136.266 24.0901 136.225C24.0535 136.183 24.0029 136.156 23.9478 136.149Z" fill="#F2BC36"/>
<path opacity="0.53" d="M138.022 130.664L136.918 130.388C136.774 130.346 136.644 130.264 136.545 130.151C136.445 130.039 136.379 129.9 136.355 129.751L136.12 128.57C136.109 128.523 136.083 128.482 136.045 128.452C136.007 128.422 135.96 128.405 135.912 128.405C135.864 128.405 135.817 128.422 135.779 128.452C135.742 128.482 135.715 128.523 135.704 128.57L135.505 129.674C135.48 129.849 135.405 130.013 135.29 130.148C135.174 130.282 135.023 130.38 134.854 130.432L133.835 130.704C133.785 130.716 133.741 130.743 133.709 130.783C133.677 130.823 133.66 130.872 133.66 130.923C133.66 130.974 133.677 131.024 133.709 131.063C133.741 131.103 133.785 131.131 133.835 131.142L134.865 131.396C135.032 131.446 135.182 131.541 135.298 131.671C135.414 131.801 135.493 131.96 135.524 132.132L135.741 133.236C135.752 133.283 135.778 133.325 135.816 133.355C135.854 133.385 135.901 133.401 135.949 133.401C135.997 133.401 136.044 133.385 136.082 133.355C136.119 133.325 136.146 133.283 136.157 133.236L136.374 132.047C136.396 131.9 136.459 131.762 136.556 131.649C136.653 131.535 136.78 131.452 136.922 131.407L138.026 131.113C138.085 131.112 138.142 131.088 138.184 131.046C138.226 131.003 138.249 130.946 138.248 130.887C138.248 130.827 138.224 130.77 138.181 130.728C138.139 130.687 138.082 130.663 138.022 130.664Z" fill="#F2BC36"/>
</g>
<g opacity="0.38">
<path opacity="0.38" d="M53.3777 143.826C60.0003 143.458 66.6228 142.954 73.1791 142.085C76.461 141.649 79.7318 141.132 82.9915 140.536C86.2513 139.94 89.4964 139.261 92.7267 138.498C92.762 138.489 92.7987 138.488 92.8346 138.494C92.8705 138.499 92.9048 138.512 92.9357 138.531C92.9666 138.551 92.9933 138.576 93.0142 138.605C93.0352 138.635 93.05 138.669 93.0578 138.704C93.0731 138.772 93.0623 138.844 93.0276 138.904C92.9928 138.965 92.9367 139.01 92.8702 139.032C89.6815 139.993 86.4537 140.818 83.1865 141.508C79.9194 142.197 76.6351 142.777 73.3337 143.248C66.7281 144.201 60.0523 144.579 53.3814 144.377C53.3082 144.377 53.238 144.348 53.1863 144.297C53.1345 144.245 53.1055 144.175 53.1055 144.102C53.1055 144.028 53.1345 143.958 53.1863 143.906C53.238 143.855 53.3082 143.826 53.3814 143.826H53.3777Z" fill="white"/>
</g>
<g opacity="0.38">
<path opacity="0.38" d="M70.2038 148.6C71.6424 148.508 73.0589 148.398 74.4643 148.188C75.8678 147.99 77.2604 147.721 78.6365 147.382C81.4033 146.69 84.1185 145.738 86.8705 144.832C86.9051 144.821 86.9415 144.816 86.9779 144.819C87.0142 144.822 87.0496 144.832 87.0821 144.848C87.1145 144.864 87.1435 144.887 87.1672 144.915C87.1908 144.942 87.2088 144.974 87.2201 145.009C87.2407 145.072 87.2383 145.14 87.2134 145.201C87.1884 145.263 87.1426 145.313 87.0839 145.344C85.7815 145.999 84.457 146.598 83.0994 147.136C81.7382 147.678 80.3463 148.14 78.9308 148.519C77.5065 148.91 76.0498 149.171 74.5784 149.299C73.1066 149.43 71.6245 149.386 70.1633 149.167C70.0908 149.154 70.0262 149.113 69.9835 149.053C69.9408 148.993 69.9235 148.919 69.9352 148.846C69.9424 148.78 69.9736 148.718 70.023 148.673C70.0724 148.627 70.1367 148.601 70.2038 148.6Z" fill="white"/>
</g>
<g style="mix-blend-mode:multiply">
<g style="mix-blend-mode:multiply">
<path d="M130.833 132.819C104.096 160.737 57.6572 159.655 27.1125 130.402C-3.43214 101.148 -6.52634 54.7979 20.2104 26.8802C46.947 -1.03752 87.9075 5.30172 118.445 34.555C148.982 63.8082 157.569 104.901 130.833 132.819Z" fill="#F6D2E1" fill-opacity="0.44"/>
</g>
</g>
<path d="M89.7033 83.3886C90.7078 89.3489 91.8704 94.4446 93.0146 98.6903C93.2464 99.5402 93.4745 100.35 93.7063 101.13C87.5915 95.1362 75.785 93.3776 75.2478 93.2966C75.0979 93.2756 74.9452 93.3024 74.8115 93.3734C74.6779 93.4443 74.57 93.5557 74.5035 93.6917C74.437 93.8276 74.4151 93.9811 74.4411 94.1302C74.4671 94.2793 74.5395 94.4164 74.6481 94.5218C84.5819 104.088 91.6644 104.191 93.7799 103.948L94.4311 104.279C94.5148 104.321 94.6061 104.346 94.6997 104.353C97.0139 111.476 98.9455 114.974 98.9896 115.048C99.0059 115.076 99.0243 115.103 99.0448 115.129C94.8726 122.417 92.5805 127.211 92.4738 127.671C92.4426 127.792 92.4426 127.919 92.4738 128.039C92.5079 128.164 92.5746 128.278 92.667 128.369C92.7594 128.461 92.8743 128.526 92.9999 128.558C93.09 128.58 93.1837 128.585 93.2756 128.571C93.3674 128.557 93.4555 128.525 93.5349 128.477C93.6143 128.428 93.6833 128.365 93.738 128.29C93.7927 128.215 93.8319 128.13 93.8535 128.039C93.9749 127.671 94.6666 126.2 95.8734 123.889C95.9729 123.975 96.0943 124.032 96.2242 124.054C96.354 124.075 96.4873 124.06 96.6092 124.011C96.6901 123.977 100.855 122.311 107.845 118.86C108.067 120.009 108.505 121.105 109.137 122.09C110.645 124.555 113.817 127.774 120.461 130.699C120.595 130.755 120.742 130.77 120.884 130.742C121.026 130.715 121.157 130.646 121.26 130.545C121.363 130.442 121.431 130.309 121.456 130.166C121.481 130.022 121.461 129.875 121.4 129.743C121.378 129.691 121.289 129.496 121.138 129.198C121.137 129.188 121.137 129.179 121.138 129.169C120.093 127.105 116.212 120.158 110.252 117.668C113.695 115.935 117.691 113.83 122.128 111.347C120.925 118.024 124.398 124.912 126.444 128.271C127.18 129.47 127.731 130.217 127.816 130.328V130.346L127.846 130.379L127.89 130.423L127.923 130.453L127.974 130.49L128.011 130.512L128.063 130.541L128.107 130.56L128.162 130.578H128.21H128.261H128.316H128.423H128.478H128.53H128.559H128.618H128.655C128.692 130.563 128.728 130.545 128.762 130.523L128.802 130.493L128.857 130.449L128.898 130.409L128.942 130.357L128.975 130.313L129.03 130.214C129.03 130.214 129.03 130.184 129.03 130.166C129.04 130.143 129.049 130.12 129.056 130.096C129.058 130.079 129.058 130.062 129.056 130.044C129.058 130.032 129.058 130.02 129.056 130.008C130.049 122.281 129.056 117.355 127.662 114.286C135.701 119.389 146.661 118.911 147.213 118.882C147.292 118.878 147.371 118.86 147.445 118.83C147.481 118.816 147.515 118.797 147.548 118.775H147.566C147.598 118.753 147.629 118.728 147.658 118.701C147.688 118.672 147.715 118.64 147.739 118.606C147.746 118.593 147.755 118.58 147.765 118.569L147.801 118.503V118.47C147.803 118.461 147.803 118.452 147.801 118.444C147.809 118.422 147.815 118.4 147.82 118.378V118.341C147.823 118.299 147.823 118.257 147.82 118.216V118.186V118.083C147.82 118.083 147.82 118.065 147.82 118.058C147.813 118.017 147.801 117.977 147.783 117.94C147.766 117.899 147.745 117.859 147.721 117.822C147.697 117.787 147.671 117.754 147.643 117.723C147.63 117.711 147.618 117.699 147.606 117.686C138.184 109.404 131.418 108.05 127.544 108.289C130.138 106.77 132.849 105.14 135.656 103.389C135.698 103.408 135.741 103.424 135.785 103.437C145.318 106.041 155.693 98.2856 156.304 97.8037C156.358 97.7649 156.406 97.7192 156.448 97.6675C156.477 97.6255 156.503 97.5812 156.525 97.5351C156.586 97.4567 156.63 97.3665 156.654 97.2702C156.678 97.1739 156.682 97.0737 156.665 96.9758V96.9317V96.9096C156.614 96.7398 156.501 96.5953 156.348 96.5049L156.297 96.4755C156.221 96.4413 156.14 96.4201 156.058 96.4129C140.325 94.5733 136.19 100.684 135.535 101.902C135.386 101.894 135.239 101.931 135.112 102.009C130.068 105.155 125.34 107.921 121.035 110.324C128.052 102.175 130.818 88.9037 130.951 88.2488C130.951 88.2157 130.951 88.1826 130.951 88.1531V88.1458C130.952 88.0062 130.912 87.8694 130.837 87.7521C130.838 87.7448 130.838 87.7374 130.837 87.73C130.822 87.7062 130.805 87.684 130.785 87.6638L130.741 87.6197C130.731 87.6068 130.718 87.5956 130.704 87.5865C130.672 87.5576 130.638 87.5317 130.601 87.5093C130.557 87.4855 130.51 87.467 130.461 87.4541C130.42 87.4424 130.379 87.4337 130.336 87.4283C130.294 87.4246 130.25 87.4246 130.208 87.4283C130.12 87.4369 130.034 87.4605 129.954 87.4982H129.932C129.901 87.5132 129.873 87.5317 129.847 87.5534L129.818 87.5755C129.806 87.5821 129.796 87.5908 129.788 87.6013C114.199 101.987 115.575 112.278 115.745 113.242C112.352 115.052 109.31 116.593 106.694 117.874C110.818 112.977 111.683 105.416 111.723 105.037C111.736 104.893 111.705 104.748 111.636 104.621C111.567 104.494 111.461 104.391 111.333 104.323C111.204 104.257 111.057 104.232 110.913 104.252C110.769 104.271 110.634 104.335 110.528 104.434C100.962 113.124 102.68 119.088 102.886 119.695C99.7917 121.141 97.6651 122.05 96.7122 122.447C103.248 110.317 110.618 98.6556 118.769 87.5461C118.933 87.4564 119.056 87.3078 119.115 87.1303C119.12 87.1004 119.128 87.071 119.137 87.042C120.263 85.5188 121.42 83.9858 122.61 82.443C122.632 82.4563 122.656 82.4673 122.68 82.4761C136.499 87.0531 156.628 77.5019 157.478 77.0935C157.612 77.0262 157.722 76.9197 157.793 76.7882C157.865 76.6567 157.895 76.5065 157.879 76.3577C157.855 76.2087 157.786 76.0706 157.682 75.962C157.577 75.8535 157.442 75.7796 157.294 75.7506C139.693 72.6343 130.068 76.0118 125.653 78.602C127.811 75.8892 130.073 73.1837 132.437 70.4857C132.493 70.5029 132.551 70.5128 132.61 70.5151C132.694 70.5884 132.794 70.6409 132.902 70.6684C133.01 70.6959 133.123 70.6976 133.232 70.6733C147.456 67.5754 159.921 49.1059 160.458 48.3222C160.457 48.3137 160.457 48.305 160.458 48.2965L160.484 48.2486C160.497 48.2211 160.51 48.1929 160.52 48.164C160.522 48.1555 160.522 48.1468 160.52 48.1382C160.575 47.9642 160.561 47.7757 160.48 47.6121C160.465 47.5806 160.447 47.551 160.425 47.5238L160.406 47.4907C160.398 47.48 160.388 47.4701 160.377 47.4613L160.314 47.3951L160.281 47.3693L160.204 47.3178H160.171L160.079 47.2773H160.053C159.972 47.252 159.888 47.2408 159.803 47.2442H159.755H159.678L159.623 47.2626H159.59C144.295 53.0021 137.514 60.011 134.542 64.6026C136.061 51.501 129.071 35.8681 128.74 35.1176V35.0992C128.692 35.0036 128.622 34.9206 128.537 34.8567C128.451 34.7928 128.352 34.7499 128.247 34.7313H128.228H128.14C128.098 34.7276 128.056 34.7276 128.015 34.7313C127.969 34.735 127.925 34.7449 127.882 34.7607H127.849C127.819 34.7712 127.789 34.7848 127.761 34.8012H127.724L127.647 34.8564L127.621 34.8748C127.557 34.9329 127.504 35.0013 127.463 35.0771V35.1029C127.463 35.136 127.433 35.1654 127.422 35.1985C127.411 35.2316 127.422 35.2206 127.422 35.228C127.421 35.2426 127.421 35.2574 127.422 35.2721C125.005 47.3031 125.734 55.6401 127.235 61.1442C128.534 65.9271 130.414 68.5504 131.322 69.6063C127.213 74.2899 123.375 79.0471 119.836 83.716C120.704 77.6895 121.05 64.2163 111.598 47.3877C111.535 47.2786 111.445 47.1875 111.337 47.1231C111.229 47.0586 111.106 47.0231 110.98 47.0198H110.914H110.881C110.834 47.0239 110.789 47.0338 110.745 47.0492H110.701C110.647 47.0716 110.597 47.1 110.55 47.1338L110.52 47.1596C110.481 47.1927 110.445 47.2296 110.414 47.27L110.391 47.2994C110.355 47.3479 110.325 47.4011 110.303 47.4576C110.237 47.6489 105.542 61.1184 108.949 73.6093C110.277 78.4879 112.849 83.2157 117.411 86.9464C111.122 95.5247 105.291 104.43 99.9425 113.624C98.854 111.408 97.8922 109.132 97.0617 106.807C107.308 100.718 106.97 84.0913 106.948 83.3812C106.946 83.2476 106.906 83.1173 106.832 83.0058C106.758 82.8943 106.654 82.8062 106.532 82.7521C106.413 82.6985 106.281 82.6788 106.151 82.695C106.021 82.7112 105.899 82.7628 105.796 82.8441L105.509 83.0795C105.393 83.1015 105.285 83.152 105.194 83.2265C105.102 83.3011 105.031 83.3973 104.987 83.5063C97.6504 89.6506 95.2037 95.1031 94.6592 99.1429C93.7725 95.9677 92.8748 92.2812 92.0396 88.0722C102.271 82.0457 104.619 66.2325 104.714 65.5592C104.716 65.5433 104.716 65.5273 104.714 65.5114C104.716 65.4857 104.716 65.4599 104.714 65.4341C104.716 65.4158 104.716 65.3973 104.714 65.3789V65.3164C104.716 65.2943 104.716 65.2722 104.714 65.2502V65.2244C104.685 65.136 104.637 65.0546 104.575 64.9853L104.553 64.9632L104.497 64.908C104.471 64.8863 104.442 64.8666 104.413 64.8491C104.375 64.8277 104.336 64.8093 104.295 64.7939H104.262C104.23 64.7831 104.196 64.7757 104.163 64.7719H104.052C103.967 64.7552 103.88 64.7552 103.795 64.7719C103.757 64.7805 103.722 64.7941 103.688 64.8123H103.666C103.633 64.8272 103.602 64.8457 103.574 64.8675H103.552C95.0639 71.7035 91.9256 77.5056 90.8733 81.5196L90.8513 81.3797C90.9093 81.2352 90.956 81.0863 90.9911 80.9346C91.024 80.8002 91.015 80.659 90.9653 80.5298C90.9685 80.4027 90.9386 80.2768 90.8787 80.1646C90.8187 80.0524 90.7307 79.9577 90.6231 79.8897C90.6231 79.8566 90.6231 79.8271 90.6231 79.794C90.6435 79.6982 90.6435 79.5992 90.6231 79.5034C90.5753 79.2569 90.5238 79.0103 90.4649 78.7675C89.9204 74.989 89.4458 70.9014 89.0779 66.4974C89.1073 66.4837 89.1356 66.4677 89.1625 66.4496C96.3259 60.997 98.4598 47.3767 98.5334 46.799C98.5503 46.6513 98.5221 46.502 98.4525 46.3706C98.3829 46.2393 98.2751 46.1321 98.1434 46.0632C98.0068 45.9976 97.8532 45.9759 97.7037 46.0009C97.5542 46.0259 97.4161 46.0965 97.3082 46.203C90.9322 52.7336 88.7063 58.0426 87.9999 61.5047C85.1044 54.1464 77.7423 47.7924 77.3744 47.4723L77.3265 47.4429C77.3205 47.4413 77.3142 47.4413 77.3082 47.4429L77.2015 47.3803C77.1204 47.3432 77.033 47.3219 76.9439 47.3178H76.9218H76.8151H76.7857L76.679 47.3472H76.6569C76.616 47.3619 76.5766 47.3803 76.5392 47.4024C76.504 47.4239 76.4707 47.4486 76.4399 47.476C76.4221 47.4913 76.406 47.5086 76.392 47.5275L76.3626 47.5569C76.3446 47.5775 76.3286 47.5996 76.3148 47.6232V47.6489C76.3148 47.6489 76.2964 47.6894 76.2853 47.7115C76.277 47.7239 76.2708 47.7375 76.2669 47.7519C76.2669 47.7519 76.2669 47.785 76.2669 47.8034C76.2669 47.8218 76.2669 47.8402 76.2669 47.8586C76.2655 47.8721 76.2655 47.8856 76.2669 47.8991V47.9727V48.0058C76.2651 48.0327 76.2651 48.0598 76.2669 48.0867C76.2669 48.0867 76.2669 48.1088 76.2669 48.1235V48.1861C76.3884 48.6864 76.5171 49.1684 76.6349 49.6578C80.1338 62.4981 86.1051 65.8462 87.632 66.5195C87.8429 69.0361 88.0882 71.4508 88.3678 73.7638C84.111 66.7218 75.9468 62.8955 75.5201 62.6968C75.3919 62.6409 75.2505 62.6226 75.1124 62.6441C74.9743 62.6656 74.8451 62.726 74.7401 62.8182C74.6385 62.9081 74.5648 63.0251 74.5276 63.1555C74.4905 63.2859 74.4914 63.4242 74.5304 63.5541C74.5288 63.5687 74.5288 63.5835 74.5304 63.5982C78.2831 74.4592 82.9925 78.3922 86.1897 79.7867C77.1647 80.7432 69.8688 88.3702 69.5193 88.7418C69.4349 88.8311 69.375 88.9407 69.3453 89.0599C69.3157 89.1792 69.3173 89.304 69.3501 89.4225C69.3578 89.4554 69.3689 89.4875 69.3832 89.5181C69.4385 89.6474 69.531 89.7573 69.6489 89.8339C69.7668 89.9106 69.9048 89.9505 70.0454 89.9486H70.4501C70.6057 90.0057 70.7765 90.0057 70.9321 89.9486C82.8196 89.6726 87.7203 85.9567 89.7033 83.3886ZM138.861 102.403L151.576 99.0399C148.342 100.773 143.567 102.73 138.85 102.403H138.861ZM151.668 97.5314L137.989 101.148C139.74 99.5513 143.633 97.307 151.657 97.5314H151.668ZM104.115 116.733C104.376 114.934 105.325 112.233 108.162 108.871L104.115 116.733ZM108.931 110.478C108.235 112.691 107.169 114.77 105.778 116.626L108.931 110.478ZM109.939 120.523L117.408 127.565C112.86 124.963 110.833 122.362 109.939 120.523ZM116.797 125.019L111.252 119.787C113.471 121.133 115.347 123.128 116.79 125.019H116.797ZM117.11 110.501C117.478 107.112 119.295 100.523 127.22 92.1046L117.11 110.501ZM127.923 93.7897C126.271 98.9148 123.254 106.247 118.552 110.85L127.923 93.7897ZM123.397 112.627C124.17 115.618 125.701 121.575 126.727 125.821C124.987 122.565 122.901 117.52 123.39 112.627H123.397ZM128.041 125.136C127.018 120.92 125.557 115.236 124.799 112.3C126.297 114.128 128.224 117.885 128.033 125.155L128.041 125.136ZM125.862 111.023C131.44 112.642 138.942 115.548 143.328 117.307C138.695 116.994 130.932 115.718 125.855 111.041L125.862 111.023ZM143.026 115.64C138.651 113.904 131.904 111.317 126.661 109.754C129.468 109.345 134.991 109.71 143.019 115.659L143.026 115.64ZM125.701 81.7661L151.477 77.9986C145.141 80.3496 134.398 83.4769 125.693 81.7845L125.701 81.7661ZM152.25 76.4533L125.572 80.3496C129.001 78.1604 137.099 74.6505 152.25 76.4533ZM135.255 68.6019C140.038 64.5769 150.119 56.5305 155.929 51.9278C151.687 57.1891 143.835 65.6475 135.263 68.6019H135.255ZM155.428 50.4929C149.843 54.908 139.785 62.9286 134.726 67.1707C136.613 63.5136 141.786 56.5562 155.436 50.4929H155.428ZM132.584 67.4172L129.457 40.9896C131.698 47.4539 134.693 58.6166 132.592 67.4172H132.584ZM127.967 40.4119L131.083 66.7623C128.96 63.1273 125.892 55.0331 127.967 40.4119ZM118.254 84.2422C113.482 71.4533 112.146 57.0824 111.779 50.8719C119.777 66.6004 119.045 79.1465 118.239 84.2422H118.254ZM110.454 52.2332C110.822 57.6968 111.841 67.4172 114.531 77.2885C115.2 79.7462 115.976 82.2112 116.87 84.6248C106.856 75.0184 108.754 59.6504 110.439 52.2479L110.454 52.2332ZM105.425 86.1406C105.09 90.7212 103.684 99.9192 97.7534 104.588L105.425 86.1406ZM103.703 86.5453L96.3958 104.147C96.37 104.062 96.3443 103.97 96.3185 103.882C95.5054 100.96 95.2479 94.5844 103.684 86.5601L103.703 86.5453ZM91.8005 101.339L82.1021 96.435C85.3325 97.4725 89.0448 99.0509 91.8005 101.339ZM79.0595 96.5049L90.6231 102.355C88.0072 101.891 84.019 100.475 79.0595 96.5049ZM93.2427 85.4673L102.246 69.8786C100.973 74.4445 98.3163 81.3687 93.2427 85.4784V85.4673ZM101.234 68.7638L91.8299 85.0553C91.8557 82.1671 93.1324 76.2951 101.234 68.7748V68.7638ZM89.3097 62.5092C89.6776 60.0956 90.8991 56.3392 94.4605 51.6298L89.3097 62.5092ZM95.8182 52.1449C94.8321 55.493 93.217 59.6909 90.7519 62.8145L95.8182 52.1449ZM86.863 62.4908L81.0572 53.2523C83.2317 55.7689 85.6158 59.0802 86.863 62.5165V62.4908ZM79.1367 52.8439L85.877 63.6424C83.9565 61.9978 81.278 58.8153 79.1257 52.8697L79.1367 52.8439ZM88.5334 77.4099C85.476 73.9 81.278 69.117 78.64 66.1185C81.977 68.3517 86.5981 72.2002 88.5223 77.4356L88.5334 77.4099ZM77.2861 66.7402C80.0124 69.8418 84.6739 75.1509 87.8564 78.8117C85.4944 78.1715 81.1161 75.6917 77.275 66.777L77.2861 66.7402ZM87.1721 81.0891C83.3273 82.6123 77.0653 85.4563 73.3162 87.1855C76.3221 84.8014 81.4804 81.4423 87.161 81.1222L87.1721 81.0891ZM74.4273 88.2562C79.1404 86.0891 85.7887 83.1053 88.9123 81.9537C87.6136 83.9331 84.0006 87.4099 74.4163 88.2893L74.4273 88.2562Z" fill="white" fill-opacity="0.33"/>
<path d="M21.4796 110.769C25.6591 114.617 29.4597 117.734 32.7673 120.221C33.4296 120.717 34.0661 121.188 34.6879 121.634C26.693 120.714 16.9026 126.203 16.4611 126.457C16.3345 126.528 16.2343 126.638 16.1753 126.771C16.1163 126.903 16.1017 127.051 16.1337 127.193C16.1655 127.353 16.256 127.496 16.3876 127.594C16.4832 127.669 16.598 127.714 16.7187 127.726C29.5959 129.11 34.9344 125.103 36.3693 123.701L37.0425 123.573C37.1292 123.556 37.2117 123.522 37.2854 123.473C43.1095 127.428 46.5643 128.915 46.6379 128.948L46.7262 128.974C47.8299 136.792 48.8859 141.674 49.0735 142.079C49.1226 142.182 49.1958 142.271 49.2869 142.34C49.3837 142.416 49.4992 142.463 49.621 142.478C49.7429 142.493 49.8665 142.475 49.9786 142.425C50.1395 142.352 50.2651 142.219 50.3279 142.054C50.3906 141.889 50.3854 141.706 50.3134 141.545C50.1957 141.207 49.8609 139.706 49.423 137.3C49.5446 137.304 49.6652 137.276 49.772 137.217C49.8789 137.159 49.968 137.073 50.0301 136.968C50.0706 136.899 52.2045 133.26 55.4164 126.667C56.244 127.393 57.2015 127.956 58.2384 128.326C60.7807 129.286 64.9897 129.849 71.6122 128.19C71.7449 128.157 71.8644 128.084 71.9547 127.981C72.0451 127.879 72.102 127.751 72.118 127.615C72.134 127.479 72.1082 127.342 72.0442 127.221C71.9801 127.1 71.8808 127.002 71.7594 126.939L71.248 126.689H71.2222C69.2576 125.758 62.3701 122.833 56.5055 124.419C58.0654 121.144 59.8167 117.281 61.6858 112.877C64.6291 118.532 71.1891 121.648 74.6365 122.951C75.8764 123.422 76.7153 123.657 76.844 123.687H76.8661H76.9103H76.9655H77.0685H77.1089H77.1641H77.2083L77.2561 123.668L77.3039 123.65L77.3481 123.628L77.3922 123.602L77.4327 123.573L77.4732 123.539L77.51 123.506L77.5284 123.484L77.5504 123.462L77.5799 123.414L77.602 123.381C77.6197 123.35 77.6345 123.316 77.6461 123.282C77.6477 123.266 77.6477 123.25 77.6461 123.234C77.6474 123.213 77.6474 123.192 77.6461 123.171C77.6479 123.153 77.6479 123.135 77.6461 123.116C77.6479 123.095 77.6479 123.075 77.6461 123.054V123.002C77.6418 122.966 77.6356 122.931 77.6277 122.896C77.6293 122.881 77.6293 122.866 77.6277 122.851L77.6056 122.785L77.5836 122.741V122.712C73.8565 116.391 70.2877 113.311 67.4842 111.832C76.3952 110.993 84.265 104.319 84.6586 103.981C84.7143 103.931 84.7615 103.873 84.7985 103.808C84.8169 103.775 84.8317 103.741 84.8426 103.705C84.8426 103.705 84.8426 103.705 84.8426 103.686C84.8546 103.652 84.8633 103.616 84.8684 103.58C84.8721 103.541 84.8721 103.501 84.8684 103.462C84.8684 103.462 84.8684 103.436 84.8684 103.422V103.348C84.8666 103.337 84.8666 103.326 84.8684 103.315V103.289C84.862 103.269 84.8534 103.249 84.8426 103.23C84.8431 103.219 84.8431 103.208 84.8426 103.197C84.824 103.161 84.8018 103.126 84.7764 103.094V103.076L84.7065 103.006L84.6881 102.987C84.6586 102.962 84.6265 102.94 84.5924 102.921C84.5567 102.898 84.5184 102.88 84.4784 102.866C84.4401 102.853 84.4007 102.843 84.3606 102.837H84.3128C72.5394 102.101 66.7447 105 63.9926 107.417C65.0449 104.795 66.1131 102.023 67.1972 99.1022C67.2387 99.0921 67.2793 99.0785 67.3186 99.0618C75.9022 95.504 79.1325 83.7489 79.3165 83.0499C79.3343 82.9902 79.3429 82.9282 79.3422 82.8659C79.3476 82.8195 79.3476 82.7726 79.3422 82.7261C79.312 82.5822 79.2343 82.4526 79.1215 82.3582L79.0332 82.2589H79.0148C78.8792 82.1627 78.7125 82.1207 78.5475 82.1411H78.4923C78.4151 82.1586 78.3416 82.1898 78.2752 82.2331C65.5268 89.9263 65.9831 96.8506 66.1965 98.1383C66.0793 98.2161 65.9902 98.3297 65.9426 98.462C64.0073 103.705 62.0905 108.484 60.2766 112.752C60.7917 102.653 55.1994 91.1993 54.9197 90.6401C54.9066 90.6135 54.8918 90.5877 54.8756 90.5628V90.5444C54.7975 90.4394 54.6899 90.3599 54.5665 90.3163H54.5445L54.4672 90.2979H54.4083H54.3605C54.3202 90.2924 54.2794 90.2924 54.2391 90.2979C54.1927 90.3063 54.1472 90.3186 54.103 90.3347C54.0645 90.3481 54.0275 90.3654 53.9926 90.3862C53.9585 90.4078 53.9265 90.4324 53.8969 90.4598C53.8356 90.516 53.7857 90.5835 53.7498 90.6585C53.7482 90.667 53.7482 90.6757 53.7498 90.6842C53.735 90.7121 53.7238 90.7418 53.7166 90.7725C53.7149 90.7835 53.7149 90.7947 53.7166 90.8056V90.8424C50.4311 110.515 57.3958 117.366 58.0654 117.988C56.5938 121.299 55.2178 124.183 54.0183 126.641C54.2575 120.629 50.5452 114.5 50.3575 114.209C50.2862 114.091 50.1806 113.998 50.0549 113.943C49.9292 113.887 49.7894 113.871 49.6544 113.897C49.5193 113.923 49.3955 113.99 49.2996 114.088C49.2036 114.187 49.1401 114.312 49.1177 114.448C47.0168 126.424 51.7336 129.86 52.2376 130.188C50.7659 133.046 49.7174 134.949 49.2354 135.795C47.1157 123.008 45.8864 110.09 45.5562 97.1338C45.6206 96.9707 45.6206 96.7892 45.5562 96.6261C45.5448 96.6023 45.5349 96.5777 45.5268 96.5525C45.4875 94.7718 45.4642 92.9653 45.4569 91.1331C45.4801 91.1362 45.5036 91.1362 45.5268 91.1331C58.4297 86.5672 67.8815 67.8732 68.2789 67.0785C68.3439 66.9506 68.3664 66.8053 68.343 66.6637C68.3196 66.5222 68.2516 66.3918 68.149 66.2916C68.0463 66.1914 67.9143 66.1266 67.7722 66.1066C67.6301 66.0867 67.4854 66.1127 67.3591 66.1808C52.4878 74.0138 47.2965 82.0565 45.4863 86.5415C45.5415 83.267 45.6629 79.9373 45.8542 76.5819C45.9063 76.5608 45.9557 76.5336 46.0014 76.5009C46.1056 76.5069 46.2099 76.4883 46.3057 76.4468C46.4015 76.4053 46.4863 76.3419 46.5533 76.2618C55.3355 65.7651 53.9484 44.8562 53.8859 43.9732C53.8859 43.9732 53.8859 43.9548 53.8859 43.9475C53.8859 43.9401 53.8859 43.9107 53.8859 43.8959L53.8638 43.8113C53.8638 43.8113 53.8638 43.8113 53.8638 43.7856C53.8026 43.6251 53.683 43.4937 53.529 43.4176L53.4333 43.3809H53.4039H53.2788H53.1942H53.1574H53.0691H53.0323L52.944 43.4066H52.9146C52.8412 43.4363 52.7729 43.4772 52.7122 43.528L52.6791 43.5611L52.6313 43.6127L52.5982 43.6568V43.6826C44.5444 56.7621 43.54 65.8791 43.9852 71.0005C37.5687 60.4118 23.3817 52.8217 22.6863 52.4574H22.6679C22.577 52.4103 22.476 52.3858 22.3736 52.3858C22.2712 52.3858 22.1702 52.4103 22.0793 52.4574C22.0535 52.4699 22.0289 52.4847 22.0057 52.5016C21.9726 52.5229 21.9418 52.5476 21.9137 52.5752C21.8839 52.6059 21.8568 52.6391 21.8328 52.6745C21.8258 52.6838 21.8197 52.6936 21.8144 52.7039C21.7994 52.7289 21.7859 52.7547 21.7739 52.7812C21.7725 52.7922 21.7725 52.8033 21.7739 52.8143C21.7624 52.8432 21.7526 52.8726 21.7445 52.9026C21.7461 52.9124 21.7461 52.9223 21.7445 52.932C21.7298 53.0111 21.7298 53.0921 21.7445 53.1712C21.7445 53.1712 21.7445 53.1896 21.7445 53.2006C21.7445 53.2117 21.7445 53.2595 21.7739 53.2926V53.3184C21.7724 53.3318 21.7724 53.3454 21.7739 53.3588C26.9248 63.69 32.2596 69.4626 36.5459 72.6856C40.2618 75.4818 43.1684 76.3648 44.4672 76.626C44.0992 82.476 44.0036 88.2192 44.0661 93.7269C41.2405 88.7527 33.7313 78.5466 17.0093 71.4862C16.8997 71.4394 16.7796 71.4226 16.6613 71.4375C16.543 71.4524 16.4307 71.4984 16.3361 71.5708C16.3361 71.5708 16.3361 71.5708 16.3103 71.5929V71.615C16.279 71.6467 16.2507 71.6812 16.2257 71.718L16.2036 71.7548C16.1741 71.8015 16.1518 71.8523 16.1374 71.9056C16.1374 71.9056 16.1374 71.9277 16.1374 71.9424C16.1318 71.9889 16.1318 72.0358 16.1374 72.0822V72.119C16.1388 72.1751 16.1474 72.2307 16.1631 72.2846C16.222 72.4649 20.5009 85.1618 30.2324 92.4944C34.0293 95.3531 38.6651 97.384 44.2133 97.5312C44.4836 107.529 45.2843 117.505 46.6121 127.417C44.5258 126.379 42.5002 125.223 40.5451 123.955C44.6511 113.525 34.813 101.369 34.3899 100.854C34.3112 100.755 34.206 100.681 34.0866 100.641C33.9673 100.6 33.8388 100.595 33.7166 100.625C33.5943 100.654 33.4823 100.715 33.3932 100.804C33.3041 100.892 33.2415 101.004 33.2125 101.126L33.1352 101.464C33.0618 101.548 33.0102 101.649 32.9852 101.757C32.9601 101.866 32.9624 101.979 32.9918 102.086C31.0823 110.879 32.4068 116.343 34.331 119.654C31.8402 117.815 29.0477 115.585 26.005 112.943C30.133 102.568 22.7599 89.4664 22.4435 88.9109L22.4214 88.8741C22.4076 88.8529 22.3915 88.8331 22.3736 88.8152L22.3405 88.7747L22.2963 88.7379L22.2485 88.6975H22.2264C22.153 88.6491 22.0703 88.6165 21.9836 88.6018H21.9542H21.7665C21.725 88.6063 21.6842 88.6162 21.6451 88.6312H21.6157L21.5311 88.668H21.5053C21.4352 88.7113 21.3741 88.7674 21.325 88.8336C21.304 88.8626 21.2855 88.8933 21.2698 88.9256V88.9476C21.256 88.9789 21.2437 89.0108 21.2331 89.0433V89.0654C18.8673 99.0397 19.8791 105.158 21.4133 108.745L21.314 108.653C21.274 108.514 21.2236 108.377 21.1632 108.245C21.109 108.126 21.0206 108.026 20.9093 107.958C20.8383 107.861 20.7433 107.784 20.6336 107.735C20.5239 107.686 20.4034 107.667 20.2838 107.678L20.2213 107.616C20.1829 107.533 20.1278 107.459 20.0594 107.399C19.8828 107.241 19.6915 107.086 19.5149 106.939C16.9345 104.449 14.2365 101.678 11.4207 98.6239C11.4327 98.5965 11.4425 98.5682 11.4501 98.5393C13.6318 90.3126 7.36986 78.9586 7.10496 78.484C7.035 78.3597 6.92756 78.2607 6.79797 78.2011C6.66839 78.1414 6.52328 78.1243 6.38336 78.152C6.24344 78.1797 6.11585 78.251 6.01881 78.3555C5.92178 78.4601 5.86024 78.5926 5.843 78.7342C4.86801 87.2589 6.27714 92.487 7.74514 95.4672C1.35806 91.6739 -7.77737 91.192 -8.23727 91.1662H-8.31085C-8.34879 91.1627 -8.38697 91.1627 -8.42491 91.1662C-8.50529 91.1868 -8.58131 91.2217 -8.64934 91.2692H-8.66773C-8.69483 91.2883 -8.71954 91.3105 -8.74132 91.3354L-8.76339 91.3575C-8.78625 91.3829 -8.80716 91.4099 -8.82594 91.4385V91.4569C-8.84869 91.4913 -8.86722 91.5284 -8.88113 91.5672C-8.89434 91.603 -8.9042 91.64 -8.91056 91.6776C-8.91232 91.6996 -8.91232 91.7218 -8.91056 91.7438C-8.91056 91.7438 -8.91056 91.7696 -8.91056 91.7806C-8.91056 91.7917 -8.91056 91.8321 -8.91056 91.8579C-8.91214 91.8676 -8.91214 91.8776 -8.91056 91.8873C-8.91263 91.9081 -8.91263 91.9291 -8.91056 91.9499C-8.91056 91.9499 -8.91056 91.9793 -8.91056 91.9903C-8.90344 92.0059 -8.8973 92.0219 -8.89216 92.0382L-8.87009 92.0934C-8.8713 92.1044 -8.8713 92.1155 -8.87009 92.1265L-8.83698 92.1853L-8.8149 92.2111L-8.77075 92.2663L-8.745 92.292L-8.70085 92.3325C-8.33293 92.6342 -7.96501 92.9212 -7.57869 93.1971C2.42135 100.721 8.79003 99.7718 10.3095 99.3855C11.9137 101.137 13.4847 102.792 15.0226 104.352C7.80033 101.575 -0.470494 103.44 -0.904638 103.536C-1.02963 103.565 -1.14357 103.63 -1.23313 103.722C-1.32269 103.814 -1.38419 103.93 -1.41043 104.056C-1.43666 104.182 -1.42656 104.312 -1.3813 104.433C-1.33604 104.553 -1.25749 104.658 -1.15482 104.735L-1.11803 104.757C7.93278 110.662 13.7091 110.861 16.8843 110.074C10.6002 116.023 9.58106 125.894 9.53691 126.372C9.52636 126.487 9.54514 126.603 9.59147 126.708C9.6378 126.814 9.71018 126.906 9.80181 126.976C9.82813 126.996 9.85649 127.013 9.88643 127.027C10.0011 127.092 10.1323 127.12 10.2633 127.11C10.3944 127.099 10.5193 127.05 10.6223 126.968L10.924 126.729C11.0768 126.682 11.2075 126.582 11.2919 126.446C19.9932 119.397 21.4943 113.812 21.4796 110.769ZM68.9595 96.5599L76.4651 86.7365C75.0707 89.8785 72.6498 94.0875 68.9595 96.5599ZM75.6667 85.5702L67.5725 96.1405C67.9662 93.933 69.574 90.0183 75.6667 85.5702ZM51.4098 127.23C50.5673 125.74 49.7137 123.183 49.8756 119.062L51.4098 127.23ZM51.4098 119.812C52.1693 121.858 52.5749 124.018 52.6092 126.199L51.4098 119.812ZM57.9367 126.692L67.5394 127.616C62.6497 128.3 59.6401 127.513 57.9183 126.692H57.9367ZM65.6225 126.078L58.4996 125.39C60.8984 125.103 63.4407 125.504 65.6041 126.078H65.6225ZM57.4878 115.11C55.7954 112.391 53.3561 106.442 54.3899 95.6107L57.4878 115.11ZM55.891 96.4642C57.6129 101.225 59.5997 108.411 58.7608 114.54L55.891 96.4642ZM63.3856 113.068C65.6814 114.842 70.2509 118.389 73.4629 120.949C70.2767 119.529 65.8212 116.987 63.3672 113.068H63.3856ZM74.0552 119.691C70.8617 117.149 66.5018 113.767 64.2465 112.024C66.3878 112.506 69.986 114.187 74.0368 119.698L74.0552 119.691ZM64.3017 110.464C69.379 108.451 76.627 106.284 80.8985 105.063C77.2524 107.491 70.7476 111.015 64.2833 110.471L64.3017 110.464ZM79.7138 103.999C75.4607 105.228 68.9595 107.2 64.1655 109.065C65.9904 107.127 70.3024 104.216 79.6954 104.007L79.7138 103.999ZM47.3148 88.8189L64.2943 71.1588C60.9205 76.5525 54.7505 85.0661 47.2965 88.8262L47.3148 88.8189ZM63.9485 69.5546L46.3767 87.8292C47.6681 84.2273 51.66 76.9535 63.9485 69.5546ZM46.7961 73.5171C48.0213 67.7813 50.8873 55.9821 52.5467 49.2124C52.4326 55.5737 51.4723 66.3832 46.8071 73.5171H46.7961ZM51.3472 48.4361C49.7505 54.9446 46.8954 66.6922 45.582 72.7592C44.8792 68.9586 44.7137 60.8092 51.3583 48.4361H51.3472ZM44.1323 74.1904L26.5752 56.3537C31.9726 59.86 40.6334 66.4384 44.1434 74.1647L44.1323 74.1904ZM25.133 56.7878L42.6349 74.5657C38.9778 73.0903 32.0278 68.8372 25.133 56.7878ZM43.161 94.9521C32.2596 88.1897 22.9844 78.278 19.1359 73.874C34.147 80.9564 40.8395 90.6989 43.1758 94.9521H43.161ZM18.9409 75.6768C22.3699 79.5179 28.7239 86.1551 36.4134 91.9388C38.3266 93.3774 40.3244 94.7644 42.3774 96.0411C29.4045 94.6578 21.9579 82.1448 18.9409 75.6768ZM34.7614 103.764C37.1603 107.351 41.4061 114.971 39.6952 121.869L34.7614 103.764ZM33.7055 105.07L38.4186 122.362L38.2125 122.211C35.9241 120.471 32.0572 115.883 33.7055 105.07ZM33.3891 122.903L23.3596 124.846C26.3582 123.742 30.0226 122.778 33.3891 122.892V122.903ZM21.1374 126.652L33.0984 124.334C30.8909 125.486 27.1124 126.729 21.1374 126.641V126.652ZM25.317 110.272L23.0211 93.5062C24.7062 97.6232 26.7187 104.297 25.317 110.272ZM21.6378 93.2597L24.0329 110.773C22.3736 108.613 19.9453 103.517 21.6378 93.2597ZM9.17635 95.504C8.07259 93.4951 6.79959 89.9852 6.74072 84.4443L9.17635 95.504ZM8.02476 84.0433C9.2205 87.1007 10.442 91.1478 10.4126 94.8932L8.02476 84.0433ZM7.33307 96.891L-2.31745 93.3553C0.765715 93.9845 4.43755 95.0625 7.34411 96.891H7.33307ZM-3.97308 94.1868L7.25213 98.2965C4.88641 98.1824 1.06373 97.362 -3.96205 94.1868H-3.97308ZM17.1676 107.024C12.885 106.174 7.00562 105.04 3.31907 104.334C7.06817 104.051 12.7304 104.238 17.1786 107.024H17.1676ZM2.67889 105.585C6.49054 106.321 13.0137 107.575 17.4876 108.458C15.35 109.312 10.6701 109.993 2.67889 105.585ZM18.2934 110.545C16.3103 113.893 13.297 119.614 11.509 123.054C12.3588 119.525 14.2573 114.054 18.2934 110.545ZM12.9549 123.212C15.2065 118.889 18.4258 112.84 20.0815 110.184C20.247 112.369 19.5664 117.035 12.9549 123.212Z" fill="white" fill-opacity="0.33"/>
<g opacity="0.44">
<path opacity="0.44" d="M79.6499 104.272C79.8159 104.273 79.9767 104.33 80.1062 104.434C80.2425 104.525 80.361 104.639 80.4557 104.773C80.4631 104.784 80.4682 104.796 80.4707 104.809C80.4733 104.821 80.4731 104.835 80.4704 104.847C80.4676 104.86 80.4623 104.872 80.4547 104.883C80.4471 104.893 80.4374 104.902 80.4263 104.909C80.4158 104.913 80.4045 104.916 80.3932 104.916C80.3818 104.916 80.3705 104.913 80.36 104.909C80.2021 104.884 80.0501 104.83 79.9112 104.751C79.7644 104.68 79.6453 104.562 79.5727 104.416C79.5609 104.39 79.5593 104.361 79.5682 104.335C79.5771 104.308 79.5958 104.286 79.6205 104.272H79.6499Z" fill="white"/>
</g>
<g opacity="0.44">
<path opacity="0.44" d="M81.768 93.2969C81.7421 93.5445 81.6644 93.784 81.5399 93.9996C81.4272 94.2208 81.2876 94.4272 81.1242 94.614C81.1064 94.6311 81.0826 94.6407 81.058 94.6407C81.0333 94.6407 81.0096 94.6311 80.9917 94.614C80.98 94.6029 80.9712 94.589 80.966 94.5736C80.9609 94.5582 80.9596 94.5418 80.9623 94.5258C81.007 94.2853 81.0824 94.0516 81.1867 93.8304C81.2765 93.6015 81.416 93.3954 81.5951 93.227C81.6137 93.2086 81.6388 93.1982 81.665 93.1982C81.6912 93.1982 81.7163 93.2086 81.7349 93.227C81.745 93.2357 81.7532 93.2464 81.7589 93.2585C81.7646 93.2705 81.7677 93.2836 81.768 93.2969Z" fill="white"/>
</g>
<g style="mix-blend-mode:multiply" opacity="0.14">
<g style="mix-blend-mode:multiply" opacity="0.14">
<path d="M72.0879 106.562C72.0879 106.492 70.952 106.533 69.1452 106.327C67.3385 106.121 64.8784 105.638 62.13 105.15C59.7779 104.688 57.3714 104.569 54.9853 104.797C54.2629 104.883 53.5499 105.035 52.8548 105.25C52.5954 105.311 52.3472 105.412 52.1191 105.55C52.1191 105.627 53.2138 105.25 55.0147 105.103C57.3792 104.963 59.7519 105.122 62.077 105.574C64.8078 106.05 67.3031 106.515 69.1394 106.621C69.8626 106.663 70.5877 106.663 71.311 106.621C71.5714 106.637 71.8328 106.617 72.0879 106.562Z" fill="#A54F46"/>
</g>
</g>
<g style="mix-blend-mode:multiply" opacity="0.14">
<g style="mix-blend-mode:multiply" opacity="0.14">
<path d="M104.145 107.091C103.944 106.894 103.713 106.729 103.462 106.603C102.794 106.217 102.08 105.917 101.337 105.708C100.24 105.402 99.1098 105.229 97.9711 105.19C96.5815 105.143 95.1903 105.204 93.8102 105.373L89.6905 105.891C88.5793 106.03 87.4615 106.111 86.3417 106.132C84.429 106.161 83.2579 105.902 83.2461 105.979C83.5042 106.093 83.7779 106.169 84.0583 106.202C84.8095 106.345 85.5714 106.424 86.3359 106.438C87.4699 106.463 88.6044 106.412 89.7317 106.285C91.0029 106.161 92.3859 105.967 93.8514 105.802C95.2179 105.634 96.5944 105.561 97.9711 105.584C99.0855 105.603 100.195 105.743 101.279 106.002C102.262 106.286 103.221 106.65 104.145 107.091Z" fill="#A54F46"/>
</g>
</g>
<path d="M129.211 36.0724L127.338 35.6051C127.094 35.5341 126.875 35.395 126.707 35.2041C126.539 35.0132 126.429 34.7784 126.389 34.5271L125.988 32.5293C125.965 32.4543 125.918 32.3888 125.855 32.3422C125.792 32.2956 125.715 32.2705 125.637 32.2705C125.558 32.2705 125.482 32.2956 125.418 32.3422C125.355 32.3888 125.309 32.4543 125.285 32.5293L124.947 34.3689C124.904 34.666 124.777 34.9448 124.582 35.1727C124.386 35.4007 124.13 35.5685 123.843 35.6566L122.11 36.1165C122.013 36.1165 121.919 36.1553 121.85 36.2243C121.781 36.2933 121.742 36.3868 121.742 36.4844C121.742 36.582 121.781 36.6756 121.85 36.7446C121.919 36.8136 122.013 36.8523 122.11 36.8523L123.847 37.2828C124.131 37.3702 124.386 37.5359 124.581 37.761C124.776 37.9861 124.904 38.2615 124.95 38.5558L125.318 40.3954C125.342 40.4704 125.388 40.536 125.452 40.5825C125.515 40.6291 125.591 40.6542 125.67 40.6542C125.748 40.6542 125.825 40.6291 125.888 40.5825C125.951 40.536 125.998 40.4704 126.021 40.3954L126.389 38.3866C126.425 38.1365 126.531 37.9018 126.695 37.7096C126.86 37.5175 127.075 37.3759 127.316 37.3012L129.211 36.8119C129.309 36.8119 129.403 36.7729 129.472 36.7036C129.542 36.6342 129.581 36.5402 129.581 36.4421C129.581 36.3441 129.542 36.25 129.472 36.1807C129.403 36.1113 129.309 36.0724 129.211 36.0724Z" fill="#F2BC36"/>
<path d="M22.2305 31.6269L20.3578 32.0941C20.1135 32.1651 19.8945 32.3042 19.7264 32.4951C19.5583 32.686 19.448 32.9208 19.4085 33.1721L19.0075 35.1699C18.9842 35.2449 18.9376 35.3105 18.8743 35.357C18.8111 35.4036 18.7347 35.4287 18.6561 35.4287C18.5776 35.4287 18.5012 35.4036 18.438 35.357C18.3747 35.3105 18.3281 35.2449 18.3048 35.1699L17.9663 33.3303C17.9231 33.0332 17.7964 32.7545 17.601 32.5265C17.4056 32.2985 17.1496 32.1307 16.8625 32.0426L15.1296 31.5827C15.0321 31.5827 14.9385 31.5439 14.8695 31.4749C14.8005 31.406 14.7617 31.3124 14.7617 31.2148C14.7617 31.1172 14.8005 31.0236 14.8695 30.9546C14.9385 30.8856 15.0321 30.8469 15.1296 30.8469L16.8662 30.4164C17.151 30.329 17.4055 30.1633 17.6007 29.9382C17.7958 29.7131 17.9238 29.4377 17.97 29.1434L18.3379 27.3038C18.3612 27.2288 18.4078 27.1633 18.4711 27.1167C18.5343 27.0701 18.6107 27.045 18.6893 27.045C18.7678 27.045 18.8442 27.0701 18.9074 27.1167C18.9707 27.1633 19.0173 27.2288 19.0406 27.3038L19.4085 29.3126C19.4446 29.5627 19.5508 29.7975 19.7149 29.9896C19.8791 30.1817 20.0943 30.3233 20.3357 30.398L22.2305 30.8873C22.3285 30.8873 22.4226 30.9263 22.4919 30.9956C22.5613 31.065 22.6002 31.159 22.6002 31.2571C22.6002 31.3552 22.5613 31.4492 22.4919 31.5186C22.4226 31.5879 22.3285 31.6269 22.2305 31.6269Z" fill="#F2BC36"/>
<path d="M136.05 24.9838L134.946 24.7115C134.802 24.6687 134.672 24.5858 134.573 24.4725C134.474 24.3592 134.41 24.2201 134.387 24.0714L134.147 22.8903C134.138 22.8424 134.113 22.7991 134.075 22.7679C134.038 22.7368 133.99 22.7197 133.941 22.7197C133.893 22.7197 133.845 22.7368 133.808 22.7679C133.77 22.7991 133.745 22.8424 133.735 22.8903L133.533 23.9941C133.504 24.1656 133.429 24.326 133.316 24.4577C133.202 24.5894 133.055 24.6874 132.889 24.741L131.866 25.0095C131.817 25.0208 131.772 25.0486 131.741 25.0883C131.709 25.1281 131.691 25.1775 131.691 25.2285C131.691 25.2794 131.709 25.3288 131.741 25.3686C131.772 25.4084 131.817 25.4361 131.866 25.4474L132.889 25.7196C133.057 25.7685 133.207 25.8634 133.324 25.9935C133.44 26.1235 133.518 26.2836 133.548 26.4555L133.765 27.5592C133.776 27.6062 133.802 27.6481 133.84 27.6781C133.878 27.7081 133.924 27.7244 133.973 27.7244C134.021 27.7244 134.068 27.7081 134.105 27.6781C134.143 27.6481 134.17 27.6062 134.181 27.5592L134.401 26.3745C134.421 26.2249 134.482 26.0839 134.578 25.968C134.675 25.852 134.802 25.7659 134.946 25.7196L136.05 25.4253C136.101 25.4158 136.148 25.3886 136.182 25.3482C136.215 25.3079 136.234 25.257 136.234 25.2045C136.234 25.152 136.215 25.1012 136.182 25.0609C136.148 25.0205 136.101 24.9933 136.05 24.9838Z" fill="#F2BC36"/>
<path d="M29.0691 42.7145L27.9654 42.9867C27.8211 43.0295 27.692 43.1124 27.593 43.2257C27.494 43.3391 27.4292 43.4782 27.4061 43.6269L27.167 44.8079C27.1579 44.8559 27.1323 44.8992 27.0947 44.9303C27.0571 44.9615 27.0098 44.9785 26.961 44.9785C26.9121 44.9785 26.8648 44.9615 26.8272 44.9303C26.7896 44.8992 26.764 44.8559 26.7549 44.8079L26.5526 43.7042C26.524 43.5326 26.4488 43.3723 26.3352 43.2406C26.2217 43.1088 26.0742 43.0109 25.9087 42.9573L24.8859 42.6887C24.8362 42.6775 24.7918 42.6497 24.7601 42.6099C24.7283 42.5701 24.7109 42.5207 24.7109 42.4698C24.7109 42.4189 24.7283 42.3694 24.7601 42.3297C24.7918 42.2899 24.8362 42.2621 24.8859 42.2509L25.9087 41.9786C26.0763 41.9297 26.2267 41.8348 26.3431 41.7048C26.4595 41.5747 26.5372 41.4147 26.5673 41.2428L26.7844 40.139C26.7953 40.092 26.8217 40.0502 26.8595 40.0202C26.8972 39.9902 26.944 39.9738 26.9922 39.9738C27.0405 39.9738 27.0872 39.9902 27.125 40.0202C27.1627 40.0502 27.1892 40.092 27.2001 40.139L27.4209 41.3237C27.4401 41.4733 27.5016 41.6143 27.598 41.7303C27.6944 41.8462 27.8218 41.9324 27.9654 41.9786L29.0691 42.2729C29.1208 42.2824 29.1675 42.3097 29.2011 42.35C29.2347 42.3904 29.2531 42.4412 29.2531 42.4937C29.2531 42.5462 29.2347 42.597 29.2011 42.6374C29.1675 42.6777 29.1208 42.705 29.0691 42.7145Z" fill="#F2BC36"/>
<g style="mix-blend-mode:multiply" opacity="0.14">
<g style="mix-blend-mode:multiply" opacity="0.14">
<path d="M78.9743 95.6083C81.5293 95.5211 84.0619 95.0996 86.5075 94.3548C86.4769 94.1897 86.4612 94.0223 86.4604 93.8545V82.7549L67.8217 85.6151L67.5687 92.6068C67.5525 93.1435 67.374 93.6627 67.0566 94.0958C70.9318 95.1903 74.9486 95.7001 78.9743 95.6083Z" fill="#FCC1A8"/>
</g>
</g>
<g style="mix-blend-mode:multiply" opacity="0.1">
<g style="mix-blend-mode:multiply" opacity="0.1">
<path d="M79.8392 66.0581C79.3331 63.5628 78.821 61.0086 79.2507 58.4955C79.6803 55.9825 81.1634 53.4931 83.5646 52.6574C84.5536 52.3363 85.6056 52.2596 86.6308 52.4337C87.9119 52.6499 89.1212 53.1743 90.1547 53.9617C91.1881 54.7491 92.0146 55.7759 92.5631 56.9536C93.063 58.2025 93.4031 59.5096 93.5754 60.8438C91.0447 61.5814 88.4945 62.2386 85.9246 62.8153" fill="#FCC1A8"/>
</g>
</g>
<g style="mix-blend-mode:multiply" opacity="0.1">
<g style="mix-blend-mode:multiply" opacity="0.1">
<path d="M55.6907 65.1524C55.5041 63.9522 55.5673 62.7264 55.8761 61.5517C56.185 60.377 56.7329 59.2787 57.4857 58.3255C58.256 57.3882 59.2609 56.6718 60.398 56.249C61.5351 55.8261 62.764 55.7121 63.9595 55.9184C64.994 56.1773 65.9586 56.6613 66.7846 57.3357C67.6107 58.0102 68.2777 58.8585 68.7383 59.8203C69.6465 61.7598 69.995 63.9142 69.7447 66.0411C69.7518 66.8134 69.4585 67.5584 68.9267 68.1186C67.9909 68.8954 66.5726 68.4128 65.4897 67.8949" fill="#FCC1A8"/>
</g>
</g>
<path d="M60.5737 52.4935C61.1869 55.3138 60.2059 57.4802 58.8979 59.9735C57.5899 62.4668 56.4591 65.0828 57.1539 67.9712C57.6989 70.1784 59.4156 71.3501 60.6964 73.0804C61.1051 73.6391 60.3013 74.4429 59.7426 74.0206C50.8593 68.0121 59.9198 60.0825 60.0833 52.5617C60.0833 52.4966 60.1091 52.4342 60.1551 52.3882C60.2011 52.3422 60.2634 52.3164 60.3285 52.3164C60.3935 52.3164 60.4559 52.3422 60.5019 52.3882C60.5479 52.4342 60.5737 52.4966 60.5737 52.5617V52.4935Z" fill="#A1554C"/>
<path d="M124.216 67.6306C125.578 61.1589 127.186 55.0142 126.123 48.3245C124.842 40.245 116.817 30.9257 107.594 34.6316C107.076 34.8496 106.762 34.0185 107.226 33.746C114.038 29.6586 123.221 36.7707 125.891 42.8746C129.121 50.3 128.344 60.682 124.706 67.835C124.556 68.1211 124.148 67.9168 124.216 67.6306Z" fill="#A1554C"/>
<path d="M94.9623 6.90518C92.1303 4.73911 88.8844 3.17646 85.425 2.31366C83.2502 1.74797 80.9822 1.63666 78.7625 1.98667C75.5335 2.59979 70.1108 5.46096 74.3345 10.1615C74.7024 10.5702 74.2255 11.2923 73.7078 10.9654C68.2579 7.49106 73.3535 1.7823 77.9178 0.842194C83.7764 -0.356779 91.161 2.35453 95.3438 6.45556C95.5618 6.67356 95.262 7.09592 95.0032 6.90518H94.9623Z" fill="#A1554C"/>
<path d="M50.0289 24.8485C48.1214 22.4778 48.462 18.5403 50.1379 16.1423C51.8137 13.7444 55.506 12.1367 58.0947 13.8125C58.1803 13.8687 58.2462 13.9502 58.2832 14.0457C58.3201 14.1412 58.3263 14.2459 58.3007 14.345C58.2752 14.4442 58.2192 14.5329 58.1408 14.5986C58.0623 14.6644 57.9652 14.704 57.8631 14.7118C56.5917 14.555 55.3059 14.555 54.0345 14.7118C52.7466 15.107 51.6378 15.941 50.9009 17.0688C49.2523 19.5349 49.879 21.8375 50.642 24.4534C50.7374 24.7804 50.2605 25.0938 50.0289 24.8076V24.8485Z" fill="#A1554C"/>
<path d="M55.3823 17.1654C55.3823 17.1654 52.9844 9.90345 60.1782 6.66077C62.1275 5.6904 64.2796 5.19789 66.4569 5.22395C68.6341 5.25001 70.7739 5.79389 72.6993 6.81064C81.2693 0.870276 92.169 1.25177 99.2811 10.3667C102.301 14.0137 104.06 18.54 104.295 23.2693C109.868 21.9068 114.895 28.7191 111.489 33.2425C131.79 44.0333 129.719 69.6614 116.053 81.8555C108.846 88.2727 101.066 87.5097 91.5287 87.4143C85.4793 87.3462 78.7078 86.3516 73.3125 83.4632C61.568 77.1822 52.2351 63.2305 64.143 49.1562L59.0338 38.2564C47.3438 36.1719 47.5073 17.942 55.3823 17.1654Z" fill="#B66354"/>
<path d="M55.4645 72.3027C49.6331 73.3791 39.8915 91.0776 36.5262 96.4457C30.3405 106.337 15.6804 122.959 23.4192 127.919C32.2071 133.532 45.464 111.91 50.9002 103.64C53.8704 99.1298 55.4645 72.3027 55.4645 72.3027Z" fill="#FCC1A8"/>
<path d="M49.4295 96.7598C48.3914 100.753 46.3891 104.43 43.5981 107.469C43.5981 107.469 30.0415 109.894 25.886 116.734C22.9158 121.625 44.5109 113.532 44.5109 113.532L52.6858 100.629L49.4295 96.7598Z" fill="#CB8B6F"/>
<path d="M105.303 29.0176C97.4826 32.996 81.1602 32.9006 77.5225 22.9682C77.4271 22.6957 77.8222 22.4505 77.9993 22.6821C84.8117 31.4564 95.3981 30.8569 105.072 28.4726C105.385 28.3909 105.617 28.8541 105.303 29.0176Z" fill="#A1554C"/>
<path d="M86.9648 24.6455C80.1525 25.7763 71.3373 15.1082 77.1959 9.31768C77.2663 9.25665 77.3554 9.22151 77.4485 9.21805C77.5416 9.2146 77.6331 9.24304 77.7078 9.29868C77.7825 9.35432 77.836 9.43382 77.8593 9.524C77.8827 9.61417 77.8746 9.70963 77.8363 9.79455C76.2013 13.228 76.0378 16.1573 78.4766 19.3318C79.4745 20.678 80.7377 21.8053 82.1883 22.6442C83.6388 23.4831 85.2459 24.0158 86.9103 24.2095C87.1283 24.2095 87.2373 24.6046 86.9103 24.6455H86.9648Z" fill="#A1554C"/>
<path d="M96.3784 12.1916C93.4082 9.46664 87.8221 6.9597 83.9118 8.93528C83.8185 8.9875 83.7108 9.00782 83.6049 8.99318C83.4991 8.97854 83.4009 8.92973 83.3253 8.85416C83.2497 8.77859 83.2009 8.6804 83.1863 8.57454C83.1716 8.46867 83.192 8.36091 83.2442 8.26766C84.4295 6.30571 87.6177 6.9052 89.4843 7.30032C90.9267 7.57142 92.3012 8.12509 93.5288 8.92946C94.7564 9.73383 95.8128 10.773 96.6372 11.9872C96.7599 12.1507 96.5146 12.3142 96.3784 12.1916Z" fill="#A1554C"/>
<path d="M98.8995 19.249C98.1473 18.1087 97.2021 17.1082 96.1064 16.2924C95.2072 15.7474 93.9673 15.3387 93.3815 14.4122C93.3507 14.3589 93.3343 14.2984 93.334 14.2368C93.3337 14.1752 93.3494 14.1146 93.3797 14.061C93.4099 14.0073 93.4537 13.9625 93.5066 13.9309C93.5594 13.8993 93.6196 13.8821 93.6812 13.8809C95.159 14.1948 96.5327 14.8793 97.6733 15.8701C98.2256 16.2061 98.6776 16.6843 98.9819 17.2547C99.2863 17.8252 99.4319 18.4668 99.4036 19.1127C99.3895 19.1669 99.3612 19.2164 99.3215 19.2559C99.2819 19.2955 99.2323 19.3237 99.1781 19.3376C99.1239 19.3515 99.0669 19.3506 99.0131 19.335C98.9593 19.3195 98.9107 19.2897 98.8722 19.249H98.8995Z" fill="#A1554C"/>
<path d="M101.651 35.5305C120.263 31.157 129.16 61.4856 117.333 72.6169C117.259 72.6881 117.159 72.7272 117.056 72.7259C116.953 72.7246 116.854 72.6831 116.782 72.6102C116.709 72.5373 116.667 72.4388 116.666 72.3356C116.665 72.2325 116.704 72.133 116.775 72.0583C127.225 59.7961 119.868 34.6585 101.788 36.2118C101.406 36.2118 101.324 35.6259 101.692 35.5305H101.651Z" fill="#A1554C"/>
<path d="M115.808 62.9165C116.584 69.7289 111.475 78.6803 104.091 79.2662C103.723 79.2662 103.682 78.7484 104.009 78.6394C111.312 76.2415 113.819 69.7834 115.263 62.7939C115.263 62.4669 115.781 62.5895 115.808 62.8757V62.9165Z" fill="#A1554C"/>
<path d="M100.82 42.152C103.463 43.9777 106.829 44.8769 108.995 47.2885C110.896 49.4145 111.931 52.1756 111.897 55.0273C111.897 59.6325 108.777 65.9271 103.273 64.8371C103.027 64.8371 103.068 64.4556 103.273 64.3875C106.597 63.2975 109.022 62.3438 110.262 58.815C111.025 56.5837 111.12 54.178 110.534 51.8936C108.927 46.0078 103.504 46.5936 100.507 42.479C100.357 42.2882 100.643 42.0158 100.834 42.152H100.82Z" fill="#A1554C"/>
<path d="M104.2 57.3564C104.091 60.0814 101.557 61.4438 99.1177 61.9616C97.3057 62.3158 93.5861 62.5202 92.537 60.5174C92.3735 60.1904 92.6596 59.6999 93.0684 59.8497C96.6517 61.076 101.829 61.6482 103.628 57.2747C103.75 56.9885 104.227 56.9885 104.2 57.3564Z" fill="#A1554C"/>
<path d="M67.6728 16.8655C64.6209 16.63 61.5996 17.6093 59.2663 19.5904C56.7484 21.7961 55.1437 24.8615 54.7657 28.1874C54.3878 31.5134 55.2638 34.8607 57.2226 37.575C70.5339 45.3411 86.7337 69.0208 86.7337 69.0208C85.6554 66.4073 85.207 63.5767 85.4247 60.7578C85.6425 57.9389 86.5203 55.2108 87.9872 52.7938C89.4827 52.7084 90.9172 52.1719 92.1017 51.2549C93.2861 50.338 94.165 49.0837 94.6224 47.6573C96.38 42.5481 92.7149 40.4635 90.3306 41.0085C89.8277 40.4412 89.5257 39.724 89.4715 38.9679C89.4173 38.2117 89.6139 37.4588 90.0309 36.8257C90.0309 36.8257 93.9139 36.2398 94.636 34.5095C94.636 34.5095 84.6355 34.782 78.8041 30.8444C73.8898 27.2855 70.0409 22.4519 67.6728 16.8655Z" fill="#A1554C"/>
<path d="M94.009 118.709C93.0689 103.872 106.912 89.5117 104.664 78.2169C101.257 74.1295 93.6412 71.895 89.1041 70.1374C89.1041 70.1374 71.392 70.7778 65.3699 69.7832C60.9555 71.3773 57.127 71.4999 55.4375 72.3038C51.1594 82.5495 47.3717 93.5447 47.6578 98.1907C48.1483 106.543 56.6229 107.619 56.2141 119.69C56.0097 125.699 49.4018 140.127 48.3527 152.199C48.3527 152.199 55.928 150.019 73.7491 150.51C90.4666 150.959 104.486 152.213 104.486 152.213C103.955 142.566 94.6358 128.356 94.009 118.709Z" fill="#FCC1A8"/>
<path d="M85.9016 50.3535C85.9016 50.3535 71.8137 54.2229 68.8298 59.0188C71.9771 63.3651 68.2576 69.469 63.1211 70.5317C63.1211 70.5317 63.5298 75.8862 74.8247 75.6955C86.5828 75.4911 89.1306 70.1366 89.1306 70.1366C89.1306 70.1366 84.2394 67.0165 83.4491 61.9618C83.0178 59.9632 83.0134 57.8962 83.436 55.8958C83.8586 53.8954 84.6988 52.0068 85.9016 50.3535Z" fill="#FCC1A8"/>
<path d="M69.6751 60.6819C70.1396 62.1393 70.0671 63.7149 69.4707 65.1235C70.2589 67.4201 71.6175 69.4788 73.4192 71.1065C75.2208 72.7342 77.4064 73.8775 79.771 74.4292C89.4445 76.7454 94.1178 72.0312 94.1178 72.0312C92.2648 71.3091 90.5208 70.6688 89.1311 70.1374C89.1311 70.1374 84.2399 67.0174 83.4496 61.9626C83.0123 59.9578 83.0048 57.8831 83.4275 55.8752C83.8502 53.8673 84.6936 51.9718 85.9021 50.3135L69.6751 60.6819Z" fill="#FCC1A8"/>
<path d="M88.3835 52.3474C86.8135 50.8743 85.403 48.8474 84.1391 46.7625C78.8188 54.2173 71.6885 57.8744 66.7272 59.6237C67.9505 61.3202 68.9852 63.1365 69.4056 64.8056C76.9462 62.5904 83.1508 58.0133 88.3835 52.3474Z" fill="#CB8B6F"/>
<path d="M90.7526 40.8854C88.7362 40.572 87.0603 44.4687 87.0603 44.4687C83.5452 42.207 84.6079 36.689 84.6079 36.689C84.6079 36.689 69.3619 30.9666 67.1002 19.917C59.375 20.4211 57.958 29.3589 57.958 29.3589C53.0804 51.7443 63.6395 62.0582 67.4953 62.753C70.0159 63.3389 80.357 60.6684 85.9023 51.1448C87.3929 51.5353 88.9739 51.3824 90.3619 50.7133C91.75 50.0442 92.8545 48.9027 93.4776 47.4934C94.7038 44.8229 94.2678 41.2669 90.7526 40.8854Z" fill="#FCC1A8"/>
<path d="M71.0375 31.5257C70.765 32.8882 73.054 31.2805 76.9098 32.8065C79.2396 33.7329 80.9972 36.1581 81.3378 35.872C81.6784 35.5859 80.8609 33.3514 77.5092 31.5394C74.8116 30.0815 71.2419 30.5448 71.0375 31.5257Z" fill="#5E323E"/>
<path d="M64.1846 31.3757C64.3344 32.6292 62.0046 31.2667 59.5385 32.1251C57.781 32.7382 56.9771 34.523 56.6092 34.3187C56.2414 34.1143 56.5002 32.057 58.6938 30.9261C60.8874 29.7953 64.0347 30.6264 64.1846 31.3757Z" fill="#5E323E"/>
<path d="M91.6518 46.9748C90.9297 48.3373 89.6218 49.073 88.7361 48.6098C87.8505 48.1465 87.7279 46.6478 88.45 45.2854C89.1721 43.9229 90.4801 43.1872 91.3657 43.6504C92.2513 44.1136 92.3739 45.6124 91.6518 46.9748Z" fill="#CB8B6F"/>
<path d="M104.691 78.2168C107.416 80.9417 105.617 79.3476 110.141 83.8165C114.664 88.2854 136.368 111.066 130.864 117.047C123.902 124.554 102.879 105.97 96.734 102.401C92.0335 99.6757 104.691 78.2168 104.691 78.2168Z" fill="#FCC1A8"/>
<path d="M94.3764 99.4717C96.57 99.5807 102.142 97.4961 102.251 98.191C102.36 98.8858 99.5265 100.044 99.5265 100.739C99.5265 101.434 109.404 112.551 121.326 114.84C124.51 115.437 127.658 116.215 130.754 117.17C123.942 123.983 104.241 107.17 97.5101 102.851C96.5155 105.058 95.5754 107.224 94.7851 109.309L85.752 102.251L94.3764 99.4717Z" fill="#CB8B6F"/>
<path d="M79.4023 38.1051C78.819 38.6323 78.1285 39.027 77.3783 39.2622C76.6281 39.4973 75.8359 39.5674 75.056 39.4676C73.8805 39.1836 72.8602 38.4562 72.2085 37.4375C72.0616 38.2773 72.2527 39.141 72.7403 39.8404C73.2278 40.5397 73.9721 41.018 74.8108 41.1707C78.4213 41.9337 79.4023 38.1051 79.4023 38.1051Z" fill="#4A3746"/>
<path d="M77.6602 40.0136C77.6602 40.0136 79.1589 40.9128 79.2815 40.7765C79.4041 40.6403 78.3005 39.4141 78.3005 39.4141L77.6602 40.0136Z" fill="#4A3746"/>
<path d="M78.4082 39.4137C79.0026 39.5956 79.6146 39.7144 80.2339 39.7679C80.2339 39.6589 78.9532 38.7461 78.9532 38.7461L78.4082 39.4137Z" fill="#4A3746"/>
<path d="M57.8221 37.2344C57.8221 37.2344 57.2226 40.3408 60.1519 40.7904C62.8768 41.2128 63.8169 38.6922 64.1167 37.7112C63.6454 38.2238 63.0577 38.6152 62.4031 38.8523C61.7485 39.0895 61.0464 39.1654 60.3562 39.0737C59.8101 39.0149 59.2887 38.8142 58.8442 38.4916C58.3996 38.1689 58.0472 37.7355 57.8221 37.2344Z" fill="#4A3746"/>
<path d="M58.747 39.6574C58.747 39.6574 57.2211 39.998 57.153 39.8345C57.0848 39.671 58.3928 38.8672 58.3928 38.8672L58.747 39.6574Z" fill="#4A3746"/>
<path d="M58.3803 38.8006C57.7556 38.8205 57.1304 38.7794 56.5137 38.678C56.9963 38.3709 57.5073 38.1108 58.0397 37.9014L58.3803 38.8006Z" fill="#4A3746"/>
<path d="M48.3802 152.24C48.7345 140.346 54.4024 126.272 54.6067 120.25C55.0155 108.192 48.1759 106.625 47.6854 98.232C47.4129 93.804 50.7782 83.7763 54.7566 74.0619C55.0291 73.4351 55.3016 72.7947 55.5877 72.1816C56.6747 71.7762 57.8034 71.4929 58.953 71.3369C54.416 76.7868 53.0671 86.8691 53.0671 86.8691C60.4654 87.6457 66.0106 91.0246 67.4003 90.8475C68.79 90.6703 74.7168 88.4223 79.9759 87.7274C83.1058 87.3023 86.2594 87.0748 89.4178 87.0462C90.1859 81.7763 91.8348 76.673 94.2955 71.95C95.1811 72.3043 96.0803 72.6721 97.0204 73.0672C94.7999 77.5274 93.6168 82.432 93.5597 87.414C93.4099 94.0765 95.7397 101.393 97.3065 103.26C95.0729 107.919 94.1857 113.11 94.7451 118.247C95.4263 127.879 103.996 142.567 104.555 152.308C104.555 152.308 84.1178 153.998 69.7983 153.071C57.7268 152.24 48.3802 152.24 48.3802 152.24Z" fill="#E74779"/>
<path d="M54.6069 120.249C55.0156 108.191 48.176 106.624 47.6855 98.2312C47.6855 98.0133 47.6855 97.7408 47.6855 97.5091C50.2061 99.9616 55.1519 102.182 64.7982 102.482C87.5241 103.177 89.4044 87.0454 89.4044 87.0454C90.1724 81.7755 91.8213 76.6722 94.282 71.9492C95.1676 72.3035 96.0668 72.6713 97.0069 73.0664C94.7864 77.5266 93.6033 82.4312 93.5463 87.4132C93.3964 94.0757 95.7262 101.392 97.2931 103.259C95.0594 107.918 94.1722 113.109 94.7316 118.246C95.4128 127.879 103.983 142.566 104.541 152.308C104.541 152.308 101.258 152.594 96.3666 152.866C96.3666 127.81 77.8642 115.453 65.8609 116.556C57.0457 117.374 55.0701 123.859 52.9583 128.682C53.7741 125.93 54.3262 123.106 54.6069 120.249Z" fill="#AF1F4C"/>
<path d="M96.1469 63.4336L91.1738 67.6981C91.1738 67.6981 97.3594 75.8729 103.136 91.8138C111.761 115.589 125.658 120.426 129.841 118.096C134.487 115.48 134.078 107.196 129.405 100.493C120.344 87.6447 100.057 70.2459 96.1469 63.4336Z" fill="#FCC1A8"/>
<path d="M96.1484 63.4349C93.5189 59.075 93.0692 55.8323 90.9165 53.0392C89.725 51.4949 88.2891 50.1556 86.6656 49.0744C84.3631 47.5212 82.878 46.2269 82.4556 46.5539C82.0332 46.8809 81.9242 48.802 84.0361 50.1781C84.0361 50.1781 80.3438 48.9791 80.1258 49.8511C79.7307 51.5405 82.5101 51.9493 84.5402 53.339C85.6766 54.0926 86.612 55.1121 87.2651 56.3092C87.3741 56.5817 86.0662 55.6961 84.5402 55.4781C83.0142 55.2601 80.9978 55.4781 80.9433 56.0639C80.8343 57.1948 82.9325 57.004 84.6492 57.5626C85.1903 57.7049 85.6866 57.9819 86.0916 58.3679C86.4966 58.7539 86.7973 59.2362 86.9654 59.7698C87.349 62.8398 88.8473 65.6618 91.1754 67.6994C92.9194 69.1436 94.8541 67.8629 95.7669 66.1326C96.1258 65.2816 96.2573 64.352 96.1484 63.4349Z" fill="#FCC1A8"/>
<path d="M21.6891 125.891C23.8827 131.341 33.2837 129.978 38.7064 125.755C44.8102 121.027 49.4971 115.318 52.6444 113.956C55.417 113.018 58.3286 112.557 61.2552 112.593C64.2935 112.593 66.7051 112.375 66.7051 111.626C66.5961 110.263 59.8928 111.435 60.029 110.359C60.029 110.073 61.8002 110.004 63.6941 110.045C65.9013 110.113 68.2856 110.263 68.381 109.378C68.4763 108.492 66.2283 108.179 63.9121 108.015C61.5959 107.852 59.0889 107.702 59.0889 107.17C59.0889 106.639 60.8329 106.258 62.4406 106.394C65.4108 106.653 67.3727 108.179 67.9995 107.034C68.6262 105.89 62.3861 102.947 56.8817 103.846C53.9621 104.516 51.1696 105.653 48.6115 107.211C42.4123 110.549 36.6218 110.073 29.2508 113.356C22.2614 116.381 20.2858 122.416 21.6891 125.891Z" fill="#FCC1A8"/>
<path d="M103.995 88.3389C112.796 115.466 125.699 120.411 130.999 116.951C131.263 116.745 131.509 116.517 131.735 116.269C131.269 117.043 130.618 117.69 129.841 118.15C125.222 120.589 111.761 115.643 103.136 91.8677C97.3594 75.9268 91.1738 67.752 91.1738 67.752C91.1738 67.752 98.0952 70.3406 103.995 88.3389Z" fill="#CB8B6F"/>
<path d="M21.6895 125.89C21.6895 125.89 25.7769 130.563 34.0334 127.143C41.7995 123.887 47.3039 115.004 50.3831 113.614C53.108 112.333 54.9746 112.429 59.4707 112.633C57.1422 112.724 54.8429 113.184 52.6584 113.995C49.5111 115.358 44.8242 121.067 38.7203 125.794C33.2841 129.95 23.883 131.312 21.6895 125.89Z" fill="#CB8B6F"/>
</svg>
