<svg width="27" height="27" viewBox="0 0 27 27" fill="none" xmlns="http://www.w3.org/2000/svg">
<path d="M26.4322 10.3251C26.262 9.77572 25.795 9.38553 25.2425 9.33357L17.7383 8.62254L14.7709 1.37497C14.5521 0.843821 14.0538 0.5 13.5001 0.5C12.9465 0.5 12.4482 0.843821 12.2294 1.37622L9.26195 8.62254L1.75647 9.33357C1.205 9.38677 0.73923 9.77572 0.568037 10.3251C0.396845 10.8745 0.554945 11.477 0.972115 11.8569L6.64447 17.0479L4.97183 24.7364C4.84943 25.3017 5.0597 25.886 5.50921 26.2251C5.75082 26.4073 6.0335 26.5 6.31855 26.5C6.56433 26.5 6.80813 26.4309 7.02693 26.2942L13.5001 22.2572L19.9709 26.2942C20.4444 26.5915 21.0413 26.5644 21.4898 26.2251C21.9395 25.885 22.1496 25.3005 22.0272 24.7364L20.3545 17.0479L26.0269 11.8579C26.4441 11.477 26.6034 10.8755 26.4322 10.3251Z" fill="#FFCB65"/>
</svg>
