<svg width="48" height="48" viewBox="0 0 48 48" fill="none" xmlns="http://www.w3.org/2000/svg">
<rect x="0.5" y="0.5" width="47" height="47" rx="14.5" fill="white" stroke="#E8EAEB"/>
<path d="M22.6883 24.003L27.7826 18.7654C27.9228 18.6215 28 18.4291 28 18.224C28 18.0188 27.9228 17.8266 27.7826 17.6825L27.3362 17.2238C27.1961 17.0794 27.0089 17 26.8094 17C26.6099 17 26.4229 17.0794 26.2828 17.2238L20.2172 23.4596C20.0765 23.6041 19.9994 23.7973 20 24.0026C19.9994 24.2089 20.0764 24.4018 20.2172 24.5465L26.2771 30.7762C26.4173 30.9206 26.6043 31 26.8039 31C27.0034 31 27.1904 30.9206 27.3306 30.7762L27.7769 30.3175C28.0673 30.019 28.0673 29.533 27.7769 29.2345L22.6883 24.003Z" fill="#EA5962"/>
</svg>
