<svg width="21" height="22" viewBox="0 0 21 22" fill="none" xmlns="http://www.w3.org/2000/svg">
<path fill-rule="evenodd" clip-rule="evenodd" d="M11.7165 14.2913C12.9205 14.2913 13.9005 15.2643 13.9005 16.4603V19.5363C13.9005 19.7933 14.1065 19.9993 14.3705 20.0053H16.2765C17.7785 20.0053 18.9995 18.7993 18.9995 17.3173V8.59325C18.9925 8.08325 18.7495 7.60325 18.3325 7.28425L11.7395 2.02625C10.8545 1.32525 9.61651 1.32525 8.72851 2.02825L2.18051 7.28225C1.74751 7.61125 1.50451 8.09125 1.49951 8.61025V17.3173C1.49951 18.7993 2.72051 20.0053 4.22251 20.0053H6.14651C6.41751 20.0053 6.63751 19.7903 6.63751 19.5263C6.63751 19.4683 6.64451 19.4103 6.65651 19.3553V16.4603C6.65651 15.2713 7.63051 14.2993 8.82551 14.2913H11.7165ZM16.2765 21.5053H14.3525C13.2505 21.4793 12.4005 20.6143 12.4005 19.5363V16.4603C12.4005 16.0913 12.0935 15.7913 11.7165 15.7913H8.83051C8.46151 15.7933 8.15651 16.0943 8.15651 16.4603V19.5263C8.15651 19.6013 8.14651 19.6733 8.12551 19.7413C8.01751 20.7313 7.17151 21.5053 6.14651 21.5053H4.22251C1.89351 21.5053 -0.000488281 19.6263 -0.000488281 17.3173V8.60325C0.00951172 7.60925 0.467512 6.69925 1.25851 6.10025L7.79351 0.85525C9.23251 -0.28475 11.2375 -0.28475 12.6735 0.85325L19.2555 6.10325C20.0285 6.69225 20.4865 7.60025 20.4995 8.58225V17.3173C20.4995 19.6263 18.6055 21.5053 16.2765 21.5053Z" fill="#323234"/>
</svg>
