<svg width="26" height="29" viewBox="0 0 26 29" fill="none" xmlns="http://www.w3.org/2000/svg">
<path fill-rule="evenodd" clip-rule="evenodd" d="M10.5127 25.8087C11.2034 26.578 12.09 27.0007 13.01 27.0007H13.0114C13.9354 27.0007 14.826 26.578 15.518 25.8073C15.8887 25.398 16.5207 25.3647 16.93 25.734C17.3407 26.1033 17.374 26.7367 17.0047 27.146C15.9274 28.342 14.51 29.0007 13.0114 29.0007H13.0087C11.514 28.9993 10.0994 28.3407 9.02604 27.1447C8.6567 26.7353 8.69004 26.102 9.1007 25.734C9.51137 25.3633 10.1434 25.3967 10.5127 25.8087ZM13.0764 0.333984C19.0031 0.333984 22.9844 4.94998 22.9844 9.26065C22.9844 11.478 23.5484 12.418 24.1471 13.4153C24.7391 14.3993 25.4098 15.5167 25.4098 17.6287C24.9444 23.0247 19.3111 23.4647 13.0764 23.4647C6.84177 23.4647 1.20711 23.0247 0.747088 17.714C0.743106 15.5167 1.41377 14.3993 2.00577 13.4153L2.21476 13.0635C2.72934 12.1791 3.16844 11.2171 3.16844 9.26065C3.16844 4.94998 7.14977 0.333984 13.0764 0.333984ZM13.0764 2.33398C8.41644 2.33398 5.16844 5.98465 5.16844 9.26065C5.16844 12.0327 4.39911 13.314 3.71911 14.4447C3.17377 15.3527 2.74311 16.07 2.74311 17.6287C2.96577 20.1433 4.62577 21.4647 13.0764 21.4647C21.4804 21.4647 23.1924 20.0847 23.4138 17.542C23.4098 16.07 22.9791 15.3527 22.4338 14.4447C21.7538 13.314 20.9844 12.0327 20.9844 9.26065C20.9844 5.98465 17.7364 2.33398 13.0764 2.33398Z" fill="#323234"/>
</svg>
