<svg width="28" height="29" viewBox="0 0 28 29" fill="none" xmlns="http://www.w3.org/2000/svg">
<path fill-rule="evenodd" clip-rule="evenodd" d="M13.6513 0.666016C20.8113 0.666016 26.6353 6.49002 26.6353 13.65C26.6353 17.0281 25.339 20.1091 23.2175 22.4213L27.3919 26.587C27.7825 26.9776 27.7839 27.6096 27.3932 28.0003C27.1985 28.1976 26.9412 28.295 26.6852 28.295C26.4305 28.295 26.1745 28.1976 25.9785 28.003L21.7538 23.79C19.5314 25.5698 16.7136 26.6353 13.6513 26.6353C6.49135 26.6353 0.666016 20.81 0.666016 13.65C0.666016 6.49002 6.49135 0.666016 13.6513 0.666016ZM13.6513 2.66602C7.59402 2.66602 2.66602 7.59268 2.66602 13.65C2.66602 19.7073 7.59402 24.6353 13.6513 24.6353C19.7073 24.6353 24.6353 19.7073 24.6353 13.65C24.6353 7.59268 19.7073 2.66602 13.6513 2.66602Z" fill="#323234"/>
</svg>
