<svg width="28" height="27" viewBox="0 0 28 27" fill="none" xmlns="http://www.w3.org/2000/svg">
<path fill-rule="evenodd" clip-rule="evenodd" d="M14.3126 1.38549C16.4806 0.0148242 19.3606 -0.363843 21.8486 0.433491C27.2606 2.17882 28.9406 8.07882 27.438 12.7735C25.1193 20.1468 15.2166 25.6468 14.7966 25.8775C14.6473 25.9602 14.482 26.0015 14.3166 26.0015C14.1513 26.0015 13.9873 25.9615 13.838 25.8802C13.4206 25.6522 3.58996 20.2335 1.19396 12.7748C1.19262 12.7748 1.19262 12.7735 1.19262 12.7735C-0.311376 8.07749 1.36329 2.17616 6.76996 0.433491C9.30863 -0.387843 12.0753 -0.0265091 14.3126 1.38549ZM7.38329 2.33749C3.00862 3.74816 1.90996 8.45349 3.09796 12.1642C4.96729 17.9802 12.3526 22.6828 14.3153 23.8468C16.2846 22.6708 23.7233 17.9162 25.5326 12.1695C26.7206 8.45482 25.618 3.74949 21.2366 2.33749C19.114 1.65616 16.638 2.07082 14.9286 3.39349C14.5713 3.66816 14.0753 3.67349 13.7153 3.40149C11.9046 2.04016 9.53929 1.64149 7.38329 2.33749ZM19.9566 4.98536C21.774 5.57336 23.0473 7.18269 23.2033 9.08536C23.2473 9.63602 22.838 10.1187 22.2873 10.1627C22.2593 10.1654 22.2326 10.1667 22.2046 10.1667C21.6886 10.1667 21.2513 9.77069 21.2086 9.24802C21.1206 8.15202 20.3873 7.22669 19.3433 6.88936C18.8166 6.71869 18.5286 6.15469 18.698 5.63069C18.87 5.10536 19.4286 4.82002 19.9566 4.98536Z" fill="#323234"/>
</svg>
