<svg width="54" height="54" viewBox="0 0 54 54" fill="none" xmlns="http://www.w3.org/2000/svg">
<circle cx="27" cy="27" r="27" fill="#FBEBF2"/>
<path d="M35.9878 19.0695C33.3711 17.12 31.7355 16.431 28.4878 16.07C27.0412 15.596 25.9903 15.6991 23.9878 16.0695C20.9346 17.0296 19.7051 17.7095 17.9878 19.0695C16.5134 20.2355 15.8673 21.0291 14.9878 22.5695L13.4878 25.5691L12.9878 28.0691C12.3655 31.0295 12.3406 32.9455 12.9878 37.0695L14.9878 41.0695L18.9878 46.5695C21.0475 48.8288 22.3915 49.4393 25.4878 50.0693C27.719 50.1881 28.8964 50.4323 30.9878 49.5695C33.4009 48.0614 34.6089 46.9729 36.4878 44.5695L40.9878 37.5695L41.4878 32.0695C41.4241 29.2292 41.143 27.6032 39.9878 24.5695C38.7817 21.7936 37.8273 20.7252 35.9878 19.0695Z" fill="#F6D4C2"/>
<mask id="mask0_59_7050" style="mask-type:alpha" maskUnits="userSpaceOnUse" x="0" y="0" width="54" height="54">
<circle cx="27" cy="27" r="27" fill="#FBEBF2"/>
</mask>
<g mask="url(#mask0_59_7050)">
<path d="M27.0091 17.4922C29.5564 17.6163 31.9923 18.0125 34.1415 19.4653C35.1865 20.1038 36.1265 20.9018 36.9276 21.8307C37.115 22.0514 37.2413 22.3178 37.2938 22.6032C37.3577 22.9024 37.3055 23.2149 37.1479 23.4767C36.9904 23.7386 36.7393 23.93 36.4461 24.012C35.6202 24.2806 34.762 24.4355 33.8948 24.4723C33.5828 24.5078 33.2773 24.5873 32.9873 24.7084C32.2759 24.9189 31.5824 25.1865 30.9136 25.5089C29.7383 26.1065 28.8067 27.0971 28.2788 28.3105C28.1787 28.5476 28.1234 28.8014 28.1156 29.0589C28.0081 30.836 28.3703 32.549 28.7723 34.262C28.9775 35.0119 29.0846 35.7855 29.0907 36.5633C29.0845 36.9279 29.0186 37.2889 28.8957 37.6319C28.6251 38.3924 27.9405 38.7806 26.9614 38.7486C25.6041 38.7045 25.0827 38.0642 24.9713 36.7474C24.9453 35.7859 25.073 34.8265 25.3494 33.9057C25.6891 32.5297 25.8944 31.1235 25.9624 29.7073C25.9802 28.6517 25.5825 27.6318 24.8559 26.8697C24.1733 26.0977 23.3081 25.5113 22.3404 25.1647C21.8071 24.9645 21.2618 24.7844 20.7245 24.5883C20.1872 24.3922 19.6299 24.4683 19.0886 24.3602C18.6091 24.285 18.1356 24.1753 17.6717 24.032C17.4692 23.9856 17.2816 23.8888 17.1259 23.7505C16.9702 23.6123 16.8515 23.437 16.7806 23.2407C16.7097 23.0444 16.6889 22.8334 16.7202 22.6269C16.7514 22.4204 16.8336 22.2251 16.9593 22.0588C17.3422 21.4945 17.8172 20.9992 18.3643 20.594C19.7647 19.3645 21.4253 18.4721 23.22 17.9845C24.4645 17.6989 25.7333 17.5341 27.0091 17.4922Z" fill="#F2E6C0"/>
<path d="M34.9223 39.3211C33.6618 39.3166 32.4378 38.8946 31.4397 38.1204C30.8083 37.6651 30.2883 37.071 29.9193 36.3834C29.761 36.1372 29.6716 35.8527 29.6604 35.5597C29.6492 35.2667 29.7166 34.9761 29.8556 34.7184C30.1581 34.1461 30.6516 34.0781 31.189 34.0821C31.6168 34.1043 32.0432 34.1483 32.4666 34.2141C33.078 34.272 33.6937 34.1642 34.2497 33.9019C34.9243 33.5651 35.6384 33.315 36.3751 33.1575C36.6145 33.0869 36.8673 33.0747 37.1123 33.1221C37.3574 33.1694 37.5877 33.2749 37.7841 33.4297C37.9745 33.595 38.1134 33.8121 38.184 34.055C38.2546 34.2978 38.254 34.556 38.1821 34.7985C37.9096 36.0056 37.4185 37.1521 36.7333 38.1804C36.2079 38.9289 35.4995 39.3491 34.9223 39.3211Z" fill="#D5D9F2"/>
<path d="M19.4754 39.3106C19.0782 39.3301 18.6824 39.2503 18.3233 39.0785C17.9643 38.9067 17.6531 38.6482 17.4176 38.326C16.609 37.237 16.0639 35.9736 15.8256 34.6358C15.6504 33.7713 16.2713 33.139 17.147 33.127C17.8368 33.1621 18.513 33.3334 19.137 33.6313C19.3122 33.6993 19.4873 33.7753 19.6584 33.8594C20.4258 34.2152 21.2859 34.3161 22.1142 34.1476C22.5437 34.0476 22.9902 34.0476 23.4197 34.1476C23.73 34.242 23.9961 34.4457 24.1694 34.7213C24.3426 34.9969 24.4113 35.326 24.363 35.6484C24.2331 36.2625 23.929 36.8256 23.4873 37.2694C22.5817 38.3236 21.3415 39.0306 19.9769 39.2705C19.8108 39.2954 19.6432 39.3088 19.4754 39.3106Z" fill="#D5D9F2"/>
<path d="M27.0208 49.0392C26.2225 49.0559 25.4283 48.9201 24.6804 48.639C24.487 48.557 24.3039 48.4522 24.1351 48.3268C24.0109 48.2357 23.9075 48.1189 23.832 47.9843C23.7565 47.8496 23.7105 47.7002 23.6973 47.5462C23.6841 47.3922 23.7039 47.2371 23.7554 47.0914C23.8069 46.9458 23.8889 46.8129 23.9958 46.7018C24.1619 46.502 24.3681 46.3397 24.6008 46.2256C25.2206 45.9102 25.8977 45.725 26.5909 45.6812C27.4203 45.6205 28.2528 45.742 29.0307 46.0374C29.4488 46.18 29.8194 46.4363 30.1014 46.7779C30.1969 46.8897 30.2679 47.0206 30.3097 47.1619C30.3515 47.3032 30.3632 47.4518 30.344 47.5979C30.3249 47.7441 30.2753 47.8845 30.1985 48.0101C30.1217 48.1357 30.0195 48.2436 29.8984 48.3268C29.3303 48.7214 28.662 48.945 27.972 48.9711C27.6655 49.0192 27.3591 49.0232 27.0208 49.0392Z" fill="#F2E6C0"/>
<path d="M22.7938 31.1933C22.6819 31.0244 22.5118 30.9032 22.3162 30.8531C21.5202 30.5609 20.6804 30.3568 19.8804 30.0526C19.7735 30.0148 19.6569 30.0148 19.55 30.0526C19.302 30.1184 19.0618 30.211 18.8336 30.3288C18.7594 30.3705 18.6822 30.4066 18.6027 30.4368C18.537 30.4684 18.4629 30.4781 18.3914 30.4644C18.3198 30.4507 18.2544 30.4144 18.2047 30.3608C18.1132 30.2287 18.2764 30.1287 18.3679 30.0726C18.7791 29.7693 19.2499 29.5578 19.7489 29.4522C20.2479 29.3466 20.7636 29.3494 21.2615 29.4603C22.0199 29.6061 22.6953 30.035 23.1521 30.661C23.3073 30.8811 23.5023 31.0612 23.6774 31.2693C23.7531 31.3614 23.8565 31.4534 23.7849 31.6015C23.7133 31.7496 23.6018 31.7136 23.4864 31.7176C23.2671 31.7237 23.0489 31.6842 22.8456 31.6015C22.5829 31.4814 22.5829 31.3774 22.7938 31.1933Z" fill="#F6D4C2"/>
<path d="M31.196 31.1925C31.399 31.4047 31.3791 31.4887 31.0886 31.5928C30.8656 31.6791 30.6263 31.7147 30.3881 31.6968C30.193 31.6968 30.0617 31.5448 30.197 31.3967C30.8179 30.7003 31.2955 29.8598 32.2906 29.5556C32.795 29.3959 33.327 29.3436 33.8526 29.4022C34.3782 29.4608 34.886 29.6289 35.3434 29.8958C35.4213 29.9325 35.4947 29.9782 35.5623 30.0319C35.6578 30.1239 35.8608 30.208 35.7493 30.3641C35.6901 30.4144 35.6164 30.4443 35.539 30.4493C35.4616 30.4544 35.3847 30.4343 35.3195 30.3921C35.1174 30.2869 34.9102 30.192 34.6986 30.1079C34.4532 30.0099 34.1798 30.0099 33.9344 30.1079C33.2737 30.3481 32.5851 30.5082 31.9443 30.7683C31.6657 30.8804 31.3035 30.8123 31.196 31.1925Z" fill="#F6D4C2"/>
<path d="M2.61144 66.2414C2.47801 66.0091 2.31177 65.7974 2.1179 65.613C1.46258 64.9858 1.00609 64.1778 0.805706 63.2907C0.605318 62.4035 0.669958 61.4765 0.991516 60.6261C1.66416 58.9652 2.78656 57.8245 4.57365 57.3923C5.24231 57.2362 5.91894 57.1201 6.56372 56.948C7.84834 56.6321 8.97794 55.864 9.74784 54.7827C10.2322 54.1202 10.4766 53.3109 10.4404 52.4894C10.4414 52.4336 10.4276 52.3786 10.4003 52.33C10.373 52.2814 10.3332 52.2411 10.2852 52.2132C9.47534 51.6016 8.72504 50.9142 8.04434 50.16C6.18561 48.1949 5.25823 45.7895 4.75275 43.188C4.46573 41.5406 4.4028 39.8615 4.56569 38.1971C4.81185 35.7106 5.30656 33.2555 6.04232 30.8688C6.69507 28.5315 7.51896 26.2421 8.21548 23.9168C8.7727 22.0597 9.19062 20.1546 9.86724 18.3335C10.6314 16.2763 11.5588 14.2872 13.0155 12.6262C15.2386 9.98626 18.2762 8.1702 21.6445 7.46719C22.8922 7.23787 24.1543 7.09611 25.4217 7.04294C27.0074 6.96278 28.5967 6.99488 30.1779 7.13899C32.8924 7.32437 35.5105 8.22541 37.7687 9.75145C40.0269 11.2775 41.8456 13.3747 43.0418 15.8321C44.0064 17.8315 44.7524 19.9304 45.2667 22.0917C45.9712 24.7252 46.9025 27.2947 47.6786 29.9002C48.3051 31.939 48.8114 34.0132 49.1951 36.1119C49.4949 37.8435 49.5911 39.6046 49.4816 41.3589C49.3481 44.181 48.4084 46.9046 46.7751 49.2035C45.9339 50.349 44.9169 51.3528 43.7622 52.1772C43.6829 52.2274 43.6195 52.2992 43.5794 52.3842C43.5392 52.4693 43.5239 52.5641 43.5353 52.6575C43.5759 53.3205 43.7676 53.9652 44.0954 54.5419C44.4232 55.1186 44.8784 55.6118 45.4259 55.9834C46.2851 56.5917 47.2753 56.9867 48.3155 57.1361C49.4578 57.3442 50.608 57.5924 51.4996 58.4129C52.4488 59.2206 53.0752 60.3466 53.2628 61.5827C53.3904 62.3475 53.3189 63.1325 53.0553 63.8612C52.7916 64.5899 52.3448 65.2376 51.7583 65.7411C51.6468 65.8412 51.5951 65.9773 51.4956 66.0813C51.3961 66.1854 51.4239 66.2694 51.4956 66.3775C51.8419 66.7777 52.1921 67.178 52.5185 67.5782C53.1666 68.4842 53.5909 69.5324 53.7563 70.636C53.9609 71.5642 54.0372 72.5164 53.9832 73.4656C53.8697 75.1179 53.5706 76.7519 53.0916 78.3365C53.0535 78.5236 52.992 78.7052 52.9085 78.8768C52.8608 78.9528 52.8011 79.0209 52.6976 78.9928C52.5941 78.9648 52.622 78.8768 52.614 78.8007C52.609 78.6373 52.6346 78.4743 52.6896 78.3204C53.0063 77.1098 53.26 75.8835 53.4498 74.6463C53.6298 73.3299 53.5718 71.9917 53.2787 70.696C53.1823 70.159 53.0357 69.6324 52.8409 69.1231C52.2673 67.8509 51.401 66.7342 50.3135 65.8652C50.0185 65.6791 49.6646 65.6119 49.3224 65.6771C48.2106 65.7081 47.1269 66.0354 46.1821 66.6256C45.4993 67.0663 44.6714 67.2187 43.8776 67.0499C43.3841 66.9538 42.8826 66.8978 42.389 66.8017C41.13 66.5983 39.8398 66.7365 38.6517 67.202C38.1462 67.3701 37.6526 67.5622 37.1352 67.7023C36.9434 67.7623 36.738 67.7623 36.5462 67.7023C35.8335 67.4577 35.0923 67.307 34.3412 67.254C33.4427 67.1968 32.5439 67.3602 31.7222 67.7303C31.2725 67.9304 30.8108 68.1305 30.369 68.3386C29.3644 68.8232 28.2327 68.9745 27.1371 68.7709C26.947 68.7518 26.7552 68.7612 26.5679 68.7989C25.4073 68.9553 24.2271 68.7381 23.1968 68.1785C22.5073 67.808 21.7728 67.5295 21.0117 67.3501C19.9575 67.1522 18.8705 67.2307 17.8554 67.5782C17.3234 67.7615 16.7441 67.7502 16.2196 67.5462C15.4434 67.2369 14.6434 66.9919 13.8275 66.8137C12.9978 66.6861 12.1527 66.701 11.328 66.8578C10.7628 66.9418 10.2095 67.0939 9.63639 67.1259C9.05248 67.1721 8.46895 67.0321 7.96871 66.7257C7.17062 66.2146 6.27157 65.8841 5.33386 65.7571C4.90949 65.6926 4.47841 65.6859 4.05225 65.7371C3.80823 65.7886 3.58587 65.9143 3.41542 66.0973C1.81729 67.4583 0.802321 69.3863 0.581561 71.4805C0.438349 72.5558 0.430327 73.645 0.557682 74.7224C0.736788 75.923 1.0154 77.1237 1.30595 78.3244C1.34177 78.4805 1.36963 78.6406 1.39351 78.8007C1.39351 78.8768 1.39351 78.9608 1.30595 78.9928C1.26425 79.0055 1.21929 79.0013 1.18063 78.9811C1.14197 78.9609 1.11268 78.9263 1.09898 78.8848C1.04326 78.7567 0.987535 78.6246 0.943753 78.4845C0.536637 77.1804 0.254096 75.8403 0.0999641 74.4822C-0.152847 72.5722 0.0757125 70.6289 0.764648 68.8309C1.1348 67.8744 1.83133 67.1579 2.47611 66.4015L2.61144 66.2414ZM40.0527 37.9249C40.097 37.9152 40.1409 37.9032 40.184 37.8889C40.4155 37.7608 40.6103 37.5749 40.7497 37.3492C40.8891 37.1235 40.9684 36.8656 40.98 36.6002C41.1233 35.4275 41.2467 34.2548 41.2905 33.0781C41.3796 31.0457 41.1894 29.0107 40.7253 27.0306C39.9571 23.8767 38.4765 21.1511 35.9173 19.106C33.3456 17.0655 30.1739 15.9396 26.8983 15.9041C25.621 15.9126 24.3531 16.1233 23.141 16.5285C19.6743 17.537 16.9161 19.5062 15.0454 22.648C13.4971 25.2455 12.8762 28.1032 12.7409 31.0849C12.6803 33.0523 12.7935 35.0211 13.0792 36.9684C13.1405 37.1861 13.2549 37.3851 13.412 37.5473C13.569 37.7094 13.7638 37.8296 13.9787 37.8969C13.9787 37.8689 13.9787 37.8409 13.9787 37.8169C13.8125 37.0706 13.6876 36.3157 13.6046 35.5555C13.6046 35.4275 13.529 35.2233 13.7399 35.2033C13.9509 35.1833 13.927 35.3714 13.9469 35.5155C14.0653 36.4147 14.23 37.3071 14.4404 38.1891C14.9646 40.3595 15.9808 42.3785 17.4096 44.0885C18.5916 45.6246 19.9579 47.0079 21.4773 48.2069C22.5568 49.0669 23.8336 49.6407 25.1908 49.8759C26.0766 49.9859 26.9702 50.018 27.8615 49.9719C29.038 49.9552 30.1931 49.6531 31.2287 49.0914C32.4565 48.403 33.5753 47.5343 34.5481 46.5139C35.3442 45.7135 36.0447 44.873 36.7491 44.0085C37.8879 42.6055 38.7535 40.9992 39.3004 39.2737C39.673 38.0205 39.9393 36.7379 40.0965 35.4395C40.1164 35.3034 40.1402 35.1753 40.3074 35.1993C40.4746 35.2234 40.4547 35.3634 40.4387 35.4755C40.3989 35.8197 40.3552 36.1599 40.2994 36.5001C40.2358 36.9684 40.1442 37.4326 40.0527 37.9249ZM49.5055 65.3049C49.3312 65.1852 49.1409 65.0909 48.9403 65.0247C47.2169 64.3323 45.394 64.0121 43.6149 63.5198C41.8358 63.0275 40.1283 62.5112 38.5721 61.5187C36.783 60.4247 35.4451 58.7199 34.8029 56.7159C34.2037 54.8337 33.8858 52.8725 33.8596 50.8965C33.8397 49.8158 33.8237 48.7352 33.8914 47.6346C33.5372 47.9187 33.2028 48.1989 32.8566 48.4671C31.309 49.7351 29.3548 50.3925 27.36 50.3161C27.2281 50.298 27.0951 50.2899 26.962 50.2921C26.2222 50.3591 25.4768 50.3173 24.749 50.1681C23.4594 49.8878 22.2514 49.3126 21.2186 48.4871C20.8604 48.2229 20.5221 47.9387 20.1599 47.6466C20.1483 47.8993 20.1603 48.1526 20.1957 48.403C20.1957 49.3916 20.1957 50.3802 20.1559 51.3688C20.0879 52.8619 19.8733 54.3446 19.5151 55.7953C18.7191 59.0532 16.6773 61.1705 13.6723 62.4312C12.3958 62.9556 11.0794 63.3758 9.7359 63.6879C8.20823 64.0066 6.70417 64.4305 5.23435 64.9567C4.98409 65.039 4.74483 65.1519 4.52191 65.2929C5.01771 65.298 5.512 65.3489 5.99854 65.4449C6.72016 65.5864 7.41049 65.8575 8.03637 66.2454C8.59193 66.5924 9.25338 66.726 9.89908 66.6216C10.3727 66.5416 10.8384 66.4455 11.3081 66.3695C12.2652 66.1854 13.2484 66.1854 14.2056 66.3695C15.0932 66.5616 15.933 66.8938 16.7967 67.17C17.0022 67.2381 17.224 67.2381 17.4295 67.17C18.7817 66.7011 20.2397 66.6344 21.6286 66.9778C22.4463 67.2518 23.2442 67.5821 24.0167 67.9664C24.8371 68.3169 25.737 68.4359 26.6197 68.3106C26.8838 68.275 27.1515 68.275 27.4157 68.3106C27.9846 68.3862 28.5621 68.3632 29.1232 68.2426C29.859 68.046 30.5696 67.7639 31.2406 67.4021C32.7141 66.6779 34.404 66.5351 35.977 67.0019C36.6742 67.225 37.4296 67.1735 38.0905 66.8578C38.1326 66.8376 38.1766 66.8215 38.2218 66.8097C39.2455 66.4082 40.335 66.2032 41.4338 66.2054C42.2046 66.2438 42.9704 66.351 43.7224 66.5256C44.1145 66.6317 44.5242 66.6559 44.926 66.5967C45.3278 66.5375 45.7133 66.3962 46.0587 66.1814C46.3943 65.9777 46.7489 65.8074 47.1174 65.6731C47.8887 65.4224 48.695 65.2981 49.5055 65.3049ZM12.6334 36.1199C12.5618 35.4755 12.4703 34.8311 12.4265 34.1827C12.3489 33.0234 12.3489 31.8601 12.4265 30.7007C12.5094 29.181 12.7644 27.6757 13.1867 26.2141C14.4922 21.8356 17.123 18.6097 21.342 16.7766C23.0548 16.0794 24.8621 15.645 26.7033 15.4879C27.4675 15.4038 28.2117 15.644 28.9719 15.688C29.4098 15.716 29.8436 15.724 30.2814 15.796C31.2088 15.9521 32.1003 16.2603 33.0237 16.4404C33.3468 16.5164 33.6855 16.489 33.9924 16.362C34.2992 16.235 34.5589 16.0147 34.7352 15.732C34.8806 15.5065 34.9776 15.253 35.0201 14.9877C35.0626 14.7224 35.0496 14.4511 34.982 14.1911C34.8868 13.6408 34.6628 13.1212 34.3286 12.6751C33.9943 12.2291 33.5593 11.8693 33.0596 11.6256C31.2092 10.7321 29.1818 10.271 27.1291 10.2768C25.3841 10.2507 23.6499 10.5577 22.0186 11.1813C19.0631 12.3653 16.5162 14.3923 14.6912 17.0127C11.9624 20.6971 10.6212 25.2352 10.9061 29.8202C10.9853 31.1004 11.2124 32.367 11.5827 33.5944C11.8346 34.4742 12.1873 35.3217 12.6334 36.1199ZM33.0795 16.9087C33.171 16.9567 33.2586 17.0047 33.3501 17.0448C34.5779 17.6263 35.7127 18.3885 36.7173 19.3061C39.2686 21.6434 40.6736 24.6012 41.3263 27.9631C41.5198 29.0075 41.6422 30.0639 41.6925 31.125C41.7523 32.3815 41.7124 33.6409 41.5731 34.8911C41.5333 35.2914 41.4895 35.6916 41.4417 36.1159C41.4667 36.0986 41.4906 36.0799 41.5134 36.0598C41.5452 35.9998 41.5811 35.9438 41.6089 35.8837C42.6376 33.6868 43.1808 31.2918 43.201 28.8636C43.2221 27.4459 43.0724 26.0308 42.7552 24.6492C41.8495 20.2118 39.4222 16.2354 35.8974 13.4146C35.5062 13.0857 35.0821 12.7987 34.6317 12.5582C34.9801 13.085 35.2147 13.6795 35.3203 14.3032C35.4113 14.7619 35.3533 15.2379 35.1548 15.6609C34.9563 16.0839 34.6278 16.4316 34.2178 16.6525C33.8552 16.8141 33.4641 16.9012 33.0675 16.9087H33.0795ZM43.6666 51.825C44.2576 51.373 44.8089 50.8709 45.3144 50.3241C46.5293 49.1489 47.4394 47.6923 47.9652 46.0817C48.3178 44.8698 48.5393 43.6232 48.6259 42.3635C48.7156 41.2817 48.6876 40.1933 48.5423 39.1176C48.34 37.8818 48.0555 36.661 47.6906 35.4635C47.5528 34.9359 47.369 34.4216 47.1413 33.9266C47.1276 33.9939 47.1276 34.0634 47.1413 34.1307C47.2454 34.6956 47.3158 35.2663 47.3523 35.8397C47.45 37.2961 47.39 38.7589 47.1732 40.2023C46.9158 41.9741 46.4879 43.7166 45.8955 45.4053C45.3463 47.0062 44.602 48.5551 44.1164 50.1881C43.9347 50.7254 43.7806 51.2718 43.6547 51.825H43.6666ZM10.4245 51.845C10.2294 51.0205 9.99063 50.2681 9.74784 49.5157C9.29012 48.1109 8.64136 46.7821 8.17966 45.3853C7.35649 43.0268 6.86484 40.5642 6.71895 38.069C6.67168 36.9867 6.71428 35.9023 6.84631 34.8271C6.88611 34.5149 6.92193 34.2068 6.95775 33.8946C6.66734 34.5602 6.43043 35.2481 6.24929 35.9518C5.83536 37.2758 5.56186 38.6402 5.43336 40.0221C5.35713 41.3448 5.42251 42.6719 5.62839 43.9804C5.89401 46.1629 6.82883 48.208 8.30305 49.8319C8.9507 50.5594 9.65619 51.2327 10.4125 51.845H10.4245ZM52.1046 64.9366C52.118 64.9331 52.1303 64.9262 52.1404 64.9166C52.1729 64.8821 52.2022 64.8446 52.2279 64.8046C52.8346 63.9103 53.1003 62.8261 52.9762 61.7508C52.8799 60.8976 52.5471 60.0887 52.0158 59.4165C51.4845 58.7442 50.776 58.2356 49.9712 57.9486C49.0024 57.6428 48.0108 57.4152 47.006 57.2682C47.2078 57.4052 47.4178 57.5295 47.6349 57.6404C48.5189 58.0561 49.3403 58.595 50.0747 59.2413C50.8632 59.9411 51.462 60.8308 51.8149 61.827C52.1679 62.8232 52.2634 63.8932 52.0926 64.9366H52.1046ZM7.06124 57.3002C6.19755 57.4683 5.33784 57.6044 4.49007 57.8125C2.1776 58.3888 0.314891 61.1544 1.34575 63.796C1.49639 64.2311 1.71984 64.6372 2.00645 64.9967C1.91481 64.5855 1.86942 64.1653 1.87113 63.7439C1.91865 62.5694 2.28477 61.4304 2.92985 60.45C3.70524 59.3337 4.75771 58.441 5.98262 57.8605C6.33685 57.6924 6.69507 57.4923 7.06124 57.3002ZM4.97166 41.2909L5.0035 41.3189V40.0101H4.97166V41.2909Z" fill="#493826"/>
<path d="M22.5239 31.3805C22.4762 32.5492 21.4891 33.1815 20.4304 33.1255C19.4592 33.0735 18.4841 32.4051 18.5756 31.1764C18.1308 31.2828 17.6691 31.2978 17.2184 31.2204C16.7774 31.1264 16.3782 30.892 16.0801 30.552C16.1836 30.4319 16.2831 30.488 16.3746 30.552C16.6629 30.6848 16.9855 30.7227 17.2964 30.6602C17.6074 30.5976 17.8907 30.4379 18.106 30.2038C18.3744 29.9447 18.6708 29.7164 18.9896 29.5234C19.4317 29.2514 19.9399 29.1074 20.4582 29.1074C20.9766 29.1074 21.4848 29.2514 21.9269 29.5234C21.9755 29.5419 22.0175 29.5747 22.0473 29.6175C22.0771 29.6604 22.0934 29.7113 22.0941 29.7635C20.9319 29.2993 19.7975 29.1312 18.6911 30.0077C19.0373 29.9637 19.3159 29.8756 19.6105 29.8436C20.6887 29.7653 21.7541 30.1177 22.5757 30.8242C22.7891 30.986 22.9875 31.1669 23.1687 31.3645C23.2071 31.3951 23.2336 31.4383 23.2438 31.4865C23.2539 31.5347 23.2471 31.5849 23.2244 31.6286C23.1528 31.7567 23.0533 31.6566 22.9777 31.6286C22.8304 31.5526 22.6951 31.4685 22.5239 31.3805ZM19.4513 32.333C20.0403 32.8854 21.1309 32.8654 21.5448 32.3851C20.8737 32.1261 20.1343 32.1077 19.4513 32.333Z" fill="#493826"/>
<path d="M37.9542 30.5204C37.588 31.0607 36.7601 31.4489 35.4706 31.1767C35.5049 31.4531 35.468 31.7337 35.3635 31.9916C35.2589 32.2496 35.0902 32.4761 34.8735 32.6496C34.5255 32.9379 34.094 33.105 33.6437 33.1259C33.1274 33.1716 32.6119 33.0296 32.1909 32.7256C31.9896 32.5689 31.824 32.3707 31.7052 32.1443C31.5864 31.9178 31.5173 31.6684 31.5024 31.4129L31.0446 31.645C30.973 31.677 30.8894 31.7491 30.8217 31.645C30.7541 31.5409 30.8217 31.4809 30.8615 31.4089C31.0683 31.1568 31.3111 30.937 31.582 30.7565C32.3652 30.115 33.3598 29.7935 34.3681 29.856C34.7087 29.8965 35.0464 29.9593 35.379 30.0441C34.9034 29.6348 34.3013 29.4042 33.6755 29.3917C33.0795 29.4121 32.4929 29.548 31.9481 29.7919C31.9481 29.5958 32.1034 29.5558 32.2108 29.4958C33.4049 28.8514 34.7143 29.0635 35.7929 30.0721C35.9745 30.2568 36.1825 30.4132 36.4099 30.5364C36.5907 30.6385 36.7927 30.6971 36.9999 30.7075C37.2071 30.718 37.4138 30.6799 37.6039 30.5964C37.7074 30.5204 37.8149 30.4283 37.9542 30.5204ZM32.4695 32.3934C32.7743 32.6339 33.153 32.7599 33.5403 32.7497C33.9275 32.7395 34.2991 32.5937 34.5909 32.3374C33.8991 32.1056 33.1483 32.1254 32.4695 32.3934Z" fill="#493826"/>
<path d="M29.604 27.9507C29.8468 27.4424 30.2846 27.3743 30.6826 27.2342C31.9281 26.75 33.2562 26.5174 34.5912 26.5499C35.0389 26.5615 35.4767 26.6853 35.8648 26.9101C36.6091 27.3503 37.3812 27.7466 38.1016 28.2308C38.1295 28.2308 38.1574 28.2789 38.1932 28.3109C37.5888 28.2335 36.9903 28.1145 36.4021 27.9547C35.4287 27.7326 34.4182 27.7326 33.4449 27.9547C31.9934 28.2873 30.5797 28.7688 29.2259 29.3915C29.0906 29.4475 28.9592 29.5316 28.8279 29.3915C28.6966 29.2514 28.4737 29.1474 28.6249 28.8672C28.8159 28.4722 29.034 28.0911 29.2777 27.7265C29.3453 27.6305 29.409 27.5144 29.5483 27.5624C29.6876 27.6105 29.5881 27.7586 29.604 27.9507Z" fill="#493826"/>
<path d="M15.9404 28.2709C16.5255 27.8227 17.1982 27.5385 17.7832 27.1223C18.6629 26.5019 19.642 26.4859 20.637 26.5739C21.6671 26.6985 22.6778 26.9513 23.646 27.3264C23.8146 27.356 23.9733 27.427 24.108 27.5331C24.2427 27.6393 24.3492 27.7772 24.4181 27.9347C24.4619 27.7626 24.3107 27.6186 24.4818 27.5545C24.653 27.4905 24.7087 27.6386 24.7724 27.7346C25.0301 28.091 25.2426 28.4782 25.4052 28.8873C25.441 28.9793 25.5644 29.1394 25.4052 29.1875C25.246 29.2355 25.1784 29.5877 24.8361 29.4156C24.0479 29.0401 23.2385 28.7114 22.4121 28.431C21.3536 28.0591 20.2482 27.8395 19.1285 27.7786C18.4439 27.7639 17.7621 27.8709 17.1146 28.0948C16.7313 28.1989 16.3373 28.258 15.9404 28.2709Z" fill="#493826"/>
<path d="M27.3594 45.1732C27.045 45.0371 26.631 45.2813 26.233 45.1332C26.1972 45.1332 26.1534 45.1332 26.1216 45.1132C25.9982 45.0411 25.7753 45.0251 25.8191 44.833C25.8629 44.6409 26.0738 44.7289 26.2171 44.745C26.7556 44.801 27.2985 44.801 27.837 44.745C27.9644 44.745 28.1594 44.6409 28.2151 44.817C28.2709 44.9931 28.0599 45.0531 27.9286 45.1052C27.7482 45.1781 27.5518 45.2016 27.3594 45.1732Z" fill="#493826"/>
<path d="M33.3062 13.4062C33.4256 13.4743 33.6524 13.4063 33.6803 13.6464C33.6848 13.6709 33.6827 13.6961 33.6742 13.7195C33.6658 13.7429 33.6513 13.7637 33.6323 13.7796C33.6132 13.7955 33.5903 13.806 33.5658 13.81C33.5414 13.814 33.5163 13.8114 33.4932 13.8025C33.334 13.7544 33.0952 13.8025 33.0634 13.5583C33.0395 13.4143 33.1708 13.4062 33.3062 13.4062Z" fill="#493826"/>
<path d="M33.4655 14.2152C33.3381 14.2152 33.171 14.2152 33.167 14.0191C33.167 13.875 33.2824 13.863 33.3939 13.871C33.5053 13.879 33.7043 13.871 33.7282 14.0671C33.7521 14.2632 33.5929 14.2112 33.4655 14.2152Z" fill="#493826"/>
<path d="M33.4456 14.676C33.3382 14.676 33.2188 14.676 33.2188 14.5319C33.2188 14.3878 33.362 14.3518 33.4854 14.3398C33.6088 14.3278 33.7163 14.3718 33.7163 14.4919C33.7163 14.6119 33.5809 14.676 33.4456 14.676Z" fill="#493826"/>
</g>
</svg>
