<svg width="54" height="54" viewBox="0 0 54 54" fill="none" xmlns="http://www.w3.org/2000/svg">
<circle cx="27" cy="27" r="27" fill="#FBEBF2"/>
<mask id="mask0_59_6990" style="mask-type:alpha" maskUnits="userSpaceOnUse" x="0" y="0" width="54" height="54">
<circle cx="27" cy="27" r="27" fill="#FBEBF2"/>
</mask>
<g mask="url(#mask0_59_6990)">
<path d="M35.8862 18.9992C33.2696 17.0497 31.6339 16.3607 28.3862 15.9997C26.9396 15.5257 25.8887 15.6288 23.8862 15.9992C20.833 16.9593 19.6035 17.6392 17.8862 18.9992C16.4118 20.1652 15.7657 20.9587 14.8862 22.4992L13.3862 25.4988L12.8862 27.9988C12.264 30.9591 12.2391 32.8752 12.8862 36.9992L14.8862 40.9992L18.8862 46.4992C20.946 48.7585 22.2899 49.369 25.3862 49.999C27.6174 50.1178 28.7949 50.3619 30.8862 49.4992C33.2993 47.991 34.5073 46.9026 36.3862 44.4992L40.8862 37.4992L41.3862 31.9992C41.3225 29.1589 41.0415 27.5329 39.8862 24.4992C38.6801 21.7233 37.7258 20.6549 35.8862 18.9992Z" fill="#F6D4C2"/>
<path d="M20.8894 25.6841C19.844 25.572 18.7588 25.9482 17.6656 26.2843C17.2039 26.4298 16.7304 26.5343 16.2505 26.5964C16.111 26.6135 15.9696 26.6004 15.8355 26.558C15.7015 26.5156 15.5781 26.4448 15.4734 26.3505C15.3688 26.2562 15.2854 26.1404 15.2288 26.011C15.1722 25.8815 15.1438 25.7414 15.1454 25.6C15.117 25.2364 15.1658 24.8709 15.2885 24.5277C15.5609 23.7688 15.9647 23.0644 16.481 22.4471C18.3152 20.0834 20.8468 18.3659 23.7118 17.5416C24.3242 17.3631 24.9584 17.2716 25.596 17.2695C26.391 17.2695 27.1463 17.2695 27.9175 17.2695C29.2347 17.2674 30.5381 17.5399 31.7455 18.0698C34.1204 19.0625 36.1886 20.6759 37.736 22.7432C38.2742 23.4084 38.6476 24.1928 38.8252 25.0319C38.8912 25.3431 38.8664 25.6669 38.7536 25.9642C38.6886 26.1872 38.5411 26.3767 38.3414 26.4936C38.1417 26.6104 37.9051 26.6458 37.6804 26.5923C36.9025 26.4592 36.1368 26.2624 35.3907 26.0042C33.5298 25.4627 31.543 25.5584 29.742 26.2763C29.1869 26.5069 28.7442 26.9481 28.5098 27.5046C28.0256 28.5244 27.9144 29.6834 28.1957 30.7776C28.3921 31.4977 28.8394 32.1227 29.4558 32.5381C30.4973 33.3092 31.742 33.7533 33.0334 33.8145C33.7152 33.8986 34.4032 33.9187 35.0886 33.8745C35.5974 33.8145 36.1022 33.7065 36.615 33.6785C38.0818 33.6025 39.0001 34.3987 39.0001 35.8671C38.9707 37.6647 38.5141 39.4291 37.6684 41.0127C36.7535 42.8251 35.5152 44.4527 34.0153 45.8141C33.2285 46.5702 32.3786 47.2569 31.4752 47.8668C30.361 48.579 29.0842 48.9922 27.7664 49.0671C26.6614 49.1548 25.5497 49.0602 24.475 48.787C23.32 48.446 22.2525 47.8562 21.3466 47.0585C19.4408 45.5711 17.8318 43.7342 16.6043 41.6449C15.9743 40.5195 15.5148 39.3057 15.2408 38.0438C15.0461 37.3334 14.9458 36.6001 14.9427 35.8631C14.932 35.5542 14.9893 35.2466 15.1103 34.9625C15.2314 34.6783 15.4133 34.4246 15.643 34.2194C15.8727 34.0141 16.1446 33.8625 16.4392 33.7752C16.7339 33.6879 17.0441 33.6672 17.3476 33.7145C17.9717 33.7705 18.5958 33.9106 19.2199 33.9186C21.128 33.9386 23.0002 33.7665 24.5784 32.5141C24.999 32.2109 25.3397 31.809 25.5711 31.3432C25.8024 30.8775 25.9174 30.3619 25.906 29.8413C25.9335 29.1221 25.8159 28.4048 25.5602 27.7327C25.4149 27.3431 25.1788 26.9943 24.8716 26.7158C24.5645 26.4373 24.1953 26.2371 23.7953 26.1322C23.3262 26.0082 22.8691 25.8481 22.392 25.7561C21.8945 25.6845 21.3914 25.6604 20.8894 25.6841Z" fill="#D5D9F2"/>
<path d="M22.7743 31.178C22.6633 31.0093 22.4928 30.8892 22.2973 30.8419C21.5023 30.5458 20.6636 30.3418 19.8646 30.0417C19.7581 30.0018 19.641 30.0018 19.5346 30.0417C19.2869 30.1074 19.047 30.2 18.8191 30.3178C18.7451 30.3607 18.668 30.3982 18.5885 30.4298C18.5225 30.4609 18.4482 30.4699 18.3767 30.4555C18.3052 30.4411 18.2401 30.4041 18.191 30.3498C18.0996 30.2177 18.2626 30.1217 18.354 30.0617C18.7658 29.7608 19.2361 29.5507 19.7341 29.4452C20.2321 29.3397 20.7465 29.3412 21.2439 29.4495C22.0008 29.5967 22.6748 30.0253 23.1321 30.6499C23.2832 30.8659 23.4819 31.05 23.6529 31.2581C23.7324 31.3501 23.8357 31.4421 23.7642 31.5862C23.6926 31.7302 23.5813 31.6982 23.466 31.7022C23.247 31.7083 23.0291 31.6688 22.826 31.5862C22.5756 31.4741 22.5597 31.3701 22.7743 31.178Z" fill="#F6D4C2"/>
<path d="M31.1649 31.1765C31.3677 31.3886 31.3478 31.4726 31.0576 31.5766C30.8339 31.6591 30.5958 31.6945 30.358 31.6807C30.1632 31.6607 30.032 31.5286 30.1632 31.3766C30.7833 30.6804 31.2643 29.8401 32.2581 29.536C32.7619 29.3763 33.2932 29.3241 33.8182 29.3827C34.3431 29.4412 34.8502 29.6093 35.307 29.8761C35.385 29.9142 35.4583 29.9612 35.5256 30.0162C35.621 30.1042 35.8238 30.1922 35.7125 30.3443C35.6555 30.4017 35.5809 30.4381 35.5009 30.4476C35.4208 30.457 35.3398 30.4389 35.2712 30.3963C35.0694 30.2911 34.8625 30.1963 34.6511 30.1122C34.406 30.0142 34.133 30.0142 33.8879 30.1122C33.228 30.3523 32.5403 30.5123 31.9003 30.7724C31.63 30.8724 31.2683 30.8044 31.1649 31.1765Z" fill="#F6D4C2"/>
<path d="M2.61267 66.228C2.48316 65.9931 2.31822 65.7798 2.12373 65.5958C1.46924 64.9687 1.01333 64.161 0.813194 63.2741C0.613059 62.3871 0.677617 61.4604 0.998769 60.6103C1.67057 58.9498 2.79155 57.8095 4.57638 57.3773C5.2442 57.2213 5.91997 57.1052 6.56394 56.9332C7.8462 56.6181 8.97418 55.8517 9.74404 54.7725C10.2267 54.1081 10.4706 53.2982 10.4357 52.4759C10.4359 52.4202 10.4217 52.3655 10.3946 52.3171C10.3674 52.2687 10.3281 52.2283 10.2807 52.1998C9.47096 51.5895 8.7215 50.9021 8.04269 50.1472C6.18631 48.1826 5.2601 45.7778 4.75129 43.1771C4.46802 41.531 4.40651 39.8541 4.56843 38.1916C4.81389 35.7045 5.30798 33.2486 6.0432 30.8614C6.69115 28.5246 7.51797 26.24 8.21362 23.9113C8.77014 22.0547 9.18753 20.1541 9.8633 18.3096C10.6265 16.253 11.5527 14.2644 13.0076 12.6039C15.2301 9.96729 18.2629 8.15232 21.6257 7.44631C22.8775 7.22281 24.1434 7.08777 25.414 7.04219C27.0043 6.96313 28.5982 6.99521 30.1841 7.13822C32.8952 7.32354 35.51 8.22433 37.7654 9.74994C40.0207 11.2756 41.8371 13.3722 43.0317 15.8288C43.9934 17.8285 44.7384 19.9265 45.2538 22.0867C45.9574 24.7195 46.8876 27.2883 47.6628 29.8931C48.2884 31.9313 48.7941 34.0048 49.1773 36.1029C49.4767 37.8341 49.5728 39.5947 49.4635 41.3485C49.3295 44.1709 48.3911 46.8949 46.7604 49.1949C45.9201 50.3388 44.9043 51.341 43.7512 52.1638C43.6721 52.2139 43.6088 52.2857 43.5687 52.3707C43.5286 52.4557 43.5133 52.5505 43.5247 52.6439C43.5643 53.3069 43.7553 53.9518 44.0828 54.5285C44.4103 55.1051 44.8654 55.598 45.4128 55.9689C46.2701 56.5786 47.2594 56.9736 48.2988 57.1213C49.4396 57.3293 50.5885 57.5774 51.4789 58.3976C52.4328 59.2087 53.0592 60.3429 53.2399 61.5866C53.3686 62.3508 53.2982 63.1356 53.0355 63.8643C52.7728 64.5929 52.3269 65.2405 51.7412 65.7438C51.6299 65.8439 51.5783 65.9799 51.4789 66.0839C51.3795 66.188 51.4073 66.276 51.4988 66.38C51.8446 66.7802 52.1944 67.1803 52.5204 67.5804C53.1676 68.4862 53.5914 69.534 53.7566 70.6373C53.9609 71.5653 54.0372 72.5172 53.9832 73.4662C53.8702 75.118 53.5715 76.7516 53.0928 78.3356C53.0552 78.5234 52.9923 78.7051 52.9059 78.8758C52.8622 78.9518 52.8026 79.0198 52.6992 78.9918C52.5959 78.9638 52.6237 78.8758 52.6158 78.7998C52.6107 78.6364 52.6364 78.4735 52.6913 78.3196C53.0075 77.1094 53.261 75.8833 53.4505 74.6465C53.6283 73.3304 53.5704 71.9929 53.2796 70.6973C52.9596 68.759 51.8961 67.0247 50.3181 65.8679C50.0222 65.6816 49.6673 65.6144 49.3244 65.6798C48.2153 65.7115 47.1344 66.0387 46.192 66.6281C45.8551 66.8481 45.4783 66.9988 45.0833 67.0716C44.6883 67.1444 44.2828 67.1378 43.8904 67.0522C43.3975 66.9562 42.8966 66.9042 42.4037 66.8042C41.1461 66.6048 39.8586 66.7429 38.671 67.2043C38.1662 67.3723 37.6733 67.5684 37.1565 67.7044C36.9649 67.7644 36.7598 67.7644 36.5682 67.7044C35.8559 67.4618 35.1159 67.3112 34.366 67.2563C33.4686 67.1991 32.5709 67.3625 31.7503 67.7324C31.2972 67.9325 30.84 68.1326 30.3988 68.3446C29.3947 68.8266 28.2653 68.9778 27.171 68.7768C26.9813 68.7537 26.7891 68.7631 26.6025 68.8048C25.4434 68.957 24.266 68.7401 23.2356 68.1846C22.5477 67.8118 21.8139 67.5319 21.0533 67.3523C20.0005 67.1545 18.9148 67.233 17.901 67.5804C17.37 67.7661 16.7906 67.7548 16.2672 67.5484C15.47 67.237 14.6482 66.9934 13.8106 66.8202C12.982 66.6926 12.1379 66.7075 11.3142 66.8642C10.7498 66.9482 10.1972 67.1003 9.62479 67.1323C9.04048 67.1768 8.4569 67.037 7.95524 66.7321C7.16099 66.2177 6.26386 65.8857 5.32768 65.7598C4.90252 65.6952 4.47066 65.6885 4.04372 65.7398C3.80122 65.7939 3.58078 65.9209 3.41167 66.1039C1.81515 67.4625 0.801247 69.3889 0.58138 71.4816C0.438348 72.5566 0.430336 73.6455 0.55753 74.7225C0.736411 75.9229 1.01467 77.1233 1.30088 78.3236C1.33937 78.4807 1.36989 78.6396 1.39231 78.7998C1.39231 78.8758 1.39231 78.9638 1.30486 78.9918C1.28424 78.9986 1.26249 79.0012 1.24086 78.9995C1.21924 78.9977 1.19819 78.9916 1.17894 78.9815C1.15969 78.9715 1.14262 78.9577 1.12875 78.9409C1.11487 78.9241 1.10447 78.9047 1.09815 78.8838C1.0425 78.7558 0.986844 78.6237 0.943118 78.4837C0.536116 77.18 0.253924 75.8402 0.100393 74.4825C-0.153549 72.5674 0.0761295 70.6188 0.768211 68.8168C1.1379 67.8605 1.83355 67.1443 2.47752 66.388L2.61267 66.228ZM40.0106 37.9155C40.0554 37.9077 40.0993 37.8956 40.1418 37.8795C40.373 37.7514 40.5675 37.5656 40.7068 37.34C40.846 37.1143 40.9252 36.8564 40.9368 36.5911C41.0799 35.4187 41.2032 34.2504 41.2469 33.074C41.3361 31.0409 41.1462 29.0051 40.6824 27.0242C39.9152 23.8713 38.4325 21.1464 35.8805 19.1018C33.312 17.062 30.1444 15.9363 26.8729 15.9009C25.5974 15.9113 24.3313 16.1219 23.1203 16.525C19.658 17.5373 16.9032 19.5019 15.031 22.6429C13.4886 25.2397 12.8685 28.0965 12.7333 31.0814C12.6736 33.0467 12.7854 35.0135 13.0672 36.9592C13.1285 37.1769 13.2427 37.3758 13.3996 37.5379C13.5564 37.7 13.751 37.8202 13.9656 37.8875C13.9677 37.8608 13.9677 37.8341 13.9656 37.8074C13.7977 37.0618 13.6729 36.307 13.592 35.5468C13.592 35.4187 13.5164 35.2147 13.7271 35.1987C13.9378 35.1827 13.9139 35.3627 13.9338 35.5068C14.0531 36.4084 14.2161 37.2993 14.4228 38.1796C14.9409 40.347 15.9458 42.366 17.3604 44.0813C18.5473 45.6154 19.9171 46.9969 21.4389 48.1946C22.517 49.0543 23.7922 49.628 25.1476 49.8631C26.0321 49.975 26.9248 50.0072 27.815 49.9591C28.9894 49.9418 30.1427 49.6413 31.1779 49.0828C32.4021 48.3898 33.519 47.5204 34.4932 46.5021C35.2882 45.7018 35.9878 44.8616 36.6874 44.0013C37.8356 42.6001 38.7096 40.9926 39.2633 39.2639C39.6335 38.0106 39.8994 36.7284 40.0583 35.4307C40.0782 35.2947 40.1021 35.1666 40.269 35.1907C40.436 35.2147 40.4121 35.3547 40.4002 35.4707C40.3605 35.8108 40.3167 36.1509 40.2611 36.491C40.1895 36.9592 40.0981 37.4233 40.0106 37.9155ZM49.4516 65.2877C49.2774 65.1681 49.0874 65.0738 48.8871 65.0076C47.1659 64.3154 45.3453 63.9953 43.5684 63.5032C41.7915 63.011 40.0862 62.4949 38.5319 61.5026C36.7451 60.4089 35.4089 58.7046 34.7675 56.7011C34.1691 54.8195 33.8516 52.8589 33.8254 50.8834C33.8055 49.8031 33.7896 48.7227 33.8571 47.6224C33.5034 47.9065 33.1695 48.1866 32.8196 48.4546C31.2774 49.7204 29.3306 50.3788 27.3419 50.3072C27.2105 50.2857 27.0775 50.2763 26.9444 50.2792C26.2056 50.3461 25.4611 50.3043 24.7342 50.1552C23.4463 49.8773 22.2396 49.3035 21.2083 48.4787C20.8505 48.2106 20.5127 47.9265 20.1469 47.6384C20.1364 47.895 20.1483 48.1521 20.1827 48.4066C20.1827 49.3949 20.1827 50.3832 20.143 51.3755C20.0748 52.8669 19.8604 54.3479 19.503 55.7969C18.708 59.0578 16.6687 61.1705 13.6675 62.4348C12.3919 62.956 11.0773 63.3748 9.73609 63.6872C8.21036 64.0058 6.70819 64.4296 5.24023 64.9556C4.99021 65.0395 4.75128 65.1537 4.52868 65.2957C5.02374 65.2995 5.51739 65.3491 6.00345 65.4438C6.72365 65.5869 7.41281 65.8579 8.03871 66.244C8.59357 66.5908 9.25419 66.7244 9.89907 66.6201C10.3681 66.5401 10.8372 66.444 11.3063 66.368C12.2622 66.184 13.2442 66.184 14.2002 66.368C15.0866 66.5601 15.9254 66.8922 16.788 67.1683C16.9932 67.2364 17.2148 67.2364 17.42 67.1683C18.7705 66.6995 20.2266 66.6329 21.6138 66.9762C22.4298 67.2518 23.2266 67.582 23.9988 67.9645C24.8182 68.3149 25.717 68.4339 26.5986 68.3086C26.8624 68.273 27.1298 68.273 27.3936 68.3086C27.9615 68.3855 28.5383 68.3639 29.0989 68.2446C29.8334 68.0449 30.5429 67.7616 31.2137 67.4003C32.6853 66.6764 34.373 66.5336 35.9441 67.0002C36.6404 67.2233 37.3949 67.1718 38.0549 66.8562C38.0977 66.8378 38.1415 66.8217 38.1861 66.8082C39.2096 66.4106 40.2969 66.2058 41.394 66.204C42.1639 66.2437 42.9288 66.3522 43.6797 66.5281C44.0718 66.6324 44.4808 66.6553 44.8819 66.5955C45.2831 66.5357 45.6679 66.3943 46.0131 66.18C46.3483 65.9763 46.7024 65.8061 47.0705 65.6718C47.839 65.418 48.6427 65.2884 49.4516 65.2877ZM12.6141 36.1109C12.5425 35.4667 12.4511 34.8225 12.4074 34.1744C12.3299 33.0153 12.3299 31.8523 12.4074 30.6933C12.4883 29.1738 12.743 27.6687 13.1666 26.208C14.4705 21.8306 17.098 18.6057 21.3117 16.7731C23.0223 16.0761 24.8273 15.6418 26.6661 15.4847C27.4294 15.4007 28.1727 15.6448 28.932 15.6888C29.3695 15.6996 29.8061 15.7343 30.2398 15.7928C31.166 15.9529 32.0564 16.257 32.9786 16.437C33.3014 16.513 33.6396 16.4856 33.946 16.3586C34.2525 16.2316 34.5119 16.0114 34.6879 15.7288C34.8331 15.5034 34.9301 15.25 34.9725 14.9847C35.0149 14.7195 35.002 14.4482 34.9344 14.1883C34.8394 13.6382 34.6157 13.1187 34.2818 12.6728C33.948 12.2269 33.5136 11.8672 33.0144 11.6236C31.1664 10.7303 29.1416 10.2694 27.0915 10.2752C25.3585 10.2567 23.6377 10.5675 22.0192 11.1914C19.0588 12.3714 16.5074 14.3998 14.6811 17.0252C11.9552 20.7082 10.6156 25.2452 10.9008 29.829C10.9799 31.1089 11.2067 32.3751 11.5766 33.6022C11.8248 34.476 12.173 35.3179 12.6141 36.1109ZM33.0343 16.9052L33.3046 17.0412C34.5294 17.6213 35.6615 18.3818 36.6636 19.2979C39.2116 21.6346 40.6188 24.5955 41.2708 27.9525C41.464 28.9965 41.5862 30.0526 41.6365 31.1134C41.6962 32.3697 41.6563 33.6287 41.5172 34.8786C41.4775 35.2787 41.4337 35.6788 41.386 36.1069C41.4115 36.089 41.4354 36.0689 41.4576 36.0469L41.553 35.8709C42.579 33.674 43.1213 31.2801 43.143 28.8527C43.1641 27.4354 43.0146 26.0207 42.6978 24.6395C41.7955 20.2065 39.3757 16.233 35.8606 13.4121C35.4699 13.0833 35.0463 12.7963 34.5965 12.5558C34.9466 13.0833 35.1823 13.6791 35.2882 14.3044C35.3795 14.7624 35.3217 15.2379 35.1233 15.6602C34.925 16.0826 34.5967 16.4294 34.1871 16.6491C33.8239 16.8124 33.432 16.9008 33.0343 16.9092V16.9052ZM43.6081 51.8077C44.1973 51.356 44.7478 50.8554 45.2538 50.3112C46.4669 49.1344 47.3757 47.6771 47.9013 46.0659C48.2538 44.8545 48.475 43.6082 48.5611 42.3488C48.6507 41.2673 48.6227 40.1792 48.4777 39.1038C48.2761 37.8696 47.9919 36.6504 47.627 35.4547C47.4907 34.9269 47.3071 34.4127 47.0784 33.9183C47.0645 33.9856 47.0645 34.055 47.0784 34.1223C47.1823 34.6858 47.2527 35.255 47.2891 35.8268C47.3867 37.2828 47.3268 38.7452 47.1102 40.1882C46.8532 41.9595 46.4259 43.7015 45.8342 45.3897C45.2817 46.9902 44.5423 48.5387 44.0573 50.1912C43.8798 50.7231 43.7298 51.264 43.6081 51.8117V51.8077ZM10.4079 51.8277C10.2091 51.0034 9.9746 50.2512 9.73211 49.499C9.27497 48.0945 8.62703 46.7701 8.16592 45.3697C7.34334 43.012 6.85229 40.5501 6.70705 38.0555C6.65586 36.9735 6.69842 35.8891 6.83425 34.8145C6.874 34.5064 6.90978 34.1944 6.94555 33.8823C6.65484 34.5488 6.41821 35.2379 6.23798 35.9429C5.83107 37.2659 5.56457 38.6286 5.44296 40.0081C5.36682 41.3304 5.43213 42.6571 5.63774 43.9653C5.90122 46.1476 6.83511 48.1927 8.30902 49.8151C8.95115 50.5454 9.65325 51.22 10.4079 51.8317V51.8277ZM52.0473 64.9196C52.0607 64.916 52.073 64.9091 52.0831 64.8996C52.1156 64.865 52.1449 64.8275 52.1705 64.7876C52.7742 63.8941 53.0394 62.8122 52.9179 61.7386C52.8224 60.8849 52.4903 60.0755 51.9596 59.4026C51.429 58.7298 50.721 58.2207 49.9167 57.9335C48.9491 57.6278 47.9588 57.4003 46.9552 57.2533C47.1567 57.3902 47.3665 57.5145 47.5833 57.6254C48.4669 58.0397 49.2874 58.5786 50.02 59.2259C50.8102 59.9237 51.411 60.8126 51.7656 61.8087C52.1203 62.8048 52.2173 63.8754 52.0473 64.9196ZM7.05288 57.2853C6.19028 57.4534 5.32768 57.5894 4.48098 57.8015C2.1754 58.3776 0.315046 61.1385 1.3446 63.7792C1.49427 64.2146 1.7175 64.6207 2.00448 64.9796C1.91371 64.5684 1.86706 64.1485 1.86534 63.7272C1.91658 62.5531 2.2834 61.415 2.9267 60.4342C3.70057 59.3193 4.75014 58.427 5.97165 57.8455C6.33338 57.6774 6.69512 57.4774 7.05288 57.2853ZM4.96197 41.3045L4.99774 41.3285V40.0201H4.96197V41.3045Z" fill="#493826"/>
<path d="M22.5041 31.374C22.4564 32.5423 21.4706 33.1745 20.4132 33.1185C19.4433 33.0665 18.4693 32.3983 18.5608 31.1699C18.1168 31.2783 17.6553 31.2933 17.2053 31.2139C16.7642 31.1216 16.365 30.887 16.0684 30.5457C16.1717 30.4297 16.2711 30.4817 16.3625 30.5457C16.6498 30.6803 16.9721 30.7194 17.2829 30.6576C17.5937 30.5957 17.8769 30.4361 18.0917 30.2016C18.3597 29.9413 18.6557 29.7118 18.9742 29.5174C19.4157 29.2455 19.9233 29.1016 20.441 29.1016C20.9587 29.1016 21.4663 29.2455 21.9078 29.5174C21.9564 29.5359 21.9983 29.5687 22.0281 29.6115C22.0579 29.6544 22.0741 29.7052 22.0748 29.7575C20.914 29.2934 19.7811 29.1293 18.676 30.0016C19.0219 29.9576 19.3001 29.8695 19.5943 29.8415C20.6709 29.7596 21.7359 30.1106 22.5558 30.8178C22.7671 30.9818 22.9651 31.1625 23.1481 31.358C23.1864 31.3886 23.2129 31.4318 23.223 31.48C23.2332 31.5281 23.2264 31.5784 23.2037 31.6221C23.1322 31.7501 23.0328 31.6501 22.9573 31.6221C22.8102 31.546 22.671 31.466 22.5041 31.374ZM19.4512 32.3263C20.0355 32.8784 21.1247 32.8584 21.5421 32.3783C20.8718 32.1194 20.1334 32.101 19.4512 32.3263Z" fill="#493826"/>
<path d="M37.9149 30.517C37.5491 31.0532 36.7223 31.4413 35.4344 31.1692C35.4711 31.4457 35.4353 31.727 35.3308 31.9853C35.2262 32.2435 35.0563 32.4698 34.8381 32.6417C34.4906 32.9298 34.0596 33.0969 33.6098 33.1178C33.0929 33.1634 32.5769 33.0215 32.1549 32.7177C31.955 32.5593 31.7908 32.3601 31.6729 32.1332C31.5551 31.9063 31.4863 31.6569 31.4712 31.4013C31.3002 31.4853 31.1611 31.5653 31.014 31.6334C30.9425 31.6654 30.859 31.7414 30.7914 31.6334C30.7239 31.5253 30.7914 31.4693 30.8312 31.3973C31.0377 31.1453 31.2801 30.9255 31.5507 30.7451C32.3325 30.1031 33.3262 29.7816 34.3333 29.8448C34.6735 29.8853 35.0108 29.9481 35.343 30.0329C34.868 29.6237 34.2666 29.3932 33.6416 29.3807C33.0466 29.403 32.4611 29.5388 31.9164 29.7808C31.9164 29.5847 32.0675 29.5447 32.1748 29.4887C33.3673 28.8405 34.6791 29.0526 35.7524 30.0649C35.9352 30.2461 36.1411 30.4022 36.3645 30.529C36.5457 30.63 36.7475 30.6875 36.9543 30.6972C37.1611 30.7069 37.3674 30.6685 37.5571 30.585C37.6565 30.513 37.7757 30.421 37.9149 30.517ZM32.4371 32.3776C32.742 32.6175 33.1205 32.7427 33.5072 32.7318C33.894 32.7208 34.2649 32.5743 34.5559 32.3176C33.8645 32.0871 33.1146 32.1084 32.4371 32.3776Z" fill="#493826"/>
<path d="M29.5754 27.9442C29.8179 27.436 30.2551 27.368 30.6526 27.232C31.8963 26.7466 33.2227 26.5127 34.5562 26.5437C35.0034 26.5553 35.4406 26.6791 35.8283 26.9039C36.5716 27.344 37.3428 27.7401 38.0623 28.2243C38.0901 28.2243 38.1179 28.2723 38.1537 28.3043C37.5497 28.2292 36.9518 28.1102 36.3649 27.9482C35.3927 27.7262 34.3835 27.7262 33.4114 27.9482C31.9617 28.2807 30.5498 28.762 29.1977 29.3846C29.0626 29.4406 28.9314 29.5246 28.8002 29.3846C28.669 29.2446 28.4464 29.1445 28.5975 28.8604C28.7883 28.4656 29.0061 28.0845 29.2494 27.7201C29.317 27.6281 29.3806 27.508 29.5197 27.5601C29.6589 27.6121 29.5595 27.7521 29.5754 27.9442Z" fill="#493826"/>
<path d="M15.9297 28.2645C16.5101 27.8164 17.1858 27.5363 17.7702 27.1202C18.6487 26.496 19.6265 26.48 20.6164 26.568C21.6465 26.692 22.6574 26.9447 23.6255 27.3202C23.7934 27.3511 23.9513 27.4226 24.0856 27.5286C24.22 27.6345 24.3267 27.7717 24.3967 27.9284C24.4404 27.7604 24.2894 27.6123 24.4603 27.5483C24.6312 27.4843 24.6829 27.6323 24.7505 27.7283C25.007 28.0851 25.2193 28.4721 25.3825 28.8807C25.4183 28.9727 25.5415 29.1368 25.3825 29.1808C25.2235 29.2248 25.1559 29.5809 24.8141 29.4128C24.0259 29.0355 23.2162 28.7055 22.3893 28.4246C21.333 28.0543 20.2305 27.8347 19.1138 27.7724C18.43 27.7576 17.7491 27.8646 17.1023 28.0885C16.7195 28.1925 16.326 28.2516 15.9297 28.2645Z" fill="#493826"/>
<path d="M33.2726 13.4089C33.3919 13.4729 33.6185 13.4089 33.6463 13.649C33.65 13.6732 33.6473 13.6979 33.6385 13.7207C33.6297 13.7435 33.6151 13.7636 33.5962 13.779C33.5773 13.7944 33.5548 13.8045 33.5308 13.8084C33.5068 13.8122 33.4822 13.8097 33.4595 13.801C33.3005 13.753 33.062 13.801 33.0302 13.557C33.0063 13.4129 33.1375 13.4049 33.2726 13.4089Z" fill="#493826"/>
<path d="M33.4309 14.213C33.3037 14.213 33.1368 14.213 33.1328 14.0169C33.1328 13.8769 33.2481 13.8609 33.3594 13.8689C33.4707 13.8769 33.6694 13.8889 33.6893 14.0649C33.7092 14.241 33.5581 14.209 33.4309 14.213Z" fill="#493826"/>
<path d="M33.4121 14.6731C33.3048 14.6731 33.1855 14.6731 33.1855 14.529C33.1855 14.385 33.3287 14.353 33.4519 14.337C33.5751 14.321 33.6824 14.369 33.6824 14.493C33.6824 14.617 33.5473 14.6731 33.4121 14.6731Z" fill="#493826"/>
</g>
</svg>
