<svg width="54" height="54" viewBox="0 0 54 54" fill="none" xmlns="http://www.w3.org/2000/svg">
<circle cx="27" cy="27" r="27" fill="#FBEBF2"/>
<mask id="mask0_59_6973" style="mask-type:alpha" maskUnits="userSpaceOnUse" x="0" y="0" width="54" height="54">
<circle cx="27" cy="27" r="27" fill="#FBEBF2"/>
</mask>
<g mask="url(#mask0_59_6973)">
<path d="M36.0357 18.9719C33.419 17.0224 31.7833 16.3334 28.5356 15.9723C27.0891 15.4984 26.0382 15.6014 24.0357 15.9719C20.9824 16.9319 19.7529 17.6119 18.0357 18.9719C16.5612 20.1378 15.9152 20.9314 15.0357 22.4719L13.5357 25.4714L13.0357 27.9714C12.4134 30.9318 12.3885 32.8479 13.0357 36.9719L15.0357 40.9719L19.0357 46.4719C21.0954 48.7311 22.4393 49.3416 25.5356 49.9717C27.7668 50.0905 28.9443 50.3346 31.0357 49.4719C33.4487 47.9637 34.6567 46.8752 36.5357 44.4719L41.0357 37.4719L41.5357 31.9719C41.4719 29.1316 41.1909 27.5055 40.0357 24.4719C38.8295 21.6959 37.8752 20.6275 36.0357 18.9719Z" fill="#F6D4C2"/>
<path d="M22.785 31.1845C22.6738 31.0157 22.5032 30.8955 22.3076 30.8482C21.5119 30.5521 20.6724 30.3479 19.8728 30.0478C19.7663 30.0079 19.6491 30.0079 19.5426 30.0478C19.2947 30.1135 19.0546 30.2061 18.8265 30.3239C18.7524 30.3669 18.6753 30.4043 18.5957 30.436C18.5296 30.4671 18.4553 30.4761 18.3837 30.4617C18.3122 30.4473 18.247 30.4102 18.1979 30.3559C18.1064 30.2239 18.2695 30.1278 18.361 30.0678C18.7732 29.7668 19.2438 29.5566 19.7422 29.4511C20.2406 29.3456 20.7555 29.3471 21.2533 29.4554C22.0112 29.6015 22.6862 30.0304 23.143 30.6561C23.2982 30.8723 23.4931 31.0564 23.6682 31.2645C23.7438 31.3566 23.8472 31.4486 23.7756 31.5927C23.704 31.7368 23.5926 31.7048 23.4772 31.7088C23.258 31.7149 23.04 31.6754 22.8367 31.5927C22.5741 31.4806 22.5741 31.3766 22.785 31.1845Z" fill="#F6D4C2"/>
<path d="M31.1819 31.1849C31.3848 31.397 31.3649 31.4811 31.0745 31.5851C30.8506 31.6676 30.6123 31.7031 30.3743 31.6892C30.1793 31.6692 30.0481 31.5371 30.1833 31.385C30.804 30.6886 31.2814 29.8481 32.276 29.5439C32.7802 29.3841 33.3119 29.3319 33.8373 29.3905C34.3627 29.449 34.8702 29.6172 35.3274 29.8841C35.4054 29.9222 35.4788 29.9692 35.5462 30.0242C35.6417 30.1122 35.8446 30.2003 35.7332 30.3524C35.6762 30.4098 35.6015 30.4463 35.5214 30.4557C35.4412 30.4652 35.3602 30.4471 35.2916 30.4044C35.0896 30.2992 34.8825 30.2043 34.6709 30.1202C34.4257 30.0222 34.1524 30.0222 33.9071 30.1202C33.2467 30.3604 32.5584 30.5205 31.9179 30.7806C31.6514 30.8807 31.2893 30.8127 31.1819 31.1849Z" fill="#F6D4C2"/>
<path d="M2.61028 66.2458C2.47862 66.0087 2.31233 65.7928 2.11696 65.6054C1.46194 64.9781 1.00565 64.1701 0.80535 63.2829C0.60505 62.3957 0.669662 61.4687 0.991078 60.6183C1.66343 58.9573 2.78533 57.8166 4.57163 57.3844C5.24 57.2283 5.91632 57.1122 6.56082 56.9401C7.84456 56.6259 8.97379 55.8591 9.74353 54.7788C10.2266 54.1141 10.4707 53.304 10.4358 52.4814C10.436 52.4257 10.4218 52.371 10.3946 52.3226C10.3674 52.2742 10.3281 52.2337 10.2806 52.2052C9.47022 51.5947 8.72015 50.9071 8.04078 50.1519C6.18287 48.1867 5.25591 45.7813 4.75065 43.1797C4.46363 41.5336 4.40073 39.8558 4.56367 38.1926C4.80933 35.7047 5.30383 33.2481 6.03965 30.8601C6.69211 28.5227 7.51563 26.2373 8.21185 23.9079C8.76882 22.0507 9.18656 20.1496 9.86288 18.3045C10.6387 16.2752 11.5776 14.286 13.0257 12.625C15.2521 9.98607 18.2903 8.17039 21.6588 7.46582C22.906 7.2365 24.1675 7.09474 25.4343 7.04157C27.0193 6.96341 28.6078 6.9955 30.1885 7.13762C32.9018 7.323 35.5187 8.22407 37.7759 9.75016C40.0331 11.2762 41.851 13.3735 43.0466 15.8309C44.0108 17.8305 44.7565 19.9294 45.2705 22.0908C45.9747 24.7244 46.9056 27.294 47.6814 29.8995C48.3076 31.9384 48.8137 34.0126 49.1972 36.1113C49.4969 37.8431 49.593 39.6042 49.4836 41.3586C49.3495 44.1819 48.4104 46.9066 46.7783 49.2074C45.9373 50.3517 44.9207 51.3541 43.7667 52.1772C43.6875 52.2273 43.6241 52.2991 43.584 52.3842C43.5438 52.4692 43.5286 52.564 43.5399 52.6575C43.5805 53.3205 43.7721 53.9652 44.0997 54.5419C44.4274 55.1186 44.8824 55.6118 45.4297 55.9835C46.2876 56.5934 47.2778 56.9885 48.318 57.1362C49.4598 57.3443 50.6095 57.5925 51.5007 58.413C52.4495 59.2207 53.0756 60.3468 53.2631 61.5829C53.3911 62.3477 53.3198 63.1328 53.0562 63.8617C52.7927 64.5905 52.3458 65.2382 51.7593 65.7415C51.6479 65.8415 51.5962 65.9776 51.4967 66.0817C51.3972 66.1857 51.4251 66.2738 51.4967 66.3778C51.8428 66.7781 52.1929 67.1783 52.5191 67.5786C53.1669 68.4847 53.591 69.5328 53.7564 70.6365C53.9609 71.5647 54.0372 72.5169 53.9832 73.4662C53.8701 75.1185 53.5712 76.7526 53.092 78.3372C53.0539 78.5243 52.9924 78.7059 52.909 78.8775C52.8613 78.9535 52.8016 79.0216 52.6982 78.9936C52.5947 78.9655 52.6226 78.8775 52.6146 78.8014C52.6096 78.638 52.6352 78.4751 52.6902 78.3212C53.0067 77.1105 53.2604 75.8841 53.4501 74.6469C53.63 73.3305 53.572 71.9922 53.279 70.6965C53.1832 70.1607 53.0367 69.6353 52.8414 69.1275C52.2697 67.8532 51.4035 66.7348 50.3151 65.8655C50.0203 65.6794 49.6665 65.6122 49.3245 65.6774C48.2132 65.7084 47.1299 66.0358 46.1856 66.626C45.8484 66.846 45.4713 66.9968 45.0759 67.0696C44.6806 67.1424 44.2749 67.1358 43.8821 67.0503C43.3887 66.9542 42.8875 66.9022 42.3942 66.8021C41.1356 66.6027 39.847 66.7408 38.6584 67.2024C38.1532 67.3705 37.6599 67.5666 37.1427 67.7027C36.951 67.7627 36.7456 67.7627 36.5539 67.7027C35.841 67.46 35.1004 67.3093 34.3499 67.2544C33.4518 67.1971 32.5533 67.3606 31.7321 67.7307C31.2825 67.9308 30.821 68.1309 30.3794 68.3431C29.3746 68.8255 28.2442 68.9767 27.149 68.7753C26.9591 68.7522 26.7668 68.7617 26.5801 68.8033C25.42 68.9556 24.2416 68.7387 23.2104 68.183C22.5222 67.8094 21.7877 67.5294 21.0262 67.3504C19.9726 67.1526 18.886 67.2311 17.8714 67.5786C17.34 67.7644 16.7601 67.753 16.2363 67.5466C15.4529 67.2333 14.6452 66.9856 13.8214 66.8061C12.9921 66.6785 12.1473 66.6934 11.3229 66.8501C10.758 66.9342 10.205 67.0863 9.63213 67.1183C9.04848 67.1645 8.46521 67.0244 7.96519 66.7181C7.16853 66.2041 6.26952 65.8721 5.3315 65.7455C4.90732 65.6809 4.47643 65.6742 4.05046 65.7255C3.80624 65.7785 3.58407 65.9056 3.41391 66.0897C1.81608 67.4486 0.801352 69.3757 0.581304 71.469C0.438155 72.5443 0.430137 73.6336 0.557435 74.7109C0.736462 75.9117 1.01495 77.1124 1.30537 78.3131C1.34118 78.4692 1.36903 78.6293 1.3929 78.7894C1.3929 78.8655 1.3929 78.9535 1.30537 78.9816C1.28474 78.9884 1.26297 78.991 1.24133 78.9892C1.21969 78.9874 1.19862 78.9813 1.17935 78.9713C1.16008 78.9612 1.14301 78.9474 1.12912 78.9306C1.11524 78.9138 1.10482 78.8944 1.09849 78.8735C1.0428 78.7454 0.987098 78.6133 0.943336 78.4732C0.536 77.1692 0.253577 75.8289 0.0999199 74.4708C-0.15278 72.5607 0.075679 70.6174 0.76431 68.8193C1.1343 67.8628 1.83052 67.1463 2.47502 66.3899L2.61028 66.2458ZM40.035 37.9245C40.0798 37.9167 40.1237 37.9046 40.1663 37.8884C40.3976 37.7603 40.5923 37.5745 40.7317 37.3488C40.871 37.123 40.9503 36.8651 40.9619 36.5996C41.1052 35.4269 41.2285 34.2582 41.2722 33.0815C41.3615 31.0477 41.1714 29.0113 40.7073 27.0298C39.9395 23.8759 38.4595 21.1502 35.9014 19.1049C33.3308 17.0645 30.1606 15.9385 26.8864 15.903C25.6099 15.9134 24.3428 16.1241 23.1308 16.5274C19.6656 17.54 16.9086 19.5052 15.0388 22.6471C13.4912 25.2447 12.8705 28.1024 12.7353 31.0883C12.6748 33.0543 12.7879 35.0219 13.0734 36.9679C13.1334 37.1863 13.2473 37.386 13.4044 37.5483C13.5616 37.7107 13.7571 37.8304 13.9726 37.8964C13.9726 37.8684 13.9726 37.8404 13.9726 37.8164C13.8064 37.0701 13.6815 36.3152 13.5986 35.555C13.5986 35.4269 13.523 35.2228 13.7339 35.2068C13.9447 35.1908 13.9208 35.3709 13.9407 35.515C14.059 36.4142 14.2237 37.3066 14.434 38.1886C14.958 40.3591 15.9737 42.3782 17.4019 44.0882C18.5834 45.6244 19.949 47.0077 21.4678 48.2067C22.5468 49.0667 23.8231 49.6406 25.1797 49.8758C26.0649 49.9877 26.9583 50.0199 27.8492 49.9718C29.0246 49.9546 30.1788 49.654 31.2149 49.0953C32.433 48.4021 33.5429 47.5323 34.509 46.5137C35.3047 45.7132 36.0049 44.8727 36.709 44.0122C37.8554 42.6093 38.7287 41.0016 39.2831 39.2733C39.6554 38.0201 39.9216 36.7374 40.0787 35.4389C40.0986 35.3029 40.1225 35.1748 40.2896 35.1988C40.4567 35.2228 40.4368 35.3629 40.4209 35.479C40.3811 35.8192 40.3373 36.1594 40.2816 36.4996C40.218 36.9679 40.1265 37.4321 40.035 37.9245ZM49.4836 65.3052C49.3094 65.1855 49.1192 65.0912 48.9187 65.025C47.1961 64.3326 45.374 64.0124 43.5956 63.5201C41.8173 63.0278 40.1106 62.5115 38.555 61.5189C36.7667 60.4249 35.4294 58.72 34.7875 56.7159C34.1886 54.8337 33.8708 52.8725 33.8446 50.8964C33.8247 49.8157 33.8088 48.7351 33.8764 47.6344C33.5224 47.9186 33.1882 48.1987 32.842 48.4669C31.2946 49.7345 29.3421 50.3931 27.3479 50.32C27.2164 50.2985 27.0832 50.2892 26.9501 50.292C26.2106 50.359 25.4655 50.3172 24.7381 50.1679C23.4493 49.8892 22.2418 49.3153 21.2092 48.4909C20.8512 48.2228 20.513 47.9386 20.151 47.6504C20.1371 47.907 20.1477 48.1643 20.1828 48.4189C20.1828 49.4075 20.1828 50.3961 20.143 51.3887C20.0748 52.8805 19.8603 54.362 19.5025 55.8114C18.7068 59.0734 16.6659 61.1867 13.6622 62.4514C12.3856 62.9728 11.0699 63.3917 9.72762 63.7042C8.20063 64.0229 6.69723 64.4468 5.22806 64.973C4.97784 65.0569 4.73871 65.1712 4.51593 65.3132C5.01139 65.317 5.50545 65.3666 5.99191 65.4613C6.7127 65.6045 7.40243 65.8755 8.02884 66.2618C8.58416 66.6087 9.24532 66.7423 9.89073 66.638C10.3642 66.558 10.8296 66.4619 11.2991 66.3859C12.2558 66.2018 13.2386 66.2018 14.1953 66.3859C15.0825 66.578 15.922 66.9102 16.7853 67.1863C16.9907 67.2545 17.2124 67.2545 17.4178 67.1863C18.7694 66.7175 20.2267 66.6508 21.615 66.9942C22.4317 67.2699 23.2292 67.6002 24.0021 67.9828C24.8221 68.3334 25.7217 68.4524 26.6039 68.327C26.868 68.2914 27.1356 68.2914 27.3996 68.327C27.968 68.404 28.5453 68.3823 29.1063 68.263C29.8414 68.0632 30.5515 67.7799 31.2228 67.4185C32.6957 66.6943 34.3848 66.5515 35.9571 67.0182C36.654 67.2414 37.4091 67.1899 38.0696 66.8742C38.1125 66.8557 38.1563 66.8397 38.2009 66.8261C39.2253 66.4285 40.3135 66.2236 41.4115 66.2218C42.1821 66.2615 42.9476 66.37 43.6991 66.546C44.0914 66.6503 44.5008 66.6733 44.9023 66.6134C45.3038 66.5535 45.6889 66.4121 46.0344 66.1977C46.3698 65.994 46.7243 65.8238 47.0926 65.6894C47.8644 65.4347 48.6714 65.305 49.4836 65.3052ZM12.6279 36.1193C12.5562 35.475 12.4647 34.8306 12.421 34.1822C12.3434 33.0228 12.3434 31.8594 12.421 30.7C12.5039 29.1802 12.7588 27.6749 13.1809 26.2133C14.4858 21.8346 17.1155 18.6086 21.3326 16.7755C23.0446 16.0783 24.8511 15.6438 26.6915 15.4867C27.4553 15.4027 28.1993 15.6468 28.9591 15.6909C29.397 15.7017 29.8339 15.7364 30.268 15.7949C31.195 15.955 32.0862 16.2592 33.0091 16.4393C33.3321 16.5153 33.6706 16.4879 33.9773 16.3609C34.284 16.2339 34.5436 16.0136 34.7198 15.7309C34.8652 15.5054 34.9622 15.2519 35.0046 14.9866C35.0471 14.7212 35.0341 14.4499 34.9665 14.1899C34.8714 13.6396 34.6475 13.12 34.3134 12.6739C33.9793 12.2278 33.5445 11.8681 33.0449 11.6244C31.1954 10.7309 29.1689 10.2698 27.1171 10.2755C25.3828 10.2573 23.6606 10.5683 22.0407 11.1921C19.086 12.3772 16.5401 14.4056 14.7165 17.0277C11.9883 20.7119 10.6476 25.2503 10.9331 29.8355C11.0123 31.1157 11.2392 32.3824 11.6094 33.6098C11.8515 34.483 12.1933 35.3252 12.6279 36.1193ZM33.0648 16.9076L33.3354 17.0437C34.5625 17.6238 35.6968 18.3847 36.7011 19.3011C39.2512 21.6385 40.6556 24.6003 41.3081 27.9584C41.5015 29.0027 41.6238 30.0592 41.6741 31.1203C41.7338 32.3769 41.6939 33.6363 41.5547 34.8866C41.5149 35.2868 41.4712 35.6871 41.4234 36.1153C41.4489 36.0974 41.4729 36.0773 41.495 36.0553C41.5269 35.9953 41.5627 35.9392 41.5905 35.8792C42.6188 33.6822 43.1617 31.2872 43.1819 28.8589C43.203 27.4411 43.0534 26.026 42.7363 24.6443C41.8301 20.2083 39.404 16.2333 35.8815 13.4135C35.4905 13.0845 35.0665 12.7975 34.6164 12.5569C34.9654 13.0849 35.1999 13.6808 35.3047 14.306C35.396 14.7642 35.3382 15.2398 35.1397 15.6623C34.9412 16.0848 34.6126 16.4317 34.2027 16.6514C33.8404 16.8143 33.4495 16.9027 33.0529 16.9116L33.0648 16.9076ZM43.6473 51.8209C44.237 51.3691 44.7879 50.8684 45.2944 50.324C46.5084 49.1469 47.418 47.6891 47.944 46.0774C48.2968 44.8656 48.5182 43.6189 48.6044 42.3592C48.6941 41.2773 48.6661 40.1889 48.5209 39.1132C48.3191 37.8785 48.0347 36.659 47.6695 35.4629C47.5331 34.935 47.3493 34.4206 47.1205 33.926C47.1065 33.9933 47.1065 34.0628 47.1205 34.1301C47.2245 34.6937 47.2949 35.2631 47.3313 35.8352C47.429 37.2916 47.369 38.7545 47.1523 40.1978C46.8951 41.9697 46.4674 43.7123 45.8752 45.401C45.3262 47.002 44.5823 48.551 44.0969 50.204C43.9152 50.7359 43.7611 51.2769 43.6354 51.825L43.6473 51.8209ZM10.4199 51.841C10.2249 51.0165 9.98621 50.264 9.74353 49.5115C9.28601 48.1067 8.63754 46.7819 8.17604 45.381C7.35279 43.0226 6.86134 40.5599 6.71598 38.0645C6.66873 36.9822 6.71131 35.8978 6.84328 34.8226C6.88307 34.5144 6.91887 34.2022 6.95468 33.89C6.66373 34.5567 6.4269 35.2461 6.24653 35.9512C5.83253 37.2739 5.55915 38.637 5.43096 40.0177C5.35476 41.3404 5.42012 42.6675 5.6259 43.9762C5.8914 46.1587 6.82581 48.2039 8.29938 49.8277C8.94555 50.5577 9.65081 51.2324 10.4079 51.845L10.4199 51.841ZM52.0815 64.933C52.0949 64.9294 52.1072 64.9225 52.1173 64.913C52.1499 64.8784 52.1792 64.8409 52.2049 64.8009C52.811 63.908 53.0766 62.8251 52.9528 61.751C52.8572 60.8971 52.5249 60.0873 51.9938 59.4143C51.4627 58.7412 50.7541 58.232 49.9491 57.9447C48.9807 57.6389 47.9896 57.4113 46.9852 57.2643C47.1869 57.4013 47.3969 57.5256 47.6138 57.6365C48.4982 58.0509 49.3194 58.59 50.0526 59.2375C50.8419 59.9372 51.4412 60.8275 51.7941 61.8246C52.147 62.8218 52.2418 63.8928 52.0696 64.937L52.0815 64.933ZM7.05812 57.3003C6.19481 57.4684 5.33548 57.6045 4.48808 57.8166C2.17664 58.393 0.314752 61.1547 1.34515 63.7963C1.49494 64.2318 1.71836 64.638 2.00557 64.997C1.91397 64.5858 1.86859 64.1656 1.8703 63.7442C1.9184 62.5698 2.28431 61.4308 2.92855 60.4502C3.7036 59.3339 4.75561 58.4411 5.97998 57.8606C6.33405 57.6925 6.69211 57.4924 7.05812 57.3003ZM4.96946 41.3145L5.00129 41.3385V40.0297H4.96946V41.3145Z" fill="#493826"/>
<path d="M22.5142 31.381C22.4665 32.5497 21.4799 33.1821 20.4216 33.1261C19.4509 33.0741 18.4762 32.4057 18.5677 31.1769C18.1233 31.2854 17.6615 31.3003 17.2111 31.2209C16.7696 31.1286 16.3702 30.8939 16.0732 30.5525C16.1767 30.4365 16.2761 30.4885 16.3676 30.5525C16.6551 30.6871 16.9777 30.7263 17.2887 30.6644C17.5998 30.6025 17.8833 30.4428 18.0982 30.2083C18.3692 29.9402 18.6695 29.7039 18.9934 29.5039C19.4353 29.2318 19.9433 29.0879 20.4614 29.0879C20.9795 29.0879 21.4875 29.2318 21.9294 29.5039C21.978 29.5224 22.02 29.5552 22.0498 29.598C22.0796 29.6409 22.0959 29.6917 22.0965 29.744C20.9348 29.2797 19.801 29.1156 18.695 29.9882C19.0411 29.9442 19.3196 29.8561 19.614 29.8281C20.6915 29.7461 21.7574 30.0973 22.5779 30.8047C22.7902 30.9678 22.9885 31.1485 23.1707 31.345C23.209 31.3757 23.2355 31.4188 23.2457 31.467C23.2559 31.5152 23.249 31.5655 23.2264 31.6092C23.1548 31.7372 23.0553 31.6372 22.9797 31.6092C22.8206 31.5531 22.6853 31.4731 22.5142 31.381ZM19.4429 32.3336C20.0317 32.8859 21.1218 32.8659 21.5356 32.3856C20.8647 32.1266 20.1257 32.1082 19.4429 32.3336Z" fill="#493826"/>
<path d="M37.9373 30.5233C37.5713 31.0597 36.7438 31.4479 35.4548 31.1757C35.4915 31.4523 35.4558 31.7337 35.3511 31.992C35.2464 32.2504 35.0765 32.4767 34.8581 32.6486C34.5102 32.9369 34.0789 33.104 33.6287 33.1249C33.1127 33.171 32.5973 33.029 32.1766 32.7247C31.9755 32.567 31.8101 32.368 31.6914 32.1409C31.5727 31.9139 31.5035 31.664 31.4884 31.4079C31.3173 31.4919 31.178 31.572 31.0308 31.64C30.9592 31.672 30.8757 31.7481 30.8081 31.64C30.7404 31.5319 30.8081 31.4759 30.8478 31.4039C31.0545 31.1518 31.2972 30.9319 31.5679 30.7515C32.3508 30.1099 33.345 29.7884 34.3528 29.8509C34.6934 29.8914 35.0309 29.9543 35.3633 30.039C34.888 29.6297 34.2861 29.3991 33.6606 29.3866C33.065 29.409 32.4791 29.5448 31.9339 29.7869C31.9339 29.5908 32.0891 29.5507 32.1965 29.4947C33.39 28.8463 34.6989 29.0584 35.7771 30.0711C35.9607 30.2533 36.1681 30.4095 36.3937 30.5353C36.5748 30.6369 36.7768 30.6948 36.9839 30.7045C37.191 30.7142 37.3975 30.6755 37.5872 30.5914C37.6907 30.5193 37.7981 30.4273 37.9373 30.5233ZM32.4551 32.3845C32.7602 32.6244 33.139 32.7497 33.5261 32.7388C33.9132 32.7278 34.2844 32.5813 34.5756 32.3244C33.8836 32.0939 33.1331 32.1152 32.4551 32.3845Z" fill="#493826"/>
<path d="M29.5919 27.9505C29.8345 27.4422 30.2722 27.3741 30.67 27.238C31.9146 26.7525 33.2422 26.5186 34.5768 26.5496C35.0243 26.5612 35.4619 26.685 35.8499 26.9098C36.5938 27.3501 37.3656 27.7463 38.0857 28.2306C38.1136 28.2306 38.1414 28.2787 38.1772 28.3107C37.5728 28.2352 36.9745 28.1161 36.3869 27.9545C35.414 27.7324 34.4039 27.7324 33.431 27.9545C31.9802 28.2871 30.5671 28.7686 29.2139 29.3913C29.0786 29.4474 28.9474 29.5314 28.8161 29.3913C28.6848 29.2513 28.462 29.1512 28.6132 28.867C28.8041 28.472 29.0221 28.0909 29.2656 27.7263C29.3333 27.6343 29.3969 27.5142 29.5362 27.5662C29.6754 27.6183 29.5759 27.7583 29.5919 27.9505Z" fill="#493826"/>
<path d="M15.9336 28.2709C16.5184 27.8226 17.1908 27.5425 17.7756 27.1262C18.6548 26.5018 19.6335 26.4858 20.6281 26.5739C21.6577 26.6984 22.668 26.9512 23.6357 27.3263C23.804 27.3566 23.9623 27.4279 24.0969 27.5339C24.2314 27.64 24.3381 27.7776 24.4076 27.9347C24.4513 27.7666 24.3001 27.6185 24.4712 27.5545C24.6423 27.4904 24.698 27.6385 24.7616 27.7346C25.0184 28.0915 25.2308 28.4786 25.3942 28.8873C25.43 28.9793 25.5533 29.1434 25.3942 29.1875C25.2351 29.2315 25.1674 29.5877 24.8253 29.4196C24.0375 29.0428 23.2285 28.7127 22.4025 28.431C21.3439 28.061 20.2392 27.8414 19.1203 27.7786C18.436 27.7639 17.7545 27.8709 17.1072 28.0948C16.7241 28.1989 16.3302 28.258 15.9336 28.2709Z" fill="#493826"/>
<path d="M33.2904 13.4089C33.4098 13.473 33.6365 13.4089 33.6644 13.6491C33.6681 13.6733 33.6654 13.698 33.6566 13.7208C33.6478 13.7436 33.6332 13.7637 33.6143 13.7791C33.5954 13.7945 33.5728 13.8046 33.5488 13.8085C33.5248 13.8124 33.5002 13.8098 33.4774 13.8012C33.3183 13.7531 33.0796 13.8012 33.0477 13.557C33.0239 13.4129 33.1552 13.4049 33.2904 13.4089Z" fill="#493826"/>
<path d="M33.4507 14.2131C33.3234 14.2131 33.1563 14.2131 33.1523 14.017C33.1523 13.8769 33.2677 13.8609 33.3791 13.8689C33.4905 13.8769 33.6894 13.8889 33.7133 14.065C33.7372 14.2411 33.578 14.2091 33.4507 14.2131Z" fill="#493826"/>
<path d="M33.4299 14.6751C33.3225 14.6751 33.2031 14.6751 33.2031 14.531C33.2031 14.3869 33.3463 14.3549 33.4697 14.3389C33.593 14.3229 33.7004 14.3709 33.7004 14.495C33.7004 14.6191 33.5652 14.6751 33.4299 14.6751Z" fill="#493826"/>
</g>
</svg>
