<svg width="54" height="54" viewBox="0 0 54 54" fill="none" xmlns="http://www.w3.org/2000/svg">
<circle cx="27" cy="27" r="27" fill="#FBEBF2"/>
<path d="M35.9878 18.8977C33.3711 16.9482 31.7355 16.2592 28.4878 15.8981C27.0412 15.4242 25.9903 15.5272 23.9878 15.8977C20.9346 16.8577 19.7051 17.5377 17.9878 18.8977C16.5134 20.0636 15.8673 20.8572 14.9878 22.3977L13.4878 25.3972L12.9878 27.8972C12.3655 30.8576 12.3406 32.7737 12.9878 36.8977L14.9878 40.8977L18.9878 46.3977C21.0475 48.6569 22.3915 49.2674 25.4878 49.8975C27.719 50.0163 28.8964 50.2604 30.9878 49.3977C33.4009 47.8895 34.6089 46.801 36.4878 44.3977L40.9878 37.3977L41.4878 31.8977C41.4241 29.0574 41.143 27.4313 39.9878 24.3977C38.7817 21.6217 37.8273 20.5533 35.9878 18.8977Z" fill="#F6D4C2"/>
<mask id="mask0_59_7008" style="mask-type:alpha" maskUnits="userSpaceOnUse" x="0" y="0" width="54" height="54">
<circle cx="27" cy="27" r="27" fill="#FBEBF2"/>
</mask>
<g mask="url(#mask0_59_7008)">
<path d="M20.9058 25.6883C19.8602 25.5762 18.7749 25.9524 17.6816 26.2886C17.2198 26.4342 16.7462 26.5386 16.2663 26.6007C16.1268 26.6178 15.9853 26.6048 15.8513 26.5623C15.7172 26.5199 15.5938 26.4492 15.4891 26.3548C15.3845 26.2605 15.301 26.1447 15.2445 26.0152C15.1879 25.8858 15.1594 25.7456 15.161 25.6042C15.133 25.2392 15.1817 24.8724 15.3042 24.5277C15.5785 23.7694 15.9821 23.0652 16.4968 22.4466C18.3315 20.0834 20.8634 18.3669 23.7285 17.544C24.3412 17.3662 24.9752 17.2733 25.6129 17.2679C26.408 17.2679 27.1634 17.2679 27.9347 17.2679C29.2509 17.2571 30.5548 17.5229 31.7632 18.0483C34.1419 19.0465 36.211 20.6691 37.7544 22.7467C38.2927 23.4106 38.6661 24.1939 38.8437 25.0319C38.9099 25.3445 38.885 25.6697 38.7722 25.9684C38.7071 26.1915 38.5596 26.381 38.3599 26.4979C38.1602 26.6148 37.9236 26.6502 37.6988 26.5967C36.9203 26.464 36.1543 26.2659 35.4088 26.0044C33.5477 25.4628 31.5607 25.5585 29.7595 26.2766C29.2047 26.51 28.7625 26.9523 28.527 27.5092C28.0409 28.5315 27.9297 29.694 28.213 30.7909C28.4116 31.5101 28.8584 32.1344 29.4732 32.5518C30.5149 33.323 31.7597 33.7672 33.0513 33.8285C33.733 33.9133 34.4213 33.9321 35.1067 33.8845C35.6155 33.8285 36.1204 33.7204 36.6333 33.6924C38.1003 33.6164 39.0187 34.4128 39.0187 35.8815C38.9888 37.6794 38.5321 39.4441 37.6868 41.0282C36.7708 42.8404 35.5325 44.4681 34.0333 45.8307C33.2463 46.5869 32.3964 47.2737 31.4928 47.8837C30.3777 48.5943 29.1012 49.0075 27.7836 49.0844C26.6785 49.1701 25.5669 49.0755 24.4918 48.8042C23.3367 48.4631 22.269 47.8732 21.363 47.0753C19.4559 45.5871 17.8465 43.7484 16.6201 41.6565C15.9891 40.5313 15.5294 39.3172 15.2565 38.0546C15.0617 37.3441 14.9614 36.6106 14.9583 35.8735C14.9476 35.5645 15.0049 35.2569 15.126 34.9727C15.2471 34.6885 15.4289 34.4347 15.6587 34.2294C15.8884 34.0241 16.1604 33.8724 16.4551 33.7851C16.7498 33.6978 17.0599 33.6771 17.3635 33.7244C17.9877 33.7804 18.6119 33.9205 19.236 33.9245C21.1443 33.9485 23.0168 33.7724 24.5952 32.5238C25.0158 32.2205 25.3566 31.8185 25.588 31.3527C25.8194 30.8868 25.9344 30.3711 25.923 29.8504C25.9505 29.1311 25.8328 28.4136 25.5771 27.7413C25.4324 27.3513 25.1964 27.0021 24.8891 26.7235C24.5819 26.4448 24.2124 26.2448 23.812 26.1405C23.3428 26.0164 22.8856 25.8563 22.4086 25.7643C21.9111 25.6914 21.408 25.6659 20.9058 25.6883Z" fill="#F2E6C0"/>
<path d="M22.7905 31.1912C22.6788 31.0223 22.5088 30.9011 22.3135 30.851C21.5183 30.5589 20.6795 30.3548 19.8804 30.0506C19.7736 30.0128 19.6572 30.0128 19.5504 30.0506C19.3027 30.1164 19.0627 30.209 18.8348 30.3268C18.7607 30.3684 18.6836 30.4045 18.6042 30.4348C18.5387 30.467 18.4645 30.477 18.3929 30.4633C18.3212 30.4496 18.2559 30.413 18.2067 30.3588C18.1152 30.2267 18.2782 30.1267 18.3697 30.0706C18.7804 29.7674 19.2507 29.5558 19.7491 29.4503C20.2475 29.3447 20.7626 29.3474 21.2599 29.4583C22.0171 29.6048 22.6916 30.0336 23.1483 30.6589C23.2994 30.8791 23.4982 31.0591 23.6692 31.2672C23.7487 31.3593 23.852 31.4513 23.7805 31.5994C23.7089 31.7475 23.5976 31.7115 23.4823 31.7155C23.2633 31.7216 23.0454 31.6821 22.8422 31.5994C22.5918 31.4794 22.5759 31.3753 22.7905 31.1912Z" fill="#F6D4C2"/>
<path d="M31.1836 31.1924C31.3864 31.4045 31.3665 31.4886 31.0763 31.5926C30.8535 31.679 30.6146 31.7145 30.3766 31.6967C30.1818 31.6967 30.0506 31.5446 30.1818 31.3965C30.802 30.7002 31.283 29.8597 32.2769 29.5556C32.7807 29.3959 33.3121 29.3436 33.8372 29.4022C34.3622 29.4608 34.8693 29.6289 35.3262 29.8958C35.404 29.9325 35.4774 29.9782 35.5449 30.0318C35.6403 30.1239 35.843 30.2079 35.7317 30.364C35.6744 30.4208 35.5999 30.4568 35.5199 30.4663C35.44 30.4757 35.3592 30.458 35.2904 30.416C35.0886 30.3108 34.8816 30.216 34.6702 30.1319C34.4251 30.0339 34.152 30.0339 33.9069 30.1319C33.247 30.372 32.5592 30.5321 31.9191 30.7922C31.6488 30.8803 31.287 30.8122 31.1836 31.1924Z" fill="#F6D4C2"/>
<path d="M2.62629 66.2382C2.49569 66.0052 2.33083 65.7933 2.13729 65.6099C1.48272 64.9827 1.02675 64.1748 0.826592 63.2877C0.626433 62.4005 0.690999 61.4737 1.01219 60.6233C1.68407 58.9625 2.80519 57.8219 4.59024 57.3896C5.25814 57.2336 5.93399 57.1175 6.57804 56.9454C7.86076 56.6286 8.98875 55.8607 9.75852 54.7803C10.2424 54.1178 10.4865 53.3086 10.4503 52.4871C10.4513 52.4313 10.4375 52.3763 10.4102 52.3277C10.3829 52.2792 10.3432 52.2388 10.2952 52.211C9.48634 51.5994 8.7369 50.912 8.05697 50.1579C6.20036 48.1929 5.27404 45.7876 4.76517 43.1863C4.48179 41.5386 4.42028 39.86 4.58229 38.1957C4.82817 35.7094 5.32232 33.2544 6.05724 30.8679C6.70526 28.5307 7.53219 26.2415 8.22792 23.9163C8.7845 22.0594 9.20195 20.1544 9.8778 18.3334C10.6411 16.2764 11.5674 14.2873 13.0225 12.6265C15.2431 9.98672 18.2772 8.17077 21.6416 7.4678C22.8879 7.23829 24.1486 7.09654 25.4145 7.04359C27.005 6.96249 28.5992 6.99459 30.1852 7.13963C32.8966 7.32499 35.5117 8.22598 37.7674 9.75192C40.023 11.2779 41.8396 13.3749 43.0344 15.8321C43.9961 17.8322 44.7412 19.9307 45.2567 22.0914C45.9604 24.7247 46.8907 27.2941 47.666 29.8994C48.2917 31.9381 48.7975 34.0121 49.1807 36.1106C49.4801 37.8422 49.5762 39.6032 49.4669 41.3573C49.3335 44.1793 48.3949 46.9027 46.7635 49.2014C45.9232 50.3469 44.9073 51.3506 43.754 52.1749C43.6748 52.2251 43.6115 52.2969 43.5714 52.382C43.5312 52.467 43.516 52.5618 43.5273 52.6552C43.567 53.3184 43.7581 53.9634 44.0856 54.5402C44.4131 55.1169 44.8683 55.61 45.4158 55.9809C46.274 56.5891 47.2631 56.9841 48.3021 57.1335C49.4431 57.3416 50.592 57.5898 51.4825 58.4102C52.431 59.2171 53.0555 60.3436 53.2398 61.5798C53.3681 62.3442 53.2975 63.129 53.0348 63.8578C52.7722 64.5865 52.3264 65.2343 51.741 65.738C51.6296 65.838 51.578 65.9741 51.4786 66.0782C51.3792 66.1822 51.407 66.2662 51.4985 66.3743C51.8443 66.7745 52.1942 67.1747 52.5202 67.5749C53.1675 68.4809 53.5913 69.529 53.7566 70.6325C53.9609 71.5607 54.0372 72.5128 53.9832 73.462C53.8699 75.1141 53.5711 76.748 53.0927 78.3325C53.055 78.5203 52.9922 78.7021 52.9058 78.8728C52.8621 78.9488 52.8024 79.0168 52.6991 78.9888C52.5957 78.9608 52.6236 78.8728 52.6156 78.7967C52.6106 78.6333 52.6362 78.4704 52.6911 78.3165C53.0074 77.1059 53.2609 75.8797 53.4505 74.6426C53.6282 73.3262 53.5703 71.9884 53.2795 70.6925C53.1814 70.156 53.035 69.6296 52.8422 69.1197C52.2684 67.8482 51.4032 66.7317 50.3177 65.862C50.0217 65.6757 49.6668 65.6085 49.3238 65.6739C48.2146 65.7056 47.1336 66.0329 46.191 66.6224C45.509 67.0631 44.682 67.2155 43.8891 67.0466C43.3962 66.9506 42.8952 66.8946 42.4023 66.7985C41.1447 66.5951 39.856 66.7333 38.6692 67.1987C38.1642 67.3668 37.6713 67.5589 37.1544 67.699C36.9628 67.759 36.7577 67.759 36.5661 67.699C35.8542 67.4544 35.1139 67.3038 34.3636 67.2508C33.4661 67.1935 32.5683 67.357 31.7476 67.727C31.2944 67.9271 30.8372 68.1272 30.3959 68.3353C29.3924 68.8195 28.2621 68.9709 27.1677 68.7675C26.9779 68.7485 26.7863 68.7579 26.5992 68.7955C25.4399 68.952 24.2611 68.7348 23.2319 68.1752C22.5429 67.8054 21.8093 67.5269 21.0493 67.3468C19.9964 67.1489 18.9106 67.2275 17.8966 67.5749C17.3652 67.7583 16.7865 67.7469 16.2626 67.5429C15.4653 67.2314 14.6435 66.9878 13.8057 66.8145C12.977 66.6869 12.1328 66.7018 11.309 66.8585C10.7445 66.9426 10.1919 67.0947 9.61939 67.1267C9.03482 67.1737 8.45042 67.0337 7.94963 66.7265C7.1542 66.2148 6.25733 65.8843 5.32175 65.758C4.89654 65.6933 4.46462 65.6866 4.03763 65.738C3.7954 65.7904 3.57486 65.9161 3.40551 66.0982C1.8092 67.459 0.795379 69.3869 0.574871 71.4809C0.431822 72.5562 0.423809 73.6453 0.551018 74.7226C0.729921 75.9232 1.00821 77.1239 1.29446 78.3245C1.33295 78.4816 1.36347 78.6405 1.3859 78.8007C1.3859 78.8768 1.3859 78.9608 1.29843 78.9928C1.25678 79.0055 1.21187 79.0013 1.17326 78.9811C1.13465 78.9609 1.10538 78.9264 1.0917 78.8848C1.03604 78.7567 0.980385 78.6246 0.936653 78.4846C0.530001 77.1805 0.247783 75.8405 0.0938258 74.4825C-0.151121 72.5706 0.0853878 70.6274 0.781604 68.8316C1.15134 67.8751 1.84707 67.1587 2.49112 66.4023L2.62629 66.2382ZM40.0288 37.9236C40.0731 37.9138 40.1169 37.9018 40.16 37.8876C40.3912 37.7594 40.5858 37.5736 40.725 37.3479C40.8643 37.1222 40.9435 36.8643 40.9551 36.5989C41.0982 35.4263 41.2215 34.2537 41.2652 33.0771C41.3542 31.0448 41.1643 29.0099 40.7007 27.0299C39.9334 23.8763 38.4505 21.1509 35.8982 19.1058C33.3293 17.0655 30.1613 15.9396 26.8894 15.9042C25.6136 15.9127 24.3471 16.1234 23.1365 16.5285C19.6737 17.537 16.9186 19.506 15.0461 22.6477C13.5036 25.245 12.8834 28.1025 12.7482 31.084C12.6882 33.0511 12.8 35.0197 13.0821 36.9671C13.1443 37.1844 13.2589 37.3828 13.4157 37.5448C13.5724 37.7068 13.7665 37.8273 13.9806 37.8956C13.9827 37.8689 13.9827 37.8421 13.9806 37.8155C13.8126 37.0697 13.6879 36.3147 13.6069 35.5543C13.6069 35.4263 13.5314 35.2222 13.7421 35.2022C13.9528 35.1821 13.9289 35.3702 13.9488 35.5143C14.0681 36.4161 14.2311 37.3073 14.4378 38.1877C14.956 40.3556 15.9611 42.3751 17.3758 44.0908C18.5629 45.6252 19.9328 47.007 21.4548 48.2049C22.533 49.0648 23.8084 49.6386 25.164 49.8738C26.0488 49.9837 26.9414 50.0159 27.8316 49.9698C29.0068 49.953 30.1606 49.651 31.195 49.0894C32.4201 48.399 33.5373 47.5305 34.5107 46.512C35.3058 45.7116 36.0055 44.8712 36.7052 44.0067C37.8542 42.6071 38.7284 41.0005 39.2814 39.2723C39.6516 38.0187 39.9176 36.7363 40.0765 35.4383C40.0964 35.3022 40.1203 35.1742 40.2872 35.1982C40.4542 35.2222 40.4304 35.3623 40.4184 35.4743C40.3787 35.8185 40.3349 36.1587 40.2793 36.4988C40.2077 36.9671 40.1163 37.4313 40.0288 37.9236ZM49.4709 65.3017C49.2967 65.1821 49.1067 65.0878 48.9063 65.0216C47.1849 64.3292 45.3641 64.0091 43.587 63.5168C41.8099 63.0246 40.1044 62.5083 38.5499 61.5158C36.7629 60.4219 35.4265 58.7172 34.785 56.7133C34.1865 54.8313 33.869 52.8702 33.8428 50.8943C33.8229 49.8137 33.807 48.7332 33.8746 47.6326C33.5207 47.9167 33.1868 48.1969 32.8369 48.465C31.295 49.7316 29.3473 50.3889 27.3586 50.314C27.2268 50.2958 27.0939 50.2878 26.961 50.29C26.2221 50.3569 25.4775 50.3151 24.7506 50.1659C23.4622 49.8865 22.2553 49.3113 21.2242 48.485C20.8664 48.2209 20.5285 47.9367 20.1627 47.6446C20.1521 47.9026 20.1641 48.1611 20.1985 48.417C20.1985 49.4055 20.1985 50.394 20.1587 51.3825C20.0908 52.8756 19.8764 54.3582 19.5187 55.8088C18.7235 59.0665 16.684 61.1836 13.6825 62.4443C12.4074 62.9686 11.0926 63.3889 9.75058 63.7009C8.22466 64.0195 6.72231 64.4434 5.25416 64.9696C5.00419 65.0519 4.7652 65.1648 4.54253 65.3057C5.03777 65.3108 5.5315 65.3617 6.01748 65.4578C6.73828 65.5992 7.42782 65.8704 8.05299 66.2582C8.60792 66.6052 9.26862 66.7388 9.91358 66.6344C10.3827 66.5544 10.8518 66.4583 11.3209 66.3823C12.277 66.1983 13.2591 66.1983 14.2152 66.3823C15.1018 66.5744 15.9406 66.9066 16.8033 67.1827C17.0086 67.2508 17.2302 67.2508 17.4354 67.1827C18.7861 66.7139 20.2424 66.6472 21.6297 66.9906C22.4464 67.2645 23.2435 67.5948 24.0151 67.9791C24.8346 68.3296 25.7335 68.4486 26.6151 68.3233C26.879 68.2877 27.1464 68.2877 27.4102 68.3233C27.9784 68.3989 28.5553 68.3759 29.1158 68.2553C29.8508 68.0587 30.5606 67.7766 31.2308 67.4148C32.7026 66.6907 34.3905 66.5479 35.9618 67.0146C36.6581 67.2378 37.4127 67.1862 38.0728 66.8706C38.1149 66.8504 38.1589 66.8343 38.204 66.8225C39.2265 66.421 40.3148 66.2161 41.4123 66.2182C42.1822 66.2566 42.9472 66.3638 43.6983 66.5384C44.09 66.6445 44.4992 66.6687 44.9005 66.6095C45.3019 66.5503 45.687 66.409 46.032 66.1942C46.3672 65.9905 46.7214 65.8203 47.0895 65.6859C47.8577 65.4303 48.6618 65.3006 49.4709 65.3017ZM12.6289 36.1186C12.5574 35.4743 12.4659 34.83 12.4222 34.1816C12.3447 33.0223 12.3447 31.8591 12.4222 30.6998C12.5031 29.18 12.7579 27.6746 13.1815 26.2135C14.4855 21.8352 17.1134 18.6096 21.3275 16.7766C23.0384 16.0795 24.8436 15.6451 26.6827 15.488C27.446 15.4039 28.1895 15.644 28.9488 15.6881C29.3861 15.7161 29.8195 15.7241 30.2568 15.7961C31.1831 15.9522 32.0736 16.2604 32.996 16.4405C33.3187 16.5165 33.657 16.489 33.9635 16.362C34.27 16.235 34.5294 16.0148 34.7055 15.7321C34.8507 15.5066 34.9476 15.2531 34.9901 14.9878C35.0325 14.7225 35.0195 14.4512 34.952 14.1913C34.8569 13.641 34.6332 13.1215 34.2993 12.6754C33.9654 12.2294 33.5309 11.8696 33.0317 11.626C31.1835 10.7325 29.1584 10.2715 27.1081 10.2773C25.369 10.2524 23.641 10.5593 22.0153 11.1817C19.0616 12.3689 16.5174 14.4 14.6962 17.0248C11.9706 20.7089 10.6309 25.2467 10.9154 29.8314C10.9946 31.1115 11.2214 32.378 11.5913 33.6053C11.84 34.4805 12.1882 35.3238 12.6289 36.1186ZM33.0516 16.9087C33.1391 16.9567 33.2305 17.0047 33.322 17.0448C34.5471 17.6264 35.6793 18.3885 36.6813 19.3059C39.2297 21.6431 40.6371 24.6007 41.2891 27.9624C41.4824 29.0067 41.6046 30.063 41.6548 31.124C41.7146 32.3806 41.6747 33.6399 41.5356 34.89C41.4958 35.2902 41.4521 35.6904 41.4044 36.1146C41.4293 36.0974 41.4532 36.0787 41.4759 36.0586L41.5714 35.8825C42.5974 33.6852 43.1399 31.2907 43.1616 28.8629C43.1827 27.4452 43.0332 26.0302 42.7163 24.6487C41.8116 20.2116 39.3871 16.2355 35.8664 13.4149C35.4756 13.086 35.0519 12.7989 34.6021 12.5584C34.9515 13.0849 35.1872 13.6794 35.2939 14.3033C35.3848 14.762 35.3268 15.238 35.1285 15.661C34.9303 16.084 34.6021 16.4316 34.1926 16.6526C33.8329 16.8131 33.445 16.9002 33.0516 16.9087ZM43.6267 51.8228C44.217 51.3708 44.7676 50.8687 45.2726 50.322C46.4862 49.1468 47.3952 47.6903 47.9204 46.0798C48.2726 44.868 48.4939 43.6215 48.5804 42.3619C48.67 41.2801 48.642 40.1918 48.4969 39.1162C48.2948 37.8804 48.0106 36.6597 47.6461 35.4623C47.5085 34.9348 47.3249 34.4205 47.0974 33.9255C47.0837 33.9928 47.0837 34.0623 47.0974 34.1296C47.2014 34.6945 47.2717 35.2651 47.3082 35.8385C47.4058 37.2948 47.3458 38.7575 47.1292 40.2008C46.8722 41.9725 46.4448 43.7149 45.8531 45.4035C45.3005 47.0043 44.561 48.5531 44.076 50.1859C43.8985 50.7234 43.7486 51.2698 43.6267 51.8228ZM10.4225 51.8428C10.2237 51.0184 9.98911 50.266 9.7466 49.5136C9.2894 48.1088 8.64138 46.7802 8.18021 45.3834C7.35798 43.0251 6.86689 40.5627 6.72117 38.0676C6.66997 36.9854 6.71254 35.9008 6.84838 34.826C6.88814 34.5138 6.92392 34.2056 6.9597 33.8935C6.66962 34.559 6.43297 35.2469 6.25204 35.9506C5.84532 37.2753 5.5788 38.6395 5.45692 40.0207C5.38077 41.3432 5.44609 42.6702 5.65173 43.9787C5.91524 46.1615 6.84924 48.2071 8.32334 49.8297C8.96674 50.5578 9.66884 51.2311 10.4225 51.8428ZM52.067 64.9336C52.0804 64.93 52.0926 64.9231 52.1027 64.9135C52.1353 64.879 52.1645 64.8415 52.1902 64.8015C52.7945 63.9066 53.0598 62.823 52.9376 61.7479C52.8414 60.8947 52.509 60.0859 51.9783 59.4137C51.4476 58.7415 50.74 58.2329 49.936 57.9459C48.9683 57.6401 47.9779 57.4126 46.9742 57.2656C47.1758 57.4026 47.3855 57.5269 47.6023 57.6378C48.4854 58.0534 49.3058 58.5923 50.0394 59.2386C50.8291 59.9371 51.4295 60.8262 51.7842 61.8223C52.1388 62.8185 52.2362 63.8891 52.067 64.9336ZM7.06704 57.2976C6.20433 57.4657 5.34163 57.6018 4.49482 57.8099C2.18897 58.3862 0.328384 61.1516 1.35807 63.793C1.50854 64.2281 1.73173 64.6341 2.01802 64.9936C1.92724 64.5822 1.88059 64.1623 1.87887 63.7409C1.92952 62.5665 2.29643 61.428 2.94036 60.4472C3.71432 59.332 4.76402 58.4395 5.98568 57.8579C6.34746 57.6898 6.70924 57.4897 7.06704 57.2976ZM4.97587 41.2893L5.01165 41.3173V40.0087H4.97587V41.2893Z" fill="#493826"/>
<path d="M22.5205 31.3803C22.4728 32.5489 21.4868 33.1813 20.4293 33.1252C19.4593 33.0732 18.4853 32.4049 18.5767 31.1762C18.1324 31.2827 17.6712 31.2976 17.221 31.2203C16.7805 31.1263 16.3818 30.8919 16.084 30.5519C16.1874 30.4318 16.2867 30.4879 16.3782 30.5519C16.6661 30.6847 16.9884 30.7226 17.299 30.6601C17.6095 30.5975 17.8925 30.4378 18.1076 30.2037C18.3757 29.9446 18.6717 29.7164 18.9902 29.5234C19.4318 29.2514 19.9394 29.1074 20.4572 29.1074C20.9749 29.1074 21.4825 29.2514 21.9242 29.5234C21.9727 29.5419 22.0147 29.5747 22.0444 29.6175C22.0742 29.6603 22.0905 29.7112 22.0911 29.7635C20.9303 29.2993 19.7972 29.1312 18.692 30.0076C19.0379 29.9636 19.3162 29.8756 19.6103 29.8435C20.6873 29.7653 21.7515 30.1176 22.5722 30.824C22.7845 30.987 22.9826 31.1677 23.1645 31.3643C23.2029 31.395 23.2294 31.4381 23.2395 31.4863C23.2497 31.5345 23.2428 31.5848 23.2202 31.6285C23.1486 31.7565 23.0493 31.6565 22.9737 31.6285C22.8266 31.5524 22.6875 31.4684 22.5205 31.3803ZM19.4672 32.3328C20.0516 32.8851 21.141 32.8651 21.5584 32.3849C20.888 32.1259 20.1495 32.1075 19.4672 32.3328Z" fill="#493826"/>
<path d="M37.9333 30.5203C37.5675 31.0605 36.7406 31.4487 35.4525 31.1766C35.4868 31.453 35.45 31.7335 35.3456 31.9914C35.2412 32.2494 35.0726 32.4759 34.8562 32.6494C34.5086 32.9376 34.0776 33.1047 33.6277 33.1256C33.1108 33.1709 32.5949 33.029 32.1726 32.7254C31.9729 32.5678 31.8086 32.3693 31.6907 32.143C31.5728 31.9167 31.504 31.6678 31.4888 31.4127L31.0316 31.6448C30.9601 31.6769 30.8766 31.7489 30.809 31.6448C30.7414 31.5408 30.809 31.4808 30.8488 31.4087C31.0553 31.1567 31.2978 30.9368 31.5684 30.7564C32.3503 30.1142 33.3441 29.7926 34.3513 29.8559C34.6916 29.8964 35.0289 29.9593 35.3611 30.044C34.8861 29.6348 34.2846 29.4042 33.6595 29.3917C33.0642 29.412 32.4783 29.5479 31.9341 29.7919C31.9341 29.5958 32.0852 29.5558 32.1925 29.4957C33.3852 28.8514 34.6972 29.0635 35.7706 30.072C35.9514 30.2557 36.1576 30.412 36.3828 30.5363C36.5638 30.6376 36.7654 30.6957 36.9722 30.7061C37.179 30.7165 37.3854 30.6789 37.5755 30.5963C37.6749 30.5203 37.7942 30.4282 37.9333 30.5203ZM32.4549 32.3932C32.7594 32.6337 33.1376 32.7597 33.5244 32.7495C33.9113 32.7393 34.2824 32.5934 34.5739 32.3372C33.8829 32.1054 33.1329 32.1252 32.4549 32.3932Z" fill="#493826"/>
<path d="M29.5931 27.9506C29.8356 27.4423 30.2729 27.3743 30.6705 27.2342C31.9145 26.75 33.2411 26.5174 34.5745 26.5499C35.0218 26.5614 35.4591 26.6853 35.8467 26.91C36.5902 27.3503 37.3614 27.7465 38.081 28.2307C38.1088 28.2307 38.1367 28.2787 38.1724 28.3108C37.5687 28.2337 36.9709 28.1147 36.3834 27.9546C35.4112 27.7325 34.4018 27.7325 33.4295 27.9546C31.9797 28.2872 30.5676 28.7686 29.2154 29.3913C29.0802 29.4473 28.949 29.5314 28.8178 29.3913C28.6866 29.2512 28.464 29.1472 28.6151 28.8671C28.8059 28.4721 29.0237 28.091 29.2671 27.7265C29.3347 27.6304 29.3983 27.5144 29.5374 27.5624C29.6766 27.6104 29.5772 27.7585 29.5931 27.9506Z" fill="#493826"/>
<path d="M15.9453 28.2708C16.5258 27.8226 17.2016 27.5384 17.786 27.1222C18.6646 26.5019 19.6426 26.4859 20.6325 26.5739C21.6629 26.698 22.6738 26.9508 23.6421 27.3263C23.8102 27.3566 23.9684 27.4279 24.1029 27.5339C24.2373 27.64 24.3439 27.7775 24.4134 27.9346C24.4571 27.7626 24.306 27.6185 24.477 27.5545C24.6479 27.4904 24.6996 27.6385 24.7672 27.7345C25.0246 28.0909 25.2369 28.478 25.3993 28.8871C25.4351 28.9792 25.5583 29.1393 25.3993 29.1873C25.2403 29.2353 25.1727 29.5875 24.8308 29.4154C24.0425 29.0393 23.2327 28.7105 22.4057 28.4309C21.3498 28.0586 20.2469 27.839 19.1298 27.7786C18.4459 27.7638 17.7649 27.8709 17.1181 28.0947C16.7352 28.1988 16.3417 28.2579 15.9453 28.2708Z" fill="#493826"/>
<path d="M33.2903 13.4062C33.4095 13.4743 33.6361 13.4063 33.664 13.6464C33.6684 13.6709 33.6664 13.6961 33.6579 13.7195C33.6495 13.7429 33.635 13.7636 33.616 13.7795C33.5969 13.7954 33.574 13.8059 33.5496 13.81C33.5252 13.814 33.5002 13.8114 33.4771 13.8025C33.3181 13.7544 33.0796 13.8025 33.0477 13.5583C33.0239 13.4143 33.1551 13.4062 33.2903 13.4062Z" fill="#493826"/>
<path d="M33.4495 14.2152C33.3223 14.2152 33.1553 14.2152 33.1514 14.0191C33.1514 13.875 33.2667 13.863 33.378 13.871C33.4893 13.879 33.6881 13.871 33.708 14.0671C33.7278 14.2632 33.5768 14.2112 33.4495 14.2152Z" fill="#493826"/>
<path d="M33.4297 14.676C33.3224 14.676 33.2031 14.676 33.2031 14.5319C33.2031 14.3878 33.3463 14.3518 33.4695 14.3398C33.5928 14.3278 33.7001 14.3718 33.7001 14.4919C33.7001 14.6119 33.5649 14.676 33.4297 14.676Z" fill="#493826"/>
</g>
</svg>
