<svg width="54" height="54" viewBox="0 0 54 54" fill="none" xmlns="http://www.w3.org/2000/svg">
<circle cx="27" cy="27" r="27" fill="#FBEBF2"/>
<mask id="mask0_59_7072" style="mask-type:alpha" maskUnits="userSpaceOnUse" x="0" y="0" width="54" height="54">
<circle cx="27" cy="27" r="27" fill="#FBEBF2"/>
</mask>
<g mask="url(#mask0_59_7072)">
<path d="M27.0132 26.7554C26.4601 26.7851 25.9167 26.6004 25.4947 26.2392C24.1908 25.2427 22.6723 24.8625 21.122 24.6064C20.0964 24.4423 19.051 24.4623 18.0452 24.1582L17.6954 24.0461C17.4989 23.9996 17.3167 23.9052 17.1649 23.7712C17.0131 23.6371 16.8963 23.4676 16.8249 23.2775C16.7534 23.0874 16.7295 22.8825 16.7551 22.6809C16.7807 22.4793 16.8552 22.2871 16.9719 22.1212C17.2487 21.6631 17.6025 21.2569 18.0174 20.9206C19.3145 19.7415 20.8265 18.8269 22.4696 18.2274C23.4502 17.9251 24.4582 17.7213 25.4788 17.6191C26.312 17.515 27.1533 17.4909 27.9911 17.547C30.8607 17.6708 33.6047 18.7665 35.7784 20.6565C36.2146 21.0157 36.6141 21.4179 36.9709 21.8571C37.1461 22.0733 37.2637 22.3308 37.3128 22.6054C37.375 22.9057 37.3207 23.2185 37.161 23.4797C37.0013 23.7409 36.7484 23.9307 36.4542 24.0101C35.5989 24.2722 34.7153 24.4295 33.8226 24.4783C32.453 24.583 31.11 24.9143 29.8475 25.4588C29.4274 25.6636 29.028 25.9088 28.6549 26.1912C28.1974 26.58 27.6114 26.7815 27.0132 26.7554Z" fill="#EFBFBF"/>
<path d="M34.9191 39.3372C33.6611 39.3339 32.4396 38.9118 31.4448 38.1366C30.7701 37.6582 30.2238 37.0188 29.8547 36.2758C29.7385 36.066 29.6707 35.8327 29.6562 35.593C29.6418 35.3533 29.6811 35.1134 29.7712 34.8911C29.8774 34.6212 30.071 34.3954 30.3207 34.2501C30.5703 34.1048 30.8613 34.0487 31.1466 34.0907C31.5754 34.1107 32.0027 34.1548 32.4266 34.2228C33.0457 34.2871 33.6706 34.182 34.2353 33.9186C34.9084 33.5836 35.6201 33.3336 36.3541 33.1743C36.5884 33.105 36.8355 33.0909 37.0761 33.1333C37.3167 33.1756 37.5443 33.2732 37.7414 33.4184C37.9422 33.5805 38.0904 33.7993 38.1669 34.0467C38.2434 34.2941 38.2447 34.5589 38.1707 34.8071C37.8961 36.0329 37.3959 37.1962 36.6959 38.2367C36.1593 38.961 35.4557 39.3612 34.9191 39.3372Z" fill="#EFBFBF"/>
<path d="M19.4766 39.3135C19.075 39.338 18.6738 39.2599 18.3103 39.0863C17.9468 38.9128 17.6328 38.6496 17.3976 38.321C16.6111 37.2349 16.0809 35.9826 15.8473 34.6593C15.6684 33.7909 16.2885 33.1506 17.163 33.1426C17.9537 33.1896 18.7257 33.4037 19.4289 33.7709C20.0561 34.1004 20.757 34.2616 21.4641 34.2391C21.8815 34.1991 22.2989 34.1591 22.7123 34.107C23.0347 34.0711 23.3608 34.115 23.6624 34.2351C23.9083 34.3739 24.1069 34.5841 24.2324 34.8382C24.3579 35.0924 24.4044 35.3786 24.366 35.6598C24.2342 36.2835 23.9248 36.855 23.4756 37.3046C22.582 38.3477 21.3623 39.0534 20.0172 39.3055C19.9716 39.3176 19.925 39.3257 19.8781 39.3295L19.4766 39.3135Z" fill="#EFBFBF"/>
<path d="M22.7871 31.2001C22.6761 31.0314 22.5056 30.9113 22.3101 30.864C21.5151 30.5678 20.6763 30.3637 19.8773 30.0636C19.7709 30.0237 19.6538 30.0237 19.5474 30.0636C19.2997 30.1293 19.0598 30.2219 18.8319 30.3397C18.7569 30.3834 18.6784 30.4209 18.5973 30.4518C18.5315 30.4842 18.457 30.4939 18.3851 30.4794C18.3133 30.465 18.2482 30.4271 18.1998 30.3717C18.1084 30.2397 18.2714 30.1436 18.3628 30.0836C18.7745 29.7824 19.2448 29.5722 19.7428 29.4666C20.2408 29.3611 20.7554 29.3627 21.2527 29.4713C22.0086 29.6184 22.6815 30.0471 23.137 30.6719C23.292 30.888 23.4908 31.0721 23.6617 31.2802C23.7412 31.3722 23.8445 31.4643 23.773 31.6083C23.7014 31.7524 23.5901 31.7204 23.4749 31.7244C23.2559 31.7305 23.038 31.691 22.8348 31.6083C22.5884 31.4963 22.5725 31.3922 22.7871 31.2001Z" fill="#F6D4C2"/>
<path d="M31.1786 31.2003C31.3813 31.4124 31.3575 31.4964 31.0713 31.6005C30.8475 31.6826 30.6095 31.718 30.3717 31.7045C30.1769 31.6845 30.0457 31.5524 30.1769 31.4004C30.797 30.704 31.278 29.8636 32.2718 29.5595C32.7756 29.3998 33.3069 29.3475 33.8319 29.4061C34.3568 29.4647 34.8639 29.6328 35.3207 29.8996C35.398 29.9368 35.4701 29.9839 35.5354 30.0397C35.6348 30.1278 35.8375 30.2158 35.7262 30.3679C35.6692 30.4253 35.5947 30.4617 35.5146 30.4712C35.4345 30.4806 35.3536 30.4626 35.285 30.4199C35.0782 30.3198 34.8874 30.2158 34.6648 30.1358C34.4197 30.0377 34.1467 30.0377 33.9016 30.1358C33.2417 30.3759 32.55 30.5359 31.914 30.7961C31.6437 30.8961 31.282 30.8281 31.1786 31.2003Z" fill="#F6D4C2"/>
<path d="M2.62519 66.2578C2.49434 66.0237 2.32954 65.8106 2.13624 65.6255C1.48175 64.9983 1.02583 64.1904 0.825691 63.3033C0.625555 62.4162 0.69012 61.4894 1.01127 60.6391C1.68308 58.9783 2.80407 57.8378 4.58891 57.4056C5.25674 57.2495 5.92854 57.1334 6.57649 56.9613C7.85876 56.6462 8.98675 55.8797 9.75661 54.8003C10.2393 54.1357 10.4832 53.3257 10.4483 52.5032C10.4485 52.4476 10.4343 52.3929 10.4071 52.3445C10.3799 52.2961 10.3407 52.2556 10.2933 52.2271C9.48353 51.6167 8.73406 50.9292 8.05525 50.1741C6.19885 48.2092 5.27264 45.804 4.76382 43.2028C4.48055 41.5565 4.41905 39.8793 4.58097 38.2164C4.82699 35.7293 5.31971 33.2732 6.05177 30.8849C6.70369 28.5478 7.53052 26.2627 8.22617 23.9336C8.7827 22.0767 9.20008 20.1758 9.87586 18.331C10.6391 16.274 11.5653 14.285 13.0202 12.6242C15.2427 9.98722 18.2755 8.17192 21.6383 7.46579C22.8845 7.23629 24.145 7.09454 25.4108 7.04159C26.9932 6.9634 28.5791 6.99549 30.1571 7.13764C32.8689 7.32231 35.4845 8.22294 37.7407 9.74885C39.9968 11.2748 41.8138 13.3721 43.0088 15.8298C43.9704 17.8298 44.7154 19.9282 45.2309 22.0888C45.9345 24.722 46.8647 27.2912 47.6398 29.8965C48.2655 31.935 48.7712 34.0089 49.1544 36.1074C49.452 37.8391 49.548 39.5998 49.4406 41.3539C49.3155 44.1778 48.3838 46.9055 46.7573 49.2097C45.918 50.3547 44.9021 51.3572 43.7481 52.1791C43.6687 52.2287 43.6053 52.3005 43.5658 52.3858C43.5263 52.4711 43.5123 52.5661 43.5255 52.6593C43.5652 53.3224 43.7562 53.9674 44.0837 54.5442C44.4112 55.1209 44.8663 55.6139 45.4137 55.9849C46.271 56.5947 47.2603 56.9898 48.2997 57.1374C49.4406 57.3455 50.5894 57.5936 51.4798 58.414C52.4307 59.2193 53.0569 60.3463 53.2408 61.5835C53.3695 62.3483 53.2986 63.1335 53.0352 63.8624C52.7718 64.5913 52.3249 65.2388 51.7382 65.7415C51.6309 65.8416 51.5752 65.9776 51.4798 66.0817C51.3844 66.1857 51.4083 66.2738 51.4997 66.3778C51.8455 66.778 52.1914 67.1782 52.5173 67.5784C53.1675 68.4831 53.5928 69.5316 53.7576 70.6358C53.9599 71.5643 54.0362 72.5161 53.9842 73.4652C53.8712 75.1173 53.5725 76.7512 53.0937 78.3355C53.0561 78.5233 52.9933 78.7051 52.9069 78.8758C52.8632 78.9518 52.7996 79.0198 52.7002 78.9918C52.6008 78.9638 52.6247 78.8758 52.6167 78.7997C52.6117 78.6363 52.6373 78.4734 52.6922 78.3195C53.0085 77.109 53.2619 75.8828 53.4515 74.6458C53.6292 73.3294 53.5713 71.9917 53.2806 70.6959C53.1812 70.161 53.0348 69.636 52.8433 69.1271C52.2693 67.8547 51.4043 66.737 50.3191 65.8656C50.0231 65.6792 49.6683 65.6121 49.3253 65.6775C48.216 65.708 47.1348 66.0354 46.1929 66.6259C45.8559 66.8457 45.4791 66.9964 45.0841 67.0692C44.6891 67.142 44.2837 67.1355 43.8912 67.0501C43.3983 66.9541 42.8975 66.9021 42.4045 66.802C41.147 66.6027 39.8595 66.7407 38.6719 67.2022C38.167 67.3703 37.6701 67.5664 37.1573 67.7025C36.9658 67.7625 36.7606 67.7625 36.569 67.7025C35.8567 67.4598 35.1168 67.3092 34.3668 67.2542C33.4694 67.197 32.5717 67.3604 31.7511 67.7305C31.298 67.9306 30.8408 68.1307 30.3996 68.3428C29.3955 68.8248 28.2661 68.9761 27.1718 68.775C26.9821 68.7519 26.7899 68.7613 26.6033 68.803C25.4442 68.9552 24.2668 68.7383 23.2364 68.1827C22.5484 67.8098 21.8146 67.5299 21.054 67.3503C19.9999 67.1526 18.913 67.2312 17.8977 67.5784C17.3681 67.7642 16.7899 67.7529 16.2679 67.5464C15.4705 67.2355 14.6488 66.9918 13.8113 66.818C12.9826 66.6904 12.1385 66.7053 11.3149 66.8621C10.7504 66.9461 10.1978 67.0982 9.62542 67.1302C9.04111 67.1748 8.45753 67.0349 7.95587 66.73C7.16127 66.2161 6.26429 65.8842 5.32828 65.7575C4.90313 65.6929 4.47126 65.6861 4.04432 65.7375C3.80093 65.7922 3.5794 65.9191 3.40829 66.1017C1.81422 67.462 0.801996 69.3882 0.581951 71.4802C0.438919 72.5555 0.430907 73.6446 0.558101 74.7218C0.736983 75.9224 1.01525 77.1229 1.30147 78.3235C1.33996 78.4806 1.37046 78.6395 1.39289 78.7997C1.39289 78.8758 1.39289 78.9638 1.30543 78.9918C1.28482 78.9986 1.26307 79.0012 1.24145 78.9995C1.21983 78.9977 1.19877 78.9916 1.17952 78.9815C1.16027 78.9715 1.14321 78.9576 1.12934 78.9409C1.11546 78.9241 1.10505 78.9047 1.09873 78.8838C1.04308 78.7557 0.987418 78.6236 0.943692 78.4836C0.5348 77.1802 0.252568 75.84 0.100961 74.4817C-0.152968 72.5722 0.0739441 70.6291 0.760838 68.831C1.13053 67.8745 1.82618 67.1582 2.47413 66.4018C2.5258 66.3658 2.57351 66.3178 2.62519 66.2578ZM40.0234 37.9403C40.0682 37.9325 40.1121 37.9204 40.1546 37.9043C40.3853 37.7756 40.5794 37.5896 40.7186 37.3641C40.8577 37.1385 40.9373 36.8809 40.9496 36.6157C41.0888 35.4431 41.216 34.2746 41.2557 33.098C41.3482 31.0646 41.1596 29.0282 40.6952 27.0471C39.928 23.8936 38.4453 21.1683 35.8932 19.1233C33.3247 17.0831 30.1571 15.9573 26.8855 15.9218C25.61 15.9319 24.3439 16.1426 23.133 16.5461C19.6706 17.5586 16.9159 19.5235 15.0436 22.665C13.5012 25.2623 12.8811 28.1196 12.742 31.105C12.6856 33.0708 12.7986 35.0378 13.0798 36.9838C13.1404 37.2019 13.2544 37.4012 13.4114 37.5634C13.5683 37.7257 13.7632 37.8456 13.9782 37.9123C13.9803 37.8856 13.9803 37.8589 13.9782 37.8322C13.8083 37.0869 13.6836 36.3318 13.6046 35.5712C13.6046 35.4431 13.529 35.239 13.7397 35.223C13.9504 35.207 13.9266 35.3871 13.9464 35.5312C14.0633 36.4302 14.2265 37.3225 14.4354 38.2044C14.9535 40.3722 15.9584 42.3916 17.373 44.1072C18.556 45.6423 19.9217 47.0253 21.4396 48.2252C22.5177 49.0851 23.7929 49.6588 25.1484 49.894C26.0329 50.006 26.9256 50.0381 27.8157 49.99C28.9902 49.9728 30.1434 49.6722 31.1787 49.1136C32.4022 48.4213 33.518 47.5516 34.49 46.5324C35.285 45.732 35.9886 44.8916 36.6883 44.0312C37.8366 42.6305 38.7095 41.0224 39.2602 39.2929C39.6322 38.0399 39.8982 36.7574 40.0552 35.4591C40.0751 35.323 40.099 35.195 40.2659 35.219C40.4329 35.243 40.409 35.3831 40.3971 35.4991C40.3534 35.8393 40.3136 36.1795 40.258 36.5196C40.2023 36.9838 40.1109 37.4481 40.0234 37.9403ZM49.4644 65.3173C49.2893 65.1968 49.0979 65.1025 48.896 65.0372C47.1787 64.3449 45.3581 64.0247 43.5812 63.5325C41.8043 63.0402 40.099 62.524 38.5407 61.5315C36.756 60.4352 35.4205 58.7315 34.7762 56.7292C34.1824 54.8464 33.8676 52.8857 33.8421 50.9105C33.8222 49.83 33.8063 48.7494 33.8739 47.6489C33.5201 47.9331 33.1862 48.2132 32.8363 48.4813C31.294 49.7473 29.3473 50.4058 27.3586 50.3342C27.2272 50.3127 27.0941 50.3033 26.9611 50.3062C26.2209 50.373 25.4751 50.3312 24.7469 50.1821C23.4604 49.9033 22.2552 49.3295 21.2249 48.5053C20.8672 48.2372 20.5253 47.9531 20.1636 47.6649C20.153 47.9216 20.165 48.1787 20.1993 48.4333C20.1993 49.4218 20.1993 50.4102 20.1596 51.4027C20.0953 52.894 19.8849 54.3752 19.5315 55.8248C18.7365 59.0864 16.6972 61.1994 13.696 62.464C12.4204 62.9852 11.1058 63.404 9.76456 63.7166C8.23881 64.0352 6.73663 64.459 5.26866 64.9852C5.01766 65.0697 4.77748 65.1839 4.55314 65.3253C5.04821 65.329 5.54188 65.3785 6.02792 65.4734C6.74957 65.6159 7.44016 65.8869 8.06717 66.2738C8.6219 66.621 9.28264 66.7546 9.92754 66.65C10.3966 66.5699 10.8657 66.4739 11.3347 66.3978C12.2907 66.2138 13.2727 66.2138 14.2287 66.3978C15.1151 66.5899 15.9539 66.9221 16.8165 67.1982C17.0217 67.2663 17.2433 67.2663 17.4485 67.1982C18.799 66.7294 20.2551 66.6627 21.6423 67.0061C22.4583 67.2818 23.2551 67.612 24.0274 67.9946C24.8468 68.3451 25.7456 68.4641 26.6272 68.3388C26.891 68.3031 27.1584 68.3031 27.4222 68.3388C27.9901 68.4156 28.5669 68.394 29.1275 68.2747C29.8618 68.0743 30.5712 67.791 31.2423 67.4303C32.714 66.7062 34.4017 66.5635 35.9727 67.0301C36.6677 67.2534 37.421 67.2019 38.0796 66.8861C38.1233 66.8861 38.171 66.854 38.2147 66.838C39.237 66.4408 40.323 66.236 41.4187 66.2337C42.19 66.2732 42.9562 66.3817 43.7084 66.5579C44.1005 66.6623 44.5095 66.6852 44.9107 66.6253C45.3118 66.5655 45.6967 66.4241 46.0418 66.2097C46.3766 66.0053 46.7308 65.835 47.0992 65.7015C47.8627 65.4493 48.6609 65.3197 49.4644 65.3173ZM12.6267 36.1354C12.5551 35.4911 12.4597 34.8468 12.42 34.1985C12.3365 33.0397 12.3285 31.8767 12.3961 30.7169C12.4841 29.1967 12.7442 27.6915 13.1713 26.2307C14.4751 21.8526 17.1027 18.6271 21.3164 16.7942C23.027 16.0971 24.832 15.6627 26.6709 15.5056C27.4341 15.4216 28.1775 15.6657 28.9367 15.7097C29.3729 15.7205 29.8082 15.7552 30.2406 15.8138C31.1708 15.9738 32.0612 16.278 32.9834 16.4581C33.3061 16.5341 33.6444 16.5066 33.9508 16.3796C34.2573 16.2526 34.5167 16.0324 34.6927 15.7497C34.8368 15.5238 34.9331 15.2703 34.9755 15.0052C35.0179 14.7401 35.0055 14.4691 34.9392 14.209C34.844 13.6583 34.6199 13.1383 34.2853 12.6922C33.9507 12.2461 33.5153 11.8867 33.0152 11.6438C31.1651 10.7482 29.1372 10.287 27.0843 10.2951C25.3513 10.2766 23.6304 10.5876 22.012 11.2116C19.0588 12.3951 16.5147 14.4235 14.6937 17.0464C11.9678 20.73 10.6282 25.2678 10.9134 29.8524C10.9905 31.1327 11.2174 32.3994 11.5892 33.6262C11.8374 34.5002 12.1856 35.3423 12.6267 36.1354ZM33.047 16.9263L33.3173 17.0624C34.5422 17.6425 35.6743 18.4032 36.6763 19.3194C39.2244 21.6565 40.6276 24.618 41.2836 27.9756C41.4768 29.0198 41.599 30.0761 41.6493 31.1371C41.709 32.3935 41.6691 33.6528 41.53 34.9028C41.4903 35.303 41.4426 35.7032 41.3988 36.1314C41.4235 36.1141 41.4462 36.0939 41.4664 36.0714C41.5012 36.0144 41.5331 35.9557 41.5618 35.8953C42.5892 33.6986 43.1317 31.3039 43.1519 28.876C43.171 27.4585 43.0215 26.0437 42.7066 24.662C41.8056 20.2277 39.3856 16.2531 35.8694 13.4326C35.4808 13.1029 35.0583 12.8158 34.6093 12.5762C34.9577 13.1046 35.1932 13.7002 35.3009 14.3251C35.3913 14.7836 35.3325 15.2592 35.1335 15.6815C34.9345 16.1039 34.6057 16.4505 34.1959 16.6702C33.8341 16.8335 33.4434 16.922 33.047 16.9303V16.9263ZM43.6209 51.8349C44.2092 51.3821 44.7596 50.8816 45.2666 50.3382C46.4788 49.1605 47.3875 47.7031 47.9141 46.0922C48.2666 44.8805 48.4878 43.634 48.574 42.3744C48.6623 41.2926 48.6329 40.2043 48.4865 39.1289C48.2888 37.8936 48.0045 36.674 47.6358 35.4791C47.5031 34.9501 47.3194 34.4354 47.0873 33.9424C47.0754 34.0099 47.0754 34.079 47.0873 34.1465C47.1892 34.7103 47.2596 35.2795 47.2979 35.8513C47.3942 37.3077 47.3329 38.7703 47.1151 40.2134C46.8613 41.9853 46.4353 43.7278 45.8431 45.4159C45.2905 47.0166 44.5471 48.5653 44.0622 50.2181C43.9032 50.7264 43.7362 51.2506 43.6209 51.8389V51.8349ZM10.4165 51.8549C10.2217 51.0305 9.98717 50.2782 9.74071 49.5258C9.28754 48.1211 8.63959 46.7965 8.17848 45.3958C7.35406 43.0382 6.86296 40.5756 6.71959 38.0804C6.6684 36.9982 6.71097 35.9136 6.8468 34.8388C6.88655 34.5307 6.91835 34.2185 6.9581 33.9064C6.66738 34.573 6.43075 35.2623 6.25052 35.9674C5.84161 37.2901 5.57507 38.6532 5.45549 40.0333C5.36568 41.3599 5.42034 42.6925 5.61848 44.0072C5.88196 46.1899 6.81585 48.2353 8.28978 49.858C8.94129 50.5842 9.65273 51.2536 10.4165 51.8589V51.8549ZM52.0443 64.9451C52.059 64.9419 52.0726 64.935 52.084 64.9251C52.1166 64.8906 52.1458 64.8531 52.1715 64.8131C52.7752 63.9194 53.0403 62.8374 52.9188 61.7636C52.8233 60.9098 52.4913 60.1002 51.9606 59.4272C51.4299 58.7543 50.722 58.2451 49.9176 57.9578C48.95 57.652 47.9597 57.4245 46.9561 57.2775C47.1576 57.4145 47.3674 57.5388 47.5842 57.6497C48.4678 58.064 49.2883 58.603 50.0209 59.2504C50.8123 59.9483 51.4135 60.838 51.7676 61.8353C52.1217 62.8326 52.2169 63.9044 52.0443 64.9491V64.9451ZM7.06544 57.3135C6.20283 57.4816 5.34022 57.6177 4.49351 57.8298C2.18792 58.406 0.327546 61.1673 1.35711 63.8086C1.50513 64.2448 1.72852 64.6512 2.01699 65.0092C1.92622 64.5979 1.87957 64.1779 1.87786 63.7566C1.9273 62.5819 2.29428 61.4432 2.93923 60.463C3.7131 59.3479 4.76268 58.4554 5.98419 57.8738C6.34991 57.7057 6.7037 57.5056 7.06544 57.3135ZM4.9745 41.3299L5.0063 41.3539V40.0453H4.9745V41.3299Z" fill="#493826"/>
<path d="M22.5128 31.3978C22.4691 32.5664 21.4833 33.1987 20.4259 33.1427C19.456 33.0906 18.482 32.4223 18.5695 31.1937C18.1268 31.3022 17.6666 31.3172 17.2179 31.2377C16.7769 31.1454 16.3777 30.9108 16.0811 30.5694C16.1844 30.4534 16.2798 30.5054 16.3752 30.5694C16.6625 30.704 16.9848 30.7431 17.2956 30.6813C17.6064 30.6194 17.8896 30.4597 18.1044 30.2253C18.3724 29.9649 18.6684 29.7354 18.9869 29.5409C19.4285 29.2689 19.9361 29.125 20.4537 29.125C20.9714 29.125 21.479 29.2689 21.9206 29.5409C21.9688 29.5599 22.0104 29.5928 22.0401 29.6355C22.0699 29.6783 22.0863 29.7289 22.0875 29.7811C20.9268 29.3168 19.7938 29.1528 18.6888 30.0252C19.0346 29.9811 19.3129 29.8931 19.607 29.8651C20.6836 29.7831 21.7486 30.1343 22.5685 30.8416C22.7798 31.0056 22.9779 31.1863 23.1608 31.3818C23.1979 31.4134 23.2235 31.4565 23.2336 31.5043C23.2437 31.5521 23.2376 31.6019 23.2164 31.6459C23.1409 31.774 23.0455 31.674 22.97 31.6459C22.8229 31.5699 22.6838 31.4899 22.5128 31.3978ZM19.448 32.3503C20.0324 32.9025 21.1215 32.8825 21.535 32.4023C20.8661 32.1433 20.1288 32.1249 19.448 32.3503Z" fill="#493826"/>
<path d="M37.9286 30.5407C37.5628 31.077 36.736 31.4652 35.4481 31.193C35.4848 31.4695 35.449 31.7509 35.3445 32.0092C35.2399 32.2675 35.07 32.4938 34.8518 32.6657C34.5034 32.9525 34.0729 33.1193 33.6235 33.142C33.1066 33.1883 32.5903 33.0463 32.1686 32.7418C31.9687 32.5834 31.8044 32.3841 31.6866 32.1572C31.5687 31.9303 31.5 31.6808 31.4849 31.4251C31.3139 31.5092 31.1708 31.5892 31.0277 31.6572C30.9562 31.6893 30.8727 31.7653 30.8051 31.6572C30.7375 31.5492 30.8051 31.4932 30.8449 31.4211C31.0514 31.1691 31.2938 30.9493 31.5644 30.7688C32.3462 30.1267 33.3399 29.8051 34.347 29.8684C34.6872 29.9089 35.0245 29.9717 35.3566 30.0565C34.8817 29.6472 34.2803 29.4167 33.6553 29.4042C33.0602 29.4265 32.4748 29.5623 31.9301 29.8044C31.9301 29.6083 32.0811 29.5682 32.1885 29.5122C33.381 28.8639 34.6928 29.076 35.7661 30.0885C35.9489 30.2697 36.1548 30.4258 36.3783 30.5527C36.5592 30.6542 36.7611 30.7121 36.968 30.7219C37.1749 30.7316 37.3813 30.6929 37.5708 30.6087C37.6702 30.5367 37.7894 30.4447 37.9286 30.5407ZM32.4508 32.4016C32.7547 32.642 33.1327 32.7676 33.519 32.7566C33.9053 32.7456 34.2756 32.5988 34.5656 32.3416C33.8755 32.111 33.1269 32.1323 32.4508 32.4016Z" fill="#493826"/>
<path d="M29.5886 27.9678C29.8311 27.4596 30.2683 27.3916 30.6659 27.2555C31.9095 26.77 33.236 26.5361 34.5694 26.5672C35.0166 26.5788 35.4539 26.7026 35.8415 26.9274C36.5849 27.3676 37.356 27.7638 38.0755 28.248C38.1034 28.248 38.1312 28.296 38.167 28.328C37.5629 28.2529 36.9651 28.1339 36.3781 27.9718C35.4047 27.7497 34.3941 27.7497 33.4206 27.9718C31.9724 28.3051 30.5619 28.7865 29.2109 29.4085C29.0758 29.4646 28.9446 29.5486 28.8134 29.4085C28.6823 29.2685 28.4636 29.1684 28.6147 28.8843C28.8054 28.4893 29.0233 28.1082 29.2666 27.7437C29.3342 27.6517 29.3978 27.5316 29.5369 27.5837C29.676 27.6357 29.5727 27.7758 29.5886 27.9678Z" fill="#493826"/>
<path d="M15.9541 28.2882C16.5345 27.84 17.2103 27.5599 17.7946 27.1437C18.6731 26.5194 19.647 26.5034 20.6408 26.5914C21.671 26.7155 22.6818 26.9682 23.65 27.3438C23.8175 27.3743 23.9751 27.4458 24.1088 27.5518C24.2426 27.6579 24.3485 27.7953 24.4172 27.9521C24.4649 27.784 24.3138 27.6359 24.4848 27.5719C24.6557 27.5079 24.7074 27.6559 24.775 27.752C25.0315 28.1088 25.2438 28.4959 25.407 28.9045C25.4428 28.9966 25.566 29.1607 25.407 29.2047C25.248 29.2487 25.1804 29.6049 24.8386 29.4368C24.0504 29.0594 23.2407 28.7293 22.4137 28.4483C21.3575 28.078 20.2549 27.8584 19.1382 27.796C18.4544 27.7809 17.7734 27.888 17.1268 28.1122C16.7439 28.2162 16.3504 28.2753 15.9541 28.2882Z" fill="#493826"/>
<path d="M33.2854 13.4285C33.4006 13.4925 33.6312 13.4285 33.655 13.6686C33.6596 13.6926 33.6577 13.7173 33.6495 13.7403C33.6413 13.7633 33.6271 13.7836 33.6084 13.7992C33.5897 13.8147 33.5672 13.8249 33.5432 13.8287C33.5192 13.8325 33.4947 13.8297 33.4722 13.8206C33.3132 13.7726 33.0747 13.8206 33.0429 13.5765C33.019 13.4325 33.1502 13.4245 33.2854 13.4285Z" fill="#493826"/>
<path d="M33.4446 14.2326C33.3174 14.2326 33.1505 14.2326 33.1465 14.0365C33.1465 13.8964 33.2618 13.8804 33.3731 13.8884C33.4844 13.8964 33.6831 13.9084 33.703 14.0845C33.7229 14.2606 33.5718 14.2286 33.4446 14.2326Z" fill="#493826"/>
<path d="M33.4444 14.6927C33.337 14.6927 33.2178 14.6927 33.2178 14.5486C33.2178 14.4045 33.3609 14.3725 33.4801 14.3565C33.5994 14.3405 33.7147 14.3885 33.7147 14.5126C33.7147 14.6366 33.5557 14.6927 33.4444 14.6927Z" fill="#493826"/>
</g>
<circle cx="27" cy="27" r="27" fill="#FBEBF2"/>
<path d="M35.9878 19.0695C33.3711 17.12 31.7355 16.431 28.4878 16.07C27.0412 15.596 25.9903 15.6991 23.9878 16.0695C20.9346 17.0296 19.7051 17.7095 17.9878 19.0695C16.5134 20.2355 15.8673 21.0291 14.9878 22.5695L13.4878 25.5691L12.9878 28.0691C12.3655 31.0295 12.3406 32.9455 12.9878 37.0695L14.9878 41.0695L18.9878 46.5695C21.0475 48.8288 22.3915 49.4393 25.4878 50.0693C27.719 50.1881 28.8964 50.4323 30.9878 49.5695C33.4009 48.0614 34.6089 46.9729 36.4878 44.5695L40.9878 37.5695L41.4878 32.0695C41.4241 29.2292 41.143 27.6032 39.9878 24.5695C38.7817 21.7936 37.8273 20.7252 35.9878 19.0695Z" fill="#F6D4C2"/>
<mask id="mask1_59_7072" style="mask-type:alpha" maskUnits="userSpaceOnUse" x="0" y="0" width="54" height="54">
<circle cx="27" cy="27" r="27" fill="#FBEBF2"/>
</mask>
<g mask="url(#mask1_59_7072)">
<path d="M27.0132 26.7554C26.4601 26.7851 25.9167 26.6004 25.4947 26.2392C24.1908 25.2427 22.6723 24.8625 21.122 24.6064C20.0964 24.4423 19.051 24.4623 18.0452 24.1582L17.6954 24.0461C17.4989 23.9996 17.3167 23.9052 17.1649 23.7712C17.0131 23.6371 16.8963 23.4676 16.8249 23.2775C16.7534 23.0874 16.7295 22.8825 16.7551 22.6809C16.7807 22.4793 16.8552 22.2871 16.9719 22.1212C17.2487 21.6631 17.6025 21.2569 18.0174 20.9206C19.3145 19.7415 20.8265 18.8269 22.4696 18.2274C23.4502 17.9251 24.4582 17.7213 25.4788 17.6191C26.312 17.515 27.1533 17.4909 27.9911 17.547C30.8607 17.6708 33.6047 18.7665 35.7784 20.6565C36.2146 21.0157 36.6141 21.4179 36.9709 21.8571C37.1461 22.0733 37.2637 22.3308 37.3128 22.6054C37.375 22.9057 37.3207 23.2185 37.161 23.4797C37.0013 23.7409 36.7484 23.9307 36.4542 24.0101C35.5989 24.2722 34.7153 24.4295 33.8226 24.4783C32.453 24.583 31.11 24.9143 29.8475 25.4588C29.4274 25.6636 29.028 25.9088 28.6549 26.1912C28.1974 26.58 27.6114 26.7815 27.0132 26.7554Z" fill="#EFBFBF"/>
<path d="M34.9191 39.3372C33.6611 39.3339 32.4396 38.9118 31.4448 38.1366C30.7701 37.6582 30.2238 37.0188 29.8547 36.2758C29.7385 36.066 29.6707 35.8327 29.6562 35.593C29.6418 35.3533 29.6811 35.1134 29.7712 34.8911C29.8774 34.6212 30.071 34.3954 30.3207 34.2501C30.5703 34.1048 30.8613 34.0487 31.1466 34.0907C31.5754 34.1107 32.0027 34.1548 32.4266 34.2228C33.0457 34.2871 33.6706 34.182 34.2353 33.9186C34.9084 33.5836 35.6201 33.3336 36.3541 33.1743C36.5884 33.105 36.8355 33.0909 37.0761 33.1333C37.3167 33.1756 37.5443 33.2732 37.7414 33.4184C37.9422 33.5805 38.0904 33.7993 38.1669 34.0467C38.2434 34.2941 38.2447 34.5589 38.1707 34.8071C37.8961 36.0329 37.3959 37.1962 36.6959 38.2367C36.1593 38.961 35.4557 39.3612 34.9191 39.3372Z" fill="#EFBFBF"/>
<path d="M19.4766 39.3135C19.075 39.338 18.6738 39.2599 18.3103 39.0863C17.9468 38.9128 17.6328 38.6496 17.3976 38.321C16.6111 37.2349 16.0809 35.9826 15.8473 34.6593C15.6684 33.7909 16.2885 33.1506 17.163 33.1426C17.9537 33.1896 18.7257 33.4037 19.4289 33.7709C20.0561 34.1004 20.757 34.2616 21.4641 34.2391C21.8815 34.1991 22.2989 34.1591 22.7123 34.107C23.0347 34.0711 23.3608 34.115 23.6624 34.2351C23.9083 34.3739 24.1069 34.5841 24.2324 34.8382C24.3579 35.0924 24.4044 35.3786 24.366 35.6598C24.2342 36.2835 23.9248 36.855 23.4756 37.3046C22.582 38.3477 21.3623 39.0534 20.0172 39.3055C19.9716 39.3176 19.925 39.3257 19.8781 39.3295L19.4766 39.3135Z" fill="#EFBFBF"/>
<path d="M22.7871 31.2001C22.6761 31.0314 22.5056 30.9113 22.3101 30.864C21.5151 30.5678 20.6763 30.3637 19.8773 30.0636C19.7709 30.0237 19.6538 30.0237 19.5474 30.0636C19.2997 30.1293 19.0598 30.2219 18.8319 30.3397C18.7569 30.3834 18.6784 30.4209 18.5973 30.4518C18.5315 30.4842 18.457 30.4939 18.3851 30.4794C18.3133 30.465 18.2482 30.4271 18.1998 30.3717C18.1084 30.2397 18.2714 30.1436 18.3628 30.0836C18.7745 29.7824 19.2448 29.5722 19.7428 29.4666C20.2408 29.3611 20.7554 29.3627 21.2527 29.4713C22.0086 29.6184 22.6815 30.0471 23.137 30.6719C23.292 30.888 23.4908 31.0721 23.6617 31.2802C23.7412 31.3722 23.8445 31.4643 23.773 31.6083C23.7014 31.7524 23.5901 31.7204 23.4749 31.7244C23.2559 31.7305 23.038 31.691 22.8348 31.6083C22.5884 31.4963 22.5725 31.3922 22.7871 31.2001Z" fill="#F6D4C2"/>
<path d="M31.1786 31.2003C31.3813 31.4124 31.3575 31.4964 31.0713 31.6005C30.8475 31.6826 30.6095 31.718 30.3717 31.7045C30.1769 31.6845 30.0457 31.5524 30.1769 31.4004C30.797 30.704 31.278 29.8636 32.2718 29.5595C32.7756 29.3998 33.3069 29.3475 33.8319 29.4061C34.3568 29.4647 34.8639 29.6328 35.3207 29.8996C35.398 29.9368 35.4701 29.9839 35.5354 30.0397C35.6348 30.1278 35.8375 30.2158 35.7262 30.3679C35.6692 30.4253 35.5947 30.4617 35.5146 30.4712C35.4345 30.4806 35.3536 30.4626 35.285 30.4199C35.0782 30.3198 34.8874 30.2158 34.6648 30.1358C34.4197 30.0377 34.1467 30.0377 33.9016 30.1358C33.2417 30.3759 32.55 30.5359 31.914 30.7961C31.6437 30.8961 31.282 30.8281 31.1786 31.2003Z" fill="#F6D4C2"/>
<path d="M2.62519 66.2578C2.49434 66.0237 2.32954 65.8106 2.13624 65.6255C1.48175 64.9983 1.02583 64.1904 0.825691 63.3033C0.625555 62.4162 0.69012 61.4894 1.01127 60.6391C1.68308 58.9783 2.80407 57.8378 4.58891 57.4056C5.25674 57.2495 5.92854 57.1334 6.57649 56.9613C7.85876 56.6462 8.98675 55.8797 9.75661 54.8003C10.2393 54.1357 10.4832 53.3257 10.4483 52.5032C10.4485 52.4476 10.4343 52.3929 10.4071 52.3445C10.3799 52.2961 10.3407 52.2556 10.2933 52.2271C9.48353 51.6167 8.73406 50.9292 8.05525 50.1741C6.19885 48.2092 5.27264 45.804 4.76382 43.2028C4.48055 41.5565 4.41905 39.8793 4.58097 38.2164C4.82699 35.7293 5.31971 33.2732 6.05177 30.8849C6.70369 28.5478 7.53052 26.2627 8.22617 23.9336C8.7827 22.0767 9.20008 20.1758 9.87586 18.331C10.6391 16.274 11.5653 14.285 13.0202 12.6242C15.2427 9.98722 18.2755 8.17192 21.6383 7.46579C22.8845 7.23629 24.145 7.09454 25.4108 7.04159C26.9932 6.9634 28.5791 6.99549 30.1571 7.13764C32.8689 7.32231 35.4845 8.22294 37.7407 9.74885C39.9968 11.2748 41.8138 13.3721 43.0088 15.8298C43.9704 17.8298 44.7154 19.9282 45.2309 22.0888C45.9345 24.722 46.8647 27.2912 47.6398 29.8965C48.2655 31.935 48.7712 34.0089 49.1544 36.1074C49.452 37.8391 49.548 39.5998 49.4406 41.3539C49.3155 44.1778 48.3838 46.9055 46.7573 49.2097C45.918 50.3547 44.9021 51.3572 43.7481 52.1791C43.6687 52.2287 43.6053 52.3005 43.5658 52.3858C43.5263 52.4711 43.5123 52.5661 43.5255 52.6593C43.5652 53.3224 43.7562 53.9674 44.0837 54.5442C44.4112 55.1209 44.8663 55.6139 45.4137 55.9849C46.271 56.5947 47.2603 56.9898 48.2997 57.1374C49.4406 57.3455 50.5894 57.5936 51.4798 58.414C52.4307 59.2193 53.0569 60.3463 53.2408 61.5835C53.3695 62.3483 53.2986 63.1335 53.0352 63.8624C52.7718 64.5913 52.3249 65.2388 51.7382 65.7415C51.6309 65.8416 51.5752 65.9776 51.4798 66.0817C51.3844 66.1857 51.4083 66.2738 51.4997 66.3778C51.8455 66.778 52.1914 67.1782 52.5173 67.5784C53.1675 68.4831 53.5928 69.5316 53.7576 70.6358C53.9599 71.5643 54.0362 72.5161 53.9842 73.4652C53.8712 75.1173 53.5725 76.7512 53.0937 78.3355C53.0561 78.5233 52.9933 78.7051 52.9069 78.8758C52.8632 78.9518 52.7996 79.0198 52.7002 78.9918C52.6008 78.9638 52.6247 78.8758 52.6167 78.7997C52.6117 78.6363 52.6373 78.4734 52.6922 78.3195C53.0085 77.109 53.2619 75.8828 53.4515 74.6458C53.6292 73.3294 53.5713 71.9917 53.2806 70.6959C53.1812 70.161 53.0348 69.636 52.8433 69.1271C52.2693 67.8547 51.4043 66.737 50.3191 65.8656C50.0231 65.6792 49.6683 65.6121 49.3253 65.6775C48.216 65.708 47.1348 66.0354 46.1929 66.6259C45.8559 66.8457 45.4791 66.9964 45.0841 67.0692C44.6891 67.142 44.2837 67.1355 43.8912 67.0501C43.3983 66.9541 42.8975 66.9021 42.4045 66.802C41.147 66.6027 39.8595 66.7407 38.6719 67.2022C38.167 67.3703 37.6701 67.5664 37.1573 67.7025C36.9658 67.7625 36.7606 67.7625 36.569 67.7025C35.8567 67.4598 35.1168 67.3092 34.3668 67.2542C33.4694 67.197 32.5717 67.3604 31.7511 67.7305C31.298 67.9306 30.8408 68.1307 30.3996 68.3428C29.3955 68.8248 28.2661 68.9761 27.1718 68.775C26.9821 68.7519 26.7899 68.7613 26.6033 68.803C25.4442 68.9552 24.2668 68.7383 23.2364 68.1827C22.5484 67.8098 21.8146 67.5299 21.054 67.3503C19.9999 67.1526 18.913 67.2312 17.8977 67.5784C17.3681 67.7642 16.7899 67.7529 16.2679 67.5464C15.4705 67.2355 14.6488 66.9918 13.8113 66.818C12.9826 66.6904 12.1385 66.7053 11.3149 66.8621C10.7504 66.9461 10.1978 67.0982 9.62542 67.1302C9.04111 67.1748 8.45753 67.0349 7.95587 66.73C7.16127 66.2161 6.26429 65.8842 5.32828 65.7575C4.90313 65.6929 4.47126 65.6861 4.04432 65.7375C3.80093 65.7922 3.5794 65.9191 3.40829 66.1017C1.81422 67.462 0.801996 69.3882 0.581951 71.4802C0.438919 72.5555 0.430907 73.6446 0.558101 74.7218C0.736983 75.9224 1.01525 77.1229 1.30147 78.3235C1.33996 78.4806 1.37046 78.6395 1.39289 78.7997C1.39289 78.8758 1.39289 78.9638 1.30543 78.9918C1.28482 78.9986 1.26307 79.0012 1.24145 78.9995C1.21983 78.9977 1.19877 78.9916 1.17952 78.9815C1.16027 78.9715 1.14321 78.9576 1.12934 78.9409C1.11546 78.9241 1.10505 78.9047 1.09873 78.8838C1.04308 78.7557 0.987418 78.6236 0.943692 78.4836C0.5348 77.1802 0.252568 75.84 0.100961 74.4817C-0.152968 72.5722 0.0739441 70.6291 0.760838 68.831C1.13053 67.8745 1.82618 67.1582 2.47413 66.4018C2.5258 66.3658 2.57351 66.3178 2.62519 66.2578ZM40.0234 37.9403C40.0682 37.9325 40.1121 37.9204 40.1546 37.9043C40.3853 37.7756 40.5794 37.5896 40.7186 37.3641C40.8577 37.1385 40.9373 36.8809 40.9496 36.6157C41.0888 35.4431 41.216 34.2746 41.2557 33.098C41.3482 31.0646 41.1596 29.0282 40.6952 27.0471C39.928 23.8936 38.4453 21.1683 35.8932 19.1233C33.3247 17.0831 30.1571 15.9573 26.8855 15.9218C25.61 15.9319 24.3439 16.1426 23.133 16.5461C19.6706 17.5586 16.9159 19.5235 15.0436 22.665C13.5012 25.2623 12.8811 28.1196 12.742 31.105C12.6856 33.0708 12.7986 35.0378 13.0798 36.9838C13.1404 37.2019 13.2544 37.4012 13.4114 37.5634C13.5683 37.7257 13.7632 37.8456 13.9782 37.9123C13.9803 37.8856 13.9803 37.8589 13.9782 37.8322C13.8083 37.0869 13.6836 36.3318 13.6046 35.5712C13.6046 35.4431 13.529 35.239 13.7397 35.223C13.9504 35.207 13.9266 35.3871 13.9464 35.5312C14.0633 36.4302 14.2265 37.3225 14.4354 38.2044C14.9535 40.3722 15.9584 42.3916 17.373 44.1072C18.556 45.6423 19.9217 47.0253 21.4396 48.2252C22.5177 49.0851 23.7929 49.6588 25.1484 49.894C26.0329 50.006 26.9256 50.0381 27.8157 49.99C28.9902 49.9728 30.1434 49.6722 31.1787 49.1136C32.4022 48.4213 33.518 47.5516 34.49 46.5324C35.285 45.732 35.9886 44.8916 36.6883 44.0312C37.8366 42.6305 38.7095 41.0224 39.2602 39.2929C39.6322 38.0399 39.8982 36.7574 40.0552 35.4591C40.0751 35.323 40.099 35.195 40.2659 35.219C40.4329 35.243 40.409 35.3831 40.3971 35.4991C40.3534 35.8393 40.3136 36.1795 40.258 36.5196C40.2023 36.9838 40.1109 37.4481 40.0234 37.9403ZM49.4644 65.3173C49.2893 65.1968 49.0979 65.1025 48.896 65.0372C47.1787 64.3449 45.3581 64.0247 43.5812 63.5325C41.8043 63.0402 40.099 62.524 38.5407 61.5315C36.756 60.4352 35.4205 58.7315 34.7762 56.7292C34.1824 54.8464 33.8676 52.8857 33.8421 50.9105C33.8222 49.83 33.8063 48.7494 33.8739 47.6489C33.5201 47.9331 33.1862 48.2132 32.8363 48.4813C31.294 49.7473 29.3473 50.4058 27.3586 50.3342C27.2272 50.3127 27.0941 50.3033 26.9611 50.3062C26.2209 50.373 25.4751 50.3312 24.7469 50.1821C23.4604 49.9033 22.2552 49.3295 21.2249 48.5053C20.8672 48.2372 20.5253 47.9531 20.1636 47.6649C20.153 47.9216 20.165 48.1787 20.1993 48.4333C20.1993 49.4218 20.1993 50.4102 20.1596 51.4027C20.0953 52.894 19.8849 54.3752 19.5315 55.8248C18.7365 59.0864 16.6972 61.1994 13.696 62.464C12.4204 62.9852 11.1058 63.404 9.76456 63.7166C8.23881 64.0352 6.73663 64.459 5.26866 64.9852C5.01766 65.0697 4.77748 65.1839 4.55314 65.3253C5.04821 65.329 5.54188 65.3785 6.02792 65.4734C6.74957 65.6159 7.44016 65.8869 8.06717 66.2738C8.6219 66.621 9.28264 66.7546 9.92754 66.65C10.3966 66.5699 10.8657 66.4739 11.3347 66.3978C12.2907 66.2138 13.2727 66.2138 14.2287 66.3978C15.1151 66.5899 15.9539 66.9221 16.8165 67.1982C17.0217 67.2663 17.2433 67.2663 17.4485 67.1982C18.799 66.7294 20.2551 66.6627 21.6423 67.0061C22.4583 67.2818 23.2551 67.612 24.0274 67.9946C24.8468 68.3451 25.7456 68.4641 26.6272 68.3388C26.891 68.3031 27.1584 68.3031 27.4222 68.3388C27.9901 68.4156 28.5669 68.394 29.1275 68.2747C29.8618 68.0743 30.5712 67.791 31.2423 67.4303C32.714 66.7062 34.4017 66.5635 35.9727 67.0301C36.6677 67.2534 37.421 67.2019 38.0796 66.8861C38.1233 66.8861 38.171 66.854 38.2147 66.838C39.237 66.4408 40.323 66.236 41.4187 66.2337C42.19 66.2732 42.9562 66.3817 43.7084 66.5579C44.1005 66.6623 44.5095 66.6852 44.9107 66.6253C45.3118 66.5655 45.6967 66.4241 46.0418 66.2097C46.3766 66.0053 46.7308 65.835 47.0992 65.7015C47.8627 65.4493 48.6609 65.3197 49.4644 65.3173ZM12.6267 36.1354C12.5551 35.4911 12.4597 34.8468 12.42 34.1985C12.3365 33.0397 12.3285 31.8767 12.3961 30.7169C12.4841 29.1967 12.7442 27.6915 13.1713 26.2307C14.4751 21.8526 17.1027 18.6271 21.3164 16.7942C23.027 16.0971 24.832 15.6627 26.6709 15.5056C27.4341 15.4216 28.1775 15.6657 28.9367 15.7097C29.3729 15.7205 29.8082 15.7552 30.2406 15.8138C31.1708 15.9738 32.0612 16.278 32.9834 16.4581C33.3061 16.5341 33.6444 16.5066 33.9508 16.3796C34.2573 16.2526 34.5167 16.0324 34.6927 15.7497C34.8368 15.5238 34.9331 15.2703 34.9755 15.0052C35.0179 14.7401 35.0055 14.4691 34.9392 14.209C34.844 13.6583 34.6199 13.1383 34.2853 12.6922C33.9507 12.2461 33.5153 11.8867 33.0152 11.6438C31.1651 10.7482 29.1372 10.287 27.0843 10.2951C25.3513 10.2766 23.6304 10.5876 22.012 11.2116C19.0588 12.3951 16.5147 14.4235 14.6937 17.0464C11.9678 20.73 10.6282 25.2678 10.9134 29.8524C10.9905 31.1327 11.2174 32.3994 11.5892 33.6262C11.8374 34.5002 12.1856 35.3423 12.6267 36.1354ZM33.047 16.9263L33.3173 17.0624C34.5422 17.6425 35.6743 18.4032 36.6763 19.3194C39.2244 21.6565 40.6276 24.618 41.2836 27.9756C41.4768 29.0198 41.599 30.0761 41.6493 31.1371C41.709 32.3935 41.6691 33.6528 41.53 34.9028C41.4903 35.303 41.4426 35.7032 41.3988 36.1314C41.4235 36.1141 41.4462 36.0939 41.4664 36.0714C41.5012 36.0144 41.5331 35.9557 41.5618 35.8953C42.5892 33.6986 43.1317 31.3039 43.1519 28.876C43.171 27.4585 43.0215 26.0437 42.7066 24.662C41.8056 20.2277 39.3856 16.2531 35.8694 13.4326C35.4808 13.1029 35.0583 12.8158 34.6093 12.5762C34.9577 13.1046 35.1932 13.7002 35.3009 14.3251C35.3913 14.7836 35.3325 15.2592 35.1335 15.6815C34.9345 16.1039 34.6057 16.4505 34.1959 16.6702C33.8341 16.8335 33.4434 16.922 33.047 16.9303V16.9263ZM43.6209 51.8349C44.2092 51.3821 44.7596 50.8816 45.2666 50.3382C46.4788 49.1605 47.3875 47.7031 47.9141 46.0922C48.2666 44.8805 48.4878 43.634 48.574 42.3744C48.6623 41.2926 48.6329 40.2043 48.4865 39.1289C48.2888 37.8936 48.0045 36.674 47.6358 35.4791C47.5031 34.9501 47.3194 34.4354 47.0873 33.9424C47.0754 34.0099 47.0754 34.079 47.0873 34.1465C47.1892 34.7103 47.2596 35.2795 47.2979 35.8513C47.3942 37.3077 47.3329 38.7703 47.1151 40.2134C46.8613 41.9853 46.4353 43.7278 45.8431 45.4159C45.2905 47.0166 44.5471 48.5653 44.0622 50.2181C43.9032 50.7264 43.7362 51.2506 43.6209 51.8389V51.8349ZM10.4165 51.8549C10.2217 51.0305 9.98717 50.2782 9.74071 49.5258C9.28754 48.1211 8.63959 46.7965 8.17848 45.3958C7.35406 43.0382 6.86296 40.5756 6.71959 38.0804C6.6684 36.9982 6.71097 35.9136 6.8468 34.8388C6.88655 34.5307 6.91835 34.2185 6.9581 33.9064C6.66738 34.573 6.43075 35.2623 6.25052 35.9674C5.84161 37.2901 5.57507 38.6532 5.45549 40.0333C5.36568 41.3599 5.42034 42.6925 5.61848 44.0072C5.88196 46.1899 6.81585 48.2353 8.28978 49.858C8.94129 50.5842 9.65273 51.2536 10.4165 51.8589V51.8549ZM52.0443 64.9451C52.059 64.9419 52.0726 64.935 52.084 64.9251C52.1166 64.8906 52.1458 64.8531 52.1715 64.8131C52.7752 63.9194 53.0403 62.8374 52.9188 61.7636C52.8233 60.9098 52.4913 60.1002 51.9606 59.4272C51.4299 58.7543 50.722 58.2451 49.9176 57.9578C48.95 57.652 47.9597 57.4245 46.9561 57.2775C47.1576 57.4145 47.3674 57.5388 47.5842 57.6497C48.4678 58.064 49.2883 58.603 50.0209 59.2504C50.8123 59.9483 51.4135 60.838 51.7676 61.8353C52.1217 62.8326 52.2169 63.9044 52.0443 64.9491V64.9451ZM7.06544 57.3135C6.20283 57.4816 5.34022 57.6177 4.49351 57.8298C2.18792 58.406 0.327546 61.1673 1.35711 63.8086C1.50513 64.2448 1.72852 64.6512 2.01699 65.0092C1.92622 64.5979 1.87957 64.1779 1.87786 63.7566C1.9273 62.5819 2.29428 61.4432 2.93923 60.463C3.7131 59.3479 4.76268 58.4554 5.98419 57.8738C6.34991 57.7057 6.7037 57.5056 7.06544 57.3135ZM4.9745 41.3299L5.0063 41.3539V40.0453H4.9745V41.3299Z" fill="#493826"/>
<path d="M22.5128 31.3978C22.4691 32.5664 21.4833 33.1987 20.4259 33.1427C19.456 33.0906 18.482 32.4223 18.5695 31.1937C18.1268 31.3022 17.6666 31.3172 17.2179 31.2377C16.7769 31.1454 16.3777 30.9108 16.0811 30.5694C16.1844 30.4534 16.2798 30.5054 16.3752 30.5694C16.6625 30.704 16.9848 30.7431 17.2956 30.6813C17.6064 30.6194 17.8896 30.4597 18.1044 30.2253C18.3724 29.9649 18.6684 29.7354 18.9869 29.5409C19.4285 29.2689 19.9361 29.125 20.4537 29.125C20.9714 29.125 21.479 29.2689 21.9206 29.5409C21.9688 29.5599 22.0104 29.5928 22.0401 29.6355C22.0699 29.6783 22.0863 29.7289 22.0875 29.7811C20.9268 29.3168 19.7938 29.1528 18.6888 30.0252C19.0346 29.9811 19.3129 29.8931 19.607 29.8651C20.6836 29.7831 21.7486 30.1343 22.5685 30.8416C22.7798 31.0056 22.9779 31.1863 23.1608 31.3818C23.1979 31.4134 23.2235 31.4565 23.2336 31.5043C23.2437 31.5521 23.2376 31.6019 23.2164 31.6459C23.1409 31.774 23.0455 31.674 22.97 31.6459C22.8229 31.5699 22.6838 31.4899 22.5128 31.3978ZM19.448 32.3503C20.0324 32.9025 21.1215 32.8825 21.535 32.4023C20.8661 32.1433 20.1288 32.1249 19.448 32.3503Z" fill="#493826"/>
<path d="M37.9286 30.5407C37.5628 31.077 36.736 31.4652 35.4481 31.193C35.4848 31.4695 35.449 31.7509 35.3445 32.0092C35.2399 32.2675 35.07 32.4938 34.8518 32.6657C34.5034 32.9525 34.0729 33.1193 33.6235 33.142C33.1066 33.1883 32.5903 33.0463 32.1686 32.7418C31.9687 32.5834 31.8044 32.3841 31.6866 32.1572C31.5687 31.9303 31.5 31.6808 31.4849 31.4251C31.3139 31.5092 31.1708 31.5892 31.0277 31.6572C30.9562 31.6893 30.8727 31.7653 30.8051 31.6572C30.7375 31.5492 30.8051 31.4932 30.8449 31.4211C31.0514 31.1691 31.2938 30.9493 31.5644 30.7688C32.3462 30.1267 33.3399 29.8051 34.347 29.8684C34.6872 29.9089 35.0245 29.9717 35.3566 30.0565C34.8817 29.6472 34.2803 29.4167 33.6553 29.4042C33.0602 29.4265 32.4748 29.5623 31.9301 29.8044C31.9301 29.6083 32.0811 29.5682 32.1885 29.5122C33.381 28.8639 34.6928 29.076 35.7661 30.0885C35.9489 30.2697 36.1548 30.4258 36.3783 30.5527C36.5592 30.6542 36.7611 30.7121 36.968 30.7219C37.1749 30.7316 37.3813 30.6929 37.5708 30.6087C37.6702 30.5367 37.7894 30.4447 37.9286 30.5407ZM32.4508 32.4016C32.7547 32.642 33.1327 32.7676 33.519 32.7566C33.9053 32.7456 34.2756 32.5988 34.5656 32.3416C33.8755 32.111 33.1269 32.1323 32.4508 32.4016Z" fill="#493826"/>
<path d="M29.5886 27.9678C29.8311 27.4596 30.2683 27.3916 30.6659 27.2555C31.9095 26.77 33.236 26.5361 34.5694 26.5672C35.0166 26.5788 35.4539 26.7026 35.8415 26.9274C36.5849 27.3676 37.356 27.7638 38.0755 28.248C38.1034 28.248 38.1312 28.296 38.167 28.328C37.5629 28.2529 36.9651 28.1339 36.3781 27.9718C35.4047 27.7497 34.3941 27.7497 33.4206 27.9718C31.9724 28.3051 30.5619 28.7865 29.2109 29.4085C29.0758 29.4646 28.9446 29.5486 28.8134 29.4085C28.6823 29.2685 28.4636 29.1684 28.6147 28.8843C28.8054 28.4893 29.0233 28.1082 29.2666 27.7437C29.3342 27.6517 29.3978 27.5316 29.5369 27.5837C29.676 27.6357 29.5727 27.7758 29.5886 27.9678Z" fill="#493826"/>
<path d="M15.9541 28.2882C16.5345 27.84 17.2103 27.5599 17.7946 27.1437C18.6731 26.5194 19.647 26.5034 20.6408 26.5914C21.671 26.7155 22.6818 26.9682 23.65 27.3438C23.8175 27.3743 23.9751 27.4458 24.1088 27.5518C24.2426 27.6579 24.3485 27.7953 24.4172 27.9521C24.4649 27.784 24.3138 27.6359 24.4848 27.5719C24.6557 27.5079 24.7074 27.6559 24.775 27.752C25.0315 28.1088 25.2438 28.4959 25.407 28.9045C25.4428 28.9966 25.566 29.1607 25.407 29.2047C25.248 29.2487 25.1804 29.6049 24.8386 29.4368C24.0504 29.0594 23.2407 28.7293 22.4137 28.4483C21.3575 28.078 20.2549 27.8584 19.1382 27.796C18.4544 27.7809 17.7734 27.888 17.1268 28.1122C16.7439 28.2162 16.3504 28.2753 15.9541 28.2882Z" fill="#493826"/>
<path d="M33.2854 13.4285C33.4006 13.4925 33.6312 13.4285 33.655 13.6686C33.6596 13.6926 33.6577 13.7173 33.6495 13.7403C33.6413 13.7633 33.6271 13.7836 33.6084 13.7992C33.5897 13.8147 33.5672 13.8249 33.5432 13.8287C33.5192 13.8325 33.4947 13.8297 33.4722 13.8206C33.3132 13.7726 33.0747 13.8206 33.0429 13.5765C33.019 13.4325 33.1502 13.4245 33.2854 13.4285Z" fill="#493826"/>
<path d="M33.4446 14.2326C33.3174 14.2326 33.1505 14.2326 33.1465 14.0365C33.1465 13.8964 33.2618 13.8804 33.3731 13.8884C33.4844 13.8964 33.6831 13.9084 33.703 14.0845C33.7229 14.2606 33.5718 14.2286 33.4446 14.2326Z" fill="#493826"/>
<path d="M33.4444 14.6927C33.337 14.6927 33.2178 14.6927 33.2178 14.5486C33.2178 14.4045 33.3609 14.3725 33.4801 14.3565C33.5994 14.3405 33.7147 14.3885 33.7147 14.5126C33.7147 14.6366 33.5557 14.6927 33.4444 14.6927Z" fill="#493826"/>
</g>
</svg>
