<svg width="70" height="70" viewBox="0 0 70 70" fill="none" xmlns="http://www.w3.org/2000/svg">
<circle cx="35.1873" cy="34.6375" r="34.6375" fill="#222222"/>
<g clip-path="url(#clip0_59_7289)">
<path d="M41.4011 35.0892C40.7409 31.7667 43.8945 29.8181 43.8945 29.8181C43.8945 29.8181 42.6658 28.0404 40.6008 27.5831C38.5369 27.1248 37.5039 27.6974 36.4729 28.1269C35.4409 28.5574 34.9259 28.5574 34.9259 28.5574C33.4367 28.5574 32.348 26.9806 29.5106 27.6985C27.5558 28.1918 25.498 30.4484 25.1262 33.1416C24.7544 35.8359 25.5567 39.2738 27.1037 41.9382C28.6506 44.6047 30.2264 45.6068 31.3449 45.6356C32.4634 45.6634 33.5798 44.8344 34.9259 44.6325C36.2731 44.4327 37.1022 45.1207 38.4236 45.4925C39.7398 45.8633 40.2012 45.5193 41.7172 44.2298C43.2374 42.9403 44.6134 39.2419 44.6134 39.2419C44.6134 39.2419 42.0612 38.4138 41.4011 35.0892Z" fill="white"/>
<path d="M38.4785 25.434C39.9409 23.9438 39.4456 21.6367 39.4456 21.6367C39.4456 21.6367 37.3919 21.9972 36.0159 23.4288C34.641 24.8614 34.8686 27.1242 34.8686 27.1242C34.8686 27.1242 37.016 26.9233 38.4785 25.434Z" fill="white"/>
</g>
<defs>
<clipPath id="clip0_59_7289">
<rect width="24" height="24" fill="white" transform="translate(22.8252 21.6367)"/>
</clipPath>
</defs>
</svg>
