<svg width="70" height="70" viewBox="0 0 70 70" fill="none" xmlns="http://www.w3.org/2000/svg">
<circle cx="34.6375" cy="34.6375" r="34.6375" fill="#F3F8FB"/>
<g clip-path="url(#clip0_130_6598)">
<g clip-path="url(#clip1_130_6598)">
<path d="M46.8068 32.7787C46.9135 32.7787 47 32.8652 47 32.9719V35C47 35.7591 46.9295 36.5013 46.7942 37.2213C45.7481 42.8139 40.8211 47.0404 34.9154 46.9997C28.2887 46.954 22.9854 41.5997 23 34.973C23.0146 28.3581 28.3817 23 35 23C38.2425 23 41.1844 24.2863 43.3444 26.3758C43.4224 26.4513 43.4244 26.5756 43.3477 26.6523L40.4784 29.5215C40.4045 29.5954 40.2852 29.5973 40.2095 29.5253C38.8538 28.2349 37.0196 27.4426 35 27.4426C30.8295 27.4426 27.4711 30.7771 27.4428 34.9475C27.4143 39.1453 30.8088 42.5573 35 42.5573C38.4005 42.5573 41.2767 40.3109 42.2251 37.2213H35.1932C35.0865 37.2213 35 37.1348 35 37.0281V32.9718C35 32.8651 35.0865 32.7786 35.1932 32.7786H46.8068V32.7787Z" fill="#2196F3"/>
<path d="M46.8064 32.7793H45.3577C45.4644 32.7793 45.5509 32.8658 45.5509 32.9725V35.0006C45.5509 35.7597 45.4804 36.5019 45.3451 37.2219C44.3471 42.5573 39.8169 46.6493 34.2744 46.979C34.4865 46.9915 34.6999 46.9988 34.9149 47.0003C40.8207 47.041 45.7477 42.8145 46.7938 37.2219C46.929 36.5019 46.9995 35.7597 46.9995 35.0006V32.9724C46.9995 32.8658 46.913 32.7793 46.8064 32.7793Z" fill="#1E88E5"/>
<path d="M28.1356 31.8351L24.4912 29.2018C26.5358 25.5038 30.4757 23 35 23C38.2425 23 41.1845 24.2863 43.3444 26.3758C43.4224 26.4513 43.4244 26.5756 43.3477 26.6523L40.4784 29.5215C40.4047 29.5953 40.2854 29.5976 40.2099 29.5257C38.8542 28.235 37.0198 27.4427 35 27.4427C31.9563 27.4427 29.3327 29.2419 28.1356 31.8351Z" fill="#F44336"/>
<path d="M27.083 31.0756L28.1351 31.8358C29.2278 29.4689 31.5091 27.7642 34.2133 27.4846C34.2336 27.4824 34.2532 27.4797 34.2739 27.4778C34.0359 27.4552 33.7948 27.4434 33.5508 27.4434C30.8013 27.4434 28.405 28.8929 27.083 31.0756Z" fill="#E53935"/>
<path d="M41.8956 26.3758C41.9736 26.4513 41.9756 26.5756 41.8989 26.6523L39.57 28.9812C39.7931 29.1509 40.0067 29.3324 40.2093 29.5253C40.285 29.5974 40.4044 29.5955 40.4783 29.5216L43.3475 26.6523C43.4243 26.5756 43.4222 26.4513 43.3442 26.3758C41.1843 24.2863 38.2423 23 34.9998 23C34.7565 23 34.5151 23.0081 34.2754 23.0224C37.2304 23.1984 39.8976 24.4431 41.8956 26.3758Z" fill="#E53935"/>
<path d="M43.8027 43.1544C41.6113 45.5191 38.4783 46.9992 35 46.9992C30.3019 46.9992 26.2344 44.2994 24.2646 40.3661L27.9854 37.8164C29.1019 40.5945 31.822 42.5565 35 42.5565C36.9943 42.5565 38.8081 41.7839 40.1583 40.5216L43.8027 43.1544Z" fill="#4CAF50"/>
<path d="M27.9849 37.8164L26.8877 38.5682C28.162 40.9422 30.6679 42.5565 33.5507 42.5565C33.7945 42.5565 34.0355 42.5445 34.2734 42.522C31.4117 42.2492 29.0153 40.3804 27.9849 37.8164Z" fill="#43A047"/>
<path d="M34.9999 46.9995C38.4782 46.9995 41.6112 45.5194 43.8026 43.1546L42.91 42.5098C40.8524 45.0705 37.7656 46.7693 34.2773 46.9776C34.5164 46.9919 34.7573 46.9995 34.9999 46.9995Z" fill="#43A047"/>
<path d="M27.4427 34.9993C27.4427 35.995 27.6353 36.9459 27.9854 37.8166L24.2647 40.3662C23.4554 38.7514 23 36.9285 23 34.9993C23 32.8963 23.5408 30.9198 24.4912 29.2012L28.1356 31.8344C27.6909 32.7968 27.4427 33.8694 27.4427 34.9993Z" fill="#FFC107"/>
<path d="M26.8885 38.5684L27.9856 37.8165C27.6355 36.9459 27.4429 35.995 27.4429 34.9993C27.4429 33.8693 27.6911 32.7968 28.1358 31.8344L27.0837 31.0742C26.4005 32.2023 26.004 33.526 25.9943 34.9469C25.9854 36.2572 26.3101 37.491 26.8885 38.5684Z" fill="#FFB300"/>
</g>
</g>
<defs>
<clipPath id="clip0_130_6598">
<rect width="24" height="24" fill="white" transform="translate(23 22.6367)"/>
</clipPath>
<clipPath id="clip1_130_6598">
<rect width="24" height="24" fill="white" transform="translate(23 23)"/>
</clipPath>
</defs>
</svg>
