<svg width="70" height="70" viewBox="0 0 70 70" fill="none" xmlns="http://www.w3.org/2000/svg">
<circle cx="34.9129" cy="34.6375" r="34.6375" fill="#FFE812"/>
<path d="M35.125 23.1367C27.9453 23.1367 22.125 27.7258 22.125 33.3867C22.125 37.0466 24.5583 40.258 28.2185 42.0713C28.0194 42.7581 26.9389 46.4893 26.8959 46.7825C26.8959 46.7825 26.87 47.0027 27.0126 47.0867C27.1553 47.1707 27.323 47.1055 27.323 47.1055C27.732 47.0483 32.0659 44.0041 32.816 43.4755C33.5654 43.5816 34.337 43.6367 35.125 43.6367C42.3048 43.6367 48.125 39.0477 48.125 33.3867C48.125 27.7258 42.3048 23.1367 35.125 23.1367Z" fill="black"/>
<path d="M27.9375 36.9648C27.5239 36.9648 27.1875 36.6436 27.1875 36.2486V31.793H26.0173C25.6114 31.793 25.2812 31.4635 25.2812 31.0586C25.2812 30.6537 25.6115 30.3242 26.0173 30.3242H29.8577C30.2636 30.3242 30.5938 30.6537 30.5938 31.0586C30.5938 31.4635 30.2635 31.793 29.8577 31.793H28.6875V36.2486C28.6875 36.6436 28.3511 36.9648 27.9375 36.9648ZM34.514 36.9551C34.2013 36.9551 33.962 36.8281 33.8899 36.6238L33.5185 35.6516L31.2315 35.6515L30.8599 36.6243C30.788 36.8282 30.5489 36.9551 30.2361 36.9551C30.0716 36.9553 29.909 36.92 29.7594 36.8516C29.5526 36.7562 29.3539 36.494 29.5816 35.7866L31.3756 31.0646C31.502 30.7055 31.8859 30.3355 32.3744 30.3243C32.8643 30.3353 33.2481 30.7055 33.3748 31.0653L35.168 35.7852C35.3962 36.4942 35.1975 36.7566 34.9908 36.8517C34.8411 36.92 34.6785 36.9552 34.514 36.9551C34.514 36.9551 34.5139 36.9551 34.514 36.9551ZM33.1241 34.3231L32.375 32.195L31.6259 34.3231H33.1241ZM36.375 36.8555C35.9786 36.8555 35.6562 36.547 35.6562 36.168V31.0742C35.6562 30.6606 35.9998 30.3242 36.4219 30.3242C36.844 30.3242 37.1875 30.6606 37.1875 31.0742V35.4805H38.7812C39.1776 35.4805 39.5 35.789 39.5 36.168C39.5 36.547 39.1776 36.8555 38.7812 36.8555H36.375ZM40.5417 36.9551C40.1281 36.9551 39.7917 36.6187 39.7917 36.2051V31.0742C39.7917 30.6606 40.1281 30.3242 40.5417 30.3242C40.9554 30.3242 41.2917 30.6606 41.2917 31.0742V32.6862L43.3843 30.5937C43.4919 30.4861 43.6397 30.4268 43.8002 30.4268C43.9875 30.4268 44.1755 30.5076 44.3164 30.6483C44.4478 30.7796 44.5261 30.9485 44.5369 31.1238C44.5478 31.3007 44.4889 31.4628 44.3714 31.5805L42.6623 33.2893L44.5084 35.7351C44.568 35.8136 44.6114 35.9031 44.6361 35.9985C44.6608 36.0938 44.6664 36.1932 44.6524 36.2907C44.639 36.3883 44.6064 36.4823 44.5564 36.5672C44.5065 36.6521 44.4402 36.7262 44.3614 36.7853C44.2317 36.8839 44.0732 36.9371 43.9102 36.9367C43.794 36.9373 43.6793 36.9106 43.5753 36.8588C43.4712 36.807 43.3808 36.7316 43.3111 36.6386L41.5522 34.3081L41.292 34.5683V36.2047C41.2918 36.4036 41.2127 36.5943 41.072 36.735C40.9314 36.8757 40.7407 36.9548 40.5417 36.9551Z" fill="#FFE812"/>
</svg>
