<svg width="181" height="180" viewBox="0 0 181 180" fill="none" xmlns="http://www.w3.org/2000/svg">
<g style="mix-blend-mode:multiply" opacity="0.43">
<path d="M154.906 153.887C122.754 187.828 66.909 186.513 30.1778 150.948C-6.55353 115.384 -10.2744 59.0332 21.8776 25.0923C54.0296 -8.84854 103.286 -1.14162 140.009 34.4229C176.731 69.9875 187.058 119.946 154.906 153.887Z" fill="#F2B8CB" fill-opacity="0.45"/>
</g>
<g style="mix-blend-mode:multiply">
<path d="M29.921 157.792C-5.60686 122.863 -5.88117 64.8974 29.3016 28.322C64.4843 -8.25345 121.816 -9.56403 157.33 25.3251C192.845 60.2143 186.412 111.108 151.247 147.683C116.082 184.259 65.4444 192.721 29.921 157.792Z" fill="#F6D2E1" fill-opacity="0.44"/>
</g>
<g clip-path="url(#clip0_59_5010)">
<path d="M117.615 128.999H62.3855C55.5561 128.999 50 123.443 50 116.614V81.4668C50 80.1724 51.0494 79.123 52.3438 79.123C53.6381 79.123 54.6875 80.1724 54.6875 81.4668C54.6875 83.6712 55.9117 85.6516 57.8823 86.6368L90 102.697L122.117 86.637C124.088 85.6516 125.312 83.6712 125.312 81.468V81.4668C125.312 80.1724 126.362 79.123 127.656 79.123C128.943 79.123 129.988 80.1601 130 81.444C130 81.4515 130 81.4591 130 81.4668V116.614C130 123.443 124.444 128.999 117.615 128.999Z" fill="#E74779"/>
<path d="M130 116.614V81.4668C130 81.4593 130 81.4516 130 81.444C129.988 80.1601 128.943 79.123 127.656 79.123C126.362 79.123 125.312 80.1724 125.312 81.4668V81.468C125.312 83.6712 124.088 85.6516 122.117 86.637L90 102.697V128.999H117.615C124.444 128.999 130 123.443 130 116.614Z" fill="#AF1F4C"/>
<path d="M116.383 93.5051C115.692 93.078 115.271 92.3236 115.271 91.5113V71.4279C115.271 70.6155 115.692 69.8612 116.383 69.4341C117.074 69.0071 117.936 68.968 118.663 69.3315L124.214 72.1066C127.783 73.8908 130.001 77.478 130.001 81.4683V81.4696C130.001 85.4599 127.783 89.0471 124.214 90.8312L118.663 93.6077C117.952 93.9633 117.088 93.9408 116.383 93.5051Z" fill="#AF1F4C"/>
<path d="M61.3373 93.6074L55.7858 90.8305C52.2172 89.0468 50 85.4597 50 81.4694V81.4682C50 77.4779 52.2172 73.8907 55.7864 72.1066L61.3372 69.3315C62.0636 68.968 62.9266 69.0071 63.6175 69.4341C64.3086 69.8611 64.7291 70.6155 64.7291 71.4279V91.5113C64.7291 92.3236 64.3086 93.078 63.6175 93.505C62.9386 93.9246 62.0756 93.9768 61.3373 93.6074Z" fill="#AF1F4C"/>
<path d="M90.0003 107.661C89.6411 107.661 89.282 107.579 88.9522 107.414L61.3376 93.6067C60.5436 93.2097 60.042 92.3981 60.042 91.5103V58.875C60.042 53.4203 64.4542 49 69.917 49H110.084C115.537 49 119.959 53.4116 119.959 58.875V91.5105C119.959 92.3983 119.457 93.2097 118.663 93.6069L91.0484 107.414C90.7186 107.579 90.3595 107.661 90.0003 107.661Z" fill="#F3F9FF"/>
<path d="M118.663 93.6067C119.457 93.2097 119.958 92.3981 119.958 91.5103V58.875C119.958 53.4116 115.537 49 110.083 49H90V107.661C90.3592 107.661 90.7183 107.579 91.0481 107.414L118.663 93.6067Z" fill="#E1EEFF"/>
<path d="M84.6039 94.0182L70.7702 80.1845C69.8548 79.2693 69.8556 77.7843 70.7703 76.8698L77.8711 69.7703C78.7864 68.8553 80.2703 68.8551 81.1855 69.7704L86.2611 74.8461L98.868 62.2392C99.7831 61.324 101.267 61.3239 102.182 62.239L109.283 69.3386C110.199 70.254 110.198 71.7389 109.283 72.6532L87.9184 94.0182C87.003 94.9337 85.5184 94.9326 84.6039 94.0182Z" fill="#F086A7"/>
<path d="M90 91.9362L109.283 72.6532C110.197 71.7389 110.198 70.254 109.283 69.3386L102.182 62.239C101.267 61.3239 99.783 61.324 98.8677 62.2392L90 71.107V91.9362Z" fill="#E74779"/>
</g>
<path d="M150.864 48.2276L146.918 47.2435C146.398 47.092 145.932 46.7961 145.574 46.3905C145.217 45.9849 144.982 45.4862 144.897 44.9526L144.053 40.717C143.999 40.5624 143.898 40.4282 143.765 40.3332C143.631 40.2383 143.471 40.1873 143.307 40.1873C143.143 40.1873 142.983 40.2383 142.849 40.3332C142.715 40.4282 142.615 40.5624 142.561 40.717L141.835 44.6534C141.74 45.2856 141.467 45.8779 141.048 46.3615C140.629 46.8451 140.081 47.2001 139.467 47.3853L135.789 48.3536C135.58 48.3536 135.379 48.4365 135.231 48.5842C135.083 48.7318 135 48.9321 135 49.1409C135 49.3497 135.083 49.5499 135.231 49.6976C135.379 49.8452 135.58 49.9281 135.789 49.9281L139.483 50.8414C140.091 51.0228 140.636 51.3716 141.055 51.8478C141.474 52.3241 141.75 52.9084 141.851 53.5339L142.64 57.4702C142.694 57.6249 142.794 57.7591 142.928 57.854C143.062 57.949 143.222 58 143.386 58C143.55 58 143.71 57.949 143.844 57.854C143.977 57.7591 144.078 57.6249 144.132 57.4702L144.921 53.2111C144.996 52.6806 145.221 52.1823 145.569 51.7741C145.917 51.3658 146.374 51.0643 146.886 50.9044L150.833 49.8573C150.94 49.8594 151.046 49.8403 151.146 49.8013C151.246 49.7622 151.337 49.704 151.415 49.6298C151.492 49.5556 151.554 49.4669 151.597 49.3688C151.64 49.2708 151.663 49.1652 151.665 49.0582C151.667 48.9512 151.648 48.8448 151.609 48.7452C151.57 48.6455 151.511 48.5546 151.437 48.4774C151.363 48.4003 151.274 48.3385 151.175 48.2957C151.077 48.2528 150.971 48.2297 150.864 48.2276Z" fill="#F2BC36"/>
<path d="M162.507 25.869L160.139 25.2786C159.831 25.1875 159.554 25.0113 159.342 24.7703C159.13 24.5293 158.99 24.2334 158.939 23.9166L158.434 21.3894C158.42 21.2817 158.367 21.1827 158.285 21.1111C158.203 21.0395 158.097 21 157.988 21C157.879 21 157.774 21.0395 157.692 21.1111C157.61 21.1827 157.557 21.2817 157.542 21.3894L157.108 23.7513C157.054 24.1259 156.895 24.4777 156.649 24.766C156.404 25.0543 156.081 25.2675 155.719 25.3809L153.525 25.9556C153.423 25.9853 153.334 26.047 153.271 26.1314C153.207 26.2159 153.173 26.3185 153.173 26.424C153.173 26.5296 153.207 26.6322 153.271 26.7167C153.334 26.8011 153.423 26.8628 153.525 26.8925L155.727 27.4436C156.087 27.5478 156.411 27.7505 156.662 28.0287C156.913 28.3069 157.082 28.6496 157.148 29.0181L157.613 31.3799C157.633 31.4826 157.688 31.5752 157.768 31.6419C157.849 31.7085 157.951 31.745 158.055 31.745C158.16 31.745 158.262 31.7085 158.342 31.6419C158.423 31.5752 158.478 31.4826 158.497 31.3799L158.971 28.8449C159.017 28.5281 159.152 28.2308 159.36 27.9871C159.568 27.7434 159.841 27.5631 160.147 27.4672L162.515 26.8452C162.579 26.8447 162.642 26.8316 162.702 26.8066C162.761 26.7816 162.814 26.7452 162.859 26.6995C162.905 26.6538 162.94 26.5997 162.964 26.5403C162.988 26.4809 163.001 26.4173 163 26.3532C162.999 26.2891 162.986 26.2257 162.961 26.1667C162.936 26.1077 162.9 26.0542 162.854 26.0092C162.808 25.9642 162.754 25.9287 162.694 25.9047C162.635 25.8806 162.571 25.8685 162.507 25.869Z" fill="#F2BC36"/>
<path d="M12.1359 54.2276L16.0822 53.2435C16.602 53.092 17.068 52.7961 17.4257 52.3905C17.7835 51.9849 18.0182 51.4862 18.1027 50.9526L18.9472 46.717C19.0009 46.5624 19.1016 46.4282 19.2353 46.3332C19.3689 46.2383 19.529 46.1873 19.6931 46.1873C19.8572 46.1873 20.0172 46.2383 20.1509 46.3332C20.2846 46.4282 20.3852 46.5624 20.4389 46.717L21.165 50.6534C21.2601 51.2856 21.533 51.8779 21.9521 52.3615C22.3713 52.8451 22.9194 53.2001 23.5328 53.3853L27.2107 54.3536C27.4201 54.3536 27.6208 54.4365 27.7688 54.5842C27.9168 54.7318 28 54.9321 28 55.1409C28 55.3497 27.9168 55.5499 27.7688 55.6976C27.6208 55.8452 27.4201 55.9281 27.2107 55.9281L23.517 56.8414C22.9085 57.0228 22.3636 57.3716 21.9448 57.8478C21.526 58.3241 21.2503 58.9084 21.1492 59.5339L20.36 63.4702C20.3063 63.6249 20.2056 63.7591 20.072 63.854C19.9383 63.949 19.7782 64 19.6141 64C19.45 64 19.29 63.949 19.1563 63.854C19.0226 63.7591 18.922 63.6249 18.8683 63.4702L18.079 59.2111C18.0035 58.6806 17.7788 58.1823 17.431 57.7741C17.0832 57.3658 16.6264 57.0643 16.1138 56.9044L12.1675 55.8573C12.0602 55.8594 11.9536 55.8403 11.8537 55.8013C11.7538 55.7622 11.6626 55.704 11.5852 55.6298C11.5079 55.5556 11.446 55.4669 11.403 55.3688C11.3601 55.2708 11.3369 55.1652 11.3348 55.0582C11.3328 54.9512 11.3518 54.8448 11.391 54.7452C11.4301 54.6455 11.4885 54.5546 11.5629 54.4774C11.6373 54.4003 11.7262 54.3385 11.8245 54.2957C11.9228 54.2528 12.0286 54.2297 12.1359 54.2276Z" fill="#F2BC36"/>
<path d="M0.493301 31.869L2.86108 31.2786C3.16948 31.1875 3.44577 31.0113 3.65805 30.7703C3.87033 30.5293 4.00994 30.2334 4.06075 29.9166L4.56587 27.3894C4.58028 27.2817 4.63344 27.1827 4.71546 27.1111C4.79748 27.0395 4.90279 27 5.01181 27C5.12082 27 5.22613 27.0395 5.30815 27.1111C5.39017 27.1827 5.44333 27.2817 5.45774 27.3894L5.89182 29.7513C5.94581 30.1259 6.10487 30.4777 6.35065 30.766C6.59643 31.0543 6.91892 31.2675 7.28092 31.3809L9.47506 31.9556C9.57657 31.9853 9.66572 32.047 9.72914 32.1314C9.79256 32.2159 9.82684 32.3185 9.82684 32.424C9.82684 32.5296 9.79256 32.6322 9.72914 32.7167C9.66572 32.8011 9.57657 32.8628 9.47506 32.8925L7.27302 33.4436C6.9126 33.5478 6.58859 33.7505 6.33755 34.0287C6.08651 34.3069 5.91846 34.6496 5.85237 35.0181L5.3867 37.3799C5.36716 37.4826 5.31233 37.5752 5.23164 37.6419C5.15096 37.7085 5.04947 37.745 4.94472 37.745C4.83996 37.745 4.73849 37.7085 4.6578 37.6419C4.57711 37.5752 4.52227 37.4826 4.50273 37.3799L4.02918 34.8449C3.98303 34.5281 3.84818 34.2308 3.64014 33.9871C3.43211 33.7434 3.15933 33.5631 2.85319 33.4672L0.485415 32.8452C0.421154 32.8447 0.35763 32.8316 0.298458 32.8066C0.239286 32.7816 0.185621 32.7452 0.140549 32.6995C0.0954762 32.6538 0.0598717 32.5997 0.035759 32.5403C0.0116463 32.4809 -0.000501633 32.4173 1.71661e-05 32.3532C0.000535965 32.2891 0.0137138 32.2257 0.038784 32.1667C0.0638542 32.1077 0.100328 32.0542 0.146135 32.0092C0.19194 31.9642 0.246176 31.9287 0.305744 31.9047C0.365313 31.8806 0.429041 31.8685 0.493301 31.869Z" fill="#F2BC36"/>
<path d="M148.669 151.133L151.487 150.441C151.859 150.335 152.191 150.127 152.447 149.842C152.702 149.557 152.87 149.207 152.931 148.832L153.534 145.855C153.572 145.747 153.644 145.652 153.739 145.586C153.835 145.519 153.949 145.483 154.066 145.483C154.184 145.483 154.298 145.519 154.393 145.586C154.489 145.652 154.561 145.747 154.599 145.855L155.118 148.621C155.186 149.066 155.381 149.482 155.68 149.822C155.979 150.161 156.371 150.411 156.809 150.541L159.436 151.221C159.586 151.221 159.729 151.28 159.835 151.383C159.941 151.487 160 151.628 160 151.775C160 151.921 159.941 152.062 159.835 152.166C159.729 152.27 159.586 152.328 159.436 152.328L156.798 152.97C156.363 153.097 155.974 153.342 155.675 153.677C155.376 154.012 155.179 154.422 155.107 154.862L154.543 157.628C154.505 157.736 154.433 157.831 154.337 157.897C154.242 157.964 154.127 158 154.01 158C153.893 158 153.779 157.964 153.683 157.897C153.588 157.831 153.516 157.736 153.477 157.628L152.914 154.635C152.86 154.262 152.699 153.912 152.451 153.625C152.202 153.338 151.876 153.126 151.51 153.014L148.691 152.278C148.614 152.28 148.538 152.266 148.467 152.239C148.396 152.211 148.33 152.17 148.275 152.118C148.22 152.066 148.176 152.004 148.145 151.935C148.114 151.866 148.098 151.792 148.096 151.717C148.095 151.641 148.108 151.567 148.136 151.497C148.164 151.427 148.206 151.363 148.259 151.308C148.312 151.254 148.376 151.211 148.446 151.181C148.516 151.151 148.592 151.134 148.669 151.133Z" fill="#F2BC36"/>
<path d="M140.352 135.421L142.044 135.007C142.264 134.943 142.461 134.819 142.613 134.649C142.765 134.48 142.864 134.272 142.901 134.049L143.261 132.274C143.272 132.198 143.31 132.128 143.368 132.078C143.427 132.028 143.502 132 143.58 132C143.658 132 143.733 132.028 143.792 132.078C143.85 132.128 143.888 132.198 143.898 132.274L144.208 133.933C144.247 134.197 144.361 134.444 144.536 134.646C144.712 134.849 144.942 134.999 145.201 135.078L146.768 135.482C146.84 135.503 146.904 135.547 146.949 135.606C146.995 135.665 147.019 135.737 147.019 135.811C147.019 135.886 146.995 135.958 146.949 136.017C146.904 136.076 146.84 136.12 146.768 136.141L145.195 136.528C144.938 136.601 144.706 136.744 144.527 136.939C144.348 137.135 144.227 137.375 144.18 137.634L143.848 139.294C143.834 139.366 143.795 139.431 143.737 139.478C143.679 139.525 143.607 139.551 143.532 139.551C143.457 139.551 143.385 139.525 143.327 139.478C143.269 139.431 143.23 139.366 143.216 139.294L142.878 137.513C142.845 137.29 142.749 137.081 142.6 136.91C142.452 136.739 142.257 136.612 142.038 136.545L140.347 136.107C140.301 136.107 140.255 136.098 140.213 136.08C140.171 136.063 140.133 136.037 140.1 136.005C140.068 135.973 140.043 135.935 140.026 135.893C140.008 135.851 140 135.807 140 135.762C140 135.717 140.01 135.672 140.028 135.631C140.046 135.589 140.072 135.552 140.104 135.52C140.137 135.488 140.176 135.463 140.218 135.447C140.261 135.43 140.306 135.421 140.352 135.421Z" fill="#F2BC36"/>
<path d="M36.745 166.635L34.5523 166.088C34.2663 166.005 34.0099 165.842 33.8131 165.619C33.6162 165.395 33.4871 165.12 33.4409 164.826L32.9713 162.487C32.944 162.399 32.8894 162.322 32.8154 162.268C32.7414 162.213 32.6518 162.184 32.5599 162.184C32.468 162.184 32.3785 162.213 32.3044 162.268C32.2304 162.322 32.1758 162.399 32.1485 162.487L31.7522 164.641C31.7016 164.988 31.5533 165.315 31.3245 165.582C31.0957 165.849 30.7959 166.045 30.4598 166.148L28.4308 166.687C28.3165 166.687 28.207 166.732 28.1262 166.813C28.0454 166.894 28 167.003 28 167.118C28 167.232 28.0454 167.341 28.1262 167.422C28.207 167.503 28.3165 167.548 28.4308 167.548L30.4641 168.052C30.7976 168.155 31.0956 168.349 31.3241 168.612C31.5526 168.876 31.7024 169.198 31.7565 169.543L32.1873 171.697C32.2145 171.785 32.2692 171.861 32.3432 171.916C32.4172 171.97 32.5067 172 32.5987 172C32.6906 172 32.7801 171.97 32.8542 171.916C32.9282 171.861 32.9828 171.785 33.0101 171.697L33.4409 169.345C33.4831 169.052 33.6075 168.777 33.7996 168.552C33.9918 168.327 34.2438 168.161 34.5265 168.074L36.745 167.501C36.8599 167.501 36.97 167.455 37.0512 167.374C37.1324 167.293 37.178 167.183 37.178 167.068C37.178 166.953 37.1324 166.843 37.0512 166.762C36.97 166.681 36.8599 166.635 36.745 166.635Z" fill="#F2BC36"/>
<path d="M44.7533 153.651L43.461 153.332C43.292 153.282 43.1408 153.185 43.0249 153.052C42.909 152.92 42.8331 152.757 42.8062 152.583L42.5262 151.2C42.5155 151.144 42.4856 151.093 42.4415 151.056C42.3975 151.02 42.3421 151 42.2849 151C42.2277 151 42.1723 151.02 42.1283 151.056C42.0843 151.093 42.0543 151.144 42.0437 151.2L41.8067 152.492C41.7732 152.693 41.6852 152.881 41.5523 153.035C41.4193 153.189 41.2466 153.304 41.0529 153.367L39.8553 153.681C39.7971 153.694 39.7451 153.727 39.7079 153.773C39.6707 153.82 39.6504 153.878 39.6504 153.937C39.6504 153.997 39.6707 154.055 39.7079 154.101C39.7451 154.148 39.7971 154.181 39.8553 154.194L41.0529 154.513C41.249 154.57 41.4252 154.681 41.5615 154.833C41.6978 154.985 41.7887 155.173 41.824 155.374L42.0781 156.666C42.0909 156.721 42.1219 156.771 42.1661 156.806C42.2103 156.841 42.2651 156.86 42.3215 156.86C42.378 156.86 42.4328 156.841 42.477 156.806C42.5212 156.771 42.5522 156.721 42.5649 156.666L42.8234 155.279C42.846 155.104 42.9179 154.939 43.0308 154.803C43.1437 154.668 43.2929 154.567 43.461 154.513L44.7533 154.168C44.8138 154.157 44.8685 154.125 44.9078 154.078C44.9472 154.03 44.9687 153.971 44.9687 153.909C44.9687 153.848 44.9472 153.788 44.9078 153.741C44.8685 153.694 44.8138 153.662 44.7533 153.651Z" fill="#F2BC36"/>
<defs>
<clipPath id="clip0_59_5010">
<rect width="80" height="80" fill="white" transform="translate(50 49)"/>
</clipPath>
</defs>
</svg>
