<svg width="24" height="53" viewBox="0 0 24 53" fill="none" xmlns="http://www.w3.org/2000/svg">
<path d="M22.6831 37.72V43H1.52312V38.8L12.3231 28.6C13.4698 27.5067 14.2431 26.5733 14.6431 25.8C15.0431 25 15.2431 24.2133 15.2431 23.44C15.2431 22.32 14.8565 21.4667 14.0831 20.88C13.3365 20.2667 12.2298 19.96 10.7631 19.96C9.53646 19.96 8.42979 20.2 7.44313 20.68C6.45646 21.1333 5.62979 21.8267 4.96313 22.76L0.243125 19.72C1.33646 18.0933 2.84313 16.8267 4.76313 15.92C6.68313 14.9867 8.88313 14.52 11.3631 14.52C13.4431 14.52 15.2565 14.8667 16.8031 15.56C18.3765 16.2267 19.5898 17.1867 20.4431 18.44C21.3231 19.6667 21.7631 21.12 21.7631 22.8C21.7631 24.32 21.4431 25.7467 20.8031 27.08C20.1631 28.4133 18.9231 29.9333 17.0831 31.64L10.6431 37.72H22.6831Z" fill="url(#paint0_linear_2126_9049)"/>
<g clip-path="url(#clip0_2126_9049)">
<path d="M16.0311 6.05007L16.2673 6.52258C16.6036 7.19605 16.2795 8.02771 15.4088 8.26979C15.3978 8.27345 14.1918 8.59718 13.8255 7.50012L13.4725 6.43969L14.4771 5.43468L11.9982 1.7168L9.51926 5.43468L10.5238 6.43969L10.1708 7.50012C9.76682 8.71055 8.10416 8.42558 7.71207 7.57201C7.55731 7.23593 7.56372 6.85363 7.72901 6.52258L7.96481 6.05051L4 4.63524L5.90303 11.9392L6.84074 12.8769H11.9982H17.1556L18.0933 11.9392L20 4.63571L16.0311 6.05007Z" fill="#FED843"/>
<path d="M18.0932 11.9392L19.9999 4.63571L16.0309 6.05007L16.2672 6.52258C16.6035 7.19605 16.2794 8.02771 15.4087 8.26979C15.3977 8.27345 14.1917 8.59718 13.8254 7.50012L13.4724 6.43969L14.477 5.43468L11.998 1.7168V12.8769H17.1555L18.0932 11.9392Z" fill="#FABE2C"/>
<path d="M11.998 11.939H5.90283V14.2832H11.998H18.0931V11.939H11.998Z" fill="#FABE2C"/>
<path d="M11.998 11.939H18.0932V14.2832H11.998V11.939Z" fill="#FF9100"/>
<path d="M9.65186 11.939L11.9958 9.59503L14.3397 11.939L11.9958 14.2829L9.65186 11.939Z" fill="#FABE2C"/>
<path d="M11.998 9.59473V14.2833L14.3423 11.939L11.998 9.59473Z" fill="#FF9100"/>
</g>
<defs>
<linearGradient id="paint0_linear_2126_9049" x1="18.4615" y1="42.9487" x2="9.04538" y2="12.5096" gradientUnits="userSpaceOnUse">
<stop stop-color="#E74779"/>
<stop offset="1" stop-color="#F59DB8"/>
</linearGradient>
<clipPath id="clip0_2126_9049">
<rect width="16" height="16" fill="white" transform="translate(4)"/>
</clipPath>
</defs>
</svg>
