<svg width="25" height="53" viewBox="0 0 25 53" fill="none" xmlns="http://www.w3.org/2000/svg">
<path d="M23.5777 15V19.2L13.1777 43H6.13766L16.1777 20.28H6.89766V24.84H1.13766V15H23.5777Z" fill="url(#paint0_linear_2126_9112)"/>
<g clip-path="url(#clip0_2126_9112)">
<path d="M15.0311 6.05007L15.2673 6.52258C15.6036 7.19605 15.2795 8.02771 14.4088 8.26979C14.3978 8.27345 13.1918 8.59718 12.8255 7.50012L12.4725 6.43969L13.4771 5.43468L10.9982 1.7168L8.51926 5.43468L9.52383 6.43969L9.17082 7.50012C8.76682 8.71055 7.10416 8.42558 6.71207 7.57201C6.55731 7.23593 6.56372 6.85363 6.72901 6.52258L6.96481 6.05051L3 4.63524L4.90303 11.9392L5.84074 12.8769H10.9982H16.1556L17.0933 11.9392L19 4.63571L15.0311 6.05007Z" fill="#FED843"/>
<path d="M17.0932 11.9392L18.9999 4.63571L15.0309 6.05007L15.2672 6.52258C15.6035 7.19605 15.2794 8.02771 14.4087 8.26979C14.3977 8.27345 13.1917 8.59718 12.8254 7.50012L12.4724 6.43969L13.477 5.43468L10.998 1.7168V12.8769H16.1555L17.0932 11.9392Z" fill="#FABE2C"/>
<path d="M10.998 11.939H4.90283V14.2832H10.998H17.0931V11.939H10.998Z" fill="#FABE2C"/>
<path d="M10.998 11.939H17.0932V14.2832H10.998V11.939Z" fill="#FF9100"/>
<path d="M8.65186 11.939L10.9958 9.59503L13.3397 11.939L10.9958 14.2829L8.65186 11.939Z" fill="#FABE2C"/>
<path d="M10.998 9.59473V14.2833L13.3423 11.939L10.998 9.59473Z" fill="#FF9100"/>
</g>
<defs>
<linearGradient id="paint0_linear_2126_9112" x1="19.2308" y1="42.9487" x2="10.1289" y2="12.2997" gradientUnits="userSpaceOnUse">
<stop stop-color="#E74779"/>
<stop offset="1" stop-color="#F59DB8"/>
</linearGradient>
<clipPath id="clip0_2126_9112">
<rect width="16" height="16" fill="white" transform="translate(3)"/>
</clipPath>
</defs>
</svg>
