<svg width="27" height="53" viewBox="0 0 27 53" fill="none" xmlns="http://www.w3.org/2000/svg">
<path d="M21.0169 28.28C22.4035 28.9733 23.4569 29.88 24.1769 31C24.9235 32.12 25.2969 33.4133 25.2969 34.88C25.2969 36.6133 24.8035 38.1333 23.8169 39.44C22.8302 40.72 21.4435 41.72 19.6569 42.44C17.8702 43.1333 15.8035 43.48 13.4569 43.48C11.1102 43.48 9.04354 43.1333 7.25688 42.44C5.49688 41.72 4.12354 40.72 3.13688 39.44C2.17688 38.1333 1.69688 36.6133 1.69688 34.88C1.69688 33.4133 2.05688 32.12 2.77688 31C3.52354 29.88 4.57688 28.9733 5.93688 28.28C4.89688 27.64 4.09688 26.84 3.53688 25.88C2.97688 24.8933 2.69688 23.7733 2.69688 22.52C2.69688 20.8933 3.15021 19.48 4.05688 18.28C4.96354 17.08 6.23021 16.16 7.85688 15.52C9.48354 14.8533 11.3502 14.52 13.4569 14.52C15.5902 14.52 17.4702 14.8533 19.0969 15.52C20.7502 16.16 22.0302 17.08 22.9369 18.28C23.8435 19.48 24.2969 20.8933 24.2969 22.52C24.2969 23.7733 24.0169 24.8933 23.4569 25.88C22.8969 26.84 22.0835 27.64 21.0169 28.28ZM13.4569 19.28C12.1502 19.28 11.0969 19.6 10.2969 20.24C9.52354 20.8533 9.13688 21.7067 9.13688 22.8C9.13688 23.8667 9.52354 24.7067 10.2969 25.32C11.0702 25.9333 12.1235 26.24 13.4569 26.24C14.7902 26.24 15.8569 25.9333 16.6569 25.32C17.4569 24.7067 17.8569 23.8667 17.8569 22.8C17.8569 21.7067 17.4569 20.8533 16.6569 20.24C15.8569 19.6 14.7902 19.28 13.4569 19.28ZM13.4569 38.72C15.0835 38.72 16.3635 38.36 17.2969 37.64C18.2569 36.8933 18.7369 35.9067 18.7369 34.68C18.7369 33.4533 18.2569 32.48 17.2969 31.76C16.3635 31.04 15.0835 30.68 13.4569 30.68C11.8569 30.68 10.5902 31.04 9.65688 31.76C8.72354 32.48 8.25688 33.4533 8.25688 34.68C8.25688 35.9333 8.72354 36.92 9.65688 37.64C10.5902 38.36 11.8569 38.72 13.4569 38.72Z" fill="url(#paint0_linear_2126_9124)"/>
<g clip-path="url(#clip0_2126_9124)">
<path d="M17.0311 6.05007L17.2673 6.52258C17.6036 7.19605 17.2795 8.02771 16.4088 8.26979C16.3978 8.27345 15.1918 8.59718 14.8255 7.50012L14.4725 6.43969L15.4771 5.43468L12.9982 1.7168L10.5193 5.43468L11.5238 6.43969L11.1708 7.50012C10.7668 8.71055 9.10416 8.42558 8.71207 7.57201C8.55731 7.23593 8.56372 6.85363 8.72901 6.52258L8.96481 6.05051L5 4.63524L6.90303 11.9392L7.84074 12.8769H12.9982H18.1556L19.0933 11.9392L21 4.63571L17.0311 6.05007Z" fill="#FED843"/>
<path d="M19.0932 11.9392L20.9999 4.63571L17.0309 6.05007L17.2672 6.52258C17.6035 7.19605 17.2794 8.02771 16.4087 8.26979C16.3977 8.27345 15.1917 8.59718 14.8254 7.50012L14.4724 6.43969L15.477 5.43468L12.998 1.7168V12.8769H18.1555L19.0932 11.9392Z" fill="#FABE2C"/>
<path d="M12.998 11.939H6.90283V14.2832H12.998H19.0931V11.939H12.998Z" fill="#FABE2C"/>
<path d="M12.998 11.939H19.0932V14.2832H12.998V11.939Z" fill="#FF9100"/>
<path d="M10.6519 11.939L12.9958 9.59503L15.3397 11.939L12.9958 14.2829L10.6519 11.939Z" fill="#FABE2C"/>
<path d="M12.998 9.59473V14.2833L15.3423 11.939L12.998 9.59473Z" fill="#FF9100"/>
</g>
<defs>
<linearGradient id="paint0_linear_2126_9124" x1="20.7692" y1="42.9487" x2="12.243" y2="11.9412" gradientUnits="userSpaceOnUse">
<stop stop-color="#E74779"/>
<stop offset="1" stop-color="#F59DB8"/>
</linearGradient>
<clipPath id="clip0_2126_9124">
<rect width="16" height="16" fill="white" transform="translate(5)"/>
</clipPath>
</defs>
</svg>
