<svg width="24" height="53" viewBox="0 0 24 53" fill="none" xmlns="http://www.w3.org/2000/svg">
<path d="M14.8041 26.4C17.2574 26.8 19.1374 27.72 20.4441 29.16C21.7507 30.5733 22.4041 32.3333 22.4041 34.44C22.4041 36.0667 21.9774 37.5733 21.1241 38.96C20.2707 40.32 18.9641 41.4133 17.2041 42.24C15.4707 43.0667 13.3374 43.48 10.8041 43.48C8.83073 43.48 6.88406 43.2267 4.96406 42.72C3.07073 42.1867 1.4574 41.44 0.124062 40.48L2.64406 35.52C3.71073 36.32 4.9374 36.9467 6.32406 37.4C7.7374 37.8267 9.1774 38.04 10.6441 38.04C12.2707 38.04 13.5507 37.7333 14.4841 37.12C15.4174 36.48 15.8841 35.5867 15.8841 34.44C15.8841 32.1467 14.1374 31 10.6441 31H7.68406V26.72L13.4441 20.2H1.52406V15H21.1241V19.2L14.8041 26.4Z" fill="url(#paint0_linear_2126_9062)"/>
<g clip-path="url(#clip0_2126_9062)">
<path d="M15.0311 6.05007L15.2673 6.52258C15.6036 7.19605 15.2795 8.02771 14.4088 8.26979C14.3978 8.27345 13.1918 8.59718 12.8255 7.50012L12.4725 6.43969L13.4771 5.43468L10.9982 1.7168L8.51926 5.43468L9.52383 6.43969L9.17082 7.50012C8.76682 8.71055 7.10416 8.42558 6.71207 7.57201C6.55731 7.23593 6.56372 6.85363 6.72901 6.52258L6.96481 6.05051L3 4.63524L4.90303 11.9392L5.84074 12.8769H10.9982H16.1556L17.0933 11.9392L19 4.63571L15.0311 6.05007Z" fill="#FED843"/>
<path d="M17.0932 11.9392L18.9999 4.63571L15.0309 6.05007L15.2672 6.52258C15.6035 7.19605 15.2794 8.02771 14.4087 8.26979C14.3977 8.27345 13.1917 8.59718 12.8254 7.50012L12.4724 6.43969L13.477 5.43468L10.998 1.7168V12.8769H16.1555L17.0932 11.9392Z" fill="#FABE2C"/>
<path d="M10.998 11.939H4.90283V14.2832H10.998H17.0931V11.939H10.998Z" fill="#FABE2C"/>
<path d="M10.998 11.939H17.0932V14.2832H10.998V11.939Z" fill="#FF9100"/>
<path d="M8.65186 11.939L10.9958 9.59503L13.3397 11.939L10.9958 14.2829L8.65186 11.939Z" fill="#FABE2C"/>
<path d="M10.998 9.59473V14.2833L13.3423 11.939L10.998 9.59473Z" fill="#FF9100"/>
</g>
<defs>
<linearGradient id="paint0_linear_2126_9062" x1="18.4615" y1="42.9487" x2="9.04538" y2="12.5096" gradientUnits="userSpaceOnUse">
<stop stop-color="#E74779"/>
<stop offset="1" stop-color="#F59DB8"/>
</linearGradient>
<clipPath id="clip0_2126_9062">
<rect width="16" height="16" fill="white" transform="translate(3)"/>
</clipPath>
</defs>
</svg>
