<svg width="26" height="53" viewBox="0 0 26 53" fill="none" xmlns="http://www.w3.org/2000/svg">
<path d="M15.3056 25.44C17.0923 25.44 18.719 25.8 20.1856 26.52C21.6523 27.24 22.8123 28.2667 23.6656 29.6C24.519 30.9067 24.9456 32.4267 24.9456 34.16C24.9456 36.0267 24.479 37.6667 23.5456 39.08C22.6123 40.4933 21.3323 41.5867 19.7056 42.36C18.1056 43.1067 16.319 43.48 14.3456 43.48C10.4256 43.48 7.35896 42.28 5.14563 39.88C2.93229 37.48 1.82563 34.0533 1.82563 29.6C1.82563 26.4267 2.42563 23.7067 3.62563 21.44C4.82563 19.1733 6.49229 17.4533 8.62563 16.28C10.7856 15.1067 13.279 14.52 16.1056 14.52C17.599 14.52 19.0256 14.6933 20.3856 15.04C21.7723 15.36 22.9456 15.8267 23.9056 16.44L21.5056 21.2C20.119 20.2667 18.3723 19.8 16.2656 19.8C13.8923 19.8 12.0123 20.4933 10.6256 21.88C9.23896 23.2667 8.49229 25.28 8.38563 27.92C10.039 26.2667 12.3456 25.44 15.3056 25.44ZM13.9856 38.64C15.3723 38.64 16.4923 38.2667 17.3456 37.52C18.2256 36.7733 18.6656 35.76 18.6656 34.48C18.6656 33.2 18.2256 32.1867 17.3456 31.44C16.4923 30.6667 15.3456 30.28 13.9056 30.28C12.4923 30.28 11.3323 30.68 10.4256 31.48C9.51896 32.2533 9.06563 33.2533 9.06563 34.48C9.06563 35.7067 9.50563 36.7067 10.3856 37.48C11.2656 38.2533 12.4656 38.64 13.9856 38.64Z" fill="url(#paint0_linear_2126_9099)"/>
<g clip-path="url(#clip0_2126_9099)">
<path d="M17.0311 6.05007L17.2673 6.52258C17.6036 7.19605 17.2795 8.02771 16.4088 8.26979C16.3978 8.27345 15.1918 8.59718 14.8255 7.50012L14.4725 6.43969L15.4771 5.43468L12.9982 1.7168L10.5193 5.43468L11.5238 6.43969L11.1708 7.50012C10.7668 8.71055 9.10416 8.42558 8.71207 7.57201C8.55731 7.23593 8.56372 6.85363 8.72901 6.52258L8.96481 6.05051L5 4.63524L6.90303 11.9392L7.84074 12.8769H12.9982H18.1556L19.0933 11.9392L21 4.63571L17.0311 6.05007Z" fill="#FED843"/>
<path d="M19.0932 11.9392L20.9999 4.63571L17.0309 6.05007L17.2672 6.52258C17.6035 7.19605 17.2794 8.02771 16.4087 8.26979C16.3977 8.27345 15.1917 8.59718 14.8254 7.50012L14.4724 6.43969L15.477 5.43468L12.998 1.7168V12.8769H18.1555L19.0932 11.9392Z" fill="#FABE2C"/>
<path d="M12.998 11.939H6.90283V14.2832H12.998H19.0931V11.939H12.998Z" fill="#FABE2C"/>
<path d="M12.998 11.939H19.0932V14.2832H12.998V11.939Z" fill="#FF9100"/>
<path d="M10.6519 11.939L12.9958 9.59503L15.3397 11.939L12.9958 14.2829L10.6519 11.939Z" fill="#FABE2C"/>
<path d="M12.998 9.59473V14.2833L15.3423 11.939L12.998 9.59473Z" fill="#FF9100"/>
</g>
<defs>
<linearGradient id="paint0_linear_2126_9099" x1="20" y1="42.9487" x2="11.1944" y2="12.1112" gradientUnits="userSpaceOnUse">
<stop stop-color="#E74779"/>
<stop offset="1" stop-color="#F59DB8"/>
</linearGradient>
<clipPath id="clip0_2126_9099">
<rect width="16" height="16" fill="white" transform="translate(5)"/>
</clipPath>
</defs>
</svg>
