<svg width="28" height="53" viewBox="0 0 28 53" fill="none" xmlns="http://www.w3.org/2000/svg">
<path d="M27.4109 37.12H22.8509V43H16.5309V37.12H1.45094V32.76L14.6509 15H21.4509L9.21094 31.84H16.7309V26.6H22.8509V31.84H27.4109V37.12Z" fill="url(#paint0_linear_2126_9074)"/>
<g clip-path="url(#clip0_2126_9074)">
<path d="M18.0311 6.05007L18.2673 6.52258C18.6036 7.19605 18.2795 8.02771 17.4088 8.26979C17.3978 8.27345 16.1918 8.59718 15.8255 7.50012L15.4725 6.43969L16.4771 5.43468L13.9982 1.7168L11.5193 5.43468L12.5238 6.43969L12.1708 7.50012C11.7668 8.71055 10.1042 8.42558 9.71207 7.57201C9.55731 7.23593 9.56372 6.85363 9.72901 6.52258L9.96481 6.05051L6 4.63524L7.90303 11.9392L8.84074 12.8769H13.9982H19.1556L20.0933 11.9392L22 4.63571L18.0311 6.05007Z" fill="#FED843"/>
<path d="M20.0932 11.9392L21.9999 4.63571L18.0309 6.05007L18.2672 6.52258C18.6035 7.19605 18.2794 8.02771 17.4087 8.26979C17.3977 8.27345 16.1917 8.59718 15.8254 7.50012L15.4724 6.43969L16.477 5.43468L13.998 1.7168V12.8769H19.1555L20.0932 11.9392Z" fill="#FABE2C"/>
<path d="M13.998 11.939H7.90283V14.2832H13.998H20.0931V11.939H13.998Z" fill="#FABE2C"/>
<path d="M13.998 11.939H20.0932V14.2832H13.998V11.939Z" fill="#FF9100"/>
<path d="M11.6519 11.939L13.9958 9.59503L16.3397 11.939L13.9958 14.2829L11.6519 11.939Z" fill="#FABE2C"/>
<path d="M13.998 9.59473V14.2833L16.3423 11.939L13.998 9.59473Z" fill="#FF9100"/>
</g>
<defs>
<linearGradient id="paint0_linear_2126_9074" x1="21.5385" y1="42.9487" x2="13.276" y2="11.7875" gradientUnits="userSpaceOnUse">
<stop stop-color="#E74779"/>
<stop offset="1" stop-color="#F59DB8"/>
</linearGradient>
<clipPath id="clip0_2126_9074">
<rect width="16" height="16" fill="white" transform="translate(6)"/>
</clipPath>
</defs>
</svg>
