<svg width="43" height="53" viewBox="0 0 43 53" fill="none" xmlns="http://www.w3.org/2000/svg">
<path d="M12.8538 15V43H6.37375V20.2H0.77375V15H12.8538ZM28.9178 43.48C26.5978 43.48 24.5311 42.9067 22.7178 41.76C20.9045 40.6133 19.4778 38.96 18.4378 36.8C17.4245 34.6133 16.9178 32.0133 16.9178 29C16.9178 25.9867 17.4245 23.4 18.4378 21.24C19.4778 19.0533 20.9045 17.3867 22.7178 16.24C24.5311 15.0933 26.5978 14.52 28.9178 14.52C31.2378 14.52 33.3045 15.0933 35.1178 16.24C36.9311 17.3867 38.3445 19.0533 39.3578 21.24C40.3978 23.4 40.9178 25.9867 40.9178 29C40.9178 32.0133 40.3978 34.6133 39.3578 36.8C38.3445 38.96 36.9311 40.6133 35.1178 41.76C33.3045 42.9067 31.2378 43.48 28.9178 43.48ZM28.9178 38C30.6245 38 31.9578 37.2667 32.9178 35.8C33.9045 34.3333 34.3978 32.0667 34.3978 29C34.3978 25.9333 33.9045 23.6667 32.9178 22.2C31.9578 20.7333 30.6245 20 28.9178 20C27.2378 20 25.9045 20.7333 24.9178 22.2C23.9578 23.6667 23.4778 25.9333 23.4778 29C23.4778 32.0667 23.9578 34.3333 24.9178 35.8C25.9045 37.2667 27.2378 38 28.9178 38Z" fill="url(#paint0_linear_2126_9397)"/>
<g clip-path="url(#clip0_2126_9397)">
<path d="M25.0311 6.05007L25.2673 6.52258C25.6036 7.19605 25.2795 8.02771 24.4088 8.26979C24.3978 8.27345 23.1918 8.59718 22.8255 7.50012L22.4725 6.43969L23.4771 5.43468L20.9982 1.7168L18.5193 5.43468L19.5238 6.43969L19.1708 7.50012C18.7668 8.71055 17.1042 8.42558 16.7121 7.57201C16.5573 7.23593 16.5637 6.85363 16.729 6.52258L16.9648 6.05051L13 4.63524L14.903 11.9392L15.8407 12.8769H20.9982H26.1556L27.0933 11.9392L29 4.63571L25.0311 6.05007Z" fill="#FED843"/>
<path d="M27.0932 11.9392L28.9999 4.63571L25.0309 6.05007L25.2672 6.52258C25.6035 7.19605 25.2794 8.02771 24.4087 8.26979C24.3977 8.27345 23.1917 8.59718 22.8254 7.50012L22.4724 6.43969L23.477 5.43468L20.998 1.7168V12.8769H26.1555L27.0932 11.9392Z" fill="#FABE2C"/>
<path d="M20.998 11.939H14.9028V14.2832H20.998H27.0931V11.939H20.998Z" fill="#FABE2C"/>
<path d="M20.998 11.939H27.0932V14.2832H20.998V11.939Z" fill="#FF9100"/>
<path d="M18.6519 11.939L20.9958 9.59503L23.3397 11.939L20.9958 14.2829L18.6519 11.939Z" fill="#FABE2C"/>
<path d="M20.998 9.59473V14.2833L23.3423 11.939L20.998 9.59473Z" fill="#FF9100"/>
</g>
<defs>
<linearGradient id="paint0_linear_2126_9397" x1="33.0769" y1="42.9487" x2="27.4852" y2="10.5622" gradientUnits="userSpaceOnUse">
<stop stop-color="#E74779"/>
<stop offset="1" stop-color="#F59DB8"/>
</linearGradient>
<clipPath id="clip0_2126_9397">
<rect width="16" height="16" fill="white" transform="translate(13)"/>
</clipPath>
</defs>
</svg>
