<svg width="26" height="53" viewBox="0 0 26 53" fill="none" xmlns="http://www.w3.org/2000/svg">
<path d="M11.6656 14.52C15.5856 14.52 18.6523 15.72 20.8656 18.12C23.079 20.4933 24.1856 23.92 24.1856 28.4C24.1856 31.5733 23.5856 34.2933 22.3856 36.56C21.2123 38.8267 19.5456 40.5467 17.3856 41.72C15.2256 42.8933 12.7323 43.48 9.90563 43.48C8.41229 43.48 6.98563 43.32 5.62563 43C4.26563 42.6533 3.10563 42.1733 2.14563 41.56L4.54563 36.8C5.90563 37.7333 7.65229 38.2 9.78563 38.2C12.159 38.2 14.039 37.5067 15.4256 36.12C16.8123 34.7067 17.559 32.68 17.6656 30.04C15.9856 31.72 13.6656 32.56 10.7056 32.56C8.91896 32.56 7.29229 32.2 5.82563 31.48C4.35896 30.76 3.19896 29.7467 2.34563 28.44C1.49229 27.1067 1.06563 25.5733 1.06563 23.84C1.06563 21.9733 1.53229 20.3333 2.46563 18.92C3.39896 17.5067 4.66563 16.4267 6.26563 15.68C7.89229 14.9067 9.69229 14.52 11.6656 14.52ZM12.1456 27.72C13.559 27.72 14.7056 27.3333 15.5856 26.56C16.4923 25.76 16.9456 24.7467 16.9456 23.52C16.9456 22.2933 16.5056 21.2933 15.6256 20.52C14.7723 19.7467 13.5856 19.36 12.0656 19.36C10.679 19.36 9.54563 19.7333 8.66563 20.48C7.81229 21.2267 7.38563 22.24 7.38563 23.52C7.38563 24.8 7.81229 25.8267 8.66563 26.6C9.54563 27.3467 10.7056 27.72 12.1456 27.72Z" fill="url(#paint0_linear_2126_9385)"/>
<g clip-path="url(#clip0_2126_9385)">
<path d="M16.0311 6.05007L16.2673 6.52258C16.6036 7.19605 16.2795 8.02771 15.4088 8.26979C15.3978 8.27345 14.1918 8.59718 13.8255 7.50012L13.4725 6.43969L14.4771 5.43468L11.9982 1.7168L9.51926 5.43468L10.5238 6.43969L10.1708 7.50012C9.76682 8.71055 8.10416 8.42558 7.71207 7.57201C7.55731 7.23593 7.56372 6.85363 7.72901 6.52258L7.96481 6.05051L4 4.63524L5.90303 11.9392L6.84074 12.8769H11.9982H17.1556L18.0933 11.9392L20 4.63571L16.0311 6.05007Z" fill="#FED843"/>
<path d="M18.0932 11.9392L19.9999 4.63571L16.0309 6.05007L16.2672 6.52258C16.6035 7.19605 16.2794 8.02771 15.4087 8.26979C15.3977 8.27345 14.1917 8.59718 13.8254 7.50012L13.4724 6.43969L14.477 5.43468L11.998 1.7168V12.8769H17.1555L18.0932 11.9392Z" fill="#FABE2C"/>
<path d="M11.998 11.939H5.90283V14.2832H11.998H18.0931V11.939H11.998Z" fill="#FABE2C"/>
<path d="M11.998 11.939H18.0932V14.2832H11.998V11.939Z" fill="#FF9100"/>
<path d="M9.65186 11.939L11.9958 9.59503L14.3397 11.939L11.9958 14.2829L9.65186 11.939Z" fill="#FABE2C"/>
<path d="M11.998 9.59473V14.2833L14.3423 11.939L11.998 9.59473Z" fill="#FF9100"/>
</g>
<defs>
<linearGradient id="paint0_linear_2126_9385" x1="20" y1="42.9487" x2="11.1944" y2="12.1112" gradientUnits="userSpaceOnUse">
<stop stop-color="#E74779"/>
<stop offset="1" stop-color="#F59DB8"/>
</linearGradient>
<clipPath id="clip0_2126_9385">
<rect width="16" height="16" fill="white" transform="translate(4)"/>
</clipPath>
</defs>
</svg>
