<svg width="24" height="53" viewBox="0 0 24 53" fill="none" xmlns="http://www.w3.org/2000/svg">
<path d="M11.2655 25.52C15.2121 25.52 18.1188 26.3067 19.9855 27.88C21.8788 29.4533 22.8255 31.56 22.8255 34.2C22.8255 35.9067 22.3988 37.4667 21.5455 38.88C20.6921 40.2667 19.3855 41.3867 17.6255 42.24C15.8921 43.0667 13.7455 43.48 11.1855 43.48C9.21214 43.48 7.26547 43.2267 5.34547 42.72C3.45214 42.1867 1.8388 41.44 0.505469 40.48L3.06547 35.52C4.13214 36.32 5.3588 36.9467 6.74547 37.4C8.13214 37.8267 9.5588 38.04 11.0255 38.04C12.6521 38.04 13.9321 37.72 14.8655 37.08C15.7988 36.44 16.2655 35.5467 16.2655 34.4C16.2655 33.2 15.7721 32.2933 14.7855 31.68C13.8255 31.0667 12.1455 30.76 9.74547 30.76H2.58547L4.02547 15H21.1055V20.2H9.42547L8.98547 25.52H11.2655Z" fill="url(#paint0_linear_2126_9087)"/>
<g clip-path="url(#clip0_2126_9087)">
<path d="M15.0311 6.05007L15.2673 6.52258C15.6036 7.19605 15.2795 8.02771 14.4088 8.26979C14.3978 8.27345 13.1918 8.59718 12.8255 7.50012L12.4725 6.43969L13.4771 5.43468L10.9982 1.7168L8.51926 5.43468L9.52383 6.43969L9.17082 7.50012C8.76682 8.71055 7.10416 8.42558 6.71207 7.57201C6.55731 7.23593 6.56372 6.85363 6.72901 6.52258L6.96481 6.05051L3 4.63524L4.90303 11.9392L5.84074 12.8769H10.9982H16.1556L17.0933 11.9392L19 4.63571L15.0311 6.05007Z" fill="#FED843"/>
<path d="M17.0932 11.9392L18.9999 4.63571L15.0309 6.05007L15.2672 6.52258C15.6035 7.19605 15.2794 8.02771 14.4087 8.26979C14.3977 8.27345 13.1917 8.59718 12.8254 7.50012L12.4724 6.43969L13.477 5.43468L10.998 1.7168V12.8769H16.1555L17.0932 11.9392Z" fill="#FABE2C"/>
<path d="M10.998 11.939H4.90283V14.2832H10.998H17.0931V11.939H10.998Z" fill="#FABE2C"/>
<path d="M10.998 11.939H17.0932V14.2832H10.998V11.939Z" fill="#FF9100"/>
<path d="M8.65186 11.939L10.9958 9.59503L13.3397 11.939L10.9958 14.2829L8.65186 11.939Z" fill="#FABE2C"/>
<path d="M10.998 9.59473V14.2833L13.3423 11.939L10.998 9.59473Z" fill="#FF9100"/>
</g>
<defs>
<linearGradient id="paint0_linear_2126_9087" x1="18.4615" y1="42.9487" x2="9.04538" y2="12.5096" gradientUnits="userSpaceOnUse">
<stop stop-color="#E74779"/>
<stop offset="1" stop-color="#F59DB8"/>
</linearGradient>
<clipPath id="clip0_2126_9087">
<rect width="16" height="16" fill="white" transform="translate(3)"/>
</clipPath>
</defs>
</svg>
