<svg width="17" height="53" viewBox="0 0 17 53" fill="none" xmlns="http://www.w3.org/2000/svg">
<path d="M13.528 15V43H7.04797V20.2H1.44797V15H13.528Z" fill="url(#paint0_linear_2349_9206)"/>
<g clip-path="url(#clip0_2349_9206)">
<path d="M12.0311 6.05007L12.2673 6.52258C12.6036 7.19605 12.2795 8.02771 11.4088 8.26979C11.3978 8.27345 10.1918 8.59718 9.82552 7.50012L9.47251 6.43969L10.4771 5.43468L7.99817 1.7168L5.51926 5.43468L6.52383 6.43969L6.17082 7.50012C5.76682 8.71055 4.10416 8.42558 3.71207 7.57201C3.55731 7.23593 3.56372 6.85363 3.72901 6.52258L3.96481 6.05051L0 4.63524L1.90303 11.9392L2.84074 12.8769H7.99817H13.1556L14.0933 11.9392L16 4.63571L12.0311 6.05007Z" fill="#FED843"/>
<path d="M14.0932 11.9392L15.9999 4.63571L12.0309 6.05007L12.2672 6.52258C12.6035 7.19605 12.2794 8.02771 11.4087 8.26979C11.3977 8.27345 10.1917 8.59718 9.8254 7.50012L9.47238 6.43969L10.477 5.43468L7.99805 1.7168V12.8769H13.1555L14.0932 11.9392Z" fill="#FABE2C"/>
<path d="M7.99797 11.939H1.90283V14.2832H7.99797H14.0931V11.939H7.99797Z" fill="#FABE2C"/>
<path d="M7.99805 11.939H14.0932V14.2832H7.99805V11.939Z" fill="#FF9100"/>
<path d="M5.65186 11.939L7.99579 9.59503L10.3397 11.939L7.99579 14.2829L5.65186 11.939Z" fill="#FABE2C"/>
<path d="M7.99805 9.59473V14.2833L10.3423 11.939L7.99805 9.59473Z" fill="#FF9100"/>
</g>
<defs>
<linearGradient id="paint0_linear_2349_9206" x1="13.3077" y1="42.9487" x2="0.573637" y2="15.5055" gradientUnits="userSpaceOnUse">
<stop stop-color="#E74779"/>
<stop offset="1" stop-color="#F59DB8"/>
</linearGradient>
<clipPath id="clip0_2349_9206">
<rect width="16" height="16" fill="white"/>
</clipPath>
</defs>
</svg>
