<svg width="326" height="32" viewBox="0 0 326 32" fill="none" xmlns="http://www.w3.org/2000/svg">
<rect x="130" y="15" width="66" height="2" fill="#E3659C"/>
<rect x="228" y="16" width="66" height="2" fill="#E74779"/>
<rect x="13" y="15" width="85" height="2" fill="#E3659C"/>
<circle cx="16" cy="16" r="16" fill="#E74779"/>
<path d="M17.3112 10.8V22H14.7192V12.88H12.4792V10.8H17.3112Z" fill="white"/>
<circle cx="114" cy="16" r="16" fill="#E74779"/>
<path d="M118.273 18.888V21H109.809V19.32L114.129 15.24C114.588 14.8027 114.897 14.4293 115.057 14.12C115.217 13.8 115.297 13.4853 115.297 13.176C115.297 12.728 115.143 12.3867 114.833 12.152C114.535 11.9067 114.092 11.784 113.505 11.784C113.015 11.784 112.572 11.88 112.177 12.072C111.783 12.2533 111.452 12.5307 111.185 12.904L109.297 11.688C109.735 11.0373 110.337 10.5307 111.105 10.168C111.873 9.79467 112.753 9.608 113.745 9.608C114.577 9.608 115.303 9.74667 115.921 10.024C116.551 10.2907 117.036 10.6747 117.377 11.176C117.729 11.6667 117.905 12.248 117.905 12.92C117.905 13.528 117.777 14.0987 117.521 14.632C117.265 15.1653 116.769 15.7733 116.033 16.456L113.457 18.888H118.273Z" fill="white"/>
<circle cx="212" cy="16" r="16" fill="#E74779"/>
<path d="M213.122 15.36C214.103 15.52 214.855 15.888 215.378 16.464C215.9 17.0293 216.162 17.7333 216.162 18.576C216.162 19.2267 215.991 19.8293 215.65 20.384C215.308 20.928 214.786 21.3653 214.082 21.696C213.388 22.0267 212.535 22.192 211.522 22.192C210.732 22.192 209.954 22.0907 209.186 21.888C208.428 21.6747 207.783 21.376 207.25 20.992L208.258 19.008C208.684 19.328 209.175 19.5787 209.73 19.76C210.295 19.9307 210.871 20.016 211.458 20.016C212.108 20.016 212.62 19.8933 212.994 19.648C213.367 19.392 213.554 19.0347 213.554 18.576C213.554 17.6587 212.855 17.2 211.458 17.2H210.274V15.488L212.578 12.88H207.81V10.8H215.65V12.48L213.122 15.36Z" fill="white"/>
<circle cx="310" cy="16" r="16" fill="#E74779"/>
<path d="M315.364 18.648H313.54V21H311.012V18.648H304.98V16.904L310.26 9.8H312.98L308.084 16.536H311.092V14.44H313.54V16.536H315.364V18.648Z" fill="white"/>
</svg>
