<svg width="16" height="17" viewBox="0 0 16 17" fill="none" xmlns="http://www.w3.org/2000/svg">
<path d="M8 0.613281C3.58198 0.613281 0 4.19526 0 8.61328C0 13.0318 3.58198 16.6133 8 16.6133C12.4185 16.6133 16 13.0323 16 8.61328C16 4.19526 12.4185 0.613281 8 0.613281ZM8 15.1133C4.41002 15.1133 1.50002 12.2033 1.50002 8.61328C1.50002 5.0233 4.41002 2.11331 8 2.11331C11.59 2.11331 14.5 5.0233 14.5 8.61328C14.5 12.2033 11.59 15.1133 8 15.1133ZM8.0005 4.12177C7.42752 4.12177 6.99398 4.42079 6.99398 4.90377V9.33376C6.99398 9.81725 7.42746 10.1153 8.0005 10.1153C8.5595 10.1153 9.00703 9.80478 9.00703 9.33376V4.90377C9.00697 4.43225 8.5595 4.12177 8.0005 4.12177ZM8.0005 11.1133C7.45001 11.1133 7.00198 11.5613 7.00198 12.1123C7.00198 12.6623 7.45001 13.1103 8.0005 13.1103C8.551 13.1103 8.99852 12.6623 8.99852 12.1123C8.99847 11.5613 8.551 11.1133 8.0005 11.1133Z" fill="#EB5757"/>
</svg>
