<svg width="81" height="70" viewBox="0 0 81 70" fill="none" xmlns="http://www.w3.org/2000/svg">
<g style="mix-blend-mode:multiply" opacity="0.43">
<path d="M65.9083 59.5136C53.4738 72.64 31.8764 72.1314 17.671 58.3771C3.46549 44.6228 2.02646 22.8298 14.461 9.70351C26.8955 -3.4228 45.945 -0.442225 60.1471 13.312C74.3492 27.0663 78.3428 46.3873 65.9083 59.5136Z" fill="#F2B8CB" fill-opacity="0.45"/>
</g>
<g style="mix-blend-mode:multiply">
<path d="M17.5715 61.0246C3.83141 47.516 3.72532 25.0985 17.3319 10.9533C30.9385 -3.19194 53.1108 -3.6988 66.8458 9.79425C80.5807 23.2873 78.0928 42.9699 64.493 57.1151C50.8933 71.2603 31.3098 74.5332 17.5715 61.0246Z" fill="#F6D2E1" fill-opacity="0.44"/>
</g>
<path d="M29.0625 25.2344H24.375C23.7278 25.2344 23.2031 24.7097 23.2031 24.0625V20.9375C23.2031 19.4298 24.4298 18.2031 25.9375 18.2031H27.5C29.0077 18.2031 30.2344 19.4298 30.2344 20.9375V24.0625C30.2344 24.7097 29.7097 25.2344 29.0625 25.2344Z" fill="#E74779"/>
<path d="M55.7031 51.7969H24.2969C21.9276 51.7969 20 49.8693 20 47.5V27.1875C20 24.8182 21.9276 22.8906 24.2969 22.8906H32.1241L32.8852 20.607C33.3646 19.1691 34.705 18.2031 36.2205 18.2031H43.7795C45.295 18.2031 46.6354 19.1691 47.1147 20.607L47.8759 22.8906H55.7031C58.0724 22.8906 60 24.8182 60 27.1875V47.5C60 49.8693 58.0724 51.7969 55.7031 51.7969Z" fill="#E74779"/>
<path d="M55.7031 22.8906H47.8759L47.1148 20.607C46.6354 19.1691 45.295 18.2031 43.7795 18.2031H40V51.7969H55.7031C58.0724 51.7969 60 49.8693 60 47.5V27.1875C60 24.8182 58.0724 22.8906 55.7031 22.8906Z" fill="#AF1F4C"/>
<path d="M40 48.6719C33.7537 48.6719 28.6719 43.5901 28.6719 37.3438C28.6719 31.0974 33.7537 26.0156 40 26.0156C46.2463 26.0156 51.3281 31.0974 51.3281 37.3438C51.3281 43.5901 46.2463 48.6719 40 48.6719Z" fill="#E3659C"/>
<path d="M51.3281 37.3438C51.3281 31.0974 46.2463 26.0156 40 26.0156V48.6719C46.2463 48.6719 51.3281 43.5901 51.3281 37.3438Z" fill="#F18AB7"/>
<path d="M40 45.9375C35.2614 45.9375 31.4062 42.0823 31.4062 37.3438C31.4062 32.6052 35.2614 28.75 40 28.75C44.7386 28.75 48.5938 32.6052 48.5938 37.3438C48.5938 42.0823 44.7386 45.9375 40 45.9375Z" fill="#FDFEFF"/>
<path d="M48.5938 37.3438C48.5938 32.6052 44.7386 28.75 40 28.75V45.9375C44.7386 45.9375 48.5938 42.0823 48.5938 37.3438Z" fill="#FBEFF4"/>
<path d="M54.8438 29.9219C55.491 29.9219 56.0156 29.3972 56.0156 28.75C56.0156 28.1028 55.491 27.5781 54.8438 27.5781C54.1965 27.5781 53.6719 28.1028 53.6719 28.75C53.6719 29.3972 54.1965 29.9219 54.8438 29.9219Z" fill="#FBEFF4"/>
<path d="M26.7188 29.9219H24.375C23.7278 29.9219 23.2031 29.3972 23.2031 28.75C23.2031 28.1028 23.7278 27.5781 24.375 27.5781H26.7188C27.3659 27.5781 27.8906 28.1028 27.8906 28.75C27.8906 29.3972 27.3659 29.9219 26.7188 29.9219Z" fill="#FDFEFF"/>
<path d="M8.49861 25.9818L6.38453 25.4764C6.10605 25.3986 5.85643 25.2467 5.66479 25.0384C5.47315 24.8301 5.34737 24.574 5.30212 24.3L4.84971 22.125C4.82095 22.0455 4.76701 21.9766 4.6954 21.9279C4.62379 21.8791 4.53806 21.8529 4.45014 21.8529C4.36223 21.8529 4.2765 21.8791 4.20489 21.9279C4.13327 21.9766 4.07934 22.0455 4.05058 22.125L3.66159 24.1463C3.61069 24.471 3.46446 24.7751 3.23992 25.0235C3.01539 25.2718 2.72175 25.4541 2.39314 25.5492L0.422817 26.0464C0.310679 26.0464 0.203133 26.089 0.12384 26.1649C0.0445463 26.2407 0 26.3435 0 26.4507C0 26.5579 0.0445463 26.6608 0.12384 26.7366C0.203133 26.8124 0.310679 26.855 0.422817 26.855L2.4016 27.324C2.72758 27.4171 3.0195 27.5962 3.24386 27.8408C3.46822 28.0853 3.61593 28.3854 3.67005 28.7066L4.09286 30.728C4.12162 30.8074 4.17556 30.8763 4.24717 30.925C4.31878 30.9738 4.40451 31 4.49243 31C4.58034 31 4.66607 30.9738 4.73768 30.925C4.8093 30.8763 4.86323 30.8074 4.89199 30.728L5.31481 28.5408C5.35525 28.2684 5.47562 28.0126 5.66196 27.8029C5.8483 27.5932 6.09297 27.4384 6.36762 27.3563L8.4817 26.8186C8.53917 26.8197 8.59629 26.8099 8.64981 26.7899C8.70333 26.7698 8.7522 26.7399 8.79362 26.7018C8.83504 26.6637 8.86821 26.6181 8.89122 26.5678C8.91424 26.5174 8.92666 26.4632 8.92777 26.4083C8.92888 26.3533 8.91866 26.2987 8.8977 26.2475C8.87673 26.1964 8.84543 26.1496 8.80558 26.11C8.76573 26.0704 8.7181 26.0387 8.66544 26.0167C8.61277 25.9947 8.55608 25.9828 8.49861 25.9818Z" fill="#F2BC36"/>
<path d="M14.7357 14.5003L13.4673 14.1971C13.3021 14.1504 13.1541 14.0599 13.0403 13.9361C12.9266 13.8124 12.8518 13.6604 12.8246 13.4977L12.554 12.2C12.5463 12.1446 12.5178 12.0938 12.4739 12.0571C12.4299 12.0203 12.3735 12 12.3151 12C12.2567 12 12.2003 12.0203 12.1563 12.0571C12.1124 12.0938 12.0839 12.1446 12.0762 12.2L11.8437 13.4128C11.8147 13.6052 11.7295 13.7858 11.5979 13.9339C11.4662 14.082 11.2934 14.1914 11.0995 14.2497L9.92408 14.5448C9.86969 14.56 9.82193 14.5917 9.78796 14.635C9.75398 14.6784 9.73562 14.7311 9.73562 14.7853C9.73562 14.8395 9.75398 14.8922 9.78796 14.9356C9.82193 14.979 9.86969 15.0106 9.92408 15.0259L11.1037 15.3089C11.2968 15.3624 11.4704 15.4665 11.6049 15.6093C11.7394 15.7522 11.8294 15.9282 11.8648 16.1174L12.1143 17.3302C12.1247 17.383 12.1541 17.4305 12.1973 17.4647C12.2406 17.499 12.2949 17.5177 12.351 17.5177C12.4072 17.5177 12.4615 17.499 12.5048 17.4647C12.548 17.4305 12.5774 17.383 12.5878 17.3302L12.8415 16.0285C12.8662 15.8658 12.9385 15.7131 13.0499 15.588C13.1614 15.4628 13.3075 15.3703 13.4715 15.321L14.74 15.0016C14.7744 15.0013 14.8084 14.9946 14.8401 14.9818C14.8718 14.9689 14.9006 14.9502 14.9247 14.9268C14.9489 14.9033 14.9679 14.8755 14.9808 14.845C14.9938 14.8145 15.0003 14.7819 15 14.7489C14.9997 14.716 14.9927 14.6835 14.9792 14.6532C14.9658 14.6229 14.9463 14.5954 14.9217 14.5723C14.8972 14.5492 14.8681 14.531 14.8362 14.5186C14.8043 14.5063 14.7702 14.5 14.7357 14.5003Z" fill="#F2BC36"/>
<path d="M71.9348 42.4535L74.1898 41.895C74.4869 41.809 74.7531 41.641 74.9576 41.4108C75.162 41.1806 75.2961 40.8976 75.3444 40.5947L75.827 38.1908C75.8577 38.103 75.9152 38.0268 75.9916 37.9729C76.068 37.919 76.1594 37.8901 76.2532 37.8901C76.347 37.8901 76.4384 37.919 76.5148 37.9729C76.5912 38.0268 76.6487 38.103 76.6794 38.1908L77.0943 40.4249C77.1486 40.7837 77.3046 41.1199 77.5441 41.3944C77.7836 41.6688 78.0968 41.8703 78.4473 41.9754L80.549 42.525C80.6686 42.525 80.7833 42.5721 80.8679 42.6559C80.9525 42.7397 81 42.8533 81 42.9718C81 43.0904 80.9525 43.204 80.8679 43.2878C80.7833 43.3716 80.6686 43.4187 80.549 43.4187L78.4383 43.937C78.0906 44.04 77.7792 44.2379 77.5399 44.5082C77.3006 44.7785 77.143 45.1102 77.0853 45.4652L76.6343 47.6993C76.6036 47.7871 76.5461 47.8633 76.4697 47.9171C76.3933 47.971 76.3019 48 76.2081 48C76.1143 48 76.0229 47.971 75.9465 47.9171C75.8701 47.8633 75.8126 47.7871 75.7819 47.6993L75.3309 45.282C75.2877 44.9809 75.1593 44.6981 74.9606 44.4664C74.7618 44.2346 74.5008 44.0635 74.2079 43.9727L71.9529 43.3785C71.8916 43.3796 71.8306 43.3688 71.7735 43.3467C71.7164 43.3245 71.6643 43.2914 71.6201 43.2493C71.576 43.2072 71.5406 43.1569 71.516 43.1012C71.4915 43.0456 71.4782 42.9857 71.477 42.9249C71.4759 42.8642 71.4868 42.8038 71.5091 42.7473C71.5315 42.6907 71.5649 42.6391 71.6074 42.5953C71.6499 42.5515 71.7007 42.5165 71.7569 42.4921C71.813 42.4678 71.8735 42.4547 71.9348 42.4535Z" fill="#F2BC36"/>
<path d="M65.2819 29.7635L66.6349 29.4284C66.8111 29.3767 66.969 29.2767 67.0903 29.1399C67.2116 29.0031 67.2914 28.8352 67.3204 28.6554L67.6091 27.221C67.6173 27.1599 67.6477 27.1037 67.6945 27.0631C67.7414 27.0224 67.8016 27 67.8639 27C67.9262 27 67.9864 27.0224 68.0332 27.0631C68.0801 27.1037 68.1105 27.1599 68.1187 27.221L68.3668 28.5615C68.3976 28.7742 68.4885 28.9738 68.6289 29.1375C68.7694 29.3011 68.9537 29.4221 69.1605 29.4865L70.4143 29.8126C70.4723 29.8295 70.5233 29.8645 70.5595 29.9124C70.5957 29.9604 70.6153 30.0186 70.6153 30.0785C70.6153 30.1384 70.5957 30.1967 70.5595 30.2446C70.5233 30.2925 70.4723 30.3275 70.4143 30.3444L69.156 30.6572C68.9501 30.7163 68.7649 30.8314 68.6215 30.9893C68.478 31.1472 68.382 31.3417 68.3442 31.5508L68.0781 32.8913C68.0669 32.9496 68.0356 33.0022 67.9895 33.04C67.9434 33.0778 67.8854 33.0985 67.8256 33.0985C67.7657 33.0985 67.7077 33.0778 67.6616 33.04C67.6155 33.0022 67.5842 32.9496 67.573 32.8913L67.3024 31.4525C67.276 31.2727 67.199 31.104 67.0801 30.9656C66.9612 30.8273 66.8053 30.725 66.6304 30.6706L65.2774 30.3176C65.2407 30.3173 65.2044 30.3098 65.1705 30.2956C65.1367 30.2814 65.1061 30.2608 65.0803 30.2348C65.0546 30.2089 65.0342 30.1782 65.0204 30.1445C65.0067 30.1108 64.9997 30.0747 65 30.0383C65.0003 30.0019 65.0078 29.966 65.0222 29.9325C65.0365 29.899 65.0573 29.8686 65.0835 29.8431C65.1097 29.8175 65.1407 29.7974 65.1747 29.7837C65.2087 29.7701 65.2452 29.7632 65.2819 29.7635Z" fill="#F2BC36"/>
</svg>
