<svg width="81" height="70" viewBox="0 0 81 70" fill="none" xmlns="http://www.w3.org/2000/svg">
<g style="mix-blend-mode:multiply" opacity="0.43">
<path d="M65.9083 59.5136C53.4738 72.64 31.8764 72.1314 17.671 58.3771C3.46549 44.6228 2.02646 22.8298 14.461 9.70351C26.8955 -3.4228 45.945 -0.442225 60.1471 13.312C74.3492 27.0663 78.3428 46.3873 65.9083 59.5136Z" fill="#F2B8CB" fill-opacity="0.45"/>
</g>
<g style="mix-blend-mode:multiply">
<path d="M17.5724 61.0246C3.83239 47.516 3.7263 25.0985 17.3329 10.9533C30.9395 -3.19194 53.1118 -3.6988 66.8467 9.79425C80.5817 23.2873 78.0938 42.9699 64.494 57.1151C50.8942 71.2603 31.3108 74.5332 17.5724 61.0246Z" fill="#F6D2E1" fill-opacity="0.44"/>
</g>
<path d="M51.3486 24.6335C51.3486 27.2809 50.3992 29.5724 48.5263 31.4456C46.6534 33.3185 44.3616 34.2679 41.7142 34.2679H41.7096C39.0656 34.267 36.7752 33.3176 34.9023 31.4456C33.0292 29.5724 32.0801 27.2809 32.0801 24.6335C32.0801 21.987 33.0292 19.6951 34.9023 17.8223C36.7743 15.95 39.0646 15.0009 41.7096 15H41.7142C44.3607 15 46.6525 15.9494 48.5263 17.8223C50.3992 19.6951 51.3486 21.987 51.3486 24.6335Z" fill="#FFC495"/>
<path d="M58.6537 48.1211C58.6537 50.2097 57.9894 51.9007 56.6808 53.1461C55.3875 54.3769 53.6769 55.0004 51.5972 55.0004H32.3369C30.2571 55.0004 28.5466 54.3769 27.2542 53.1461C25.9447 51.8998 25.2812 50.2091 25.2812 48.1211C25.2812 47.3179 25.3078 46.5232 25.3609 45.759C25.4149 44.9778 25.5242 44.1276 25.6853 43.2307C25.8477 42.3264 26.0564 41.4716 26.3063 40.6904C26.5657 39.8817 26.9167 39.0839 27.351 38.3198C27.802 37.5266 28.3318 36.8357 28.9257 36.2668C29.5482 35.6714 30.3093 35.1932 31.1891 34.8447C32.0659 34.498 33.0379 34.3223 34.0779 34.3223C34.486 34.3223 34.8812 34.4892 35.6429 34.9854C36.1196 35.2964 36.6689 35.6504 37.2753 36.038C37.799 36.3718 38.5082 36.6849 39.3849 36.9678C40.1555 37.2172 40.9377 37.3563 41.7104 37.3804C41.7955 37.3835 41.8807 37.385 41.9658 37.385C42.824 37.385 43.6919 37.2443 44.5476 36.9678C45.4244 36.6849 46.1345 36.3718 46.6579 36.038C47.2707 35.6464 47.82 35.2927 48.2897 34.9863C49.052 34.4892 49.4466 34.3223 49.8555 34.3223C50.8947 34.3223 51.8666 34.498 52.744 34.8447C53.6238 35.1932 54.3849 35.6724 55.0069 36.2668C55.6017 36.8357 56.1315 37.5266 56.5822 38.3198C57.0168 39.0845 57.3683 39.8817 57.6268 40.6895C57.8771 41.4716 58.0864 42.3264 58.2488 43.2313C58.409 44.1291 58.5186 44.9793 58.5723 45.7584C58.6263 46.5201 58.6528 47.3148 58.6537 48.1211Z" fill="#E74779"/>
<path d="M41.7155 34.2679H41.7109V15H41.7155C44.362 15 46.6539 15.9494 48.5276 17.8223C50.4005 19.6951 51.3499 21.987 51.3499 24.6335C51.3499 27.2809 50.4005 29.5724 48.5276 31.4456C46.6548 33.3185 44.3629 34.2679 41.7155 34.2679Z" fill="#F1B180"/>
<path d="M58.6543 48.1211C58.6543 50.2097 57.9899 51.9007 56.6813 53.1461C55.388 54.3769 53.6775 55.0004 51.5977 55.0004H41.7109V37.3804C41.7961 37.3835 41.8812 37.385 41.9664 37.385C42.8245 37.385 43.6924 37.2443 44.5482 36.9678C45.4249 36.6849 46.1351 36.3718 46.6584 36.038C47.2712 35.6464 47.8206 35.2927 48.2902 34.9863C49.0526 34.4892 49.4471 34.3223 49.8561 34.3223C50.8952 34.3223 51.8672 34.498 52.7446 34.8447C53.6244 35.1932 54.3855 35.6724 55.0074 36.2668C55.6022 36.8357 56.132 37.5266 56.5828 38.3198C57.0173 39.0845 57.3689 39.8817 57.6274 40.6895C57.8776 41.4716 58.087 42.3264 58.2493 43.2313C58.4095 44.1291 58.5191 44.9793 58.5728 45.7584C58.6268 46.5201 58.6534 47.3148 58.6543 48.1211Z" fill="#AF1F4C"/>
<path d="M8.49861 25.9818L6.38453 25.4764C6.10605 25.3986 5.85643 25.2467 5.66479 25.0384C5.47315 24.8301 5.34737 24.574 5.30212 24.3L4.84971 22.125C4.82095 22.0455 4.76701 21.9766 4.6954 21.9279C4.62379 21.8791 4.53806 21.8529 4.45014 21.8529C4.36223 21.8529 4.2765 21.8791 4.20489 21.9279C4.13327 21.9766 4.07934 22.0455 4.05058 22.125L3.66159 24.1463C3.61069 24.471 3.46446 24.7751 3.23992 25.0235C3.01539 25.2718 2.72175 25.4541 2.39314 25.5492L0.422817 26.0464C0.310679 26.0464 0.203133 26.089 0.12384 26.1649C0.0445463 26.2407 0 26.3435 0 26.4507C0 26.5579 0.0445463 26.6608 0.12384 26.7366C0.203133 26.8124 0.310679 26.855 0.422817 26.855L2.4016 27.324C2.72758 27.4171 3.0195 27.5962 3.24386 27.8408C3.46822 28.0853 3.61593 28.3854 3.67005 28.7066L4.09286 30.728C4.12162 30.8074 4.17556 30.8763 4.24717 30.925C4.31878 30.9738 4.40451 31 4.49243 31C4.58034 31 4.66607 30.9738 4.73768 30.925C4.8093 30.8763 4.86323 30.8074 4.89199 30.728L5.31481 28.5408C5.35525 28.2684 5.47562 28.0126 5.66196 27.8029C5.8483 27.5932 6.09297 27.4384 6.36762 27.3563L8.4817 26.8186C8.53917 26.8197 8.59629 26.8099 8.64981 26.7899C8.70333 26.7698 8.7522 26.7399 8.79362 26.7018C8.83504 26.6637 8.86821 26.6181 8.89122 26.5678C8.91424 26.5174 8.92666 26.4632 8.92777 26.4083C8.92888 26.3533 8.91866 26.2987 8.8977 26.2475C8.87673 26.1964 8.84543 26.1496 8.80558 26.11C8.76573 26.0704 8.7181 26.0387 8.66544 26.0167C8.61277 25.9947 8.55608 25.9828 8.49861 25.9818Z" fill="#F2BC36"/>
<path d="M14.7357 14.5003L13.4673 14.1971C13.3021 14.1504 13.1541 14.0599 13.0403 13.9361C12.9266 13.8124 12.8518 13.6604 12.8246 13.4977L12.554 12.2C12.5463 12.1446 12.5178 12.0938 12.4739 12.0571C12.4299 12.0203 12.3735 12 12.3151 12C12.2567 12 12.2003 12.0203 12.1563 12.0571C12.1124 12.0938 12.0839 12.1446 12.0762 12.2L11.8437 13.4128C11.8147 13.6052 11.7295 13.7858 11.5979 13.9339C11.4662 14.082 11.2934 14.1914 11.0995 14.2497L9.92408 14.5448C9.86969 14.56 9.82193 14.5917 9.78796 14.635C9.75398 14.6784 9.73562 14.7311 9.73562 14.7853C9.73562 14.8395 9.75398 14.8922 9.78796 14.9356C9.82193 14.979 9.86969 15.0106 9.92408 15.0259L11.1037 15.3089C11.2968 15.3624 11.4704 15.4665 11.6049 15.6093C11.7394 15.7522 11.8294 15.9282 11.8648 16.1174L12.1143 17.3302C12.1247 17.383 12.1541 17.4305 12.1973 17.4647C12.2406 17.499 12.2949 17.5177 12.351 17.5177C12.4072 17.5177 12.4615 17.499 12.5048 17.4647C12.548 17.4305 12.5774 17.383 12.5878 17.3302L12.8415 16.0285C12.8662 15.8658 12.9385 15.7131 13.0499 15.588C13.1614 15.4628 13.3075 15.3703 13.4715 15.321L14.74 15.0016C14.7744 15.0013 14.8084 14.9946 14.8401 14.9818C14.8718 14.9689 14.9006 14.9502 14.9247 14.9268C14.9489 14.9033 14.9679 14.8755 14.9808 14.845C14.9938 14.8145 15.0003 14.7819 15 14.7489C14.9997 14.716 14.9927 14.6835 14.9792 14.6532C14.9658 14.6229 14.9463 14.5954 14.9217 14.5723C14.8972 14.5492 14.8681 14.531 14.8362 14.5186C14.8043 14.5063 14.7702 14.5 14.7357 14.5003Z" fill="#F2BC36"/>
<path d="M71.9348 42.4535L74.1898 41.895C74.4869 41.809 74.7531 41.641 74.9576 41.4108C75.162 41.1806 75.2961 40.8976 75.3444 40.5947L75.827 38.1908C75.8577 38.103 75.9152 38.0268 75.9916 37.9729C76.068 37.919 76.1594 37.8901 76.2532 37.8901C76.347 37.8901 76.4384 37.919 76.5148 37.9729C76.5912 38.0268 76.6487 38.103 76.6794 38.1908L77.0943 40.4249C77.1486 40.7837 77.3046 41.1199 77.5441 41.3944C77.7836 41.6688 78.0968 41.8703 78.4473 41.9754L80.549 42.525C80.6686 42.525 80.7833 42.5721 80.8679 42.6559C80.9525 42.7397 81 42.8533 81 42.9718C81 43.0904 80.9525 43.204 80.8679 43.2878C80.7833 43.3716 80.6686 43.4187 80.549 43.4187L78.4383 43.937C78.0906 44.04 77.7792 44.2379 77.5399 44.5082C77.3006 44.7785 77.143 45.1102 77.0853 45.4652L76.6343 47.6993C76.6036 47.7871 76.5461 47.8633 76.4697 47.9171C76.3933 47.971 76.3019 48 76.2081 48C76.1143 48 76.0229 47.971 75.9465 47.9171C75.8701 47.8633 75.8126 47.7871 75.7819 47.6993L75.3309 45.282C75.2877 44.9809 75.1593 44.6981 74.9606 44.4664C74.7618 44.2346 74.5008 44.0635 74.2079 43.9727L71.9529 43.3785C71.8916 43.3796 71.8306 43.3688 71.7735 43.3467C71.7164 43.3245 71.6643 43.2914 71.6201 43.2493C71.576 43.2072 71.5406 43.1569 71.516 43.1012C71.4915 43.0456 71.4782 42.9857 71.477 42.9249C71.4759 42.8642 71.4868 42.8038 71.5091 42.7473C71.5315 42.6907 71.5649 42.6391 71.6074 42.5953C71.6499 42.5515 71.7007 42.5165 71.7569 42.4921C71.813 42.4678 71.8735 42.4547 71.9348 42.4535Z" fill="#F2BC36"/>
<path d="M65.2819 29.7635L66.6349 29.4284C66.8111 29.3767 66.969 29.2767 67.0903 29.1399C67.2116 29.0031 67.2914 28.8352 67.3204 28.6554L67.6091 27.221C67.6173 27.1599 67.6477 27.1037 67.6945 27.0631C67.7414 27.0224 67.8016 27 67.8639 27C67.9262 27 67.9864 27.0224 68.0332 27.0631C68.0801 27.1037 68.1105 27.1599 68.1187 27.221L68.3668 28.5615C68.3976 28.7742 68.4885 28.9738 68.6289 29.1375C68.7694 29.3011 68.9537 29.4221 69.1605 29.4865L70.4143 29.8126C70.4723 29.8295 70.5233 29.8645 70.5595 29.9124C70.5957 29.9604 70.6153 30.0186 70.6153 30.0785C70.6153 30.1384 70.5957 30.1967 70.5595 30.2446C70.5233 30.2925 70.4723 30.3275 70.4143 30.3444L69.156 30.6572C68.9501 30.7163 68.7649 30.8314 68.6215 30.9893C68.478 31.1472 68.382 31.3417 68.3442 31.5508L68.0781 32.8913C68.0669 32.9496 68.0356 33.0022 67.9895 33.04C67.9434 33.0778 67.8854 33.0985 67.8256 33.0985C67.7657 33.0985 67.7077 33.0778 67.6616 33.04C67.6155 33.0022 67.5842 32.9496 67.573 32.8913L67.3024 31.4525C67.276 31.2727 67.199 31.104 67.0801 30.9656C66.9612 30.8273 66.8053 30.725 66.6304 30.6706L65.2774 30.3176C65.2407 30.3173 65.2044 30.3098 65.1705 30.2956C65.1367 30.2814 65.1061 30.2608 65.0803 30.2348C65.0546 30.2089 65.0342 30.1782 65.0204 30.1445C65.0067 30.1108 64.9997 30.0747 65 30.0383C65.0003 30.0019 65.0078 29.966 65.0222 29.9325C65.0365 29.899 65.0573 29.8686 65.0835 29.8431C65.1097 29.8175 65.1407 29.7974 65.1747 29.7837C65.2087 29.7701 65.2452 29.7632 65.2819 29.7635Z" fill="#F2BC36"/>
</svg>
