<svg width="81" height="70" viewBox="0 0 81 70" fill="none" xmlns="http://www.w3.org/2000/svg">
<g style="mix-blend-mode:multiply" opacity="0.43">
<path d="M65.9083 59.5136C53.4738 72.64 31.8764 72.1314 17.671 58.3771C3.46549 44.6228 2.02646 22.8298 14.461 9.70351C26.8955 -3.4228 45.945 -0.442225 60.1471 13.312C74.3492 27.0663 78.3428 46.3873 65.9083 59.5136Z" fill="#F2B8CB" fill-opacity="0.45"/>
</g>
<g style="mix-blend-mode:multiply">
<path d="M17.5715 61.0246C3.83141 47.516 3.72532 25.0985 17.3319 10.9533C30.9385 -3.19194 53.1108 -3.6988 66.8458 9.79425C80.5807 23.2873 78.0928 42.9699 64.493 57.1151C50.8933 71.2603 31.3098 74.5332 17.5715 61.0246Z" fill="#F6D2E1" fill-opacity="0.44"/>
</g>
<path d="M39 48.125C49.0102 48.125 57.125 41.1294 57.125 32.5C57.125 23.8706 49.0102 16.875 39 16.875C28.9898 16.875 20.875 23.8706 20.875 32.5C20.875 41.1294 28.9898 48.125 39 48.125Z" fill="#AF1F4C"/>
<path d="M45.875 18.0383V18.1251C45.875 20.9071 41.5 26.8751 39 26.8751C31.7516 26.8751 25.875 30.8766 25.875 38.1251C25.875 40.2743 26.4242 42.4672 27.3766 44.4891C23.4023 41.6235 20.875 37.3165 20.875 32.5001C20.875 23.8704 28.9898 16.8751 39 16.8751C41.3411 16.8695 43.666 17.2629 45.875 18.0383Z" fill="#E74779"/>
<path d="M52.125 38.125C52.125 45.3737 45.875 53.125 39 53.125C32.125 53.125 25.875 45.3737 25.875 38.125C25.875 30.8763 31.7513 26.875 39 26.875C46.2487 26.875 52.125 30.8763 52.125 38.125Z" fill="#FFC495"/>
<path d="M34.625 38.125C34.4592 38.125 34.3003 38.0592 34.1831 37.9419C34.0658 37.8247 34 37.6658 34 37.5C34 37.3342 33.9342 37.1753 33.8169 37.0581C33.6997 36.9408 33.5408 36.875 33.375 36.875C33.2092 36.875 33.0503 36.9408 32.9331 37.0581C32.8158 37.1753 32.75 37.3342 32.75 37.5C32.75 37.6658 32.6842 37.8247 32.5669 37.9419C32.4497 38.0592 32.2908 38.125 32.125 38.125C31.9592 38.125 31.8003 38.0592 31.6831 37.9419C31.5658 37.8247 31.5 37.6658 31.5 37.5C31.5 37.0027 31.6975 36.5258 32.0492 36.1742C32.4008 35.8225 32.8777 35.625 33.375 35.625C33.8723 35.625 34.3492 35.8225 34.7008 36.1742C35.0525 36.5258 35.25 37.0027 35.25 37.5C35.25 37.6658 35.1842 37.8247 35.0669 37.9419C34.9497 38.0592 34.7908 38.125 34.625 38.125Z" fill="#95573A"/>
<path d="M45.875 38.125C45.7092 38.125 45.5503 38.0592 45.4331 37.9419C45.3158 37.8247 45.25 37.6658 45.25 37.5C45.25 37.3342 45.1842 37.1753 45.0669 37.0581C44.9497 36.9408 44.7908 36.875 44.625 36.875C44.4592 36.875 44.3003 36.9408 44.1831 37.0581C44.0658 37.1753 44 37.3342 44 37.5C44 37.6658 43.9342 37.8247 43.8169 37.9419C43.6997 38.0592 43.5408 38.125 43.375 38.125C43.2092 38.125 43.0503 38.0592 42.9331 37.9419C42.8158 37.8247 42.75 37.6658 42.75 37.5C42.75 37.0027 42.9475 36.5258 43.2992 36.1742C43.6508 35.8225 44.1277 35.625 44.625 35.625C45.1223 35.625 45.5992 35.8225 45.9508 36.1742C46.3025 36.5258 46.5 37.0027 46.5 37.5C46.5 37.6658 46.4342 37.8247 46.3169 37.9419C46.1997 38.0592 46.0408 38.125 45.875 38.125Z" fill="#95573A"/>
<path d="M50.25 43.75V37.5422C50.25 36.491 51.1102 35.6054 52.1612 35.6253C52.6522 35.6348 53.1198 35.8365 53.4636 36.187C53.8074 36.5376 54 37.009 54 37.5V44.4823C54 45.1453 53.7366 45.7812 53.2677 46.25L47.75 53.125H39L44.8839 44.5895C45.2355 44.2378 45.7124 44.0403 46.2097 44.0403C46.707 44.0403 47.1839 44.2378 47.5355 44.5895C47.8872 44.9411 48.0847 45.418 48.0847 45.9153C48.0847 46.4126 47.8872 46.8895 47.5355 47.2411L45.875 49.5266L50.25 43.75Z" fill="#F1B180"/>
<path d="M45.2495 51.25C45.1335 51.2499 45.0198 51.2175 44.9211 51.1565C44.8225 51.0954 44.7427 51.0081 44.6909 50.9043C44.639 50.8005 44.6171 50.6843 44.6275 50.5688C44.638 50.4532 44.6804 50.3428 44.75 50.25L46.625 47.75C46.6742 47.6843 46.7359 47.629 46.8066 47.5872C46.8772 47.5454 46.9553 47.5179 47.0366 47.5063C47.1179 47.4947 47.2006 47.4992 47.2801 47.5196C47.3596 47.5399 47.4343 47.5758 47.5 47.625C47.5656 47.6742 47.621 47.7359 47.6628 47.8066C47.7046 47.8772 47.7321 47.9554 47.7437 48.0366C47.7553 48.1179 47.7508 48.2006 47.7304 48.2801C47.7101 48.3596 47.6742 48.4343 47.625 48.5L45.75 51C45.6918 51.0777 45.6162 51.1408 45.5293 51.1842C45.4425 51.2276 45.3466 51.2502 45.2495 51.25Z" fill="#DEAA84"/>
<path d="M45.6895 44.4482C45.4106 44.4482 45.1592 44.2802 45.0525 44.0225C44.9458 43.7648 45.0048 43.4682 45.2019 43.271L49.1192 39.3538C49.3898 39.0924 49.8199 39.0961 50.086 39.3622C50.352 39.6282 50.3557 40.0583 50.0944 40.3289L46.1771 44.2462C46.0478 44.3755 45.8724 44.4482 45.6895 44.4482Z" fill="#E8F2F9"/>
<path d="M57.4136 21C52.9147 20.9973 48.866 23.73 47.186 27.9035H47.1791C45.363 32.4017 46.6977 37.5585 50.468 40.6108C54.2384 43.6632 59.56 43.8951 63.5816 41.1824C67.6033 38.4697 69.3816 33.4486 67.9638 28.8094C66.546 24.1702 62.2646 21.0011 57.4136 21Z" fill="#E8F2F9"/>
<path d="M65.427 29.9656H63.496C63.0919 29.9696 62.7073 29.7925 62.4477 29.4828C60.0091 26.4531 54.8249 26.4435 52.3787 29.4828C52.1191 29.7925 51.7345 29.9696 51.3304 29.9656H49.3994C50.3418 26.3102 53.6384 23.7559 57.4132 23.7559C61.1881 23.7559 64.4846 26.3102 65.427 29.9656Z" fill="#FDD7AD"/>
<path d="M65.6622 32.7243H63.6484C62.3731 32.7582 61.1511 32.213 60.3243 31.2415C59.5747 30.4289 58.5195 29.9666 57.4139 29.9666C56.3083 29.9666 55.2531 30.4289 54.5036 31.2415C53.6768 32.213 52.4547 32.7582 51.1794 32.7243H49.1656C49.0897 31.7981 49.1689 30.8657 49.4001 29.9657H51.3312C51.7352 29.9697 52.1198 29.7926 52.3794 29.4829C54.818 26.4532 60.0022 26.4436 62.4484 29.4829C62.708 29.7926 63.0926 29.9697 63.4967 29.9657H65.4277C65.6592 30.8657 65.7385 31.7981 65.6622 32.7243Z" fill="#F9C795"/>
<path d="M65.6616 32.7245C65.3101 37.0189 61.7222 40.3252 57.4133 40.3252C53.1045 40.3252 49.5166 37.0189 49.165 32.7245H51.1788C52.4541 32.7583 53.6762 32.2132 54.503 31.2417C55.2525 30.429 56.3078 29.9668 57.4133 29.9668C58.5189 29.9668 59.5741 30.429 60.3237 31.2417C61.1505 32.2132 62.3725 32.7583 63.6478 32.7245H65.6616Z" fill="#FB7B76"/>
<path d="M55.3447 34.4487C55.5278 33.45 56.3983 32.7246 57.4137 32.7246C58.4291 32.7246 59.2996 33.45 59.4827 34.4487C59.4827 35.0198 58.5565 35.4832 57.4137 35.4832C56.2709 35.4832 55.3447 35.0198 55.3447 34.4487Z" fill="#F5EFCA"/>
<path d="M57.4138 40.9994C52.4622 40.9994 48.4482 36.9854 48.4482 32.0339C48.4482 27.0824 52.4622 23.0684 57.4138 23.0684C62.3653 23.0684 66.3793 27.0824 66.3793 32.0339C66.3736 36.983 62.3629 40.9937 57.4138 40.9994ZM57.4138 24.4477C53.224 24.4477 49.8276 27.8441 49.8276 32.0339C49.8276 36.2236 53.224 39.6201 57.4138 39.6201C61.6035 39.6201 65 36.2236 65 32.0339C64.995 27.8462 61.6015 24.4526 57.4138 24.4477Z" fill="#F18AB7"/>
<path d="M8.49861 25.9818L6.38453 25.4764C6.10605 25.3986 5.85643 25.2467 5.66479 25.0384C5.47315 24.8301 5.34737 24.574 5.30212 24.3L4.84971 22.125C4.82095 22.0455 4.76701 21.9766 4.6954 21.9279C4.62379 21.8791 4.53806 21.8529 4.45014 21.8529C4.36223 21.8529 4.2765 21.8791 4.20489 21.9279C4.13327 21.9766 4.07934 22.0455 4.05058 22.125L3.66159 24.1463C3.61069 24.471 3.46446 24.7751 3.23992 25.0235C3.01539 25.2718 2.72175 25.4541 2.39314 25.5492L0.422817 26.0464C0.310679 26.0464 0.203133 26.089 0.12384 26.1649C0.0445463 26.2407 0 26.3435 0 26.4507C0 26.5579 0.0445463 26.6608 0.12384 26.7366C0.203133 26.8124 0.310679 26.855 0.422817 26.855L2.4016 27.324C2.72758 27.4171 3.0195 27.5962 3.24386 27.8408C3.46822 28.0853 3.61593 28.3854 3.67005 28.7066L4.09286 30.728C4.12162 30.8074 4.17556 30.8763 4.24717 30.925C4.31878 30.9738 4.40451 31 4.49243 31C4.58034 31 4.66607 30.9738 4.73768 30.925C4.8093 30.8763 4.86323 30.8074 4.89199 30.728L5.31481 28.5408C5.35525 28.2684 5.47562 28.0126 5.66196 27.8029C5.8483 27.5932 6.09297 27.4384 6.36762 27.3563L8.4817 26.8186C8.53917 26.8197 8.59629 26.8099 8.64981 26.7899C8.70333 26.7698 8.7522 26.7399 8.79362 26.7018C8.83504 26.6637 8.86821 26.6181 8.89122 26.5678C8.91424 26.5174 8.92666 26.4632 8.92777 26.4083C8.92888 26.3533 8.91866 26.2987 8.8977 26.2475C8.87673 26.1964 8.84543 26.1496 8.80558 26.11C8.76573 26.0704 8.7181 26.0387 8.66544 26.0167C8.61277 25.9947 8.55608 25.9828 8.49861 25.9818Z" fill="#F2BC36"/>
<path d="M14.7357 14.5003L13.4673 14.1971C13.3021 14.1504 13.1541 14.0599 13.0403 13.9361C12.9266 13.8124 12.8518 13.6604 12.8246 13.4977L12.554 12.2C12.5463 12.1446 12.5178 12.0938 12.4739 12.0571C12.4299 12.0203 12.3735 12 12.3151 12C12.2567 12 12.2003 12.0203 12.1563 12.0571C12.1124 12.0938 12.0839 12.1446 12.0762 12.2L11.8437 13.4128C11.8147 13.6052 11.7295 13.7858 11.5979 13.9339C11.4662 14.082 11.2934 14.1914 11.0995 14.2497L9.92408 14.5448C9.86969 14.56 9.82193 14.5917 9.78796 14.635C9.75398 14.6784 9.73562 14.7311 9.73562 14.7853C9.73562 14.8395 9.75398 14.8922 9.78796 14.9356C9.82193 14.979 9.86969 15.0106 9.92408 15.0259L11.1037 15.3089C11.2968 15.3624 11.4704 15.4665 11.6049 15.6093C11.7394 15.7522 11.8294 15.9282 11.8648 16.1174L12.1143 17.3302C12.1247 17.383 12.1541 17.4305 12.1973 17.4647C12.2406 17.499 12.2949 17.5177 12.351 17.5177C12.4072 17.5177 12.4615 17.499 12.5048 17.4647C12.548 17.4305 12.5774 17.383 12.5878 17.3302L12.8415 16.0285C12.8662 15.8658 12.9385 15.7131 13.0499 15.588C13.1614 15.4628 13.3075 15.3703 13.4715 15.321L14.74 15.0016C14.7744 15.0013 14.8084 14.9946 14.8401 14.9818C14.8718 14.9689 14.9006 14.9502 14.9247 14.9268C14.9489 14.9033 14.9679 14.8755 14.9808 14.845C14.9938 14.8145 15.0003 14.7819 15 14.7489C14.9997 14.716 14.9927 14.6835 14.9792 14.6532C14.9658 14.6229 14.9463 14.5954 14.9217 14.5723C14.8972 14.5492 14.8681 14.531 14.8362 14.5186C14.8043 14.5063 14.7702 14.5 14.7357 14.5003Z" fill="#F2BC36"/>
<path d="M71.9348 42.4535L74.1898 41.895C74.4869 41.809 74.7531 41.641 74.9576 41.4108C75.162 41.1806 75.2961 40.8976 75.3444 40.5947L75.827 38.1908C75.8577 38.103 75.9152 38.0268 75.9916 37.9729C76.068 37.919 76.1594 37.8901 76.2532 37.8901C76.347 37.8901 76.4384 37.919 76.5148 37.9729C76.5912 38.0268 76.6487 38.103 76.6794 38.1908L77.0943 40.4249C77.1486 40.7837 77.3046 41.1199 77.5441 41.3944C77.7836 41.6688 78.0968 41.8703 78.4473 41.9754L80.549 42.525C80.6686 42.525 80.7833 42.5721 80.8679 42.6559C80.9525 42.7397 81 42.8533 81 42.9718C81 43.0904 80.9525 43.204 80.8679 43.2878C80.7833 43.3716 80.6686 43.4187 80.549 43.4187L78.4383 43.937C78.0906 44.04 77.7792 44.2379 77.5399 44.5082C77.3006 44.7785 77.143 45.1102 77.0853 45.4652L76.6343 47.6993C76.6036 47.7871 76.5461 47.8633 76.4697 47.9171C76.3933 47.971 76.3019 48 76.2081 48C76.1143 48 76.0229 47.971 75.9465 47.9171C75.8701 47.8633 75.8126 47.7871 75.7819 47.6993L75.3309 45.282C75.2877 44.9809 75.1593 44.6981 74.9606 44.4664C74.7618 44.2346 74.5008 44.0635 74.2079 43.9727L71.9529 43.3785C71.8916 43.3796 71.8306 43.3688 71.7735 43.3467C71.7164 43.3245 71.6643 43.2914 71.6201 43.2493C71.576 43.2072 71.5406 43.1569 71.516 43.1012C71.4915 43.0456 71.4782 42.9857 71.477 42.9249C71.4759 42.8642 71.4868 42.8038 71.5091 42.7473C71.5315 42.6907 71.5649 42.6391 71.6074 42.5953C71.6499 42.5515 71.7007 42.5165 71.7569 42.4921C71.813 42.4678 71.8735 42.4547 71.9348 42.4535Z" fill="#F2BC36"/>
<path d="M65.2819 29.7635L66.6349 29.4284C66.8111 29.3767 66.969 29.2767 67.0903 29.1399C67.2116 29.0031 67.2914 28.8352 67.3204 28.6554L67.6091 27.221C67.6173 27.1599 67.6477 27.1037 67.6945 27.0631C67.7414 27.0224 67.8016 27 67.8639 27C67.9262 27 67.9864 27.0224 68.0332 27.0631C68.0801 27.1037 68.1105 27.1599 68.1187 27.221L68.3668 28.5615C68.3976 28.7742 68.4885 28.9738 68.6289 29.1375C68.7694 29.3011 68.9537 29.4221 69.1605 29.4865L70.4143 29.8126C70.4723 29.8295 70.5233 29.8645 70.5595 29.9124C70.5957 29.9604 70.6153 30.0186 70.6153 30.0785C70.6153 30.1384 70.5957 30.1967 70.5595 30.2446C70.5233 30.2925 70.4723 30.3275 70.4143 30.3444L69.156 30.6572C68.9501 30.7163 68.7649 30.8314 68.6215 30.9893C68.478 31.1472 68.382 31.3417 68.3442 31.5508L68.0781 32.8913C68.0669 32.9496 68.0356 33.0022 67.9895 33.04C67.9434 33.0778 67.8854 33.0985 67.8256 33.0985C67.7657 33.0985 67.7077 33.0778 67.6616 33.04C67.6155 33.0022 67.5842 32.9496 67.573 32.8913L67.3024 31.4525C67.276 31.2727 67.199 31.104 67.0801 30.9656C66.9612 30.8273 66.8053 30.725 66.6304 30.6706L65.2774 30.3176C65.2407 30.3173 65.2044 30.3098 65.1705 30.2956C65.1367 30.2814 65.1061 30.2608 65.0803 30.2348C65.0546 30.2089 65.0342 30.1782 65.0204 30.1445C65.0067 30.1108 64.9997 30.0747 65 30.0383C65.0003 30.0019 65.0078 29.966 65.0222 29.9325C65.0365 29.899 65.0573 29.8686 65.0835 29.8431C65.1097 29.8175 65.1407 29.7974 65.1747 29.7837C65.2087 29.7701 65.2452 29.7632 65.2819 29.7635Z" fill="#F2BC36"/>
</svg>
