<svg width="32" height="32" viewBox="0 0 32 32" fill="none" xmlns="http://www.w3.org/2000/svg">
<g clip-path="url(#clip0_59_2767)">
<path d="M31.9974 15.5917C31.9991 15.5905 32 15.5899 32 15.5899L31.7574 15.5375C31.0276 15.3526 28.7189 14.6225 25.7852 12.2511C20.9627 8.35312 18.5516 7.66774 16.7177 10.1094C16.6759 10.165 16.6357 10.2217 16.597 10.2794C16.3127 10.7032 15.6892 10.7032 15.405 10.2794C15.3663 10.2217 15.3261 10.165 15.2843 10.1094C13.4504 7.66774 11.0392 8.35312 6.21681 12.2511C3.29738 14.6109 0.996938 15.3455 0.255437 15.5348L0 15.5899C0 15.5899 0.0011875 15.5907 0.0030625 15.592C0.002625 15.592 0.0019375 15.5922 0.0019375 15.5922C0.0024375 15.5922 0.0029375 15.5922 0.0034375 15.5922C0.113125 15.6684 3.113 17.6313 5.01175 20.0142C8.29712 24.1372 11.0781 23.335 16 23.0748C20.9219 23.335 23.7029 24.1371 26.9883 20.0142C28.8866 17.6319 31.8854 15.6695 31.9965 15.5924C31.9976 15.5923 31.9989 15.5923 32 15.5922C32 15.5922 31.999 15.592 31.9974 15.5917Z" fill="url(#paint0_linear_59_2767)"/>
<path d="M32 15.5908C32 15.5908 27.3848 16.6209 25.4451 18.2837C21.4427 21.715 18.4665 20.8806 13.5446 20.6205C9.71452 20.8229 7.18095 21.3531 4.69727 19.6358C4.80477 19.761 4.90989 19.8874 5.0117 20.0151C8.29708 24.1382 11.078 23.336 16 23.0758C20.9219 23.336 23.7028 24.1381 26.9882 20.0151C28.8865 17.6329 31.8853 15.6704 31.9965 15.5933L32 15.5932L31.9973 15.5927C31.999 15.5915 32 15.5908 32 15.5908Z" fill="#D1578D"/>
<path d="M31.9932 15.5903L31.7578 15.5395C31.0281 15.3546 28.7194 14.6244 25.7856 12.2531C20.9632 8.35507 18.552 7.6697 16.7181 10.1113C16.6764 10.1669 16.6361 10.2236 16.5974 10.2814C16.3132 10.7052 15.6897 10.7052 15.4054 10.2814C15.3667 10.2236 15.3265 10.1669 15.2847 10.1113C13.4509 7.6697 11.0397 8.35507 6.21725 12.2531C3.29781 14.6129 0.997375 15.3474 0.255875 15.5368L0.0078125 15.5903C0.0495 15.5977 4.91169 16.4491 11.1601 15.4148C12.3819 15.2125 13.892 15.7693 14.8527 16.2152C14.8563 16.2169 14.86 16.2186 14.8636 16.2203C15.5829 16.551 16.4181 16.551 17.1374 16.2203C17.1411 16.2186 17.1447 16.2169 17.1484 16.2152C18.1091 15.7692 19.6191 15.2125 20.8409 15.4148C27.0892 16.4491 31.9514 15.5977 31.9932 15.5903Z" fill="url(#paint1_linear_59_2767)"/>
</g>
<defs>
<linearGradient id="paint0_linear_59_2767" x1="1.85933" y1="10.3989" x2="12.0025" y2="31.1265" gradientUnits="userSpaceOnUse">
<stop stop-color="#F28FBB"/>
<stop offset="1" stop-color="#E05994"/>
</linearGradient>
<linearGradient id="paint1_linear_59_2767" x1="1.86629" y1="9.59845" x2="5.19943" y2="22.3969" gradientUnits="userSpaceOnUse">
<stop stop-color="#F28FBB"/>
<stop offset="1" stop-color="#E05994"/>
</linearGradient>
<clipPath id="clip0_59_2767">
<rect width="32" height="32" fill="white"/>
</clipPath>
</defs>
</svg>
