<svg width="32" height="32" viewBox="0 0 32 32" fill="none" xmlns="http://www.w3.org/2000/svg">
<g clip-path="url(#clip0_59_2773)">
<path d="M31.4483 14.3445C31.753 14.3445 32 14.0974 32 13.7927V11.0341C32 10.4247 31.506 9.93066 30.8966 9.93066H1.10345C0.494031 9.93066 0 10.4247 0 11.0341V13.7927C0 14.0974 0.247015 14.3445 0.551724 14.3445H31.4483Z" fill="#FDD7AD"/>
<path d="M1.14721e-05 27.719C-0.00110179 27.5467 0.078863 27.384 0.215896 27.2796C0.35293 27.1752 0.531073 27.1414 0.696839 27.1882C5.20918 28.3963 9.95194 28.4572 14.4938 27.3653C21.9647 25.6473 24.8855 25.7405 31.4924 26.2817C31.7798 26.3048 32.0009 26.5452 32 26.8335V31.4481C32 31.7528 31.753 31.9998 31.4483 31.9998H0.551736C0.247027 31.9998 1.14721e-05 31.7528 1.14721e-05 31.4481V27.719Z" fill="#F3D55B"/>
<path d="M31.4483 16.5518C31.753 16.5518 32 16.7988 32 17.1035V23.52C31.9991 23.6744 31.9335 23.8214 31.8192 23.9252C31.705 24.029 31.5524 24.0801 31.3986 24.0662C29.1559 23.8814 26.9043 23.712 24.8386 23.7242C17.4897 23.7667 14.2897 25.9311 7.80139 25.9311C5.2924 25.9474 2.79442 25.598 0.386217 24.8938C0.155186 24.8212 -0.00145623 24.6064 1.02092e-05 24.3642V17.1035C1.02092e-05 16.7988 0.247026 16.5518 0.551734 16.5518H31.4483Z" fill="#E74779"/>
<path d="M19.3133 0C19.3133 0 18.5513 2.68138 18.5238 17.931C18.5238 18.9959 17.4622 19.8621 16.1563 19.8621C14.8873 19.8621 13.8501 19.0455 13.7949 18.0193V17.2469C14.0079 2.11862 19.3133 0 19.3133 0V0Z" fill="#805333"/>
<path d="M10.4822 0.551758C10.4822 0.551758 10.0254 1.8301 10.0083 10.9832C9.9284 11.6914 9.29738 12.206 8.5876 12.1418C8.23378 12.1763 7.88141 12.0634 7.61351 11.8297C7.3456 11.596 7.18584 11.2623 7.17188 10.9071C7.50567 1.83176 10.4822 0.551758 10.4822 0.551758V0.551758Z" fill="#A56A43"/>
<path d="M26.4855 0.551758C26.4855 0.551758 26.0281 1.8301 26.0116 10.9832C25.9314 11.6915 25.3002 12.206 24.5904 12.1418C24.2361 12.1769 23.8831 12.0643 23.6146 11.8306C23.3461 11.5969 23.1859 11.2628 23.1719 10.9071C23.5084 1.83176 26.4855 0.551758 26.4855 0.551758V0.551758Z" fill="#A56A43"/>
<path d="M2.75875 19.3105C3.06346 19.3105 3.31048 19.0635 3.31048 18.7588C3.31048 18.454 3.06346 18.207 2.75875 18.207C2.45405 18.207 2.20703 18.454 2.20703 18.7588C2.20703 19.0635 2.45405 19.3105 2.75875 19.3105Z" fill="white"/>
<path d="M4.96579 19.3105C5.27049 19.3105 5.51751 19.0635 5.51751 18.7588C5.51751 18.454 5.27049 18.207 4.96579 18.207C4.66108 18.207 4.41406 18.454 4.41406 18.7588C4.41406 19.0635 4.66108 19.3105 4.96579 19.3105Z" fill="white"/>
<path d="M7.17282 19.3105C7.47752 19.3105 7.72454 19.0635 7.72454 18.7588C7.72454 18.454 7.47752 18.207 7.17282 18.207C6.86811 18.207 6.62109 18.454 6.62109 18.7588C6.62109 19.0635 6.86811 19.3105 7.17282 19.3105Z" fill="white"/>
<path d="M9.37985 19.3105C9.68456 19.3105 9.93158 19.0635 9.93158 18.7588C9.93158 18.454 9.68456 18.207 9.37985 18.207C9.07514 18.207 8.82812 18.454 8.82812 18.7588C8.82812 19.0635 9.07514 19.3105 9.37985 19.3105Z" fill="white"/>
<path d="M11.5869 19.3105C11.8916 19.3105 12.1386 19.0635 12.1386 18.7588C12.1386 18.454 11.8916 18.207 11.5869 18.207C11.2822 18.207 11.0352 18.454 11.0352 18.7588C11.0352 19.0635 11.2822 19.3105 11.5869 19.3105Z" fill="white"/>
<path d="M10.4834 20.9658C10.7881 20.9658 11.0351 20.7187 11.0351 20.414C11.0351 20.1093 10.7881 19.8623 10.4834 19.8623C10.1787 19.8623 9.93164 20.1093 9.93164 20.414C9.93164 20.7187 10.1787 20.9658 10.4834 20.9658Z" fill="white"/>
<path d="M8.27634 20.9658C8.58105 20.9658 8.82807 20.7187 8.82807 20.414C8.82807 20.1093 8.58105 19.8623 8.27634 19.8623C7.97163 19.8623 7.72461 20.1093 7.72461 20.414C7.72461 20.7187 7.97163 20.9658 8.27634 20.9658Z" fill="white"/>
<path d="M6.0693 20.9658C6.37401 20.9658 6.62102 20.7187 6.62102 20.414C6.62102 20.1093 6.37401 19.8623 6.0693 19.8623C5.76459 19.8623 5.51758 20.1093 5.51758 20.414C5.51758 20.7187 5.76459 20.9658 6.0693 20.9658Z" fill="white"/>
<path d="M3.86227 20.9658C4.16698 20.9658 4.41399 20.7187 4.41399 20.414C4.41399 20.1093 4.16698 19.8623 3.86227 19.8623C3.55756 19.8623 3.31055 20.1093 3.31055 20.414C3.31055 20.7187 3.55756 20.9658 3.86227 20.9658Z" fill="white"/>
<path d="M2.75875 22.6201C3.06346 22.6201 3.31048 22.373 3.31048 22.0683C3.31048 21.7636 3.06346 21.5166 2.75875 21.5166C2.45405 21.5166 2.20703 21.7636 2.20703 22.0683C2.20703 22.373 2.45405 22.6201 2.75875 22.6201Z" fill="white"/>
<path d="M4.96579 22.6201C5.27049 22.6201 5.51751 22.373 5.51751 22.0683C5.51751 21.7636 5.27049 21.5166 4.96579 21.5166C4.66108 21.5166 4.41406 21.7636 4.41406 22.0683C4.41406 22.373 4.66108 22.6201 4.96579 22.6201Z" fill="white"/>
<path d="M7.17282 22.6201C7.47752 22.6201 7.72454 22.373 7.72454 22.0683C7.72454 21.7636 7.47752 21.5166 7.17282 21.5166C6.86811 21.5166 6.62109 21.7636 6.62109 22.0683C6.62109 22.373 6.86811 22.6201 7.17282 22.6201Z" fill="white"/>
<path d="M9.37985 22.6201C9.68456 22.6201 9.93158 22.373 9.93158 22.0683C9.93158 21.7636 9.68456 21.5166 9.37985 21.5166C9.07514 21.5166 8.82812 21.7636 8.82812 22.0683C8.82812 22.373 9.07514 22.6201 9.37985 22.6201Z" fill="white"/>
<path d="M3.86227 24.2763C4.16698 24.2763 4.41399 24.0293 4.41399 23.7246C4.41399 23.4199 4.16698 23.1729 3.86227 23.1729C3.55756 23.1729 3.31055 23.4199 3.31055 23.7246C3.31055 24.0293 3.55756 24.2763 3.86227 24.2763Z" fill="white"/>
<path d="M6.0693 24.2763C6.37401 24.2763 6.62102 24.0293 6.62102 23.7246C6.62102 23.4199 6.37401 23.1729 6.0693 23.1729C5.76459 23.1729 5.51758 23.4199 5.51758 23.7246C5.51758 24.0293 5.76459 24.2763 6.0693 24.2763Z" fill="white"/>
<path d="M8.27634 24.2763C8.58105 24.2763 8.82807 24.0293 8.82807 23.7246C8.82807 23.4199 8.58105 23.1729 8.27634 23.1729C7.97163 23.1729 7.72461 23.4199 7.72461 23.7246C7.72461 24.0293 7.97163 24.2763 8.27634 24.2763Z" fill="white"/>
<path d="M10.4834 24.2763C10.7881 24.2763 11.0351 24.0293 11.0351 23.7246C11.0351 23.4199 10.7881 23.1729 10.4834 23.1729C10.1787 23.1729 9.93164 23.4199 9.93164 23.7246C9.93164 24.0293 10.1787 24.2763 10.4834 24.2763Z" fill="white"/>
<path d="M12.6904 24.2763C12.9951 24.2763 13.2421 24.0293 13.2421 23.7246C13.2421 23.4199 12.9951 23.1729 12.6904 23.1729C12.3857 23.1729 12.1387 23.4199 12.1387 23.7246C12.1387 24.0293 12.3857 24.2763 12.6904 24.2763Z" fill="white"/>
<path d="M11.5869 22.6201C11.8916 22.6201 12.1386 22.373 12.1386 22.0683C12.1386 21.7636 11.8916 21.5166 11.5869 21.5166C11.2822 21.5166 11.0352 21.7636 11.0352 22.0683C11.0352 22.373 11.2822 22.6201 11.5869 22.6201Z" fill="white"/>
<path d="M12.6904 20.9658C12.9951 20.9658 13.2421 20.7187 13.2421 20.414C13.2421 20.1093 12.9951 19.8623 12.6904 19.8623C12.3857 19.8623 12.1387 20.1093 12.1387 20.414C12.1387 20.7187 12.3857 20.9658 12.6904 20.9658Z" fill="white"/>
<path d="M13.7939 22.6201C14.0986 22.6201 14.3456 22.373 14.3456 22.0683C14.3456 21.7636 14.0986 21.5166 13.7939 21.5166C13.4892 21.5166 13.2422 21.7636 13.2422 22.0683C13.2422 22.373 13.4892 22.6201 13.7939 22.6201Z" fill="white"/>
<path d="M16.0009 22.6201C16.3056 22.6201 16.5527 22.373 16.5527 22.0683C16.5527 21.7636 16.3056 21.5166 16.0009 21.5166C15.6962 21.5166 15.4492 21.7636 15.4492 22.0683C15.4492 22.373 15.6962 22.6201 16.0009 22.6201Z" fill="white"/>
<path d="M18.208 22.6201C18.5127 22.6201 18.7597 22.373 18.7597 22.0683C18.7597 21.7636 18.5127 21.5166 18.208 21.5166C17.9033 21.5166 17.6562 21.7636 17.6562 22.0683C17.6562 22.373 17.9033 22.6201 18.208 22.6201Z" fill="white"/>
<path d="M29.2412 19.3105C29.5459 19.3105 29.7929 19.0635 29.7929 18.7588C29.7929 18.454 29.5459 18.207 29.2412 18.207C28.9365 18.207 28.6895 18.454 28.6895 18.7588C28.6895 19.0635 28.9365 19.3105 29.2412 19.3105Z" fill="white"/>
<path d="M27.0341 19.3105C27.3388 19.3105 27.5859 19.0635 27.5859 18.7588C27.5859 18.454 27.3388 18.207 27.0341 18.207C26.7294 18.207 26.4824 18.454 26.4824 18.7588C26.4824 19.0635 26.7294 19.3105 27.0341 19.3105Z" fill="white"/>
<path d="M24.8271 19.3105C25.1318 19.3105 25.3788 19.0635 25.3788 18.7588C25.3788 18.454 25.1318 18.207 24.8271 18.207C24.5224 18.207 24.2754 18.454 24.2754 18.7588C24.2754 19.0635 24.5224 19.3105 24.8271 19.3105Z" fill="white"/>
<path d="M22.6201 19.3105C22.9248 19.3105 23.1718 19.0635 23.1718 18.7588C23.1718 18.454 22.9248 18.207 22.6201 18.207C22.3154 18.207 22.0684 18.454 22.0684 18.7588C22.0684 19.0635 22.3154 19.3105 22.6201 19.3105Z" fill="white"/>
<path d="M20.413 19.3105C20.7178 19.3105 20.9648 19.0635 20.9648 18.7588C20.9648 18.454 20.7178 18.207 20.413 18.207C20.1083 18.207 19.8613 18.454 19.8613 18.7588C19.8613 19.0635 20.1083 19.3105 20.413 19.3105Z" fill="white"/>
<path d="M21.5166 20.9658C21.8213 20.9658 22.0683 20.7187 22.0683 20.414C22.0683 20.1093 21.8213 19.8623 21.5166 19.8623C21.2119 19.8623 20.9648 20.1093 20.9648 20.414C20.9648 20.7187 21.2119 20.9658 21.5166 20.9658Z" fill="white"/>
<path d="M23.7236 20.9658C24.0283 20.9658 24.2753 20.7187 24.2753 20.414C24.2753 20.1093 24.0283 19.8623 23.7236 19.8623C23.4189 19.8623 23.1719 20.1093 23.1719 20.414C23.1719 20.7187 23.4189 20.9658 23.7236 20.9658Z" fill="white"/>
<path d="M25.9306 20.9658C26.2353 20.9658 26.4823 20.7187 26.4823 20.414C26.4823 20.1093 26.2353 19.8623 25.9306 19.8623C25.6259 19.8623 25.3789 20.1093 25.3789 20.414C25.3789 20.7187 25.6259 20.9658 25.9306 20.9658Z" fill="white"/>
<path d="M28.1377 20.9658C28.4424 20.9658 28.6894 20.7187 28.6894 20.414C28.6894 20.1093 28.4424 19.8623 28.1377 19.8623C27.833 19.8623 27.5859 20.1093 27.5859 20.414C27.5859 20.7187 27.833 20.9658 28.1377 20.9658Z" fill="white"/>
<path d="M20.413 22.6201C20.7178 22.6201 20.9648 22.373 20.9648 22.0683C20.9648 21.7636 20.7178 21.5166 20.413 21.5166C20.1083 21.5166 19.8613 21.7636 19.8613 22.0683C19.8613 22.373 20.1083 22.6201 20.413 22.6201Z" fill="white"/>
<path d="M22.6201 22.6201C22.9248 22.6201 23.1718 22.373 23.1718 22.0683C23.1718 21.7636 22.9248 21.5166 22.6201 21.5166C22.3154 21.5166 22.0684 21.7636 22.0684 22.0683C22.0684 22.373 22.3154 22.6201 22.6201 22.6201Z" fill="white"/>
<path d="M24.8271 22.6201C25.1318 22.6201 25.3788 22.373 25.3788 22.0683C25.3788 21.7636 25.1318 21.5166 24.8271 21.5166C24.5224 21.5166 24.2754 21.7636 24.2754 22.0683C24.2754 22.373 24.5224 22.6201 24.8271 22.6201Z" fill="white"/>
<path d="M27.0341 22.6201C27.3388 22.6201 27.5859 22.373 27.5859 22.0683C27.5859 21.7636 27.3388 21.5166 27.0341 21.5166C26.7294 21.5166 26.4824 21.7636 26.4824 22.0683C26.4824 22.373 26.7294 22.6201 27.0341 22.6201Z" fill="white"/>
<path d="M29.2412 22.6201C29.5459 22.6201 29.7929 22.373 29.7929 22.0683C29.7929 21.7636 29.5459 21.5166 29.2412 21.5166C28.9365 21.5166 28.6895 21.7636 28.6895 22.0683C28.6895 22.373 28.9365 22.6201 29.2412 22.6201Z" fill="white"/>
<path d="M19.3095 20.9658C19.6142 20.9658 19.8612 20.7187 19.8612 20.414C19.8612 20.1093 19.6142 19.8623 19.3095 19.8623C19.0048 19.8623 18.7578 20.1093 18.7578 20.414C18.7578 20.7187 19.0048 20.9658 19.3095 20.9658Z" fill="white"/>
<path d="M29.7939 28.6904H28.6904C28.3857 28.6904 28.1387 28.4433 28.1387 28.1386C28.1387 27.8339 28.3857 27.5869 28.6904 27.5869H29.7939C30.0986 27.5869 30.3456 27.8339 30.3456 28.1386C30.3456 28.4433 30.0986 28.6904 29.7939 28.6904Z" fill="#F5EFCA"/>
<path d="M26.4833 28.6904H25.3799C25.0751 28.6904 24.8281 28.4433 24.8281 28.1386C24.8281 27.8339 25.0751 27.5869 25.3799 27.5869H26.4833C26.788 27.5869 27.035 27.8339 27.035 28.1386C27.035 28.4433 26.788 28.6904 26.4833 28.6904Z" fill="#F5EFCA"/>
<path d="M23.1728 28.6904H22.0693C21.7646 28.6904 21.5176 28.4433 21.5176 28.1386C21.5176 27.8339 21.7646 27.5869 22.0693 27.5869H23.1728C23.4775 27.5869 23.7245 27.8339 23.7245 28.1386C23.7245 28.4433 23.4775 28.6904 23.1728 28.6904Z" fill="#F5EFCA"/>
<path d="M19.8622 28.6904H18.7588C18.454 28.6904 18.207 28.4433 18.207 28.1386C18.207 27.8339 18.454 27.5869 18.7588 27.5869H19.8622C20.1669 27.5869 20.4139 27.8339 20.4139 28.1386C20.4139 28.4433 20.1669 28.6904 19.8622 28.6904Z" fill="#F5EFCA"/>
<path d="M28.1376 30.3447H27.0341C26.7294 30.3447 26.4824 30.0976 26.4824 29.7929C26.4824 29.4882 26.7294 29.2412 27.0341 29.2412H28.1376C28.4423 29.2412 28.6893 29.4882 28.6893 29.7929C28.6893 30.0976 28.4423 30.3447 28.1376 30.3447Z" fill="#F5EFCA"/>
<path d="M24.8271 30.3447H23.7236C23.4189 30.3447 23.1719 30.0976 23.1719 29.7929C23.1719 29.4882 23.4189 29.2412 23.7236 29.2412H24.8271C25.1318 29.2412 25.3788 29.4882 25.3788 29.7929C25.3788 30.0976 25.1318 30.3447 24.8271 30.3447Z" fill="#F5EFCA"/>
<path d="M21.5165 30.3447H20.4131C20.1083 30.3447 19.8613 30.0976 19.8613 29.7929C19.8613 29.4882 20.1083 29.2412 20.4131 29.2412H21.5165C21.8212 29.2412 22.0682 29.4882 22.0682 29.7929C22.0682 30.0976 21.8212 30.3447 21.5165 30.3447Z" fill="#F5EFCA"/>
<path d="M18.2079 30.3447H17.1045C16.7998 30.3447 16.5527 30.0976 16.5527 29.7929C16.5527 29.4882 16.7998 29.2412 17.1045 29.2412H18.2079C18.5126 29.2412 18.7596 29.4882 18.7596 29.7929C18.7596 30.0976 18.5126 30.3447 18.2079 30.3447Z" fill="#F5EFCA"/>
<path d="M14.8974 30.3447H13.7939C13.4892 30.3447 13.2422 30.0976 13.2422 29.7929C13.2422 29.4882 13.4892 29.2412 13.7939 29.2412H14.8974C15.2021 29.2412 15.4491 29.4882 15.4491 29.7929C15.4491 30.0976 15.2021 30.3447 14.8974 30.3447Z" fill="#F5EFCA"/>
<path d="M11.5868 30.3447H10.4834C10.1787 30.3447 9.93164 30.0976 9.93164 29.7929C9.93164 29.4882 10.1787 29.2412 10.4834 29.2412H11.5868C11.8915 29.2412 12.1385 29.4882 12.1385 29.7929C12.1385 30.0976 11.8915 30.3447 11.5868 30.3447Z" fill="#F5EFCA"/>
<path d="M8.27626 30.3447H7.17282C6.86811 30.3447 6.62109 30.0976 6.62109 29.7929C6.62109 29.4882 6.86811 29.2412 7.17282 29.2412H8.27626C8.58097 29.2412 8.82799 29.4882 8.82799 29.7929C8.82799 30.0976 8.58097 30.3447 8.27626 30.3447Z" fill="#F5EFCA"/>
<path d="M4.96572 30.3447H3.86227C3.55756 30.3447 3.31055 30.0976 3.31055 29.7929C3.31055 29.4882 3.55756 29.2412 3.86227 29.2412H4.96572C5.27042 29.2412 5.51744 29.4882 5.51744 29.7929C5.51744 30.0976 5.27042 30.3447 4.96572 30.3447Z" fill="#F5EFCA"/>
</g>
<defs>
<clipPath id="clip0_59_2773">
<rect width="32" height="32" fill="white"/>
</clipPath>
</defs>
</svg>
