<svg width="20" height="18" viewBox="0 0 20 18" fill="none" xmlns="http://www.w3.org/2000/svg">
<path d="M18.1995 2.25092C17.2526 1.18667 15.9388 0.600586 14.5004 0.600586C12.4773 0.600586 11.1965 1.79728 10.4783 2.8012C10.292 3.06171 10.1335 3.32292 10.0004 3.56872C9.8673 3.32292 9.70883 3.06171 9.52245 2.8012C8.80425 1.79728 7.52344 0.600586 5.50039 0.600586C4.06197 0.600586 2.74823 1.18671 1.8012 2.25095C0.897903 3.26617 0.400391 4.62584 0.400391 6.07947C0.400391 7.6618 1.02413 9.13351 2.36333 10.711C3.56022 12.1209 5.2821 13.5741 7.27602 15.2569C8.019 15.884 8.78734 16.5325 9.60533 17.2414L9.62989 17.2627C9.73594 17.3546 9.86817 17.4006 10.0004 17.4006C10.1326 17.4006 10.2648 17.3546 10.3709 17.2627L10.3955 17.2414C11.2134 16.5325 11.9818 15.8841 12.7249 15.2569C14.7187 13.5742 16.4406 12.1209 17.6375 10.711C18.9767 9.13348 19.6004 7.6618 19.6004 6.07947C19.6004 4.62584 19.1029 3.26617 18.1995 2.25092ZM11.9951 14.4089C11.3546 14.9494 10.6955 15.5058 10.0004 16.1042C9.30536 15.5058 8.64615 14.9495 8.00554 14.4088C4.10333 11.1154 1.52539 8.9396 1.52539 6.07947C1.52539 4.89726 1.92308 3.79922 2.64522 2.98765C3.37564 2.16687 4.3896 1.71482 5.50039 1.71482C7.04273 1.71482 8.03974 2.65591 8.60449 3.44538C9.11108 4.15344 9.37542 4.86722 9.46557 5.14121C9.54098 5.37056 9.75687 5.52577 10.0004 5.52577C10.2439 5.52577 10.4598 5.37056 10.5352 5.14121C10.6254 4.86722 10.8897 4.15344 11.3963 3.44534C11.961 2.65591 12.9581 1.71482 14.5004 1.71482C15.6112 1.71482 16.6251 2.16687 17.3555 2.98765C18.0777 3.79922 18.4754 4.89726 18.4754 6.07947C18.4754 8.9396 15.8975 11.1154 11.9951 14.4089Z" fill="#B1B1B1"/>
</svg>
