<svg width="55" height="54" viewBox="0 0 55 54" fill="none" xmlns="http://www.w3.org/2000/svg">
<circle cx="27.5" cy="27" r="27" fill="#E74779"/>
<path d="M30.2413 16.5C31.373 16.5117 32.2947 17.0943 32.8313 18.1432C32.9699 18.42 33.1631 18.8242 33.3655 19.2506L33.6097 19.7663L33.7297 20.0194L33.8463 20.2758C33.893 20.3574 33.9747 20.4156 34.0797 20.4156C36.8797 20.4156 39.1663 22.6998 39.1663 25.4967V32.419C39.1663 35.2159 36.8797 37.5 34.0797 37.5H20.9197C18.108 37.5 15.833 35.2159 15.833 32.419V25.4967C15.833 22.6998 18.108 20.4156 20.9197 20.4156C21.013 20.4156 21.1063 20.369 21.1413 20.2758L21.2113 20.136C21.538 19.4484 21.9347 18.6093 22.168 18.1432C22.7047 17.0943 23.6147 16.5117 24.7463 16.5H30.2413ZM27.4997 23.97C26.2747 23.97 25.1197 24.4478 24.2447 25.3219C23.3813 26.1959 22.903 27.338 22.9147 28.5499C22.9147 29.7736 23.393 30.9156 24.2563 31.7897C25.1313 32.6521 26.2747 33.1299 27.4997 33.1299C28.7597 33.1299 29.903 32.6171 30.7313 31.7897C31.5597 30.9623 32.073 29.8202 32.0847 28.5499C32.0847 27.338 31.6063 26.1842 30.743 25.3102C29.8797 24.4478 28.7247 23.97 27.4997 23.97ZM27.4997 25.7181C28.258 25.7181 28.9697 26.0094 29.5063 26.5455C30.043 27.0816 30.3347 27.7925 30.3347 28.5499C30.323 30.1115 29.063 31.3818 27.4997 31.3818C26.7413 31.3818 26.0297 31.0905 25.493 30.5544C24.9563 30.0183 24.6647 29.3074 24.6647 28.5499V28.5383C24.653 27.8041 24.9447 27.0932 25.4813 26.5572C26.0297 26.0094 26.7413 25.7181 27.4997 25.7181ZM34.0447 23.6903C33.4613 23.6903 32.9947 24.1681 32.9947 24.7508C32.9947 25.3335 33.4613 25.7997 34.0447 25.7997C34.628 25.7997 35.1063 25.3335 35.1063 24.7508C35.1063 24.1681 34.628 23.6903 34.0447 23.6903Z" fill="white"/>
</svg>
