<svg width="122" height="111" viewBox="0 0 122 111" fill="none" xmlns="http://www.w3.org/2000/svg">
<g filter="url(#filter0_d_1049_6586)">
<path fill-rule="evenodd" clip-rule="evenodd" d="M26.8458 40C32.2504 40 36.9622 36.6556 40.6816 32.7343C45.7841 27.3548 53.0003 24 61 24C68.9997 24 76.2159 27.3548 81.3184 32.7343C85.0378 36.6556 89.7496 40 95.1542 40H103V96.5H19V40H26.8458Z" fill="white"/>
</g>
<circle cx="61" cy="60" r="27" fill="#E74779"/>
<path d="M63.7413 49.5C64.873 49.5117 65.7947 50.0943 66.3313 51.1432C66.4699 51.42 66.6631 51.8242 66.8655 52.2506L67.1097 52.7663L67.2297 53.0194L67.3463 53.2758C67.393 53.3574 67.4747 53.4156 67.5797 53.4156C70.3797 53.4156 72.6663 55.6998 72.6663 58.4967V65.419C72.6663 68.2159 70.3797 70.5 67.5797 70.5H54.4197C51.608 70.5 49.333 68.2159 49.333 65.419V58.4967C49.333 55.6998 51.608 53.4156 54.4197 53.4156C54.513 53.4156 54.6063 53.369 54.6413 53.2758L54.7113 53.136C55.038 52.4484 55.4347 51.6093 55.668 51.1432C56.2047 50.0943 57.1147 49.5117 58.2463 49.5H63.7413ZM60.9997 56.97C59.7747 56.97 58.6197 57.4478 57.7447 58.3219C56.8813 59.1959 56.403 60.338 56.4147 61.5499C56.4147 62.7736 56.893 63.9156 57.7563 64.7897C58.6313 65.6521 59.7747 66.1299 60.9997 66.1299C62.2597 66.1299 63.403 65.6171 64.2313 64.7897C65.0597 63.9623 65.573 62.8202 65.5847 61.5499C65.5847 60.338 65.1063 59.1842 64.243 58.3102C63.3797 57.4478 62.2247 56.97 60.9997 56.97ZM60.9997 58.7181C61.758 58.7181 62.4697 59.0094 63.0063 59.5455C63.543 60.0816 63.8347 60.7925 63.8347 61.5499C63.823 63.1115 62.563 64.3818 60.9997 64.3818C60.2413 64.3818 59.5297 64.0905 58.993 63.5544C58.4563 63.0183 58.1647 62.3074 58.1647 61.5499V61.5383C58.153 60.8041 58.4447 60.0932 58.9813 59.5572C59.5297 59.0094 60.2413 58.7181 60.9997 58.7181ZM67.5447 56.6903C66.9613 56.6903 66.4947 57.1681 66.4947 57.7508C66.4947 58.3335 66.9613 58.7997 67.5447 58.7997C68.128 58.7997 68.6063 58.3335 68.6063 57.7508C68.6063 57.1681 68.128 56.6903 67.5447 56.6903Z" fill="white"/>
<defs>
<filter id="filter0_d_1049_6586" x="0" y="0" width="122" height="110.5" filterUnits="userSpaceOnUse" color-interpolation-filters="sRGB">
<feFlood flood-opacity="0" result="BackgroundImageFix"/>
<feColorMatrix in="SourceAlpha" type="matrix" values="0 0 0 0 0 0 0 0 0 0 0 0 0 0 0 0 0 0 127 0" result="hardAlpha"/>
<feOffset dy="-5"/>
<feGaussianBlur stdDeviation="9.5"/>
<feComposite in2="hardAlpha" operator="out"/>
<feColorMatrix type="matrix" values="0 0 0 0 0.0212153 0 0 0 0 0.0278056 0 0 0 0 0.0871181 0 0 0 0.06 0"/>
<feBlend mode="normal" in2="BackgroundImageFix" result="effect1_dropShadow_1049_6586"/>
<feBlend mode="normal" in="SourceGraphic" in2="effect1_dropShadow_1049_6586" result="shape"/>
</filter>
</defs>
</svg>
