<svg width="28" height="28" viewBox="0 0 28 28" fill="none" xmlns="http://www.w3.org/2000/svg">
<path fill-rule="evenodd" clip-rule="evenodd" d="M19.1747 1.16602C23.4062 1.16602 26.2494 4.13635 26.2494 8.55685V18.8585C26.2494 23.279 23.4062 26.2494 19.1747 26.2494H8.24068C4.00918 26.2494 1.16602 23.279 1.16602 18.8585V8.55685C1.16602 4.13635 4.00918 1.16602 8.24068 1.16602H19.1747ZM19.1747 2.91602H8.24068C5.00668 2.91602 2.91602 5.12918 2.91602 8.55685V18.8585C2.91602 22.2862 5.00668 24.4994 8.24068 24.4994H19.1747C22.4099 24.4994 24.4994 22.2862 24.4994 18.8585V8.55685C24.4994 5.12918 22.4099 2.91602 19.1747 2.91602ZM8.3073 10.7356C8.7903 10.7356 9.1823 11.1276 9.1823 11.6106V19.6139C9.1823 20.0969 8.7903 20.4889 8.3073 20.4889C7.8243 20.4889 7.4323 20.0969 7.4323 19.6139V11.6106C7.4323 11.1276 7.8243 10.7356 8.3073 10.7356ZM13.7521 6.90427C14.2351 6.90427 14.6271 7.29627 14.6271 7.77927V19.6128C14.6271 20.0958 14.2351 20.4878 13.7521 20.4878C13.2691 20.4878 12.8771 20.0958 12.8771 19.6128V7.77927C12.8771 7.29627 13.2691 6.90427 13.7521 6.90427ZM19.1075 14.9648C19.5905 14.9648 19.9825 15.3568 19.9825 15.8398V19.6128C19.9825 20.0958 19.5905 20.4878 19.1075 20.4878C18.6245 20.4878 18.2325 20.0958 18.2325 19.6128V15.8398C18.2325 15.3568 18.6245 14.9648 19.1075 14.9648Z" fill="#B1B1B1"/>
</svg>
