<svg width="28" height="28" viewBox="0 0 28 28" fill="none" xmlns="http://www.w3.org/2000/svg">
<path d="M19.4478 2.33398C23.4157 2.33398 25.6557 4.58448 25.6673 8.55232V19.449C25.6673 23.4157 23.4157 25.6673 19.4478 25.6673H8.55232C4.58448 25.6673 2.33398 23.4157 2.33398 19.449V8.55232C2.33398 4.58448 4.58448 2.33398 8.55232 2.33398H19.4478ZM14.584 7.15232C14.2562 6.95398 13.8595 6.95398 13.5457 7.15232C13.2295 7.34948 13.0557 7.71232 13.0895 8.07398V19.9623C13.149 20.464 13.5678 20.8373 14.0578 20.8373C14.5607 20.8373 14.9795 20.464 15.0262 19.9623V8.07398C15.0728 7.71232 14.899 7.34948 14.584 7.15232ZM9.13565 10.979C8.82065 10.7807 8.42282 10.7807 8.10898 10.979C7.79282 11.1773 7.61898 11.5378 7.65398 11.9007V19.9623C7.69948 20.464 8.11948 20.8373 8.62115 20.8373C9.12398 20.8373 9.54282 20.464 9.58948 19.9623V11.9007C9.62565 11.5378 9.44948 11.1773 9.13565 10.979ZM19.9378 15.214C19.624 15.0157 19.2273 15.0157 18.9007 15.214C18.5845 15.4123 18.4107 15.7612 18.4573 16.1357V19.9623C18.504 20.464 18.9228 20.8373 19.4257 20.8373C19.9157 20.8373 20.3345 20.464 20.394 19.9623V16.1357C20.4278 15.7612 20.254 15.4123 19.9378 15.214Z" fill="#E74779"/>
</svg>
