<svg width="28" height="28" viewBox="0 0 28 28" fill="none" xmlns="http://www.w3.org/2000/svg">
<path fill-rule="evenodd" clip-rule="evenodd" d="M16.0038 17.8391C17.4085 17.8391 18.5518 18.9743 18.5518 20.3696V23.9583C18.5518 24.2581 18.7921 24.4985 19.1001 24.5055H21.3238C23.0761 24.5055 24.5006 23.0985 24.5006 21.3695V11.1915C24.4925 10.5965 24.209 10.0365 23.7225 9.66431L16.0307 3.52997C14.9981 2.71214 13.5538 2.71214 12.5178 3.53231L4.87848 9.66197C4.37332 10.0458 4.08982 10.6058 4.08398 11.2113V21.3695C4.08398 23.0985 5.50848 24.5055 7.26082 24.5055H9.50548C9.82165 24.5055 10.0783 24.2546 10.0783 23.9466C10.0783 23.879 10.0865 23.8113 10.1005 23.7471V20.3696C10.1005 18.9825 11.2368 17.8485 12.631 17.8391H16.0038ZM21.3238 26.2555H19.0791C17.7935 26.2251 16.8018 25.216 16.8018 23.9583V20.3696C16.8018 19.9391 16.4436 19.5891 16.0038 19.5891H12.6368C12.2063 19.5915 11.8505 19.9426 11.8505 20.3696V23.9466C11.8505 24.0341 11.8388 24.1181 11.8143 24.1975C11.6883 25.3525 10.7013 26.2555 9.50548 26.2555H7.26082C4.54365 26.2555 2.33398 24.0633 2.33398 21.3695V11.2031C2.34565 10.0435 2.87998 8.98181 3.80282 8.28297L11.427 2.16381C13.1058 0.833807 15.445 0.833807 17.1203 2.16147L24.7993 8.28648C25.7011 8.97364 26.2355 10.033 26.2506 11.1786V21.3695C26.2506 24.0633 24.041 26.2555 21.3238 26.2555Z" fill="#B1B1B1"/>
</svg>
