<svg width="68" height="68" viewBox="0 0 68 68" fill="none" xmlns="http://www.w3.org/2000/svg">
<g filter="url(#filter0_d_814_671)">
<path d="M30.6415 36.2408C30.6509 36.2377 30.6572 36.2289 30.6572 36.219V32.6683C30.6572 31.7576 31.4009 31.0194 32.3182 31.0194H35.6714C36.1119 31.0194 36.5343 31.1931 36.8458 31.5023C37.1573 31.8116 37.3323 32.231 37.3323 32.6683V36.2356C37.3295 36.6142 37.4791 36.9782 37.7478 37.2469C38.0164 37.5156 38.382 37.6667 38.7634 37.6667H41.0511C42.1196 37.6695 43.1452 37.25 43.9017 36.501C44.6582 35.7519 45.0833 34.7349 45.0833 33.6742V23.5114C45.0833 22.6546 44.7007 21.8419 44.0387 21.2922L36.2564 15.1219C34.9026 14.04 32.963 14.075 31.6496 15.2048L24.0448 21.2922C23.3515 21.8257 22.9371 22.6408 22.9167 23.5114V33.6638C22.9167 35.8745 24.7219 37.6667 26.9489 37.6667H29.1843C29.9709 37.6667 30.6111 37.0412 30.6257 36.2625C30.6259 36.2527 30.6322 36.2439 30.6415 36.2408Z" fill="#E74779"/>
</g>
<defs>
<filter id="filter0_d_814_671" x="0.916656" y="0.333374" width="66.1667" height="67.3334" filterUnits="userSpaceOnUse" color-interpolation-filters="sRGB">
<feFlood flood-opacity="0" result="BackgroundImageFix"/>
<feColorMatrix in="SourceAlpha" type="matrix" values="0 0 0 0 0 0 0 0 0 0 0 0 0 0 0 0 0 0 127 0" result="hardAlpha"/>
<feOffset dy="8"/>
<feGaussianBlur stdDeviation="11"/>
<feComposite in2="hardAlpha" operator="out"/>
<feColorMatrix type="matrix" values="0 0 0 0 0.833333 0 0 0 0 0.1875 0 0 0 0 0.469412 0 0 0 0.15 0"/>
<feBlend mode="normal" in2="BackgroundImageFix" result="effect1_dropShadow_814_671"/>
<feBlend mode="normal" in="SourceGraphic" in2="effect1_dropShadow_814_671" result="shape"/>
</filter>
</defs>
</svg>
