<svg width="28" height="28" viewBox="0 0 28 28" fill="none" xmlns="http://www.w3.org/2000/svg">
<path d="M11.7 22.9767C11.7 22.8767 11.7 22.8767 11.7 22.9767V19.3767C11.7 18.4767 12.4 17.7767 13.4 17.7767H16.8C17.2 17.7767 17.7 17.9767 18 18.2767C18.3 18.5767 18.5 18.9767 18.5 19.4767V23.0767C18.5 23.4767 18.6 23.7767 18.9 24.0767C19.2 24.3767 19.5 24.4767 19.9 24.4767H22.2C23.3 24.4767 24.3 24.0767 25.1 23.2767C25.9 22.5767 26.3 21.4767 26.3 20.4767V10.1767C26.3 9.2767 25.9 8.4767 25.3 7.9767L17.5 1.7767C16.1 0.676702 14.2 0.776702 12.9 1.8767L5.1 7.9767C4.4 8.4767 4 9.2767 4 10.1767V20.3767C4 22.5767 5.8 24.3767 8 24.3767H10.2C11.1 24.3767 11.7 23.7767 11.7 22.9767Z" fill="#E74779"/>
</svg>
