<svg width="28" height="28" viewBox="0 0 28 28" fill="none" xmlns="http://www.w3.org/2000/svg">
<path d="M9.42424 16.0747C11.0692 16.0747 12.3876 17.4058 12.3876 19.0625V23.0397C12.3876 24.6847 11.0692 26.0263 9.42424 26.0263H5.48091C3.84758 26.0263 2.51758 24.6847 2.51758 23.0397V19.0625C2.51758 17.4058 3.84758 16.0747 5.48091 16.0747H9.42424ZM22.8877 16.0747C24.521 16.0747 25.851 17.4058 25.851 19.0625V23.0397C25.851 24.6847 24.521 26.0263 22.8877 26.0263H18.9444C17.2994 26.0263 15.981 24.6847 15.981 23.0397V19.0625C15.981 17.4058 17.2994 16.0747 18.9444 16.0747H22.8877ZM9.42424 2.69336C11.0692 2.69336 12.3876 4.03503 12.3876 5.68119V9.65836C12.3876 11.315 11.0692 12.645 9.42424 12.645H5.48091C3.84758 12.645 2.51758 11.315 2.51758 9.65836V5.68119C2.51758 4.03503 3.84758 2.69336 5.48091 2.69336H9.42424ZM22.8877 2.69336C24.521 2.69336 25.851 4.03503 25.851 5.68119V9.65836C25.851 11.315 24.521 12.645 22.8877 12.645H18.9444C17.2994 12.645 15.981 11.315 15.981 9.65836V5.68119C15.981 4.03503 17.2994 2.69336 18.9444 2.69336H22.8877Z" fill="#E74779"/>
</svg>
