<svg width="28" height="28" viewBox="0 0 28 28" fill="none" xmlns="http://www.w3.org/2000/svg">
<path fill-rule="evenodd" clip-rule="evenodd" d="M7.29232 15.1673C12.0395 15.1673 12.2507 16.7773 12.2507 20.1257C12.2507 21.8033 12.2507 22.9968 11.546 23.8706C10.7352 24.8775 9.25932 25.084 7.29232 25.084C5.32532 25.084 3.84948 24.8775 3.03865 23.8706C2.33398 22.9968 2.33398 21.8045 2.33398 20.1548L3.20898 20.1257H2.33398C2.33398 16.7773 2.54515 15.1673 7.29232 15.1673ZM20.1257 15.1673C24.8728 15.1673 25.084 16.7773 25.084 20.1257C25.084 21.8033 25.084 22.9968 24.3793 23.8706C23.5685 24.8775 22.0926 25.084 20.1257 25.084C18.1587 25.084 16.6828 24.8775 15.872 23.8706C15.1673 22.9968 15.1673 21.8045 15.1673 20.1548L16.0423 20.1257H15.1673C15.1673 16.7773 15.3785 15.1673 20.1257 15.1673ZM7.53284 16.9178L7.29232 16.9173C4.24851 16.9173 4.09242 17.1357 4.08442 19.6905L4.08491 20.6859C4.09044 21.702 4.12915 22.436 4.40015 22.774C4.70932 23.1567 5.62748 23.334 7.29232 23.334C8.95715 23.334 9.87532 23.1555 10.1845 22.7728C10.5007 22.3797 10.5007 21.4463 10.5007 20.1537C10.5007 17.2367 10.5007 16.9316 7.53284 16.9178ZM20.3662 16.9178L20.1257 16.9173C17.0818 16.9173 16.9258 17.1357 16.9178 19.6905L16.9182 20.6859C16.9238 21.702 16.9625 22.436 17.2335 22.774C17.5427 23.1567 18.4608 23.334 20.1257 23.334C21.7905 23.334 22.7087 23.1555 23.0178 22.7728C23.334 22.3797 23.334 21.4463 23.334 20.1537C23.334 17.2367 23.334 16.9316 20.3662 16.9178ZM7.29232 2.33398C12.0395 2.33398 12.2507 3.94398 12.2507 7.29232C12.2507 8.96998 12.2507 10.1635 11.546 11.0373C10.7352 12.0442 9.25932 12.2507 7.29232 12.2507C5.32532 12.2507 3.84948 12.0442 3.03865 11.0373C2.33398 10.1635 2.33398 8.97115 2.33398 7.32148L3.20898 7.29232H2.33398C2.33398 3.94398 2.54515 2.33398 7.29232 2.33398ZM20.1257 2.33398C24.8728 2.33398 25.084 3.94398 25.084 7.29232C25.084 8.96998 25.084 10.1635 24.3793 11.0373C23.5685 12.0442 22.0926 12.2507 20.1257 12.2507C18.1587 12.2507 16.6828 12.0442 15.872 11.0373C15.1673 10.1635 15.1673 8.97115 15.1673 7.32148L16.0423 7.29232H15.1673C15.1673 3.94398 15.3785 2.33398 20.1257 2.33398ZM7.53284 4.08451L7.29232 4.08398C4.24851 4.08398 4.09242 4.3024 4.08442 6.85721L4.08491 7.85253C4.09044 8.86865 4.12915 9.60265 4.40015 9.94065C4.70932 10.3233 5.62748 10.5007 7.29232 10.5007C8.95715 10.5007 9.87532 10.3222 10.1845 9.93948C10.5007 9.54632 10.5007 8.61298 10.5007 7.32032C10.5007 4.40341 10.5007 4.09824 7.53284 4.08451ZM20.3662 4.08451L20.1257 4.08398C17.0818 4.08398 16.9258 4.3024 16.9178 6.85721L16.9182 7.85253C16.9238 8.86865 16.9625 9.60265 17.2335 9.94065C17.5427 10.3233 18.4608 10.5007 20.1257 10.5007C21.7905 10.5007 22.7087 10.3222 23.0178 9.93948C23.334 9.54632 23.334 8.61298 23.334 7.32032C23.334 4.40341 23.334 4.09824 20.3662 4.08451Z" fill="#B1B1B1"/>
</svg>
