<svg width="28" height="28" viewBox="0 0 28 28" fill="none" xmlns="http://www.w3.org/2000/svg">
<path fill-rule="evenodd" clip-rule="evenodd" d="M23.146 21.2263C23.146 25.0716 17.8727 25.5161 13.9072 25.5161L13.6234 25.5159C11.0969 25.5097 4.66602 25.3502 4.66602 21.2029C4.66602 17.4361 9.72743 16.9327 13.6627 16.9137L14.1909 16.9134C16.7173 16.9195 23.146 17.079 23.146 21.2263ZM13.9072 18.6631C8.93602 18.6631 6.41602 19.5171 6.41602 21.2029C6.41602 22.9039 8.93602 23.7661 13.9072 23.7661C18.8772 23.7661 21.396 22.9121 21.396 21.2263C21.396 19.5253 18.8772 18.6631 13.9072 18.6631ZM13.9072 2.33398C17.3232 2.33398 20.101 5.11298 20.101 8.52898C20.101 11.945 17.3232 14.7228 13.9072 14.7228H13.8699C10.4608 14.7123 7.69935 11.9322 7.71098 8.52548C7.71098 5.11298 10.49 2.33398 13.9072 2.33398ZM13.9072 3.99998C11.4093 3.99998 9.37699 6.03115 9.37699 8.52898C9.36885 11.0187 11.386 13.0487 13.8734 13.058L13.9072 13.891V13.058C16.4039 13.058 18.435 11.0257 18.435 8.52898C18.435 6.03115 16.4039 3.99998 13.9072 3.99998Z" fill="#E74779"/>
</svg>
