<svg width="28" height="28" viewBox="0 0 28 28" fill="none" xmlns="http://www.w3.org/2000/svg">
<path d="M16.7423 3.5C17.874 3.51165 18.7957 4.09434 19.3323 5.14317C19.4709 5.41995 19.6641 5.82419 19.8664 6.25062L20.1107 6.76625L20.2307 7.01942L20.3473 7.2758C20.394 7.35738 20.4757 7.41565 20.5807 7.41565C23.3807 7.41565 25.6673 9.69978 25.6673 12.4967V19.419C25.6673 22.2159 23.3807 24.5 20.5807 24.5H7.42065C4.60898 24.5 2.33398 22.2159 2.33398 19.419V12.4967C2.33398 9.69978 4.60898 7.41565 7.42065 7.41565C7.51398 7.41565 7.60732 7.36903 7.64232 7.2758L7.71232 7.13596C8.03899 6.44839 8.43565 5.60932 8.66898 5.14317C9.20565 4.09434 10.1157 3.51165 11.2473 3.5H16.7423ZM14.0007 10.97C12.7757 10.97 11.6207 11.4478 10.7457 12.3219C9.88232 13.1959 9.40399 14.338 9.41565 15.5499C9.41565 16.7736 9.89399 17.9156 10.7573 18.7897C11.6323 19.6521 12.7757 20.1299 14.0007 20.1299C15.2607 20.1299 16.404 19.6171 17.2323 18.7897C18.0607 17.9623 18.574 16.8202 18.5857 15.5499C18.5857 14.338 18.1073 13.1842 17.244 12.3102C16.3807 11.4478 15.2257 10.97 14.0007 10.97ZM14.0007 12.7181C14.759 12.7181 15.4707 13.0094 16.0073 13.5455C16.544 14.0816 16.8357 14.7925 16.8357 15.5499C16.824 17.1115 15.564 18.3818 14.0007 18.3818C13.2423 18.3818 12.5307 18.0905 11.994 17.5544C11.4573 17.0183 11.1657 16.3074 11.1657 15.5499V15.5383C11.154 14.8041 11.4457 14.0932 11.9823 13.5572C12.5307 13.0094 13.2423 12.7181 14.0007 12.7181ZM20.5457 10.6903C19.9623 10.6903 19.4957 11.1681 19.4957 11.7508C19.4957 12.3335 19.9623 12.7997 20.5457 12.7997C21.129 12.7997 21.6073 12.3335 21.6073 11.7508C21.6073 11.1681 21.129 10.6903 20.5457 10.6903Z" fill="#E74779"/>
</svg>
