<svg width="19" height="20" viewBox="0 0 19 20" fill="none" xmlns="http://www.w3.org/2000/svg">
<path fill-rule="evenodd" clip-rule="evenodd" d="M16.4295 6.7197C16.8425 6.7537 17.1505 7.1147 17.1175 7.5277C17.1115 7.5957 16.5695 14.3067 16.2575 17.1217C16.0635 18.8687 14.9095 19.9317 13.1675 19.9637C11.8345 19.9867 10.5485 19.9997 9.29152 19.9997C7.93652 19.9997 6.61552 19.9847 5.30852 19.9577C3.63652 19.9247 2.47952 18.8407 2.29052 17.1287C1.97552 14.2887 1.43652 7.5947 1.43152 7.5277C1.39752 7.1147 1.70552 6.7527 2.11852 6.7197C2.52552 6.7087 2.89352 6.9947 2.92652 7.4067C2.92971 7.4501 3.15006 10.1837 3.39018 12.8884L3.43841 13.4282C3.55935 14.7725 3.68195 16.0643 3.78152 16.9637C3.88852 17.9367 4.41352 18.4387 5.33952 18.4577C7.83952 18.5107 10.3905 18.5137 13.1405 18.4637C14.1245 18.4447 14.6565 17.9527 14.7665 16.9567C15.0765 14.1627 15.6165 7.4747 15.6225 7.4067C15.6555 6.9947 16.0205 6.7067 16.4295 6.7197ZM11.3903 0C12.3083 0 13.1153 0.619 13.3523 1.506L13.6063 2.767C13.6884 3.18037 14.0512 3.48226 14.4712 3.48889L17.7529 3.489C18.1669 3.489 18.5029 3.825 18.5029 4.239C18.5029 4.653 18.1669 4.989 17.7529 4.989L14.5005 4.98885C14.4955 4.98895 14.4904 4.989 14.4853 4.989L14.4609 4.988L4.08654 4.98888C4.07848 4.98896 4.0704 4.989 4.06232 4.989L4.04692 4.988L0.794922 4.989C0.380922 4.989 0.0449219 4.653 0.0449219 4.239C0.0449219 3.825 0.380922 3.489 0.794922 3.489L4.07592 3.488L4.17694 3.48161C4.55323 3.43279 4.86596 3.147 4.94232 2.767L5.18532 1.551C5.43232 0.619 6.23932 0 7.15732 0H11.3903ZM11.3903 1.5H7.15732C6.91732 1.5 6.70632 1.661 6.64532 1.892L6.41232 3.062C6.38271 3.2102 6.33959 3.35301 6.28441 3.48927H12.2635C12.2083 3.35301 12.1651 3.2102 12.1353 3.062L11.8923 1.846C11.8413 1.661 11.6303 1.5 11.3903 1.5Z" fill="#EA5962"/>
</svg>
