<svg width="20" height="19" viewBox="0 0 20 19" fill="none" xmlns="http://www.w3.org/2000/svg">
<path fill-rule="evenodd" clip-rule="evenodd" d="M18.8989 17.4395C19.3129 17.4395 19.6489 17.7755 19.6489 18.1895C19.6489 18.6035 19.3129 18.9395 18.8989 18.9395H11.6459C11.2319 18.9395 10.8959 18.6035 10.8959 18.1895C10.8959 17.7755 11.2319 17.4395 11.6459 17.4395H18.8989ZM14.2647 0.653643C14.3147 0.692643 15.9877 1.99264 15.9877 1.99264C16.5957 2.35464 17.0707 3.00164 17.2507 3.76764C17.4297 4.52564 17.2997 5.30764 16.8827 5.96864C16.8799 5.97305 16.8772 5.97741 16.8675 5.99037L16.86 6.00038C16.7923 6.08958 16.498 6.46163 15.013 8.32223C14.9992 8.34662 14.9836 8.36945 14.9665 8.39164C14.9415 8.42435 14.9142 8.45442 14.8851 8.4818C14.7838 8.60934 14.6768 8.74335 14.5644 8.88424L14.3364 9.1697C13.8661 9.75868 13.3083 10.4571 12.6465 11.2855L12.3069 11.7106C11.0292 13.3097 9.39287 15.3572 7.29671 17.9796C6.83771 18.5516 6.14971 18.8846 5.41071 18.8936L1.77171 18.9396H1.76171C1.41471 18.9396 1.11271 18.7016 1.03171 18.3626L0.212712 14.8916C0.0437118 14.1726 0.211712 13.4306 0.672712 12.8546L10.0927 1.07264C10.0967 1.06864 10.0997 1.06364 10.1037 1.05964C11.1367 -0.175357 13.0047 -0.357357 14.2647 0.653643ZM9.04244 4.787L1.84371 13.7916C1.67271 14.0056 1.60971 14.2816 1.67271 14.5466L2.35371 17.4316L5.39271 17.3936C5.68171 17.3906 5.94871 17.2616 6.12571 17.0416C7.0372 15.9012 8.18277 14.4679 9.36057 12.994L9.77727 12.4726L10.1947 11.9502C11.2993 10.5679 12.3905 9.20207 13.3036 8.05886L9.04244 4.787ZM11.2587 2.01664L9.97944 3.615L14.2402 6.88593C15.0603 5.8587 15.5998 5.18214 15.6497 5.11764C15.8137 4.85164 15.8777 4.47564 15.7917 4.11364C15.7037 3.74264 15.4727 3.42764 15.1397 3.22664C15.0687 3.17764 13.3837 1.86964 13.3317 1.82864C12.6977 1.32064 11.7727 1.40864 11.2587 2.01664Z" fill="#7F7E83"/>
</svg>
