<svg width="18" height="17" viewBox="0 0 18 17" fill="none" xmlns="http://www.w3.org/2000/svg">
<path fill-rule="evenodd" clip-rule="evenodd" d="M9.45296 1.02023C10.808 0.163562 12.608 -0.0731047 14.163 0.425229C17.5455 1.51606 18.5955 5.20356 17.6563 8.13773C16.2071 12.7461 10.018 16.1836 9.75546 16.3277C9.66213 16.3794 9.55879 16.4052 9.45546 16.4052C9.35213 16.4052 9.24963 16.3802 9.15629 16.3294C8.89546 16.1869 2.75129 12.8002 1.25379 8.13856C1.25296 8.13856 1.25296 8.13773 1.25296 8.13773C0.312959 5.20273 1.35963 1.5144 4.73879 0.425229C6.32546 -0.0881047 8.05463 0.137729 9.45296 1.02023ZM5.12213 1.61523C2.38796 2.4969 1.70129 5.43773 2.44379 7.7569C3.61213 11.3919 8.22796 14.3311 9.45463 15.0586C10.6855 14.3236 15.3346 11.3519 16.4655 7.76023C17.208 5.43856 16.5188 2.49773 13.7805 1.61523C12.4538 1.1894 10.9063 1.44856 9.83796 2.27523C9.61463 2.4469 9.30463 2.45023 9.07963 2.28023C7.94796 1.4294 6.46963 1.18023 5.12213 1.61523ZM12.9805 3.27015C14.1163 3.63765 14.9121 4.64348 15.0096 5.83265C15.0371 6.17681 14.7813 6.47848 14.4371 6.50598C14.4196 6.50765 14.403 6.50848 14.3855 6.50848C14.063 6.50848 13.7896 6.26098 13.763 5.93431C13.708 5.24931 13.2496 4.67098 12.5971 4.46015C12.268 4.35348 12.088 4.00098 12.1938 3.67348C12.3013 3.34515 12.6505 3.16681 12.9805 3.27015Z" fill="#343434"/>
</svg>
