<svg width="21" height="20" viewBox="0 0 21 20" fill="none" xmlns="http://www.w3.org/2000/svg">
<g clip-path="url(#clip0_59_15601)">
<path d="M12.3519 7.79613C12.115 7.55781 11.8523 7.34656 11.5687 7.16624C10.8176 6.68527 9.94438 6.4297 9.05247 6.4297C7.81453 6.42739 6.62689 6.91926 5.75306 7.79613L1.51382 12.0387C0.641475 12.9127 0.151173 14.0969 0.150392 15.3318C0.148751 17.9086 2.23635 19.9989 4.81323 20.0006C6.04926 20.0049 7.2358 19.5153 8.10932 18.6408L11.6087 15.1414C11.6723 15.0784 11.7078 14.9924 11.7073 14.9029C11.7062 14.7188 11.5561 14.5705 11.3721 14.5715H11.2388C10.5076 14.5741 9.78304 14.4337 9.10582 14.1583C8.98104 14.1069 8.83762 14.1359 8.74256 14.2316L6.22633 16.7511C5.44499 17.5325 4.17818 17.5325 3.39684 16.7511C2.6155 15.9698 2.6155 14.703 3.39684 13.9217L7.65276 9.66911C8.43348 8.88937 9.69821 8.88937 10.4789 9.66911C11.0051 10.1643 11.8258 10.1643 12.3519 9.66911C12.5783 9.44255 12.7155 9.14206 12.7385 8.82258C12.7629 8.44082 12.6221 8.06694 12.3519 7.79613Z" fill="#E74779"/>
<path d="M18.7806 1.36666C16.9584 -0.455553 14.004 -0.455553 12.1818 1.36666L8.68571 4.85935C8.58971 4.95582 8.56202 5.10091 8.61572 5.22597C8.6688 5.35138 8.79284 5.43187 8.92899 5.42925H9.05228C9.78254 5.42792 10.506 5.56942 11.1819 5.84586C11.3067 5.89721 11.4501 5.86824 11.5452 5.77255L14.0547 3.26632C14.836 2.48497 16.1028 2.48497 16.8842 3.26632C17.6655 4.04766 17.6655 5.31447 16.8842 6.09581L13.7581 9.21857L13.7314 9.24857L12.6383 10.3351C11.8576 11.1148 10.5928 11.1148 9.81211 10.3351C9.28595 9.83987 8.46524 9.83987 7.93913 10.3351C7.71132 10.5633 7.57396 10.8664 7.55252 11.1882C7.52815 11.57 7.66894 11.9439 7.93913 12.2147C8.32488 12.6021 8.7762 12.918 9.27221 13.1479C9.34219 13.1812 9.41218 13.2079 9.48217 13.2379C9.55215 13.2678 9.62546 13.2912 9.69545 13.3178C9.76544 13.3445 9.83874 13.3678 9.90873 13.3878L10.1054 13.4411C10.2387 13.4745 10.372 13.5011 10.5086 13.5244C10.6732 13.5489 10.839 13.5645 11.0052 13.5711H11.2385H11.2585L11.4585 13.5478C11.5318 13.5445 11.6084 13.5278 11.6951 13.5278H11.8084L12.0383 13.4945L12.145 13.4745L12.3383 13.4345H12.375C13.1936 13.2289 13.9411 12.805 14.5379 12.208L18.7804 7.96548C20.6028 6.14326 20.6028 3.18887 18.7806 1.36666Z" fill="#E74779"/>
</g>
<defs>
<clipPath id="clip0_59_15601">
<rect width="20" height="20" fill="white" transform="translate(0.148438)"/>
</clipPath>
</defs>
</svg>
