<svg width="20" height="20" viewBox="0 0 20 20" fill="none" xmlns="http://www.w3.org/2000/svg">
<path d="M10.1504 19.4983C9.90407 19.4983 9.66786 19.4005 9.49369 19.2263C9.31952 19.0522 9.22168 18.8159 9.22168 18.5696V1.40722C9.22168 1.16091 9.31952 0.924692 9.49369 0.750526C9.66786 0.576361 9.90407 0.478516 10.1504 0.478516C10.3967 0.478516 10.6329 0.576361 10.8071 0.750526C10.9812 0.924692 11.0791 1.16091 11.0791 1.40722V18.5696C11.0791 18.8159 10.9812 19.0522 10.8071 19.2263C10.6329 19.4005 10.3967 19.4983 10.1504 19.4983Z" fill="#E74779"/>
<path d="M18.7308 10.918H1.56835C1.32204 10.918 1.08582 10.8201 0.911659 10.6459C0.737494 10.4718 0.639648 10.2356 0.639648 9.98925C0.639648 9.74294 0.737494 9.50672 0.911659 9.33256C1.08582 9.15839 1.32204 9.06055 1.56835 9.06055H18.7308C18.9771 9.06055 19.2133 9.15839 19.3875 9.33256C19.5616 9.50672 19.6595 9.74294 19.6595 9.98925C19.6595 10.2356 19.5616 10.4718 19.3875 10.6459C19.2133 10.8201 18.9771 10.918 18.7308 10.918Z" fill="#E74779"/>
</svg>
