<svg width="17" height="17" viewBox="0 0 17 17" fill="none" xmlns="http://www.w3.org/2000/svg">
<path d="M8.24968 1.36719C4.57368 1.36719 1.58301 4.35786 1.58301 8.03386C1.58301 11.7099 4.57368 14.7005 8.24968 14.7005C11.9257 14.7005 14.9163 11.7099 14.9163 8.03386C14.9163 4.35786 11.9257 1.36719 8.24968 1.36719ZM8.24968 13.3672C5.30901 13.3672 2.91634 10.9745 2.91634 8.03386C2.91634 5.09319 5.30901 2.70052 8.24968 2.70052C11.1903 2.70052 13.583 5.09319 13.583 8.03386C13.583 10.9745 11.1903 13.3672 8.24968 13.3672Z" fill="#E74779"/>
<path d="M8.25 4.70117C7.14733 4.70117 6.25 5.5985 6.25 6.70116C6.25 7.06916 6.54867 7.36783 6.91667 7.36783C7.28467 7.36783 7.58333 7.06916 7.58333 6.70116C7.58333 6.33383 7.88267 6.0345 8.25 6.0345C8.61733 6.0345 8.91667 6.33383 8.91667 6.70116C8.91667 6.97916 8.83467 7.05716 8.452 7.2985C8.18133 7.46916 7.84533 7.68116 7.652 8.07316C7.51533 8.35049 7.56067 8.67849 7.6 8.84982C7.66933 9.15449 7.93533 9.34382 8.234 9.34382C8.28733 9.34382 8.34133 9.33782 8.39533 9.32582C8.722 9.25116 8.934 8.92716 8.90867 8.59982C8.976 8.54449 9.08333 8.47716 9.16267 8.42716C9.56933 8.17049 10.25 7.74116 10.25 6.70116C10.25 5.5985 9.35267 4.70117 8.25 4.70117Z" fill="#E74779"/>
<path d="M8.24967 11.3665C8.61786 11.3665 8.91634 11.068 8.91634 10.6999C8.91634 10.3317 8.61786 10.0332 8.24967 10.0332C7.88148 10.0332 7.58301 10.3317 7.58301 10.6999C7.58301 11.068 7.88148 11.3665 8.24967 11.3665Z" fill="#E74779"/>
</svg>
