<svg width="10" height="7" viewBox="0 0 10 7" fill="none" xmlns="http://www.w3.org/2000/svg">
<path d="M5.25946 4.52812L1.76773 1.13194C1.67182 1.03842 1.54358 0.98698 1.40684 0.98698C1.27003 0.98698 1.14187 1.03842 1.0458 1.13194L0.740002 1.42953C0.643785 1.5229 0.59082 1.6477 0.59082 1.78071C0.59082 1.91371 0.643785 2.03837 0.740002 2.13181L4.89721 6.1755C4.99357 6.26931 5.12234 6.32068 5.25923 6.32031C5.39673 6.32068 5.52535 6.26938 5.62179 6.1755L9.77497 2.13557C9.87119 2.04213 9.92415 1.91747 9.92415 1.7844C9.92415 1.65139 9.87119 1.52673 9.77497 1.43322L9.46917 1.1357C9.27014 0.942105 8.94613 0.942105 8.74717 1.1357L5.25946 4.52812Z" fill="#EA5962"/>
</svg>
