<svg width="8" height="14" viewBox="0 0 8 14" fill="none" xmlns="http://www.w3.org/2000/svg">
<path d="M5.31171 7.00296L0.217436 1.76537C0.0771651 1.6215 0 1.42914 0 1.22403C0 1.01881 0.0771651 0.826569 0.217436 0.682472L0.663824 0.223772C0.803874 0.0794472 0.991087 0 1.19059 0C1.39009 0 1.57708 0.0794472 1.71724 0.223772L7.78278 6.45958C7.9235 6.60413 8.00055 6.79728 8 7.00262C8.00055 7.20886 7.92361 7.40179 7.78278 7.54646L1.72289 13.7762C1.58273 13.9206 1.39574 14 1.19612 14C0.996623 14 0.809631 13.9206 0.66936 13.7762L0.223083 13.3175C-0.0673122 13.019 -0.0673122 12.533 0.223083 12.2345L5.31171 7.00296Z" fill="#EA5962"/>
</svg>
