<svg width="24" height="25" viewBox="0 0 24 25" fill="none" xmlns="http://www.w3.org/2000/svg">
<path fill-rule="evenodd" clip-rule="evenodd" d="M4 10.6543C5.10456 10.6543 5.99999 11.5497 5.99999 12.6543C5.99999 13.7589 5.10456 14.6543 4 14.6543C2.89543 14.6543 2 13.7589 2 12.6543C2 11.5497 2.89543 10.6543 4 10.6543ZM12.001 10.6543C13.1055 10.6543 14.001 11.5497 14.001 12.6543C14.001 13.7589 13.1055 14.6543 12.001 14.6543C10.8964 14.6543 10.001 13.7589 10.001 12.6543C10.001 11.5497 10.8964 10.6543 12.001 10.6543ZM22.0005 12.6543C22.0005 11.5497 21.1051 10.6543 20.0005 10.6543C18.8959 10.6543 18.0005 11.5497 18.0005 12.6543C18.0005 13.7589 18.8959 14.6543 20.0005 14.6543C21.1051 14.6543 22.0005 13.7589 22.0005 12.6543Z" fill="#323234"/>
</svg>
