<svg width="33" height="33" viewBox="0 0 33 33" fill="none" xmlns="http://www.w3.org/2000/svg">
<g clip-path="url(#clip0_59_15859)">
<path d="M24.1038 31.6932C23.8519 31.6932 23.5945 31.6612 23.3397 31.5945L2.7205 26.0729C1.12989 25.6342 0.181865 23.9889 0.597891 22.3995L2.86455 13.7074C3.00322 13.1739 3.54865 12.8499 4.08455 12.9927C4.61801 13.1314 4.93931 13.6781 4.79941 14.2127L2.53251 22.9063C2.39261 23.4422 2.71122 23.9955 3.24468 24.1422L23.8519 29.6611C24.3812 29.801 24.9278 29.4863 25.0665 28.9597L25.7704 26.1195C25.9039 25.5836 26.4452 25.2582 26.9811 25.389C27.5173 25.5223 27.8439 26.0636 27.7118 26.5995L27.0053 29.4531C26.6491 30.8037 25.4332 31.6932 24.1038 31.6932Z" fill="#E74779"/>
<path d="M29.5003 23.6934H8.83308C7.1785 23.6934 5.83301 22.3479 5.83301 20.6933V5.35945C5.83301 3.70487 7.1785 2.35938 8.83308 2.35938H29.5003C31.1549 2.35938 32.5004 3.70487 32.5004 5.35945V20.6933C32.5004 22.3479 31.1549 23.6934 29.5003 23.6934ZM8.83308 4.35942C8.28107 4.35942 7.83306 4.80743 7.83306 5.35945V20.6933C7.83306 21.2453 8.28107 21.6933 8.83308 21.6933H29.5003C30.0524 21.6933 30.5004 21.2453 30.5004 20.6933V5.35945C30.5004 4.80743 30.0524 4.35942 29.5003 4.35942H8.83308Z" fill="#E74779"/>
<path d="M12.4998 11.693C11.0291 11.693 9.83301 10.4969 9.83301 9.02619C9.83301 7.55545 11.0291 6.35938 12.4998 6.35938C13.9706 6.35938 15.1664 7.55545 15.1664 9.02619C15.1664 10.4969 13.9706 11.693 12.4998 11.693ZM12.4998 8.35942C12.1316 8.35942 11.8331 8.65826 11.8331 9.02619C11.8331 9.39412 12.1316 9.69295 12.4998 9.69295C12.8677 9.69295 13.1663 9.39412 13.1663 9.02619C13.1663 8.65826 12.8677 8.35942 12.4998 8.35942Z" fill="#E74779"/>
<path d="M6.85891 22.3316C6.60305 22.3316 6.34694 22.2342 6.15235 22.0384C5.76172 21.6477 5.76172 21.0142 6.15235 20.6235L12.1791 14.5968C13.0912 13.6847 14.5752 13.6847 15.4858 14.5968L17.0979 16.2089L22.0499 10.2647C22.4926 9.73388 23.142 9.42723 23.8315 9.42333C24.5727 9.38207 25.1728 9.71923 25.6194 10.2434L32.257 17.9875C32.6169 18.4062 32.5675 19.0383 32.1488 19.3982C31.7289 19.7583 31.0983 19.709 30.7381 19.2903L24.0981 11.5435C24.01 11.438 23.902 11.4434 23.842 11.4246C23.7849 11.4246 23.674 11.4419 23.5861 11.5459L17.9327 18.333C17.7525 18.5488 17.49 18.6796 17.21 18.6916C16.9246 18.7075 16.6553 18.5981 16.4578 18.3996L14.0712 16.0128C13.9018 15.8434 13.7619 15.8434 13.5925 16.0128L7.56571 22.0384C7.37089 22.2342 7.11502 22.3316 6.85891 22.3316Z" fill="#E74779"/>
</g>
<defs>
<clipPath id="clip0_59_15859">
<rect width="32" height="32" fill="white" transform="translate(0.5 0.984375)"/>
</clipPath>
</defs>
</svg>
