<svg width="24" height="24" viewBox="0 0 24 24" fill="none" xmlns="http://www.w3.org/2000/svg">
<path d="M20.1995 5.24994C19.2526 4.1857 17.9388 3.59961 16.5004 3.59961C14.4773 3.59961 13.1965 4.7963 12.4783 5.80023C12.292 6.06073 12.1335 6.32195 12.0004 6.56775C11.8673 6.32195 11.7088 6.06073 11.5225 5.80023C10.8043 4.7963 9.52344 3.59961 7.50039 3.59961C6.06197 3.59961 4.74823 4.18573 3.8012 5.24998C2.8979 6.2652 2.40039 7.62486 2.40039 9.07849C2.40039 10.6608 3.02413 12.1325 4.36333 13.71C5.56022 15.1199 7.2821 16.5731 9.27602 18.256C10.019 18.8831 10.7873 19.5315 11.6053 20.2404L11.6299 20.2617C11.7359 20.3537 11.8682 20.3996 12.0004 20.3996C12.1326 20.3996 12.2648 20.3536 12.3709 20.2617L12.3955 20.2404C13.2134 19.5315 13.9818 18.8831 14.7249 18.2559C16.7187 16.5732 18.4406 15.1199 19.6375 13.71C20.9767 12.1325 21.6004 10.6608 21.6004 9.07849C21.6004 7.62486 21.1029 6.2652 20.1995 5.24994ZM13.9951 17.4079C13.3546 17.9484 12.6955 18.5048 12.0004 19.1032C11.3054 18.5049 10.6462 17.9485 10.0055 17.4078C6.10333 14.1144 3.52539 11.9386 3.52539 9.07849C3.52539 7.89629 3.92308 6.79825 4.64522 5.98667C5.37564 5.16589 6.3896 4.71385 7.50039 4.71385C9.04273 4.71385 10.0397 5.65493 10.6045 6.4444C11.1111 7.15246 11.3754 7.86624 11.4656 8.14023C11.541 8.36958 11.7569 8.52479 12.0004 8.52479C12.2439 8.52479 12.4598 8.36958 12.5352 8.14023C12.6254 7.86624 12.8897 7.15246 13.3963 6.44437C13.961 5.65493 14.9581 4.71385 16.5004 4.71385C17.6112 4.71385 18.6251 5.16589 19.3555 5.98667C20.0777 6.79825 20.4754 7.89629 20.4754 9.07849C20.4754 11.9386 17.8975 14.1144 13.9951 17.4079Z" fill="#E74779"/>
</svg>
