<svg width="28" height="28" viewBox="0 0 28 28" fill="none" xmlns="http://www.w3.org/2000/svg">
<path d="M16.7418 3.5C17.8735 3.51165 18.7952 4.09434 19.3318 5.14317C19.4704 5.41995 19.6636 5.82419 19.8659 6.25062L20.1102 6.76625L20.2302 7.01942L20.3468 7.2758C20.3935 7.35738 20.4752 7.41565 20.5802 7.41565C23.3802 7.41565 25.6668 9.69978 25.6668 12.4967V19.419C25.6668 22.2159 23.3802 24.5 20.5802 24.5H7.42016C4.6085 24.5 2.3335 22.2159 2.3335 19.419V12.4967C2.3335 9.69978 4.6085 7.41565 7.42016 7.41565C7.5135 7.41565 7.60683 7.36903 7.64183 7.2758L7.71183 7.13596C8.0385 6.44839 8.43516 5.60932 8.6685 5.14317C9.20516 4.09434 10.1152 3.51165 11.2468 3.5H16.7418ZM14.0002 10.97C12.7752 10.97 11.6202 11.4478 10.7452 12.3219C9.88183 13.1959 9.4035 14.338 9.41516 15.5499C9.41516 16.7736 9.8935 17.9156 10.7568 18.7897C11.6318 19.6521 12.7752 20.1299 14.0002 20.1299C15.2602 20.1299 16.4035 19.6171 17.2318 18.7897C18.0602 17.9623 18.5735 16.8202 18.5852 15.5499C18.5852 14.338 18.1068 13.1842 17.2435 12.3102C16.3802 11.4478 15.2252 10.97 14.0002 10.97ZM14.0002 12.7181C14.7585 12.7181 15.4702 13.0094 16.0068 13.5455C16.5435 14.0816 16.8352 14.7925 16.8352 15.5499C16.8235 17.1115 15.5635 18.3818 14.0002 18.3818C13.2418 18.3818 12.5302 18.0905 11.9935 17.5544C11.4568 17.0183 11.1652 16.3074 11.1652 15.5499V15.5383C11.1535 14.8041 11.4452 14.0932 11.9818 13.5572C12.5302 13.0094 13.2418 12.7181 14.0002 12.7181ZM20.5452 10.6903C19.9618 10.6903 19.4952 11.1681 19.4952 11.7508C19.4952 12.3335 19.9618 12.7997 20.5452 12.7997C21.1285 12.7997 21.6068 12.3335 21.6068 11.7508C21.6068 11.1681 21.1285 10.6903 20.5452 10.6903Z" fill="white"/>
<path d="M27.7526 7.63994L25.7761 7.19135C25.5204 7.12359 25.2912 6.99147 25.1151 6.81036C24.939 6.62925 24.8233 6.40658 24.7813 6.16824L24.347 4.27548C24.3308 4.19802 24.2852 4.12811 24.2182 4.07782C24.1512 4.02752 24.0669 4 23.9799 4C23.8929 4 23.8086 4.02752 23.7416 4.07782C23.6745 4.12811 23.629 4.19802 23.6128 4.27548L23.2566 6.02264C23.2104 6.30376 23.078 6.56749 22.8745 6.78383C22.671 7.00017 22.4045 7.16045 22.1055 7.24644L20.2984 7.6793C20.2129 7.69957 20.1373 7.74494 20.0833 7.80831C20.0293 7.87167 20 7.94947 20 8.02951C20 8.10956 20.0293 8.18736 20.0833 8.25072C20.1373 8.31409 20.2129 8.35946 20.2984 8.37973L22.1185 8.77324C22.4184 8.85443 22.687 9.0104 22.8936 9.22333C23.1002 9.43626 23.2366 9.69756 23.287 9.97736L23.6693 11.7245C23.6855 11.802 23.731 11.8719 23.798 11.9222C23.865 11.9725 23.9493 12 24.0364 12C24.1234 12 24.2077 11.9725 24.2747 11.9222C24.3417 11.8719 24.3872 11.802 24.4034 11.7245L24.79 9.82389C24.8274 9.58564 24.9387 9.3619 25.111 9.17869C25.2832 8.99548 25.5094 8.86034 25.7631 8.78897L27.7178 8.3207C27.7965 8.29878 27.8658 8.25539 27.9162 8.19644C27.9667 8.1375 27.9958 8.06589 27.9996 7.9914C28.0034 7.91691 27.9817 7.84317 27.9375 7.78026C27.8933 7.71735 27.8287 7.66835 27.7526 7.63994Z" fill="#FABC23"/>
</svg>
