<svg width="102" height="59" viewBox="0 0 102 59" fill="none" xmlns="http://www.w3.org/2000/svg">
<g filter="url(#filter0_d_59_7741)">
<path d="M88.6372 25.3238C88.6372 22.0446 91.0384 19.386 94 19.386V9.93682C91.0384 9.93682 88.6372 7.2789 88.6372 3.99907H13.3628C13.3628 7.2789 10.9618 9.93682 8 9.93682V19.386C10.9618 19.386 13.3628 22.0446 13.3628 25.3238C13.3628 28.6029 10.9618 31.2615 8 31.2615V40.7107C10.9618 40.7107 13.3628 43.3693 13.3628 46.6484H88.6372C88.6372 43.3693 91.0384 40.7107 94 40.7107V31.2615C91.0384 31.2615 88.6372 28.6029 88.6372 25.3238Z" fill="white"/>
</g>
<path d="M12.819 4H88.8485C88.8485 4 89.1417 5.32343 89.2364 5.75115C89.4405 6.67301 89.4405 6.62673 89.4405 6.62673H12.3784C12.3784 6.62673 12.7342 5.84739 12.819 5.31337C12.8996 4.80674 12.819 4 12.819 4Z" fill="url(#paint0_linear_59_7741)"/>
<path d="M16.6952 37V28.6H20.2352C21.1312 28.6 21.9192 28.776 22.5992 29.128C23.2872 29.48 23.8192 29.972 24.1952 30.604C24.5792 31.236 24.7712 31.968 24.7712 32.8C24.7712 33.632 24.5792 34.364 24.1952 34.996C23.8192 35.628 23.2872 36.12 22.5992 36.472C21.9192 36.824 21.1312 37 20.2352 37H16.6952ZM17.8952 35.956H20.1632C20.8592 35.956 21.4592 35.824 21.9632 35.56C22.4752 35.296 22.8712 34.928 23.1512 34.456C23.4312 33.976 23.5712 33.424 23.5712 32.8C23.5712 32.168 23.4312 31.616 23.1512 31.144C22.8712 30.672 22.4752 30.304 21.9632 30.04C21.4592 29.776 20.8592 29.644 20.1632 29.644H17.8952V35.956ZM27.2092 37V28.6H28.4092V37H27.2092ZM33.9721 37.096C33.3321 37.096 32.7201 37 32.1361 36.808C31.5521 36.608 31.0921 36.352 30.7561 36.04L31.2001 35.104C31.5201 35.384 31.9281 35.616 32.4241 35.8C32.9201 35.984 33.4361 36.076 33.9721 36.076C34.4601 36.076 34.8561 36.02 35.1601 35.908C35.4641 35.796 35.6881 35.644 35.8321 35.452C35.9761 35.252 36.0481 35.028 36.0481 34.78C36.0481 34.492 35.9521 34.26 35.7601 34.084C35.5761 33.908 35.3321 33.768 35.0281 33.664C34.7321 33.552 34.4041 33.456 34.0441 33.376C33.6841 33.296 33.3201 33.204 32.9521 33.1C32.5921 32.988 32.2601 32.848 31.9561 32.68C31.6601 32.512 31.4201 32.288 31.2361 32.008C31.0521 31.72 30.9601 31.352 30.9601 30.904C30.9601 30.472 31.0721 30.076 31.2961 29.716C31.5281 29.348 31.8801 29.056 32.3521 28.84C32.8321 28.616 33.4401 28.504 34.1761 28.504C34.6641 28.504 35.1481 28.568 35.6281 28.696C36.1081 28.824 36.5241 29.008 36.8761 29.248L36.4801 30.208C36.1201 29.968 35.7401 29.796 35.3401 29.692C34.9401 29.58 34.5521 29.524 34.1761 29.524C33.7041 29.524 33.3161 29.584 33.0121 29.704C32.7081 29.824 32.4841 29.984 32.3401 30.184C32.2041 30.384 32.1361 30.608 32.1361 30.856C32.1361 31.152 32.2281 31.388 32.4121 31.564C32.6041 31.74 32.8481 31.88 33.1441 31.984C33.4481 32.088 33.7801 32.184 34.1401 32.272C34.5001 32.352 34.8601 32.444 35.2201 32.548C35.5881 32.652 35.9201 32.788 36.2161 32.956C36.5201 33.124 36.7641 33.348 36.9481 33.628C37.1321 33.908 37.2241 34.268 37.2241 34.708C37.2241 35.132 37.1081 35.528 36.8761 35.896C36.6441 36.256 36.2841 36.548 35.7961 36.772C35.3161 36.988 34.7081 37.096 33.9721 37.096ZM43.3332 37.096C42.6932 37.096 42.1012 36.992 41.5572 36.784C41.0212 36.568 40.5532 36.268 40.1532 35.884C39.7612 35.492 39.4532 35.036 39.2292 34.516C39.0052 33.996 38.8932 33.424 38.8932 32.8C38.8932 32.176 39.0052 31.604 39.2292 31.084C39.4532 30.564 39.7652 30.112 40.1652 29.728C40.5652 29.336 41.0332 29.036 41.5692 28.828C42.1132 28.612 42.7052 28.504 43.3452 28.504C43.9932 28.504 44.5892 28.616 45.1332 28.84C45.6852 29.056 46.1532 29.38 46.5372 29.812L45.7572 30.568C45.4372 30.232 45.0772 29.984 44.6772 29.824C44.2772 29.656 43.8492 29.572 43.3932 29.572C42.9212 29.572 42.4812 29.652 42.0732 29.812C41.6732 29.972 41.3252 30.196 41.0292 30.484C40.7332 30.772 40.5012 31.116 40.3332 31.516C40.1732 31.908 40.0932 32.336 40.0932 32.8C40.0932 33.264 40.1732 33.696 40.3332 34.096C40.5012 34.488 40.7332 34.828 41.0292 35.116C41.3252 35.404 41.6732 35.628 42.0732 35.788C42.4812 35.948 42.9212 36.028 43.3932 36.028C43.8492 36.028 44.2772 35.948 44.6772 35.788C45.0772 35.62 45.4372 35.364 45.7572 35.02L46.5372 35.776C46.1532 36.208 45.6852 36.536 45.1332 36.76C44.5892 36.984 43.9892 37.096 43.3332 37.096ZM52.4653 37.096C51.8253 37.096 51.2293 36.988 50.6773 36.772C50.1333 36.556 49.6613 36.256 49.2613 35.872C48.8613 35.48 48.5493 35.024 48.3253 34.504C48.1013 33.984 47.9893 33.416 47.9893 32.8C47.9893 32.184 48.1013 31.616 48.3253 31.096C48.5493 30.576 48.8613 30.124 49.2613 29.74C49.6613 29.348 50.1333 29.044 50.6773 28.828C51.2213 28.612 51.8173 28.504 52.4653 28.504C53.1053 28.504 53.6933 28.612 54.2293 28.828C54.7733 29.036 55.2453 29.336 55.6453 29.728C56.0533 30.112 56.3653 30.564 56.5813 31.084C56.8053 31.604 56.9173 32.176 56.9173 32.8C56.9173 33.424 56.8053 33.996 56.5813 34.516C56.3653 35.036 56.0533 35.492 55.6453 35.884C55.2453 36.268 54.7733 36.568 54.2293 36.784C53.6933 36.992 53.1053 37.096 52.4653 37.096ZM52.4653 36.028C52.9293 36.028 53.3573 35.948 53.7493 35.788C54.1493 35.628 54.4933 35.404 54.7813 35.116C55.0773 34.82 55.3053 34.476 55.4653 34.084C55.6333 33.692 55.7173 33.264 55.7173 32.8C55.7173 32.336 55.6333 31.908 55.4653 31.516C55.3053 31.124 55.0773 30.784 54.7813 30.496C54.4933 30.2 54.1493 29.972 53.7493 29.812C53.3573 29.652 52.9293 29.572 52.4653 29.572C51.9933 29.572 51.5573 29.652 51.1573 29.812C50.7653 29.972 50.4213 30.2 50.1253 30.496C49.8293 30.784 49.5973 31.124 49.4293 31.516C49.2693 31.908 49.1893 32.336 49.1893 32.8C49.1893 33.264 49.2693 33.692 49.4293 34.084C49.5973 34.476 49.8293 34.82 50.1253 35.116C50.4213 35.404 50.7653 35.628 51.1573 35.788C51.5573 35.948 51.9933 36.028 52.4653 36.028ZM62.8314 37.096C61.7274 37.096 60.8594 36.78 60.2274 36.148C59.5954 35.516 59.2794 34.592 59.2794 33.376V28.6H60.4794V33.328C60.4794 34.264 60.6834 34.948 61.0914 35.38C61.5074 35.812 62.0914 36.028 62.8434 36.028C63.6034 36.028 64.1874 35.812 64.5954 35.38C65.0114 34.948 65.2194 34.264 65.2194 33.328V28.6H66.3834V33.376C66.3834 34.592 66.0674 35.516 65.4354 36.148C64.8114 36.78 63.9434 37.096 62.8314 37.096ZM69.4436 37V28.6H70.4276L75.9836 35.5H75.4676V28.6H76.6676V37H75.6836L70.1276 30.1H70.6436V37H69.4436ZM81.4499 37V29.644H78.5699V28.6H85.5179V29.644H82.6379V37H81.4499Z" fill="#323234"/>
<defs>
<filter id="filter0_d_59_7741" x="0" y="0" width="102" height="58.6484" filterUnits="userSpaceOnUse" color-interpolation-filters="sRGB">
<feFlood flood-opacity="0" result="BackgroundImageFix"/>
<feColorMatrix in="SourceAlpha" type="matrix" values="0 0 0 0 0 0 0 0 0 0 0 0 0 0 0 0 0 0 127 0" result="hardAlpha"/>
<feOffset dy="4"/>
<feGaussianBlur stdDeviation="4"/>
<feComposite in2="hardAlpha" operator="out"/>
<feColorMatrix type="matrix" values="0 0 0 0 0.0130167 0 0 0 0 0.0116493 0 0 0 0 0.0800174 0 0 0 0.07 0"/>
<feBlend mode="normal" in2="BackgroundImageFix" result="effect1_dropShadow_59_7741"/>
<feBlend mode="normal" in="SourceGraphic" in2="effect1_dropShadow_59_7741" result="shape"/>
</filter>
<linearGradient id="paint0_linear_59_7741" x1="12.3784" y1="4" x2="90.3162" y2="5.75141" gradientUnits="userSpaceOnUse">
<stop stop-color="#E74779"/>
<stop offset="0.432292" stop-color="#F44F83"/>
<stop offset="1" stop-color="#F7DEE6"/>
</linearGradient>
</defs>
</svg>
