<svg width="16" height="16" viewBox="0 0 16 16" fill="none" xmlns="http://www.w3.org/2000/svg">
<path d="M13.0903 13.5902C13.2229 13.5902 13.3501 13.5375 13.4439 13.4437C13.5377 13.3499 13.5903 13.2228 13.5903 13.0902V11.5352C13.9953 11.4266 14.3532 11.1874 14.6084 10.8547C14.8636 10.522 15.0019 10.1145 15.0019 9.69516C15.0019 9.27586 14.8636 8.86828 14.6084 8.5356C14.3532 8.20293 13.9953 7.96375 13.5903 7.85516V2.91016C13.5903 2.77755 13.5377 2.65037 13.4439 2.5566C13.3501 2.46283 13.2229 2.41016 13.0903 2.41016C12.9577 2.41016 12.8305 2.46283 12.7368 2.5566C12.643 2.65037 12.5903 2.77755 12.5903 2.91016V7.86016C12.1853 7.96875 11.8275 8.20793 11.5723 8.5406C11.317 8.87328 11.1787 9.28086 11.1787 9.70016C11.1787 10.1195 11.317 10.527 11.5723 10.8597C11.8275 11.1924 12.1853 11.4316 12.5903 11.5402V13.0952C12.5916 13.2269 12.6449 13.3528 12.7385 13.4455C12.8322 13.5382 12.9586 13.5902 13.0903 13.5902ZM12.1753 9.69516C12.1753 9.51419 12.229 9.33728 12.3295 9.18681C12.4301 9.03634 12.573 8.91906 12.7402 8.84981C12.9074 8.78055 13.0913 8.76243 13.2688 8.79774C13.4463 8.83304 13.6094 8.92019 13.7373 9.04815C13.8653 9.17612 13.9524 9.33916 13.9877 9.51665C14.0231 9.69414 14.0049 9.87812 13.9357 10.0453C13.8664 10.2125 13.7491 10.3554 13.5987 10.456C13.4482 10.5565 13.2713 10.6102 13.0903 10.6102C12.8477 10.6102 12.6149 10.5138 12.4433 10.3422C12.2717 10.1706 12.1753 9.93783 12.1753 9.69516Z" fill="white"/>
<path d="M8.00045 13.5901C8.13306 13.5901 8.26024 13.5374 8.35401 13.4436C8.44778 13.3498 8.50045 13.2227 8.50045 13.0901V6.16006C8.94856 6.03886 9.33738 5.75901 9.5946 5.37258C9.85181 4.98615 9.95991 4.51945 9.89877 4.05929C9.83764 3.59913 9.61144 3.17683 9.26225 2.87097C8.91306 2.5651 8.46466 2.39648 8.00045 2.39648C7.53625 2.39648 7.08784 2.5651 6.73866 2.87097C6.38947 3.17683 6.16327 3.59913 6.10213 4.05929C6.041 4.51945 6.14909 4.98615 6.40631 5.37258C6.66353 5.75901 7.05235 6.03886 7.50045 6.16006V13.0901C7.50045 13.2227 7.55313 13.3498 7.6469 13.4436C7.74067 13.5374 7.86785 13.5901 8.00045 13.5901ZM7.08545 4.32506C7.08446 4.14388 7.13728 3.96648 7.23722 3.81536C7.33716 3.66423 7.47972 3.54617 7.64682 3.47615C7.81392 3.40613 7.99806 3.3873 8.17588 3.42203C8.3537 3.45677 8.5172 3.54352 8.64567 3.67129C8.77413 3.79905 8.86178 3.96208 8.89749 4.1397C8.9332 4.31733 8.91538 4.50156 8.84627 4.66905C8.77717 4.83653 8.65989 4.97973 8.50932 5.0805C8.35874 5.18126 8.18164 5.23506 8.00045 5.23506C7.75864 5.23506 7.52667 5.13935 7.35521 4.96883C7.18376 4.79832 7.08678 4.56686 7.08545 4.32506Z" fill="white"/>
<path d="M2.41015 9.84016V13.0902C2.41015 13.2228 2.46283 13.3499 2.5566 13.4437C2.65037 13.5375 2.77755 13.5902 2.91015 13.5902C3.04276 13.5902 3.16994 13.5375 3.26371 13.4437C3.35748 13.3499 3.41015 13.2228 3.41015 13.0902V9.84016C3.81514 9.73156 4.17299 9.49238 4.42822 9.15971C4.68344 8.82704 4.82177 8.41945 4.82177 8.00016C4.82177 7.58086 4.68344 7.17328 4.42822 6.8406C4.17299 6.50793 3.81514 6.26875 3.41015 6.16016V2.91016C3.41015 2.77755 3.35748 2.65037 3.26371 2.5566C3.16994 2.46283 3.04276 2.41016 2.91015 2.41016C2.77755 2.41016 2.65037 2.46283 2.5566 2.5566C2.46283 2.65037 2.41015 2.77755 2.41015 2.91016V6.16016C2.00516 6.26875 1.64731 6.50793 1.39209 6.8406C1.13687 7.17328 0.998535 7.58086 0.998535 8.00016C0.998535 8.41945 1.13687 8.82704 1.39209 9.15971C1.64731 9.49238 2.00516 9.73156 2.41015 9.84016ZM2.91015 7.08516C3.09133 7.08417 3.26873 7.13699 3.41986 7.23693C3.57098 7.33686 3.68904 7.47942 3.75906 7.64652C3.82908 7.81363 3.84792 7.99776 3.81318 8.17558C3.77844 8.3534 3.69169 8.5169 3.56393 8.64537C3.43616 8.77384 3.27314 8.86148 3.09551 8.89719C2.91788 8.9329 2.73365 8.91508 2.56616 8.84597C2.39868 8.77687 2.25548 8.6596 2.15471 8.50902C2.05395 8.35844 2.00016 8.18134 2.00015 8.00016C2.00015 7.75835 2.09587 7.52637 2.26638 7.35491C2.4369 7.18346 2.66835 7.08648 2.91015 7.08516Z" fill="white"/>
</svg>
