<svg width="12" height="12" viewBox="0 0 12 12" fill="none" xmlns="http://www.w3.org/2000/svg">
<path d="M11.0366 8.66846L9.41695 7.53687C9.20516 7.38916 8.9576 7.31128 8.70089 7.31128C8.29269 7.31128 7.90951 7.51147 7.67611 7.84644L7.30013 8.38525C6.67 7.96265 5.96688 7.37256 5.29659 6.70239C4.62643 6.03223 4.03646 5.3291 3.61397 4.69897L4.15255 4.323C4.42708 4.13184 4.61043 3.84546 4.66866 3.51685C4.72677 3.18848 4.65352 2.85669 4.46212 2.58203L3.33077 0.962402C3.0942 0.624023 2.71248 0.421875 2.30953 0.421875C2.16988 0.421875 2.03292 0.446533 1.90255 0.494629C1.75448 0.549316 1.61654 0.616455 1.48128 0.701416L1.25765 0.858887C1.20174 0.902344 1.14974 0.949951 1.09994 0.999756C0.827109 1.27246 0.633505 1.61768 0.524252 2.02588C0.058066 3.77344 1.21297 6.41602 3.39803 8.60107C5.23299 10.436 7.43746 11.5759 9.15096 11.5762H9.15108C9.44454 11.5762 9.72115 11.542 9.97335 11.4746C10.3816 11.3655 10.7268 11.1719 10.9997 10.8989C11.0493 10.8494 11.0966 10.7974 11.1474 10.7317L11.305 10.5068C11.382 10.3838 11.4491 10.2458 11.5045 10.0967C11.695 9.58154 11.5026 8.99414 11.0366 8.66846Z" fill="#E74779"/>
</svg>
