<svg width="16" height="16" viewBox="0 0 16 16" fill="none" xmlns="http://www.w3.org/2000/svg">
<path d="M12.5151 10.3398C11.8815 11.2101 10.8551 11.7769 9.69862 11.7769H8.07595C7.51541 11.7769 7.03806 11.421 6.8573 10.9229C6.63418 10.8563 6.41538 10.77 6.20187 10.6639C5.74972 10.4392 5.33916 10.1348 4.97776 9.75781C2.63346 10.2728 0.878906 12.3617 0.878906 14.8607V15.1874C0.878906 15.6364 1.24293 16.0004 1.69194 16.0004H14.3064C14.7554 16.0004 15.1194 15.6364 15.1194 15.1874V14.8607C15.1194 12.9302 14.0722 11.2444 12.5151 10.3398Z" fill="#E74779"/>
<path d="M4.11328 8.08159C4.46272 8.08159 4.76687 7.88792 4.92444 7.60211C4.92858 7.61343 4.93279 7.62467 4.93704 7.63591C4.93829 7.63929 4.93955 7.64266 4.9408 7.64604C5.31046 8.61905 6.02973 9.43474 6.97817 9.79114C7.20755 9.42666 7.61316 9.18426 8.07565 9.18426H9.69832C9.86018 9.18426 10.0108 9.1386 10.1429 9.06477C10.3647 8.94075 10.5641 8.62612 10.6671 8.45936C10.8319 8.19249 10.9596 7.90981 11.0729 7.60163C11.1365 7.71719 11.224 7.81771 11.3289 7.89648V8.29437C11.3289 9.19345 10.5974 9.92494 9.69829 9.92494H8.07562C7.76886 9.92494 7.52016 10.1736 7.52016 10.4804C7.52016 10.7872 7.76886 11.0359 8.07562 11.0359H9.69829C11.21 11.0359 12.4398 9.80603 12.4398 8.29437V7.89648C12.6646 7.72756 12.8101 7.4587 12.8101 7.15584V5.48093V4.83866C12.8101 4.52956 12.6585 4.25608 12.4257 4.08792C12.2452 1.8036 10.3287 0 7.9988 0C5.66884 0 3.75236 1.8036 3.57185 4.08789C3.33909 4.25605 3.1875 4.52956 3.1875 4.83862V7.15577C3.1875 7.66853 3.60404 8.08159 4.11328 8.08159ZM7.9988 1.11096C9.72359 1.11096 11.1462 2.42906 11.3125 4.11086C11.2033 4.19673 11.1139 4.30648 11.0523 4.43242C10.5282 3.06496 9.35814 2.1129 7.99876 2.1129C6.61007 2.1129 5.45881 3.09768 4.94727 4.42695C4.94658 4.42876 4.94592 4.43061 4.94522 4.43245C4.88361 4.30652 4.79419 4.19677 4.68503 4.1109C4.85141 2.42906 6.27401 1.11096 7.9988 1.11096Z" fill="#E74779"/>
</svg>
