<svg width="16" height="16" viewBox="0 0 16 16" fill="none" xmlns="http://www.w3.org/2000/svg">
<g clip-path="url(#clip0_59_10603)">
<path d="M15.4352 2.55334C14.9941 1.79122 14.3603 1.15203 13.6022 0.704906C12.8204 0.24375 11.925 0 11.0128 0C10.1006 0 9.20511 0.24375 8.42333 0.704906C7.66526 1.15206 7.03142 1.79125 6.59039 2.55334C6.50036 2.70894 6.5072 2.90225 6.60802 3.05106L8.62398 6.02678C8.63567 6.02594 8.64733 6.025 8.65926 6.025H10.1114L9.81495 5.13572C9.73311 4.89013 9.86582 4.62466 10.1114 4.54278C10.357 4.46097 10.6225 4.59369 10.7044 4.83925L11.0128 5.76459L11.3212 4.83925C11.4031 4.59366 11.6685 4.46091 11.9142 4.54278C12.1598 4.62466 12.2925 4.89009 12.2106 5.13572L11.9142 6.025H13.3663C13.3783 6.025 13.3899 6.02591 13.4016 6.02678L15.4176 3.05106C15.5183 2.90225 15.5252 2.70894 15.4352 2.55334Z" fill="#E74779"/>
<path d="M9.03711 15.0296C9.03711 15.5649 9.47261 16.0004 10.0079 16.0004H12.0163C12.5516 16.0004 12.9871 15.5649 12.9871 15.0296V6.96289H9.03711V15.0296Z" fill="#E74779"/>
<path d="M1.00391 5.95898H5.456V10.5444H1.00391V5.95898Z" fill="#E74779"/>
<path d="M0.501953 15.0284C0.501953 15.5637 0.937454 15.9992 1.47277 15.9992H4.9874C5.52271 15.9992 5.95821 15.5637 5.95821 15.0284V11.4805H0.501953V15.0284Z" fill="#E74779"/>
<path d="M4.9538 0.970062C4.9538 0.503875 4.62114 0.152344 4.18005 0.152344C4.06852 0.152344 3.9557 0.174844 3.8448 0.21925L2.2667 0.850468C1.83295 1.02397 1.50586 1.50709 1.50586 1.97425V5.02009H4.9538V0.970062Z" fill="#E74779"/>
</g>
<defs>
<clipPath id="clip0_59_10603">
<rect width="16" height="16" fill="white"/>
</clipPath>
</defs>
</svg>
