<svg width="14" height="14" viewBox="0 0 14 14" fill="none" xmlns="http://www.w3.org/2000/svg">
<path d="M13.6195 13.4953L12.4749 11.5873C11.9462 10.7067 11.6669 9.698 11.6669 8.67134V7C11.6669 4.89 10.2589 3.10534 8.33351 2.53V1.33334C8.33351 0.598 7.73551 0 7.00017 0C6.26482 0 5.66682 0.598 5.66682 1.33334V2.53C3.74151 3.10534 2.33351 4.89 2.33351 7V8.67134C2.33351 9.698 2.05417 10.706 1.52617 11.5867L0.38151 13.4947C0.31951 13.598 0.318167 13.726 0.37751 13.8307C0.436854 13.9353 0.546854 14 0.666854 14H13.3335C13.4535 14 13.5642 13.9354 13.6235 13.8314C13.6829 13.7273 13.6809 13.598 13.6195 13.4953Z" fill="#E74779"/>
</svg>
