<svg width="12" height="14" viewBox="0 0 12 14" fill="none" xmlns="http://www.w3.org/2000/svg">
<path d="M5.87669 13.636C5.91668 13.6546 5.95936 13.6653 5.99935 13.6653C6.04203 13.6653 6.08468 13.6546 6.12469 13.636C9.25269 12.004 11.1967 8.79598 11.1967 5.26532V2.74265C11.1967 2.63598 11.1354 2.53998 11.0367 2.49732L6.10602 0.355981C6.03936 0.326652 5.96203 0.326652 5.89536 0.355981L0.964681 2.49732C0.866016 2.53998 0.804688 2.63598 0.804688 2.74265V5.26532C0.804688 8.79598 2.74868 12.004 5.87669 13.636ZM2.76746 7.35503L3.71564 6.40686C3.81981 6.30269 3.98856 6.30269 4.09272 6.40686L4.93869 7.25269L7.90822 4.28342C8.01239 4.17925 8.18114 4.17925 8.2853 4.28342L9.23348 5.2316C9.33765 5.33576 9.33765 5.50451 9.23348 5.60868L5.12723 9.71506C5.07723 9.76506 5.00939 9.79318 4.93869 9.79318C4.86799 9.79318 4.80015 9.76506 4.75015 9.71506L2.76746 7.73211C2.6633 7.62795 2.6633 7.4592 2.76746 7.35503Z" fill="#E74779"/>
</svg>
