<svg width="16" height="16" viewBox="0 0 16 16" fill="none" xmlns="http://www.w3.org/2000/svg">
<path d="M8 0C3.59503 0 0 3.59531 0 8C0 12.405 3.59531 16 8 16C12.405 16 16 12.4047 16 8C16 3.59503 12.4047 0 8 0ZM5.62666 1.34822C5.07947 2.04741 4.68453 2.91237 4.41181 3.75H2.36319C3.18659 2.66059 4.31797 1.81656 5.62666 1.34822ZM1.76416 4.68719H4.15025C3.94138 5.57534 3.81809 6.53691 3.7885 7.53125H0.953438C1.02075 6.50916 1.30634 5.54584 1.76416 4.68719ZM0.953438 8.46875H3.7885C3.81772 9.4515 3.93859 10.4021 4.14306 11.2812H1.74762C1.2995 10.4308 1.01994 9.47847 0.953438 8.46875ZM2.33934 12.2188H4.40163C4.67559 13.0689 5.07412 13.9457 5.62666 14.6518C4.30541 14.1789 3.16469 13.3233 2.33934 12.2188ZM7.53125 14.9823C6.48063 14.6262 5.76575 13.2645 5.39116 12.2188H7.53125V14.9823ZM7.53125 11.2812H5.10678C4.88747 10.4143 4.75753 9.46131 4.72634 8.46875H7.53125V11.2812ZM7.53125 7.53125H4.72634C4.75791 6.52672 4.89069 5.56275 5.11484 4.6875H7.53125V7.53125ZM7.53125 3.75H5.40238C5.77734 2.71494 6.48891 1.37097 7.53125 1.01769V3.75ZM13.6368 3.75H11.5882C11.3155 2.91256 10.9206 2.04753 10.3733 1.34822C11.682 1.81656 12.8134 2.66059 13.6368 3.75ZM8.46875 1.01769C9.51122 1.37103 10.2227 2.71519 10.5976 3.75H8.46875V1.01769ZM8.46875 4.6875H10.8852C11.1093 5.56275 11.2421 6.52672 11.2737 7.53125H8.46875V4.6875ZM8.46875 8.46844H11.2737C11.2425 9.46131 11.1125 10.4143 10.8932 11.2812H8.46875V8.46844ZM8.46875 14.9823V12.2184H10.6088C10.2345 13.2639 9.51966 14.6261 8.46875 14.9823ZM10.3733 14.6518C10.9259 13.9457 11.3244 13.0688 11.5984 12.2184H13.6607C12.8353 13.3233 11.6946 14.1789 10.3733 14.6518ZM14.2524 11.2812H11.857C12.0614 10.4021 12.1823 9.4515 12.2115 8.46844H15.0466C14.9801 9.47847 14.7005 10.4308 14.2524 11.2812ZM15.0466 7.53125H12.2115C12.1819 6.53691 12.0586 5.57534 11.8497 4.6875H14.2358C14.6937 5.54584 14.9792 6.50916 15.0466 7.53125Z" fill="#E74779"/>
</svg>
