<svg width="32" height="32" viewBox="0 0 32 32" fill="none" xmlns="http://www.w3.org/2000/svg">
<rect width="32" height="32" rx="15" fill="#F4F4F4"/>
<g clip-path="url(#clip0_123_6599)">
<path d="M15.715 29.43C23.2896 29.43 29.43 23.2896 29.43 15.715C29.43 8.14041 23.2896 2 15.715 2C8.14041 2 2 8.14041 2 15.715C2 23.2896 8.14041 29.43 15.715 29.43Z" fill="#F0F0F0"/>
<path d="M15.1191 15.7165H29.4304C29.4304 14.4786 29.2654 13.2794 28.9579 12.1387H15.1191V15.7165Z" fill="#D80027"/>
<path d="M15.1191 8.56027H27.4174C26.5779 7.19027 25.5044 5.97933 24.2528 4.98242H15.1191V8.56027Z" fill="#D80027"/>
<path d="M15.7151 29.4307C18.9429 29.4307 21.9097 28.3151 24.2525 26.4492H7.17773C9.52053 28.3151 12.4873 29.4307 15.7151 29.4307Z" fill="#D80027"/>
<path d="M4.01318 22.8708H27.4172C28.0912 21.771 28.6139 20.5688 28.9577 19.293H2.47266C2.81644 20.5688 3.33917 21.771 4.01318 22.8708V22.8708Z" fill="#D80027"/>
<path d="M8.35305 4.14179H9.60288L8.44032 4.98639L8.88439 6.35301L7.72189 5.50841L6.55938 6.35301L6.94297 5.1724C5.91938 6.02503 5.02223 7.02398 4.2829 8.13703H4.68337L3.94335 8.67465C3.82806 8.86698 3.71748 9.06237 3.61151 9.26065L3.96489 10.3483L3.3056 9.86925C3.14172 10.2165 2.99182 10.5715 2.85708 10.9339L3.2464 12.1323H4.68337L3.52081 12.9769L3.96489 14.3435L2.80238 13.4989L2.10602 14.0049C2.03632 14.5651 2 15.1358 2 15.715H15.715C15.715 8.14046 15.715 7.24749 15.715 2C13.0056 2 10.48 2.78593 8.35305 4.14179V4.14179ZM8.88439 14.3435L7.72189 13.4989L6.55938 14.3435L7.00346 12.9769L5.8409 12.1323H7.27786L7.72189 10.7657L8.16591 12.1323H9.60288L8.44032 12.9769L8.88439 14.3435ZM8.44032 8.98163L8.88439 10.3483L7.72189 9.50366L6.55938 10.3483L7.00346 8.98163L5.8409 8.13703H7.27786L7.72189 6.77041L8.16591 8.13703H9.60288L8.44032 8.98163ZM13.8039 14.3435L12.6414 13.4989L11.4789 14.3435L11.923 12.9769L10.7604 12.1323H12.1974L12.6414 10.7657L13.0854 12.1323H14.5224L13.3598 12.9769L13.8039 14.3435ZM13.3598 8.98163L13.8039 10.3483L12.6414 9.50366L11.4789 10.3483L11.923 8.98163L10.7604 8.13703H12.1974L12.6414 6.77041L13.0854 8.13703H14.5224L13.3598 8.98163ZM13.3598 4.98639L13.8039 6.35301L12.6414 5.50841L11.4789 6.35301L11.923 4.98639L10.7604 4.14179H12.1974L12.6414 2.77517L13.0854 4.14179H14.5224L13.3598 4.98639Z" fill="#0052B4"/>
</g>
<defs>
<clipPath id="clip0_123_6599">
<rect width="27.43" height="27.43" fill="white" transform="translate(2 2)"/>
</clipPath>
</defs>
</svg>
