<svg width="66" height="66" viewBox="0 0 66 66" fill="none" xmlns="http://www.w3.org/2000/svg">
<rect x="17" y="15" width="32" height="32" rx="15" fill="#F4F4F4"/>
<g clip-path="url(#clip0_59_7230)" filter="url(#filter0_d_59_7230)">
<path d="M33.0004 44.7137C40.5746 44.7137 46.7147 38.5736 46.7147 30.9994C46.7147 23.4253 40.5746 17.2852 33.0004 17.2852C25.4262 17.2852 19.2861 23.4253 19.2861 30.9994C19.2861 38.5736 25.4262 44.7137 33.0004 44.7137Z" fill="white"/>
<path d="M37.7708 30.9987C37.7708 32.1912 35.6351 35.1726 33.0006 35.1726C30.3661 35.1726 28.2305 32.1912 28.2305 30.9987C28.2305 28.3641 30.3661 26.2285 33.0006 26.2285C35.6351 26.2285 37.7708 28.3641 37.7708 30.9987Z" fill="#D80027"/>
<path d="M37.7708 31C37.7708 33.6345 35.6351 35.7702 33.0006 35.7702C30.3661 35.7702 28.2305 33.6345 28.2305 31" fill="#0052B4"/>
<path d="M38.0566 35.2168L39.3213 33.9521L40.1645 34.7952L38.8998 36.0599L38.0566 35.2168Z" fill="black"/>
<path d="M35.9482 37.3242L37.2129 36.0595L38.0561 36.9027L36.7914 38.1674L35.9482 37.3242Z" fill="black"/>
<path d="M40.5859 37.7461L41.8506 36.4814L42.6938 37.3245L41.4291 38.5892L40.5859 37.7461Z" fill="black"/>
<path d="M38.4775 39.8535L39.7422 38.5888L40.5854 39.432L39.3207 40.6967L38.4775 39.8535Z" fill="black"/>
<path d="M39.3213 36.4805L40.586 35.2158L41.4291 36.0589L40.1644 37.3236L39.3213 36.4805Z" fill="black"/>
<path d="M37.2129 38.5879L38.4776 37.3232L39.3207 38.1663L38.056 39.431L37.2129 38.5879Z" fill="black"/>
<path d="M40.5918 26.7852L37.2193 23.4127L38.0624 22.5695L41.4349 25.942L40.5918 26.7852Z" fill="black"/>
<path d="M37.2178 25.9434L35.9531 24.6787L36.7962 23.8356L38.0609 25.1003L37.2178 25.9434Z" fill="black"/>
<path d="M39.3262 28.0508L38.0615 26.7861L38.9046 25.943L40.1693 27.2077L39.3262 28.0508Z" fill="black"/>
<path d="M39.7471 23.4121L38.4824 22.1474L39.3255 21.3043L40.5902 22.569L39.7471 23.4121Z" fill="black"/>
<path d="M41.8564 25.5215L40.5918 24.2568L41.4349 23.4137L42.6996 24.6783L41.8564 25.5215Z" fill="black"/>
<path d="M24.1484 36.4785L27.5209 39.851L26.6778 40.6942L23.3053 37.3217L24.1484 36.4785Z" fill="black"/>
<path d="M27.5205 37.3203L28.7852 38.585L27.9421 39.4281L26.6774 38.1634L27.5205 37.3203Z" fill="black"/>
<path d="M25.4121 35.2129L26.6768 36.4776L25.8337 37.3207L24.569 36.056L25.4121 35.2129Z" fill="black"/>
<path d="M26.6768 33.9473L30.0493 37.3198L29.2061 38.1629L25.8336 34.7904L26.6768 33.9473Z" fill="black"/>
<path d="M27.5205 22.1445L24.148 25.517L23.3049 24.6739L26.6774 21.3014L27.5205 22.1445Z" fill="black"/>
<path d="M28.7852 23.4102L25.4127 26.7827L24.5695 25.9395L27.942 22.567L28.7852 23.4102Z" fill="black"/>
<path d="M30.0508 24.6758L26.6783 28.0483L25.8352 27.2052L29.2077 23.8327L30.0508 24.6758Z" fill="black"/>
</g>
<defs>
<filter id="filter0_d_59_7230" x="0.286133" y="0.285156" width="65.4287" height="65.4277" filterUnits="userSpaceOnUse" color-interpolation-filters="sRGB">
<feFlood flood-opacity="0" result="BackgroundImageFix"/>
<feColorMatrix in="SourceAlpha" type="matrix" values="0 0 0 0 0 0 0 0 0 0 0 0 0 0 0 0 0 0 127 0" result="hardAlpha"/>
<feOffset dy="2"/>
<feGaussianBlur stdDeviation="9.5"/>
<feComposite in2="hardAlpha" operator="out"/>
<feColorMatrix type="matrix" values="0 0 0 0 0 0 0 0 0 0 0 0 0 0 0 0 0 0 0.05 0"/>
<feBlend mode="normal" in2="BackgroundImageFix" result="effect1_dropShadow_59_7230"/>
<feBlend mode="normal" in="SourceGraphic" in2="effect1_dropShadow_59_7230" result="shape"/>
</filter>
<clipPath id="clip0_59_7230">
<rect width="27.4286" height="27.4286" fill="white" transform="translate(19.2861 17.2852)"/>
</clipPath>
</defs>
</svg>
