<svg width="274" height="276" viewBox="0 0 274 276" fill="none" xmlns="http://www.w3.org/2000/svg">
<mask id="mask0_82_6593" style="mask-type:alpha" maskUnits="userSpaceOnUse" x="0" y="0" width="272" height="276">
<ellipse cx="135.896" cy="138" rx="135.896" ry="138" fill="white"/>
</mask>
<g mask="url(#mask0_82_6593)">
<g style="mix-blend-mode:multiply">
<path d="M48.2888 244.206C-4.74961 192.627 -5.15912 107.032 47.3641 53.023C99.8873 -0.986324 185.475 -2.9216 238.494 48.5976C291.512 100.117 281.909 175.269 229.412 229.278C176.915 283.288 101.321 295.784 48.2888 244.206Z" fill="#F6D2E1" fill-opacity="0.45"/>
</g>
<g opacity="0.53">
<path opacity="0.53" d="M256.187 79.3596L254.054 78.8312C253.776 78.7472 253.527 78.587 253.336 78.3686C253.144 78.1503 253.018 77.8826 252.971 77.596L252.515 75.3239C252.495 75.2331 252.444 75.1519 252.371 75.0938C252.299 75.0356 252.208 75.0039 252.115 75.0039C252.022 75.0039 251.932 75.0356 251.859 75.0938C251.787 75.1519 251.736 75.2331 251.716 75.3239L251.333 77.4243C251.284 77.7617 251.142 78.0785 250.921 78.338C250.7 78.5976 250.41 78.7892 250.084 78.8906L248.103 79.4124C248.009 79.4361 247.925 79.4906 247.866 79.5672C247.806 79.6437 247.773 79.738 247.773 79.8351C247.773 79.9322 247.806 80.0265 247.866 80.1031C247.925 80.1797 248.009 80.2341 248.103 80.2578L250.084 80.7466C250.41 80.8441 250.702 81.0316 250.927 81.2874C251.151 81.5433 251.298 81.8572 251.353 82.1931L251.775 84.2935C251.796 84.3843 251.846 84.4655 251.919 84.5236C251.992 84.5818 252.082 84.6135 252.175 84.6135C252.268 84.6135 252.358 84.5818 252.431 84.5236C252.503 84.4655 252.554 84.3843 252.574 84.2935L252.997 82.0016C253.038 81.7175 253.158 81.4508 253.344 81.2322C253.53 81.0136 253.774 80.8521 254.047 80.7664L256.181 80.1984C256.277 80.1782 256.363 80.1259 256.425 80.0501C256.487 79.9743 256.521 79.8796 256.522 79.7816C256.523 79.6837 256.49 79.5884 256.429 79.5117C256.368 79.4349 256.283 79.3812 256.187 79.3596Z" fill="#F2BC36"/>
<path opacity="0.53" d="M257.007 160.647L254.028 159.908C253.641 159.792 253.294 159.57 253.028 159.266C252.762 158.962 252.586 158.589 252.522 158.19L251.862 155.013C251.837 154.883 251.768 154.766 251.666 154.681C251.564 154.597 251.436 154.551 251.304 154.551C251.171 154.551 251.043 154.597 250.941 154.681C250.839 154.766 250.77 154.883 250.746 155.013L250.204 157.946C250.136 158.418 249.937 158.861 249.628 159.224C249.32 159.588 248.915 159.857 248.46 160L245.713 160.727C245.583 160.761 245.468 160.837 245.385 160.943C245.303 161.049 245.259 161.18 245.259 161.314C245.259 161.449 245.303 161.579 245.385 161.686C245.468 161.792 245.583 161.868 245.713 161.902L248.473 162.563C248.93 162.698 249.339 162.959 249.654 163.317C249.968 163.674 250.175 164.114 250.25 164.584L250.831 167.51C250.856 167.64 250.925 167.757 251.027 167.842C251.129 167.926 251.257 167.972 251.39 167.972C251.522 167.972 251.65 167.926 251.752 167.842C251.854 167.757 251.923 167.64 251.948 167.51L252.536 164.32C252.594 163.922 252.763 163.549 253.023 163.243C253.284 162.937 253.625 162.71 254.008 162.589L256.987 161.803C257.11 161.766 257.218 161.69 257.295 161.588C257.372 161.485 257.415 161.361 257.417 161.232C257.42 161.104 257.381 160.978 257.307 160.873C257.234 160.768 257.129 160.689 257.007 160.647Z" fill="#F2BC36"/>
<path opacity="0.53" d="M252.186 57.2796L249.181 56.5267C248.792 56.4129 248.444 56.1912 248.176 55.8872C247.908 55.5832 247.732 55.2094 247.669 54.8093L247.008 51.6323C246.983 51.5023 246.914 51.385 246.812 51.3005C246.71 51.2161 246.582 51.1699 246.45 51.1699C246.318 51.1699 246.189 51.2161 246.088 51.3005C245.986 51.385 245.916 51.5023 245.892 51.6323L245.35 54.565C245.28 55.0368 245.079 55.4795 244.769 55.8426C244.46 56.2058 244.055 56.4748 243.6 56.6191L240.852 57.3457C240.722 57.3797 240.607 57.4559 240.525 57.5622C240.443 57.6686 240.398 57.7992 240.398 57.9335C240.398 58.0679 240.443 58.1985 240.525 58.3048C240.607 58.4112 240.722 58.4873 240.852 58.5214L243.62 59.1819C244.076 59.3182 244.484 59.58 244.798 59.9374C245.112 60.2948 245.32 60.7334 245.396 61.203L245.978 64.1356C246.002 64.2657 246.072 64.383 246.173 64.4674C246.275 64.5519 246.404 64.5981 246.536 64.5981C246.668 64.5981 246.796 64.5519 246.898 64.4674C247 64.383 247.069 64.2657 247.094 64.1356L247.682 60.9454C247.739 60.5455 247.908 60.17 248.17 59.8624C248.432 59.5549 248.776 59.3281 249.161 59.2083L252.134 58.4223C252.253 58.3855 252.359 58.3127 252.435 58.2137C252.512 58.1148 252.556 57.9946 252.562 57.8695C252.568 57.7445 252.535 57.6207 252.468 57.5151C252.4 57.4096 252.302 57.3273 252.186 57.2796Z" fill="#F2BC36"/>
<path opacity="0.53" d="M42.9908 244.42L41.0093 243.925C40.7503 243.849 40.5181 243.701 40.3394 243.499C40.1606 243.297 40.0425 243.048 39.9987 242.782L39.576 240.662C39.5564 240.577 39.5089 240.502 39.4411 240.448C39.3734 240.395 39.2894 240.365 39.2028 240.365C39.1162 240.365 39.0322 240.395 38.9645 240.448C38.8967 240.502 38.8492 240.577 38.8296 240.662L38.4729 242.643C38.4278 242.958 38.2947 243.253 38.089 243.495C37.8833 243.737 37.6134 243.915 37.3105 244.011L35.4743 244.499C35.3851 244.519 35.3054 244.569 35.2483 244.641C35.1912 244.712 35.1602 244.801 35.1602 244.892C35.1602 244.984 35.1912 245.072 35.2483 245.144C35.3054 245.215 35.3851 245.265 35.4743 245.285L37.3171 245.741C37.6178 245.829 37.888 245.999 38.097 246.233C38.3059 246.466 38.4453 246.753 38.4994 247.062L38.8891 249.044C38.9086 249.128 38.9562 249.203 39.0239 249.257C39.0917 249.311 39.1757 249.34 39.2622 249.34C39.3488 249.34 39.4328 249.311 39.5006 249.257C39.5683 249.203 39.6159 249.128 39.6354 249.044L40.0251 246.91C40.0638 246.644 40.1766 246.395 40.3507 246.19C40.5248 245.986 40.7531 245.835 41.0093 245.754L42.9908 245.232C43.0896 245.22 43.1804 245.172 43.2463 245.097C43.3121 245.022 43.3484 244.926 43.3484 244.826C43.3484 244.727 43.3121 244.63 43.2463 244.556C43.1804 244.481 43.0896 244.433 42.9908 244.42Z" fill="#F2BC36"/>
<path opacity="0.53" d="M247.78 234.57L245.798 234.075C245.539 234 245.306 233.852 245.127 233.65C244.949 233.448 244.831 233.199 244.788 232.932L244.365 230.812C244.345 230.728 244.298 230.653 244.23 230.599C244.162 230.545 244.078 230.516 243.992 230.516C243.905 230.516 243.821 230.545 243.754 230.599C243.686 230.653 243.638 230.728 243.619 230.812L243.262 232.794C243.216 233.108 243.082 233.402 242.875 233.643C242.668 233.884 242.397 234.061 242.093 234.154L240.263 234.643C240.174 234.663 240.094 234.713 240.037 234.785C239.98 234.856 239.949 234.945 239.949 235.036C239.949 235.128 239.98 235.216 240.037 235.288C240.094 235.359 240.174 235.409 240.263 235.429L242.113 235.885C242.412 235.975 242.681 236.146 242.89 236.379C243.099 236.612 243.239 236.898 243.295 237.206L243.685 239.187C243.704 239.272 243.752 239.347 243.82 239.401C243.887 239.455 243.971 239.484 244.058 239.484C244.144 239.484 244.228 239.455 244.296 239.401C244.364 239.347 244.412 239.272 244.431 239.187L244.821 237.054C244.861 236.789 244.974 236.541 245.148 236.338C245.322 236.135 245.55 235.985 245.805 235.905L247.786 235.376C247.893 235.375 247.995 235.332 248.07 235.256C248.145 235.18 248.187 235.077 248.186 234.97C248.185 234.863 248.142 234.761 248.066 234.686C247.99 234.611 247.887 234.57 247.78 234.57Z" fill="#F2BC36"/>
</g>
<g opacity="0.38">
<path opacity="0.38" d="M95.8257 258.199C107.715 257.539 119.604 256.634 131.374 255.075C137.266 254.291 143.138 253.365 148.99 252.295C154.842 251.224 160.667 250.005 166.466 248.635C166.53 248.62 166.596 248.617 166.66 248.627C166.725 248.637 166.786 248.66 166.842 248.695C166.897 248.729 166.945 248.775 166.983 248.828C167.02 248.881 167.047 248.941 167.061 249.005C167.088 249.128 167.069 249.256 167.007 249.365C166.944 249.473 166.843 249.555 166.724 249.593C161 251.319 155.205 252.801 149.34 254.038C143.474 255.276 137.578 256.317 131.651 257.162C119.793 258.874 107.808 259.552 95.8323 259.19C95.7009 259.19 95.5749 259.138 95.482 259.045C95.3891 258.952 95.3369 258.826 95.3369 258.695C95.3369 258.563 95.3891 258.437 95.482 258.344C95.5749 258.252 95.7009 258.199 95.8323 258.199H95.8257Z" fill="white"/>
</g>
<g opacity="0.38">
<path opacity="0.38" d="M126.031 266.771C128.613 266.606 131.156 266.408 133.679 266.032C136.199 265.677 138.699 265.194 141.169 264.585C146.136 263.343 151.011 261.633 155.951 260.008C156.013 259.987 156.079 259.979 156.144 259.984C156.209 259.989 156.273 260.006 156.331 260.036C156.389 260.065 156.441 260.106 156.484 260.155C156.526 260.205 156.559 260.263 156.579 260.325C156.616 260.438 156.612 260.56 156.567 260.67C156.522 260.78 156.44 260.871 156.334 260.926C153.996 262.102 151.618 263.178 149.181 264.142C146.738 265.116 144.239 265.946 141.698 266.626C139.141 267.328 136.525 267.796 133.884 268.026C131.242 268.262 128.581 268.182 125.958 267.788C125.828 267.766 125.712 267.693 125.635 267.585C125.559 267.478 125.527 267.344 125.548 267.214C125.561 267.094 125.617 266.983 125.706 266.902C125.795 266.82 125.91 266.774 126.031 266.771Z" fill="white"/>
</g>
<g style="mix-blend-mode:multiply">
<g style="mix-blend-mode:multiply">
<path d="M234.874 238.44C186.875 288.559 103.506 286.617 48.6715 234.101C-6.16343 181.584 -11.7183 98.3738 36.2805 48.2549C84.2793 -1.86409 157.813 9.51637 212.635 62.033C267.457 114.55 282.873 188.321 234.874 238.44Z" fill="#F6D2E1" fill-opacity="0.44"/>
</g>
</g>
<path d="M161.039 149.702C162.842 160.402 164.929 169.55 166.983 177.173C167.399 178.698 167.809 180.151 168.225 181.552C157.247 170.792 136.052 167.635 135.087 167.49C134.818 167.452 134.544 167.5 134.304 167.627C134.064 167.755 133.871 167.955 133.751 168.199C133.632 168.443 133.592 168.718 133.639 168.986C133.686 169.254 133.816 169.5 134.011 169.689C151.844 186.862 164.559 187.047 168.357 186.611L169.526 187.206C169.676 187.281 169.84 187.326 170.008 187.338C174.163 200.125 177.63 206.406 177.71 206.538C177.739 206.589 177.772 206.638 177.809 206.684C170.319 219.768 166.204 228.375 166.012 229.2C165.956 229.417 165.956 229.644 166.012 229.861C166.073 230.086 166.193 230.29 166.359 230.454C166.525 230.617 166.731 230.734 166.957 230.792C167.118 230.832 167.287 230.84 167.452 230.815C167.616 230.79 167.775 230.733 167.917 230.646C168.06 230.56 168.184 230.446 168.282 230.311C168.38 230.176 168.45 230.023 168.489 229.861C168.707 229.2 169.949 226.558 172.115 222.41C172.294 222.565 172.512 222.667 172.745 222.706C172.978 222.744 173.217 222.717 173.436 222.628C173.581 222.569 181.058 219.577 193.608 213.381C194.006 215.444 194.793 217.412 195.926 219.18C198.634 223.606 204.328 229.385 216.257 234.636C216.496 234.736 216.76 234.763 217.015 234.714C217.27 234.664 217.505 234.541 217.69 234.359C217.874 234.174 217.997 233.936 218.042 233.678C218.087 233.421 218.052 233.156 217.941 232.919C217.901 232.826 217.743 232.476 217.472 231.941C217.47 231.924 217.47 231.906 217.472 231.889C215.596 228.183 208.628 215.713 197.928 211.241C204.11 208.13 211.283 204.352 219.249 199.894C217.089 211.882 223.324 224.247 226.996 230.277C228.317 232.43 229.308 233.771 229.46 233.969V234.002L229.513 234.062L229.592 234.141L229.652 234.194L229.744 234.26L229.81 234.299L229.903 234.352L229.982 234.385L230.081 234.418H230.167H230.259H230.358H230.55H230.649H230.741H230.794H230.9H230.966C231.033 234.392 231.097 234.359 231.158 234.319L231.23 234.266L231.329 234.187L231.402 234.114L231.481 234.022L231.541 233.943L231.64 233.764C231.64 233.764 231.64 233.712 231.64 233.679C231.658 233.638 231.673 233.596 231.686 233.553C231.689 233.522 231.689 233.491 231.686 233.461C231.69 233.439 231.69 233.416 231.686 233.395C233.469 219.524 231.686 210.68 229.183 205.171C243.615 214.332 263.291 213.474 264.282 213.421C264.425 213.414 264.565 213.383 264.698 213.328C264.763 213.302 264.825 213.269 264.883 213.229H264.916C264.974 213.189 265.029 213.145 265.081 213.097C265.135 213.045 265.183 212.987 265.226 212.926C265.239 212.902 265.255 212.88 265.273 212.859L265.339 212.741V212.681C265.341 212.666 265.341 212.65 265.339 212.635C265.353 212.596 265.364 212.556 265.372 212.516V212.45C265.378 212.375 265.378 212.3 265.372 212.225V212.173V211.988C265.372 211.988 265.372 211.955 265.372 211.941C265.36 211.868 265.337 211.797 265.306 211.73C265.275 211.656 265.237 211.586 265.193 211.519C265.151 211.456 265.105 211.396 265.055 211.34C265.031 211.32 265.009 211.298 264.989 211.274C248.073 196.406 235.926 193.976 228.971 194.405C233.628 191.677 238.496 188.751 243.535 185.607C243.61 185.643 243.687 185.671 243.767 185.693C260.88 190.369 279.506 176.446 280.603 175.581C280.699 175.511 280.786 175.429 280.86 175.336C280.913 175.261 280.959 175.181 280.999 175.099C281.108 174.958 281.187 174.796 281.23 174.623C281.274 174.45 281.28 174.27 281.25 174.095V174.015V173.976C281.159 173.671 280.956 173.411 280.682 173.249L280.59 173.196C280.454 173.135 280.309 173.097 280.16 173.084C251.917 169.781 244.493 180.752 243.317 182.939C243.051 182.924 242.786 182.991 242.558 183.13C233.502 188.778 225.015 193.745 217.287 198.058C229.883 183.427 234.85 159.603 235.088 158.427C235.088 158.368 235.088 158.309 235.088 158.256V158.242C235.09 157.992 235.019 157.746 234.883 157.536C234.885 157.523 234.885 157.509 234.883 157.496C234.856 157.453 234.825 157.414 234.79 157.377L234.711 157.298C234.692 157.275 234.67 157.255 234.645 157.239C234.588 157.187 234.526 157.14 234.46 157.1C234.381 157.057 234.296 157.024 234.209 157.001C234.135 156.98 234.06 156.964 233.985 156.954C233.908 156.948 233.83 156.948 233.753 156.954C233.595 156.97 233.441 157.012 233.298 157.08H233.258C233.203 157.107 233.152 157.14 233.106 157.179L233.053 157.219C233.033 157.23 233.015 157.246 233 157.265C205.015 183.091 207.485 201.565 207.789 203.295C201.699 206.545 196.237 209.313 191.541 211.611C198.945 202.82 200.497 189.246 200.57 188.566C200.592 188.307 200.537 188.048 200.413 187.82C200.288 187.592 200.099 187.406 199.87 187.285C199.637 187.166 199.374 187.121 199.115 187.156C198.856 187.192 198.615 187.306 198.423 187.483C181.25 203.084 184.334 213.791 184.704 214.881C179.15 217.476 175.332 219.108 173.621 219.821C185.355 198.045 198.586 177.11 213.218 157.166C213.512 157.005 213.734 156.738 213.839 156.419C213.849 156.366 213.862 156.313 213.879 156.261C215.9 153.526 217.978 150.774 220.114 148.005C220.154 148.028 220.196 148.048 220.239 148.064C245.048 156.281 281.184 139.134 282.71 138.401C282.95 138.28 283.148 138.089 283.276 137.853C283.405 137.617 283.458 137.347 283.43 137.08C283.387 136.813 283.264 136.565 283.076 136.37C282.888 136.175 282.645 136.042 282.38 135.99C250.781 130.396 233.502 136.459 225.576 141.109C229.451 136.239 233.511 131.382 237.756 126.538C237.857 126.569 237.961 126.587 238.066 126.591C238.217 126.723 238.397 126.817 238.591 126.866C238.785 126.916 238.987 126.919 239.183 126.875C264.718 121.314 287.096 88.1565 288.06 86.7496C288.058 86.7343 288.058 86.7187 288.06 86.7034L288.106 86.6175C288.131 86.5681 288.153 86.5174 288.172 86.4656C288.175 86.4503 288.175 86.4347 288.172 86.4194C288.271 86.107 288.245 85.7685 288.1 85.4749C288.073 85.4183 288.04 85.3651 288 85.3163L287.967 85.2569C287.952 85.2377 287.934 85.22 287.915 85.2041L287.802 85.0852L287.743 85.0389L287.604 84.9465H287.545L287.38 84.8738H287.333C287.188 84.8283 287.036 84.8082 286.884 84.8144H286.798H286.66L286.561 84.8474H286.501C259.044 95.1512 246.871 107.734 241.534 115.977C244.262 92.4564 231.712 64.3916 231.118 63.0442V63.0112C231.032 62.8396 230.907 62.6905 230.754 62.5759C230.6 62.4612 230.422 62.384 230.233 62.3507H230.2H230.041C229.967 62.3441 229.891 62.3441 229.817 62.3507C229.735 62.3573 229.655 62.3751 229.579 62.4035H229.52C229.464 62.4224 229.411 62.4467 229.361 62.4761H229.295L229.156 62.5752L229.11 62.6083C228.996 62.7127 228.9 62.8354 228.826 62.9715V63.0178C228.826 63.0772 228.773 63.13 228.753 63.1895C228.733 63.2489 228.753 63.2291 228.753 63.2423C228.75 63.2687 228.75 63.2953 228.753 63.3216C224.414 84.92 225.722 99.887 228.416 109.768C230.748 118.355 234.123 123.064 235.755 124.96C228.377 133.368 221.488 141.908 215.134 150.29C216.693 139.471 217.313 115.283 200.345 85.072C200.232 84.8761 200.071 84.7125 199.876 84.5969C199.682 84.4812 199.461 84.4174 199.235 84.4115H199.117H199.057C198.974 84.4189 198.892 84.4366 198.813 84.4643H198.733C198.638 84.5044 198.547 84.5554 198.463 84.6162L198.41 84.6625C198.339 84.7218 198.275 84.7882 198.218 84.8606L198.179 84.9134C198.113 85.0005 198.06 85.096 198.02 85.1975C197.901 85.5409 189.473 109.722 195.589 132.146C197.974 140.904 202.591 149.392 210.781 156.089C199.49 171.489 189.022 187.476 179.42 203.982C177.466 200.004 175.74 195.917 174.249 191.743C192.644 180.812 192.036 150.964 191.996 149.689C191.993 149.449 191.921 149.215 191.789 149.015C191.656 148.815 191.469 148.657 191.25 148.56C191.036 148.463 190.799 148.428 190.566 148.457C190.333 148.486 190.113 148.579 189.929 148.725L189.414 149.147C189.206 149.187 189.011 149.277 188.847 149.411C188.684 149.545 188.556 149.718 188.476 149.914C175.305 160.944 170.913 170.733 169.936 177.985C168.344 172.285 166.732 165.667 165.233 158.11C183.601 147.291 187.815 118.903 187.987 117.694C187.99 117.666 187.99 117.637 187.987 117.608C187.99 117.562 187.99 117.516 187.987 117.47C187.99 117.437 187.99 117.403 187.987 117.371V117.258C187.99 117.219 187.99 117.179 187.987 117.139V117.093C187.934 116.934 187.848 116.788 187.736 116.664L187.696 116.624L187.597 116.525C187.549 116.486 187.499 116.451 187.445 116.419C187.378 116.381 187.307 116.348 187.234 116.32H187.175C187.117 116.301 187.057 116.288 186.996 116.281H186.798C186.646 116.251 186.488 116.251 186.336 116.281C186.269 116.296 186.205 116.321 186.144 116.353H186.105C186.046 116.38 185.991 116.413 185.94 116.452H185.9C170.662 128.725 165.028 139.141 163.139 146.347L163.099 146.096C163.203 145.836 163.287 145.569 163.35 145.297C163.41 145.055 163.393 144.802 163.304 144.57C163.31 144.342 163.256 144.116 163.149 143.914C163.041 143.713 162.883 143.543 162.69 143.421C162.69 143.361 162.69 143.309 162.69 143.249C162.726 143.077 162.726 142.899 162.69 142.727C162.604 142.285 162.511 141.842 162.406 141.406C161.428 134.623 160.576 127.285 159.916 119.378C159.968 119.354 160.019 119.325 160.068 119.293C172.928 109.504 176.759 85.0521 176.891 84.0152C176.921 83.75 176.87 83.4819 176.745 83.2461C176.62 83.0103 176.427 82.8178 176.19 82.6941C175.945 82.5765 175.669 82.5374 175.401 82.5824C175.133 82.6273 174.885 82.754 174.691 82.9451C163.245 94.6691 159.249 104.2 157.98 110.415C152.782 97.2054 139.566 85.7985 138.905 85.2239L138.819 85.171C138.808 85.1682 138.797 85.1682 138.786 85.171L138.595 85.0587C138.449 84.992 138.292 84.9539 138.132 84.9465H138.093H137.901H137.848L137.657 84.9993H137.617C137.544 85.0256 137.473 85.0588 137.406 85.0984C137.342 85.137 137.283 85.1812 137.227 85.2305C137.195 85.258 137.167 85.289 137.142 85.323L137.089 85.3758C137.056 85.4126 137.028 85.4524 137.003 85.4947V85.5409C137.003 85.5409 136.97 85.6136 136.95 85.6532C136.935 85.6755 136.924 85.7 136.917 85.7259C136.917 85.7259 136.917 85.7853 136.917 85.8183C136.917 85.8514 136.917 85.8844 136.917 85.9174C136.914 85.9416 136.914 85.9659 136.917 85.9901V86.1222V86.1816C136.914 86.23 136.914 86.2785 136.917 86.3269C136.917 86.3269 136.917 86.3665 136.917 86.393V86.5052C137.135 87.4035 137.366 88.2688 137.577 89.1473C143.859 112.199 154.579 118.209 157.32 119.418C157.699 123.936 158.139 128.271 158.641 132.423C150.999 119.781 136.342 112.912 135.576 112.555C135.346 112.455 135.092 112.422 134.844 112.461C134.596 112.499 134.364 112.608 134.176 112.773C133.994 112.935 133.861 113.145 133.794 113.379C133.728 113.613 133.729 113.861 133.799 114.094C133.797 114.121 133.797 114.147 133.799 114.174C140.537 133.672 148.991 140.733 154.731 143.236C138.529 144.953 125.431 158.645 124.803 159.312C124.652 159.473 124.544 159.669 124.491 159.884C124.438 160.098 124.441 160.322 124.5 160.534C124.513 160.594 124.533 160.651 124.559 160.706C124.658 160.938 124.824 161.136 125.036 161.273C125.248 161.411 125.495 161.482 125.748 161.479H126.474C126.754 161.582 127.06 161.582 127.34 161.479C148.681 160.984 157.478 154.312 161.039 149.702ZM249.288 183.837L272.115 177.8C266.31 180.911 257.736 184.425 249.269 183.837H249.288ZM272.28 175.092L247.723 181.585C250.867 178.718 257.855 174.689 272.261 175.092H272.28ZM186.91 209.564C187.379 206.334 189.084 201.486 194.176 195.449L186.91 209.564ZM195.556 198.335C194.308 202.308 192.394 206.04 189.896 209.372L195.556 198.335ZM197.366 216.367L210.774 229.009C202.611 224.339 198.971 219.669 197.366 216.367ZM209.678 224.438L199.724 215.046C203.707 217.463 207.076 221.043 209.665 224.438H209.678ZM210.239 198.375C210.9 192.291 214.163 180.462 228.39 165.35L210.239 198.375ZM229.652 168.375C226.686 177.575 221.27 190.739 212.829 199.002L229.652 168.375ZM221.527 202.192C222.914 207.562 225.662 218.256 227.505 225.878C224.381 220.033 220.636 210.977 221.514 202.192H221.527ZM229.863 224.649C228.027 217.08 225.405 206.875 224.044 201.605C226.732 204.887 230.193 211.631 229.85 224.682L229.863 224.649ZM225.953 199.313C235.966 202.219 249.434 207.437 257.307 210.594C248.991 210.033 235.055 207.741 225.94 199.346L225.953 199.313ZM256.765 207.602C248.912 204.484 236.798 199.841 227.386 197.034C232.426 196.301 242.34 196.955 256.752 207.635L256.765 207.602ZM225.662 146.789L271.937 140.026C260.563 144.246 241.276 149.861 225.649 146.822L225.662 146.789ZM273.324 137.252L225.431 144.246C231.587 140.316 246.125 134.015 273.324 137.252ZM242.815 123.157C251.402 115.931 269.5 101.485 279.929 93.2226C272.313 102.668 258.218 117.853 242.829 123.157H242.815ZM279.031 90.6466C269.004 98.5726 250.946 112.972 241.864 120.587C245.253 114.022 254.539 101.532 279.044 90.6466H279.031ZM238.02 121.03L232.406 73.5858C236.428 85.1908 241.805 105.231 238.033 121.03H238.02ZM229.731 72.5488L235.325 119.854C231.514 113.328 226.006 98.7972 229.731 72.5488ZM212.294 151.235C203.727 128.275 201.329 102.476 200.669 91.3269C215.028 119.563 213.714 142.087 212.267 151.235H212.294ZM198.291 93.7708C198.951 103.579 200.781 121.03 205.609 138.751C206.811 143.163 208.205 147.589 209.81 151.921C191.831 134.676 195.239 107.087 198.264 93.7972L198.291 93.7708ZM189.262 154.643C188.661 162.866 186.138 179.379 175.49 187.76L189.262 154.643ZM186.171 155.369L173.053 186.968C173.007 186.816 172.961 186.651 172.914 186.492C171.455 181.248 170.992 169.801 186.138 155.396L186.171 155.369ZM164.803 181.928L147.393 173.124C153.192 174.986 159.856 177.82 164.803 181.928ZM141.93 173.249L162.69 183.751C157.994 182.919 150.834 180.376 141.93 173.249ZM167.393 153.434L183.555 125.449C181.27 133.645 176.501 146.076 167.393 153.454V153.434ZM181.739 123.447L164.856 152.694C164.902 147.509 167.194 136.968 181.739 123.467V123.447ZM160.332 112.219C160.992 107.886 163.185 101.142 169.579 92.6876L160.332 112.219ZM172.016 93.6123C170.246 99.6228 167.346 107.159 162.921 112.767L172.016 93.6123ZM155.939 112.186L145.517 95.6004C149.42 100.118 153.7 106.063 155.939 112.232V112.186ZM142.069 94.8672L154.169 114.253C150.721 111.301 145.913 105.587 142.049 94.9135L142.069 94.8672ZM158.938 138.969C153.449 132.668 145.913 124.081 141.177 118.698C147.168 122.707 155.464 129.616 158.918 139.015L158.938 138.969ZM138.747 119.814C143.641 125.382 152.009 134.914 157.723 141.486C153.482 140.336 145.622 135.884 138.727 119.88L138.747 119.814ZM156.494 145.574C149.592 148.309 138.35 153.414 131.62 156.519C137.016 152.239 146.276 146.208 156.474 145.633L156.494 145.574ZM133.614 158.441C142.075 154.55 154.011 149.194 159.618 147.126C157.287 150.68 150.801 156.921 133.595 158.5L133.614 158.441Z" fill="white" fill-opacity="0.33"/>
<path d="M38.5603 198.855C46.0636 205.764 52.8866 211.358 58.8246 215.823C60.0135 216.715 61.1561 217.56 62.2724 218.359C47.9197 216.708 30.3437 226.563 29.5511 227.019C29.3238 227.146 29.1438 227.343 29.0378 227.581C28.9319 227.819 28.9057 228.085 28.9632 228.34C29.0204 228.628 29.1829 228.884 29.419 229.059C29.5906 229.193 29.7967 229.276 30.0134 229.297C53.131 231.781 62.7149 224.588 65.2909 222.071L66.4996 221.84C66.6552 221.81 66.8032 221.749 66.9355 221.662C77.3913 228.762 83.5934 231.431 83.7255 231.49L83.884 231.536C85.8656 245.572 87.7612 254.337 88.0981 255.064C88.1862 255.248 88.3176 255.409 88.4811 255.532C88.6549 255.668 88.8623 255.754 89.081 255.78C89.2997 255.807 89.5216 255.774 89.7229 255.684C90.0117 255.555 90.2373 255.315 90.3499 255.019C90.4626 254.723 90.4533 254.395 90.324 254.106C90.1126 253.498 89.5115 250.803 88.7255 246.484C88.9439 246.492 89.1603 246.441 89.3521 246.336C89.5439 246.231 89.7039 246.077 89.8154 245.889C89.888 245.764 93.7189 239.231 99.4851 227.395C100.971 228.699 102.69 229.709 104.551 230.374C109.115 232.098 116.671 233.108 128.56 230.13C128.799 230.07 129.013 229.94 129.175 229.755C129.338 229.571 129.44 229.342 129.468 229.098C129.497 228.854 129.451 228.607 129.336 228.39C129.221 228.174 129.043 227.997 128.825 227.884L127.907 227.435H127.86C124.333 225.764 111.969 220.513 101.44 223.359C104.241 217.481 107.385 210.546 110.74 202.639C116.024 212.791 127.801 218.386 133.99 220.724C136.216 221.569 137.722 221.992 137.953 222.045H137.992H138.072H138.171H138.356H138.428H138.527H138.607L138.693 222.012L138.778 221.979L138.858 221.939L138.937 221.893L139.01 221.84L139.082 221.781L139.148 221.721L139.181 221.682L139.221 221.642L139.274 221.556L139.313 221.497C139.345 221.44 139.372 221.38 139.393 221.318C139.396 221.29 139.396 221.261 139.393 221.233C139.395 221.195 139.395 221.158 139.393 221.12C139.396 221.087 139.396 221.054 139.393 221.021C139.396 220.984 139.396 220.946 139.393 220.909V220.816C139.385 220.752 139.374 220.688 139.36 220.625C139.363 220.599 139.363 220.572 139.36 220.546L139.32 220.427L139.28 220.347V220.295C132.59 208.947 126.183 203.419 121.15 200.764C137.147 199.258 151.275 187.276 151.982 186.668C152.082 186.579 152.167 186.474 152.233 186.358C152.266 186.299 152.293 186.237 152.312 186.173C152.312 186.173 152.312 186.173 152.312 186.14C152.334 186.078 152.349 186.014 152.358 185.948C152.365 185.878 152.365 185.807 152.358 185.737C152.358 185.737 152.358 185.691 152.358 185.664V185.532C152.355 185.513 152.355 185.493 152.358 185.473V185.427C152.347 185.39 152.332 185.354 152.312 185.321C152.313 185.301 152.313 185.281 152.312 185.262C152.279 185.196 152.239 185.134 152.193 185.077V185.044L152.068 184.918L152.035 184.885C151.982 184.84 151.924 184.8 151.863 184.766C151.799 184.725 151.73 184.692 151.658 184.667C151.589 184.643 151.519 184.626 151.447 184.614H151.361C130.225 183.293 119.822 188.498 114.881 192.838C116.77 188.13 118.688 183.155 120.634 177.91C120.709 177.892 120.782 177.868 120.852 177.837C136.262 171.45 142.061 150.347 142.391 149.092C142.423 148.985 142.439 148.874 142.438 148.762C142.447 148.679 142.447 148.595 142.438 148.511C142.383 148.253 142.244 148.02 142.041 147.851L141.883 147.672H141.85C141.606 147.5 141.307 147.424 141.011 147.461H140.912C140.773 147.492 140.641 147.548 140.522 147.626C117.636 161.437 118.455 173.868 118.838 176.18C118.627 176.319 118.468 176.523 118.382 176.761C114.908 186.173 111.467 194.753 108.21 202.415C109.135 184.284 99.0954 163.723 98.5935 162.719C98.5699 162.671 98.5434 162.624 98.5142 162.58V162.547C98.374 162.358 98.1809 162.216 97.9594 162.137H97.9197L97.781 162.104H97.6754H97.5895C97.5172 162.094 97.4438 162.094 97.3715 162.104C97.2883 162.119 97.2066 162.141 97.1271 162.17C97.0581 162.194 96.9917 162.225 96.929 162.263C96.8678 162.301 96.8103 162.346 96.7572 162.395C96.6472 162.496 96.5575 162.617 96.493 162.752C96.4902 162.767 96.4902 162.783 96.493 162.798C96.4665 162.848 96.4465 162.901 96.4336 162.956C96.4305 162.976 96.4305 162.996 96.4336 163.016V163.082C90.5353 198.399 103.039 210.697 104.241 211.814C101.599 217.758 99.1285 222.937 96.9752 227.349C97.4045 216.556 90.7401 205.552 90.4032 205.03C90.2752 204.819 90.0855 204.653 89.8599 204.552C89.6342 204.452 89.3833 204.424 89.1409 204.47C88.8984 204.517 88.6762 204.637 88.5039 204.814C88.3316 204.991 88.2177 205.216 88.1773 205.46C84.4058 226.959 92.8735 233.128 93.7784 233.716C91.1364 238.848 89.2539 242.263 88.3887 243.782C84.5834 220.828 82.3764 197.637 81.7836 174.376C81.8992 174.084 81.8992 173.758 81.7836 173.465C81.7631 173.422 81.7455 173.378 81.7308 173.333C81.6603 170.136 81.6185 166.893 81.6053 163.604C81.647 163.609 81.6892 163.609 81.7308 163.604C104.895 155.407 121.863 121.847 122.576 120.42C122.693 120.19 122.733 119.929 122.691 119.675C122.649 119.421 122.527 119.187 122.343 119.007C122.159 118.827 121.922 118.711 121.667 118.675C121.412 118.639 121.152 118.686 120.925 118.808C94.2275 132.87 84.9078 147.309 81.6582 155.361C81.7572 149.482 81.9752 143.505 82.3187 137.481C82.4121 137.443 82.5008 137.394 82.5829 137.335C82.77 137.346 82.9571 137.313 83.1292 137.238C83.3012 137.164 83.4534 137.05 83.5736 136.906C99.3398 118.062 96.8497 80.5256 96.7374 78.9404C96.7374 78.9404 96.7374 78.9073 96.7374 78.8941C96.7374 78.8809 96.7374 78.8281 96.7374 78.8017L96.6978 78.6497C96.6978 78.6497 96.6978 78.6497 96.6978 78.6035C96.588 78.3154 96.3733 78.0794 96.0967 77.943L95.925 77.877H95.8722H95.6476H95.4957H95.4296H95.2711H95.2051L95.0465 77.9232H94.9937C94.862 77.9764 94.7394 78.05 94.6304 78.1412L94.571 78.2006L94.4851 78.2931L94.4257 78.3723V78.4186C79.9673 101.899 78.1641 118.267 78.9633 127.461C67.4441 108.452 41.9751 94.8255 40.7268 94.1716H40.6938C40.5305 94.087 40.3492 94.0429 40.1654 94.0429C39.9815 94.0429 39.8003 94.087 39.6369 94.1716C39.5907 94.194 39.5465 94.2206 39.5049 94.2508C39.4454 94.2891 39.3901 94.3334 39.3397 94.3829C39.2862 94.438 39.2376 94.4977 39.1944 94.5613C39.1819 94.5779 39.1709 94.5956 39.1614 94.6141C39.1346 94.6589 39.1103 94.7053 39.0887 94.7528C39.0863 94.7725 39.0863 94.7925 39.0887 94.8123C39.0682 94.8641 39.0505 94.917 39.0359 94.9708C39.0388 94.9883 39.0388 95.0061 39.0359 95.0236C39.0095 95.1655 39.0095 95.311 39.0359 95.4529C39.0359 95.4529 39.0359 95.486 39.0359 95.5058C39.0359 95.5256 39.0359 95.6115 39.0887 95.6709V95.7171C39.086 95.7413 39.086 95.7656 39.0887 95.7898C48.3358 114.337 57.9131 124.7 65.6079 130.486C72.279 135.506 77.497 137.091 79.8286 137.56C79.1681 148.062 78.9963 158.372 79.1086 168.26C74.0359 159.33 60.5551 141.008 30.5352 128.333C30.3383 128.249 30.1227 128.219 29.9103 128.245C29.698 128.272 29.4965 128.355 29.3265 128.485C29.3265 128.485 29.3265 128.485 29.2803 128.524V128.564C29.2241 128.621 29.1733 128.683 29.1283 128.749L29.0887 128.815C29.0358 128.899 28.9957 128.99 28.9698 129.086C28.9698 129.086 28.9698 129.125 28.9698 129.152C28.9597 129.235 28.9597 129.319 28.9698 129.403V129.469C28.9723 129.57 28.9878 129.669 29.0161 129.766C29.1217 130.09 36.8034 152.884 54.2737 166.048C61.0901 171.18 69.4124 174.826 79.3728 175.09C79.8581 193.038 81.2956 210.947 83.6793 228.742C79.9339 226.879 76.2975 224.804 72.7876 222.527C80.1588 203.802 62.497 181.979 61.7374 181.054C61.5962 180.877 61.4073 180.745 61.193 180.672C60.9788 180.6 60.7482 180.59 60.5287 180.645C60.3091 180.695 60.108 180.806 59.9481 180.965C59.7883 181.123 59.6759 181.324 59.6238 181.543L59.4851 182.151C59.3532 182.301 59.2606 182.481 59.2156 182.676C59.1707 182.871 59.1747 183.074 59.2275 183.267C55.7995 199.053 58.1773 208.861 61.6317 214.806C57.1601 211.503 52.1469 207.501 46.6845 202.758C54.0954 184.132 40.8589 160.612 40.2909 159.614L40.2512 159.548C40.2263 159.51 40.1975 159.475 40.1654 159.442L40.1059 159.37L40.0266 159.304L39.9408 159.231H39.9011C39.7694 159.144 39.6209 159.086 39.4652 159.059H39.4124H39.0755C39.0009 159.068 38.9276 159.085 38.8576 159.112H38.8047L38.6528 159.178H38.6066C38.4808 159.256 38.3709 159.357 38.2829 159.475C38.2451 159.528 38.2119 159.583 38.1838 159.641V159.68C38.159 159.736 38.1369 159.794 38.1178 159.852V159.892C33.8708 177.798 35.6871 188.782 38.4414 195.222L38.2631 195.057C38.1914 194.806 38.1008 194.561 37.9923 194.324C37.8951 194.11 37.7364 193.931 37.5365 193.808C37.4091 193.634 37.2385 193.497 37.0416 193.409C36.8448 193.321 36.6283 193.285 36.4137 193.306L36.3014 193.194C36.2326 193.046 36.1336 192.913 36.0108 192.804C35.6937 192.52 35.3503 192.243 35.0332 191.979C30.4009 187.509 25.5572 182.534 20.5022 177.051C20.5238 177.002 20.5414 176.952 20.555 176.9C24.4718 162.131 13.23 141.748 12.7545 140.896C12.6289 140.672 12.436 140.495 12.2034 140.388C11.9707 140.281 11.7102 140.25 11.459 140.299C11.2078 140.349 10.9788 140.477 10.8046 140.665C10.6304 140.853 10.5199 141.09 10.489 141.345C8.73862 156.649 11.2683 166.034 13.9038 171.384C2.43742 164.575 -13.9629 163.709 -14.7885 163.663H-14.9206C-14.9887 163.657 -15.0572 163.657 -15.1254 163.663C-15.2697 163.7 -15.4061 163.763 -15.5283 163.848H-15.5613C-15.6099 163.882 -15.6543 163.922 -15.6934 163.967L-15.733 164.007C-15.7741 164.052 -15.8116 164.101 -15.8453 164.152V164.185C-15.8861 164.247 -15.9194 164.313 -15.9444 164.383C-15.9681 164.447 -15.9858 164.514 -15.9972 164.581C-16.0004 164.621 -16.0004 164.661 -15.9972 164.7C-15.9972 164.7 -15.9972 164.746 -15.9972 164.766C-15.9972 164.786 -15.9972 164.859 -15.9972 164.905C-16.0001 164.922 -16.0001 164.94 -15.9972 164.958C-16.0009 164.995 -16.0009 165.033 -15.9972 165.07C-15.9972 165.07 -15.9972 165.123 -15.9972 165.143C-15.9844 165.171 -15.9734 165.199 -15.9642 165.228L-15.9246 165.328C-15.9267 165.347 -15.9267 165.367 -15.9246 165.387L-15.8651 165.493L-15.8255 165.539L-15.7462 165.638L-15.7 165.684L-15.6207 165.757C-14.9602 166.298 -14.2997 166.814 -13.6062 167.309C4.34628 180.816 15.7796 179.112 18.5075 178.419C21.3873 181.563 24.2076 184.535 26.9685 187.336C14.0028 182.349 -0.845279 185.697 -1.62467 185.869C-1.84906 185.923 -2.05361 186.039 -2.21439 186.204C-2.37518 186.37 -2.48558 186.577 -2.53268 186.803C-2.57978 187.029 -2.56165 187.264 -2.48039 187.48C-2.39913 187.695 -2.25812 187.884 -2.07381 188.022L-2.00776 188.062C14.2406 198.663 24.6105 199.02 30.3106 197.606C19.0293 208.287 17.1997 226.008 17.1204 226.867C17.1015 227.073 17.1352 227.28 17.2184 227.47C17.3015 227.659 17.4315 227.824 17.596 227.95C17.6432 227.986 17.6941 228.017 17.7479 228.042C17.9537 228.158 18.1892 228.209 18.4245 228.191C18.6597 228.172 18.884 228.083 19.0689 227.937L19.6105 227.507C19.8848 227.423 20.1194 227.242 20.271 226.999C35.8919 214.343 38.5868 204.317 38.5603 198.855ZM123.798 173.346L137.273 155.711C134.769 161.351 130.423 168.907 123.798 173.346ZM135.839 153.617L121.308 172.593C122.015 168.63 124.901 161.602 135.839 153.617ZM92.2923 228.406C90.7797 225.731 89.2473 221.14 89.538 213.742L92.2923 228.406ZM92.2923 215.09C93.6558 218.762 94.3839 222.64 94.4455 226.556L92.2923 215.09ZM104.01 227.441L121.249 229.099C112.471 230.328 107.068 228.914 103.977 227.441H104.01ZM117.807 226.338L105.02 225.103C109.327 224.588 113.891 225.308 117.774 226.338H117.807ZM103.204 206.649C100.165 201.768 95.7863 191.087 97.6423 171.642L103.204 206.649ZM100.337 173.174C103.428 181.721 106.995 194.621 105.489 205.625L100.337 173.174ZM113.792 202.983C117.913 206.166 126.117 212.534 131.883 217.131C126.163 214.581 118.164 210.017 113.759 202.983H113.792ZM132.946 214.872C127.213 210.308 119.386 204.238 115.337 201.107C119.181 201.972 125.641 204.991 132.913 214.885L132.946 214.872ZM115.436 198.306C124.551 194.694 137.563 190.803 145.232 188.61C138.686 192.97 127.008 199.297 115.403 198.32L115.436 198.306ZM143.105 186.701C135.469 188.908 123.798 192.448 115.192 195.797C118.468 192.316 126.209 187.091 143.072 186.715L143.105 186.701ZM84.9408 159.449L115.423 127.745C109.366 137.428 98.2896 152.712 84.9078 159.462L84.9408 159.449ZM114.802 124.865L83.2566 157.672C85.5749 151.206 92.7414 138.148 114.802 124.865ZM84.0095 131.979C86.209 121.682 91.3543 100.499 94.3332 88.3459C94.1284 99.766 92.4045 119.172 84.0294 131.979H84.0095ZM92.18 86.9523C89.3134 98.6366 84.1879 119.726 81.8299 130.618C80.5683 123.795 80.2711 109.165 92.1998 86.9523H92.18ZM79.2275 133.187L47.7083 101.166C57.3979 107.461 72.9461 119.271 79.2473 133.141L79.2275 133.187ZM45.1191 101.946L76.5393 133.861C69.9739 131.213 57.497 123.577 45.1191 101.946ZM77.4838 170.46C57.9131 158.32 41.2618 140.526 34.3529 132.619C61.3014 145.334 73.316 162.824 77.5102 170.46H77.4838ZM34.0029 135.856C40.1587 142.752 51.5656 154.667 65.3701 165.05C68.8048 167.633 72.3913 170.123 76.0769 172.415C52.7876 169.931 39.419 147.468 34.0029 135.856ZM62.4045 186.279C66.711 192.719 74.3332 206.398 71.2618 218.782L62.4045 186.279ZM60.5089 188.623L68.9699 219.667L68.6 219.396C64.4917 216.272 57.5498 208.036 60.5089 188.623ZM59.9408 220.638L41.9355 224.126C47.3186 222.144 53.8972 220.414 59.9408 220.618V220.638ZM37.9461 227.369L59.419 223.207C55.456 225.275 48.6726 227.507 37.9461 227.349V227.369ZM45.4494 197.963L41.3278 167.864C44.3529 175.255 47.9659 187.236 45.4494 197.963ZM38.8443 167.421L43.1442 198.861C40.1654 194.984 35.806 185.836 38.8443 167.421ZM16.4731 171.45C14.4916 167.844 12.2063 161.543 12.1006 151.596L16.4731 171.45ZM14.4057 150.876C16.5524 156.365 18.7452 163.63 18.6924 170.354L14.4057 150.876ZM13.164 173.941L-4.161 167.593C1.37401 168.723 7.96583 170.658 13.1838 173.941H13.164ZM-7.13327 169.086L13.0187 176.464C8.77165 176.259 1.90902 174.786 -7.11345 169.086H-7.13327ZM30.8192 192.131C23.131 190.605 12.5761 188.571 5.9579 187.302C12.6884 186.794 22.8536 187.131 30.8391 192.131H30.8192ZM4.80863 189.548C11.6514 190.869 23.3622 193.122 31.3939 194.707C27.5564 196.239 19.1548 197.461 4.80863 189.548ZM32.8404 198.452C29.2803 204.462 23.8707 214.733 20.6607 220.909C22.1865 214.575 25.5947 204.753 32.8404 198.452ZM23.2565 221.193C27.2988 213.432 33.0782 202.573 36.0504 197.804C36.3476 201.728 35.1257 210.103 23.2565 221.193Z" fill="white" fill-opacity="0.33"/>
<g opacity="0.44">
<path opacity="0.44" d="M142.992 187.193C143.29 187.195 143.579 187.298 143.811 187.484C144.056 187.646 144.268 187.852 144.438 188.092C144.452 188.111 144.461 188.133 144.465 188.156C144.47 188.179 144.47 188.202 144.465 188.225C144.46 188.248 144.45 188.27 144.437 188.289C144.423 188.308 144.406 188.324 144.386 188.336C144.367 188.344 144.347 188.348 144.326 188.348C144.306 188.348 144.286 188.344 144.267 188.336C143.983 188.291 143.71 188.194 143.461 188.052C143.197 187.925 142.984 187.713 142.853 187.451C142.832 187.405 142.829 187.353 142.845 187.305C142.861 187.257 142.895 187.217 142.939 187.193H142.992Z" fill="white"/>
</g>
<g opacity="0.44">
<path opacity="0.44" d="M146.792 167.488C146.745 167.932 146.606 168.362 146.382 168.749C146.18 169.146 145.929 169.517 145.636 169.852C145.604 169.883 145.561 169.9 145.517 169.9C145.473 169.9 145.43 169.883 145.398 169.852C145.377 169.832 145.361 169.807 145.352 169.78C145.343 169.752 145.34 169.722 145.345 169.694C145.425 169.262 145.561 168.843 145.748 168.445C145.909 168.034 146.16 167.664 146.481 167.362C146.515 167.329 146.56 167.311 146.607 167.311C146.654 167.311 146.699 167.329 146.732 167.362C146.75 167.378 146.765 167.397 146.775 167.419C146.785 167.44 146.791 167.464 146.792 167.488Z" fill="white"/>
</g>
<g style="mix-blend-mode:multiply" opacity="0.14">
<g style="mix-blend-mode:multiply" opacity="0.14">
<path d="M129.414 191.303C129.414 191.176 127.375 191.25 124.131 190.88C120.888 190.51 116.471 189.644 111.537 188.767C107.315 187.938 102.995 187.725 98.7108 188.133C97.414 188.289 96.134 188.561 94.8861 188.947C94.4204 189.056 93.9748 189.238 93.5654 189.486C93.5654 189.623 95.5306 188.947 98.7636 188.683C103.009 188.432 107.268 188.716 111.442 189.528C116.345 190.384 120.824 191.218 124.121 191.408C125.419 191.484 126.721 191.484 128.019 191.408C128.487 191.437 128.956 191.401 129.414 191.303Z" fill="#A54F46"/>
</g>
</g>
<g style="mix-blend-mode:multiply" opacity="0.14">
<g style="mix-blend-mode:multiply" opacity="0.14">
<path d="M186.964 192.253C186.604 191.899 186.19 191.603 185.739 191.376C184.539 190.684 183.258 190.144 181.925 189.77C179.954 189.221 177.925 188.909 175.881 188.84C173.386 188.756 170.889 188.865 168.411 189.168L161.015 190.097C159.021 190.349 157.014 190.493 155.004 190.531C151.57 190.583 149.467 190.118 149.446 190.256C149.91 190.461 150.401 190.597 150.904 190.657C152.253 190.913 153.621 191.055 154.993 191.08C157.029 191.125 159.066 191.033 161.089 190.805C163.372 190.583 165.854 190.235 168.485 189.939C170.938 189.637 173.41 189.506 175.881 189.548C177.882 189.581 179.873 189.833 181.819 190.298C183.585 190.808 185.305 191.462 186.964 192.253Z" fill="#A54F46"/>
</g>
</g>
<path d="M231.963 64.7569L228.601 63.918C228.162 63.7906 227.769 63.5409 227.467 63.1982C227.166 62.8555 226.968 62.4339 226.897 61.9828L226.177 58.3962C226.135 58.2616 226.051 58.1439 225.938 58.0603C225.824 57.9767 225.687 57.9316 225.546 57.9316C225.405 57.9316 225.268 57.9767 225.154 58.0603C225.041 58.1439 224.957 58.2616 224.915 58.3962L224.308 61.6987C224.23 62.2321 224.003 62.7326 223.652 63.1418C223.301 63.551 222.841 63.8523 222.326 64.0105L219.215 64.8361C219.04 64.8361 218.872 64.9057 218.748 65.0296C218.624 65.1535 218.555 65.3215 218.555 65.4966C218.555 65.6718 218.624 65.8398 218.748 65.9637C218.872 66.0876 219.04 66.1571 219.215 66.1571L222.333 66.9299C222.844 67.0869 223.301 67.3844 223.651 67.7884C224.002 68.1925 224.231 68.6869 224.314 69.2153L224.975 72.5178C225.017 72.6524 225.1 72.7701 225.214 72.8537C225.327 72.9373 225.465 72.9824 225.606 72.9824C225.747 72.9824 225.884 72.9373 225.997 72.8537C226.111 72.7701 226.195 72.6524 226.236 72.5178L226.897 68.9114C226.962 68.4625 227.152 68.0411 227.447 67.6962C227.742 67.3513 228.128 67.097 228.561 66.963L231.963 66.0845C232.139 66.0845 232.308 66.0145 232.432 65.8901C232.557 65.7656 232.627 65.5967 232.627 65.4207C232.627 65.2446 232.557 65.0758 232.432 64.9513C232.308 64.8268 232.139 64.7569 231.963 64.7569Z" fill="#F2BC36"/>
<path d="M39.9072 56.7763L36.5453 57.6152C36.1068 57.7426 35.7136 57.9923 35.4118 58.335C35.11 58.6777 34.9121 59.0993 34.8412 59.5504L34.1212 63.137C34.0794 63.2716 33.9956 63.3893 33.8822 63.4729C33.7687 63.5565 33.6314 63.6016 33.4904 63.6016C33.3495 63.6016 33.2122 63.5565 33.0987 63.4729C32.9853 63.3893 32.9015 63.2716 32.8597 63.137L32.252 59.8345C32.1745 59.3011 31.9471 58.8006 31.5963 58.3914C31.2455 57.9822 30.7858 57.6809 30.2705 57.5227L27.1595 56.6971C26.9844 56.6971 26.8163 56.6275 26.6925 56.5036C26.5686 56.3797 26.499 56.2117 26.499 56.0366C26.499 55.8614 26.5686 55.6934 26.6925 55.5695C26.8163 55.4457 26.9844 55.3761 27.1595 55.3761L30.2771 54.6033C30.7884 54.4463 31.2452 54.1488 31.5956 53.7448C31.946 53.3407 32.1757 52.8463 32.2586 52.3179L32.9191 49.0154C32.9609 48.8808 33.0447 48.7631 33.1582 48.6795C33.2717 48.5959 33.4089 48.5508 33.5499 48.5508C33.6908 48.5508 33.8281 48.5959 33.9416 48.6795C34.0551 48.7631 34.1389 48.8808 34.1807 49.0154L34.8412 52.6218C34.9059 53.0707 35.0966 53.4921 35.3913 53.837C35.6859 54.1819 36.0723 54.4362 36.5056 54.5702L39.9072 55.4487C40.0833 55.4487 40.2521 55.5187 40.3766 55.6431C40.5011 55.7676 40.571 55.9365 40.571 56.1125C40.571 56.2886 40.5011 56.4574 40.3766 56.5819C40.2521 56.7064 40.0833 56.7763 39.9072 56.7763Z" fill="#F2BC36"/>
<path d="M244.241 44.8497L242.26 44.3609C242.001 44.2841 241.769 44.1353 241.591 43.9318C241.413 43.7283 241.297 43.4786 241.256 43.2117L240.826 41.0914C240.81 41.0053 240.764 40.9276 240.696 40.8717C240.629 40.8158 240.544 40.7852 240.456 40.7852C240.369 40.7852 240.284 40.8158 240.216 40.8717C240.149 40.9276 240.103 41.0053 240.086 41.0914L239.723 43.0729C239.672 43.3809 239.537 43.6688 239.333 43.9052C239.129 44.1417 238.864 44.3176 238.567 44.4138L236.731 44.8959C236.642 44.9161 236.562 44.966 236.505 45.0374C236.448 45.1088 236.417 45.1975 236.417 45.2889C236.417 45.3804 236.448 45.4691 236.505 45.5405C236.562 45.6119 236.642 45.6618 236.731 45.6819L238.567 46.1707C238.868 46.2585 239.138 46.4288 239.347 46.6623C239.556 46.8958 239.696 47.1831 239.75 47.4917L240.139 49.4732C240.159 49.5575 240.206 49.6327 240.274 49.6866C240.342 49.7404 240.426 49.7697 240.512 49.7697C240.599 49.7697 240.683 49.7404 240.751 49.6866C240.819 49.6327 240.866 49.5575 240.886 49.4732L241.282 47.3464C241.317 47.0779 241.427 46.8247 241.6 46.6165C241.773 46.4083 242.002 46.2537 242.26 46.1707L244.241 45.6423C244.334 45.6253 244.418 45.5763 244.478 45.5039C244.538 45.4315 244.571 45.3403 244.571 45.246C244.571 45.1517 244.538 45.0605 244.478 44.9881C244.418 44.9157 244.334 44.8667 244.241 44.8497Z" fill="#F2BC36"/>
<path d="M52.1854 76.6816L50.2038 77.1703C49.9449 77.2472 49.713 77.396 49.5353 77.5995C49.3576 77.8029 49.2412 78.0526 49.1999 78.3196L48.7706 80.4398C48.7542 80.5259 48.7083 80.6037 48.6408 80.6596C48.5733 80.7155 48.4883 80.7461 48.4007 80.7461C48.313 80.7461 48.2281 80.7155 48.1606 80.6596C48.093 80.6037 48.0471 80.5259 48.0308 80.4398L47.6675 78.4583C47.6161 78.1504 47.4812 77.8625 47.2773 77.626C47.0735 77.3896 46.8086 77.2137 46.5116 77.1175L44.6754 76.6353C44.5863 76.6152 44.5066 76.5653 44.4495 76.4939C44.3924 76.4225 44.3613 76.3338 44.3613 76.2423C44.3613 76.1509 44.3924 76.0622 44.4495 75.9908C44.5066 75.9193 44.5863 75.8695 44.6754 75.8493L46.5116 75.3605C46.8124 75.2727 47.0826 75.1024 47.2915 74.869C47.5005 74.6355 47.6399 74.3482 47.6939 74.0395L48.0836 72.058C48.1032 71.9737 48.1507 71.8985 48.2185 71.8447C48.2863 71.7908 48.3703 71.7615 48.4568 71.7615C48.5434 71.7615 48.6274 71.7908 48.6951 71.8447C48.7629 71.8985 48.8104 71.9737 48.83 72.058L49.2263 74.1849C49.2609 74.4534 49.3712 74.7065 49.5443 74.9147C49.7174 75.1229 49.9461 75.2775 50.2038 75.3605L52.1854 75.889C52.2781 75.9059 52.3619 75.9549 52.4222 76.0273C52.4826 76.0997 52.5156 76.191 52.5156 76.2852C52.5156 76.3795 52.4826 76.4708 52.4222 76.5432C52.3619 76.6156 52.2781 76.6646 52.1854 76.6816Z" fill="#F2BC36"/>
<g style="mix-blend-mode:multiply" opacity="0.14">
<g style="mix-blend-mode:multiply" opacity="0.14">
<path d="M141.777 171.639C146.364 171.483 150.91 170.726 155.301 169.389C155.246 169.093 155.218 168.792 155.216 168.491V148.564L121.755 153.699L121.301 166.251C121.272 167.215 120.952 168.147 120.382 168.924C127.339 170.889 134.55 171.804 141.777 171.639Z" fill="#FCC1A8"/>
</g>
</g>
<g style="mix-blend-mode:multiply" opacity="0.1">
<g style="mix-blend-mode:multiply" opacity="0.1">
<path d="M143.33 118.589C142.421 114.109 141.502 109.524 142.273 105.012C143.044 100.501 145.707 96.0318 150.018 94.5315C151.793 93.9552 153.682 93.8174 155.522 94.1301C157.822 94.5182 159.993 95.4596 161.848 96.8731C163.704 98.2867 165.187 100.13 166.172 102.244C167.07 104.486 167.68 106.833 167.989 109.228C163.446 110.552 158.868 111.732 154.254 112.768" fill="#FCC1A8"/>
</g>
</g>
<g style="mix-blend-mode:multiply" opacity="0.1">
<g style="mix-blend-mode:multiply" opacity="0.1">
<path d="M99.9791 116.962C99.6442 114.807 99.7575 112.607 100.312 110.498C100.866 108.389 101.85 106.417 103.202 104.706C104.584 103.023 106.388 101.737 108.43 100.978C110.471 100.219 112.677 100.014 114.824 100.385C116.681 100.85 118.412 101.718 119.895 102.929C121.378 104.14 122.576 105.663 123.403 107.39C125.033 110.871 125.659 114.739 125.209 118.557C125.222 119.944 124.696 121.281 123.741 122.287C122.061 123.682 119.515 122.815 117.571 121.885" fill="#FCC1A8"/>
</g>
</g>
<path d="M162.814 15.012C163.728 12.9449 160.939 11.7671 159.305 11.5267C157.79 11.3112 156.245 11.5155 154.838 12.1173C153.431 12.7191 152.216 13.6954 151.325 14.9399C147.455 20.0596 150.652 29.5299 157.959 27.9675C158.201 27.9048 158.416 27.7633 158.569 27.5654C158.722 27.3674 158.806 27.1242 158.806 26.8739C158.806 26.6235 158.722 26.3803 158.569 26.1824C158.416 25.9844 158.201 25.843 157.959 25.7802C156.998 25.7454 156.055 25.5141 155.186 25.1007C154.318 24.6873 153.544 24.1006 152.911 23.3766C152.316 22.4812 151.972 21.4431 151.912 20.3698C151.853 19.2964 152.082 18.2267 152.575 17.2714C152.926 16.0925 153.613 15.0417 154.552 14.2476C155.491 13.4535 156.642 12.9506 157.863 12.8006C160.05 12.8006 160.819 13.7381 162.189 15.0841C162.23 15.1387 162.282 15.1832 162.343 15.2138C162.403 15.2444 162.47 15.2604 162.538 15.2604C162.606 15.2604 162.673 15.2444 162.733 15.2138C162.794 15.1832 162.846 15.1387 162.886 15.0841L162.814 15.012Z" fill="#A1554C"/>
<path d="M193.797 68.7565C194.733 67.2641 195.217 65.533 195.192 63.7717C195.166 62.0104 194.632 60.2941 193.653 58.8295C192.235 56.2336 188.485 52.6041 185.264 54.3828C185.112 54.4746 184.991 54.6085 184.914 54.7683C184.837 54.9281 184.808 55.1068 184.831 55.2827C184.854 55.4586 184.928 55.624 185.043 55.7587C185.158 55.8934 185.31 55.9916 185.481 56.0413C186.73 56.2039 187.967 56.4529 189.182 56.7865C190.541 57.4828 191.625 58.6178 192.259 60.0073C192.856 61.2605 193.197 62.6201 193.263 64.0067C193.329 65.3933 193.119 66.7792 192.643 68.0835C192.451 68.7084 193.364 69.3093 193.797 68.7565Z" fill="#A1554C"/>
<path d="M196.898 56.741C196.295 55.7966 195.473 55.0111 194.503 54.4506C193.533 53.8901 192.442 53.571 191.322 53.5201C189.615 53.3759 186.515 53.8326 187.188 56.2362C187.233 56.3807 187.309 56.5132 187.412 56.6241C187.515 56.7349 187.642 56.8212 187.782 56.8766C187.923 56.932 188.075 56.955 188.225 56.944C188.376 56.933 188.523 56.8883 188.654 56.8131C189.093 56.4349 189.607 56.1537 190.162 55.988C190.717 55.8223 191.301 55.7759 191.875 55.8516C193.408 55.9209 194.888 56.4391 196.129 57.3419C196.514 57.7505 197.163 57.2217 196.898 56.741Z" fill="#A1554C"/>
<path d="M110.103 136.349C91.427 143.825 76.1399 159.809 60.4923 165.457C67.4628 154.737 77.4619 131.013 89.3358 120.077L84.3363 108.996C73.3758 120.726 49.8443 137.07 37.2012 155.266C29.125 166.611 24.486 183.364 28.428 189.493C35.3264 200.454 86.2592 192.714 103.109 184.181C119.958 175.649 110.103 136.349 110.103 136.349Z" fill="#FCC1A8"/>
<path d="M28.428 189.493C35.3264 200.454 86.2592 192.714 103.109 184.181C103.624 183.895 104.115 183.565 104.575 183.196L97.7485 170.264C93.422 191.416 37.1051 197.906 30.447 188.676C23.789 179.446 37.2012 155.266 37.2012 155.266C29.125 166.611 24.486 183.364 28.428 189.493Z" fill="#CB8B6F" fill-opacity="0.48"/>
<path d="M197.162 34.3617C200.335 30.4198 196.561 23.2089 192.355 18.5699C188.148 13.9309 179.015 10.5178 174.448 15.0366C174.448 15.0366 174.448 13.7146 172.284 12.1763C167.477 8.93139 161.781 13.0416 158.944 16.7432C156.108 20.4448 155.507 26.6461 156.012 32.1504L178.63 56.4751C182.101 57.2365 185.725 56.879 188.981 55.4541C192.236 54.0292 194.957 51.6099 196.753 48.5431C199.349 44.2887 200.84 36.6452 197.162 34.3617Z" fill="#A1554C"/>
<path d="M119.406 71.3507C119.406 71.3507 112.651 64.5004 113.541 55.5589C114.093 50.0787 112.483 36.0655 133.659 27.1481C143.971 22.7975 156.013 20.8506 171.901 29.744C193.533 41.9063 192.019 67.8655 181.083 83.7534C171.805 97.1897 163.632 98.1512 163.632 98.1512L119.406 71.3507Z" fill="#B66354"/>
<path d="M180.77 82.024L181.924 82.4566C192.043 66.4725 193.029 41.2825 171.925 29.5769C167.621 27.107 162.97 25.3 158.128 24.2168C172.55 32.3651 163.176 51.1134 163.176 51.1134L180.77 82.024Z" fill="#A1554C"/>
<path d="M181.082 83.7326C182.254 82.025 183.298 80.2335 184.207 78.3725C178.342 68.5417 169.016 56.9082 155.363 50.7549C148.971 47.6606 142.011 45.9145 134.915 45.6251C127.819 45.3356 120.74 46.509 114.117 49.0724C113.732 51.7163 113.732 53.9998 113.564 55.5621C112.675 64.4315 119.429 71.354 119.429 71.354L163.632 98.1544C163.632 98.1544 171.804 97.1929 181.082 83.7326Z" fill="#A1554C"/>
<path d="M178.558 216.077C177.116 196.848 202.089 161.972 198.82 146.06C193.296 141.564 187.12 137.933 180.505 135.292C176.419 133.633 172.501 132.263 169.52 131.133C169.52 131.133 138.874 132.383 128.298 130.725C123.154 132.455 113.372 135.34 110.103 136.349C102.892 154.184 99.0219 169.808 100.079 179.254C101.69 193.676 113.468 196.56 112.867 217.52C112.578 227.951 106.521 243.959 101.882 258.79C101.882 258.79 116.304 267.827 143.753 266.914C160.343 266.342 176.666 262.571 191.826 255.809C188.413 241.916 179.808 232.758 178.558 216.077Z" fill="#FCC1A8"/>
<path d="M163.728 96.8086C163.728 96.8086 139.283 103.659 134.164 112C139.668 119.523 133.274 130.147 124.381 132.046C124.381 132.046 125.126 141.324 144.74 140.891C165.146 140.434 169.521 131.132 169.521 131.132C169.521 131.132 161.012 125.748 159.57 117.047C158.794 113.571 158.764 109.971 159.481 106.482C160.198 102.994 161.645 99.6971 163.728 96.8086Z" fill="#FCC1A8"/>
<path d="M135.75 114.98C136.549 117.509 136.439 120.239 135.438 122.695C137.419 126.115 140.093 129.084 143.288 131.41C146.484 133.736 150.13 135.369 153.993 136.204C162.067 138.275 170.595 137.668 178.294 134.473C175.049 133.223 172.021 132.069 169.617 131.228C169.617 131.228 161.108 125.844 159.666 117.143C158.891 113.667 158.86 110.066 159.577 106.578C160.294 103.09 161.741 99.7928 163.824 96.9043L135.75 114.98Z" fill="#E4A78D"/>
<path d="M172.044 80.3171C168.559 79.7883 166.155 84.3071 166.155 84.3071C161.132 79.4999 161.973 66.8328 161.973 66.8328C150.801 60.3697 140.329 52.7656 130.726 44.1426C117.314 45.104 114.934 60.6074 114.934 60.6074C106.69 99.5221 125.126 117.261 131.76 118.511C136.11 119.496 154.041 114.761 163.584 98.1761C166.177 98.8435 168.923 98.5639 171.329 97.3875C173.735 96.2111 175.642 94.2151 176.707 91.7584C179.015 87.1194 178.149 80.9421 172.044 80.3171Z" fill="#FCC1A8"/>
<path d="M139.019 64.8383C138.49 67.2419 142.528 64.4537 149.162 67.2419C153.176 68.9245 156.061 73.2029 156.758 72.7222C157.455 72.2415 156.013 68.2995 150.244 65.0787C145.605 62.4587 139.404 63.1317 139.019 64.8383Z" fill="#A1554C"/>
<path d="M125.822 64.0457C126.111 66.233 122.145 64.5745 117.89 66.0648C114.838 67.1464 113.348 69.5981 112.723 69.2376C112.098 68.877 112.53 65.7523 116.809 63.589C120.342 61.8104 125.654 62.6997 125.822 64.0457Z" fill="#A1554C"/>
<path d="M173.655 90.9426C172.429 93.3463 170.17 94.6202 168.631 93.8029C167.093 92.9857 166.877 90.4379 168.102 88.0583C169.328 85.6787 171.612 84.3807 173.126 85.198C174.64 86.0152 174.905 88.539 173.655 90.9426Z" fill="#E4A78D"/>
<path d="M98.9266 166.801C102.003 162.547 124.261 161.994 127.289 163.821C130.318 165.648 136.135 258.956 136.135 258.956C136.135 258.956 136.976 276.166 124.549 275.133C116.293 274.644 108.079 273.608 99.9602 272.032C99.6958 257.755 106.69 237.564 107.339 220.066C107.868 205.98 103.373 196.029 100.128 187.521C96.8835 179.012 96.7393 169.83 98.9266 166.801Z" fill="#AF1F4C"/>
<path d="M136.135 258.955L131.063 200.931C128.264 201.136 125.455 201.184 122.651 201.075C115.248 201.029 108.099 198.373 102.46 193.576C105.88 201.96 107.517 210.965 107.267 220.016C106.691 237.562 99.696 257.753 99.9604 272.03C108.079 273.607 116.294 274.643 124.55 275.131C136.976 276.165 136.135 258.955 136.135 258.955Z" fill="#AF1F4C"/>
<path d="M113.276 56.3544C113.276 56.3544 123.154 45.5862 147.359 54.8401C161.828 60.456 173.48 71.5807 179.76 85.7748C183.066 82.0951 185.426 77.6646 186.634 72.8673C179.723 58.2831 167.558 46.8477 152.575 40.851C128.106 31.5971 116.088 42.2692 116.088 42.2692C113.638 46.5315 112.651 51.4782 113.276 56.3544Z" fill="#E74779"/>
<path d="M190.023 179.372C187.812 176.006 144.21 154.47 126.735 161.609C122.721 164.854 117.746 171.223 119.236 186.198C120.51 199.033 124.74 202.47 126.447 221.771C128.154 241.073 124.524 275.132 124.524 275.132C138.181 276.203 151.886 276.524 165.578 276.093C183.677 275.204 199.229 274.339 198.964 272.296C196.825 251.384 183.052 233.357 183.773 218.454C184.831 197.086 194.494 186.198 190.023 179.372Z" fill="#E74779"/>
<path d="M165.603 276.024C183.702 275.134 199.253 274.269 198.989 272.226C196.85 251.314 183.077 233.287 183.798 218.385C184.832 197.016 194.494 186.128 190.024 179.302C187.43 177.126 184.531 175.344 181.419 174.014C174.208 191.536 147.335 204.972 122.746 201.078C124.825 207.817 126.147 214.766 126.688 221.798C128.395 241.027 124.765 275.158 124.765 275.158C138.352 276.189 151.985 276.478 165.603 276.024Z" fill="#E74779"/>
<path d="M120.896 94.1403C118.636 99.0918 115.223 102.265 110.055 100.87C105.897 99.7168 103.518 93.8038 105.248 88.636C105.97 86.3886 107.493 84.4852 109.528 83.2884C111.562 82.0916 113.966 81.6851 116.281 82.1463C120.559 82.9875 122.939 89.7417 120.896 94.1403Z" fill="#F4EEED"/>
<path d="M82.1486 111.037C88.0855 104.475 89.9123 99.0192 94.5032 95.0532C97.03 92.7987 99.9135 90.9793 103.036 89.6691C107.459 87.7702 110.439 86.0636 111.064 86.7607C111.689 87.4577 111.208 90.7748 107.17 92.4092C107.17 92.4092 113.852 91.5679 113.924 93.1543C114.069 96.1348 109.117 95.9185 105.271 97.6251C103.099 98.5422 101.184 99.9783 99.695 101.807C99.4066 102.24 101.93 101.158 104.647 101.279C107.363 101.399 110.68 102.336 110.583 103.442C110.391 105.413 106.858 104.427 103.757 104.812C102.782 104.862 101.835 105.159 101.006 105.676C100.178 106.194 99.4949 106.914 99.022 107.768C97.3578 112.882 93.8775 117.209 89.2393 119.931C85.8021 121.806 82.9177 118.993 82.0284 115.748C81.6688 114.193 81.7101 112.572 82.1486 111.037Z" fill="#FCC1A8"/>
<path d="M141.11 76.521C141.202 77.1456 141.469 77.7313 141.88 78.2103C142.291 78.6893 142.83 79.042 143.433 79.2276C144.037 79.4131 144.68 79.4238 145.29 79.2586C145.899 79.0933 146.449 78.7588 146.876 78.2938C147.303 77.8287 147.59 77.2523 147.702 76.6311C147.815 76.0099 147.75 75.3695 147.514 74.784C147.277 74.1986 146.88 73.692 146.368 73.323C145.856 72.954 145.249 72.7378 144.619 72.6992C143.652 72.7551 142.745 73.1854 142.09 73.8988C141.435 74.6122 141.083 75.5528 141.11 76.521Z" fill="#5E454D"/>
<path d="M152.575 79.6709C152.194 77.7844 151.243 76.0606 149.85 74.7323C148.457 73.404 146.69 72.5353 144.788 72.2437C144.189 72.1707 143.582 72.2278 143.008 72.4112C142.434 72.5946 141.906 72.8999 141.461 73.3063C141.016 73.7126 140.664 74.2103 140.429 74.7654C140.194 75.3205 140.082 75.9197 140.101 76.5221C140.724 75.9506 141.473 75.5333 142.287 75.3037C143.101 75.0741 143.957 75.0387 144.788 75.2002C147.589 76.3009 150.212 77.8072 152.575 79.6709Z" fill="#5E454D"/>
<path d="M149.378 75.0784C149.378 75.0784 152.406 73.492 152.647 73.8044C152.887 74.1169 150.436 76.2081 150.436 76.2081L149.378 75.0784Z" fill="#5E454D"/>
<path d="M150.7 76.5211C151.905 76.234 153.139 76.0808 154.378 76.0645C154.378 76.3289 151.421 77.9393 151.421 77.9393L150.7 76.5211Z" fill="#5E454D"/>
<path d="M116.521 75.5365C116.377 77.6517 117.53 79.4544 119.069 79.5506C120.607 79.6467 121.977 78.0363 122.097 75.8971C122.218 73.7578 121.088 71.9791 119.55 71.883C118.011 71.7869 116.521 73.3973 116.521 75.5365Z" fill="#5E454D"/>
<path d="M125.631 78.3477C125.595 76.6788 124.981 75.0741 123.894 73.8074C122.807 72.5406 121.314 71.6902 119.67 71.4012C116.978 71.0167 114.863 74.4058 115.247 76.2085C115.732 75.4922 116.401 74.9199 117.183 74.5518C117.966 74.1838 118.833 74.0337 119.694 74.1173C122.063 74.8788 124.138 76.3569 125.631 78.3477Z" fill="#5E454D"/>
<path d="M117.314 73.3983C117.314 73.3983 114.742 71.4754 114.502 71.7639C114.262 72.0523 116.209 74.4319 116.209 74.4319L117.314 73.3983Z" fill="#5E454D"/>
<path d="M115.943 74.6692C114.885 74.2387 113.78 73.9322 112.65 73.7559C112.65 73.9962 115.054 75.9672 115.054 75.9672L115.943 74.6692Z" fill="#5E454D"/>
<path d="M135.75 83.8742C135.736 83.9889 135.69 84.0973 135.616 84.1861C135.542 84.275 135.444 84.3407 135.334 84.3754C135.223 84.41 135.105 84.4121 134.994 84.3814C134.883 84.3507 134.782 84.2885 134.705 84.2023C134.628 84.1161 134.578 84.0095 134.56 83.8953C134.542 83.7811 134.557 83.6642 134.604 83.5585C134.651 83.4528 134.727 83.3629 134.824 83.2995C134.921 83.2362 135.034 83.202 135.149 83.2012C135.315 83.219 135.468 83.2977 135.579 83.4221C135.69 83.5464 135.751 83.7075 135.75 83.8742Z" fill="#E09191"/>
<path d="M144.643 88.6593C144.65 88.7703 144.614 88.8796 144.542 88.9646C144.471 89.0497 144.369 89.1039 144.259 89.116C144.146 89.1041 144.042 89.0508 143.966 88.9664C143.891 88.882 143.849 88.7726 143.85 88.6593C143.835 88.5991 143.834 88.5363 143.847 88.4756C143.86 88.415 143.886 88.3581 143.925 88.3092C143.963 88.2603 144.012 88.2208 144.067 88.1936C144.123 88.1665 144.184 88.1523 144.247 88.1523C144.309 88.1523 144.37 88.1665 144.426 88.1936C144.481 88.2208 144.53 88.2603 144.568 88.3092C144.607 88.3581 144.633 88.415 144.646 88.4756C144.659 88.5363 144.658 88.5991 144.643 88.6593Z" fill="#E09191"/>
<path d="M119.454 82.3625C119.457 82.4161 119.45 82.4699 119.432 82.5208C119.414 82.5716 119.387 82.6184 119.351 82.6586C119.315 82.6988 119.272 82.7316 119.224 82.755C119.175 82.7784 119.123 82.792 119.069 82.7951C118.959 82.789 118.855 82.7407 118.779 82.6602C118.703 82.5797 118.66 82.4732 118.66 82.3625C118.646 82.3022 118.644 82.2394 118.657 82.1788C118.67 82.1181 118.697 82.0612 118.735 82.0123C118.773 81.9635 118.822 81.9239 118.878 81.8968C118.934 81.8696 118.995 81.8555 119.057 81.8555C119.119 81.8555 119.18 81.8696 119.236 81.8968C119.292 81.9239 119.341 81.9635 119.379 82.0123C119.417 82.0612 119.444 82.1181 119.457 82.1788C119.47 82.2394 119.469 82.3022 119.454 82.3625Z" fill="#E09191"/>
<path d="M137.553 89.2387C137.569 89.3091 137.569 89.3822 137.553 89.4526C137.537 89.523 137.505 89.5888 137.46 89.6453C137.415 89.7017 137.358 89.7473 137.293 89.7786C137.228 89.8099 137.156 89.8262 137.084 89.8262C137.012 89.8262 136.941 89.8099 136.876 89.7786C136.811 89.7473 136.753 89.7017 136.708 89.6453C136.663 89.5888 136.632 89.523 136.616 89.4526C136.6 89.3822 136.599 89.3091 136.616 89.2387C136.612 89.1778 136.621 89.1168 136.643 89.0598C136.665 89.0028 136.698 88.9511 136.742 88.908C136.785 88.8649 136.836 88.8313 136.893 88.8096C136.95 88.7879 137.011 88.7785 137.072 88.782C137.134 88.7787 137.196 88.7881 137.254 88.8096C137.313 88.8311 137.366 88.8642 137.411 88.9069C137.456 88.9497 137.492 89.0011 137.516 89.0581C137.54 89.1152 137.553 89.1766 137.553 89.2387Z" fill="#E09191"/>
<path d="M149.066 84.7425C149.082 84.8129 149.082 84.886 149.066 84.9564C149.049 85.0268 149.018 85.0926 148.973 85.1491C148.928 85.2055 148.871 85.2511 148.805 85.2824C148.74 85.3138 148.669 85.33 148.597 85.33C148.525 85.33 148.453 85.3138 148.388 85.2824C148.323 85.2511 148.266 85.2055 148.221 85.1491C148.176 85.0926 148.144 85.0268 148.128 84.9564C148.112 84.886 148.112 84.8129 148.128 84.7425C148.128 84.6214 148.176 84.5052 148.262 84.4195C148.348 84.3339 148.464 84.2858 148.585 84.2858C148.647 84.2825 148.709 84.2919 148.767 84.3134C148.825 84.3349 148.879 84.368 148.923 84.4107C148.968 84.4535 149.004 84.5049 149.029 84.562C149.053 84.619 149.066 84.6804 149.066 84.7425Z" fill="#E09191"/>
<path d="M141.35 85.5832C141.35 85.7617 141.279 85.9328 141.153 86.0591C141.027 86.1853 140.855 86.2562 140.677 86.2562C140.498 86.2562 140.327 86.1853 140.201 86.0591C140.075 85.9328 140.004 85.7617 140.004 85.5832C140.004 85.4047 140.075 85.2335 140.201 85.1073C140.327 84.9811 140.498 84.9102 140.677 84.9102C140.855 84.9102 141.027 84.9811 141.153 85.1073C141.279 85.2335 141.35 85.4047 141.35 85.5832Z" fill="#E09191"/>
<path d="M126.135 82.4836C126.15 82.5438 126.151 82.6067 126.138 82.6673C126.125 82.728 126.099 82.7849 126.061 82.8338C126.022 82.8826 125.973 82.9221 125.918 82.9493C125.862 82.9765 125.801 82.9906 125.739 82.9906C125.677 82.9906 125.615 82.9765 125.56 82.9493C125.504 82.9221 125.455 82.8826 125.417 82.8338C125.379 82.7849 125.352 82.728 125.339 82.6673C125.326 82.6067 125.327 82.5438 125.342 82.4836C125.339 82.4291 125.347 82.3744 125.366 82.3232C125.385 82.272 125.415 82.2255 125.454 82.1869C125.493 82.1482 125.539 82.1182 125.59 82.0989C125.641 82.0796 125.696 82.0715 125.751 82.075C125.803 82.0749 125.855 82.0856 125.904 82.1064C125.952 82.1272 125.995 82.1577 126.032 82.196C126.068 82.2343 126.095 82.2796 126.113 82.3291C126.131 82.3785 126.139 82.4311 126.135 82.4836Z" fill="#E09191"/>
<path d="M122.89 85.0325C122.89 85.1919 122.827 85.3448 122.714 85.4575C122.602 85.5701 122.449 85.6335 122.289 85.6335C122.13 85.6335 121.977 85.5701 121.864 85.4575C121.752 85.3448 121.688 85.1919 121.688 85.0325C121.688 84.8732 121.752 84.7203 121.864 84.6076C121.977 84.4949 122.13 84.4316 122.289 84.4316C122.449 84.4316 122.602 84.4949 122.714 84.6076C122.827 84.7203 122.89 84.8732 122.89 85.0325Z" fill="#E09191"/>
<path d="M198.821 146.059C221.463 162.692 257.95 219.922 240.884 231.147C230.524 237.973 221.391 230.955 212.882 212.254C207.57 200.621 193.941 185.262 180.072 172.787L198.821 146.059Z" fill="#FCC1A8"/>
<path d="M174.953 219.56C172.934 219.32 168.103 217.998 165.002 217.613C161.902 217.228 155.965 217.397 156.037 219.007C156.037 221.074 160.844 221.555 162.094 221.915C163.704 222.42 169.137 221.531 169.761 222.156C170.386 222.781 174.953 219.56 174.953 219.56Z" fill="#FF9696"/>
<path d="M134.163 213.526C133.346 216.531 152.335 250.23 155.796 251.071C161.036 252.321 171.011 246.937 172.237 242.61C173.463 238.284 153.368 205.426 150.604 204.825C146.686 203.912 135.509 208.527 134.163 213.526Z" fill="#D8C8D9"/>
<path d="M150.725 204.754C148.249 204.552 145.763 205 143.514 206.052C148.489 210.86 165.988 239.703 167.55 247.707C169.668 246.549 171.355 244.736 172.357 242.539C173.559 238.213 153.489 205.355 150.725 204.754Z" fill="#AF1F4C"/>
<path d="M137.96 211.677C137.96 211.677 132.841 203.721 132.937 202.063C133.105 199.659 138.633 196.751 140.797 197.736C142.96 198.722 147.142 207.591 147.142 207.591L137.96 211.677Z" fill="#543E50"/>
<path d="M156.228 211.438C154.8 208.905 152.936 206.643 150.724 204.756C146.686 203.915 135.509 208.53 134.163 213.529C133.923 214.395 135.341 217.808 137.528 222.206C143.054 217.509 149.392 213.859 156.228 211.438Z" fill="white"/>
<path d="M143.489 206.051C145.793 208.613 147.868 211.372 149.691 214.296C151.638 213.358 153.777 212.397 156.228 211.435C155.579 210.522 151.83 204.994 150.724 204.753C148.244 204.615 145.766 205.059 143.489 206.051Z" fill="#F9EAE5"/>
<path d="M158.056 225.041C153.811 226.655 150.208 229.608 147.792 233.454C146.278 235.857 148.441 242.035 155.532 242.203C160.197 242.063 164.758 240.792 168.824 238.501L163.272 225.546L158.056 225.041Z" fill="#AF1F4C"/>
<path d="M244.346 224.419C244.514 234.562 230.116 239.946 215.166 238.84C203.556 237.951 184.76 233.624 176.852 233.817C171.806 234.244 166.859 235.46 162.19 237.422C157.383 239.489 153.297 240.787 152.864 239.561C152.071 237.158 163.56 234.754 162.671 232.975C162.43 232.543 159.594 233.624 156.59 234.994C153.128 236.581 149.379 238.456 148.658 237.086C147.937 235.716 151.278 233.721 154.835 231.822C158.392 229.923 162.31 228 162.046 227.159C161.781 226.317 158.633 226.894 156.157 228.216C151.59 230.62 149.523 234.418 147.744 233.023C145.966 231.629 153.898 222.592 163.32 220.356C168.761 219.48 174.279 219.166 179.785 219.419C194.447 219.179 210.695 210.814 224.684 211.078C237.808 211.295 244.226 217.905 244.346 224.419Z" fill="#FCC1A8"/>
<path d="M243.408 228.599C253.503 213.264 220.237 161.802 198.821 146.059C227.424 174.085 245.331 208.553 242.471 224.705C241.677 229.128 236.87 235.209 224.275 236.603C211.68 237.997 193.437 228.19 176.852 233.791C184.759 233.599 203.556 237.925 215.165 238.814C227.881 239.776 240.115 235.978 243.408 228.599Z" fill="#CB8B6F" fill-opacity="0.48"/>
<path d="M230.573 210.548C225.769 207.223 220.02 205.537 214.18 205.741C214.18 205.741 196.562 182.907 181.419 174.109C194.879 186.344 207.859 201.006 212.882 212.255C218.628 210.623 224.621 210.044 230.573 210.548Z" fill="#CB8B6F" fill-opacity="0.48"/>
<path d="M66.7419 167.861C79.9764 155.844 94.4843 145.31 110.007 136.445C87.6775 143.824 76.1401 159.809 60.4925 165.457C56.5025 171.37 49.7002 179.879 49.7002 179.879C56.0289 176.881 61.7938 172.816 66.7419 167.861Z" fill="#CB8B6F" fill-opacity="0.48"/>
<path d="M134.404 139.639C133.346 140.048 136.447 143.845 138.057 144.038C139.668 144.23 144.475 140.168 143.85 139.591C143.225 139.014 140.653 140.408 138.826 140.408C137 140.408 135.413 139.23 134.404 139.639Z" fill="#E4A78D"/>
<path d="M165.964 48.0605C164.532 52.8191 162.615 57.4181 160.243 61.7852C168.788 67.9009 175.529 76.2033 179.761 85.8215C183.067 82.1418 185.427 77.7113 186.635 72.914C181.934 63.0293 174.827 54.4833 165.964 48.0605Z" fill="#AF1F4C"/>
<path d="M127.65 35.661C134.284 29.5558 145.197 27.729 153.729 29.4837C154.475 29.6279 155.027 28.5703 154.282 28.1857C146.879 24.364 132.217 28.9789 127.121 35.1082C126.809 35.4927 127.29 35.9975 127.65 35.661Z" fill="#A1554C"/>
<path d="M148.849 33.1119C152.42 32.8976 156.004 33.1807 159.497 33.9532C162.344 35.0293 165.108 36.3148 167.766 37.799C168.198 37.9913 168.631 37.3904 168.391 37.0058C164.593 31.3332 154.666 30.492 148.705 32.0303C148.579 32.0684 148.471 32.1498 148.4 32.2601C148.329 32.3704 148.3 32.5024 148.317 32.6324C148.335 32.7624 148.398 32.882 148.495 32.9699C148.593 33.0577 148.718 33.1081 148.849 33.1119Z" fill="#A1554C"/>
<path d="M171.42 25.1322C172.694 23.4496 173.246 21.7671 175.241 20.7095C177.198 19.7665 179.409 19.488 181.539 19.9163C185.745 20.6133 187.788 22.8487 190.384 25.9013C190.937 26.5263 191.778 25.9013 191.658 25.1562C190.841 20.4932 184.447 17.9453 180.241 17.9453C176.035 17.9453 170.266 20.1807 170.626 24.9879C170.63 25.0738 170.66 25.1565 170.713 25.2242C170.765 25.292 170.838 25.3413 170.921 25.3653C171.003 25.3892 171.091 25.3866 171.172 25.3577C171.253 25.3288 171.323 25.2751 171.372 25.2043L171.42 25.1322Z" fill="#934945"/>
<path d="M186.009 27.3449C187.455 28.7407 188.6 30.4175 189.374 32.2723C189.677 33.7485 190.054 35.2086 190.504 36.6469C190.557 36.7262 190.628 36.7913 190.712 36.8363C190.796 36.8813 190.89 36.9049 190.985 36.9049C191.08 36.9049 191.174 36.8813 191.258 36.8363C191.341 36.7913 191.413 36.7262 191.465 36.6469C193.148 32.6809 189.783 28.4986 186.658 26.5517C186.553 26.4688 186.419 26.4311 186.286 26.4469C186.153 26.4627 186.032 26.5306 185.949 26.6358C185.866 26.741 185.829 26.8748 185.844 27.0078C185.86 27.1407 185.928 27.262 186.033 27.3449H186.009Z" fill="#934945"/>
<path d="M161.757 19.1947C164.353 16.791 167.31 15.1325 170.723 17.1275C170.858 17.1888 171.012 17.1976 171.153 17.1522C171.295 17.1069 171.415 17.0106 171.49 16.882C171.564 16.7534 171.589 16.6016 171.558 16.456C171.527 16.3105 171.444 16.1815 171.324 16.094C167.934 14.0028 162.671 14.4835 160.916 18.4976C160.862 18.6103 160.847 18.738 160.875 18.8599C160.903 18.9818 160.971 19.0906 161.069 19.1687C161.166 19.2468 161.288 19.2895 161.413 19.2899C161.538 19.2902 161.659 19.2482 161.757 19.1706V19.1947Z" fill="#934945"/>
<path d="M189.567 50.2259C194.807 48.9761 197.018 41.3806 194.807 36.9099C194.254 35.7561 192.403 36.7657 193.076 37.9194C195.047 41.9094 192.763 47.0291 189.206 49.3847C189.095 49.4325 189.007 49.5227 188.961 49.6354C188.916 49.748 188.918 49.874 188.966 49.9856C189.014 50.0971 189.104 50.1851 189.216 50.2302C189.329 50.2753 189.455 50.2738 189.567 50.2259Z" fill="#934945"/>
<path d="M178.751 28.4493C180.896 28.9211 182.833 30.0665 184.28 31.7182C184.808 32.2711 185.169 32.7518 185.866 32.1509C185.988 32.0366 186.075 31.8903 186.118 31.7287C186.16 31.5672 186.156 31.3969 186.106 31.2375C185.001 28.281 181.684 27.6321 178.896 27.584C178.781 27.584 178.671 27.6296 178.59 27.7107C178.508 27.7918 178.463 27.9019 178.463 28.0166C178.463 28.1314 178.508 28.2414 178.59 28.3226C178.671 28.4037 178.781 28.4493 178.896 28.4493H178.751Z" fill="#934945"/>
</g>
<path d="M20.4634 97.3413L19.4946 97.2702L18.3792 97.1902L17.4105 97.1191L16.0996 104.003L17.8727 104.131L18.9881 104.216L20.7611 104.345L20.4634 97.3413Z" fill="#3F152E"/>
<path d="M25.0233 106.229L25.1477 104.496C25.1659 104.253 25.136 104.009 25.0598 103.778C24.9836 103.547 24.8626 103.334 24.7036 103.15C24.5447 102.965 24.351 102.814 24.1336 102.705C23.9162 102.596 23.6795 102.531 23.4369 102.514L13.7183 101.803C13.4736 101.783 13.2276 101.813 12.9945 101.89C12.7614 101.966 12.5459 102.089 12.3606 102.25C12.1753 102.411 12.0238 102.607 11.9151 102.827C11.8064 103.047 11.7427 103.286 11.7275 103.531L11.5986 105.269L25.0233 106.229Z" fill="#671C45"/>
<path d="M10.4693 94.0039L19.3569 94.8216C19.416 94.8282 19.4756 94.8282 19.5347 94.8216L24.2139 94.7638C24.4723 94.7378 24.7328 94.7858 24.9649 94.9022C25.1971 95.0187 25.3913 95.1988 25.5249 95.4215L25.7204 95.7548C26.2759 96.6835 25.5249 98.6566 24.445 98.6255L18.5881 97.6389C18.5125 97.6368 18.4376 97.6233 18.3659 97.5989L10.2782 94.8038C10.2197 94.7841 10.1664 94.7514 10.1221 94.7084C10.0778 94.6653 10.0438 94.6128 10.0225 94.5548C10.0012 94.4968 9.99309 94.4348 9.9989 94.3733C10.0047 94.3118 10.0242 94.2524 10.056 94.1995C10.0985 94.1302 10.1602 94.0749 10.2336 94.0401C10.307 94.0054 10.3889 93.9928 10.4693 94.0039Z" fill="#671C45"/>
<path d="M30.8344 132.34C31.1866 126.079 30.9754 119.798 30.2034 113.574C29.9945 111.894 29.7012 110.139 28.8925 108.628C27.5327 106.091 24.7064 105.678 22.1512 105.282C19.6528 104.889 17.1259 104.704 14.5968 104.731C12.0105 104.753 9.15315 104.731 7.44229 107.06C6.42466 108.437 5.87809 110.135 5.42482 111.766C3.75738 117.806 2.63745 123.984 2.07864 130.225C1.95421 131.558 1.89201 133.042 2.64746 134.167C3.24292 135.055 4.25165 135.566 5.24706 135.944C8.66766 137.254 12.2901 137.957 15.9522 138.024C19.5794 138.499 23.2617 138.341 26.835 137.557C27.8748 137.308 28.9458 136.953 29.6657 136.162C30.5944 135.158 30.7411 133.696 30.8344 132.34Z" fill="#E74779"/>
<path d="M30.1909 113.575C29.982 111.895 29.6887 110.14 28.88 108.629C28.8044 108.491 28.7245 108.362 28.6445 108.238C27.8351 108.202 27.0245 108.268 26.2315 108.433C21.6677 109.389 23.2586 115.988 24.5606 118.912C24.8584 119.652 25.2741 120.34 25.7916 120.947C26.3076 121.546 27.0321 121.925 27.8179 122.009C28.9511 122.076 29.9598 121.512 30.8308 120.801C30.7019 118.388 30.4886 115.975 30.1909 113.575Z" fill="#E74779"/>
<path d="M10.4171 105.109C9.22991 105.395 8.179 106.085 7.4442 107.06C6.42657 108.438 5.88 110.135 5.42673 111.766C4.95569 113.473 4.53057 115.191 4.15137 116.921C4.4458 116.967 4.74249 116.996 5.04012 117.01H5.4845C6.86739 116.99 8.2418 116.79 9.57279 116.414C11.5414 115.872 13.6388 114.637 14.2876 112.584C14.732 111.215 14.1899 109.949 13.5989 108.744C12.8637 107.282 11.7688 106.032 10.4171 105.109Z" fill="#E74779"/>
<path d="M30.8358 132.34C30.9025 131.144 30.9425 129.949 30.9691 128.754C26.6631 127.865 25.1922 134.268 25.0322 137.428C25.0322 137.592 25.0322 137.757 25.0322 137.921C25.6544 137.819 26.272 137.704 26.8808 137.557C27.9207 137.308 28.9916 136.953 29.7115 136.162C30.5958 135.157 30.7425 133.695 30.8358 132.34Z" fill="#E74779"/>
<path d="M13.0593 126.186C11.7261 125.6 10.4241 125.986 9.16652 126.435C7.43431 127.075 5.92051 128.196 4.80272 129.666C2.89634 132.181 4.80272 134.789 7.13571 136.638C9.9017 137.477 12.7656 137.951 15.6545 138.047C16.0472 137.385 16.3026 136.65 16.4055 135.887C16.4055 135.732 16.4499 135.58 16.4677 135.443C16.6023 134.067 16.559 132.679 16.3388 131.314C16.0011 129.284 15.0057 127.057 13.0593 126.186Z" fill="#E74779"/>
<path d="M7.54139 133.207C5.65326 132.818 3.80223 132.266 2.00887 131.559C1.95136 132.476 2.17456 133.389 2.64878 134.176C3.24424 135.065 4.25297 135.576 5.24838 135.953C8.66898 137.263 12.2914 137.967 15.9535 138.033C19.5813 138.506 23.2635 138.345 26.8363 137.558C27.8761 137.309 28.9471 136.953 29.667 136.162C30.3033 135.368 30.6733 134.393 30.7246 133.376C23.1879 135.083 15.1403 134.865 7.54139 133.207Z" fill="#FFF6FE"/>
<path d="M4.93568 132.536L4.61574 132.447C4.55353 133.176 4.49131 133.963 4.44243 134.785C4.44243 135.069 4.40689 135.345 4.39355 135.616L4.71349 135.767L4.76684 134.807C4.8335 134.047 4.88236 133.305 4.93568 132.536Z" fill="#E74779"/>
<path d="M8.28726 133.221L8.12729 133.189H7.98953C7.95398 133.9 7.91841 134.678 7.88286 135.5C7.88286 135.976 7.85176 136.438 7.83398 136.882L8.1495 136.962C8.1495 136.518 8.1895 136.016 8.21172 135.514C8.24283 134.669 8.26504 133.923 8.28726 133.221Z" fill="#E74779"/>
<path d="M11.9587 133.988L11.6698 133.957C11.6298 134.668 11.5987 135.459 11.5898 136.308C11.5898 136.774 11.5898 137.228 11.5898 137.663L11.9054 137.712C11.9054 137.268 11.9054 136.797 11.9054 136.312C11.9231 135.472 11.9409 134.69 11.9587 133.988Z" fill="#E74779"/>
<path d="M15.5139 134.336H15.2295C15.2295 135.06 15.2828 135.86 15.3184 136.709C15.3184 137.153 15.3583 137.598 15.3806 138.02H15.6961C15.6961 137.575 15.665 137.131 15.6428 136.687C15.5983 135.86 15.5583 135.065 15.5139 134.336Z" fill="#E74779"/>
<path d="M19.6248 134.411C19.5279 134.412 19.4312 134.403 19.3359 134.385C19.3359 135.131 19.3359 135.971 19.3359 136.869C19.3359 137.362 19.3359 137.838 19.3359 138.291H19.6515C19.6515 137.846 19.6515 137.358 19.6515 136.86C19.6559 135.976 19.6426 135.149 19.6248 134.411Z" fill="#E74779"/>
<path d="M23.6683 134.225H23.375C23.4017 135.042 23.4283 135.753 23.455 136.447C23.455 136.984 23.4905 137.526 23.5128 138.126L23.8194 138.095C23.8194 137.571 23.7971 137.015 23.7794 136.433C23.7483 135.642 23.726 134.9 23.6683 134.225Z" fill="#E74779"/>
<path d="M27.0809 134.148H26.7832C26.8321 134.864 26.8899 135.655 26.9521 136.49C26.9787 136.832 27.0098 137.17 27.0365 137.495L27.3476 137.41C27.3476 137.104 27.3031 136.788 27.2765 136.464C27.2098 135.646 27.1431 134.859 27.0809 134.148Z" fill="#E74779"/>
<path d="M30.1915 113.574C29.9826 111.894 29.6893 110.139 28.8806 108.628C28.6029 108.105 28.2325 107.637 27.7874 107.246C27.243 107.214 26.6967 107.261 26.1654 107.384C25.2111 107.558 24.296 107.903 23.4636 108.401C23.279 108.508 23.1257 108.661 23.0192 108.846C22.9704 108.935 22.951 109.037 22.9638 109.137C22.9766 109.238 23.0209 109.332 23.0903 109.406C23.178 109.472 23.28 109.516 23.3881 109.535C24.148 109.699 24.9344 109.699 25.6944 109.535C26.3165 109.424 27.5119 109.45 28.0141 109.01C27.2216 109.729 26.5053 110.527 25.8766 111.392C25.6536 111.651 25.4871 111.954 25.3878 112.281C25.3396 112.442 25.3383 112.614 25.3839 112.776C25.4295 112.938 25.5203 113.084 25.6455 113.196C25.7675 113.274 25.9065 113.32 26.0505 113.332C26.1946 113.344 26.3392 113.32 26.4721 113.263C26.7358 113.144 26.9719 112.972 27.1653 112.756C27.9284 111.994 28.5326 111.088 28.9428 110.09C28.9561 110.726 29.0185 111.361 29.1294 111.988C29.1935 112.475 29.3568 112.944 29.6094 113.365C29.7625 113.618 29.9763 113.829 30.2315 113.978C30.2182 113.827 30.2093 113.703 30.1915 113.574Z" fill="#FCF2FA"/>
<path d="M11.1572 125.043C9.92182 125.012 8.66868 125.585 7.60217 126.176C6.99781 125.057 6.33571 123.954 5.62471 122.91C5.12376 123.215 4.69471 123.624 4.36711 124.11C5.05145 124.999 5.70616 125.919 6.33125 126.87C5.50915 127.509 4.64263 128.065 4.04272 128.918C3.43729 129.677 2.97226 130.538 2.66958 131.46C2.6063 131.652 2.59105 131.856 2.62515 132.055C2.64746 132.158 2.70307 132.251 2.78338 132.32C2.8637 132.388 2.96426 132.428 3.06953 132.433C3.17787 132.424 3.28276 132.391 3.37615 132.335C4.06037 131.966 4.65739 131.453 5.127 130.833C5.5225 130.34 6.46013 129.576 6.53568 128.914C6.4098 129.976 6.39044 131.047 6.47791 132.113C6.47964 132.45 6.54917 132.782 6.68233 133.091C6.75115 133.244 6.86198 133.375 7.00197 133.467C7.14197 133.56 7.30539 133.612 7.47331 133.615C7.61739 133.597 7.75454 133.543 7.8719 133.457C7.98927 133.372 8.083 133.258 8.14432 133.126C8.26556 132.863 8.33063 132.577 8.3354 132.287C8.41079 131.217 8.27336 130.143 7.93103 129.127C8.35755 129.597 8.81958 130.034 9.31304 130.433C9.67888 130.761 10.1086 131.009 10.5751 131.162C10.8284 131.233 11.3483 131.336 11.5794 131.162C11.8993 130.909 11.6238 130.531 11.4683 130.198C11.0646 129.324 10.4546 128.562 9.69075 127.976C10.3624 128.482 11.0829 128.92 11.8416 129.283C12.3446 129.581 12.9312 129.707 13.5124 129.642C13.612 129.631 13.7074 129.596 13.7914 129.541C13.8754 129.487 13.9457 129.413 13.9968 129.327C14.1345 129.034 13.8946 128.709 13.6546 128.492C12.8668 127.774 11.9096 127.268 10.8728 127.021C11.606 127.163 13.9435 127.345 14.1123 126.283C14.1326 126.182 14.1326 126.078 14.1123 125.976C13.8324 125.11 11.8104 125.061 11.1572 125.043Z" fill="#FCF2FA"/>
<path d="M14.3301 104.73C13.8502 105.166 13.3629 105.593 12.8681 106.01C12.486 105.624 12.1305 105.224 11.7483 104.855C10.8767 104.94 10.027 105.178 9.23757 105.557C9.73528 105.935 10.3485 106.41 10.8551 106.446C9.81111 106.437 8.76889 106.533 7.74444 106.735C7.64668 106.846 7.55338 106.961 7.46006 107.081C7.15758 107.503 6.89004 107.949 6.66016 108.414C6.72384 108.459 6.79244 108.496 6.86458 108.525C7.1412 108.614 7.43297 108.646 7.72223 108.619C8.79859 108.573 9.85551 108.317 10.8329 107.863C10.4109 108.339 10.0275 108.847 9.68637 109.383C9.40172 109.782 9.20345 110.236 9.10424 110.716C9.06424 110.974 9.01981 111.503 9.22423 111.712C9.51307 112.001 9.85525 111.685 10.1708 111.489C10.9878 110.988 11.671 110.296 12.1616 109.472C11.735 110.195 11.3807 110.959 11.1039 111.752C10.8664 112.286 10.8072 112.883 10.9351 113.454C10.9584 113.551 11.0038 113.642 11.0677 113.719C11.1317 113.796 11.2125 113.857 11.3039 113.898C11.6105 114 11.9038 113.725 12.0949 113.454C12.7194 112.59 13.1153 111.583 13.2458 110.525C13.1836 111.272 13.2459 113.636 14.339 113.662C14.4418 113.669 14.5447 113.654 14.6412 113.618C15.4855 113.28 15.3078 111.263 15.25 110.614C15.1478 109.379 14.4324 108.201 13.7302 107.21C14.775 106.484 15.7821 105.706 16.7476 104.877C16.7209 104.842 16.6854 104.806 16.6543 104.77C15.9877 104.77 15.3211 104.735 14.6279 104.744L14.3301 104.73Z" fill="#FCF2FA"/>
<path d="M28.2004 128.509C28.8045 128.998 29.5059 129.353 30.2579 129.549C30.4445 129.607 30.68 129.7 30.9289 129.798C30.9289 129.096 30.9689 128.398 30.9778 127.7C30.2514 127.523 29.5002 127.469 28.7559 127.54C28.5536 127.554 28.3578 127.618 28.1871 127.727C28.1022 127.784 28.0379 127.866 28.0035 127.962C27.9691 128.058 27.9664 128.163 27.996 128.26C28.0441 128.358 28.114 128.443 28.2004 128.509Z" fill="#FCF2FA"/>
<path d="M30.7866 132.819C30.7866 132.659 30.8088 132.499 30.8221 132.34C30.8488 131.793 30.871 131.246 30.8932 130.695C30.4489 130.882 30.0045 131.082 29.5868 131.291C29.2761 131.419 28.9949 131.61 28.7602 131.851C28.6454 131.973 28.5677 132.126 28.5362 132.292C28.5047 132.457 28.5208 132.627 28.5825 132.784C28.652 132.913 28.7536 133.021 28.8774 133.099C29.0011 133.177 29.143 133.221 29.289 133.228C29.5774 133.241 29.8651 133.192 30.1334 133.086C30.3555 133.008 30.5736 132.919 30.7866 132.819Z" fill="#FCF2FA"/>
<path d="M27.8134 131.056C27.8623 131.091 28.0712 130.896 28.2845 130.611C28.4978 130.327 28.6266 130.083 28.5822 130.047C28.5378 130.012 28.3245 130.207 28.1112 130.492C27.8979 130.776 27.769 131.02 27.8134 131.056Z" fill="#AA4379"/>
<path d="M28.2044 132.367C28.1555 132.327 27.96 132.496 27.7289 132.705C27.4978 132.914 27.3112 133.087 27.3423 133.149C27.3734 133.212 27.6267 133.096 27.8711 132.878C28.1155 132.661 28.2488 132.403 28.2044 132.367Z" fill="#AA4379"/>
<path d="M5.7322 132.802C5.78108 132.766 5.65221 132.526 5.45224 132.269C5.25227 132.011 5.04785 131.824 5.00786 131.873C4.96787 131.922 5.08341 132.144 5.28782 132.402C5.49224 132.66 5.68776 132.837 5.7322 132.802Z" fill="#AA4379"/>
<path d="M10.0332 132.821C10.0777 132.781 9.92215 132.546 9.76217 132.252C9.6022 131.959 9.47776 131.706 9.41999 131.724C9.36222 131.741 9.39334 132.039 9.57109 132.359C9.74884 132.679 9.9888 132.861 10.0332 132.821Z" fill="#AA4379"/>
<path d="M13.2467 132.626C13.2956 132.594 13.2112 132.363 13.0867 132.097C12.9623 131.83 12.8423 131.617 12.7846 131.652C12.7268 131.688 12.7846 131.923 12.8912 132.203C12.9979 132.483 13.1978 132.657 13.2467 132.626Z" fill="#AA4379"/>
<path d="M14.704 129.704C14.7618 129.704 14.7618 129.455 14.6551 129.193C14.5485 128.931 14.3796 128.749 14.3307 128.802C14.2818 128.856 14.3574 129.038 14.4552 129.278C14.5529 129.518 14.6462 129.713 14.704 129.704Z" fill="#AA4379"/>
<path d="M12.0595 133.513C12.1039 133.478 11.9884 133.26 11.8373 133.007C11.6862 132.754 11.5529 132.562 11.4996 132.562C11.4462 132.562 11.4996 132.838 11.6551 133.109C11.8106 133.38 12.015 133.553 12.0595 133.513Z" fill="#AA4379"/>
<path d="M15.0505 133.406C15.1083 133.406 15.0994 133.122 15.0505 132.811C15.0017 132.5 14.8817 132.251 14.8239 132.26C14.7661 132.269 14.7706 132.536 14.8239 132.855C14.8772 133.175 14.9928 133.424 15.0505 133.406Z" fill="#AA4379"/>
<path d="M24.4985 111.845C24.5608 111.845 24.6496 111.601 24.7563 111.294C24.8629 110.988 24.9474 110.73 24.894 110.703C24.8407 110.677 24.6674 110.899 24.5563 111.228C24.4452 111.557 24.4408 111.837 24.4985 111.845Z" fill="#AA4379"/>
<path d="M27.2407 115.562C27.2941 115.562 27.4585 115.246 27.5696 114.806C27.6807 114.366 27.6807 113.997 27.6229 113.988C27.5652 113.98 27.4629 114.326 27.3607 114.757C27.2585 115.188 27.183 115.562 27.2407 115.562Z" fill="#AA4379"/>
<path d="M24.6761 116.338C24.7339 116.338 24.7027 116.031 24.6761 115.684C24.6494 115.338 24.5872 115.053 24.5294 115.049C24.4717 115.044 24.4183 115.347 24.4628 115.711C24.5072 116.075 24.6139 116.351 24.6761 116.338Z" fill="#AA4379"/>
<path d="M28.6944 116.632C28.7521 116.632 28.8632 116.379 28.9388 116.028C29.0143 115.677 29.0321 115.388 28.9743 115.379C28.9165 115.37 28.8055 115.641 28.7299 115.983C28.6544 116.326 28.6366 116.614 28.6944 116.632Z" fill="#AA4379"/>
<path d="M26.0152 115.453C26.073 115.453 26.104 115.129 26.0818 114.751C26.0596 114.374 25.9929 114.062 25.9352 114.062C25.8774 114.062 25.8463 114.374 25.8685 114.765C25.8908 115.156 25.9485 115.458 26.0152 115.453Z" fill="#AA4379"/>
<path d="M25.8083 119.227C25.8572 119.191 25.8083 119.014 25.7194 118.809C25.6305 118.605 25.5728 118.427 25.5106 118.436C25.4484 118.445 25.4306 118.649 25.5106 118.88C25.5906 119.111 25.7594 119.258 25.8083 119.227Z" fill="#AA4379"/>
<path d="M27.6046 118.627C27.6623 118.627 27.6935 118.351 27.6668 118.013C27.6401 117.676 27.5779 117.414 27.5201 117.418C27.4624 117.422 27.4313 117.698 27.4535 118.031C27.4757 118.365 27.5424 118.631 27.6046 118.627Z" fill="#AA4379"/>
<path d="M29.3697 119.49C29.423 119.49 29.6052 119.219 29.7252 118.814C29.8452 118.41 29.8452 118.068 29.7874 118.059C29.7296 118.05 29.6319 118.37 29.5163 118.756C29.4008 119.143 29.3119 119.463 29.3697 119.49Z" fill="#AA4379"/>
<path d="M27.8254 120.538C27.8832 120.538 27.941 120.325 27.9499 120.093C27.9588 119.862 27.9188 119.622 27.861 119.614C27.8032 119.605 27.7455 119.818 27.7366 120.085C27.7277 120.351 27.7677 120.542 27.8254 120.538Z" fill="#AA4379"/>
<path d="M7.98979 109.948C7.95424 109.899 7.72314 109.997 7.46984 110.17C7.21655 110.344 7.02548 110.526 7.06992 110.575C7.11436 110.624 7.33654 110.521 7.58983 110.348C7.84313 110.175 8.02089 109.997 7.98979 109.948Z" fill="#AA4379"/>
<path d="M6.39472 112.636C6.39472 112.583 6.2214 112.596 6.05254 112.663C5.88367 112.73 5.7726 112.832 5.79482 112.885C5.81703 112.939 5.9681 112.93 6.13697 112.885C6.30583 112.841 6.43027 112.694 6.39472 112.636Z" fill="#AA4379"/>
<path d="M8.9087 113.255C8.9087 113.202 8.6643 113.255 8.41544 113.366C8.16659 113.477 7.97108 113.62 8.01107 113.673C8.05106 113.726 8.25547 113.673 8.50432 113.562C8.75318 113.451 8.93536 113.309 8.9087 113.255Z" fill="#AA4379"/>
<path d="M6.39431 115.116C6.39431 115.058 6.14101 115.085 5.86549 115.116C5.58998 115.147 5.3589 115.232 5.36334 115.289C5.36779 115.347 5.61221 115.383 5.9055 115.325C6.19879 115.267 6.42541 115.165 6.39431 115.116Z" fill="#AA4379"/>
<path d="M8.26104 115.64C8.23438 115.587 8.04774 115.613 7.81666 115.64C7.58558 115.667 7.40784 115.702 7.40339 115.765C7.39895 115.827 7.59892 115.893 7.84777 115.853C8.09662 115.813 8.28326 115.693 8.26104 115.64Z" fill="#AA4379"/>
<path d="M11.1771 115.173C11.1771 115.116 10.9682 115.142 10.7593 115.227C10.5505 115.311 10.4038 115.427 10.4261 115.48C10.4483 115.533 10.6349 115.511 10.8438 115.427C11.0526 115.342 11.1993 115.227 11.1771 115.173Z" fill="#AA4379"/>
<path d="M25.6144 116.152C25.0939 115.127 24.3313 114.244 23.3925 113.579C20.8196 111.948 17.7622 111.126 14.7538 111.766C12.7801 112.264 10.9967 113.332 9.62568 114.837C8.65571 115.948 7.98031 117.285 7.66151 118.725C7.32505 120.064 7.26983 121.458 7.49929 122.82C7.72874 124.181 8.23789 125.48 8.99464 126.635C9.77255 127.716 10.7669 128.623 11.9145 129.299C13.0621 129.974 14.3378 130.403 15.6603 130.559C19.2153 131.003 23.437 129.715 25.4811 126.591C27.2186 123.924 27.3919 120.414 26.2277 117.494C26.05 117.035 25.8452 116.587 25.6144 116.152Z" fill="white"/>
<path d="M23.9382 117.152C23.5242 116.331 22.9136 115.624 22.1607 115.095C20.1032 113.793 17.6681 113.135 15.264 113.646C13.6874 114.045 12.2626 114.898 11.1668 116.099C10.3911 116.988 9.8516 118.058 9.59816 119.21C9.33329 120.281 9.29287 121.395 9.47947 122.483C9.66607 123.57 10.0757 124.607 10.6824 125.529C11.3042 126.394 12.0996 127.119 13.0179 127.658C13.9361 128.198 14.957 128.54 16.015 128.662C18.8723 129.008 22.2363 127.986 23.8538 125.493C24.5168 124.414 24.9155 123.193 25.0174 121.931C25.1193 120.668 24.9216 119.399 24.4404 118.228C24.2954 117.859 24.1277 117.5 23.9382 117.152Z" fill="#671C45"/>
<g style="mix-blend-mode:multiply" opacity="0.14">
<g style="mix-blend-mode:multiply" opacity="0.14">
<path d="M16.4143 122.283C14.9544 120.776 13.8638 118.951 13.2281 116.951C11.8945 113.024 11.74 108.793 12.7837 104.779C10.7618 104.886 8.78432 105.295 7.45119 107.068C6.43356 108.445 5.88698 110.143 5.43372 111.774C3.7638 117.811 2.64089 123.986 2.07864 130.224C1.95421 131.558 1.89201 133.042 2.64746 134.166C3.24292 135.055 4.25165 135.566 5.24706 135.944C8.66766 137.253 12.2901 137.957 15.9521 138.023C19.5794 138.498 23.2617 138.341 26.835 137.557C27.8748 137.308 28.9458 136.952 29.6657 136.161C30.5811 135.157 30.7277 133.695 30.8077 132.34C30.8551 131.433 30.8921 130.527 30.9188 129.62C29.3606 128.575 27.6933 127.704 25.9462 127.02C22.6223 125.696 18.9739 124.776 16.4143 122.283Z" fill="#671C45"/>
</g>
</g>
<path d="M270.104 145.842L259.209 148.327L253.514 149.622L242.62 152.108C242.6 155.216 242.776 158.293 243.734 161.293C244.86 164.832 247.208 168.154 250.892 169.212C251.294 169.324 251.652 169.413 252.03 169.485C252.857 169.633 253.706 169.61 254.524 169.417L257.846 168.661L263.536 167.362L266.886 166.63C267.706 166.452 268.48 166.106 269.158 165.612C269.464 165.382 269.766 165.136 270.063 164.876C272.923 162.327 273.598 158.313 273.084 154.633C272.649 151.484 271.475 148.637 270.104 145.842Z" fill="#F8D8E5"/>
<path d="M272.919 159.846C273.296 158.128 273.356 156.356 273.096 154.617C272.879 153.154 272.519 151.716 272.022 150.322C267.555 152.28 262.904 153.791 258.139 154.835C253.124 156.028 248.031 156.87 242.897 157.356C243.06 158.697 243.344 160.02 243.746 161.309C244.295 163.093 245.189 164.752 246.376 166.192C251.069 165.633 255.727 164.728 260.174 163.755C264.525 162.811 268.788 161.504 272.919 159.846Z" fill="#E992B9"/>
<path d="M272.722 152.714C272.658 152.456 272.594 152.195 272.521 151.941C263.05 155.457 253.17 157.754 243.119 158.778C243.167 159.04 243.22 159.301 243.28 159.558C253.344 158.529 263.237 156.229 272.722 152.714Z" fill="white"/>
<path d="M244.664 163.572C244.793 163.84 244.927 164.093 245.066 164.332C254.656 163.378 264.096 161.27 273.182 158.054C273.206 157.768 273.226 157.483 273.23 157.193C264.006 160.484 254.412 162.626 244.664 163.572Z" fill="white"/>
<g style="mix-blend-mode:multiply" opacity="0.14">
<g style="mix-blend-mode:multiply" opacity="0.14">
<path d="M266.637 160.118C263.09 160.769 259.398 161.377 255.919 160.363C252.332 159.314 249.38 156.563 247.635 153.261C247.28 152.587 246.969 151.891 246.701 151.178L242.624 152.107C242.603 155.215 242.78 158.292 243.738 161.292C244.864 164.831 247.212 168.153 250.896 169.211C251.298 169.323 251.656 169.412 252.034 169.484C252.861 169.633 253.71 169.609 254.528 169.416L257.849 168.66L263.54 167.361L266.886 166.629C267.706 166.451 268.48 166.105 269.158 165.611C269.464 165.381 269.766 165.136 270.063 164.875C271.659 163.402 272.706 161.429 273.031 159.281C270.882 159.406 268.745 159.686 266.637 160.118Z" fill="#E74779"/>
</g>
</g>
<path d="M272.437 147.18C272.437 147.18 271.114 142.865 268.713 142.406C267.104 142.097 262.202 141.393 255.039 143.126C247.828 144.666 243.71 147.429 242.399 148.402C240.437 149.858 241.112 154.318 241.112 154.318C246.509 154.237 251.881 153.563 257.131 152.307C262.405 151.162 267.537 149.443 272.437 147.18Z" fill="#E74779"/>
<path d="M247.913 148.129C247.941 149.041 247.998 150.051 248.086 151.113C248.17 152.09 248.275 153.015 248.392 153.859L248.685 153.827C248.589 152.983 248.492 152.058 248.408 151.084C248.315 150.011 248.251 148.993 248.203 148.072L247.913 148.129Z" fill="#E74779"/>
<path d="M251.874 147.213C251.958 148.017 252.055 148.89 252.164 149.795C252.316 151.033 252.481 152.208 252.642 153.229L252.924 153.181C252.787 152.147 252.638 150.989 252.485 149.759C252.377 148.89 252.28 148.057 252.188 147.281C252.081 147.272 251.975 147.249 251.874 147.213Z" fill="#E74779"/>
<path d="M255.835 146.923C255.96 147.728 256.108 148.572 256.265 149.481C256.45 150.535 256.627 151.52 256.792 152.393L257.07 152.328C256.929 151.456 256.764 150.474 256.583 149.429C256.422 148.516 256.269 147.655 256.125 146.875L255.835 146.923Z" fill="#E74779"/>
<path d="M260.051 145.99L259.766 146.067C259.955 146.77 260.168 147.535 260.369 148.343C260.646 149.429 260.896 150.446 261.105 151.331L261.374 151.255C261.189 150.366 260.972 149.344 260.683 148.262C260.453 147.454 260.248 146.69 260.051 145.99Z" fill="#E74779"/>
<path d="M267.876 143.42L267.595 143.508C267.892 144.273 268.206 145.117 268.508 146.046C268.809 146.975 269.047 147.779 269.256 148.552L269.529 148.439C269.34 147.671 269.103 146.83 268.813 145.946C268.524 145.061 268.19 144.176 267.876 143.42Z" fill="#E74779"/>
<path d="M263.602 144.707L263.316 144.832C263.542 145.531 263.767 146.223 263.992 146.927C264.334 148.005 264.668 149.042 265.014 150.144L265.287 150.052C264.997 149.075 264.664 147.993 264.298 146.834C264.072 146.09 263.827 145.379 263.602 144.707Z" fill="#E74779"/>
<path d="M268.712 142.403C267.103 142.097 262.201 141.393 255.038 143.127C247.828 144.667 243.709 147.43 242.398 148.403C242.159 148.586 241.952 148.81 241.787 149.063C242.829 148.978 243.87 148.865 244.908 148.741C251.771 147.914 258.548 146.487 265.161 144.474C266.701 144.003 268.254 143.485 269.758 142.865C269.447 142.637 269.09 142.48 268.712 142.403Z" fill="#E74779"/>
</svg>
