<svg width="274" height="276" viewBox="0 0 274 276" fill="none" xmlns="http://www.w3.org/2000/svg">
<mask id="mask0_82_6594" style="mask-type:alpha" maskUnits="userSpaceOnUse" x="2" y="0" width="272" height="276">
<ellipse cx="137.896" cy="138" rx="135.896" ry="138" fill="white"/>
</mask>
<g mask="url(#mask0_82_6594)">
<g style="mix-blend-mode:multiply">
<path d="M50.2898 244.206C-2.74863 192.627 -3.15814 107.032 49.3651 53.023C101.888 -0.986324 187.476 -2.9216 240.495 48.5976C293.513 100.117 283.91 175.269 231.413 229.278C178.916 283.288 103.322 295.784 50.2898 244.206Z" fill="#F6D2E1" fill-opacity="0.45"/>
</g>
<g opacity="0.53">
<path opacity="0.53" d="M258.187 79.3596L256.054 78.8312C255.776 78.7472 255.527 78.587 255.336 78.3686C255.144 78.1503 255.018 77.8826 254.971 77.596L254.515 75.3239C254.495 75.2331 254.444 75.1519 254.371 75.0938C254.299 75.0356 254.208 75.0039 254.115 75.0039C254.022 75.0039 253.932 75.0356 253.859 75.0938C253.787 75.1519 253.736 75.2331 253.716 75.3239L253.333 77.4243C253.284 77.7617 253.142 78.0785 252.921 78.338C252.7 78.5976 252.41 78.7892 252.084 78.8906L250.103 79.4124C250.009 79.4361 249.925 79.4906 249.866 79.5672C249.806 79.6437 249.773 79.738 249.773 79.8351C249.773 79.9322 249.806 80.0265 249.866 80.1031C249.925 80.1797 250.009 80.2341 250.103 80.2578L252.084 80.7466C252.41 80.8441 252.702 81.0316 252.927 81.2874C253.151 81.5433 253.298 81.8572 253.353 82.1931L253.775 84.2935C253.796 84.3843 253.846 84.4655 253.919 84.5236C253.992 84.5818 254.082 84.6135 254.175 84.6135C254.268 84.6135 254.358 84.5818 254.431 84.5236C254.503 84.4655 254.554 84.3843 254.574 84.2935L254.997 82.0016C255.038 81.7175 255.158 81.4508 255.344 81.2322C255.53 81.0136 255.774 80.8521 256.047 80.7664L258.181 80.1984C258.277 80.1782 258.363 80.1259 258.425 80.0501C258.487 79.9743 258.521 79.8796 258.522 79.7816C258.523 79.6837 258.49 79.5884 258.429 79.5117C258.368 79.4349 258.283 79.3812 258.187 79.3596Z" fill="#F2BC36"/>
<path opacity="0.53" d="M259.007 160.647L256.028 159.908C255.641 159.792 255.294 159.57 255.028 159.266C254.762 158.962 254.586 158.589 254.522 158.19L253.862 155.013C253.837 154.883 253.768 154.766 253.666 154.681C253.564 154.597 253.436 154.551 253.304 154.551C253.171 154.551 253.043 154.597 252.941 154.681C252.839 154.766 252.77 154.883 252.746 155.013L252.204 157.946C252.136 158.418 251.937 158.861 251.628 159.224C251.32 159.588 250.915 159.857 250.46 160L247.713 160.727C247.583 160.761 247.468 160.837 247.385 160.943C247.303 161.049 247.259 161.18 247.259 161.314C247.259 161.449 247.303 161.579 247.385 161.686C247.468 161.792 247.583 161.868 247.713 161.902L250.473 162.563C250.93 162.698 251.339 162.959 251.654 163.317C251.968 163.674 252.175 164.114 252.25 164.584L252.831 167.51C252.856 167.64 252.925 167.757 253.027 167.842C253.129 167.926 253.257 167.972 253.39 167.972C253.522 167.972 253.65 167.926 253.752 167.842C253.854 167.757 253.923 167.64 253.948 167.51L254.536 164.32C254.594 163.922 254.763 163.549 255.023 163.243C255.284 162.937 255.625 162.71 256.008 162.589L258.987 161.803C259.11 161.766 259.218 161.69 259.295 161.588C259.372 161.485 259.415 161.361 259.417 161.232C259.42 161.104 259.381 160.978 259.307 160.873C259.234 160.768 259.129 160.689 259.007 160.647Z" fill="#F2BC36"/>
<path opacity="0.53" d="M254.185 57.2796L251.18 56.5267C250.791 56.4129 250.443 56.1912 250.175 55.8872C249.907 55.5832 249.731 55.2094 249.668 54.8093L249.007 51.6323C248.983 51.5023 248.913 51.385 248.811 51.3005C248.709 51.2161 248.581 51.1699 248.449 51.1699C248.317 51.1699 248.188 51.2161 248.087 51.3005C247.985 51.385 247.915 51.5023 247.891 51.6323L247.349 54.565C247.279 55.0368 247.078 55.4795 246.768 55.8426C246.459 56.2058 246.054 56.4748 245.599 56.6191L242.851 57.3457C242.721 57.3797 242.606 57.4559 242.524 57.5622C242.442 57.6686 242.397 57.7992 242.397 57.9335C242.397 58.0679 242.442 58.1985 242.524 58.3048C242.606 58.4112 242.721 58.4873 242.851 58.5214L245.619 59.1819C246.075 59.3182 246.483 59.58 246.797 59.9374C247.111 60.2948 247.319 60.7334 247.395 61.203L247.977 64.1356C248.001 64.2657 248.071 64.383 248.172 64.4674C248.274 64.5519 248.403 64.5981 248.535 64.5981C248.667 64.5981 248.795 64.5519 248.897 64.4674C248.999 64.383 249.068 64.2657 249.093 64.1356L249.681 60.9454C249.738 60.5455 249.907 60.17 250.169 59.8624C250.431 59.5549 250.775 59.3281 251.16 59.2083L254.133 58.4223C254.252 58.3855 254.358 58.3127 254.434 58.2137C254.511 58.1148 254.555 57.9946 254.561 57.8695C254.567 57.7445 254.534 57.6207 254.467 57.5151C254.399 57.4096 254.301 57.3273 254.185 57.2796Z" fill="#F2BC36"/>
<path opacity="0.53" d="M44.9908 244.42L43.0093 243.925C42.7503 243.849 42.5181 243.701 42.3394 243.499C42.1606 243.297 42.0425 243.048 41.9987 242.782L41.576 240.662C41.5564 240.577 41.5089 240.502 41.4411 240.448C41.3734 240.395 41.2894 240.365 41.2028 240.365C41.1162 240.365 41.0322 240.395 40.9645 240.448C40.8967 240.502 40.8492 240.577 40.8296 240.662L40.4729 242.643C40.4278 242.958 40.2947 243.253 40.089 243.495C39.8833 243.737 39.6134 243.915 39.3105 244.011L37.4743 244.499C37.3851 244.519 37.3054 244.569 37.2483 244.641C37.1912 244.712 37.1602 244.801 37.1602 244.892C37.1602 244.984 37.1912 245.072 37.2483 245.144C37.3054 245.215 37.3851 245.265 37.4743 245.285L39.3171 245.741C39.6178 245.829 39.888 245.999 40.097 246.233C40.3059 246.466 40.4453 246.753 40.4994 247.062L40.8891 249.044C40.9086 249.128 40.9562 249.203 41.0239 249.257C41.0917 249.311 41.1757 249.34 41.2622 249.34C41.3488 249.34 41.4328 249.311 41.5006 249.257C41.5683 249.203 41.6159 249.128 41.6354 249.044L42.0251 246.91C42.0638 246.644 42.1766 246.395 42.3507 246.19C42.5248 245.986 42.7531 245.835 43.0093 245.754L44.9908 245.232C45.0896 245.22 45.1804 245.172 45.2463 245.097C45.3121 245.022 45.3484 244.926 45.3484 244.826C45.3484 244.727 45.3121 244.63 45.2463 244.556C45.1804 244.481 45.0896 244.433 44.9908 244.42Z" fill="#F2BC36"/>
<path opacity="0.53" d="M249.78 234.57L247.798 234.075C247.539 234 247.306 233.852 247.127 233.65C246.949 233.448 246.831 233.199 246.788 232.932L246.365 230.812C246.345 230.728 246.298 230.653 246.23 230.599C246.162 230.545 246.078 230.516 245.992 230.516C245.905 230.516 245.821 230.545 245.754 230.599C245.686 230.653 245.638 230.728 245.619 230.812L245.262 232.794C245.216 233.108 245.082 233.402 244.875 233.643C244.668 233.884 244.397 234.061 244.093 234.154L242.263 234.643C242.174 234.663 242.094 234.713 242.037 234.785C241.98 234.856 241.949 234.945 241.949 235.036C241.949 235.128 241.98 235.216 242.037 235.288C242.094 235.359 242.174 235.409 242.263 235.429L244.113 235.885C244.412 235.975 244.681 236.146 244.89 236.379C245.099 236.612 245.239 236.898 245.295 237.206L245.685 239.187C245.704 239.272 245.752 239.347 245.82 239.401C245.887 239.455 245.971 239.484 246.058 239.484C246.144 239.484 246.228 239.455 246.296 239.401C246.364 239.347 246.412 239.272 246.431 239.187L246.821 237.054C246.861 236.789 246.974 236.541 247.148 236.338C247.322 236.135 247.55 235.985 247.805 235.905L249.786 235.376C249.893 235.375 249.995 235.332 250.07 235.256C250.145 235.18 250.187 235.077 250.186 234.97C250.185 234.863 250.142 234.761 250.066 234.686C249.99 234.611 249.887 234.57 249.78 234.57Z" fill="#F2BC36"/>
</g>
<g opacity="0.38">
<path opacity="0.38" d="M97.8257 258.199C109.715 257.539 121.604 256.634 133.374 255.075C139.266 254.291 145.138 253.365 150.99 252.295C156.842 251.224 162.667 250.005 168.466 248.635C168.53 248.62 168.596 248.617 168.66 248.627C168.725 248.637 168.786 248.66 168.842 248.695C168.897 248.729 168.945 248.775 168.983 248.828C169.02 248.881 169.047 248.941 169.061 249.005C169.088 249.128 169.069 249.256 169.007 249.365C168.944 249.473 168.843 249.555 168.724 249.593C163 251.319 157.205 252.801 151.34 254.038C145.474 255.276 139.578 256.317 133.651 257.162C121.793 258.874 109.808 259.552 97.8323 259.19C97.7009 259.19 97.5749 259.138 97.482 259.045C97.3891 258.952 97.3369 258.826 97.3369 258.695C97.3369 258.563 97.3891 258.437 97.482 258.344C97.5749 258.252 97.7009 258.199 97.8323 258.199H97.8257Z" fill="white"/>
</g>
<g opacity="0.38">
<path opacity="0.38" d="M128.031 266.771C130.613 266.606 133.156 266.408 135.679 266.032C138.199 265.677 140.699 265.194 143.169 264.585C148.136 263.343 153.011 261.633 157.951 260.008C158.013 259.987 158.079 259.979 158.144 259.984C158.209 259.989 158.273 260.006 158.331 260.036C158.389 260.065 158.441 260.106 158.484 260.155C158.526 260.205 158.559 260.263 158.579 260.325C158.616 260.438 158.612 260.56 158.567 260.67C158.522 260.78 158.44 260.871 158.334 260.926C155.996 262.102 153.618 263.178 151.181 264.142C148.738 265.116 146.239 265.946 143.698 266.626C141.141 267.328 138.525 267.796 135.884 268.026C133.242 268.262 130.581 268.182 127.958 267.788C127.828 267.766 127.712 267.693 127.635 267.585C127.559 267.478 127.527 267.344 127.548 267.214C127.561 267.094 127.617 266.983 127.706 266.902C127.795 266.82 127.91 266.774 128.031 266.771Z" fill="white"/>
</g>
<g style="mix-blend-mode:multiply">
<g style="mix-blend-mode:multiply">
<path d="M236.875 238.44C188.876 288.559 105.507 286.617 50.6725 234.101C-4.16246 181.584 -9.71728 98.3738 38.2815 48.2549C86.2802 -1.86409 159.814 9.51637 214.636 62.033C269.458 114.55 284.874 188.321 236.875 238.44Z" fill="#F6D2E1" fill-opacity="0.44"/>
</g>
</g>
<path d="M163.039 149.702C164.842 160.402 166.929 169.55 168.983 177.173C169.399 178.698 169.809 180.151 170.225 181.552C159.247 170.792 138.052 167.635 137.087 167.49C136.818 167.452 136.544 167.5 136.304 167.627C136.064 167.755 135.871 167.955 135.751 168.199C135.632 168.443 135.592 168.718 135.639 168.986C135.686 169.254 135.816 169.5 136.011 169.689C153.844 186.862 166.559 187.047 170.357 186.611L171.526 187.206C171.676 187.281 171.84 187.326 172.008 187.338C176.163 200.125 179.63 206.406 179.71 206.538C179.739 206.589 179.772 206.638 179.809 206.684C172.319 219.768 168.204 228.375 168.012 229.2C167.956 229.417 167.956 229.644 168.012 229.861C168.073 230.086 168.193 230.29 168.359 230.454C168.525 230.617 168.731 230.734 168.957 230.792C169.118 230.832 169.287 230.84 169.452 230.815C169.616 230.79 169.775 230.733 169.917 230.646C170.06 230.56 170.184 230.446 170.282 230.311C170.38 230.176 170.45 230.023 170.489 229.861C170.707 229.2 171.949 226.558 174.115 222.41C174.294 222.565 174.512 222.667 174.745 222.706C174.978 222.744 175.217 222.717 175.436 222.628C175.581 222.569 183.058 219.577 195.608 213.381C196.006 215.444 196.793 217.412 197.926 219.18C200.634 223.606 206.328 229.385 218.257 234.636C218.496 234.736 218.76 234.763 219.015 234.714C219.27 234.664 219.505 234.541 219.69 234.359C219.874 234.174 219.997 233.936 220.042 233.678C220.087 233.421 220.052 233.156 219.941 232.919C219.901 232.826 219.743 232.476 219.472 231.941C219.47 231.924 219.47 231.906 219.472 231.889C217.596 228.183 210.628 215.713 199.928 211.241C206.11 208.13 213.283 204.352 221.249 199.894C219.089 211.882 225.324 224.247 228.996 230.277C230.317 232.43 231.308 233.771 231.46 233.969V234.002L231.513 234.062L231.592 234.141L231.652 234.194L231.744 234.26L231.81 234.299L231.903 234.352L231.982 234.385L232.081 234.418H232.167H232.259H232.358H232.55H232.649H232.741H232.794H232.9H232.966C233.033 234.392 233.097 234.359 233.158 234.319L233.23 234.266L233.329 234.187L233.402 234.114L233.481 234.022L233.541 233.943L233.64 233.764C233.64 233.764 233.64 233.712 233.64 233.679C233.658 233.638 233.673 233.596 233.686 233.553C233.689 233.522 233.689 233.491 233.686 233.461C233.69 233.439 233.69 233.416 233.686 233.395C235.469 219.524 233.686 210.68 231.183 205.171C245.615 214.332 265.291 213.474 266.282 213.421C266.425 213.414 266.565 213.383 266.698 213.328C266.763 213.302 266.825 213.269 266.883 213.229H266.916C266.974 213.189 267.029 213.145 267.081 213.097C267.135 213.045 267.183 212.987 267.226 212.926C267.239 212.902 267.255 212.88 267.273 212.859L267.339 212.741V212.681C267.341 212.666 267.341 212.65 267.339 212.635C267.353 212.596 267.364 212.556 267.372 212.516V212.45C267.378 212.375 267.378 212.3 267.372 212.225V212.173V211.988C267.372 211.988 267.372 211.955 267.372 211.941C267.36 211.868 267.337 211.797 267.306 211.73C267.275 211.656 267.237 211.586 267.193 211.519C267.151 211.456 267.105 211.396 267.055 211.34C267.031 211.32 267.009 211.298 266.989 211.274C250.073 196.406 237.926 193.976 230.971 194.405C235.628 191.677 240.496 188.751 245.535 185.607C245.61 185.643 245.687 185.671 245.767 185.693C262.88 190.369 281.506 176.446 282.603 175.581C282.699 175.511 282.786 175.429 282.86 175.336C282.913 175.261 282.959 175.181 282.999 175.099C283.108 174.958 283.187 174.796 283.23 174.623C283.274 174.45 283.28 174.27 283.25 174.095V174.015V173.976C283.159 173.671 282.956 173.411 282.682 173.249L282.59 173.196C282.454 173.135 282.309 173.097 282.16 173.084C253.917 169.781 246.493 180.752 245.317 182.939C245.051 182.924 244.786 182.991 244.558 183.13C235.502 188.778 227.015 193.745 219.287 198.058C231.883 183.427 236.85 159.603 237.088 158.427C237.088 158.368 237.088 158.309 237.088 158.256V158.242C237.09 157.992 237.019 157.746 236.883 157.536C236.885 157.523 236.885 157.509 236.883 157.496C236.856 157.453 236.825 157.414 236.79 157.377L236.711 157.298C236.692 157.275 236.67 157.255 236.645 157.239C236.588 157.187 236.526 157.14 236.46 157.1C236.381 157.057 236.296 157.024 236.209 157.001C236.135 156.98 236.06 156.964 235.985 156.954C235.908 156.948 235.83 156.948 235.753 156.954C235.595 156.97 235.441 157.012 235.298 157.08H235.258C235.203 157.107 235.152 157.14 235.106 157.179L235.053 157.219C235.033 157.23 235.015 157.246 235 157.265C207.015 183.091 209.485 201.565 209.789 203.295C203.699 206.545 198.237 209.313 193.541 211.611C200.945 202.82 202.497 189.246 202.57 188.566C202.592 188.307 202.537 188.048 202.413 187.82C202.288 187.592 202.099 187.406 201.87 187.285C201.637 187.166 201.374 187.121 201.115 187.156C200.856 187.192 200.615 187.306 200.423 187.483C183.25 203.084 186.334 213.791 186.704 214.881C181.15 217.476 177.332 219.108 175.621 219.821C187.355 198.045 200.586 177.11 215.218 157.166C215.512 157.005 215.734 156.738 215.839 156.419C215.849 156.366 215.862 156.313 215.879 156.261C217.9 153.526 219.978 150.774 222.114 148.005C222.154 148.028 222.196 148.048 222.239 148.064C247.048 156.281 283.184 139.134 284.71 138.401C284.95 138.28 285.148 138.089 285.276 137.853C285.405 137.617 285.458 137.347 285.43 137.08C285.387 136.813 285.264 136.565 285.076 136.37C284.888 136.175 284.645 136.042 284.38 135.99C252.781 130.396 235.502 136.459 227.576 141.109C231.451 136.239 235.511 131.382 239.756 126.538C239.857 126.569 239.961 126.587 240.066 126.591C240.217 126.723 240.397 126.817 240.591 126.866C240.785 126.916 240.987 126.919 241.183 126.875C266.718 121.314 289.096 88.1565 290.06 86.7496C290.058 86.7343 290.058 86.7187 290.06 86.7034L290.106 86.6175C290.131 86.5681 290.153 86.5174 290.172 86.4656C290.175 86.4503 290.175 86.4347 290.172 86.4194C290.271 86.107 290.245 85.7685 290.1 85.4749C290.073 85.4183 290.04 85.3651 290 85.3163L289.967 85.2569C289.952 85.2377 289.934 85.22 289.915 85.2041L289.802 85.0852L289.743 85.0389L289.604 84.9465H289.545L289.38 84.8738H289.333C289.188 84.8283 289.036 84.8082 288.884 84.8144H288.798H288.66L288.561 84.8474H288.501C261.044 95.1512 248.871 107.734 243.534 115.977C246.262 92.4564 233.712 64.3916 233.118 63.0442V63.0112C233.032 62.8396 232.907 62.6905 232.754 62.5759C232.6 62.4612 232.422 62.384 232.233 62.3507H232.2H232.041C231.967 62.3441 231.891 62.3441 231.817 62.3507C231.735 62.3573 231.655 62.3751 231.579 62.4035H231.52C231.464 62.4224 231.411 62.4467 231.361 62.4761H231.295L231.156 62.5752L231.11 62.6083C230.996 62.7127 230.9 62.8354 230.826 62.9715V63.0178C230.826 63.0772 230.773 63.13 230.753 63.1895C230.733 63.2489 230.753 63.2291 230.753 63.2423C230.75 63.2687 230.75 63.2953 230.753 63.3216C226.414 84.92 227.722 99.887 230.416 109.768C232.748 118.355 236.123 123.064 237.755 124.96C230.377 133.368 223.488 141.908 217.134 150.29C218.693 139.471 219.313 115.283 202.345 85.072C202.232 84.8761 202.071 84.7125 201.876 84.5969C201.682 84.4812 201.461 84.4174 201.235 84.4115H201.117H201.057C200.974 84.4189 200.892 84.4366 200.813 84.4643H200.733C200.638 84.5044 200.547 84.5554 200.463 84.6162L200.41 84.6625C200.339 84.7218 200.275 84.7882 200.218 84.8606L200.179 84.9134C200.113 85.0005 200.06 85.096 200.02 85.1975C199.901 85.5409 191.473 109.722 197.589 132.146C199.974 140.904 204.591 149.392 212.781 156.089C201.49 171.489 191.022 187.476 181.42 203.982C179.466 200.004 177.74 195.917 176.249 191.743C194.644 180.812 194.036 150.964 193.996 149.689C193.993 149.449 193.921 149.215 193.789 149.015C193.656 148.815 193.469 148.657 193.25 148.56C193.036 148.463 192.799 148.428 192.566 148.457C192.333 148.486 192.113 148.579 191.929 148.725L191.414 149.147C191.206 149.187 191.011 149.277 190.847 149.411C190.684 149.545 190.556 149.718 190.476 149.914C177.305 160.944 172.913 170.733 171.936 177.985C170.344 172.285 168.732 165.667 167.233 158.11C185.601 147.291 189.815 118.903 189.987 117.694C189.99 117.666 189.99 117.637 189.987 117.608C189.99 117.562 189.99 117.516 189.987 117.47C189.99 117.437 189.99 117.403 189.987 117.371V117.258C189.99 117.219 189.99 117.179 189.987 117.139V117.093C189.934 116.934 189.848 116.788 189.736 116.664L189.696 116.624L189.597 116.525C189.549 116.486 189.499 116.451 189.445 116.419C189.378 116.381 189.307 116.348 189.234 116.32H189.175C189.117 116.301 189.057 116.288 188.996 116.281H188.798C188.646 116.251 188.488 116.251 188.336 116.281C188.269 116.296 188.205 116.321 188.144 116.353H188.105C188.046 116.38 187.991 116.413 187.94 116.452H187.9C172.662 128.725 167.028 139.141 165.139 146.347L165.099 146.096C165.203 145.836 165.287 145.569 165.35 145.297C165.41 145.055 165.393 144.802 165.304 144.57C165.31 144.342 165.256 144.116 165.149 143.914C165.041 143.713 164.883 143.543 164.69 143.421C164.69 143.361 164.69 143.309 164.69 143.249C164.726 143.077 164.726 142.899 164.69 142.727C164.604 142.285 164.511 141.842 164.406 141.406C163.428 134.623 162.576 127.285 161.916 119.378C161.968 119.354 162.019 119.325 162.068 119.293C174.928 109.504 178.759 85.0521 178.891 84.0152C178.921 83.75 178.87 83.4819 178.745 83.2461C178.62 83.0103 178.427 82.8178 178.19 82.6941C177.945 82.5765 177.669 82.5374 177.401 82.5824C177.133 82.6273 176.885 82.754 176.691 82.9451C165.245 94.6691 161.249 104.2 159.98 110.415C154.782 97.2054 141.566 85.7985 140.905 85.2239L140.819 85.171C140.808 85.1682 140.797 85.1682 140.786 85.171L140.595 85.0587C140.449 84.992 140.292 84.9539 140.132 84.9465H140.093H139.901H139.848L139.657 84.9993H139.617C139.544 85.0256 139.473 85.0588 139.406 85.0984C139.342 85.137 139.283 85.1812 139.227 85.2305C139.195 85.258 139.167 85.289 139.142 85.323L139.089 85.3758C139.056 85.4126 139.028 85.4524 139.003 85.4947V85.5409C139.003 85.5409 138.97 85.6136 138.95 85.6532C138.935 85.6755 138.924 85.7 138.917 85.7259C138.917 85.7259 138.917 85.7853 138.917 85.8183C138.917 85.8514 138.917 85.8844 138.917 85.9174C138.914 85.9416 138.914 85.9659 138.917 85.9901V86.1222V86.1816C138.914 86.23 138.914 86.2785 138.917 86.3269C138.917 86.3269 138.917 86.3665 138.917 86.393V86.5052C139.135 87.4035 139.366 88.2688 139.577 89.1473C145.859 112.199 156.579 118.209 159.32 119.418C159.699 123.936 160.139 128.271 160.641 132.423C152.999 119.781 138.342 112.912 137.576 112.555C137.346 112.455 137.092 112.422 136.844 112.461C136.596 112.499 136.364 112.608 136.176 112.773C135.994 112.935 135.861 113.145 135.794 113.379C135.728 113.613 135.729 113.861 135.799 114.094C135.797 114.121 135.797 114.147 135.799 114.174C142.537 133.672 150.991 140.733 156.731 143.236C140.529 144.953 127.431 158.645 126.803 159.312C126.652 159.473 126.544 159.669 126.491 159.884C126.438 160.098 126.441 160.322 126.5 160.534C126.513 160.594 126.533 160.651 126.559 160.706C126.658 160.938 126.824 161.136 127.036 161.273C127.248 161.411 127.495 161.482 127.748 161.479H128.474C128.754 161.582 129.06 161.582 129.34 161.479C150.681 160.984 159.478 154.312 163.039 149.702ZM251.288 183.837L274.115 177.8C268.31 180.911 259.736 184.425 251.269 183.837H251.288ZM274.28 175.092L249.723 181.585C252.867 178.718 259.855 174.689 274.261 175.092H274.28ZM188.91 209.564C189.379 206.334 191.084 201.486 196.176 195.449L188.91 209.564ZM197.556 198.335C196.308 202.308 194.394 206.04 191.896 209.372L197.556 198.335ZM199.366 216.367L212.774 229.009C204.611 224.339 200.971 219.669 199.366 216.367ZM211.678 224.438L201.724 215.046C205.707 217.463 209.076 221.043 211.665 224.438H211.678ZM212.239 198.375C212.9 192.291 216.163 180.462 230.39 165.35L212.239 198.375ZM231.652 168.375C228.686 177.575 223.27 190.739 214.829 199.002L231.652 168.375ZM223.527 202.192C224.914 207.562 227.662 218.256 229.505 225.878C226.381 220.033 222.636 210.977 223.514 202.192H223.527ZM231.863 224.649C230.027 217.08 227.405 206.875 226.044 201.605C228.732 204.887 232.193 211.631 231.85 224.682L231.863 224.649ZM227.953 199.313C237.966 202.219 251.434 207.437 259.307 210.594C250.991 210.033 237.055 207.741 227.94 199.346L227.953 199.313ZM258.765 207.602C250.912 204.484 238.798 199.841 229.386 197.034C234.426 196.301 244.34 196.955 258.752 207.635L258.765 207.602ZM227.662 146.789L273.937 140.026C262.563 144.246 243.276 149.861 227.649 146.822L227.662 146.789ZM275.324 137.252L227.431 144.246C233.587 140.316 248.125 134.015 275.324 137.252ZM244.815 123.157C253.402 115.931 271.5 101.485 281.929 93.2226C274.313 102.668 260.218 117.853 244.829 123.157H244.815ZM281.031 90.6466C271.004 98.5726 252.946 112.972 243.864 120.587C247.253 114.022 256.539 101.532 281.044 90.6466H281.031ZM240.02 121.03L234.406 73.5858C238.428 85.1908 243.805 105.231 240.033 121.03H240.02ZM231.731 72.5488L237.325 119.854C233.514 113.328 228.006 98.7972 231.731 72.5488ZM214.294 151.235C205.727 128.275 203.329 102.476 202.669 91.3269C217.028 119.563 215.714 142.087 214.267 151.235H214.294ZM200.291 93.7708C200.951 103.579 202.781 121.03 207.609 138.751C208.811 143.163 210.205 147.589 211.81 151.921C193.831 134.676 197.239 107.087 200.264 93.7972L200.291 93.7708ZM191.262 154.643C190.661 162.866 188.138 179.379 177.49 187.76L191.262 154.643ZM188.171 155.369L175.053 186.968C175.007 186.816 174.961 186.651 174.914 186.492C173.455 181.248 172.992 169.801 188.138 155.396L188.171 155.369ZM166.803 181.928L149.393 173.124C155.192 174.986 161.856 177.82 166.803 181.928ZM143.93 173.249L164.69 183.751C159.994 182.919 152.834 180.376 143.93 173.249ZM169.393 153.434L185.555 125.449C183.27 133.645 178.501 146.076 169.393 153.454V153.434ZM183.739 123.447L166.856 152.694C166.902 147.509 169.194 136.968 183.739 123.467V123.447ZM162.332 112.219C162.992 107.886 165.185 101.142 171.579 92.6876L162.332 112.219ZM174.016 93.6123C172.246 99.6228 169.346 107.159 164.921 112.767L174.016 93.6123ZM157.939 112.186L147.517 95.6004C151.42 100.118 155.7 106.063 157.939 112.232V112.186ZM144.069 94.8672L156.169 114.253C152.721 111.301 147.913 105.587 144.049 94.9135L144.069 94.8672ZM160.938 138.969C155.449 132.668 147.913 124.081 143.177 118.698C149.168 122.707 157.464 129.616 160.918 139.015L160.938 138.969ZM140.747 119.814C145.641 125.382 154.009 134.914 159.723 141.486C155.482 140.336 147.622 135.884 140.727 119.88L140.747 119.814ZM158.494 145.574C151.592 148.309 140.35 153.414 133.62 156.519C139.016 152.239 148.276 146.208 158.474 145.633L158.494 145.574ZM135.614 158.441C144.075 154.55 156.011 149.194 161.618 147.126C159.287 150.68 152.801 156.921 135.595 158.5L135.614 158.441Z" fill="white" fill-opacity="0.33"/>
<path d="M40.5603 198.855C48.0636 205.764 54.8866 211.358 60.8246 215.823C62.0135 216.715 63.1561 217.56 64.2724 218.359C49.9197 216.708 32.3437 226.563 31.5511 227.019C31.3238 227.146 31.1438 227.343 31.0378 227.581C30.9319 227.819 30.9057 228.085 30.9632 228.34C31.0204 228.628 31.1829 228.884 31.419 229.059C31.5906 229.193 31.7967 229.276 32.0134 229.297C55.131 231.781 64.7149 224.588 67.2909 222.071L68.4996 221.84C68.6552 221.81 68.8032 221.749 68.9355 221.662C79.3913 228.762 85.5934 231.431 85.7255 231.49L85.884 231.536C87.8656 245.572 89.7612 254.337 90.0981 255.064C90.1862 255.248 90.3176 255.409 90.4811 255.532C90.6549 255.668 90.8623 255.754 91.081 255.78C91.2997 255.807 91.5216 255.774 91.7229 255.684C92.0117 255.555 92.2373 255.315 92.3499 255.019C92.4626 254.723 92.4533 254.395 92.324 254.106C92.1126 253.498 91.5115 250.803 90.7255 246.484C90.9439 246.492 91.1603 246.441 91.3521 246.336C91.5439 246.231 91.7039 246.077 91.8154 245.889C91.888 245.764 95.7189 239.231 101.485 227.395C102.971 228.699 104.69 229.709 106.551 230.374C111.115 232.098 118.671 233.108 130.56 230.13C130.799 230.07 131.013 229.94 131.175 229.755C131.338 229.571 131.44 229.342 131.468 229.098C131.497 228.854 131.451 228.607 131.336 228.39C131.221 228.174 131.043 227.997 130.825 227.884L129.907 227.435H129.86C126.333 225.764 113.969 220.513 103.44 223.359C106.241 217.481 109.385 210.546 112.74 202.639C118.024 212.791 129.801 218.386 135.99 220.724C138.216 221.569 139.722 221.992 139.953 222.045H139.992H140.072H140.171H140.356H140.428H140.527H140.607L140.693 222.012L140.778 221.979L140.858 221.939L140.937 221.893L141.01 221.84L141.082 221.781L141.148 221.721L141.181 221.682L141.221 221.642L141.274 221.556L141.313 221.497C141.345 221.44 141.372 221.38 141.393 221.318C141.396 221.29 141.396 221.261 141.393 221.233C141.395 221.195 141.395 221.158 141.393 221.12C141.396 221.087 141.396 221.054 141.393 221.021C141.396 220.984 141.396 220.946 141.393 220.909V220.816C141.385 220.752 141.374 220.688 141.36 220.625C141.363 220.599 141.363 220.572 141.36 220.546L141.32 220.427L141.28 220.347V220.295C134.59 208.947 128.183 203.419 123.15 200.764C139.147 199.258 153.275 187.276 153.982 186.668C154.082 186.579 154.167 186.474 154.233 186.358C154.266 186.299 154.293 186.237 154.312 186.173C154.312 186.173 154.312 186.173 154.312 186.14C154.334 186.078 154.349 186.014 154.358 185.948C154.365 185.878 154.365 185.807 154.358 185.737C154.358 185.737 154.358 185.691 154.358 185.664V185.532C154.355 185.513 154.355 185.493 154.358 185.473V185.427C154.347 185.39 154.332 185.354 154.312 185.321C154.313 185.301 154.313 185.281 154.312 185.262C154.279 185.196 154.239 185.134 154.193 185.077V185.044L154.068 184.918L154.035 184.885C153.982 184.84 153.924 184.8 153.863 184.766C153.799 184.725 153.73 184.692 153.658 184.667C153.589 184.643 153.519 184.626 153.447 184.614H153.361C132.225 183.293 121.822 188.498 116.881 192.838C118.77 188.13 120.688 183.155 122.634 177.91C122.709 177.892 122.782 177.868 122.852 177.837C138.262 171.45 144.061 150.347 144.391 149.092C144.423 148.985 144.439 148.874 144.438 148.762C144.447 148.679 144.447 148.595 144.438 148.511C144.383 148.253 144.244 148.02 144.041 147.851L143.883 147.672H143.85C143.606 147.5 143.307 147.424 143.011 147.461H142.912C142.773 147.492 142.641 147.548 142.522 147.626C119.636 161.437 120.455 173.868 120.838 176.18C120.627 176.319 120.468 176.523 120.382 176.761C116.908 186.173 113.467 194.753 110.21 202.415C111.135 184.284 101.095 163.723 100.593 162.719C100.57 162.671 100.543 162.624 100.514 162.58V162.547C100.374 162.358 100.181 162.216 99.9594 162.137H99.9197L99.781 162.104H99.6754H99.5895C99.5172 162.094 99.4438 162.094 99.3715 162.104C99.2883 162.119 99.2066 162.141 99.1271 162.17C99.0581 162.194 98.9917 162.225 98.929 162.263C98.8678 162.301 98.8103 162.346 98.7572 162.395C98.6472 162.496 98.5575 162.617 98.493 162.752C98.4902 162.767 98.4902 162.783 98.493 162.798C98.4665 162.848 98.4465 162.901 98.4336 162.956C98.4305 162.976 98.4305 162.996 98.4336 163.016V163.082C92.5353 198.399 105.039 210.697 106.241 211.814C103.599 217.758 101.128 222.937 98.9752 227.349C99.4045 216.556 92.7401 205.552 92.4032 205.03C92.2752 204.819 92.0855 204.653 91.8599 204.552C91.6342 204.452 91.3833 204.424 91.1409 204.47C90.8984 204.517 90.6762 204.637 90.5039 204.814C90.3316 204.991 90.2177 205.216 90.1773 205.46C86.4058 226.959 94.8735 233.128 95.7784 233.716C93.1364 238.848 91.2539 242.263 90.3887 243.782C86.5834 220.828 84.3764 197.637 83.7836 174.376C83.8992 174.084 83.8992 173.758 83.7836 173.465C83.7631 173.422 83.7455 173.378 83.7308 173.333C83.6603 170.136 83.6185 166.893 83.6053 163.604C83.647 163.609 83.6892 163.609 83.7308 163.604C106.895 155.407 123.863 121.847 124.576 120.42C124.693 120.19 124.733 119.929 124.691 119.675C124.649 119.421 124.527 119.187 124.343 119.007C124.159 118.827 123.922 118.711 123.667 118.675C123.412 118.639 123.152 118.686 122.925 118.808C96.2275 132.87 86.9078 147.309 83.6582 155.361C83.7572 149.482 83.9752 143.505 84.3187 137.481C84.4121 137.443 84.5008 137.394 84.5829 137.335C84.77 137.346 84.9571 137.313 85.1292 137.238C85.3012 137.164 85.4534 137.05 85.5736 136.906C101.34 118.062 98.8497 80.5256 98.7374 78.9404C98.7374 78.9404 98.7374 78.9073 98.7374 78.8941C98.7374 78.8809 98.7374 78.8281 98.7374 78.8017L98.6978 78.6497C98.6978 78.6497 98.6978 78.6497 98.6978 78.6035C98.588 78.3154 98.3733 78.0794 98.0967 77.943L97.925 77.877H97.8722H97.6476H97.4957H97.4296H97.2711H97.2051L97.0465 77.9232H96.9937C96.862 77.9764 96.7394 78.05 96.6304 78.1412L96.571 78.2006L96.4851 78.2931L96.4257 78.3723V78.4186C81.9673 101.899 80.1641 118.267 80.9633 127.461C69.4441 108.452 43.9751 94.8255 42.7268 94.1716H42.6938C42.5305 94.087 42.3492 94.0429 42.1654 94.0429C41.9815 94.0429 41.8003 94.087 41.6369 94.1716C41.5907 94.194 41.5465 94.2206 41.5049 94.2508C41.4454 94.2891 41.3901 94.3334 41.3397 94.3829C41.2862 94.438 41.2376 94.4977 41.1944 94.5613C41.1819 94.5779 41.1709 94.5956 41.1614 94.6141C41.1346 94.6589 41.1103 94.7053 41.0887 94.7528C41.0863 94.7725 41.0863 94.7925 41.0887 94.8123C41.0682 94.8641 41.0505 94.917 41.0359 94.9708C41.0388 94.9883 41.0388 95.0061 41.0359 95.0236C41.0095 95.1655 41.0095 95.311 41.0359 95.4529C41.0359 95.4529 41.0359 95.486 41.0359 95.5058C41.0359 95.5256 41.0359 95.6115 41.0887 95.6709V95.7171C41.086 95.7413 41.086 95.7656 41.0887 95.7898C50.3358 114.337 59.9131 124.7 67.6079 130.486C74.279 135.506 79.497 137.091 81.8286 137.56C81.1681 148.062 80.9963 158.372 81.1086 168.26C76.0359 159.33 62.5551 141.008 32.5352 128.333C32.3383 128.249 32.1227 128.219 31.9103 128.245C31.698 128.272 31.4965 128.355 31.3265 128.485C31.3265 128.485 31.3265 128.485 31.2803 128.524V128.564C31.2241 128.621 31.1733 128.683 31.1283 128.749L31.0887 128.815C31.0358 128.899 30.9957 128.99 30.9698 129.086C30.9698 129.086 30.9698 129.125 30.9698 129.152C30.9597 129.235 30.9597 129.319 30.9698 129.403V129.469C30.9723 129.57 30.9878 129.669 31.0161 129.766C31.1217 130.09 38.8034 152.884 56.2737 166.048C63.0901 171.18 71.4124 174.826 81.3728 175.09C81.8581 193.038 83.2956 210.947 85.6793 228.742C81.9339 226.879 78.2975 224.804 74.7876 222.527C82.1588 203.802 64.497 181.979 63.7374 181.054C63.5962 180.877 63.4073 180.745 63.193 180.672C62.9788 180.6 62.7482 180.59 62.5287 180.645C62.3091 180.695 62.108 180.806 61.9481 180.965C61.7883 181.123 61.6759 181.324 61.6238 181.543L61.4851 182.151C61.3532 182.301 61.2606 182.481 61.2156 182.676C61.1707 182.871 61.1747 183.074 61.2275 183.267C57.7995 199.053 60.1773 208.861 63.6317 214.806C59.1601 211.503 54.1469 207.501 48.6845 202.758C56.0954 184.132 42.8589 160.612 42.2909 159.614L42.2512 159.548C42.2263 159.51 42.1975 159.475 42.1654 159.442L42.1059 159.37L42.0266 159.304L41.9408 159.231H41.9011C41.7694 159.144 41.6209 159.086 41.4652 159.059H41.4124H41.0755C41.0009 159.068 40.9276 159.085 40.8576 159.112H40.8047L40.6528 159.178H40.6066C40.4808 159.256 40.3709 159.357 40.2829 159.475C40.2451 159.528 40.2119 159.583 40.1838 159.641V159.68C40.159 159.736 40.1369 159.794 40.1178 159.852V159.892C35.8708 177.798 37.6871 188.782 40.4414 195.222L40.2631 195.057C40.1914 194.806 40.1008 194.561 39.9923 194.324C39.8951 194.11 39.7364 193.931 39.5365 193.808C39.4091 193.634 39.2385 193.497 39.0416 193.409C38.8448 193.321 38.6283 193.285 38.4137 193.306L38.3014 193.194C38.2326 193.046 38.1336 192.913 38.0108 192.804C37.6937 192.52 37.3503 192.243 37.0332 191.979C32.4009 187.509 27.5572 182.534 22.5022 177.051C22.5238 177.002 22.5414 176.952 22.555 176.9C26.4718 162.131 15.23 141.748 14.7545 140.896C14.6289 140.672 14.436 140.495 14.2034 140.388C13.9707 140.281 13.7102 140.25 13.459 140.299C13.2078 140.349 12.9788 140.477 12.8046 140.665C12.6304 140.853 12.5199 141.09 12.489 141.345C10.7386 156.649 13.2683 166.034 15.9038 171.384C4.43742 164.575 -11.9629 163.709 -12.7885 163.663H-12.9206C-12.9887 163.657 -13.0572 163.657 -13.1254 163.663C-13.2697 163.7 -13.4061 163.763 -13.5283 163.848H-13.5613C-13.6099 163.882 -13.6543 163.922 -13.6934 163.967L-13.733 164.007C-13.7741 164.052 -13.8116 164.101 -13.8453 164.152V164.185C-13.8861 164.247 -13.9194 164.313 -13.9444 164.383C-13.9681 164.447 -13.9858 164.514 -13.9972 164.581C-14.0004 164.621 -14.0004 164.661 -13.9972 164.7C-13.9972 164.7 -13.9972 164.746 -13.9972 164.766C-13.9972 164.786 -13.9972 164.859 -13.9972 164.905C-14.0001 164.922 -14.0001 164.94 -13.9972 164.958C-14.0009 164.995 -14.0009 165.033 -13.9972 165.07C-13.9972 165.07 -13.9972 165.123 -13.9972 165.143C-13.9844 165.171 -13.9734 165.199 -13.9642 165.228L-13.9246 165.328C-13.9267 165.347 -13.9267 165.367 -13.9246 165.387L-13.8651 165.493L-13.8255 165.539L-13.7462 165.638L-13.7 165.684L-13.6207 165.757C-12.9602 166.298 -12.2997 166.814 -11.6062 167.309C6.34628 180.816 17.7796 179.112 20.5075 178.419C23.3873 181.563 26.2076 184.535 28.9685 187.336C16.0028 182.349 1.15472 185.697 0.375328 185.869C0.150935 185.923 -0.0536051 186.039 -0.214395 186.204C-0.375183 186.37 -0.485578 186.577 -0.53268 186.803C-0.579782 187.029 -0.561646 187.264 -0.480391 187.48C-0.399135 187.695 -0.258118 187.884 -0.0738144 188.022L-0.00776291 188.062C16.2406 198.663 26.6105 199.02 32.3106 197.606C21.0293 208.287 19.1997 226.008 19.1204 226.867C19.1015 227.073 19.1352 227.28 19.2184 227.47C19.3015 227.659 19.4315 227.824 19.596 227.95C19.6432 227.986 19.6941 228.017 19.7479 228.042C19.9537 228.158 20.1892 228.209 20.4245 228.191C20.6597 228.172 20.884 228.083 21.0689 227.937L21.6105 227.507C21.8848 227.423 22.1194 227.242 22.271 226.999C37.8919 214.343 40.5868 204.317 40.5603 198.855ZM125.798 173.346L139.273 155.711C136.769 161.351 132.423 168.907 125.798 173.346ZM137.839 153.617L123.308 172.593C124.015 168.63 126.901 161.602 137.839 153.617ZM94.2923 228.406C92.7797 225.731 91.2473 221.14 91.538 213.742L94.2923 228.406ZM94.2923 215.09C95.6558 218.762 96.3839 222.64 96.4455 226.556L94.2923 215.09ZM106.01 227.441L123.249 229.099C114.471 230.328 109.068 228.914 105.977 227.441H106.01ZM119.807 226.338L107.02 225.103C111.327 224.588 115.891 225.308 119.774 226.338H119.807ZM105.204 206.649C102.165 201.768 97.7863 191.087 99.6423 171.642L105.204 206.649ZM102.337 173.174C105.428 181.721 108.995 194.621 107.489 205.625L102.337 173.174ZM115.792 202.983C119.913 206.166 128.117 212.534 133.883 217.131C128.163 214.581 120.164 210.017 115.759 202.983H115.792ZM134.946 214.872C129.213 210.308 121.386 204.238 117.337 201.107C121.181 201.972 127.641 204.991 134.913 214.885L134.946 214.872ZM117.436 198.306C126.551 194.694 139.563 190.803 147.232 188.61C140.686 192.97 129.008 199.297 117.403 198.32L117.436 198.306ZM145.105 186.701C137.469 188.908 125.798 192.448 117.192 195.797C120.468 192.316 128.209 187.091 145.072 186.715L145.105 186.701ZM86.9408 159.449L117.423 127.745C111.366 137.428 100.29 152.712 86.9078 159.462L86.9408 159.449ZM116.802 124.865L85.2566 157.672C87.5749 151.206 94.7414 138.148 116.802 124.865ZM86.0095 131.979C88.209 121.682 93.3543 100.499 96.3332 88.3459C96.1284 99.766 94.4045 119.172 86.0294 131.979H86.0095ZM94.18 86.9523C91.3134 98.6366 86.1879 119.726 83.8299 130.618C82.5683 123.795 82.2711 109.165 94.1998 86.9523H94.18ZM81.2275 133.187L49.7083 101.166C59.3979 107.461 74.9461 119.271 81.2473 133.141L81.2275 133.187ZM47.1191 101.946L78.5393 133.861C71.9739 131.213 59.497 123.577 47.1191 101.946ZM79.4838 170.46C59.9131 158.32 43.2618 140.526 36.3529 132.619C63.3014 145.334 75.316 162.824 79.5102 170.46H79.4838ZM36.0029 135.856C42.1587 142.752 53.5656 154.667 67.3701 165.05C70.8048 167.633 74.3913 170.123 78.0769 172.415C54.7876 169.931 41.419 147.468 36.0029 135.856ZM64.4045 186.279C68.711 192.719 76.3332 206.398 73.2618 218.782L64.4045 186.279ZM62.5089 188.623L70.9699 219.667L70.6 219.396C66.4917 216.272 59.5498 208.036 62.5089 188.623ZM61.9408 220.638L43.9355 224.126C49.3186 222.144 55.8972 220.414 61.9408 220.618V220.638ZM39.9461 227.369L61.419 223.207C57.456 225.275 50.6726 227.507 39.9461 227.349V227.369ZM47.4494 197.963L43.3278 167.864C46.3529 175.255 49.9659 187.236 47.4494 197.963ZM40.8443 167.421L45.1442 198.861C42.1654 194.984 37.806 185.836 40.8443 167.421ZM18.4731 171.45C16.4916 167.844 14.2063 161.543 14.1006 151.596L18.4731 171.45ZM16.4057 150.876C18.5524 156.365 20.7452 163.63 20.6924 170.354L16.4057 150.876ZM15.164 173.941L-2.161 167.593C3.37401 168.723 9.96583 170.658 15.1838 173.941H15.164ZM-5.13327 169.086L15.0187 176.464C10.7716 176.259 3.90902 174.786 -5.11345 169.086H-5.13327ZM32.8192 192.131C25.131 190.605 14.5761 188.571 7.9579 187.302C14.6884 186.794 24.8536 187.131 32.8391 192.131H32.8192ZM6.80863 189.548C13.6514 190.869 25.3622 193.122 33.3939 194.707C29.5564 196.239 21.1548 197.461 6.80863 189.548ZM34.8404 198.452C31.2803 204.462 25.8707 214.733 22.6607 220.909C24.1865 214.575 27.5947 204.753 34.8404 198.452ZM25.2565 221.193C29.2988 213.432 35.0782 202.573 38.0504 197.804C38.3476 201.728 37.1257 210.103 25.2565 221.193Z" fill="white" fill-opacity="0.33"/>
<g opacity="0.44">
<path opacity="0.44" d="M144.992 187.193C145.29 187.195 145.579 187.298 145.811 187.484C146.056 187.646 146.268 187.852 146.438 188.092C146.452 188.111 146.461 188.133 146.465 188.156C146.47 188.179 146.47 188.202 146.465 188.225C146.46 188.248 146.45 188.27 146.437 188.289C146.423 188.308 146.406 188.324 146.386 188.336C146.367 188.344 146.347 188.348 146.326 188.348C146.306 188.348 146.286 188.344 146.267 188.336C145.983 188.291 145.71 188.194 145.461 188.052C145.197 187.925 144.984 187.713 144.853 187.451C144.832 187.405 144.829 187.353 144.845 187.305C144.861 187.257 144.895 187.217 144.939 187.193H144.992Z" fill="white"/>
</g>
<g opacity="0.44">
<path opacity="0.44" d="M148.792 167.488C148.745 167.932 148.606 168.362 148.382 168.749C148.18 169.146 147.929 169.517 147.636 169.852C147.604 169.883 147.561 169.9 147.517 169.9C147.473 169.9 147.43 169.883 147.398 169.852C147.377 169.832 147.361 169.807 147.352 169.78C147.343 169.752 147.34 169.722 147.345 169.694C147.425 169.262 147.561 168.843 147.748 168.445C147.909 168.034 148.16 167.664 148.481 167.362C148.515 167.329 148.56 167.311 148.607 167.311C148.654 167.311 148.699 167.329 148.732 167.362C148.75 167.378 148.765 167.397 148.775 167.419C148.785 167.44 148.791 167.464 148.792 167.488Z" fill="white"/>
</g>
<g style="mix-blend-mode:multiply" opacity="0.14">
<g style="mix-blend-mode:multiply" opacity="0.14">
<path d="M131.414 191.305C131.414 191.178 129.375 191.252 126.131 190.882C122.888 190.512 118.471 189.646 113.537 188.769C109.315 187.94 104.995 187.726 100.711 188.135C99.414 188.291 98.134 188.563 96.8861 188.949C96.4204 189.058 95.9748 189.24 95.5654 189.488C95.5654 189.625 97.5306 188.949 100.764 188.685C105.009 188.434 109.268 188.718 113.442 189.53C118.345 190.386 122.824 191.22 126.121 191.41C127.419 191.486 128.721 191.486 130.019 191.41C130.487 191.439 130.956 191.403 131.414 191.305Z" fill="#A54F46"/>
</g>
</g>
<g style="mix-blend-mode:multiply" opacity="0.14">
<g style="mix-blend-mode:multiply" opacity="0.14">
<path d="M188.964 192.253C188.604 191.899 188.19 191.603 187.739 191.376C186.539 190.684 185.258 190.144 183.925 189.77C181.954 189.221 179.925 188.909 177.881 188.84C175.386 188.756 172.889 188.865 170.411 189.168L163.015 190.097C161.021 190.349 159.014 190.493 157.004 190.531C153.57 190.583 151.467 190.118 151.446 190.256C151.91 190.461 152.401 190.597 152.904 190.657C154.253 190.913 155.621 191.055 156.993 191.08C159.029 191.125 161.066 191.033 163.089 190.805C165.372 190.583 167.854 190.235 170.485 189.939C172.938 189.637 175.41 189.506 177.881 189.548C179.882 189.581 181.873 189.833 183.819 190.298C185.585 190.808 187.305 191.462 188.964 192.253Z" fill="#A54F46"/>
</g>
</g>
<path d="M233.963 64.7569L230.601 63.918C230.162 63.7906 229.769 63.5409 229.467 63.1982C229.166 62.8555 228.968 62.4339 228.897 61.9828L228.177 58.3962C228.135 58.2616 228.051 58.1439 227.938 58.0603C227.824 57.9767 227.687 57.9316 227.546 57.9316C227.405 57.9316 227.268 57.9767 227.154 58.0603C227.041 58.1439 226.957 58.2616 226.915 58.3962L226.308 61.6987C226.23 62.2321 226.003 62.7326 225.652 63.1418C225.301 63.551 224.841 63.8523 224.326 64.0105L221.215 64.8361C221.04 64.8361 220.872 64.9057 220.748 65.0296C220.624 65.1535 220.555 65.3215 220.555 65.4966C220.555 65.6718 220.624 65.8398 220.748 65.9637C220.872 66.0876 221.04 66.1571 221.215 66.1571L224.333 66.9299C224.844 67.0869 225.301 67.3844 225.651 67.7884C226.002 68.1925 226.231 68.6869 226.314 69.2153L226.975 72.5178C227.017 72.6524 227.1 72.7701 227.214 72.8537C227.327 72.9373 227.465 72.9824 227.606 72.9824C227.747 72.9824 227.884 72.9373 227.997 72.8537C228.111 72.7701 228.195 72.6524 228.236 72.5178L228.897 68.9114C228.962 68.4625 229.152 68.0411 229.447 67.6962C229.742 67.3513 230.128 67.097 230.561 66.963L233.963 66.0845C234.139 66.0845 234.308 66.0145 234.432 65.8901C234.557 65.7656 234.627 65.5967 234.627 65.4207C234.627 65.2446 234.557 65.0758 234.432 64.9513C234.308 64.8268 234.139 64.7569 233.963 64.7569Z" fill="#F2BC36"/>
<path d="M41.9072 56.7744L38.5453 57.6132C38.1068 57.7407 37.7136 57.9903 37.4118 58.3331C37.11 58.6758 36.9121 59.0974 36.8412 59.5485L36.1212 63.135C36.0794 63.2696 35.9956 63.3873 35.8822 63.4709C35.7687 63.5545 35.6314 63.5996 35.4904 63.5996C35.3495 63.5996 35.2122 63.5545 35.0987 63.4709C34.9852 63.3873 34.9015 63.2696 34.8597 63.135L34.252 59.8325C34.1745 59.2991 33.9471 58.7987 33.5963 58.3895C33.2455 57.9802 32.7858 57.679 32.2705 57.5207L29.1595 56.6951C28.9844 56.6951 28.8163 56.6255 28.6925 56.5017C28.5686 56.3778 28.499 56.2098 28.499 56.0346C28.499 55.8594 28.5686 55.6914 28.6925 55.5676C28.8163 55.4437 28.9844 55.3741 29.1595 55.3741L32.2771 54.6013C32.7884 54.4444 33.2452 54.1469 33.5956 53.7428C33.9459 53.3387 34.1757 52.8443 34.2586 52.316L34.9191 49.0135C34.9609 48.8789 35.0447 48.7612 35.1582 48.6776C35.2717 48.594 35.4089 48.5489 35.5499 48.5489C35.6908 48.5489 35.8281 48.594 35.9416 48.6776C36.0551 48.7612 36.1389 48.8789 36.1807 49.0135L36.8412 52.6198C36.9059 53.0688 37.0966 53.4902 37.3913 53.8351C37.6859 54.18 38.0723 54.4342 38.5056 54.5683L41.9072 55.4468C42.0833 55.4468 42.2521 55.5167 42.3766 55.6412C42.5011 55.7657 42.571 55.9345 42.571 56.1106C42.571 56.2866 42.5011 56.4555 42.3766 56.58C42.2521 56.7044 42.0833 56.7744 41.9072 56.7744Z" fill="#F2BC36"/>
<path d="M246.241 44.8497L244.26 44.3609C244.001 44.2841 243.769 44.1353 243.591 43.9318C243.413 43.7283 243.297 43.4786 243.256 43.2117L242.826 41.0914C242.81 41.0053 242.764 40.9276 242.696 40.8717C242.629 40.8158 242.544 40.7852 242.456 40.7852C242.369 40.7852 242.284 40.8158 242.216 40.8717C242.149 40.9276 242.103 41.0053 242.086 41.0914L241.723 43.0729C241.672 43.3809 241.537 43.6688 241.333 43.9052C241.129 44.1417 240.864 44.3176 240.567 44.4138L238.731 44.8959C238.642 44.9161 238.562 44.966 238.505 45.0374C238.448 45.1088 238.417 45.1975 238.417 45.2889C238.417 45.3804 238.448 45.4691 238.505 45.5405C238.562 45.6119 238.642 45.6618 238.731 45.6819L240.567 46.1707C240.868 46.2585 241.138 46.4288 241.347 46.6623C241.556 46.8958 241.696 47.1831 241.75 47.4917L242.139 49.4732C242.159 49.5575 242.206 49.6327 242.274 49.6866C242.342 49.7404 242.426 49.7697 242.512 49.7697C242.599 49.7697 242.683 49.7404 242.751 49.6866C242.819 49.6327 242.866 49.5575 242.886 49.4732L243.282 47.3464C243.317 47.0779 243.427 46.8247 243.6 46.6165C243.773 46.4083 244.002 46.2537 244.26 46.1707L246.241 45.6423C246.334 45.6253 246.418 45.5763 246.478 45.5039C246.538 45.4315 246.571 45.3403 246.571 45.246C246.571 45.1517 246.538 45.0605 246.478 44.9881C246.418 44.9157 246.334 44.8667 246.241 44.8497Z" fill="#F2BC36"/>
<path d="M54.1854 76.6816L52.2038 77.1703C51.9449 77.2472 51.713 77.396 51.5353 77.5995C51.3576 77.8029 51.2412 78.0526 51.1999 78.3196L50.7706 80.4398C50.7542 80.5259 50.7083 80.6037 50.6408 80.6596C50.5733 80.7155 50.4883 80.7461 50.4007 80.7461C50.313 80.7461 50.2281 80.7155 50.1606 80.6596C50.093 80.6037 50.0471 80.5259 50.0308 80.4398L49.6675 78.4583C49.6161 78.1504 49.4812 77.8625 49.2773 77.626C49.0735 77.3896 48.8086 77.2137 48.5116 77.1175L46.6754 76.6353C46.5863 76.6152 46.5066 76.5653 46.4495 76.4939C46.3924 76.4225 46.3613 76.3338 46.3613 76.2423C46.3613 76.1509 46.3924 76.0622 46.4495 75.9908C46.5066 75.9193 46.5863 75.8695 46.6754 75.8493L48.5116 75.3605C48.8124 75.2727 49.0826 75.1024 49.2915 74.869C49.5005 74.6355 49.6399 74.3482 49.6939 74.0395L50.0836 72.058C50.1032 71.9737 50.1507 71.8985 50.2185 71.8447C50.2863 71.7908 50.3703 71.7615 50.4568 71.7615C50.5434 71.7615 50.6274 71.7908 50.6951 71.8447C50.7629 71.8985 50.8104 71.9737 50.83 72.058L51.2263 74.1849C51.2609 74.4534 51.3712 74.7065 51.5443 74.9147C51.7174 75.1229 51.9461 75.2775 52.2038 75.3605L54.1854 75.889C54.2781 75.9059 54.3619 75.9549 54.4222 76.0273C54.4826 76.0997 54.5156 76.191 54.5156 76.2852C54.5156 76.3795 54.4826 76.4708 54.4222 76.5432C54.3619 76.6156 54.2781 76.6646 54.1854 76.6816Z" fill="#F2BC36"/>
<g style="mix-blend-mode:multiply" opacity="0.14">
<g style="mix-blend-mode:multiply" opacity="0.14">
<path d="M143.777 171.639C148.364 171.483 152.91 170.726 157.301 169.389C157.246 169.093 157.218 168.792 157.216 168.491V148.564L123.755 153.699L123.301 166.251C123.272 167.215 122.952 168.147 122.382 168.924C129.339 170.889 136.55 171.804 143.777 171.639Z" fill="#FCC1A8"/>
</g>
</g>
<g style="mix-blend-mode:multiply" opacity="0.1">
<g style="mix-blend-mode:multiply" opacity="0.1">
<path d="M145.33 118.589C144.421 114.109 143.502 109.524 144.273 105.012C145.044 100.501 147.707 96.0318 152.018 94.5315C153.793 93.9552 155.682 93.8174 157.522 94.1301C159.822 94.5182 161.993 95.4596 163.848 96.8731C165.704 98.2867 167.187 100.13 168.172 102.244C169.07 104.486 169.68 106.833 169.989 109.228C165.446 110.552 160.868 111.732 156.254 112.768" fill="#FCC1A8"/>
</g>
</g>
<g style="mix-blend-mode:multiply" opacity="0.1">
<g style="mix-blend-mode:multiply" opacity="0.1">
<path d="M101.979 116.964C101.644 114.809 101.757 112.609 102.312 110.5C102.866 108.391 103.85 106.419 105.202 104.708C106.584 103.025 108.388 101.739 110.43 100.98C112.471 100.221 114.677 100.016 116.824 100.387C118.681 100.851 120.412 101.72 121.895 102.931C123.378 104.142 124.576 105.665 125.403 107.392C127.033 110.873 127.659 114.741 127.209 118.559C127.222 119.946 126.696 121.283 125.741 122.289C124.061 123.683 121.515 122.817 119.571 121.887" fill="#FCC1A8"/>
</g>
</g>
<path d="M110.745 94.2379C111.845 99.301 110.084 103.19 107.736 107.666C105.388 112.142 103.358 116.839 104.605 122.024C105.584 125.986 108.666 128.09 110.965 131.196C111.699 132.199 110.256 133.642 109.253 132.884C93.3051 122.097 109.571 107.862 109.864 94.3602C109.864 94.2434 109.911 94.1314 109.993 94.0489C110.076 93.9663 110.188 93.9199 110.305 93.9199C110.421 93.9199 110.533 93.9663 110.616 94.0489C110.698 94.1314 110.745 94.2434 110.745 94.3602V94.2379Z" fill="#A1554C"/>
<path d="M224.996 121.412C227.442 109.794 230.328 98.7623 228.42 86.7526C226.121 72.2481 211.715 55.5177 195.155 62.1707C194.226 62.5621 193.663 61.07 194.495 60.5808C206.725 53.243 223.211 66.0109 228.005 76.9688C233.802 90.2993 232.407 108.937 225.877 121.779C225.608 122.292 224.874 121.926 224.996 121.412Z" fill="#A1554C"/>
<path d="M172.481 12.3971C167.397 8.50853 161.57 5.7032 155.36 4.15428C151.455 3.13873 147.384 2.9389 143.399 3.56725C137.602 4.66793 127.867 9.80443 135.449 18.243C136.11 18.9768 135.254 20.2732 134.324 19.6861C124.54 13.4489 133.688 3.20035 141.882 1.51264C152.4 -0.639807 165.657 4.22764 173.166 11.59C173.557 11.9813 173.019 12.7396 172.555 12.3971H172.481Z" fill="#A1554C"/>
<path d="M91.8132 44.6104C88.3888 40.3544 89.0003 33.2856 92.0089 28.9807C95.0174 24.6758 101.646 21.7896 106.293 24.7981C106.447 24.8989 106.565 25.0453 106.632 25.2167C106.698 25.3882 106.709 25.5761 106.663 25.7541C106.617 25.9321 106.517 26.0913 106.376 26.2094C106.235 26.3274 106.061 26.3985 105.877 26.4125C103.595 26.131 101.287 26.131 99.0043 26.4125C96.6921 27.1221 94.7016 28.6193 93.3786 30.644C90.419 35.0712 91.5441 39.2048 92.9139 43.9011C93.0851 44.4881 92.229 45.0506 91.8132 44.537V44.6104Z" fill="#A1554C"/>
<path d="M101.426 30.8167C101.426 30.8167 97.1211 17.7797 110.036 11.9583C113.535 10.2163 117.399 9.33211 121.307 9.37889C125.216 9.42568 129.058 10.4021 132.514 12.2274C147.899 1.56301 167.467 2.24788 180.235 18.6113C185.657 25.1585 188.814 33.2844 189.236 41.7746C199.24 39.3286 208.265 51.5584 202.151 59.679C238.595 79.051 234.878 125.059 210.345 146.951C197.405 158.471 183.439 157.102 166.317 156.93C155.457 156.808 143.301 155.022 133.615 149.837C112.531 138.561 95.7758 113.515 117.154 88.2478L107.981 68.6801C86.9948 64.9378 87.2883 32.2109 101.426 30.8167Z" fill="#B66354"/>
<path d="M101.573 129.803C91.104 131.735 73.6153 163.508 67.5738 173.145C56.4692 190.903 30.1507 220.743 44.0437 229.647C59.8201 239.724 83.6193 200.907 93.3787 186.06C98.7109 177.964 101.573 129.803 101.573 129.803Z" fill="#FCC1A8"/>
<path d="M90.7375 173.707C88.874 180.876 85.2793 187.477 80.2688 192.932C80.2688 192.932 55.9316 197.286 48.4714 209.565C43.1392 218.346 81.9076 203.817 81.9076 203.817L96.5834 180.654L90.7375 173.707Z" fill="#CB8B6F"/>
<path d="M191.045 52.0941C177.005 59.2363 147.702 59.065 141.172 41.234C141.001 40.7448 141.71 40.3045 142.028 40.7203C154.258 56.4723 173.263 55.3961 190.629 51.1157C191.192 50.9689 191.607 51.8006 191.045 52.0941Z" fill="#A1554C"/>
<path d="M158.123 44.2452C145.893 46.2754 130.068 27.1235 140.585 16.7282C140.712 16.6186 140.872 16.5555 141.039 16.5493C141.206 16.5431 141.37 16.5942 141.504 16.6941C141.638 16.794 141.734 16.9367 141.776 17.0986C141.818 17.2605 141.804 17.4318 141.735 17.5843C138.8 23.7481 138.506 29.0069 142.885 34.706C144.676 37.1226 146.944 39.1464 149.548 40.6525C152.152 42.1585 155.037 43.1149 158.025 43.4625C158.416 43.4625 158.612 44.1718 158.025 44.2452H158.123Z" fill="#A1554C"/>
<path d="M175.024 21.8864C169.692 16.9945 159.664 12.4939 152.644 16.0406C152.476 16.1343 152.283 16.1708 152.093 16.1445C151.903 16.1182 151.727 16.0306 151.591 15.895C151.455 15.7593 151.368 15.583 151.341 15.393C151.315 15.2029 151.352 15.0095 151.445 14.8421C153.573 11.3199 159.297 12.3961 162.648 13.1054C165.237 13.5921 167.705 14.5861 169.909 16.0301C172.112 17.4742 174.009 19.3398 175.489 21.5195C175.709 21.8131 175.269 22.1066 175.024 21.8864Z" fill="#A1554C"/>
<path d="M179.55 34.557C178.2 32.5099 176.503 30.7138 174.536 29.2492C172.921 28.2709 170.696 27.5371 169.644 25.8738C169.589 25.7781 169.559 25.6696 169.559 25.559C169.558 25.4484 169.586 25.3396 169.641 25.2433C169.695 25.147 169.773 25.0665 169.868 25.0098C169.963 24.953 170.071 24.9221 170.182 24.9199C172.835 25.4835 175.301 26.7123 177.349 28.491C178.34 29.0943 179.152 29.9528 179.698 30.9769C180.244 32.0009 180.506 33.1528 180.455 34.3124C180.43 34.4097 180.379 34.4985 180.308 34.5695C180.237 34.6405 180.148 34.6911 180.05 34.7161C179.953 34.741 179.85 34.7395 179.754 34.7115C179.657 34.6835 179.57 34.6301 179.501 34.557H179.55Z" fill="#A1554C"/>
<path d="M184.49 63.7859C217.902 55.9344 233.874 110.381 212.643 130.365C212.509 130.493 212.33 130.563 212.145 130.561C211.96 130.558 211.783 130.484 211.652 130.353C211.521 130.222 211.447 130.045 211.445 129.86C211.442 129.675 211.513 129.496 211.64 129.362C230.401 107.348 217.193 62.2205 184.735 65.0089C184.05 65.0089 183.903 63.9571 184.564 63.7859H184.49Z" fill="#A1554C"/>
<path d="M209.904 112.95C211.298 125.179 202.126 141.249 188.869 142.301C188.209 142.301 188.135 141.372 188.722 141.176C201.833 136.871 206.333 125.277 208.926 112.729C208.926 112.142 209.855 112.363 209.904 112.876V112.95Z" fill="#A1554C"/>
<path d="M182.998 75.6754C187.743 78.953 193.785 80.5673 197.674 84.8966C201.087 88.7132 202.945 93.6701 202.884 98.7897C202.884 107.057 197.283 118.357 187.401 116.401C186.961 116.401 187.034 115.716 187.401 115.593C193.369 113.637 197.723 111.924 199.949 105.589C201.319 101.584 201.489 97.265 200.438 93.164C197.552 82.5974 187.817 83.6492 182.436 76.2624C182.166 75.9199 182.68 75.4308 183.023 75.6754H182.998Z" fill="#A1554C"/>
<path d="M189.064 102.97C188.869 107.862 184.319 110.308 179.941 111.238C176.688 111.874 170.01 112.241 168.127 108.645C167.833 108.058 168.347 107.178 169.081 107.447C175.514 109.648 184.808 110.675 188.037 102.824C188.257 102.31 189.113 102.31 189.064 102.97Z" fill="#A1554C"/>
<path d="M123.489 30.2786C118.01 29.8558 112.586 31.614 108.397 35.1705C103.877 39.1302 100.996 44.6334 100.318 50.6042C99.639 56.575 101.212 62.5843 104.728 67.4572C128.625 81.3992 157.708 123.91 157.708 123.91C155.772 119.218 154.967 114.136 155.358 109.076C155.749 104.015 157.325 99.1176 159.958 94.7786C162.643 94.6253 165.218 93.662 167.344 92.0159C169.471 90.3698 171.049 88.118 171.87 85.5573C175.025 76.385 168.445 72.6426 164.165 73.621C163.262 72.6027 162.72 71.3152 162.623 69.9577C162.526 68.6003 162.878 67.2486 163.627 66.1119C163.627 66.1119 170.598 65.0602 171.894 61.9538C171.894 61.9538 153.941 62.443 143.472 55.3742C134.65 48.9851 127.74 40.3076 123.489 30.2786Z" fill="#A1554C"/>
<path d="M170.769 213.112C169.081 186.475 193.932 160.695 189.897 140.418C183.782 133.08 170.109 129.069 161.964 125.913C161.964 125.913 130.166 127.063 119.355 125.277C111.43 128.139 104.557 128.359 101.524 129.802C93.8437 148.196 87.044 167.935 87.5576 176.276C88.4382 191.269 103.652 193.202 102.918 214.873C102.551 225.659 90.6885 251.562 88.8051 273.233C88.8051 273.233 102.405 269.32 134.398 270.2C164.41 271.008 189.579 273.258 189.579 273.258C188.625 255.94 171.894 230.429 170.769 213.112Z" fill="#FCC1A8"/>
<path d="M156.216 90.3984C156.216 90.3984 130.925 97.345 125.568 105.955C131.218 113.757 124.541 124.715 115.319 126.623C115.319 126.623 116.053 136.236 136.33 135.893C157.439 135.526 162.013 125.914 162.013 125.914C162.013 125.914 153.232 120.313 151.813 111.238C151.039 107.65 151.031 103.939 151.789 100.348C152.548 96.757 154.056 93.3665 156.216 90.3984Z" fill="#FCC1A8"/>
<path d="M127.084 108.938C127.918 111.554 127.788 114.383 126.717 116.912C128.132 121.035 130.571 124.731 133.805 127.653C137.04 130.575 140.963 132.627 145.208 133.618C162.575 137.776 170.964 129.313 170.964 129.313C167.638 128.016 164.507 126.867 162.012 125.913C162.012 125.913 153.231 120.312 151.812 111.237C151.027 107.638 151.014 103.914 151.773 100.309C152.531 96.7042 154.046 93.3013 156.215 90.3242L127.084 108.938Z" fill="#FCC1A8"/>
<path d="M160.67 93.979C157.852 91.3344 155.32 87.6957 153.051 83.9528C143.5 97.336 130.699 103.901 121.792 107.042C123.988 110.087 125.846 113.348 126.601 116.344C140.138 112.368 151.277 104.151 160.67 93.979Z" fill="#CB8B6F"/>
<path d="M164.923 73.3992C161.303 72.8366 158.295 79.832 158.295 79.832C151.984 75.7718 153.892 65.8656 153.892 65.8656C153.892 65.8656 126.522 55.5926 122.461 35.7559C108.593 36.6609 106.049 52.7064 106.049 52.7064C97.2925 92.8935 116.249 111.409 123.171 112.657C127.696 113.709 146.261 108.914 156.216 91.8172C158.892 92.5184 161.73 92.2438 164.222 91.0426C166.714 89.8414 168.697 87.7922 169.815 85.2621C172.017 80.468 171.234 74.084 164.923 73.3992Z" fill="#FCC1A8"/>
<path d="M129.53 56.5945C129.04 59.0405 133.15 56.1542 140.072 58.8937C144.254 60.557 147.409 64.9108 148.021 64.3971C148.632 63.8835 147.165 59.8721 141.148 56.619C136.305 54.0018 129.896 54.8334 129.53 56.5945Z" fill="#5E323E"/>
<path d="M117.227 56.3272C117.496 58.5775 113.314 56.1315 108.886 57.6725C105.731 58.7732 104.288 61.9774 103.628 61.6105C102.967 61.2436 103.432 57.5502 107.37 55.52C111.308 53.4899 116.958 54.9819 117.227 56.3272Z" fill="#5E323E"/>
<path d="M166.538 84.3304C165.242 86.7763 162.894 88.0972 161.304 87.2655C159.714 86.4339 159.494 83.7433 160.79 81.2974C162.087 78.8514 164.435 77.5306 166.025 78.3622C167.614 79.1939 167.835 81.8844 166.538 84.3304Z" fill="#CB8B6F"/>
<path d="M189.945 140.42C194.837 145.312 191.609 142.45 199.729 150.473C207.85 158.496 246.814 199.392 236.932 210.13C224.433 223.607 186.692 190.244 175.661 183.836C167.222 178.944 189.945 140.42 189.945 140.42Z" fill="#FCC1A8"/>
<path d="M171.429 178.576C175.367 178.772 185.371 175.029 185.567 176.277C185.763 177.524 180.675 179.603 180.675 180.851C180.675 182.098 198.408 202.057 219.81 206.166C225.527 207.238 231.178 208.634 236.736 210.349C224.507 222.579 189.138 192.396 177.055 184.642C175.269 188.604 173.582 192.493 172.163 196.236L155.946 183.566L171.429 178.576Z" fill="#CB8B6F"/>
<path d="M144.548 68.4075C143.501 69.3539 142.262 70.0625 140.915 70.4847C139.568 70.9069 138.146 71.0327 136.746 70.8535C134.635 70.3437 132.804 69.0378 131.634 67.209C131.37 68.7166 131.713 70.2672 132.588 71.5227C133.463 72.7783 134.8 73.6368 136.305 73.9109C142.787 75.2807 144.548 68.4075 144.548 68.4075Z" fill="#4A3746"/>
<path d="M141.418 71.834C141.418 71.834 144.109 73.4484 144.329 73.2038C144.549 72.9592 142.568 70.7578 142.568 70.7578L141.418 71.834Z" fill="#4A3746"/>
<path d="M142.763 70.7571C143.83 71.0837 144.928 71.2969 146.04 71.3931C146.04 71.1974 143.741 69.5586 143.741 69.5586L142.763 70.7571Z" fill="#4A3746"/>
<path d="M105.804 66.8457C105.804 66.8457 104.727 72.4225 109.986 73.2297C114.878 73.9879 116.566 69.4629 117.104 67.7018C116.258 68.6219 115.203 69.3246 114.028 69.7504C112.853 70.1761 111.592 70.3124 110.353 70.1477C109.373 70.0422 108.437 69.682 107.639 69.1027C106.84 68.5234 106.208 67.7453 105.804 66.8457Z" fill="#4A3746"/>
<path d="M107.467 71.196C107.467 71.196 104.728 71.8075 104.605 71.514C104.483 71.2204 106.831 69.7773 106.831 69.7773L107.467 71.196Z" fill="#4A3746"/>
<path d="M106.807 69.6554C105.686 69.691 104.563 69.6173 103.456 69.4352C104.322 68.8839 105.24 68.417 106.196 68.041L106.807 69.6554Z" fill="#4A3746"/>
<path d="M88.8533 273.307C89.4893 251.954 99.6645 226.687 100.031 215.876C100.765 194.23 88.4864 191.417 87.6059 176.35C87.1167 168.4 93.1582 150.398 100.3 132.958C100.79 131.833 101.279 130.684 101.792 129.583C103.744 128.855 105.77 128.346 107.834 128.066C99.6889 137.85 97.2674 155.95 97.2674 155.95C110.549 157.345 120.504 163.41 122.999 163.093C125.494 162.775 136.134 158.739 145.575 157.491C151.194 156.728 156.855 156.32 162.526 156.268C163.904 146.808 166.865 137.646 171.282 129.167C172.872 129.803 174.486 130.463 176.174 131.173C172.188 139.18 170.064 147.985 169.961 156.929C169.692 168.889 173.875 182.024 176.688 185.375C172.678 193.74 171.085 203.059 172.089 212.281C173.312 229.574 188.697 255.941 189.7 273.43C189.7 273.43 153.011 276.463 127.304 274.799C105.633 273.307 88.8533 273.307 88.8533 273.307Z" fill="#E74779"/>
<path d="M100.032 215.875C100.766 194.229 88.487 191.416 87.6064 176.349C87.6064 175.957 87.6064 175.468 87.6064 175.052C92.1315 179.455 101.01 183.442 118.328 183.98C159.126 185.227 162.502 156.267 162.502 156.267C163.88 146.806 166.841 137.645 171.258 129.166C172.848 129.802 174.462 130.462 176.15 131.172C172.164 139.179 170.04 147.984 169.937 156.928C169.668 168.888 173.851 182.023 176.664 185.374C172.654 193.739 171.061 203.058 172.065 212.28C173.288 229.573 188.673 255.94 189.676 273.429C189.676 273.429 183.782 273.942 175.001 274.432C175.001 229.45 141.784 207.266 120.236 209.247C104.41 210.714 100.864 222.357 97.0723 231.016C98.5369 226.074 99.5279 221.005 100.032 215.875Z" fill="#AF1F4C"/>
<path d="M174.608 113.879L165.681 121.535C165.681 121.535 176.785 136.211 187.156 164.828C202.639 207.51 227.588 216.193 235.097 212.011C243.438 207.315 242.704 192.443 234.314 180.409C218.049 157.344 181.628 126.109 174.608 113.879Z" fill="#F6B599"/>
<path d="M174.609 113.881C169.888 106.054 169.081 100.233 165.216 95.2186C163.077 92.4461 160.5 90.0419 157.585 88.1009C153.451 85.3125 150.785 82.9888 150.027 83.5759C149.269 84.1629 149.073 87.6117 152.864 90.0821C152.864 90.0821 146.236 87.9297 145.844 89.4951C145.135 92.5281 150.125 93.2618 153.769 95.7567C155.81 97.1096 157.489 98.94 158.661 101.089C158.857 101.578 156.509 99.9882 153.769 99.5969C151.03 99.2055 147.41 99.5969 147.312 100.649C147.116 102.679 150.883 102.336 153.965 103.339C154.936 103.595 155.827 104.092 156.554 104.785C157.282 105.478 157.821 106.344 158.123 107.302C158.812 112.813 161.502 117.879 165.681 121.537C168.812 124.13 172.285 121.831 173.924 118.724C174.568 117.197 174.804 115.528 174.609 113.881Z" fill="#F6B599"/>
<path d="M40.937 226.005C44.875 235.789 61.7522 233.343 71.4871 225.76C82.445 217.273 90.8591 207.024 96.5092 204.578C101.487 202.895 106.714 202.068 111.968 202.132C117.422 202.132 121.752 201.741 121.752 200.395C121.556 197.95 109.522 200.053 109.766 198.121C109.766 197.607 112.946 197.485 116.346 197.558C120.308 197.68 124.589 197.95 124.76 196.36C124.931 194.77 120.895 194.207 116.737 193.914C112.579 193.62 108.079 193.351 108.079 192.397C108.079 191.443 111.209 190.758 114.096 191.003C119.428 191.468 122.95 194.207 124.075 192.153C125.2 190.098 113.998 184.815 104.116 186.429C98.8748 187.633 93.8616 189.673 89.2692 192.471C78.1401 198.463 67.7447 197.607 54.5121 203.502C41.9643 208.932 38.4177 219.767 40.937 226.005Z" fill="#FCC1A8"/>
<path d="M188.697 158.591C204.498 207.29 227.661 216.169 237.176 209.956C237.651 209.588 238.093 209.178 238.497 208.733C237.661 210.123 236.493 211.283 235.097 212.109C226.805 216.487 202.639 207.608 187.156 164.926C176.785 136.309 165.681 121.633 165.681 121.633C165.681 121.633 178.106 126.28 188.697 158.591Z" fill="#CB8B6F"/>
<path d="M40.9375 226.003C40.9375 226.003 48.2754 234.393 63.0979 228.253C77.0398 222.408 86.9215 206.46 92.4494 203.965C97.3413 201.666 100.692 201.837 108.764 202.204C104.584 202.368 100.456 203.193 96.5341 204.65C90.884 207.096 82.4699 217.344 71.512 225.832C61.7526 233.292 44.8755 235.738 40.9375 226.003Z" fill="#CB8B6F"/>
<path d="M85.9778 41.3912C85.4533 41.3912 84.9502 41.1828 84.5793 40.8119C84.2084 40.441 84 39.938 84 39.4134V27.1848C84.0004 25.5454 84.6515 23.9732 85.8103 22.8136C86.9691 21.6539 88.5408 21.0016 90.1802 21H98.6433C99.1679 21 99.6709 21.2084 100.042 21.5793C100.413 21.9502 100.621 22.4532 100.621 22.9778C100.621 23.5023 100.413 24.0054 100.042 24.3763C99.6709 24.7472 99.1679 24.9556 98.6433 24.9556H90.1802C89.5905 24.9564 89.0251 25.191 88.6081 25.6081C88.191 26.0251 87.9564 26.5905 87.9556 27.1802V39.4103C87.9558 39.6703 87.9048 39.9277 87.8055 40.1679C87.7062 40.4081 87.5606 40.6265 87.3769 40.8104C87.1933 40.9943 86.9752 41.1403 86.7351 41.24C86.4951 41.3396 86.2377 41.391 85.9778 41.3912Z" fill="#E74779"/>
<path d="M168.022 41.3905C167.498 41.3901 166.995 41.1816 166.624 40.8108C166.253 40.44 166.045 39.9371 166.044 39.4127V27.1841C166.044 26.5944 165.809 26.029 165.392 25.612C164.975 25.1949 164.41 24.9603 163.82 24.9595H155.357C154.832 24.9595 154.329 24.7511 153.958 24.3802C153.587 24.0093 153.379 23.5062 153.379 22.9817C153.379 22.4572 153.587 21.9541 153.958 21.5832C154.329 21.2123 154.832 21.0039 155.357 21.0039H163.82C165.458 21.0055 167.029 21.6572 168.188 22.8158C169.347 23.9745 169.998 25.5455 170 27.1841V39.4143C170 39.9385 169.791 40.4412 169.42 40.8118C169.049 41.1824 168.547 41.3905 168.022 41.3905Z" fill="#E74779"/>
<path d="M98.6433 138.158H90.1802C88.5416 138.156 86.9706 137.505 85.8119 136.346C84.6533 135.187 84.0016 133.616 84 131.978V119.749C84 119.49 84.0512 119.232 84.1505 118.992C84.2499 118.752 84.3956 118.534 84.5793 118.351C84.7629 118.167 84.981 118.021 85.2209 117.922C85.4609 117.823 85.7181 117.771 85.9778 117.771C86.2375 117.771 86.4947 117.823 86.7347 117.922C86.9746 118.021 87.1926 118.167 87.3763 118.351C87.56 118.534 87.7056 118.752 87.805 118.992C87.9044 119.232 87.9556 119.49 87.9556 119.749V131.978C87.9564 132.568 88.191 133.133 88.6081 133.55C89.0251 133.967 89.5905 134.202 90.1802 134.203H98.6433C99.1679 134.203 99.6709 134.411 100.042 134.782C100.413 135.153 100.621 135.656 100.621 136.18C100.621 136.705 100.413 137.208 100.042 137.579C99.6709 137.95 99.1679 138.158 98.6433 138.158Z" fill="#E74779"/>
<path d="M163.82 138.158H155.357C154.832 138.158 154.329 137.95 153.958 137.579C153.587 137.208 153.379 136.705 153.379 136.18C153.379 135.656 153.587 135.153 153.958 134.782C154.329 134.411 154.832 134.203 155.357 134.203H163.82C164.41 134.202 164.975 133.967 165.392 133.55C165.809 133.133 166.044 132.568 166.044 131.978V119.749C166.044 119.225 166.253 118.722 166.624 118.351C166.995 117.98 167.498 117.771 168.022 117.771C168.547 117.771 169.05 117.98 169.421 118.351C169.792 118.722 170 119.225 170 119.749V131.978C169.998 133.616 169.347 135.187 168.188 136.346C167.029 137.505 165.458 138.156 163.82 138.158Z" fill="#E74779"/>
<path d="M161.784 132.02H92.1009C91.5502 132.019 91.0222 131.8 90.6328 131.41C90.2434 131.021 90.0242 130.493 90.0234 129.942V28.9153C90.0242 28.3646 90.2434 27.8367 90.6328 27.4473C91.0222 27.0578 91.5502 26.8387 92.1009 26.8379H161.784C162.334 26.8383 162.863 27.0573 163.252 27.4468C163.642 27.8363 163.861 28.3645 163.861 28.9153V129.942C163.861 130.493 163.642 131.021 163.252 131.411C162.863 131.8 162.334 132.019 161.784 132.02ZM92.1009 27.4466C91.7115 27.447 91.3381 27.6018 91.0628 27.8772C90.7874 28.1526 90.6325 28.5259 90.6321 28.9153V129.942C90.6325 130.332 90.7874 130.705 91.0628 130.98C91.3381 131.256 91.7115 131.411 92.1009 131.411H161.784C162.173 131.411 162.546 131.256 162.822 130.98C163.097 130.705 163.252 130.332 163.252 129.942V28.9153C163.252 28.5259 163.097 28.1526 162.822 27.8772C162.546 27.6018 162.173 27.447 161.784 27.4466H92.1009Z" fill="#E74779"/>
</g>
<path d="M29.1036 141.842L18.2089 144.327L12.5143 145.622L1.61963 148.108C1.59952 151.216 1.77647 154.293 2.73362 157.293C3.85969 160.832 6.20832 164.154 9.89215 165.212C10.2943 165.324 10.6522 165.413 11.0303 165.485C11.8573 165.633 12.706 165.61 13.5237 165.417L16.8456 164.661L22.5362 163.362L25.8862 162.63C26.7062 162.452 27.4801 162.106 28.1585 161.612C28.4641 161.382 28.7658 161.136 29.0634 160.876C31.9227 158.327 32.5984 154.313 32.0836 150.633C31.6493 147.484 30.4749 144.637 29.1036 141.842Z" fill="#EA94BA"/>
<path d="M31.919 155.846C32.2956 154.128 32.3556 152.356 32.096 150.617C31.879 149.154 31.5194 147.716 31.0222 146.322C26.5545 148.28 21.9044 149.791 17.1395 150.835C12.1235 152.028 7.03051 152.87 1.89746 153.356C2.06 154.697 2.34402 156.02 2.74602 157.309C3.29491 159.093 4.18852 160.752 5.37618 162.192C10.0694 161.633 14.7265 160.728 19.1744 159.755C23.5247 158.811 27.7879 157.504 31.919 155.846Z" fill="#F2BC36"/>
<path d="M31.7225 148.714C31.6581 148.456 31.5938 148.195 31.5214 147.941C22.0498 151.457 12.1699 153.754 2.11914 154.778C2.1674 155.04 2.21968 155.301 2.28 155.558C12.3437 154.529 22.2366 152.229 31.7225 148.714Z" fill="white"/>
<path d="M3.66406 159.572C3.79276 159.84 3.92681 160.093 4.06623 160.332C13.6564 159.378 23.0964 157.27 32.1816 154.054C32.2057 153.768 32.2258 153.483 32.2298 153.193C23.0058 156.484 13.4117 158.626 3.66406 159.572Z" fill="white"/>
<g style="mix-blend-mode:multiply" opacity="0.14">
<g style="mix-blend-mode:multiply" opacity="0.14">
<path d="M25.6368 156.118C22.0897 156.769 18.3978 157.377 14.9191 156.363C11.3318 155.314 8.3799 152.563 6.63451 149.261C6.2802 148.587 5.96858 147.891 5.70148 147.178L1.62354 148.107C1.60343 151.215 1.78038 154.292 2.73753 157.292C3.86359 160.831 6.21223 164.153 9.89606 165.211C10.2982 165.323 10.6562 165.412 11.0342 165.484C11.8612 165.633 12.7099 165.609 13.5276 165.416L16.8495 164.66L22.5401 163.361L25.8861 162.629C26.706 162.451 27.4799 162.105 28.1584 161.611C28.464 161.381 28.7656 161.136 29.0632 160.875C30.6591 159.402 31.7059 157.429 32.0312 155.281C29.8824 155.406 27.7454 155.686 25.6368 156.118Z" fill="#E3659C"/>
</g>
</g>
<path d="M31.4369 143.18C31.4369 143.18 30.1138 138.865 27.7129 138.406C26.1042 138.097 21.2018 137.393 14.0393 139.126C6.82848 140.666 2.71032 143.429 1.39926 144.402C-0.563301 145.858 0.112343 150.318 0.112343 150.318C5.50932 150.237 10.881 149.563 16.1306 148.307C21.4045 147.162 26.5373 145.443 31.4369 143.18Z" fill="#E3659C"/>
<path d="M6.91309 144.129C6.94124 145.041 6.99754 146.051 7.08601 147.113C7.17047 148.09 7.27504 149.015 7.39166 149.859L7.68524 149.827C7.58872 148.983 7.4922 148.058 7.40774 147.084C7.31524 146.011 7.25089 144.993 7.20263 144.072L6.91309 144.129Z" fill="#E3659C"/>
<path d="M10.874 143.213C10.9585 144.017 11.055 144.89 11.1636 145.795C11.3164 147.033 11.4813 148.208 11.6422 149.229L11.9237 149.181C11.787 148.147 11.6381 146.989 11.4853 145.759C11.3767 144.89 11.2802 144.057 11.1877 143.281C11.0807 143.272 10.9753 143.249 10.874 143.213Z" fill="#E3659C"/>
<path d="M14.835 142.923C14.9596 143.728 15.1084 144.572 15.2653 145.481C15.4503 146.535 15.6272 147.52 15.7921 148.393L16.0696 148.328C15.9289 147.456 15.764 146.474 15.583 145.429C15.4221 144.516 15.2693 143.655 15.1245 142.875L14.835 142.923Z" fill="#E3659C"/>
<path d="M19.0512 141.99L18.7656 142.067C18.9546 142.77 19.1678 143.535 19.3689 144.343C19.6464 145.429 19.8957 146.446 20.1048 147.331L20.3743 147.255C20.1893 146.366 19.9721 145.344 19.6826 144.262C19.4533 143.454 19.2482 142.69 19.0512 141.99Z" fill="#E3659C"/>
<path d="M26.8762 139.42L26.5947 139.508C26.8923 140.273 27.206 141.117 27.5076 142.046C27.8093 142.975 28.0465 143.779 28.2557 144.552L28.5291 144.439C28.3401 143.671 28.1028 142.83 27.8133 141.946C27.5237 141.061 27.1899 140.176 26.8762 139.42Z" fill="#E3659C"/>
<path d="M22.602 140.707L22.3164 140.832C22.5416 141.531 22.7668 142.223 22.992 142.927C23.3339 144.005 23.6677 145.042 24.0136 146.144L24.287 146.052C23.9975 145.075 23.6637 143.993 23.2977 142.834C23.0725 142.09 22.8272 141.379 22.602 140.707Z" fill="#E3659C"/>
<path d="M27.712 138.403C26.1034 138.097 21.201 137.393 14.0384 139.127C6.82761 140.667 2.70945 143.43 1.3984 144.403C1.1586 144.586 0.951876 144.81 0.787109 145.063C1.82872 144.978 2.87031 144.865 3.9079 144.741C10.7708 143.914 17.5479 142.487 24.1609 140.474C25.7012 140.003 27.2536 139.485 28.7577 138.865C28.4466 138.637 28.0899 138.48 27.712 138.403Z" fill="#BE45A1"/>
</svg>
