<svg width="272" height="276" viewBox="0 0 272 276" fill="none" xmlns="http://www.w3.org/2000/svg">
<mask id="mask0_81_6592" style="mask-type:alpha" maskUnits="userSpaceOnUse" x="0" y="0" width="272" height="276">
<ellipse cx="135.896" cy="138" rx="135.896" ry="138" fill="white"/>
</mask>
<g mask="url(#mask0_81_6592)">
<g style="mix-blend-mode:multiply">
<path d="M48.2898 244.206C-4.74863 192.627 -5.15814 107.032 47.3651 53.023C99.8883 -0.986324 185.476 -2.9216 238.495 48.5976C291.513 100.117 281.91 175.269 229.413 229.278C176.916 283.288 101.322 295.784 48.2898 244.206Z" fill="#F6D2E1" fill-opacity="0.45"/>
</g>
<g opacity="0.53">
<path opacity="0.53" d="M256.187 79.3596L254.054 78.8312C253.776 78.7472 253.527 78.587 253.336 78.3686C253.144 78.1503 253.018 77.8826 252.971 77.596L252.515 75.3239C252.495 75.2331 252.444 75.1519 252.371 75.0938C252.299 75.0356 252.208 75.0039 252.115 75.0039C252.022 75.0039 251.932 75.0356 251.859 75.0938C251.787 75.1519 251.736 75.2331 251.716 75.3239L251.333 77.4243C251.284 77.7617 251.142 78.0785 250.921 78.338C250.7 78.5976 250.41 78.7892 250.084 78.8906L248.103 79.4124C248.009 79.4361 247.925 79.4906 247.866 79.5672C247.806 79.6437 247.773 79.738 247.773 79.8351C247.773 79.9322 247.806 80.0265 247.866 80.1031C247.925 80.1797 248.009 80.2341 248.103 80.2578L250.084 80.7466C250.41 80.8441 250.702 81.0316 250.927 81.2874C251.151 81.5433 251.298 81.8572 251.353 82.1931L251.775 84.2935C251.796 84.3843 251.846 84.4655 251.919 84.5236C251.992 84.5818 252.082 84.6135 252.175 84.6135C252.268 84.6135 252.358 84.5818 252.431 84.5236C252.503 84.4655 252.554 84.3843 252.574 84.2935L252.997 82.0016C253.038 81.7175 253.158 81.4508 253.344 81.2322C253.53 81.0136 253.774 80.8521 254.047 80.7664L256.181 80.1984C256.277 80.1782 256.363 80.1259 256.425 80.0501C256.487 79.9743 256.521 79.8796 256.522 79.7816C256.523 79.6837 256.49 79.5884 256.429 79.5117C256.368 79.4349 256.283 79.3812 256.187 79.3596Z" fill="#F2BC36"/>
<path opacity="0.53" d="M257.007 160.647L254.028 159.908C253.641 159.792 253.294 159.57 253.028 159.266C252.762 158.962 252.586 158.589 252.522 158.19L251.862 155.013C251.837 154.883 251.768 154.766 251.666 154.681C251.564 154.597 251.436 154.551 251.304 154.551C251.171 154.551 251.043 154.597 250.941 154.681C250.839 154.766 250.77 154.883 250.746 155.013L250.204 157.946C250.136 158.418 249.937 158.861 249.628 159.224C249.32 159.588 248.915 159.857 248.46 160L245.713 160.727C245.583 160.761 245.468 160.837 245.385 160.943C245.303 161.049 245.259 161.18 245.259 161.314C245.259 161.449 245.303 161.579 245.385 161.686C245.468 161.792 245.583 161.868 245.713 161.902L248.473 162.563C248.93 162.698 249.339 162.959 249.654 163.317C249.968 163.674 250.175 164.114 250.25 164.584L250.831 167.51C250.856 167.64 250.925 167.757 251.027 167.842C251.129 167.926 251.257 167.972 251.39 167.972C251.522 167.972 251.65 167.926 251.752 167.842C251.854 167.757 251.923 167.64 251.948 167.51L252.536 164.32C252.594 163.922 252.763 163.549 253.023 163.243C253.284 162.937 253.625 162.71 254.008 162.589L256.987 161.803C257.11 161.766 257.218 161.69 257.295 161.588C257.372 161.485 257.415 161.361 257.417 161.232C257.42 161.104 257.381 160.978 257.307 160.873C257.234 160.768 257.129 160.689 257.007 160.647Z" fill="#F2BC36"/>
<path opacity="0.53" d="M252.185 57.2796L249.18 56.5267C248.791 56.4129 248.443 56.1912 248.175 55.8872C247.907 55.5832 247.731 55.2094 247.668 54.8093L247.007 51.6323C246.983 51.5023 246.913 51.385 246.811 51.3005C246.709 51.2161 246.581 51.1699 246.449 51.1699C246.317 51.1699 246.188 51.2161 246.087 51.3005C245.985 51.385 245.915 51.5023 245.891 51.6323L245.349 54.565C245.279 55.0368 245.078 55.4795 244.768 55.8426C244.459 56.2058 244.054 56.4748 243.599 56.6191L240.851 57.3457C240.721 57.3797 240.606 57.4559 240.524 57.5622C240.442 57.6686 240.397 57.7992 240.397 57.9335C240.397 58.0679 240.442 58.1985 240.524 58.3048C240.606 58.4112 240.721 58.4873 240.851 58.5214L243.619 59.1819C244.075 59.3182 244.483 59.58 244.797 59.9374C245.111 60.2948 245.319 60.7334 245.395 61.203L245.977 64.1356C246.001 64.2657 246.071 64.383 246.172 64.4674C246.274 64.5519 246.403 64.5981 246.535 64.5981C246.667 64.5981 246.795 64.5519 246.897 64.4674C246.999 64.383 247.068 64.2657 247.093 64.1356L247.681 60.9454C247.738 60.5455 247.907 60.17 248.169 59.8624C248.431 59.5549 248.775 59.3281 249.16 59.2083L252.133 58.4223C252.252 58.3855 252.358 58.3127 252.434 58.2137C252.511 58.1148 252.555 57.9946 252.561 57.8695C252.567 57.7445 252.534 57.6207 252.467 57.5151C252.399 57.4096 252.301 57.3273 252.185 57.2796Z" fill="#F2BC36"/>
<path opacity="0.53" d="M42.9908 244.42L41.0093 243.925C40.7503 243.849 40.5181 243.701 40.3394 243.499C40.1606 243.297 40.0425 243.048 39.9987 242.782L39.576 240.662C39.5564 240.577 39.5089 240.502 39.4411 240.448C39.3734 240.395 39.2894 240.365 39.2028 240.365C39.1162 240.365 39.0322 240.395 38.9645 240.448C38.8967 240.502 38.8492 240.577 38.8296 240.662L38.4729 242.643C38.4278 242.958 38.2947 243.253 38.089 243.495C37.8833 243.737 37.6134 243.915 37.3105 244.011L35.4743 244.499C35.3851 244.519 35.3054 244.569 35.2483 244.641C35.1912 244.712 35.1602 244.801 35.1602 244.892C35.1602 244.984 35.1912 245.072 35.2483 245.144C35.3054 245.215 35.3851 245.265 35.4743 245.285L37.3171 245.741C37.6178 245.829 37.888 245.999 38.097 246.233C38.3059 246.466 38.4453 246.753 38.4994 247.062L38.8891 249.044C38.9086 249.128 38.9562 249.203 39.0239 249.257C39.0917 249.311 39.1757 249.34 39.2622 249.34C39.3488 249.34 39.4328 249.311 39.5006 249.257C39.5683 249.203 39.6159 249.128 39.6354 249.044L40.0251 246.91C40.0638 246.644 40.1766 246.395 40.3507 246.19C40.5248 245.986 40.7531 245.835 41.0093 245.754L42.9908 245.232C43.0896 245.22 43.1804 245.172 43.2463 245.097C43.3121 245.022 43.3484 244.926 43.3484 244.826C43.3484 244.727 43.3121 244.63 43.2463 244.556C43.1804 244.481 43.0896 244.433 42.9908 244.42Z" fill="#F2BC36"/>
<path opacity="0.53" d="M247.78 234.57L245.798 234.075C245.539 234 245.306 233.852 245.127 233.65C244.949 233.448 244.831 233.199 244.788 232.932L244.365 230.812C244.345 230.728 244.298 230.653 244.23 230.599C244.162 230.545 244.078 230.516 243.992 230.516C243.905 230.516 243.821 230.545 243.754 230.599C243.686 230.653 243.638 230.728 243.619 230.812L243.262 232.794C243.216 233.108 243.082 233.402 242.875 233.643C242.668 233.884 242.397 234.061 242.093 234.154L240.263 234.643C240.174 234.663 240.094 234.713 240.037 234.785C239.98 234.856 239.949 234.945 239.949 235.036C239.949 235.128 239.98 235.216 240.037 235.288C240.094 235.359 240.174 235.409 240.263 235.429L242.113 235.885C242.412 235.975 242.681 236.146 242.89 236.379C243.099 236.612 243.239 236.898 243.295 237.206L243.685 239.187C243.704 239.272 243.752 239.347 243.82 239.401C243.887 239.455 243.971 239.484 244.058 239.484C244.144 239.484 244.228 239.455 244.296 239.401C244.364 239.347 244.412 239.272 244.431 239.187L244.821 237.054C244.861 236.789 244.974 236.541 245.148 236.338C245.322 236.135 245.55 235.985 245.805 235.905L247.786 235.376C247.893 235.375 247.995 235.332 248.07 235.256C248.145 235.18 248.187 235.077 248.186 234.97C248.185 234.863 248.142 234.761 248.066 234.686C247.99 234.611 247.887 234.57 247.78 234.57Z" fill="#F2BC36"/>
</g>
<g opacity="0.38">
<path opacity="0.38" d="M95.8257 258.199C107.715 257.539 119.604 256.634 131.374 255.075C137.266 254.291 143.138 253.365 148.99 252.295C154.842 251.224 160.667 250.005 166.466 248.635C166.53 248.62 166.596 248.617 166.66 248.627C166.725 248.637 166.786 248.66 166.842 248.695C166.897 248.729 166.945 248.775 166.983 248.828C167.02 248.881 167.047 248.941 167.061 249.005C167.088 249.128 167.069 249.256 167.007 249.365C166.944 249.473 166.843 249.555 166.724 249.593C161 251.319 155.205 252.801 149.34 254.038C143.474 255.276 137.578 256.317 131.651 257.162C119.793 258.874 107.808 259.552 95.8323 259.19C95.7009 259.19 95.5749 259.138 95.482 259.045C95.3891 258.952 95.3369 258.826 95.3369 258.695C95.3369 258.563 95.3891 258.437 95.482 258.344C95.5749 258.252 95.7009 258.199 95.8323 258.199H95.8257Z" fill="white"/>
</g>
<g opacity="0.38">
<path opacity="0.38" d="M126.031 266.771C128.613 266.606 131.156 266.408 133.679 266.032C136.199 265.677 138.699 265.194 141.169 264.585C146.136 263.343 151.011 261.633 155.951 260.008C156.013 259.987 156.079 259.979 156.144 259.984C156.209 259.989 156.273 260.006 156.331 260.036C156.389 260.065 156.441 260.106 156.484 260.155C156.526 260.205 156.559 260.263 156.579 260.325C156.616 260.438 156.612 260.56 156.567 260.67C156.522 260.78 156.44 260.871 156.334 260.926C153.996 262.102 151.618 263.178 149.181 264.142C146.738 265.116 144.239 265.946 141.698 266.626C139.141 267.328 136.525 267.796 133.884 268.026C131.242 268.262 128.581 268.182 125.958 267.788C125.828 267.766 125.712 267.693 125.635 267.585C125.559 267.478 125.527 267.344 125.548 267.214C125.561 267.094 125.617 266.983 125.706 266.902C125.795 266.82 125.91 266.774 126.031 266.771Z" fill="white"/>
</g>
<g style="mix-blend-mode:multiply">
<g style="mix-blend-mode:multiply">
<path d="M234.875 238.44C186.876 288.559 103.507 286.617 48.6725 234.101C-6.16246 181.584 -11.7173 98.3738 36.2815 48.2549C84.2802 -1.86409 157.814 9.51637 212.636 62.033C267.458 114.55 282.874 188.321 234.875 238.44Z" fill="#F6D2E1" fill-opacity="0.44"/>
</g>
</g>
<path d="M161.039 149.702C162.842 160.402 164.929 169.55 166.983 177.173C167.399 178.698 167.809 180.151 168.225 181.552C157.247 170.792 136.052 167.635 135.087 167.49C134.818 167.452 134.544 167.5 134.304 167.627C134.064 167.755 133.871 167.955 133.751 168.199C133.632 168.443 133.592 168.718 133.639 168.986C133.686 169.254 133.816 169.5 134.011 169.689C151.844 186.862 164.559 187.047 168.357 186.611L169.526 187.206C169.676 187.281 169.84 187.326 170.008 187.338C174.163 200.125 177.63 206.406 177.71 206.538C177.739 206.589 177.772 206.638 177.809 206.684C170.319 219.768 166.204 228.375 166.012 229.2C165.956 229.417 165.956 229.644 166.012 229.861C166.073 230.086 166.193 230.29 166.359 230.454C166.525 230.617 166.731 230.734 166.957 230.792C167.118 230.832 167.287 230.84 167.452 230.815C167.616 230.79 167.775 230.733 167.917 230.646C168.06 230.56 168.184 230.446 168.282 230.311C168.38 230.176 168.45 230.023 168.489 229.861C168.707 229.2 169.949 226.558 172.115 222.41C172.294 222.565 172.512 222.667 172.745 222.706C172.978 222.744 173.217 222.717 173.436 222.628C173.581 222.569 181.058 219.577 193.608 213.381C194.006 215.444 194.793 217.412 195.926 219.18C198.634 223.606 204.328 229.385 216.257 234.636C216.496 234.736 216.76 234.763 217.015 234.714C217.27 234.664 217.505 234.541 217.69 234.359C217.874 234.174 217.997 233.936 218.042 233.678C218.087 233.421 218.052 233.156 217.941 232.919C217.901 232.826 217.743 232.476 217.472 231.941C217.47 231.924 217.47 231.906 217.472 231.889C215.596 228.183 208.628 215.713 197.928 211.241C204.11 208.13 211.283 204.352 219.249 199.894C217.089 211.882 223.324 224.247 226.996 230.277C228.317 232.43 229.308 233.771 229.46 233.969V234.002L229.513 234.062L229.592 234.141L229.652 234.194L229.744 234.26L229.81 234.299L229.903 234.352L229.982 234.385L230.081 234.418H230.167H230.259H230.358H230.55H230.649H230.741H230.794H230.9H230.966C231.033 234.392 231.097 234.359 231.158 234.319L231.23 234.266L231.329 234.187L231.402 234.114L231.481 234.022L231.541 233.943L231.64 233.764C231.64 233.764 231.64 233.712 231.64 233.679C231.658 233.638 231.673 233.596 231.686 233.553C231.689 233.522 231.689 233.491 231.686 233.461C231.69 233.439 231.69 233.416 231.686 233.395C233.469 219.524 231.686 210.68 229.183 205.171C243.615 214.332 263.291 213.474 264.282 213.421C264.425 213.414 264.565 213.383 264.698 213.328C264.763 213.302 264.825 213.269 264.883 213.229H264.916C264.974 213.189 265.029 213.145 265.081 213.097C265.135 213.045 265.183 212.987 265.226 212.926C265.239 212.902 265.255 212.88 265.273 212.859L265.339 212.741V212.681C265.341 212.666 265.341 212.65 265.339 212.635C265.353 212.596 265.364 212.556 265.372 212.516V212.45C265.378 212.375 265.378 212.3 265.372 212.225V212.173V211.988C265.372 211.988 265.372 211.955 265.372 211.941C265.36 211.868 265.337 211.797 265.306 211.73C265.275 211.656 265.237 211.586 265.193 211.519C265.151 211.456 265.105 211.396 265.055 211.34C265.031 211.32 265.009 211.298 264.989 211.274C248.073 196.406 235.926 193.976 228.971 194.405C233.628 191.677 238.496 188.751 243.535 185.607C243.61 185.643 243.687 185.671 243.767 185.693C260.88 190.369 279.506 176.446 280.603 175.581C280.699 175.511 280.786 175.429 280.86 175.336C280.913 175.261 280.959 175.181 280.999 175.099C281.108 174.958 281.187 174.796 281.23 174.623C281.274 174.45 281.28 174.27 281.25 174.095V174.015V173.976C281.159 173.671 280.956 173.411 280.682 173.249L280.59 173.196C280.454 173.135 280.309 173.097 280.16 173.084C251.917 169.781 244.493 180.752 243.317 182.939C243.051 182.924 242.786 182.991 242.558 183.13C233.502 188.778 225.015 193.745 217.287 198.058C229.883 183.427 234.85 159.603 235.088 158.427C235.088 158.368 235.088 158.309 235.088 158.256V158.242C235.09 157.992 235.019 157.746 234.883 157.536C234.885 157.523 234.885 157.509 234.883 157.496C234.856 157.453 234.825 157.414 234.79 157.377L234.711 157.298C234.692 157.275 234.67 157.255 234.645 157.239C234.588 157.187 234.526 157.14 234.46 157.1C234.381 157.057 234.296 157.024 234.209 157.001C234.135 156.98 234.06 156.964 233.985 156.954C233.908 156.948 233.83 156.948 233.753 156.954C233.595 156.97 233.441 157.012 233.298 157.08H233.258C233.203 157.107 233.152 157.14 233.106 157.179L233.053 157.219C233.033 157.23 233.015 157.246 233 157.265C205.015 183.091 207.485 201.565 207.789 203.295C201.699 206.545 196.237 209.313 191.541 211.611C198.945 202.82 200.497 189.246 200.57 188.566C200.592 188.307 200.537 188.048 200.413 187.82C200.288 187.592 200.099 187.406 199.87 187.285C199.637 187.166 199.374 187.121 199.115 187.156C198.856 187.192 198.615 187.306 198.423 187.483C181.25 203.084 184.334 213.791 184.704 214.881C179.15 217.476 175.332 219.108 173.621 219.821C185.355 198.045 198.586 177.11 213.218 157.166C213.512 157.005 213.734 156.738 213.839 156.419C213.849 156.366 213.862 156.313 213.879 156.261C215.9 153.526 217.978 150.774 220.114 148.005C220.154 148.028 220.196 148.048 220.239 148.064C245.048 156.281 281.184 139.134 282.71 138.401C282.95 138.28 283.148 138.089 283.276 137.853C283.405 137.617 283.458 137.347 283.43 137.08C283.387 136.813 283.264 136.565 283.076 136.37C282.888 136.175 282.645 136.042 282.38 135.99C250.781 130.396 233.502 136.459 225.576 141.109C229.451 136.239 233.511 131.382 237.756 126.538C237.857 126.569 237.961 126.587 238.066 126.591C238.217 126.723 238.397 126.817 238.591 126.866C238.785 126.916 238.987 126.919 239.183 126.875C264.718 121.314 287.096 88.1565 288.06 86.7496C288.058 86.7343 288.058 86.7187 288.06 86.7034L288.106 86.6175C288.131 86.5681 288.153 86.5174 288.172 86.4656C288.175 86.4503 288.175 86.4347 288.172 86.4194C288.271 86.107 288.245 85.7685 288.1 85.4749C288.073 85.4183 288.04 85.3651 288 85.3163L287.967 85.2569C287.952 85.2377 287.934 85.22 287.915 85.2041L287.802 85.0852L287.743 85.0389L287.604 84.9465H287.545L287.38 84.8738H287.333C287.188 84.8283 287.036 84.8082 286.884 84.8144H286.798H286.66L286.561 84.8474H286.501C259.044 95.1512 246.871 107.734 241.534 115.977C244.262 92.4564 231.712 64.3916 231.118 63.0442V63.0112C231.032 62.8396 230.907 62.6905 230.754 62.5759C230.6 62.4612 230.422 62.384 230.233 62.3507H230.2H230.041C229.967 62.3441 229.891 62.3441 229.817 62.3507C229.735 62.3573 229.655 62.3751 229.579 62.4035H229.52C229.464 62.4224 229.411 62.4467 229.361 62.4761H229.295L229.156 62.5752L229.11 62.6083C228.996 62.7127 228.9 62.8354 228.826 62.9715V63.0178C228.826 63.0772 228.773 63.13 228.753 63.1895C228.733 63.2489 228.753 63.2291 228.753 63.2423C228.75 63.2687 228.75 63.2953 228.753 63.3216C224.414 84.92 225.722 99.887 228.416 109.768C230.748 118.355 234.123 123.064 235.755 124.96C228.377 133.368 221.488 141.908 215.134 150.29C216.693 139.471 217.313 115.283 200.345 85.072C200.232 84.8761 200.071 84.7125 199.876 84.5969C199.682 84.4812 199.461 84.4174 199.235 84.4115H199.117H199.057C198.974 84.4189 198.892 84.4366 198.813 84.4643H198.733C198.638 84.5044 198.547 84.5554 198.463 84.6162L198.41 84.6625C198.339 84.7218 198.275 84.7882 198.218 84.8606L198.179 84.9134C198.113 85.0005 198.06 85.096 198.02 85.1975C197.901 85.5409 189.473 109.722 195.589 132.146C197.974 140.904 202.591 149.392 210.781 156.089C199.49 171.489 189.022 187.476 179.42 203.982C177.466 200.004 175.74 195.917 174.249 191.743C192.644 180.812 192.036 150.964 191.996 149.689C191.993 149.449 191.921 149.215 191.789 149.015C191.656 148.815 191.469 148.657 191.25 148.56C191.036 148.463 190.799 148.428 190.566 148.457C190.333 148.486 190.113 148.579 189.929 148.725L189.414 149.147C189.206 149.187 189.011 149.277 188.847 149.411C188.684 149.545 188.556 149.718 188.476 149.914C175.305 160.944 170.913 170.733 169.936 177.985C168.344 172.285 166.732 165.667 165.233 158.11C183.601 147.291 187.815 118.903 187.987 117.694C187.99 117.666 187.99 117.637 187.987 117.608C187.99 117.562 187.99 117.516 187.987 117.47C187.99 117.437 187.99 117.403 187.987 117.371V117.258C187.99 117.219 187.99 117.179 187.987 117.139V117.093C187.934 116.934 187.848 116.788 187.736 116.664L187.696 116.624L187.597 116.525C187.549 116.486 187.499 116.451 187.445 116.419C187.378 116.381 187.307 116.348 187.234 116.32H187.175C187.117 116.301 187.057 116.288 186.996 116.281H186.798C186.646 116.251 186.488 116.251 186.336 116.281C186.269 116.296 186.205 116.321 186.144 116.353H186.105C186.046 116.38 185.991 116.413 185.94 116.452H185.9C170.662 128.725 165.028 139.141 163.139 146.347L163.099 146.096C163.203 145.836 163.287 145.569 163.35 145.297C163.41 145.055 163.393 144.802 163.304 144.57C163.31 144.342 163.256 144.116 163.149 143.914C163.041 143.713 162.883 143.543 162.69 143.421C162.69 143.361 162.69 143.309 162.69 143.249C162.726 143.077 162.726 142.899 162.69 142.727C162.604 142.285 162.511 141.842 162.406 141.406C161.428 134.623 160.576 127.285 159.916 119.378C159.968 119.354 160.019 119.325 160.068 119.293C172.928 109.504 176.759 85.0521 176.891 84.0152C176.921 83.75 176.87 83.4819 176.745 83.2461C176.62 83.0103 176.427 82.8178 176.19 82.6941C175.945 82.5765 175.669 82.5374 175.401 82.5824C175.133 82.6273 174.885 82.754 174.691 82.9451C163.245 94.6691 159.249 104.2 157.98 110.415C152.782 97.2054 139.566 85.7985 138.905 85.2239L138.819 85.171C138.808 85.1682 138.797 85.1682 138.786 85.171L138.595 85.0587C138.449 84.992 138.292 84.9539 138.132 84.9465H138.093H137.901H137.848L137.657 84.9993H137.617C137.544 85.0256 137.473 85.0588 137.406 85.0984C137.342 85.137 137.283 85.1812 137.227 85.2305C137.195 85.258 137.167 85.289 137.142 85.323L137.089 85.3758C137.056 85.4126 137.028 85.4524 137.003 85.4947V85.5409C137.003 85.5409 136.97 85.6136 136.95 85.6532C136.935 85.6755 136.924 85.7 136.917 85.7259C136.917 85.7259 136.917 85.7853 136.917 85.8183C136.917 85.8514 136.917 85.8844 136.917 85.9174C136.914 85.9416 136.914 85.9659 136.917 85.9901V86.1222V86.1816C136.914 86.23 136.914 86.2785 136.917 86.3269C136.917 86.3269 136.917 86.3665 136.917 86.393V86.5052C137.135 87.4035 137.366 88.2688 137.577 89.1473C143.859 112.199 154.579 118.209 157.32 119.418C157.699 123.936 158.139 128.271 158.641 132.423C150.999 119.781 136.342 112.912 135.576 112.555C135.346 112.455 135.092 112.422 134.844 112.461C134.596 112.499 134.364 112.608 134.176 112.773C133.994 112.935 133.861 113.145 133.794 113.379C133.728 113.613 133.729 113.861 133.799 114.094C133.797 114.121 133.797 114.147 133.799 114.174C140.537 133.672 148.991 140.733 154.731 143.236C138.529 144.953 125.431 158.645 124.803 159.312C124.652 159.473 124.544 159.669 124.491 159.884C124.438 160.098 124.441 160.322 124.5 160.534C124.513 160.594 124.533 160.651 124.559 160.706C124.658 160.938 124.824 161.136 125.036 161.273C125.248 161.411 125.495 161.482 125.748 161.479H126.474C126.754 161.582 127.06 161.582 127.34 161.479C148.681 160.984 157.478 154.312 161.039 149.702ZM249.288 183.837L272.115 177.8C266.31 180.911 257.736 184.425 249.269 183.837H249.288ZM272.28 175.092L247.723 181.585C250.867 178.718 257.855 174.689 272.261 175.092H272.28ZM186.91 209.564C187.379 206.334 189.084 201.486 194.176 195.449L186.91 209.564ZM195.556 198.335C194.308 202.308 192.394 206.04 189.896 209.372L195.556 198.335ZM197.366 216.367L210.774 229.009C202.611 224.339 198.971 219.669 197.366 216.367ZM209.678 224.438L199.724 215.046C203.707 217.463 207.076 221.043 209.665 224.438H209.678ZM210.239 198.375C210.9 192.291 214.163 180.462 228.39 165.35L210.239 198.375ZM229.652 168.375C226.686 177.575 221.27 190.739 212.829 199.002L229.652 168.375ZM221.527 202.192C222.914 207.562 225.662 218.256 227.505 225.878C224.381 220.033 220.636 210.977 221.514 202.192H221.527ZM229.863 224.649C228.027 217.08 225.405 206.875 224.044 201.605C226.732 204.887 230.193 211.631 229.85 224.682L229.863 224.649ZM225.953 199.313C235.966 202.219 249.434 207.437 257.307 210.594C248.991 210.033 235.055 207.741 225.94 199.346L225.953 199.313ZM256.765 207.602C248.912 204.484 236.798 199.841 227.386 197.034C232.426 196.301 242.34 196.955 256.752 207.635L256.765 207.602ZM225.662 146.789L271.937 140.026C260.563 144.246 241.276 149.861 225.649 146.822L225.662 146.789ZM273.324 137.252L225.431 144.246C231.587 140.316 246.125 134.015 273.324 137.252ZM242.815 123.157C251.402 115.931 269.5 101.485 279.929 93.2226C272.313 102.668 258.218 117.853 242.829 123.157H242.815ZM279.031 90.6466C269.004 98.5726 250.946 112.972 241.864 120.587C245.253 114.022 254.539 101.532 279.044 90.6466H279.031ZM238.02 121.03L232.406 73.5858C236.428 85.1908 241.805 105.231 238.033 121.03H238.02ZM229.731 72.5488L235.325 119.854C231.514 113.328 226.006 98.7972 229.731 72.5488ZM212.294 151.235C203.727 128.275 201.329 102.476 200.669 91.3269C215.028 119.563 213.714 142.087 212.267 151.235H212.294ZM198.291 93.7708C198.951 103.579 200.781 121.03 205.609 138.751C206.811 143.163 208.205 147.589 209.81 151.921C191.831 134.676 195.239 107.087 198.264 93.7972L198.291 93.7708ZM189.262 154.643C188.661 162.866 186.138 179.379 175.49 187.76L189.262 154.643ZM186.171 155.369L173.053 186.968C173.007 186.816 172.961 186.651 172.914 186.492C171.455 181.248 170.992 169.801 186.138 155.396L186.171 155.369ZM164.803 181.928L147.393 173.124C153.192 174.986 159.856 177.82 164.803 181.928ZM141.93 173.249L162.69 183.751C157.994 182.919 150.834 180.376 141.93 173.249ZM167.393 153.434L183.555 125.449C181.27 133.645 176.501 146.076 167.393 153.454V153.434ZM181.739 123.447L164.856 152.694C164.902 147.509 167.194 136.968 181.739 123.467V123.447ZM160.332 112.219C160.992 107.886 163.185 101.142 169.579 92.6876L160.332 112.219ZM172.016 93.6123C170.246 99.6228 167.346 107.159 162.921 112.767L172.016 93.6123ZM155.939 112.186L145.517 95.6004C149.42 100.118 153.7 106.063 155.939 112.232V112.186ZM142.069 94.8672L154.169 114.253C150.721 111.301 145.913 105.587 142.049 94.9135L142.069 94.8672ZM158.938 138.969C153.449 132.668 145.913 124.081 141.177 118.698C147.168 122.707 155.464 129.616 158.918 139.015L158.938 138.969ZM138.747 119.814C143.641 125.382 152.009 134.914 157.723 141.486C153.482 140.336 145.622 135.884 138.727 119.88L138.747 119.814ZM156.494 145.574C149.592 148.309 138.35 153.414 131.62 156.519C137.016 152.239 146.276 146.208 156.474 145.633L156.494 145.574ZM133.614 158.441C142.075 154.55 154.011 149.194 159.618 147.126C157.287 150.68 150.801 156.921 133.595 158.5L133.614 158.441Z" fill="white" fill-opacity="0.33"/>
<path d="M38.5603 198.855C46.0636 205.764 52.8866 211.358 58.8246 215.823C60.0135 216.715 61.1561 217.56 62.2724 218.359C47.9197 216.708 30.3437 226.563 29.5511 227.019C29.3238 227.146 29.1438 227.343 29.0378 227.581C28.9319 227.819 28.9057 228.085 28.9632 228.34C29.0204 228.628 29.1829 228.884 29.419 229.059C29.5906 229.193 29.7967 229.276 30.0134 229.297C53.131 231.781 62.7149 224.588 65.2909 222.071L66.4996 221.84C66.6552 221.81 66.8032 221.749 66.9355 221.662C77.3913 228.762 83.5934 231.431 83.7255 231.49L83.884 231.536C85.8656 245.572 87.7612 254.337 88.0981 255.064C88.1862 255.248 88.3176 255.409 88.4811 255.532C88.6549 255.668 88.8623 255.754 89.081 255.78C89.2997 255.807 89.5216 255.774 89.7229 255.684C90.0117 255.555 90.2373 255.315 90.3499 255.019C90.4626 254.723 90.4533 254.395 90.324 254.106C90.1126 253.498 89.5115 250.803 88.7255 246.484C88.9439 246.492 89.1603 246.441 89.3521 246.336C89.5439 246.231 89.7039 246.077 89.8154 245.889C89.888 245.764 93.7189 239.231 99.4851 227.395C100.971 228.699 102.69 229.709 104.551 230.374C109.115 232.098 116.671 233.108 128.56 230.13C128.799 230.07 129.013 229.94 129.175 229.755C129.338 229.571 129.44 229.342 129.468 229.098C129.497 228.854 129.451 228.607 129.336 228.39C129.221 228.174 129.043 227.997 128.825 227.884L127.907 227.435H127.86C124.333 225.764 111.969 220.513 101.44 223.359C104.241 217.481 107.385 210.546 110.74 202.639C116.024 212.791 127.801 218.386 133.99 220.724C136.216 221.569 137.722 221.992 137.953 222.045H137.992H138.072H138.171H138.356H138.428H138.527H138.607L138.693 222.012L138.778 221.979L138.858 221.939L138.937 221.893L139.01 221.84L139.082 221.781L139.148 221.721L139.181 221.682L139.221 221.642L139.274 221.556L139.313 221.497C139.345 221.44 139.372 221.38 139.393 221.318C139.396 221.29 139.396 221.261 139.393 221.233C139.395 221.195 139.395 221.158 139.393 221.12C139.396 221.087 139.396 221.054 139.393 221.021C139.396 220.984 139.396 220.946 139.393 220.909V220.816C139.385 220.752 139.374 220.688 139.36 220.625C139.363 220.599 139.363 220.572 139.36 220.546L139.32 220.427L139.28 220.347V220.295C132.59 208.947 126.183 203.419 121.15 200.764C137.147 199.258 151.275 187.276 151.982 186.668C152.082 186.579 152.167 186.474 152.233 186.358C152.266 186.299 152.293 186.237 152.312 186.173C152.312 186.173 152.312 186.173 152.312 186.14C152.334 186.078 152.349 186.014 152.358 185.948C152.365 185.878 152.365 185.807 152.358 185.737C152.358 185.737 152.358 185.691 152.358 185.664V185.532C152.355 185.513 152.355 185.493 152.358 185.473V185.427C152.347 185.39 152.332 185.354 152.312 185.321C152.313 185.301 152.313 185.281 152.312 185.262C152.279 185.196 152.239 185.134 152.193 185.077V185.044L152.068 184.918L152.035 184.885C151.982 184.84 151.924 184.8 151.863 184.766C151.799 184.725 151.73 184.692 151.658 184.667C151.589 184.643 151.519 184.626 151.447 184.614H151.361C130.225 183.293 119.822 188.498 114.881 192.838C116.77 188.13 118.688 183.155 120.634 177.91C120.709 177.892 120.782 177.868 120.852 177.837C136.262 171.45 142.061 150.347 142.391 149.092C142.423 148.985 142.439 148.874 142.438 148.762C142.447 148.679 142.447 148.595 142.438 148.511C142.383 148.253 142.244 148.02 142.041 147.851L141.883 147.672H141.85C141.606 147.5 141.307 147.424 141.011 147.461H140.912C140.773 147.492 140.641 147.548 140.522 147.626C117.636 161.437 118.455 173.868 118.838 176.18C118.627 176.319 118.468 176.523 118.382 176.761C114.908 186.173 111.467 194.753 108.21 202.415C109.135 184.284 99.0954 163.723 98.5935 162.719C98.5699 162.671 98.5434 162.624 98.5142 162.58V162.547C98.374 162.358 98.1809 162.216 97.9594 162.137H97.9197L97.781 162.104H97.6754H97.5895C97.5172 162.094 97.4438 162.094 97.3715 162.104C97.2883 162.119 97.2066 162.141 97.1271 162.17C97.0581 162.194 96.9917 162.225 96.929 162.263C96.8678 162.301 96.8103 162.346 96.7572 162.395C96.6472 162.496 96.5575 162.617 96.493 162.752C96.4902 162.767 96.4902 162.783 96.493 162.798C96.4665 162.848 96.4465 162.901 96.4336 162.956C96.4305 162.976 96.4305 162.996 96.4336 163.016V163.082C90.5353 198.399 103.039 210.697 104.241 211.814C101.599 217.758 99.1285 222.937 96.9752 227.349C97.4045 216.556 90.7401 205.552 90.4032 205.03C90.2752 204.819 90.0855 204.653 89.8599 204.552C89.6342 204.452 89.3833 204.424 89.1409 204.47C88.8984 204.517 88.6762 204.637 88.5039 204.814C88.3316 204.991 88.2177 205.216 88.1773 205.46C84.4058 226.959 92.8735 233.128 93.7784 233.716C91.1364 238.848 89.2539 242.263 88.3887 243.782C84.5834 220.828 82.3764 197.637 81.7836 174.376C81.8992 174.084 81.8992 173.758 81.7836 173.465C81.7631 173.422 81.7455 173.378 81.7308 173.333C81.6603 170.136 81.6185 166.893 81.6053 163.604C81.647 163.609 81.6892 163.609 81.7308 163.604C104.895 155.407 121.863 121.847 122.576 120.42C122.693 120.19 122.733 119.929 122.691 119.675C122.649 119.421 122.527 119.187 122.343 119.007C122.159 118.827 121.922 118.711 121.667 118.675C121.412 118.639 121.152 118.686 120.925 118.808C94.2275 132.87 84.9078 147.309 81.6582 155.361C81.7572 149.482 81.9752 143.505 82.3187 137.481C82.4121 137.443 82.5008 137.394 82.5829 137.335C82.77 137.346 82.9571 137.313 83.1292 137.238C83.3012 137.164 83.4534 137.05 83.5736 136.906C99.3398 118.062 96.8497 80.5256 96.7374 78.9404C96.7374 78.9404 96.7374 78.9073 96.7374 78.8941C96.7374 78.8809 96.7374 78.8281 96.7374 78.8017L96.6978 78.6497C96.6978 78.6497 96.6978 78.6497 96.6978 78.6035C96.588 78.3154 96.3733 78.0794 96.0967 77.943L95.925 77.877H95.8722H95.6476H95.4957H95.4296H95.2711H95.2051L95.0465 77.9232H94.9937C94.862 77.9764 94.7394 78.05 94.6304 78.1412L94.571 78.2006L94.4851 78.2931L94.4257 78.3723V78.4186C79.9673 101.899 78.1641 118.267 78.9633 127.461C67.4441 108.452 41.9751 94.8255 40.7268 94.1716H40.6938C40.5305 94.087 40.3492 94.0429 40.1654 94.0429C39.9815 94.0429 39.8003 94.087 39.6369 94.1716C39.5907 94.194 39.5465 94.2206 39.5049 94.2508C39.4454 94.2891 39.3901 94.3334 39.3397 94.3829C39.2862 94.438 39.2376 94.4977 39.1944 94.5613C39.1819 94.5779 39.1709 94.5956 39.1614 94.6141C39.1346 94.6589 39.1103 94.7053 39.0887 94.7528C39.0863 94.7725 39.0863 94.7925 39.0887 94.8123C39.0682 94.8641 39.0505 94.917 39.0359 94.9708C39.0388 94.9883 39.0388 95.0061 39.0359 95.0236C39.0095 95.1655 39.0095 95.311 39.0359 95.4529C39.0359 95.4529 39.0359 95.486 39.0359 95.5058C39.0359 95.5256 39.0359 95.6115 39.0887 95.6709V95.7171C39.086 95.7413 39.086 95.7656 39.0887 95.7898C48.3358 114.337 57.9131 124.7 65.6079 130.486C72.279 135.506 77.497 137.091 79.8286 137.56C79.1681 148.062 78.9963 158.372 79.1086 168.26C74.0359 159.33 60.5551 141.008 30.5352 128.333C30.3383 128.249 30.1227 128.219 29.9103 128.245C29.698 128.272 29.4965 128.355 29.3265 128.485C29.3265 128.485 29.3265 128.485 29.2803 128.524V128.564C29.2241 128.621 29.1733 128.683 29.1283 128.749L29.0887 128.815C29.0358 128.899 28.9957 128.99 28.9698 129.086C28.9698 129.086 28.9698 129.125 28.9698 129.152C28.9597 129.235 28.9597 129.319 28.9698 129.403V129.469C28.9723 129.57 28.9878 129.669 29.0161 129.766C29.1217 130.09 36.8034 152.884 54.2737 166.048C61.0901 171.18 69.4124 174.826 79.3728 175.09C79.8581 193.038 81.2956 210.947 83.6793 228.742C79.9339 226.879 76.2975 224.804 72.7876 222.527C80.1588 203.802 62.497 181.979 61.7374 181.054C61.5962 180.877 61.4073 180.745 61.193 180.672C60.9788 180.6 60.7482 180.59 60.5287 180.645C60.3091 180.695 60.108 180.806 59.9481 180.965C59.7883 181.123 59.6759 181.324 59.6238 181.543L59.4851 182.151C59.3532 182.301 59.2606 182.481 59.2156 182.676C59.1707 182.871 59.1747 183.074 59.2275 183.267C55.7995 199.053 58.1773 208.861 61.6317 214.806C57.1601 211.503 52.1469 207.501 46.6845 202.758C54.0954 184.132 40.8589 160.612 40.2909 159.614L40.2512 159.548C40.2263 159.51 40.1975 159.475 40.1654 159.442L40.1059 159.37L40.0266 159.304L39.9408 159.231H39.9011C39.7694 159.144 39.6209 159.086 39.4652 159.059H39.4124H39.0755C39.0009 159.068 38.9276 159.085 38.8576 159.112H38.8047L38.6528 159.178H38.6066C38.4808 159.256 38.3709 159.357 38.2829 159.475C38.2451 159.528 38.2119 159.583 38.1838 159.641V159.68C38.159 159.736 38.1369 159.794 38.1178 159.852V159.892C33.8708 177.798 35.6871 188.782 38.4414 195.222L38.2631 195.057C38.1914 194.806 38.1008 194.561 37.9923 194.324C37.8951 194.11 37.7364 193.931 37.5365 193.808C37.4091 193.634 37.2385 193.497 37.0416 193.409C36.8448 193.321 36.6283 193.285 36.4137 193.306L36.3014 193.194C36.2326 193.046 36.1336 192.913 36.0108 192.804C35.6937 192.52 35.3503 192.243 35.0332 191.979C30.4009 187.509 25.5572 182.534 20.5022 177.051C20.5238 177.002 20.5414 176.952 20.555 176.9C24.4718 162.131 13.23 141.748 12.7545 140.896C12.6289 140.672 12.436 140.495 12.2034 140.388C11.9707 140.281 11.7102 140.25 11.459 140.299C11.2078 140.349 10.9788 140.477 10.8046 140.665C10.6304 140.853 10.5199 141.09 10.489 141.345C8.73862 156.649 11.2683 166.034 13.9038 171.384C2.43742 164.575 -13.9629 163.709 -14.7885 163.663H-14.9206C-14.9887 163.657 -15.0572 163.657 -15.1254 163.663C-15.2697 163.7 -15.4061 163.763 -15.5283 163.848H-15.5613C-15.6099 163.882 -15.6543 163.922 -15.6934 163.967L-15.733 164.007C-15.7741 164.052 -15.8116 164.101 -15.8453 164.152V164.185C-15.8861 164.247 -15.9194 164.313 -15.9444 164.383C-15.9681 164.447 -15.9858 164.514 -15.9972 164.581C-16.0004 164.621 -16.0004 164.661 -15.9972 164.7C-15.9972 164.7 -15.9972 164.746 -15.9972 164.766C-15.9972 164.786 -15.9972 164.859 -15.9972 164.905C-16.0001 164.922 -16.0001 164.94 -15.9972 164.958C-16.0009 164.995 -16.0009 165.033 -15.9972 165.07C-15.9972 165.07 -15.9972 165.123 -15.9972 165.143C-15.9844 165.171 -15.9734 165.199 -15.9642 165.228L-15.9246 165.328C-15.9267 165.347 -15.9267 165.367 -15.9246 165.387L-15.8651 165.493L-15.8255 165.539L-15.7462 165.638L-15.7 165.684L-15.6207 165.757C-14.9602 166.298 -14.2997 166.814 -13.6062 167.309C4.34628 180.816 15.7796 179.112 18.5075 178.419C21.3873 181.563 24.2076 184.535 26.9685 187.336C14.0028 182.349 -0.845279 185.697 -1.62467 185.869C-1.84906 185.923 -2.05361 186.039 -2.21439 186.204C-2.37518 186.37 -2.48558 186.577 -2.53268 186.803C-2.57978 187.029 -2.56165 187.264 -2.48039 187.48C-2.39913 187.695 -2.25812 187.884 -2.07381 188.022L-2.00776 188.062C14.2406 198.663 24.6105 199.02 30.3106 197.606C19.0293 208.287 17.1997 226.008 17.1204 226.867C17.1015 227.073 17.1352 227.28 17.2184 227.47C17.3015 227.659 17.4315 227.824 17.596 227.95C17.6432 227.986 17.6941 228.017 17.7479 228.042C17.9537 228.158 18.1892 228.209 18.4245 228.191C18.6597 228.172 18.884 228.083 19.0689 227.937L19.6105 227.507C19.8848 227.423 20.1194 227.242 20.271 226.999C35.8919 214.343 38.5868 204.317 38.5603 198.855ZM123.798 173.346L137.273 155.711C134.769 161.351 130.423 168.907 123.798 173.346ZM135.839 153.617L121.308 172.593C122.015 168.63 124.901 161.602 135.839 153.617ZM92.2923 228.406C90.7797 225.731 89.2473 221.14 89.538 213.742L92.2923 228.406ZM92.2923 215.09C93.6558 218.762 94.3839 222.64 94.4455 226.556L92.2923 215.09ZM104.01 227.441L121.249 229.099C112.471 230.328 107.068 228.914 103.977 227.441H104.01ZM117.807 226.338L105.02 225.103C109.327 224.588 113.891 225.308 117.774 226.338H117.807ZM103.204 206.649C100.165 201.768 95.7863 191.087 97.6423 171.642L103.204 206.649ZM100.337 173.174C103.428 181.721 106.995 194.621 105.489 205.625L100.337 173.174ZM113.792 202.983C117.913 206.166 126.117 212.534 131.883 217.131C126.163 214.581 118.164 210.017 113.759 202.983H113.792ZM132.946 214.872C127.213 210.308 119.386 204.238 115.337 201.107C119.181 201.972 125.641 204.991 132.913 214.885L132.946 214.872ZM115.436 198.306C124.551 194.694 137.563 190.803 145.232 188.61C138.686 192.97 127.008 199.297 115.403 198.32L115.436 198.306ZM143.105 186.701C135.469 188.908 123.798 192.448 115.192 195.797C118.468 192.316 126.209 187.091 143.072 186.715L143.105 186.701ZM84.9408 159.449L115.423 127.745C109.366 137.428 98.2896 152.712 84.9078 159.462L84.9408 159.449ZM114.802 124.865L83.2566 157.672C85.5749 151.206 92.7414 138.148 114.802 124.865ZM84.0095 131.979C86.209 121.682 91.3543 100.499 94.3332 88.3459C94.1284 99.766 92.4045 119.172 84.0294 131.979H84.0095ZM92.18 86.9523C89.3134 98.6366 84.1879 119.726 81.8299 130.618C80.5683 123.795 80.2711 109.165 92.1998 86.9523H92.18ZM79.2275 133.187L47.7083 101.166C57.3979 107.461 72.9461 119.271 79.2473 133.141L79.2275 133.187ZM45.1191 101.946L76.5393 133.861C69.9739 131.213 57.497 123.577 45.1191 101.946ZM77.4838 170.46C57.9131 158.32 41.2618 140.526 34.3529 132.619C61.3014 145.334 73.316 162.824 77.5102 170.46H77.4838ZM34.0029 135.856C40.1587 142.752 51.5656 154.667 65.3701 165.05C68.8048 167.633 72.3913 170.123 76.0769 172.415C52.7876 169.931 39.419 147.468 34.0029 135.856ZM62.4045 186.279C66.711 192.719 74.3332 206.398 71.2618 218.782L62.4045 186.279ZM60.5089 188.623L68.9699 219.667L68.6 219.396C64.4917 216.272 57.5498 208.036 60.5089 188.623ZM59.9408 220.638L41.9355 224.126C47.3186 222.144 53.8972 220.414 59.9408 220.618V220.638ZM37.9461 227.369L59.419 223.207C55.456 225.275 48.6726 227.507 37.9461 227.349V227.369ZM45.4494 197.963L41.3278 167.864C44.3529 175.255 47.9659 187.236 45.4494 197.963ZM38.8443 167.421L43.1442 198.861C40.1654 194.984 35.806 185.836 38.8443 167.421ZM16.4731 171.45C14.4916 167.844 12.2063 161.543 12.1006 151.596L16.4731 171.45ZM14.4057 150.876C16.5524 156.365 18.7452 163.63 18.6924 170.354L14.4057 150.876ZM13.164 173.941L-4.161 167.593C1.37401 168.723 7.96583 170.658 13.1838 173.941H13.164ZM-7.13327 169.086L13.0187 176.464C8.77165 176.259 1.90902 174.786 -7.11345 169.086H-7.13327ZM30.8192 192.131C23.131 190.605 12.5761 188.571 5.9579 187.302C12.6884 186.794 22.8536 187.131 30.8391 192.131H30.8192ZM4.80863 189.548C11.6514 190.869 23.3622 193.122 31.3939 194.707C27.5564 196.239 19.1548 197.461 4.80863 189.548ZM32.8404 198.452C29.2803 204.462 23.8707 214.733 20.6607 220.909C22.1865 214.575 25.5947 204.753 32.8404 198.452ZM23.2565 221.193C27.2988 213.432 33.0782 202.573 36.0504 197.804C36.3476 201.728 35.1257 210.103 23.2565 221.193Z" fill="white" fill-opacity="0.33"/>
<g opacity="0.44">
<path opacity="0.44" d="M142.992 187.193C143.29 187.195 143.579 187.298 143.811 187.484C144.056 187.646 144.268 187.852 144.438 188.092C144.452 188.111 144.461 188.133 144.465 188.156C144.47 188.179 144.47 188.202 144.465 188.225C144.46 188.248 144.45 188.27 144.437 188.289C144.423 188.308 144.406 188.324 144.386 188.336C144.367 188.344 144.347 188.348 144.326 188.348C144.306 188.348 144.286 188.344 144.267 188.336C143.983 188.291 143.71 188.194 143.461 188.052C143.197 187.925 142.984 187.713 142.853 187.451C142.832 187.405 142.829 187.353 142.845 187.305C142.861 187.257 142.895 187.217 142.939 187.193H142.992Z" fill="white"/>
</g>
<g opacity="0.44">
<path opacity="0.44" d="M146.792 167.488C146.745 167.932 146.606 168.362 146.382 168.749C146.18 169.146 145.929 169.517 145.636 169.852C145.604 169.883 145.561 169.9 145.517 169.9C145.473 169.9 145.43 169.883 145.398 169.852C145.377 169.832 145.361 169.807 145.352 169.78C145.343 169.752 145.34 169.722 145.345 169.694C145.425 169.262 145.561 168.843 145.748 168.445C145.909 168.034 146.16 167.664 146.481 167.362C146.515 167.329 146.56 167.311 146.607 167.311C146.654 167.311 146.699 167.329 146.732 167.362C146.75 167.378 146.765 167.397 146.775 167.419C146.785 167.44 146.791 167.464 146.792 167.488Z" fill="white"/>
</g>
<g style="mix-blend-mode:multiply" opacity="0.14">
<g style="mix-blend-mode:multiply" opacity="0.14">
<path d="M129.414 191.305C129.414 191.178 127.375 191.252 124.131 190.882C120.888 190.512 116.471 189.646 111.537 188.769C107.315 187.94 102.995 187.726 98.7108 188.135C97.414 188.291 96.134 188.563 94.8861 188.949C94.4204 189.058 93.9748 189.24 93.5654 189.488C93.5654 189.625 95.5306 188.949 98.7636 188.685C103.009 188.434 107.268 188.718 111.442 189.53C116.345 190.386 120.824 191.22 124.121 191.41C125.419 191.486 126.721 191.486 128.019 191.41C128.487 191.439 128.956 191.403 129.414 191.305Z" fill="#A54F46"/>
</g>
</g>
<g style="mix-blend-mode:multiply" opacity="0.14">
<g style="mix-blend-mode:multiply" opacity="0.14">
<path d="M186.964 192.253C186.604 191.899 186.19 191.603 185.739 191.376C184.539 190.684 183.258 190.144 181.925 189.77C179.954 189.221 177.925 188.909 175.881 188.84C173.386 188.756 170.889 188.865 168.411 189.168L161.015 190.097C159.021 190.349 157.014 190.493 155.004 190.531C151.57 190.583 149.467 190.118 149.446 190.256C149.91 190.461 150.401 190.597 150.904 190.657C152.253 190.913 153.621 191.055 154.993 191.08C157.029 191.125 159.066 191.033 161.089 190.805C163.372 190.583 165.854 190.235 168.485 189.939C170.938 189.637 173.41 189.506 175.881 189.548C177.882 189.581 179.873 189.833 181.819 190.298C183.585 190.808 185.305 191.462 186.964 192.253Z" fill="#A54F46"/>
</g>
</g>
<path d="M231.963 64.7569L228.601 63.918C228.162 63.7906 227.769 63.5409 227.467 63.1982C227.166 62.8555 226.968 62.4339 226.897 61.9828L226.177 58.3962C226.135 58.2616 226.051 58.1439 225.938 58.0603C225.824 57.9767 225.687 57.9316 225.546 57.9316C225.405 57.9316 225.268 57.9767 225.154 58.0603C225.041 58.1439 224.957 58.2616 224.915 58.3962L224.308 61.6987C224.23 62.2321 224.003 62.7326 223.652 63.1418C223.301 63.551 222.841 63.8523 222.326 64.0105L219.215 64.8361C219.04 64.8361 218.872 64.9057 218.748 65.0296C218.624 65.1535 218.555 65.3215 218.555 65.4966C218.555 65.6718 218.624 65.8398 218.748 65.9637C218.872 66.0876 219.04 66.1571 219.215 66.1571L222.333 66.9299C222.844 67.0869 223.301 67.3844 223.651 67.7884C224.002 68.1925 224.231 68.6869 224.314 69.2153L224.975 72.5178C225.017 72.6524 225.1 72.7701 225.214 72.8537C225.327 72.9373 225.465 72.9824 225.606 72.9824C225.747 72.9824 225.884 72.9373 225.997 72.8537C226.111 72.7701 226.195 72.6524 226.236 72.5178L226.897 68.9114C226.962 68.4625 227.152 68.0411 227.447 67.6962C227.742 67.3513 228.128 67.097 228.561 66.963L231.963 66.0845C232.139 66.0845 232.308 66.0145 232.432 65.8901C232.557 65.7656 232.627 65.5967 232.627 65.4207C232.627 65.2446 232.557 65.0758 232.432 64.9513C232.308 64.8268 232.139 64.7569 231.963 64.7569Z" fill="#F2BC36"/>
<path d="M39.9072 56.7744L36.5453 57.6132C36.1068 57.7407 35.7136 57.9903 35.4118 58.3331C35.11 58.6758 34.9121 59.0974 34.8412 59.5485L34.1212 63.135C34.0794 63.2696 33.9956 63.3873 33.8822 63.4709C33.7687 63.5545 33.6314 63.5996 33.4904 63.5996C33.3495 63.5996 33.2122 63.5545 33.0987 63.4709C32.9852 63.3873 32.9015 63.2696 32.8597 63.135L32.252 59.8325C32.1745 59.2991 31.9471 58.7987 31.5963 58.3895C31.2455 57.9802 30.7858 57.679 30.2705 57.5207L27.1595 56.6951C26.9844 56.6951 26.8163 56.6255 26.6925 56.5017C26.5686 56.3778 26.499 56.2098 26.499 56.0346C26.499 55.8594 26.5686 55.6914 26.6925 55.5676C26.8163 55.4437 26.9844 55.3741 27.1595 55.3741L30.2771 54.6013C30.7884 54.4444 31.2452 54.1469 31.5956 53.7428C31.9459 53.3387 32.1757 52.8443 32.2586 52.316L32.9191 49.0135C32.9609 48.8789 33.0447 48.7612 33.1582 48.6776C33.2717 48.594 33.4089 48.5489 33.5499 48.5489C33.6908 48.5489 33.8281 48.594 33.9416 48.6776C34.0551 48.7612 34.1389 48.8789 34.1807 49.0135L34.8412 52.6198C34.9059 53.0688 35.0966 53.4902 35.3913 53.8351C35.6859 54.18 36.0723 54.4342 36.5056 54.5683L39.9072 55.4468C40.0833 55.4468 40.2521 55.5167 40.3766 55.6412C40.5011 55.7657 40.571 55.9345 40.571 56.1106C40.571 56.2866 40.5011 56.4555 40.3766 56.58C40.2521 56.7044 40.0833 56.7744 39.9072 56.7744Z" fill="#F2BC36"/>
<path d="M244.241 44.8497L242.26 44.3609C242.001 44.2841 241.769 44.1353 241.591 43.9318C241.413 43.7283 241.297 43.4786 241.256 43.2117L240.826 41.0914C240.81 41.0053 240.764 40.9276 240.696 40.8717C240.629 40.8158 240.544 40.7852 240.456 40.7852C240.369 40.7852 240.284 40.8158 240.216 40.8717C240.149 40.9276 240.103 41.0053 240.086 41.0914L239.723 43.0729C239.672 43.3809 239.537 43.6688 239.333 43.9052C239.129 44.1417 238.864 44.3176 238.567 44.4138L236.731 44.8959C236.642 44.9161 236.562 44.966 236.505 45.0374C236.448 45.1088 236.417 45.1975 236.417 45.2889C236.417 45.3804 236.448 45.4691 236.505 45.5405C236.562 45.6119 236.642 45.6618 236.731 45.6819L238.567 46.1707C238.868 46.2585 239.138 46.4288 239.347 46.6623C239.556 46.8958 239.696 47.1831 239.75 47.4917L240.139 49.4732C240.159 49.5575 240.206 49.6327 240.274 49.6866C240.342 49.7404 240.426 49.7697 240.512 49.7697C240.599 49.7697 240.683 49.7404 240.751 49.6866C240.819 49.6327 240.866 49.5575 240.886 49.4732L241.282 47.3464C241.317 47.0779 241.427 46.8247 241.6 46.6165C241.773 46.4083 242.002 46.2537 242.26 46.1707L244.241 45.6423C244.334 45.6253 244.418 45.5763 244.478 45.5039C244.538 45.4315 244.571 45.3403 244.571 45.246C244.571 45.1517 244.538 45.0605 244.478 44.9881C244.418 44.9157 244.334 44.8667 244.241 44.8497Z" fill="#F2BC36"/>
<path d="M52.1854 76.6816L50.2038 77.1703C49.9449 77.2472 49.713 77.396 49.5353 77.5995C49.3576 77.8029 49.2412 78.0526 49.1999 78.3196L48.7706 80.4398C48.7542 80.5259 48.7083 80.6037 48.6408 80.6596C48.5733 80.7155 48.4883 80.7461 48.4007 80.7461C48.313 80.7461 48.2281 80.7155 48.1606 80.6596C48.093 80.6037 48.0471 80.5259 48.0308 80.4398L47.6675 78.4583C47.6161 78.1504 47.4812 77.8625 47.2773 77.626C47.0735 77.3896 46.8086 77.2137 46.5116 77.1175L44.6754 76.6353C44.5863 76.6152 44.5066 76.5653 44.4495 76.4939C44.3924 76.4225 44.3613 76.3338 44.3613 76.2423C44.3613 76.1509 44.3924 76.0622 44.4495 75.9908C44.5066 75.9193 44.5863 75.8695 44.6754 75.8493L46.5116 75.3605C46.8124 75.2727 47.0826 75.1024 47.2915 74.869C47.5005 74.6355 47.6399 74.3482 47.6939 74.0395L48.0836 72.058C48.1032 71.9737 48.1507 71.8985 48.2185 71.8447C48.2863 71.7908 48.3703 71.7615 48.4568 71.7615C48.5434 71.7615 48.6274 71.7908 48.6951 71.8447C48.7629 71.8985 48.8104 71.9737 48.83 72.058L49.2263 74.1849C49.2609 74.4534 49.3712 74.7065 49.5443 74.9147C49.7174 75.1229 49.9461 75.2775 50.2038 75.3605L52.1854 75.889C52.2781 75.9059 52.3619 75.9549 52.4222 76.0273C52.4826 76.0997 52.5156 76.191 52.5156 76.2852C52.5156 76.3795 52.4826 76.4708 52.4222 76.5432C52.3619 76.6156 52.2781 76.6646 52.1854 76.6816Z" fill="#F2BC36"/>
<g style="mix-blend-mode:multiply" opacity="0.14">
<g style="mix-blend-mode:multiply" opacity="0.14">
<path d="M141.777 171.639C146.364 171.483 150.91 170.726 155.301 169.389C155.246 169.093 155.218 168.792 155.216 168.491V148.564L121.755 153.699L121.301 166.251C121.272 167.215 120.952 168.147 120.382 168.924C127.339 170.889 134.55 171.804 141.777 171.639Z" fill="#FCC1A8"/>
</g>
</g>
<g style="mix-blend-mode:multiply" opacity="0.1">
<g style="mix-blend-mode:multiply" opacity="0.1">
<path d="M143.33 118.589C142.421 114.109 141.502 109.524 142.273 105.012C143.044 100.501 145.707 96.0318 150.018 94.5315C151.793 93.9552 153.682 93.8174 155.522 94.1301C157.822 94.5182 159.993 95.4596 161.848 96.8731C163.704 98.2867 165.187 100.13 166.172 102.244C167.07 104.486 167.68 106.833 167.989 109.228C163.446 110.552 158.868 111.732 154.254 112.768" fill="#FCC1A8"/>
</g>
</g>
<g style="mix-blend-mode:multiply" opacity="0.1">
<g style="mix-blend-mode:multiply" opacity="0.1">
<path d="M99.9791 116.964C99.6442 114.809 99.7575 112.609 100.312 110.5C100.866 108.391 101.85 106.419 103.202 104.708C104.584 103.025 106.388 101.739 108.43 100.98C110.471 100.221 112.677 100.016 114.824 100.387C116.681 100.851 118.412 101.72 119.895 102.931C121.378 104.142 122.576 105.665 123.403 107.392C125.033 110.873 125.659 114.741 125.209 118.559C125.222 119.946 124.696 121.283 123.741 122.289C122.061 123.683 119.515 122.817 117.571 121.887" fill="#FCC1A8"/>
</g>
</g>
<path d="M59.9949 200.954C58.9265 197.995 58.5127 194.838 58.782 191.703H59.8046C59.5391 194.667 59.9205 197.653 60.9224 200.455L59.9949 200.954Z" fill="#A0C1C2"/>
<path d="M62.3973 204.096C60.8125 202.855 58.9386 202.036 56.9512 201.717C56.214 201.551 55.5243 201.384 54.8584 201.17L55.1676 200.195C55.8322 200.403 56.5069 200.578 57.189 200.719C59.3089 201.004 61.3217 201.822 63.0395 203.097L62.3973 204.096Z" fill="#A0C1C2"/>
<path d="M69.2222 212.609C68.0526 209.408 67.5665 205.997 67.7953 202.597C67.7953 201.804 67.7953 201.011 67.7953 200.219H68.7941C68.7941 201.051 68.7941 201.884 68.7941 202.597C68.5845 205.827 69.0461 209.066 70.1497 212.11L69.2222 212.609Z" fill="#A0C1C2"/>
<path d="M72.3615 216.58C69.6081 214.489 66.2991 213.256 62.8486 213.036L62.9913 212.014C66.6442 212.258 70.14 213.592 73.0274 215.843L72.3615 216.58Z" fill="#A0C1C2"/>
<path d="M79.1634 186.07C78.6402 186.07 76.7852 190.827 75.1442 196.891C73.3067 202.306 73.4076 208.19 75.4296 213.539C76.0718 208.449 78.4499 204.501 78.9018 199.269C79.3537 194.418 79.6628 186.189 79.1634 186.07Z" fill="#A7C9CA"/>
<path d="M65.917 187.33C65.5127 190.683 65.5127 199.221 68.2952 201.599C72.5998 199.221 71.5533 192.229 70.9588 188.114C70.1977 182.882 71.3393 176.556 70.0788 171.467C67.6293 175.486 66.4877 182.882 65.917 187.33Z" fill="#B8DCDE"/>
<path d="M209.204 177.482L208.419 176.864C209.157 175.889 208.848 167.993 207.373 163.379L208.324 163.07C209.704 167.304 210.417 175.936 209.204 177.482Z" fill="#A0C1C2"/>
<path d="M204.9 185.023L204.139 184.334C205.853 182.763 208.05 181.824 210.37 181.67V182.693C208.34 182.848 206.418 183.667 204.9 185.023Z" fill="#A0C1C2"/>
<path d="M200.072 192.824L199.097 192.587C199.765 189.901 199.854 187.104 199.358 184.382L200.357 184.191C200.893 187.055 200.795 190.002 200.072 192.824Z" fill="#A0C1C2"/>
<path d="M195.648 147.423C196.552 147.28 198.43 152.322 200.904 161.692C203.329 170.04 202.953 178.953 199.834 187.068C195.791 180.433 194.911 173.155 194.292 165.164C193.698 157.887 194.744 147.566 195.648 147.423Z" fill="#A7C9CA"/>
<path d="M206.255 71.2472C203.544 89.3216 188.109 101.522 170.106 97.9307C169.87 97.9042 169.632 97.963 169.435 98.0964C169.238 98.2298 169.095 98.4292 169.032 98.6585C168.969 98.8879 168.99 99.1322 169.091 99.3476C169.192 99.563 169.366 99.7352 169.583 99.8333C186.944 106.825 206.588 88.4654 207.04 71.2947C207.04 70.8667 206.326 70.7477 206.255 71.2947V71.2472Z" fill="#A1554C"/>
<path d="M125.42 30.4132C123.042 43.5172 130.462 73.4827 155.148 90.0827C168.799 99.2626 189.109 97.907 199.454 87.205C213.296 72.9357 208.016 50.747 199.454 48.7255C199.454 48.7255 203.378 41.139 199.454 36.6204C194.698 31.1505 192.177 37.7857 185.922 32.6012C178.788 26.6557 173.579 9.17578 152.627 9.17578C135.861 9.27091 127.252 20.4485 125.42 30.4132Z" fill="#A1554C"/>
<path d="M170.392 16.4059C174.411 20.0208 177.527 24.3253 182.592 26.6084C184.724 27.4049 186.909 28.0486 189.132 28.5348C193.413 29.819 196.6 31.9118 195.625 37.6196C195.506 38.3092 194.816 39.2843 194.65 39.9978C194.626 40.139 194.65 40.2842 194.718 40.4102C194.786 40.5362 194.894 40.6359 195.026 40.6933C195.157 40.7507 195.304 40.7626 195.442 40.7271C195.581 40.6915 195.704 40.6106 195.791 40.4972C199.264 35.5505 198.503 30.9843 192.747 27.9878C188.847 25.9425 184.424 26.0377 180.571 23.6119C176.718 21.1861 174.602 17.8328 171.058 15.5497C170.944 15.4826 170.809 15.4594 170.678 15.4844C170.548 15.5095 170.431 15.581 170.35 15.6858C170.268 15.7905 170.228 15.9213 170.235 16.0538C170.243 16.1863 170.299 16.3114 170.392 16.4059Z" fill="#A1554C"/>
<path d="M166.325 13.1963C156.812 7.96425 143.541 3.99263 133.268 10.0571C126.537 14.0049 122.994 25.6344 130.604 30.367C131.27 30.8189 131.936 29.8676 131.436 29.2968C122.637 19.5937 133.815 9.89061 143.589 9.29605C151.286 8.95051 158.943 10.5883 165.825 14.0525C166.372 14.3141 166.872 13.5055 166.325 13.2201V13.1963Z" fill="#A1554C"/>
<path d="M125.99 11.8875C125.184 12.1303 124.438 12.541 123.802 13.0925C123.165 13.6441 122.653 14.324 122.298 15.0877C121.943 15.8514 121.754 16.6815 121.743 17.5236C121.731 18.3656 121.899 19.2005 122.233 19.9734C123.16 22.7084 126.49 27.8929 129.891 27.6075C130.366 27.6075 130.842 27.0129 130.485 26.5611C128.963 24.5396 126.466 23.4694 124.896 21.329C122.518 18.1422 122.28 14.6224 126.395 12.815C126.942 12.601 126.537 11.6497 125.99 11.8875Z" fill="#A1554C"/>
<path d="M169.059 68.3219C165.111 91.676 144.873 98.7868 137.905 98.7868C131.793 98.7868 112.363 94.6963 106.988 69.0354C102.231 45.6337 108.89 20.6387 138.452 20.6387C168.013 20.6387 172.175 49.9859 169.059 68.3219Z" fill="#B66354"/>
<path d="M166.492 38.5728C163.876 50.8206 152.032 59.9768 137.787 59.9768C123.541 59.9768 111.389 50.4639 109.01 37.8594C105.071 47.7282 104.241 58.5653 106.632 68.9189C112.031 94.5798 131.817 98.6703 137.929 98.6703C144.898 98.6703 165.517 91.5357 169.536 68.2054C171.034 59.4536 170.82 47.5387 166.492 38.5728Z" fill="#A1554C"/>
<path d="M94.2886 134.867C81.4462 142.62 56.7841 173.703 56.7841 173.703C39.2329 185.595 44.3936 214.775 54.0968 218.271C68.9606 223.598 91.5536 217.534 103.778 188.211C116.002 158.887 94.2886 134.867 94.2886 134.867Z" fill="#E8D6D3"/>
<path d="M113.029 128.302C105.014 131.989 99.5444 132.559 96.2387 135.175C92.933 137.791 94.3123 158.054 91.292 175.415H181.307C181.307 175.415 180.475 137.363 178.002 134.985C175.528 132.607 167.633 130.799 162.781 128.397C157.93 125.995 113.029 128.302 113.029 128.302Z" fill="#FCC1A8"/>
<path d="M161.521 76.4817C160.451 81.4759 161.521 86.161 164.113 86.2799C165.849 86.2799 167.538 82.9029 168.608 77.9086C169.678 72.9144 170.511 68.6336 168.013 68.2055C165.516 67.7774 162.615 71.4874 161.521 76.4817Z" fill="#E28184"/>
<path d="M114.076 76.4817C115.146 81.4759 114.076 86.161 111.484 86.2799C109.771 86.2799 108.083 82.9029 107.013 77.9086C105.942 72.9144 105.11 68.6336 107.607 68.2055C110.104 67.7774 113.006 71.4874 114.076 76.4817Z" fill="#E28184"/>
<path d="M157.393 90.2363L122.291 96.3008C124.169 98.8692 127.38 107.597 126.667 112.045C126.034 115.57 124.527 118.881 122.283 121.673C120.04 124.465 117.131 126.65 113.824 128.026C113.824 128.026 117.772 139.656 139.366 139.323C161.864 138.942 163.576 128.026 163.576 128.026C163.576 128.026 154.23 121.439 152.708 112.045C151.876 108.286 151.863 104.393 152.672 100.629C153.48 96.866 155.091 93.3211 157.393 90.2363Z" fill="#FFB7A7"/>
<path d="M123.708 118.67C123.708 118.67 131.08 129.896 141.521 128.897C150.701 128.041 153.983 118.242 153.983 118.242C152.977 116.377 152.278 114.361 151.914 112.273C151.302 108.995 151.198 105.642 151.604 102.332L124.636 103.592C125.629 106.373 126.05 109.326 125.872 112.273C125.531 114.516 124.798 116.681 123.708 118.67Z" fill="#CB8B6F"/>
<path d="M164.803 80.1667C161.378 103.449 143.922 110.536 137.905 110.536C132.625 110.536 115.859 106.446 111.269 80.8801C109.486 73.2006 109.284 65.2386 110.674 57.4785C113.623 41.4969 120.782 32.0078 137.905 32.0078C155.028 32.0078 162.258 40.4505 165.088 57.4785C166.474 64.9874 166.377 72.695 164.803 80.1667Z" fill="#FFB7A7"/>
<path d="M165.088 57.4785C162.258 40.4505 155.004 32.0078 137.905 32.0078C120.806 32.0078 113.623 41.5207 110.674 57.4785C109.284 65.2386 109.486 73.2006 111.269 80.8801C115.859 106.446 132.673 110.536 137.905 110.536C143.922 110.536 161.378 103.402 164.803 80.1667C166.377 72.695 166.474 64.9874 165.088 57.4785ZM163.09 80.238C159.88 102.784 143.541 109.633 137.905 109.633C132.958 109.633 117.262 105.685 112.958 80.9277C111.301 73.4887 111.115 65.7974 112.411 58.2871C115.169 42.8049 121.923 33.625 137.905 33.625C153.887 33.625 160.712 41.8061 163.352 58.2871C164.647 65.5553 164.558 73.0027 163.09 80.238Z" fill="#FCC1A8"/>
<path d="M144.683 57.2884C145.278 59.4526 149.44 56.0755 155.813 58.5964C161.521 60.8557 162.211 63.6145 163.09 63.3529C163.614 63.115 162.567 58.977 157.407 56.2182C152.246 53.4595 144.089 55.2431 144.683 57.2884Z" fill="#A1554C"/>
<path d="M144.683 57.2884C145.278 59.4526 149.44 56.0755 155.813 58.5964C161.521 60.8557 162.211 63.6145 163.09 63.3529C163.614 63.115 162.567 58.977 157.407 56.2182C152.246 53.4595 144.089 55.2431 144.683 57.2884Z" fill="#A1554C"/>
<path d="M130.128 57.622C129.462 59.7624 125.491 56.3854 118.903 58.5257C113.338 60.3332 112.458 63.6151 111.578 63.2822C110.698 62.9492 112.173 58.716 117.405 56.1475C122.637 53.5791 130.77 55.5768 130.128 57.622Z" fill="#A1554C"/>
<path d="M130.128 57.622C129.462 59.7624 125.491 56.3854 118.903 58.5257C113.338 60.3332 112.458 63.6151 111.578 63.2822C110.698 62.9492 112.173 58.716 117.405 56.1475C122.637 53.5791 130.77 55.5768 130.128 57.622Z" fill="#A1554C"/>
<path d="M132.341 137.696C131.175 138.172 136.027 142.191 137.811 142.191C139.594 142.191 144.422 138.148 143.756 137.435C143.09 136.721 139.808 138.79 137.811 138.79C135.813 138.79 133.316 137.34 132.341 137.696Z" fill="#CB8B6F"/>
<path d="M84.3239 199.53C81.3749 214.512 67.6764 223.906 57.0458 221.124C46.4152 218.341 41.1831 204.286 45.5353 189.541C49.8874 174.796 60.2802 169.517 70.9821 172.275C81.6841 175.034 86.7021 187.472 84.3239 199.53Z" fill="#F9F6F4"/>
<path d="M181.807 134.082C195.957 140.979 216.196 176.058 216.196 176.058C233.176 188.567 226.089 215.679 216.743 219.84C201.213 226.761 178.905 217.462 171.081 186.07C168.885 177.152 168.708 167.857 170.564 158.863C172.42 149.868 176.261 141.402 181.807 134.082Z" fill="#E8D6D3"/>
<path d="M187.467 200.006C189.703 214.823 202.878 224.716 213.628 222.528C224.377 220.34 230.275 206.737 226.636 192.135C222.998 177.532 212.867 171.777 202.022 173.941C191.177 176.105 185.66 188.044 187.467 200.006Z" fill="#F9F6F4"/>
<path d="M162.782 128.303L137.216 163.976L132.198 214.204L138.096 281.412C138.096 281.412 187.468 281.151 190.56 278.701C196.148 274.254 177.836 229.115 176.956 217.89C176.1 207.259 181.974 193.466 183.211 179.125C183.924 170.92 181.118 137.364 179.025 134.082C176.932 130.8 162.782 128.303 162.782 128.303Z" fill="#E74779"/>
<path d="M137.216 164.095L136.788 168.447L140.902 179.862C140.902 179.862 163.495 146.567 173.222 130.99C169.801 129.88 166.314 128.982 162.782 128.303L137.216 164.095Z" fill="#F9F6F4"/>
<path d="M141.616 163.284C141.616 163.284 141.045 162.238 139.856 160.383L137.216 164.093L136.788 168.445L140.902 179.86L144.113 175.104C143.791 171.073 142.952 167.101 141.616 163.284Z" fill="#EEE2E0"/>
<path d="M183.187 179.576C172.176 188.138 156.028 193.584 138.001 193.584C136.764 193.584 135.623 193.584 134.315 193.584L132.222 214.441L138.12 281.649C138.12 281.649 187.491 281.388 190.583 278.938C196.172 274.491 177.86 229.352 176.98 218.127C176.124 207.449 181.855 193.798 183.187 179.576Z" fill="#E74779"/>
<path d="M110.936 128.467C116.383 133.794 138.548 163.284 138.548 163.284C141.234 171.039 142.001 179.33 140.783 187.447C139.118 199.195 136.597 207.638 136.597 217.46C136.597 235.891 140.926 273.752 138.167 281.529C138.167 281.529 86.1555 282.504 83.8486 278.818C81.5417 275.131 97.5471 230.302 97.1428 218.007C96.7385 205.711 92.1248 193.582 90.8643 179.242C89.6039 164.901 91.2924 139.121 93.7895 135.839C96.2867 132.557 110.936 128.467 110.936 128.467Z" fill="#F9F6F4"/>
<path d="M110.936 128.467C106.286 129.778 101.739 131.432 97.333 133.413C103.16 139.716 122.304 160.787 126.561 169.634C131.579 180.074 124.183 202.191 124.04 224.713C123.85 244.571 126.276 266.95 125.539 281.648C132.84 281.648 138.167 281.648 138.167 281.648C140.926 273.871 136.597 236.01 136.597 217.579C136.597 207.756 139.118 199.314 140.783 187.565C142.001 179.449 141.234 171.158 138.547 163.403C138.547 163.403 132.126 151.203 110.936 128.467Z" fill="white"/>
<path d="M139.713 193.513C139.119 193.513 138.572 193.513 137.977 193.513C118.761 193.513 101.685 187.353 90.6981 177.793C90.6981 178.269 90.6981 178.744 90.6981 179.172C91.9585 193.442 96.5485 205.666 96.9765 217.937C97.4046 230.209 81.3754 275.014 83.6823 278.748C85.9892 282.482 138.001 281.459 138.001 281.459C140.759 273.683 136.431 235.821 136.431 217.39C136.826 209.351 137.925 201.361 139.713 193.513Z" fill="#E74779"/>
<path d="M139.712 193.514C135.515 193.657 131.314 193.434 127.156 192.848C125.461 203.398 124.397 214.039 123.969 224.716C123.778 244.574 126.204 266.953 125.467 281.65C129.177 281.65 134.314 281.65 138.048 281.65C140.806 273.873 136.478 236.012 136.478 217.581C136.885 209.532 137.951 201.531 139.665 193.656L139.712 193.514Z" fill="#F9F6F4"/>
<path d="M136.646 223.503C135.455 223.483 134.272 223.709 133.174 224.169C132.555 224.526 132.341 227.047 132.389 229.829C128.655 230.971 125.635 233.658 124.231 239.509C124.778 255.015 126.015 270.425 125.468 281.651H131.937C132.579 275.753 132.841 265.003 132.769 258.534C132.769 250.686 131.747 240.912 133.364 237.321C133.863 238.557 135.956 238.51 137.407 238.557C137.098 233.159 136.788 228.069 136.646 223.503Z" fill="#EEE2E0"/>
<path d="M158.287 66.5636C157.444 67.5684 156.382 68.3656 155.182 68.8935C153.981 69.4214 152.676 69.6658 151.366 69.6078C148.946 69.3469 146.712 68.1836 145.111 66.3496C145.283 67.8806 145.946 69.3149 147 70.4381C148.055 71.5612 149.445 72.3128 150.962 72.5805C151.851 72.7562 152.768 72.7327 153.647 72.5117C154.526 72.2907 155.345 71.8777 156.045 71.3024C156.746 70.727 157.31 70.0037 157.698 69.1844C158.085 68.365 158.286 67.47 158.287 66.5636Z" fill="#5E454D"/>
<path d="M155.195 70.4892C155.195 70.4892 158.287 72.0113 158.501 71.7259C158.715 71.4405 156.384 69.3477 156.384 69.3477L155.195 70.4892Z" fill="#5E454D"/>
<path d="M156.669 69.229C157.864 69.4941 159.083 69.6375 160.308 69.657C160.308 69.4192 157.644 67.8496 157.644 67.8496L156.669 69.229Z" fill="#5E454D"/>
<path d="M117.238 66.5636C117.949 67.7172 118.994 68.6267 120.235 69.1706C121.476 69.7145 122.853 69.867 124.183 69.6078C126.538 69.1875 128.706 68.0495 130.39 66.3496C130.296 67.908 129.66 69.3845 128.591 70.5226C127.522 71.6608 126.089 72.3889 124.539 72.5805C117.595 73.6507 117.238 66.5636 117.238 66.5636Z" fill="#5E454D"/>
<path d="M120.639 70.5843C120.639 70.5843 117.429 72.1777 117.191 71.8924C116.953 71.607 119.403 69.3477 119.403 69.3477L120.639 70.5843Z" fill="#5E454D"/>
<path d="M119.094 69.2765C117.853 69.5613 116.585 69.7128 115.312 69.7284C116.171 69.0056 117.104 68.3758 118.095 67.8496L119.094 69.2765Z" fill="#5E454D"/>
<path d="M113.79 112.082C120.925 111.274 120.925 103.687 120.925 103.687C124.162 98.1626 125.125 91.5965 123.612 85.3749C120.901 75.3388 116.478 76.7658 116.478 76.7658C116.478 76.7658 113.743 71.2483 110.603 72.271C107.464 73.2936 109.153 76.3615 109.153 79.8337C109.153 83.3059 107.892 89.3465 108.725 96.0055C109.783 101.543 111.483 106.939 113.79 112.082Z" fill="white"/>
<path d="M168.157 85.2097C166.778 79.5733 171.796 76.6005 168.728 73.3186C165.993 70.4172 153.935 72.6527 154.458 83.8303C150.558 84.3773 147.657 93.034 152.08 101.025C155.433 107.184 157.717 106.471 157.717 106.471C160.451 117.006 165.898 114.343 165.898 114.343C167.729 109.158 170.654 104.045 170.131 98.2423C169.847 93.8496 169.187 89.4894 168.157 85.2097Z" fill="white"/>
<path d="M123.564 111.535C127.322 111.535 128.012 121.048 123.826 121.048C119.64 121.048 120.758 111.535 123.564 111.535Z" fill="white"/>
<path d="M144.969 39.7383C148.251 39.7383 148.846 47.1107 145.207 47.1107C141.568 47.1107 142.543 39.7383 144.969 39.7383Z" fill="white"/>
<path d="M172.365 74.6953C169.44 72.1268 175.576 64.3263 178.834 67.1564C182.092 69.9865 174.553 76.5741 172.365 74.6953Z" fill="white"/>
<path d="M104.728 79.2647C102.517 82.4515 94.9302 78.242 97.3797 74.6985C99.8293 71.155 106.369 76.9103 104.728 79.2647Z" fill="white"/>
<path d="M171.414 82.1421C169.939 80.0731 174.268 76.5533 175.909 78.8364C177.55 81.1195 172.484 83.6642 171.414 82.1421Z" fill="white"/>
<path d="M102.612 70.4646C100.567 71.7726 96.9997 67.2302 99.259 65.7082C101.518 64.1861 104.111 69.4895 102.612 70.4646Z" fill="white"/>
<path d="M93.6698 69.3939C92.7185 70.8684 89.2938 69.1323 90.3402 67.4914C91.3866 65.8504 94.2881 68.3 93.6698 69.3939Z" fill="white"/>
<path d="M119.474 133.797C122.043 133.797 122.518 139.124 119.664 139.124C116.811 139.124 117.572 133.797 119.474 133.797Z" fill="white"/>
<path d="M140.545 47.4668C142.519 47.4668 142.924 51.5573 140.688 51.5573C138.452 51.5573 139.071 47.4668 140.545 47.4668Z" fill="white"/>
<path d="M128.821 121.451C130.795 121.451 131.199 125.542 128.964 125.542C126.728 125.542 127.37 121.451 128.821 121.451Z" fill="white"/>
<path d="M163.685 117.697C165.944 117.697 166.348 123.286 163.851 123.286C161.354 123.286 162.044 117.697 163.685 117.697Z" fill="white"/>
<path d="M96.6669 215.846C100.02 215.846 111.721 221.578 136.811 221.578C160.237 221.578 174.173 214.443 176.979 214.205C179.786 213.968 180.309 223.718 178.359 224.574C176.408 225.431 163.019 231.4 136.811 231.947C110.603 232.494 97.2377 227.571 95.5492 225.668C93.8606 223.766 95.2638 215.846 96.6669 215.846Z" fill="#F9F6F4"/>
<path d="M150.034 231.089C149.062 228.807 147.284 226.962 145.039 225.905C145.183 224.316 145.103 222.715 144.802 221.148C142.257 221.339 139.617 221.458 136.787 221.458C135.265 221.458 133.909 221.458 132.482 221.315C132.19 224.829 132.446 228.368 133.243 231.803C134.433 231.803 135.622 231.803 136.787 231.803C141.71 231.827 146.014 231.494 150.034 231.089Z" fill="#EEE2E0"/>
<path d="M137.097 221.552H136.74C111.65 221.552 99.9489 215.82 96.5956 215.82C95.2162 215.82 93.8131 223.716 95.4778 225.642C97.1426 227.569 110.532 232.468 136.74 231.921H137.097V221.552Z" fill="white"/>
<path d="M131.507 225.311C126.061 226.333 121.662 229.615 120.758 239.865C118.499 265.598 115.55 279.724 116.525 281.769C117.5 283.815 127.155 283.268 128.416 281.627C129.676 279.986 130.176 263.196 130.081 254.467C129.985 245.739 128.796 234.538 131.293 232.207L131.507 225.311Z" fill="white"/>
<path d="M142.043 226.902C145.753 227.687 148.702 233.038 149.582 240.672C150.462 248.306 153.815 279.58 152.864 281.625C151.913 283.67 142.97 283.123 141.853 281.482C140.735 279.841 140.806 264.026 140.973 255.322C141.139 246.618 140.973 234.441 140.021 233.086L142.043 226.902Z" fill="#F9F6F4"/>
<path d="M130.462 220.124C134.094 219.107 137.936 219.107 141.568 220.124C142.591 220.98 142.686 233.347 140.95 233.918C139.214 234.489 132.412 234.703 131.033 233.918C129.654 233.133 129.035 220.933 130.462 220.124Z" fill="white"/>
<path d="M113.624 46.7539C116.002 42.9487 120.33 42.2115 124.088 40.4516C128.575 38.3984 132.297 34.9766 134.719 30.6771C134.786 30.5627 134.809 30.4277 134.784 30.2973C134.759 30.167 134.687 30.0502 134.583 29.9687C134.478 29.8873 134.347 29.8466 134.215 29.8545C134.082 29.8623 133.957 29.918 133.862 30.0112C131.128 32.3895 129.534 35.3622 126.395 37.4313C124.183 38.7711 121.86 39.9169 119.45 40.8559C117.286 41.7834 112.673 43.5195 112.958 46.5636C112.964 46.6415 112.994 46.7157 113.044 46.776C113.094 46.8362 113.161 46.8797 113.236 46.9005C113.311 46.9213 113.391 46.9184 113.465 46.8921C113.539 46.8659 113.602 46.8176 113.648 46.7539H113.624Z" fill="#B66354"/>
<path d="M85.5128 186.591C91.6486 166.471 100.519 133.866 112.363 116.195L102.089 110.797C95.7866 123.829 73.2887 141.095 59.1621 168.611C49.3401 187.637 48.0321 207.519 56.998 211.134C65.9639 214.749 80.7088 202.334 85.5128 186.591Z" fill="#FCC1A8"/>
<path d="M101.638 111.534C103.754 106.778 102.066 92.3419 102.922 89.06C103.685 86.0975 105.045 83.3219 106.917 80.9027C109.747 76.8597 111.436 73.768 112.34 74.0534C113.243 74.3388 114.718 77.4067 112.078 81.0216C112.078 81.0216 117.477 76.6695 118.404 78.0013C120.188 80.6173 115.693 82.9955 113.315 86.658C111.899 88.6196 110.985 90.8974 110.651 93.2932C111.3 91.9884 112.056 90.7395 112.91 89.5594C114.813 87.3476 117.667 85.3024 118.428 86.0872C119.926 87.4428 116.906 89.6783 115.289 92.437C113.977 94.2854 113.332 96.524 113.457 98.7869C113.457 100.618 117.405 108.989 112.506 116.243C110.271 119.572 106.251 118.431 103.778 115.981C102.679 114.718 101.94 113.182 101.638 111.534Z" fill="#FCC1A8"/>
<path d="M190.036 183.215C185.969 166.567 177.313 129.11 168.062 117.742L177.527 111.535C184.994 126.351 207.159 149.824 216.791 176.532C222.023 190.991 223.926 212.205 215.126 214.797C203.687 218.293 193.057 195.7 190.036 183.215Z" fill="#FCC1A8"/>
<path d="M200.286 205.951C205.423 214.584 211.963 215.749 215.221 214.751C223.949 212.039 222.118 190.968 216.886 176.485C207.563 150.658 186.492 127.827 178.406 112.963C183.448 128.564 208.491 156.389 215.292 176.699C220.643 192.728 220.382 206.998 214.626 211.088C211.701 213.157 203.687 210.731 200.286 205.951Z" fill="#CB8B6F"/>
<path d="M177.527 111.535C175.149 105.756 174.388 92.8897 173.032 89.798C172.138 87.0878 170.715 84.5819 168.846 82.4255C165.659 78.6442 163.781 75.933 162.829 76.0757C161.212 76.3135 161.521 79.5479 163.923 83.7811C163.923 83.7811 156.789 79.7144 156.028 81.1413C154.648 83.8762 159.381 85.6599 162.401 88.8467C164.117 90.5718 165.375 92.6968 166.064 95.0301C166.064 95.5533 164.185 93.508 161.569 92.6519C158.953 91.7957 155.362 91.2011 155.005 92.2713C154.387 94.1739 158.144 94.6496 160.951 96.2905C161.849 96.7408 162.617 97.4149 163.179 98.2481C163.741 99.0812 164.08 100.045 164.161 101.047C164.161 101.047 161.783 111.725 167.776 118.17C170.511 121.143 174.292 119.407 176.385 116.6C177.269 115.066 177.667 113.3 177.527 111.535Z" fill="#FCC1A8"/>
<path d="M89.0812 162.025C79.7586 191.468 70.0555 207.212 58.5687 207.996C54.0739 208.329 52.0287 205.214 51.1963 201.337C51.9098 206.332 53.7885 209.947 56.9991 211.136C66.2266 214.489 80.7813 202.336 85.5377 186.592C91.6735 166.473 100.544 133.867 112.388 116.197C107.227 124.236 97.8331 134.343 89.0812 162.025Z" fill="#CB8B6F"/>
<path d="M156.479 19.355C165.421 21.0197 170.273 25.2767 175.766 32.2687C179.096 36.5495 182.307 41.3059 188.157 41.4486C188.609 41.4486 188.728 40.7352 188.276 40.6638C179.144 39.2607 176.385 28.7727 170.344 23.0412C168.545 21.2938 166.374 19.9755 163.994 19.1848C161.613 18.3941 159.085 18.1515 156.598 18.4751C156.122 18.4751 155.932 19.2599 156.598 19.355H156.479Z" fill="#934945"/>
<path d="M197.051 82.4962C199.975 79.0164 201.731 74.7063 202.072 70.1744C202.414 65.6426 201.323 61.118 198.954 57.2395C196.641 53.9247 193.456 51.3152 189.75 49.7006C186.16 48.1988 182.792 46.2146 179.738 43.8026C177.632 41.4205 175.686 38.9021 173.911 36.2637C173.578 35.8594 172.817 36.2637 173.008 36.8107C175.386 43.0891 179.904 46.6089 185.731 49.6768C191.153 52.4831 195.577 54.4332 198.431 60.4977C199.98 63.9327 200.563 67.7247 200.119 71.4664C199.675 75.2082 198.22 78.7582 195.91 81.7351C195.434 82.4011 196.504 83.2572 197.051 82.6151V82.4962Z" fill="#934945"/>
<path d="M182.521 88.3714C193.08 87.0634 197.266 72.8655 190.012 65.4216C189.584 64.9936 188.823 65.5643 189.156 66.0875C191.986 70.844 193.175 76.2663 190.131 81.2368C188.205 84.3522 184.923 85.4224 182.212 87.6104C182.152 87.6734 182.112 87.7521 182.097 87.8371C182.081 87.9221 182.09 88.0099 182.122 88.0901C182.155 88.1702 182.21 88.2393 182.28 88.2892C182.351 88.3391 182.434 88.3676 182.521 88.3714Z" fill="#934945"/>
<path d="M187.468 71.559C187.369 68.1656 185.943 64.9463 183.496 62.5931C182.236 61.1662 180.856 59.8582 179.501 58.5026C178.224 56.9057 176.85 55.3887 175.386 53.9602C175.296 53.8841 175.184 53.838 175.067 53.8282C174.949 53.8183 174.831 53.8453 174.729 53.9053C174.627 53.9653 174.547 54.0555 174.498 54.1633C174.45 54.2711 174.436 54.3913 174.459 54.5072C174.911 57.4562 178.24 59.882 180.357 61.6418C183.575 64.0718 185.73 67.65 186.374 71.6304C186.374 72.2725 187.444 72.0822 187.468 71.4877V71.559Z" fill="#934945"/>
<path d="M113.504 38.0021C114.591 35.4765 116.086 33.1465 117.928 31.1052C119.964 28.9778 122.548 27.4551 125.396 26.7055C125.53 26.6532 125.642 26.5573 125.715 26.4333C125.788 26.3093 125.817 26.1644 125.798 26.0218C125.779 25.8792 125.713 25.7472 125.609 25.6469C125.506 25.5466 125.372 25.4839 125.229 25.4689C118.927 25.3262 114.694 32.6035 112.648 37.6453C112.434 38.1448 113.29 38.5015 113.504 38.0021Z" fill="#A1554C"/>
<path d="M126.228 29.866C136.716 24.3723 143.636 25.7992 153.982 30.5081C154.552 30.7697 155.29 30.0325 154.719 29.5568C146.918 23.0405 133.315 21.9941 125.823 29.319C125.751 29.3726 125.703 29.4528 125.689 29.5421C125.676 29.6313 125.699 29.7221 125.752 29.7946C125.806 29.8672 125.886 29.9154 125.975 29.9288C126.064 29.9422 126.155 29.9196 126.228 29.866Z" fill="#A1554C"/>
</g>
<path d="M237.59 167.355L236.637 171.897L240.141 174.229L243.963 171.592L237.59 167.355Z" fill="#671C45"/>
<path d="M235.249 172.73L239.915 175.832C240.215 176.032 240.62 175.95 240.819 175.65L241.21 175.062C241.41 174.762 241.328 174.357 241.028 174.158L236.362 171.055C236.062 170.856 235.657 170.937 235.458 171.237L235.067 171.826C234.867 172.126 234.949 172.53 235.249 172.73Z" fill="#FF87BA"/>
<path d="M236.31 171.025L236.365 171.054L236.487 171.136" fill="#4B332A"/>
<path d="M239.71 175.694L239.9 175.82C240.016 175.65 240.134 175.471 240.254 175.29C240.53 174.879 240.782 174.492 241.006 174.139L240.834 174.024C240.597 174.366 240.334 174.751 240.063 175.161C239.94 175.344 239.825 175.521 239.71 175.694Z" fill="#E74779"/>
<path d="M238.58 174.942L238.77 175.068C238.886 174.898 239.006 174.721 239.126 174.54C239.4 174.127 239.653 173.74 239.876 173.387L239.704 173.272C239.468 173.614 239.204 173.999 238.933 174.409C238.81 174.592 238.695 174.769 238.58 174.942Z" fill="#E74779"/>
<path d="M237.45 174.191L237.642 174.32L237.997 173.79C238.27 173.377 238.523 172.989 238.748 172.639L238.574 172.522C238.338 172.864 238.076 173.251 237.803 173.659C237.68 173.842 237.565 174.019 237.45 174.191Z" fill="#E74779"/>
<path d="M236.334 173.432L236.524 173.558L236.878 173.028C237.152 172.615 237.405 172.227 237.63 171.877L237.456 171.76C237.22 172.102 236.958 172.489 236.685 172.897C236.55 173.09 236.434 173.267 236.334 173.432Z" fill="#E74779"/>
<path d="M235.194 172.684L235.238 172.738L235.368 172.826L235.723 172.296C235.997 171.883 236.249 171.495 236.475 171.145L236.353 171.063L236.297 171.034C236.061 171.376 235.8 171.759 235.53 172.165L235.194 172.684Z" fill="#E74779"/>
<path d="M247.513 142.46L236.891 165.399C236.706 165.795 236.67 166.244 236.789 166.664C236.908 167.085 237.173 167.449 237.538 167.69L239.533 169.018L241.678 170.438L243.672 171.759C244.037 172.001 244.475 172.104 244.909 172.05C245.343 171.997 245.743 171.79 246.038 171.467L263.079 152.806C263.33 152.531 263.466 152.17 263.46 151.797C263.453 151.425 263.303 151.069 263.042 150.803C259.113 146.926 254.474 143.842 249.379 141.719C249.033 141.579 248.645 141.577 248.298 141.715C247.95 141.853 247.669 142.12 247.513 142.46Z" fill="#F983B6"/>
<path d="M257.924 147.416C257.813 147.402 257.703 147.392 257.595 147.385C256.606 147.33 255.615 147.405 254.646 147.608C253.211 147.895 251.652 148.68 251.089 150.108C250.71 151.068 251.027 151.999 251.388 152.887C251.899 154.107 252.748 155.155 253.835 155.908C256.563 157.805 259.218 153.746 260.11 151.617C260.347 151.097 260.499 150.543 260.56 149.975C260.621 149.412 260.463 148.848 260.12 148.398C259.589 147.751 258.761 147.507 257.924 147.416Z" fill="#E74779"/>
<path d="M250.343 151.485C250.358 152.372 250.808 153.25 251.27 154.001C250.487 154.468 249.729 154.975 248.998 155.519C249.229 155.867 249.535 156.16 249.892 156.377C250.515 155.863 251.153 155.366 251.805 154.888C252.29 155.458 252.713 156.061 253.345 156.461C253.905 156.871 254.534 157.178 255.202 157.366C255.339 157.406 255.484 157.412 255.624 157.384C255.694 157.367 255.757 157.327 255.803 157.271C255.85 157.216 255.877 157.147 255.881 157.074C255.874 156.995 255.846 156.919 255.8 156.854C255.514 156.376 255.129 155.966 254.671 155.65C254.308 155.382 253.733 154.746 253.258 154.701C254.022 154.759 254.789 154.74 255.549 154.643C255.785 154.632 256.016 154.576 256.23 154.476C256.337 154.422 256.427 154.338 256.489 154.235C256.551 154.132 256.582 154.013 256.579 153.893C256.562 153.79 256.518 153.694 256.454 153.612C256.389 153.531 256.305 153.467 256.209 153.427C256.017 153.349 255.811 153.311 255.603 153.315C254.835 153.298 254.071 153.43 253.353 153.706C253.677 153.386 253.977 153.041 254.25 152.676C254.472 152.403 254.636 152.087 254.731 151.748C254.773 151.565 254.831 151.189 254.693 151.03C254.511 150.801 254.241 151.02 254.008 151.14C253.399 151.457 252.877 151.919 252.487 152.484C252.826 151.988 253.117 151.46 253.355 150.907C253.552 150.538 253.623 150.114 253.559 149.701C253.547 149.63 253.52 149.562 253.478 149.504C253.437 149.445 253.382 149.397 253.319 149.363C253.102 149.275 252.88 149.456 252.725 149.64C252.236 150.225 251.903 150.925 251.757 151.674C251.838 151.146 251.894 149.468 251.132 149.379C251.058 149.369 250.983 149.376 250.912 149.399C250.308 149.57 250.331 151.015 250.343 151.485Z" fill="#F4C6DD"/>
<path d="M236.993 165.187C237.465 165.861 238.052 166.446 238.728 166.914C241.455 168.81 244.108 164.754 245.001 162.625C245.24 162.107 245.393 161.553 245.453 160.985C245.514 160.422 245.356 159.858 245.012 159.408C244.472 158.765 243.646 158.519 242.822 158.422C242.71 158.41 242.6 158.399 242.488 158.391C241.683 158.343 240.875 158.386 240.08 158.517L236.993 165.187Z" fill="#E74779"/>
<path d="M244.132 149.758C244.482 149.667 244.824 149.546 245.154 149.397C246.746 148.655 246.694 146.994 246.138 145.431L244.132 149.758Z" fill="#E74779"/>
<path d="M252.888 163.975L252.811 163.878C252.524 163.468 252.172 163.107 251.768 162.812C251.371 162.517 250.874 162.387 250.383 162.45C249.675 162.621 249.06 163.059 248.667 163.672C248.606 163.749 248.552 163.829 248.498 163.909C248.018 164.632 247.634 165.415 247.358 166.238C246.962 167.366 246.858 168.79 247.534 169.834L252.888 163.975Z" fill="#E74779"/>
<path d="M236.897 165.393C236.813 165.575 236.76 165.77 236.741 165.969C237.152 166.54 237.649 167.044 238.214 167.464C238.776 167.874 239.407 168.181 240.077 168.369C240.213 168.41 240.358 168.417 240.498 168.388C240.568 168.369 240.631 168.329 240.676 168.273C240.722 168.217 240.749 168.147 240.753 168.075C240.745 167.997 240.718 167.923 240.674 167.858C240.389 167.38 240.004 166.969 239.545 166.653C239.178 166.385 238.604 165.751 238.128 165.703C238.891 165.762 239.659 165.743 240.419 165.646C240.66 165.635 240.896 165.576 241.114 165.471C241.221 165.417 241.311 165.333 241.372 165.229C241.434 165.125 241.465 165.006 241.461 164.886C241.444 164.784 241.401 164.688 241.337 164.607C241.273 164.526 241.189 164.462 241.093 164.423C240.9 164.345 240.693 164.308 240.485 164.313C239.717 164.292 238.953 164.424 238.237 164.702C238.56 164.381 238.858 164.036 239.129 163.671C239.353 163.399 239.517 163.083 239.611 162.743C239.652 162.56 239.711 162.188 239.575 162.028C239.393 161.799 239.121 162.015 238.89 162.138C238.637 162.272 238.399 162.432 238.179 162.614L236.897 165.393Z" fill="#F4C6DD"/>
<path d="M243.819 150.437C244.347 150.384 244.863 150.248 245.348 150.034C245.906 149.79 246.417 149.449 246.856 149.027C246.949 148.938 247.018 148.828 247.056 148.705C247.073 148.644 247.071 148.579 247.049 148.52C247.026 148.461 246.986 148.41 246.932 148.376C246.87 148.347 246.801 148.334 246.733 148.34C246.243 148.341 245.76 148.448 245.315 148.654C245.113 148.742 244.793 148.83 244.51 148.949L243.819 150.437Z" fill="#F4C6DD"/>
<path d="M243.746 152.593C243.663 152.079 243.59 151.561 243.529 151.037L242.696 152.842L242.698 152.89C243.065 152.871 243.423 152.769 243.746 152.593Z" fill="#F4C6DD"/>
<path d="M248.452 167.982C248.391 167.958 248.325 167.95 248.26 167.957C248.195 167.964 248.132 167.987 248.078 168.023C247.921 168.148 247.964 168.39 248.025 168.585C248.084 168.749 248.155 168.91 248.235 169.064L248.937 168.295C248.803 168.153 248.637 168.045 248.452 167.982Z" fill="#F4C6DD"/>
<path d="M247.133 169.667C247.092 169.718 247.063 169.777 247.048 169.841C247.037 169.913 247.041 169.987 247.059 170.058C247.076 170.129 247.108 170.196 247.152 170.254L247.82 169.519C247.704 169.474 247.577 169.464 247.454 169.49C247.332 169.516 247.221 169.578 247.133 169.667Z" fill="#F4C6DD"/>
<path d="M248.219 166.558C248.173 166.557 248.136 166.664 248.13 166.799C248.124 166.935 248.156 167.047 248.201 167.048C248.246 167.048 248.284 166.941 248.285 166.806C248.287 166.67 248.259 166.558 248.219 166.558Z" fill="#AF1F4C"/>
<path d="M249.756 166.039C249.711 166.034 249.651 166.245 249.599 166.501C249.547 166.758 249.518 166.972 249.572 166.978C249.625 166.985 249.707 166.79 249.759 166.524C249.812 166.259 249.796 166.044 249.756 166.039Z" fill="#AF1F4C"/>
<path d="M248.873 164.99C248.828 164.98 248.758 165.081 248.733 165.239C248.708 165.397 248.704 165.514 248.746 165.526C248.787 165.537 248.86 165.435 248.883 165.274C248.906 165.114 248.912 164.999 248.873 164.99Z" fill="#AF1F4C"/>
<path d="M250.671 165.067C250.629 165.081 250.641 165.234 250.67 165.414C250.699 165.594 250.728 165.742 250.768 165.742C250.809 165.742 250.85 165.584 250.82 165.388C250.79 165.192 250.709 165.054 250.671 165.067Z" fill="#AF1F4C"/>
<path d="M249.705 164.426C249.665 164.417 249.6 164.534 249.561 164.69C249.523 164.847 249.531 164.979 249.572 164.991C249.614 165.002 249.678 164.883 249.716 164.726C249.754 164.57 249.749 164.436 249.705 164.426Z" fill="#AF1F4C"/>
<path d="M251.702 164.047C251.658 164.054 251.651 164.214 251.684 164.407C251.716 164.601 251.772 164.744 251.82 164.742C251.867 164.741 251.868 164.574 251.838 164.382C251.808 164.191 251.746 164.041 251.702 164.047Z" fill="#AF1F4C"/>
<path d="M250.47 163.347C250.426 163.358 250.425 163.484 250.404 163.627C250.383 163.77 250.356 163.893 250.394 163.916C250.432 163.938 250.535 163.828 250.56 163.649C250.585 163.471 250.51 163.336 250.47 163.347Z" fill="#AF1F4C"/>
<path d="M241.305 166.092C241.314 166.134 241.487 166.131 241.677 166.049C241.868 165.966 241.989 165.842 241.971 165.815C241.954 165.788 241.799 165.838 241.62 165.915C241.441 165.992 241.297 166.051 241.305 166.092Z" fill="#AF1F4C"/>
<path d="M241.455 163.262C241.481 163.295 241.608 163.291 241.764 163.232C241.92 163.173 242.031 163.097 242.025 163.049C242.019 163.001 241.872 163.025 241.718 163.082C241.564 163.139 241.441 163.225 241.455 163.262Z" fill="#AF1F4C"/>
<path d="M243.303 163.793C243.278 163.761 243.088 163.859 242.864 163.992C242.641 164.125 242.457 164.242 242.473 164.283C242.489 164.323 242.708 164.266 242.942 164.125C243.175 163.984 243.331 163.828 243.303 163.793Z" fill="#AF1F4C"/>
<path d="M241.659 161.164C241.632 161.13 241.451 161.188 241.238 161.304C241.026 161.421 240.869 161.545 240.889 161.582C240.91 161.618 241.101 161.556 241.311 161.442C241.521 161.328 241.678 161.198 241.659 161.164Z" fill="#AF1F4C"/>
<path d="M243.823 161.093C243.797 161.061 243.62 161.165 243.427 161.327C243.235 161.488 243.106 161.643 243.132 161.676C243.157 161.708 243.337 161.606 243.529 161.445C243.722 161.283 243.853 161.126 243.823 161.093Z" fill="#AF1F4C"/>
<path d="M240.712 159.911C240.684 159.876 240.521 159.921 240.351 160.056C240.182 160.19 240.095 160.341 240.125 160.37C240.156 160.398 240.292 160.298 240.448 160.178C240.605 160.057 240.73 159.95 240.712 159.911Z" fill="#AF1F4C"/>
<path d="M243.345 159.304C243.319 159.272 243.17 159.325 243.006 159.431C242.843 159.537 242.73 159.651 242.755 159.687C242.78 159.724 242.932 159.669 243.093 159.561C243.255 159.452 243.37 159.341 243.345 159.304Z" fill="#AF1F4C"/>
<path d="M239.901 163.502C239.875 163.47 239.753 163.546 239.61 163.648C239.467 163.749 239.361 163.846 239.383 163.873C239.405 163.901 239.547 163.885 239.707 163.77C239.868 163.655 239.936 163.531 239.901 163.502Z" fill="#AF1F4C"/>
<path d="M244.369 162.342C244.344 162.31 244.242 162.391 244.146 162.491C244.051 162.591 243.988 162.691 244.016 162.725C244.043 162.76 244.16 162.708 244.261 162.599C244.362 162.491 244.405 162.367 244.369 162.342Z" fill="#AF1F4C"/>
<path d="M256.79 155.05C256.75 155.03 256.666 155.15 256.553 155.263C256.441 155.377 256.332 155.496 256.36 155.531C256.387 155.566 256.536 155.517 256.666 155.369C256.796 155.221 256.827 155.066 256.79 155.05Z" fill="#AF1F4C"/>
<path d="M258.201 152.778C258.159 152.766 258.078 152.966 257.944 153.186C257.81 153.406 257.671 153.569 257.699 153.604C257.727 153.639 257.927 153.512 258.077 153.267C258.228 153.021 258.243 152.785 258.201 152.778Z" fill="#AF1F4C"/>
<path d="M256.537 151.366C256.511 151.334 256.311 151.42 256.072 151.549C255.833 151.678 255.645 151.799 255.663 151.837C255.681 151.876 255.901 151.819 256.147 151.689C256.393 151.558 256.56 151.401 256.537 151.366Z" fill="#AF1F4C"/>
<path d="M258.256 151.162C258.23 151.129 258.066 151.276 257.903 151.479C257.739 151.682 257.637 151.866 257.67 151.892C257.703 151.918 257.864 151.778 258.025 151.577C258.186 151.376 258.291 151.191 258.256 151.162Z" fill="#AF1F4C"/>
<path d="M256.08 149.697C256.054 149.665 255.949 149.736 255.845 149.831C255.741 149.926 255.665 150.019 255.69 150.056C255.716 150.093 255.838 150.052 255.95 149.947C256.061 149.842 256.102 149.724 256.08 149.697Z" fill="#AF1F4C"/>
<path d="M253.887 148.794C253.861 148.762 253.713 148.786 253.545 148.875C253.376 148.965 253.268 149.095 253.288 149.125C253.307 149.154 253.458 149.103 253.612 149.021C253.766 148.939 253.905 148.833 253.887 148.794Z" fill="#AF1F4C"/>
<path d="M257.672 149.267C257.645 149.232 257.535 149.299 257.415 149.378C257.295 149.457 257.206 149.545 257.22 149.578C257.235 149.611 257.372 149.6 257.502 149.508C257.633 149.417 257.703 149.296 257.672 149.267Z" fill="#AF1F4C"/>
<path d="M252.335 164.583C247.894 163.303 243.445 162.07 238.986 160.884L238.74 161.413C243.142 162.585 247.528 163.799 251.901 165.054L252.335 164.583Z" fill="white"/>
<path d="M259.994 156.189C254.422 154.635 248.837 153.135 243.238 151.687L239.559 159.641C244.2 160.829 248.838 162.06 253.472 163.334L259.994 156.189Z" fill="#671C45"/>
<path d="M261.794 154.223C255.907 152.717 250.014 151.241 244.114 149.797L243.87 150.328C249.704 151.755 255.535 153.216 261.362 154.713L261.794 154.223Z" fill="white"/>
<path d="M261.27 153.059C261.552 153.331 261.826 153.609 262.092 153.897L263.083 152.812C263.334 152.537 263.47 152.176 263.464 151.803C263.457 151.431 263.307 151.075 263.046 150.809C259.117 146.932 254.478 143.848 249.383 141.725C249.039 141.587 248.655 141.586 248.31 141.723C247.964 141.859 247.684 142.122 247.527 142.458L246.905 143.782C252.259 145.895 257.141 149.048 261.27 153.059Z" fill="#E3659C"/>
<path d="M254.945 147.977L255.126 148.097C255.395 147.704 255.687 147.269 255.987 146.814C256.255 146.414 256.508 146.026 256.744 145.664L256.646 145.603L256.56 145.546C256.318 145.901 256.062 146.284 255.794 146.688C255.493 147.143 255.208 147.577 254.945 147.977Z" fill="#EEA38B"/>
<path d="M253.134 146.848L253.325 146.96L254.01 145.818C254.301 145.33 254.572 144.863 254.817 144.44L254.633 144.331C254.379 144.748 254.107 145.204 253.811 145.7C253.57 146.103 253.343 146.487 253.134 146.848Z" fill="#EEA38B"/>
<path d="M251.031 145.679L251.225 145.78C251.43 145.39 251.608 145.041 251.785 144.701C252.026 144.241 252.269 143.775 252.58 143.195L252.394 143.099C252.141 143.544 251.862 144.051 251.578 144.593C251.381 144.969 251.196 145.336 251.031 145.679Z" fill="#EEA38B"/>
<path d="M256.867 149.321C256.926 149.364 256.987 149.405 257.045 149.453C257.298 149.117 257.566 148.758 257.844 148.382C258.181 147.927 258.498 147.496 258.781 147.101L258.609 146.973C258.316 147.36 257.995 147.79 257.656 148.243L256.867 149.321Z" fill="#EEA38B"/>
<path d="M258.767 150.811L258.936 150.953C259.191 150.665 259.46 150.349 259.736 150.02C260.122 149.555 260.471 149.11 260.779 148.711L260.62 148.577C260.205 149.078 259.879 149.475 259.556 149.871C259.296 150.163 259.046 150.463 258.767 150.811Z" fill="#EEA38B"/>
<path d="M260.599 152.421L260.764 152.578C260.923 152.415 261.087 152.248 261.259 152.075C261.815 151.502 262.321 150.962 262.732 150.497L262.595 150.366C262.008 150.967 261.541 151.444 261.085 151.908C260.93 152.08 260.766 152.247 260.599 152.421Z" fill="#EEA38B"/>
<g style="mix-blend-mode:multiply" opacity="0.14">
<g style="mix-blend-mode:multiply" opacity="0.14">
<path d="M247.512 142.46L244.55 148.857C245.108 149.56 245.694 150.245 246.279 150.914C247.534 152.354 248.869 153.838 249.356 155.683C249.927 157.858 249.22 160.165 248.298 162.215C246.848 165.431 244.867 168.381 242.438 170.94L243.672 171.76C244.036 172.002 244.475 172.105 244.909 172.051C245.342 171.998 245.743 171.791 246.038 171.468L263.078 152.807C263.33 152.532 263.466 152.171 263.459 151.798C263.452 151.426 263.303 151.07 263.042 150.804C259.113 146.927 254.474 143.843 249.379 141.72C249.032 141.58 248.645 141.578 248.297 141.716C247.95 141.854 247.669 142.121 247.512 142.46Z" fill="#671C45"/>
</g>
</g>
<path d="M31.4537 72.7457L28.3257 67.6059C28.2336 67.413 28.0833 67.2539 27.896 67.151C27.6835 67.0887 27.4563 67.0993 27.2506 67.181C25.3399 67.7062 23.4646 68.3525 21.6361 69.1161L21.5893 69.0297C19.7328 69.884 17.8911 70.7757 16.0841 71.7304C14.2772 72.6851 12.4971 73.7007 10.7425 74.7516L10.7893 74.8379C9.12847 75.9156 7.53604 77.0952 6.02111 78.3698C5.83891 78.4953 5.7022 78.6763 5.6314 78.8859C5.60808 79.0989 5.65118 79.3139 5.7548 79.5015C6.58261 81.3302 7.40782 83.1582 8.23044 84.9856C9.23535 87.3414 10.4439 89.605 11.8424 91.7507C14.0588 94.9866 17.5302 95.7261 20.9587 95.1861C21.1673 95.1505 21.3716 95.0935 21.5686 95.016L21.5969 95.0103L21.9308 94.8403L31.8621 89.6185L32.1961 89.4485L32.1904 89.4202C32.3653 89.3012 32.5278 89.165 32.6757 89.0138C35.058 86.4864 36.4104 83.2086 34.985 79.5492C34.0096 77.1822 32.828 74.9056 31.4537 72.7457Z" fill="#FF87BA"/>
<path d="M25.7635 92.843C25.7696 92.3916 25.6475 91.9477 25.4113 91.563C24.4446 89.9166 21.5263 90.2844 20.0407 91.4103C20.0916 89.6814 20.0229 87.7594 19.3952 86.2071C18.9496 85.104 17.8536 83.7854 16.4866 84.3648C13.7251 85.533 12.1957 88.4966 12.0696 91.3924C11.6778 90.9347 11.2569 90.5028 10.8094 90.0994C11.1394 90.6625 11.4864 91.2186 11.856 91.7591C12.0549 92.0444 12.2695 92.3184 12.4989 92.5797C12.5666 92.5459 12.6231 92.4932 12.6616 92.428C12.7001 92.3629 12.719 92.288 12.716 92.2124C12.6363 91.028 12.8281 89.8411 13.2769 88.7421C13.7256 87.6432 14.4195 86.6612 15.3055 85.8713C16.1911 85.0571 17.5481 84.2073 18.6316 86.051C18.9418 86.5887 19.027 87.3628 19.1405 87.9657C19.3766 89.3701 19.4477 90.7972 19.3525 92.218C19.3508 92.2887 19.3717 92.3582 19.4122 92.4162C19.4528 92.4742 19.5108 92.5177 19.5778 92.5405C19.6448 92.5632 19.7173 92.5639 19.7847 92.5425C19.8522 92.5211 19.911 92.4787 19.9527 92.4216C20.4633 91.6457 21.0987 91.4558 21.9337 91.2884C22.4363 91.202 22.9479 91.1811 23.4558 91.2262C24.5933 91.8704 25.118 92.5418 25.0277 93.2481L25.7635 92.843Z" fill="#D35792"/>
<path d="M9.48657 75.0476C9.06264 76.6046 8.9114 78.751 10.3484 79.8246C11.7855 80.8983 14.0637 78.2556 14.8545 77.4089L14.3457 77.3121C15.3486 79.2309 16.6712 80.9273 19.0241 80.7501C21.377 80.5729 21.247 77.5739 21.4451 75.9369L20.8295 76.0603C21.8819 77.9508 24.0592 77.4849 25.229 75.9771C26.9802 73.6976 25.6333 69.6949 24.3493 67.5491C24.1376 67.1904 23.5518 67.4808 23.7678 67.8424C24.5122 69.0811 25.0095 70.4524 25.2322 71.8804C25.3915 72.8736 25.334 73.8895 25.0637 74.8583C24.6821 76.2413 22.552 77.787 21.4316 75.7777C21.3982 75.7159 21.3458 75.6664 21.2822 75.6366C21.2186 75.6067 21.1471 75.5981 21.0782 75.6119C21.0093 75.6257 20.9466 75.6612 20.8994 75.7133C20.8522 75.7654 20.823 75.8312 20.816 75.9011C20.6637 77.1608 20.8186 78.6129 19.9273 79.638C18.9109 80.8096 17.1484 79.8932 16.3031 79.0911C15.7418 78.4826 15.2839 77.7861 14.9478 77.0295C14.925 76.9851 14.8923 76.9464 14.8523 76.9165C14.8123 76.8866 14.766 76.8662 14.717 76.8569C14.6679 76.8476 14.6174 76.8495 14.5692 76.8627C14.521 76.8759 14.4764 76.8998 14.4389 76.9328C13.8489 77.5644 13.2193 78.1577 12.5538 78.7091C11.528 79.5588 10.225 79.0618 9.93072 77.7407C9.79074 76.9137 9.85698 76.0648 10.1236 75.2695C10.2402 74.8781 9.62793 74.6328 9.5071 75.0582L9.48657 75.0476Z" fill="#D35792"/>
<path d="M28.151 79.6392C29.6379 78.0973 31.8306 77.3229 33.9422 77.172C33.8041 76.8868 33.6596 76.6066 33.5116 76.3272C32.4537 76.1998 31.4541 75.7733 30.6302 75.0978C29.3127 73.9413 29.6553 72.419 30.5365 71.234C30.4105 71.0274 30.2802 70.818 30.1534 70.6078C29.7422 71.0928 29.452 71.6685 29.3067 72.2875C29.1615 72.9065 29.1652 73.5512 29.3178 74.1685C29.6503 75.6438 30.9824 76.3594 32.4092 76.7395C31.5629 76.9306 30.7414 77.2188 29.9611 77.5983C28.9536 78.0799 27.1615 79.1273 26.8903 80.3262C26.3668 82.6172 29.5807 83.3935 31.9537 83.7569C29.9018 84.5362 28.0704 86.4159 28.5575 88.6625C28.7214 89.4798 29.5163 90.0675 30.3098 90.4642L31.052 90.0725C30.5339 89.862 30.0582 89.5597 29.6476 89.1801C28.1311 87.7654 29.8981 85.8766 30.9104 85.0333C31.7411 84.39 32.7541 84.0259 33.8043 83.9932C34.1964 83.9662 34.1048 83.3994 33.7672 83.3493C32.5174 83.1545 25.6788 82.1957 28.151 79.6392Z" fill="#D35792"/>
<g style="mix-blend-mode:multiply" opacity="0.36">
<g style="mix-blend-mode:multiply" opacity="0.36">
<path d="M21.582 95.0241L21.6103 95.0184L21.9443 94.8484L31.8628 89.618L32.1968 89.448L32.1911 89.4197C32.3659 89.3007 32.5285 89.1646 32.6764 89.0133C34.9639 86.5822 36.2958 83.4594 35.1295 79.9725C30.9566 81.9756 26.7654 84.3835 22.1507 84.4767C20.3328 84.5033 18.528 84.1646 16.8434 83.4807C15.1587 82.7968 13.6286 81.7816 12.3436 80.4953C11.0314 79.1631 10.0127 77.5708 9.3531 75.8211C8.20773 76.6248 7.10767 77.4709 6.02462 78.3835C5.84243 78.509 5.70572 78.69 5.63492 78.8996C5.61159 79.1126 5.65469 79.3276 5.75832 79.5152C6.58612 81.3439 7.41133 83.172 8.23395 84.9993C9.23886 87.3551 10.4474 89.6188 11.8459 91.7644C14.0623 95.0004 17.5337 95.7398 20.9622 95.1998C21.1743 95.163 21.3821 95.1041 21.582 95.0241Z" fill="#FF87BA"/>
</g>
</g>
<path d="M4.60434 76.189L26.2471 64.7662C26.7744 64.4879 27.3907 64.4305 27.9603 64.6066C28.5299 64.7826 29.0063 65.1778 29.2846 65.7051L30.3406 67.7059L4.72155 81.2273L3.66551 79.2264C3.52772 78.9653 3.44269 78.6797 3.4153 78.3857C3.3879 78.0918 3.41868 77.7953 3.50585 77.5133C3.59303 77.2312 3.73491 76.9691 3.92339 76.7419C4.11187 76.5146 4.34325 76.3268 4.60434 76.189Z" fill="white"/>
<path d="M4.58386 76.2222C4.51098 76.2626 4.44236 76.3058 4.37444 76.3525C4.75619 77.1003 5.20452 77.96 5.68612 78.8755C5.95384 79.3849 6.21376 79.8738 6.46022 80.3322L6.70007 80.2069C6.45926 79.7399 6.20288 79.2503 5.93587 78.7444C5.44647 77.8084 4.98754 76.9509 4.58386 76.2222Z" fill="#FABC23"/>
<path d="M7.31884 74.7645L7.10234 74.8778C7.4848 75.6291 7.93454 76.4958 8.4211 77.4177C8.68811 77.9236 8.94874 78.416 9.19449 78.871L9.43434 78.7456C9.19424 78.2822 8.93786 77.7926 8.67085 77.2867C8.18429 76.3648 7.72111 75.5045 7.31884 74.7645Z" fill="#FABC23"/>
<path d="M10.0591 73.3172L9.84258 73.4305C10.2257 74.1854 10.6748 75.0486 11.1613 75.9705C11.4291 76.4799 11.689 76.9688 11.9354 77.4272L12.1753 77.3019C11.9309 76.8356 11.6781 76.3453 11.4111 75.8394C10.9245 74.9176 10.4621 74.0608 10.0591 73.3172Z" fill="#FABC23"/>
<path d="M12.7948 71.8745L12.5818 71.9871C12.9643 72.7385 13.414 73.6052 13.9006 74.5271C14.1676 75.033 14.4282 75.5254 14.674 75.9803L14.9103 75.8557C14.6702 75.3923 14.4138 74.9027 14.1468 74.3968C13.6602 73.4749 13.2006 72.6139 12.7948 71.8745Z" fill="#FABC23"/>
<path d="M15.5337 70.4285L15.3172 70.5418C15.7039 71.296 16.1529 72.1592 16.6395 73.0811C16.9065 73.587 17.1671 74.0794 17.4136 74.5378L17.6499 74.4132C17.4091 73.9462 17.1527 73.4566 16.8857 72.9508C16.3963 72.0147 15.9402 71.1714 15.5337 70.4285Z" fill="#FABC23"/>
<path d="M18.2729 68.9812L18.0572 69.0981C18.4432 69.8488 18.8894 70.7162 19.3759 71.6381C19.6429 72.1439 19.9035 72.6364 20.1528 73.0906L20.3892 72.9659C20.1491 72.5025 19.8927 72.0129 19.6257 71.507C19.1391 70.5852 18.6745 69.7178 18.2729 68.9812Z" fill="#FABC23"/>
<path d="M21.0122 67.5379L20.7957 67.6512C21.1789 68.4061 21.6279 69.2693 22.1145 70.1912C22.3815 70.697 22.6421 71.1895 22.8886 71.6479L23.1277 71.519C22.8876 71.0556 22.6312 70.566 22.3642 70.0601C21.8706 69.1397 21.4152 68.2815 21.0122 67.5379Z" fill="#FABC23"/>
<path d="M23.7505 66.0906L23.5347 66.2075C23.9172 66.9589 24.3669 67.8256 24.8535 68.7474C25.1205 69.2533 25.3811 69.7457 25.6268 70.2007L25.8667 70.0753C25.6266 69.6119 25.3702 69.1223 25.1032 68.6164C24.6166 67.6945 24.1535 66.8342 23.7505 66.0906Z" fill="#FABC23"/>
<path d="M9.31278 87.2743C16.6794 82.4095 24.0545 77.5565 31.4381 72.7153L30.6344 71.4043C23.296 76.2144 15.9653 81.0377 8.64202 85.8742C8.85947 86.3348 9.08259 86.8053 9.31278 87.2743Z" fill="#671C45"/>
<path d="M11.4411 91.1247C18.8252 86.249 26.2177 81.3852 33.6188 76.5331C33.2392 75.7958 32.8369 75.0742 32.4212 74.3589C24.998 79.2228 17.5858 84.0992 10.1848 88.9881C10.5771 89.7154 10.9928 90.4307 11.4411 91.1247Z" fill="white"/>
<path d="M13.0655 93.1502C13.4635 93.5267 13.9004 93.8598 14.3688 94.1439C21.3397 89.5572 28.3165 84.9692 35.2992 80.3801C35.2213 80.1013 35.1327 79.8246 35.025 79.5444C34.9364 79.323 34.8451 79.1058 34.753 78.885C27.5024 83.6309 20.2732 88.386 13.0655 93.1502Z" fill="#671C45"/>
<path d="M24.5224 75.0303C23.2406 74.7421 21.9135 74.7188 20.6224 74.9619C19.4938 75.1882 18.5904 75.8403 17.6679 76.5257C15.767 77.9482 14.2535 80.0733 14.0344 82.4873C13.8514 84.395 14.3167 86.3087 15.3551 87.9195C16.4119 89.5248 18.0586 90.6492 19.9386 91.0489C20.7293 91.1964 21.5376 91.2253 22.3369 91.1349C25.6996 90.7811 28.869 88.5449 30.0565 85.3811C31.244 82.2174 30.2148 78.2761 27.4661 76.3319C26.5803 75.7081 25.5799 75.2658 24.5224 75.0303Z" fill="#FFCB65"/>
<path d="M23.9758 76.9309C23.0047 76.7131 21.9994 76.6955 21.0212 76.8791C20.165 77.0508 19.4753 77.557 18.7784 78.0647C17.3345 79.1417 16.186 80.7557 16.0063 82.595C15.8639 84.0421 16.2174 85.4947 17.0087 86.7146C17.8103 87.9347 19.0607 88.7896 20.4886 89.0937C21.0888 89.2047 21.7021 89.2268 22.3088 89.1594C24.8605 88.8909 27.2694 87.1935 28.1713 84.7899C29.0733 82.3863 28.2936 79.396 26.199 77.9059C25.529 77.4383 24.7736 77.107 23.9758 76.9309Z" fill="white"/>
</svg>
