<svg width="19" height="19" viewBox="0 0 19 19" fill="none" xmlns="http://www.w3.org/2000/svg">
<path fill-rule="evenodd" clip-rule="evenodd" d="M9.04785 0.488281C11.442 0.488281 13.692 1.41911 15.382 3.10995C18.8754 6.60328 18.8754 12.2866 15.382 15.7799C13.6695 17.4933 11.3637 18.3999 9.02785 18.3999C7.75452 18.3999 6.47285 18.1308 5.27368 17.5758C4.92035 17.4341 4.58952 17.3008 4.35202 17.3008C4.07868 17.3024 3.71118 17.4291 3.35618 17.5516C2.62785 17.8016 1.72118 18.1133 1.05035 17.4449C0.382018 16.7758 0.690351 15.8716 0.938685 15.1441C1.06118 14.7858 1.18702 14.4158 1.18702 14.1358C1.18702 13.9058 1.07618 13.6124 0.906185 13.1899C-0.654649 9.81911 0.067018 5.75661 2.71452 3.11078C4.40452 1.41995 6.65368 0.488281 9.04785 0.488281ZM9.04869 1.73828C6.98785 1.73828 5.05202 2.53995 3.59785 3.99495C1.31952 6.27161 0.699518 9.76745 2.05368 12.6949C2.24868 13.1774 2.43702 13.6474 2.43702 14.1358C2.43702 14.6233 2.26952 15.1141 2.12202 15.5474C2.00035 15.9041 1.81618 16.4424 1.93452 16.5608C2.05035 16.6808 2.59202 16.4916 2.94952 16.3691C3.37868 16.2224 3.86535 16.0541 4.34785 16.0508C4.83118 16.0508 5.28702 16.2341 5.76952 16.4283C8.72535 17.7949 12.2212 17.1733 14.4987 14.8966C17.5037 11.8899 17.5037 6.99911 14.4987 3.99411C13.0437 2.53911 11.1087 1.73828 9.04869 1.73828ZM12.3378 8.9572C12.7978 8.9572 13.1711 9.3297 13.1711 9.79053C13.1711 10.2514 12.7978 10.6239 12.3378 10.6239C11.8778 10.6239 11.5011 10.2514 11.5011 9.79053C11.5011 9.3297 11.8703 8.9572 12.3303 8.9572H12.3378ZM8.9971 8.9572C9.4571 8.9572 9.83044 9.3297 9.83044 9.79053C9.83044 10.2514 9.4571 10.6239 8.9971 10.6239C8.5371 10.6239 8.16044 10.2514 8.16044 9.79053C8.16044 9.3297 8.52877 8.9572 8.9896 8.9572H8.9971ZM5.6561 8.9572C6.1161 8.9572 6.48943 9.3297 6.48943 9.79053C6.48943 10.2514 6.1161 10.6239 5.6561 10.6239C5.1961 10.6239 4.81944 10.2514 4.81944 9.79053C4.81944 9.3297 5.1886 8.9572 5.6486 8.9572H5.6561Z" fill="#343434"/>
</svg>
