<svg width="40" height="40" viewBox="0 0 40 40" fill="none" xmlns="http://www.w3.org/2000/svg">
<circle cx="20" cy="20" r="20" fill="#E74779"/>
<path d="M25.625 24.2188C25.3663 24.2188 25.1562 24.4288 25.1562 24.6875C25.1562 24.9463 25.3663 25.1562 25.625 25.1562C25.8838 25.1562 26.0938 24.9463 26.0938 24.6875C26.0938 24.4288 25.8838 24.2188 25.625 24.2188Z" fill="white"/>
<path d="M23.75 24.2188C23.4913 24.2188 23.2812 24.4288 23.2812 24.6875C23.2812 24.9463 23.4913 25.1562 23.75 25.1562C24.0088 25.1562 24.2188 24.9463 24.2188 24.6875C24.2188 24.4288 24.0088 24.2188 23.75 24.2188Z" fill="white"/>
<path d="M18.125 24.2188C17.8663 24.2188 17.6562 24.4288 17.6562 24.6875C17.6562 24.9463 17.8663 25.1562 18.125 25.1562C18.3838 25.1562 18.5938 24.9463 18.5938 24.6875C18.5938 24.4288 18.3838 24.2188 18.125 24.2188Z" fill="white"/>
<path d="M16.25 24.2188C15.9913 24.2188 15.7812 24.4288 15.7812 24.6875C15.7812 24.9463 15.9913 25.1562 16.25 25.1562C16.5088 25.1562 16.7188 24.9463 16.7188 24.6875C16.7188 24.4288 16.5088 24.2188 16.25 24.2188Z" fill="white"/>
<path d="M14.375 24.2188C14.1163 24.2188 13.9062 24.4288 13.9062 24.6875C13.9062 24.9463 14.1163 25.1562 14.375 25.1562C14.6338 25.1562 14.8438 24.9463 14.8438 24.6875C14.8438 24.4288 14.6338 24.2188 14.375 24.2188Z" fill="white"/>
<path d="M11.4219 14.8438C11.163 14.8438 10.9531 15.0536 10.9531 15.3125V24.6875C10.9531 24.9464 11.163 25.1562 11.4219 25.1562C11.6807 25.1562 11.8906 24.9464 11.8906 24.6875V15.3125C11.8906 15.0536 11.6807 14.8438 11.4219 14.8438Z" fill="white"/>
<path d="M20.9375 14.8438C20.6787 14.8438 20.4688 15.0536 20.4688 15.3125V24.6875C20.4688 24.9464 20.6787 25.1562 20.9375 25.1562C21.1963 25.1562 21.4062 24.9464 21.4062 24.6875V15.3125C21.4062 15.0536 21.1963 14.8438 20.9375 14.8438Z" fill="white"/>
<path d="M28.5781 14.8438C28.3193 14.8438 28.1094 15.0536 28.1094 15.3125V24.6875C28.1094 24.9464 28.3193 25.1562 28.5781 25.1562C28.837 25.1562 29.0469 24.9464 29.0469 24.6875V15.3125C29.0469 15.0536 28.837 14.8438 28.5781 14.8438Z" fill="white"/>
<path d="M30.5938 12.0312H9.40625C8.63084 12.0312 8 12.6621 8 13.4375V26.5625C8 27.3379 8.63084 27.9688 9.40625 27.9688H30.5938C31.3692 27.9688 32 27.3379 32 26.5625V13.4375C32 12.6621 31.3692 12.0312 30.5938 12.0312ZM31.0625 26.5625C31.0625 26.821 30.8522 27.0312 30.5938 27.0312H9.40625C9.14778 27.0312 8.9375 26.821 8.9375 26.5625V13.4375C8.9375 13.179 9.14778 12.9688 9.40625 12.9688H30.5938C30.8522 12.9688 31.0625 13.179 31.0625 13.4375V26.5625Z" fill="white"/>
<path d="M14.375 14.8438C14.1162 14.8438 13.9062 15.0536 13.9062 15.3125V22.8125C13.9062 23.0714 14.1162 23.2812 14.375 23.2812C14.6338 23.2812 14.8438 23.0714 14.8438 22.8125V15.3125C14.8438 15.0536 14.6338 14.8438 14.375 14.8438Z" fill="white"/>
<path d="M16.25 14.8438C15.9912 14.8438 15.7812 15.0536 15.7812 15.3125V22.8125C15.7812 23.0714 15.9912 23.2812 16.25 23.2812C16.5088 23.2812 16.7188 23.0714 16.7188 22.8125V15.3125C16.7188 15.0536 16.5088 14.8438 16.25 14.8438Z" fill="white"/>
<path d="M18.125 14.8438C17.8662 14.8438 17.6562 15.0536 17.6562 15.3125V22.8125C17.6562 23.0714 17.8662 23.2812 18.125 23.2812C18.3838 23.2812 18.5938 23.0714 18.5938 22.8125V15.3125C18.5938 15.0536 18.3838 14.8438 18.125 14.8438Z" fill="white"/>
<path d="M23.75 14.8438C23.4912 14.8438 23.2812 15.0536 23.2812 15.3125V22.8125C23.2812 23.0714 23.4912 23.2812 23.75 23.2812C24.0088 23.2812 24.2188 23.0714 24.2188 22.8125V15.3125C24.2188 15.0536 24.0088 14.8438 23.75 14.8438Z" fill="white"/>
<path d="M25.625 14.8438C25.3662 14.8438 25.1562 15.0536 25.1562 15.3125V22.8125C25.1562 23.0714 25.3662 23.2812 25.625 23.2812C25.8838 23.2812 26.0938 23.0714 26.0938 22.8125V15.3125C26.0938 15.0536 25.8838 14.8438 25.625 14.8438Z" fill="white"/>
</svg>
