<svg width="24" height="24" viewBox="0 0 24 24" fill="none" xmlns="http://www.w3.org/2000/svg">
<path fill-rule="evenodd" clip-rule="evenodd" d="M4 10C5.10456 10 5.99999 10.8954 5.99999 12C5.99999 13.1046 5.10456 14 4 14C2.89543 14 2 13.1046 2 12C2 10.8954 2.89543 10 4 10ZM12.001 10C13.1055 10 14.001 10.8954 14.001 12C14.001 13.1046 13.1055 14 12.001 14C10.8964 14 10.001 13.1046 10.001 12C10.001 10.8954 10.8964 10 12.001 10ZM22.0005 12C22.0005 10.8954 21.1051 10 20.0005 10C18.8959 10 18.0005 10.8954 18.0005 12C18.0005 13.1046 18.8959 14 20.0005 14C21.1051 14 22.0005 13.1046 22.0005 12Z" fill="#323234"/>
</svg>
