<svg width="32" height="32" viewBox="0 0 32 32" fill="none" xmlns="http://www.w3.org/2000/svg">
<path d="M16 7.05566C7.55375 7.17816 1.63063 13.744 0.161625 15.547C-0.053875 15.8115 -0.053875 16.1902 0.161625 16.4547C1.63063 18.2578 7.55375 24.8236 16 24.946C24.4463 24.8236 30.3694 18.2578 31.8384 16.4547C32.0539 16.1902 32.0539 15.8115 31.8384 15.547C30.3694 13.744 24.4463 7.17816 16 7.05566Z" fill="#E74779"/>
<path d="M31.8389 16.454C30.3695 18.2567 24.4464 24.8229 16.0003 24.9452C15.7622 24.9419 15.5266 24.9329 15.293 24.9194C23.3619 24.4567 28.9961 18.2059 30.4237 16.454C30.6393 16.1895 30.6393 15.8104 30.4237 15.5459C28.9962 13.7939 23.362 7.54319 15.293 7.08044C15.5266 7.06694 15.7622 7.05794 16.0003 7.05469C24.4464 7.177 30.3695 13.7431 31.8389 15.5459C32.0539 15.8104 32.0539 16.1895 31.8389 16.454Z" fill="#E74779"/>
<path d="M16.0007 9.04004C9.21195 9.13535 4.45127 14.244 3.27052 15.6469C3.09733 15.8527 3.09733 16.1473 3.27052 16.3531C4.45127 17.756 9.21195 22.8646 16.0007 22.96C22.7895 22.8646 27.5501 17.756 28.7309 16.3531C28.9041 16.1473 28.9041 15.8527 28.7309 15.6469C27.5501 14.244 22.7895 9.13529 16.0007 9.04004Z" fill="#EAF6FF"/>
<path d="M28.7305 16.3537C27.5501 17.7568 22.7893 22.8651 16.0005 22.9604C15.7682 22.9572 15.5384 22.9481 15.3105 22.9333C21.7312 22.5201 26.2101 17.7085 27.3506 16.3537C27.5237 16.1478 27.5237 15.8536 27.3506 15.6476C26.2101 14.2928 21.7312 9.4812 15.3105 9.06802C15.5384 9.0532 15.7682 9.0442 16.0005 9.04102C22.7893 9.13627 27.5501 14.2446 28.7305 15.6477C28.9036 15.8536 28.9036 16.1478 28.7305 16.3537Z" fill="#D8ECFE"/>
<path d="M15.9991 22.9601C19.843 22.9601 22.9591 19.844 22.9591 16C22.9591 12.1561 19.843 9.04004 15.9991 9.04004C12.1552 9.04004 9.03906 12.1561 9.03906 16C9.03906 19.844 12.1552 22.9601 15.9991 22.9601Z" fill="#BC7C63"/>
<path d="M22.9598 15.9998C22.9598 19.8434 19.8434 22.9592 15.9998 22.9592C14.9012 22.9592 13.8617 22.7043 12.9375 22.2506C13.5361 22.4186 14.1681 22.5086 14.8207 22.5086C18.665 22.5086 21.7807 19.3929 21.7807 15.5492C21.7807 12.8036 20.1916 10.4299 17.883 9.29785C20.8121 10.1191 22.9598 12.8081 22.9598 15.9998Z" fill="#AA6A51"/>
<path d="M15.9992 20.6274C18.5553 20.6274 20.6274 18.5553 20.6274 15.9992C20.6274 13.4432 18.5553 11.3711 15.9992 11.3711C13.4432 11.3711 11.3711 13.4432 11.3711 15.9992C11.3711 18.5553 13.4432 20.6274 15.9992 20.6274Z" fill="#7C4B37"/>
<path d="M20.6281 16.0002C20.6281 18.5559 18.5556 20.6277 15.9999 20.6277C14.7461 20.6277 13.6095 20.1289 12.7754 19.3199C13.4319 19.6765 14.1843 19.8792 14.9836 19.8792C17.5394 19.8792 19.6118 17.8074 19.6118 15.251C19.6118 13.9497 19.0744 12.7732 18.2094 11.9326C19.6498 12.7165 20.6281 14.2437 20.6281 16.0002Z" fill="#683A2A"/>
<path d="M18.9609 16.0731C20.5573 16.0731 21.8514 14.779 21.8514 13.1826C21.8514 11.5861 20.5573 10.292 18.9609 10.292C17.3645 10.292 16.0703 11.5861 16.0703 13.1826C16.0703 14.779 17.3645 16.0731 18.9609 16.0731Z" fill="#EDD9D3"/>
<path d="M21.8509 13.1831C21.8509 14.7792 20.5566 16.0735 18.9605 16.0735C17.9893 16.0735 17.1294 15.594 16.6055 14.859C17.009 15.0727 17.4692 15.1937 17.957 15.1937C19.5532 15.1937 20.8475 13.8994 20.8475 12.3032C20.8475 11.6789 20.6492 11.1003 20.3127 10.6279C21.2278 11.1126 21.8509 12.0748 21.8509 13.1831Z" fill="#E5C7BE"/>
<path d="M4.13738 25.0181C3.92094 25.8049 3.26137 27.2763 1.287 28.0618C1.196 28.0979 1.196 28.2252 1.287 28.2614C3.26137 29.0469 3.92088 30.5182 4.13738 31.3051C4.16619 31.4099 4.31431 31.4099 4.34313 31.3051C4.55956 30.5182 5.21912 29.0469 7.1935 28.2614C7.2845 28.2252 7.2845 28.0979 7.1935 28.0618C5.21912 27.2762 4.55963 25.8049 4.34313 25.0181C4.31431 24.9132 4.16625 24.9132 4.13738 25.0181Z" fill="#FEC165"/>
<path d="M7.19398 28.2618C5.21961 29.0468 4.55992 30.5186 4.34311 31.3049C4.31461 31.4103 4.16611 31.4103 4.13761 31.3049C4.03817 30.9436 3.84523 30.4384 3.47461 29.9212C4.01186 29.1856 4.13098 28.9963 5.14511 28.2585C5.22186 28.2026 5.22542 28.1155 5.14511 28.0649C4.24042 27.4943 3.8943 27.0094 3.47461 26.4022C3.84523 25.885 4.03817 25.3798 4.13761 25.0185C4.16611 24.9131 4.31461 24.9131 4.34311 25.0185C4.55992 25.8048 5.21955 27.2767 7.19398 28.0617C7.28486 28.098 7.28486 28.2253 7.19398 28.2618Z" fill="#FDB441"/>
<path d="M26.954 0.714492C26.6889 1.67837 25.881 3.48062 23.4625 4.44287C23.351 4.48724 23.351 4.64305 23.4625 4.68737C25.881 5.64962 26.6889 7.45187 26.954 8.41574C26.9894 8.54412 27.1708 8.54412 27.2061 8.41574C27.4712 7.45187 28.2792 5.64962 30.6977 4.68737C30.8091 4.64299 30.8091 4.48718 30.6977 4.44287C28.2792 3.48062 27.4713 1.67837 27.2061 0.714492C27.1708 0.586055 26.9894 0.586055 26.954 0.714492Z" fill="#FEC165"/>
<path d="M30.6958 4.6869C28.2779 5.6489 27.4697 7.4509 27.2045 8.4149C27.1694 8.54352 26.9877 8.54352 26.9526 8.4149C26.8452 8.02508 26.6496 7.49865 26.2949 6.9464C27.0785 5.97821 27.0785 5.60252 28.4951 4.68659C28.5963 4.62115 28.5999 4.50159 28.4951 4.44196C27.0785 3.63565 26.818 2.99697 26.2949 2.18215C26.6496 1.6299 26.8452 1.10347 26.9526 0.713656C26.9877 0.585031 27.1694 0.585031 27.2045 0.713656C27.4697 1.67765 28.2779 3.47965 30.6958 4.44228C30.8072 4.48671 30.8072 4.64253 30.6958 4.6869Z" fill="#FDB441"/>
</svg>
