<svg width="40" height="40" viewBox="0 0 40 40" fill="none" xmlns="http://www.w3.org/2000/svg">
<circle cx="20" cy="20" r="20" fill="#E74779"/>
<path d="M30.5 20.75H9.5C9.0875 20.75 8.75 20.4125 8.75 20C8.75 19.5875 9.0875 19.25 9.5 19.25H30.5C30.9125 19.25 31.25 19.5875 31.25 20C31.25 20.4125 30.9125 20.75 30.5 20.75Z" fill="white"/>
<path d="M10.6633 18.5748C10.6633 18.5748 10.6258 18.5748 10.5883 18.5748C10.1758 18.5373 9.87582 18.1998 9.91332 17.7873C9.98832 16.7748 10.1008 15.7998 10.2508 14.8623L10.2883 14.7498C10.6633 12.4998 12.4633 10.7373 14.7133 10.3248L14.8258 10.2873C15.7633 10.1373 16.7758 9.98734 17.7883 9.91234C18.2008 9.87484 18.5758 10.1748 18.5758 10.5873C18.6133 10.9998 18.3133 11.3748 17.9008 11.3748C16.9258 11.4498 15.9508 11.5623 15.0508 11.7123L14.9383 11.7498C13.3258 12.0123 12.0133 13.3248 11.7508 14.9373L11.7133 15.1248C11.5633 15.9873 11.4508 16.9248 11.3758 17.8998C11.3758 18.2748 11.0383 18.5748 10.6633 18.5748Z" fill="white"/>
<path d="M29.3375 18.575C28.9625 18.575 28.625 18.275 28.5875 17.8625C28.5125 16.8875 28.4 15.9875 28.25 15.0875V15.0125C27.9875 13.4 26.675 12.0875 25.0625 11.825L24.95 11.7875C24.05 11.6375 23.1125 11.525 22.1 11.45C21.6875 11.4125 21.3875 11.075 21.425 10.6625C21.4625 10.25 21.8 9.95004 22.2125 9.98754C23.2625 10.0625 24.2375 10.175 25.175 10.3625L25.2875 10.4C27.5375 10.775 29.3 12.575 29.7125 14.825L29.75 14.9375C29.9 15.875 30.0125 16.85 30.0875 17.8625C30.125 18.275 29.825 18.65 29.4125 18.65C29.375 18.575 29.375 18.575 29.3375 18.575Z" fill="white"/>
<path d="M17.8259 30.0501H17.7884C17.1134 30.0126 16.4384 29.9376 15.8009 29.8251L14.8634 29.7126C12.5009 29.3751 10.6634 27.575 10.2509 25.25C10.1009 24.275 9.9509 23.2625 9.8759 22.2125C9.8384 21.8 10.1759 21.425 10.5884 21.425C11.0009 21.3875 11.3759 21.6875 11.3759 22.1C11.4509 23.1125 11.5634 24.0875 11.7134 24.9875C12.0134 26.675 13.3259 27.95 15.0134 28.2125L15.9509 28.325C16.5509 28.4 17.1884 28.475 17.8634 28.5125C18.2759 28.55 18.5759 28.8875 18.5384 29.3001C18.5384 29.7501 18.2384 30.0501 17.8259 30.0501Z" fill="white"/>
<path d="M22.175 30.0498C21.8 30.0498 21.4625 29.7498 21.425 29.3373C21.3875 28.9248 21.6875 28.5498 22.1 28.5498C22.7375 28.5123 23.375 28.4373 24.0125 28.3623L24.95 28.2498C26.6375 28.0248 27.9875 26.7123 28.25 25.0248C28.4 24.1248 28.5125 23.1498 28.5875 22.1373C28.625 21.7248 28.9625 21.4248 29.375 21.4248C29.7875 21.4623 30.0875 21.7998 30.0875 22.2123C30.0125 23.2623 29.9 24.3123 29.7125 25.2498C29.3 27.5748 27.4625 29.3748 25.1375 29.6748L24.2 29.7873C23.5625 29.8623 22.8875 29.9373 22.2125 30.0123C22.2125 30.0498 22.175 30.0498 22.175 30.0498Z" fill="white"/>
<path d="M20.1293 12.0004C18.9571 11.9881 17.7826 12.2862 16.7396 12.8928C14.6536 14.106 13.4558 16.3571 13.6582 18.6598C13.6701 18.7881 13.7582 18.8965 13.8813 18.9345C14.0099 18.9744 14.142 19.0131 14.2735 19.0476V19.648C13.5406 19.7362 13 20.4183 13 21.2297C13 22.0831 13.6191 22.8201 14.4307 22.8201C14.4873 22.8201 14.5361 22.8177 14.5923 22.8105C14.6707 23.0344 14.7608 23.2467 14.8651 23.4569C14.8651 23.4569 14.9684 23.7151 15.2312 24.0933C16.2574 25.6293 18.0108 26.6396 20 26.6396C21.9892 26.6396 23.7356 25.6379 24.7676 24.0933L25.1349 23.4569C25.2393 23.2467 25.3294 23.0344 25.4077 22.8105C25.464 22.8177 25.5133 22.8201 25.5699 22.8201C26.3816 22.8201 27 22.0831 27 21.2297C27 20.4261 26.4601 19.7362 25.7272 19.648V19.0004H26.0112C26.1724 18.9999 26.3077 18.8789 26.3263 18.7188C26.579 16.4814 25.5705 14.2278 23.5003 12.9637C22.4712 12.3353 21.3015 12.0126 20.1293 12.0004ZM20.1225 12.6393C21.1824 12.6503 22.2408 12.9395 23.1691 13.5063C24.932 14.5827 25.8305 16.4632 25.7191 18.3664H25.0174C23.5812 18.3664 22.218 17.8368 21.243 16.8487C21.1183 16.722 20.914 16.722 20.7893 16.8487C19.6215 18.02 18.0008 18.6834 16.3052 18.6834C15.5664 18.6834 14.9148 18.5642 14.2778 18.3888C14.2 16.426 15.215 14.521 17.0591 13.4429C18.0001 12.8956 19.0625 12.6282 20.1225 12.6393ZM25.0174 19.0004H25.0901V20.9102C25.0901 21.8409 24.8449 22.7082 24.4146 23.4565H15.588C15.2143 22.84 14.9074 21.9106 14.9074 20.9102V19.1893C15.3643 19.2735 15.8318 19.3198 16.3052 19.3198C18.0746 19.3198 19.7838 18.6524 21.0162 17.5125C22.0936 18.4859 23.519 19.0004 25.0174 19.0004ZM14.2735 20.2931V20.9102C14.2735 21.3483 14.3206 21.774 14.4133 22.1837C14.0106 22.1765 13.6371 21.7772 13.6371 21.2297C13.6371 20.7477 13.9227 20.3794 14.2735 20.2931ZM25.7272 20.2931C26.0718 20.3779 26.3636 20.7478 26.3636 21.2297C26.3636 21.7772 25.9851 22.1762 25.5861 22.1831C25.6787 21.7736 25.7272 21.3481 25.7272 20.9102V20.2931ZM15.588 23.4565H24.4146C23.4844 24.6218 21.6178 26.0028 20 26.0028C18.3822 26.0028 16.427 24.8409 15.588 23.4565Z" fill="white"/>
</svg>
