<svg width="135" height="76" viewBox="0 0 135 76" fill="none" xmlns="http://www.w3.org/2000/svg">
<g filter="url(#filter0_d_59_506)">
<path d="M119.579 33.5082C119.579 28.9708 122.902 25.292 127 25.292V12.217C122.902 12.217 119.579 8.53918 119.579 4.00081H15.4207C15.4207 8.53918 12.0983 12.217 8 12.217V25.292C12.0983 25.292 15.4207 28.9708 15.4207 33.5082C15.4207 38.0456 12.0983 41.7244 8 41.7244V54.7994C12.0983 54.7994 15.4207 58.4782 15.4207 63.0156H119.579C119.579 58.4782 122.902 54.7994 127 54.7994V41.7244C122.902 41.7244 119.579 38.0456 119.579 33.5082Z" fill="white"/>
</g>
<path d="M14.6683 4H119.872C119.872 4 120.278 5.83126 120.409 6.42311C120.691 7.69869 120.691 7.63466 120.691 7.63466H14.0586C14.0586 7.63466 14.5509 6.55628 14.6683 5.81733C14.7797 5.1163 14.6683 4 14.6683 4Z" fill="url(#paint0_linear_59_506)"/>
<path d="M61.8006 28.272C60.5686 28.272 59.5606 27.856 58.7766 27.024C58.0086 26.176 57.6246 25.048 57.6246 23.64C57.6246 22.232 58.0086 21.112 58.7766 20.28C59.5606 19.432 60.5686 19.008 61.8006 19.008C63.0326 19.008 64.0326 19.432 64.8006 20.28C65.5686 21.112 65.9526 22.232 65.9526 23.64C65.9526 25.048 65.5686 26.176 64.8006 27.024C64.0326 27.856 63.0326 28.272 61.8006 28.272ZM71.8086 19.2H74.6646L63.1926 36H60.3366L71.8086 19.2ZM61.8006 26.304C62.3446 26.304 62.7686 26.08 63.0726 25.632C63.3926 25.184 63.5526 24.52 63.5526 23.64C63.5526 22.76 63.3926 22.096 63.0726 21.648C62.7686 21.2 62.3446 20.976 61.8006 20.976C61.2726 20.976 60.8486 21.208 60.5286 21.672C60.2086 22.12 60.0486 22.776 60.0486 23.64C60.0486 24.504 60.2086 25.168 60.5286 25.632C60.8486 26.08 61.2726 26.304 61.8006 26.304ZM73.2006 36.192C72.4006 36.192 71.6806 36.008 71.0406 35.64C70.4166 35.256 69.9286 34.712 69.5766 34.008C69.2246 33.304 69.0486 32.488 69.0486 31.56C69.0486 30.632 69.2246 29.816 69.5766 29.112C69.9286 28.408 70.4166 27.872 71.0406 27.504C71.6806 27.12 72.4006 26.928 73.2006 26.928C74.4326 26.928 75.4326 27.352 76.2006 28.2C76.9846 29.032 77.3766 30.152 77.3766 31.56C77.3766 32.968 76.9846 34.096 76.2006 34.944C75.4326 35.776 74.4326 36.192 73.2006 36.192ZM73.2006 34.224C73.7446 34.224 74.1686 34 74.4726 33.552C74.7926 33.088 74.9526 32.424 74.9526 31.56C74.9526 30.696 74.7926 30.04 74.4726 29.592C74.1686 29.128 73.7446 28.896 73.2006 28.896C72.6726 28.896 72.2486 29.12 71.9286 29.568C71.6086 30.016 71.4486 30.68 71.4486 31.56C71.4486 32.44 71.6086 33.104 71.9286 33.552C72.2486 34 72.6726 34.224 73.2006 34.224Z" fill="#E74779"/>
<path d="M33.6952 42.6H37.2352C38.1232 42.6 38.9112 42.776 39.5992 43.128C40.2872 43.48 40.8192 43.976 41.1952 44.616C41.5792 45.248 41.7712 45.976 41.7712 46.8C41.7712 47.624 41.5792 48.356 41.1952 48.996C40.8192 49.628 40.2872 50.12 39.5992 50.472C38.9112 50.824 38.1232 51 37.2352 51H33.6952V42.6ZM37.1632 49.956C37.8432 49.956 38.4392 49.824 38.9512 49.56C39.4712 49.296 39.8712 48.928 40.1512 48.456C40.4312 47.976 40.5712 47.424 40.5712 46.8C40.5712 46.176 40.4312 45.628 40.1512 45.156C39.8712 44.676 39.4712 44.304 38.9512 44.04C38.4392 43.776 37.8432 43.644 37.1632 43.644H34.8952V49.956H37.1632ZM44.2092 42.6H45.4092V51H44.2092V42.6ZM50.9721 51.096C50.3401 51.096 49.7281 51 49.1361 50.808C48.5521 50.608 48.0921 50.352 47.7561 50.04L48.2001 49.104C48.5201 49.392 48.9281 49.628 49.4241 49.812C49.9281 49.988 50.4441 50.076 50.9721 50.076C51.6681 50.076 52.1881 49.96 52.5321 49.728C52.8761 49.488 53.0481 49.172 53.0481 48.78C53.0481 48.492 52.9521 48.26 52.7601 48.084C52.5761 47.9 52.3441 47.76 52.0641 47.664C51.7921 47.568 51.4041 47.46 50.9001 47.34C50.2681 47.188 49.7561 47.036 49.3641 46.884C48.9801 46.732 48.6481 46.5 48.3681 46.188C48.0961 45.868 47.9601 45.44 47.9601 44.904C47.9601 44.456 48.0761 44.052 48.3081 43.692C48.5481 43.332 48.9081 43.044 49.3881 42.828C49.8681 42.612 50.4641 42.504 51.1761 42.504C51.6721 42.504 52.1601 42.568 52.6401 42.696C53.1201 42.824 53.5321 43.008 53.8761 43.248L53.4801 44.208C53.1281 43.984 52.7521 43.816 52.3521 43.704C51.9521 43.584 51.5601 43.524 51.1761 43.524C50.4961 43.524 49.9841 43.648 49.6401 43.896C49.3041 44.144 49.1361 44.464 49.1361 44.856C49.1361 45.144 49.2321 45.38 49.4241 45.564C49.6161 45.74 49.8521 45.88 50.1321 45.984C50.4201 46.08 50.8081 46.184 51.2961 46.296C51.9281 46.448 52.4361 46.6 52.8201 46.752C53.2041 46.904 53.5321 47.136 53.8041 47.448C54.0841 47.76 54.2241 48.18 54.2241 48.708C54.2241 49.148 54.1041 49.552 53.8641 49.92C53.6241 50.28 53.2601 50.568 52.7721 50.784C52.2841 50.992 51.6841 51.096 50.9721 51.096ZM60.3332 51.096C59.4932 51.096 58.7332 50.912 58.0532 50.544C57.3812 50.168 56.8532 49.656 56.4692 49.008C56.0852 48.352 55.8932 47.616 55.8932 46.8C55.8932 45.984 56.0852 45.252 56.4692 44.604C56.8532 43.948 57.3852 43.436 58.0652 43.068C58.7452 42.692 59.5052 42.504 60.3452 42.504C61.0012 42.504 61.6012 42.616 62.1452 42.84C62.6892 43.056 63.1532 43.38 63.5372 43.812L62.7572 44.568C62.1252 43.904 61.3372 43.572 60.3932 43.572C59.7692 43.572 59.2052 43.712 58.7012 43.992C58.1972 44.272 57.8012 44.66 57.5132 45.156C57.2332 45.644 57.0932 46.192 57.0932 46.8C57.0932 47.408 57.2332 47.96 57.5132 48.456C57.8012 48.944 58.1972 49.328 58.7012 49.608C59.2052 49.888 59.7692 50.028 60.3932 50.028C61.3292 50.028 62.1172 49.692 62.7572 49.02L63.5372 49.776C63.1532 50.208 62.6852 50.536 62.1332 50.76C61.5892 50.984 60.9892 51.096 60.3332 51.096ZM69.4653 51.096C68.6173 51.096 67.8533 50.912 67.1733 50.544C66.4933 50.168 65.9573 49.652 65.5653 48.996C65.1813 48.34 64.9893 47.608 64.9893 46.8C64.9893 45.992 65.1813 45.26 65.5653 44.604C65.9573 43.948 66.4933 43.436 67.1733 43.068C67.8533 42.692 68.6173 42.504 69.4653 42.504C70.3053 42.504 71.0653 42.692 71.7453 43.068C72.4253 43.436 72.9573 43.948 73.3413 44.604C73.7253 45.252 73.9173 45.984 73.9173 46.8C73.9173 47.616 73.7253 48.352 73.3413 49.008C72.9573 49.656 72.4253 50.168 71.7453 50.544C71.0653 50.912 70.3053 51.096 69.4653 51.096ZM69.4653 50.028C70.0813 50.028 70.6333 49.888 71.1213 49.608C71.6173 49.328 72.0053 48.944 72.2853 48.456C72.5733 47.96 72.7173 47.408 72.7173 46.8C72.7173 46.192 72.5733 45.644 72.2853 45.156C72.0053 44.66 71.6173 44.272 71.1213 43.992C70.6333 43.712 70.0813 43.572 69.4653 43.572C68.8493 43.572 68.2893 43.712 67.7853 43.992C67.2893 44.272 66.8973 44.66 66.6093 45.156C66.3293 45.644 66.1893 46.192 66.1893 46.8C66.1893 47.408 66.3293 47.96 66.6093 48.456C66.8973 48.944 67.2893 49.328 67.7853 49.608C68.2893 49.888 68.8493 50.028 69.4653 50.028ZM79.8314 51.096C78.7114 51.096 77.8394 50.776 77.2154 50.136C76.5914 49.496 76.2794 48.576 76.2794 47.376V42.6H77.4794V47.328C77.4794 49.128 78.2674 50.028 79.8434 50.028C80.6114 50.028 81.1994 49.808 81.6074 49.368C82.0154 48.92 82.2194 48.24 82.2194 47.328V42.6H83.3834V47.376C83.3834 48.584 83.0714 49.508 82.4474 50.148C81.8234 50.78 80.9514 51.096 79.8314 51.096ZM93.6676 42.6V51H92.6836L87.6436 44.736V51H86.4436V42.6H87.4276L92.4676 48.864V42.6H93.6676ZM98.4499 43.644H95.5699V42.6H102.518V43.644H99.6379V51H98.4499V43.644Z" fill="#323234"/>
<defs>
<filter id="filter0_d_59_506" x="0" y="0" width="135" height="75.0156" filterUnits="userSpaceOnUse" color-interpolation-filters="sRGB">
<feFlood flood-opacity="0" result="BackgroundImageFix"/>
<feColorMatrix in="SourceAlpha" type="matrix" values="0 0 0 0 0 0 0 0 0 0 0 0 0 0 0 0 0 0 127 0" result="hardAlpha"/>
<feOffset dy="4"/>
<feGaussianBlur stdDeviation="4"/>
<feComposite in2="hardAlpha" operator="out"/>
<feColorMatrix type="matrix" values="0 0 0 0 0.0130167 0 0 0 0 0.0116493 0 0 0 0 0.0800174 0 0 0 0.07 0"/>
<feBlend mode="normal" in2="BackgroundImageFix" result="effect1_dropShadow_59_506"/>
<feBlend mode="normal" in="SourceGraphic" in2="effect1_dropShadow_59_506" result="shape"/>
</filter>
<linearGradient id="paint0_linear_59_506" x1="14.0586" y1="4" x2="121.903" y2="6.42346" gradientUnits="userSpaceOnUse">
<stop stop-color="#E74779"/>
<stop offset="0.432292" stop-color="#F44F83"/>
<stop offset="1" stop-color="#F7DEE6"/>
</linearGradient>
</defs>
</svg>
