<svg width="54" height="33" viewBox="0 0 54 33" fill="none" xmlns="http://www.w3.org/2000/svg">
<g filter="url(#filter0_d_499_6578)">
<path d="M45.3809 15.5C45.3809 13.8854 46.5536 12.5763 48 12.5763V7.92367C46.5536 7.92367 45.3809 6.61495 45.3809 5H8.61906C8.61906 6.61495 7.44648 7.92367 6 7.92367V12.5763C7.44648 12.5763 8.61906 13.8854 8.61906 15.5C8.61906 17.1146 7.44648 18.4237 6 18.4237V23.0763C7.44648 23.0763 8.61906 24.3854 8.61906 26H45.3809C45.3809 24.3854 46.5536 23.0763 48 23.0763V18.4237C46.5536 18.4237 45.3809 17.1146 45.3809 15.5Z" fill="white"/>
</g>
<mask id="mask0_499_6578" style="mask-type:alpha" maskUnits="userSpaceOnUse" x="5" y="5" width="43" height="3">
<rect width="43" height="3" transform="matrix(1 0 0 -1 5 8)" fill="url(#paint0_linear_499_6578)"/>
</mask>
<g mask="url(#mask0_499_6578)">
<g filter="url(#filter1_d_499_6578)">
<path d="M45.3809 15.5C45.3809 13.8854 46.5536 12.5763 48 12.5763V7.92367C46.5536 7.92367 45.3809 6.61495 45.3809 5H8.61906C8.61906 6.61495 7.44648 7.92367 6 7.92367V12.5763C7.44648 12.5763 8.61906 13.8854 8.61906 15.5C8.61906 17.1146 7.44648 18.4237 6 18.4237V23.0763C7.44648 23.0763 8.61906 24.3854 8.61906 26H45.3809C45.3809 24.3854 46.5536 23.0763 48 23.0763V18.4237C46.5536 18.4237 45.3809 17.1146 45.3809 15.5Z" fill="url(#paint1_linear_499_6578)"/>
</g>
</g>
<defs>
<filter id="filter0_d_499_6578" x="0" y="0" width="54" height="33" filterUnits="userSpaceOnUse" color-interpolation-filters="sRGB">
<feFlood flood-opacity="0" result="BackgroundImageFix"/>
<feColorMatrix in="SourceAlpha" type="matrix" values="0 0 0 0 0 0 0 0 0 0 0 0 0 0 0 0 0 0 127 0" result="hardAlpha"/>
<feOffset dy="1"/>
<feGaussianBlur stdDeviation="3"/>
<feComposite in2="hardAlpha" operator="out"/>
<feColorMatrix type="matrix" values="0 0 0 0 0.0130167 0 0 0 0 0.0116493 0 0 0 0 0.0800174 0 0 0 0.09 0"/>
<feBlend mode="normal" in2="BackgroundImageFix" result="effect1_dropShadow_499_6578"/>
<feBlend mode="normal" in="SourceGraphic" in2="effect1_dropShadow_499_6578" result="shape"/>
</filter>
<filter id="filter1_d_499_6578" x="0" y="0" width="54" height="33" filterUnits="userSpaceOnUse" color-interpolation-filters="sRGB">
<feFlood flood-opacity="0" result="BackgroundImageFix"/>
<feColorMatrix in="SourceAlpha" type="matrix" values="0 0 0 0 0 0 0 0 0 0 0 0 0 0 0 0 0 0 127 0" result="hardAlpha"/>
<feOffset dy="1"/>
<feGaussianBlur stdDeviation="3"/>
<feComposite in2="hardAlpha" operator="out"/>
<feColorMatrix type="matrix" values="0 0 0 0 0.0130167 0 0 0 0 0.0116493 0 0 0 0 0.0800174 0 0 0 0.09 0"/>
<feBlend mode="normal" in2="BackgroundImageFix" result="effect1_dropShadow_499_6578"/>
<feBlend mode="normal" in="SourceGraphic" in2="effect1_dropShadow_499_6578" result="shape"/>
</filter>
<linearGradient id="paint0_linear_499_6578" x1="0" y1="0" x2="43.5054" y2="0.477714" gradientUnits="userSpaceOnUse">
<stop stop-color="#E74779"/>
<stop offset="0.432292" stop-color="#F44F83"/>
<stop offset="1" stop-color="#F7DEE6"/>
</linearGradient>
<linearGradient id="paint1_linear_499_6578" x1="6" y1="26" x2="48.4986" y2="25.9349" gradientUnits="userSpaceOnUse">
<stop stop-color="#E74779"/>
<stop offset="0.432292" stop-color="#F44F83"/>
<stop offset="1" stop-color="#F7DEE6"/>
</linearGradient>
</defs>
</svg>
