<svg width="30" height="30" viewBox="0 0 30 30" fill="none" xmlns="http://www.w3.org/2000/svg">
<circle cx="15" cy="15" r="15" fill="#E74779"/>
<path d="M15.0033 8.33398C16.7899 8.33398 18.2588 9.73792 18.3333 11.5169H18.3159C18.318 11.5686 18.3081 11.6201 18.2869 11.6673H18.391C19.2023 11.6673 20.0519 12.2297 20.3926 13.5872L20.4296 13.7474L20.9422 17.8771C21.3111 20.5111 19.87 21.6188 17.9041 21.6658L17.7723 21.6673H12.2457C10.2479 21.6673 8.70836 20.9393 9.04685 18.0564L9.06994 17.8771L9.58843 13.7474C9.84409 12.2854 10.7024 11.7088 11.5294 11.6695L11.6211 11.6673H11.6733C11.6645 11.6176 11.6645 11.5666 11.6733 11.5169C11.7478 9.73792 13.2167 8.33398 15.0033 8.33398ZM13.0647 13.8868C12.7393 13.8868 12.4755 14.1584 12.4755 14.4933C12.4755 14.8282 12.7393 15.0997 13.0647 15.0997C13.3901 15.0997 13.6539 14.8282 13.6539 14.4933L13.6493 14.4172C13.6129 14.1182 13.365 13.8868 13.0647 13.8868ZM16.9239 13.8868C16.5985 13.8868 16.3347 14.1584 16.3347 14.4933C16.3347 14.8282 16.5985 15.0997 16.9239 15.0997C17.2493 15.0997 17.5131 14.8282 17.5131 14.4933C17.5131 14.1584 17.2493 13.8868 16.9239 13.8868ZM14.9772 9.20224C13.6944 9.20224 12.6546 10.2385 12.6546 11.5169C12.6633 11.5666 12.6633 11.6176 12.6546 11.6673H17.3288C17.3103 11.6193 17.3004 11.5683 17.2998 11.5169C17.2998 10.2385 16.2599 9.20224 14.9772 9.20224Z" fill="white"/>
<path d="M14.3079 15.9239C14.1564 15.4694 14.4947 15 14.9738 15V15C15.4676 15 15.807 15.4962 15.628 15.9563L15.513 16.2523C15.45 16.4141 15.4342 16.5905 15.4674 16.7609L15.8065 18.505C15.9068 19.0208 15.5117 19.5 14.9863 19.5V19.5C14.47 19.5 14.0772 19.0364 14.1621 18.5271L14.4605 16.7368C14.4864 16.5813 14.4739 16.4218 14.424 16.2722L14.3079 15.9239Z" fill="#E74779"/>
</svg>
